<svg xmlns="http://www.w3.org/2000/svg" fill="none">
  <path fill="#FFA065" d="M82.616 33.763a4.55 4.55 0 0 0-2.208.586 4.432 4.432 0 0 0-1.624 1.579L55.99 74.582a4.311 4.311 0 0 0 0 4.33l22.794 38.645a4.375 4.375 0 0 0 1.62 1.586c.673.38 1.436.58 2.212.579h45.589a4.492 4.492 0 0 0 2.207-.582 4.375 4.375 0 0 0 1.616-1.583l22.794-38.645a4.31 4.31 0 0 0 0-4.33l-22.794-38.654a4.435 4.435 0 0 0-1.62-1.576 4.548 4.548 0 0 0-2.203-.59H82.616ZM128.227.445a1.367 1.367 0 0 0-.663.176 1.335 1.335 0 0 0-.487.474l-6.838 11.596a1.293 1.293 0 0 0 0 1.3l6.838 11.593c.117.197.284.361.486.475.202.114.431.174.664.174h13.676c.233 0 .461-.06.662-.174.202-.114.369-.278.485-.475l6.838-11.594a1.292 1.292 0 0 0 0-1.299L143.05 1.095a1.334 1.334 0 0 0-.486-.473 1.366 1.366 0 0 0-.661-.177h-13.676Z" opacity=".2"/>
  <path fill="#282828" d="M20.137 84.617c-.181 1.538 1.04 2.972 1.9 3.98.197.232.439.516.61.747-.078.036-.159.071-.227.101-.729.32-1.729.759-2.007 1.819-.203.779.062 1.641.81 2.64a14.482 14.482 0 0 0 1.383 1.589c.905.922.921.94.212 6.613-.16 1.294.244 2.488 1.173 3.453 4.332 4.501 19.746 3.651 23.476 3.371l6.282 12.56.552.023c.301.012 2.061.078 4.707.078 9.717 0 31.373-.893 36.488-8.647 1.484-2.248 1.532-4.863.145-7.77-4.379-9.185-.873-15.821 3.189-23.504 3.082-5.832 6.576-12.444 6.576-20.894 0-2.69-.165-5.412-.491-8.088-1.553-12.842-7.437-29.565-26.637-36.31-5.515-1.937-11.84-2.919-18.807-2.919-13.701 0-23.938 3.585-30.425 10.655-7.742 8.44-8.521 20.024-7.811 28.255.983 11.426-3.334 20.987-5.755 24.446-.74 1.058-.945 2.197-.594 3.295.739 2.305 3.738 3.855 5.251 4.507ZM77.806 18.2c18.171 6.46 23.762 22.433 25.242 34.6v7.449h-18.79l.443 1.25c.265.747.65 1.534 1.113 2.274l.09.123c.888 1.007 1.357 2.232 1.357 3.54a5.231 5.231 0 0 1-5.226 5.227c-2.893 0-5.248-2.344-5.248-5.227 0-1.316.474-2.537 1.371-3.532l.097-.129c.412-.656.773-1.392 1.105-2.252l.49-1.275H61V44.815a7.026 7.026 0 0 0 4.376 1.52c3.916 0 7.101-3.195 7.101-7.121A7.105 7.105 0 0 0 61 33.618V18.2h16.806ZM17.017 77.891c2.745-3.922 7.115-13.745 6.087-25.682-.678-7.858.042-18.889 7.325-26.828 6.117-6.666 15.888-10.047 29.042-10.047 4.001 0 7.779.332 11.299.991H59.125v18.969l.031 1.504 1.358-.681c.398-.2.812-.408 1.244-.695l.108-.084a5.23 5.23 0 0 1 8.736 3.877c0 2.893-2.344 5.246-5.226 5.246a5.157 5.157 0 0 1-3.503-1.362l-.145-.11a11.115 11.115 0 0 0-1.283-.688l-1.32-.59v20.416h17.917a9.735 9.735 0 0 1-.334.59 7.046 7.046 0 0 0-1.796 4.723c0 3.916 3.197 7.102 7.123 7.102a7.109 7.109 0 0 0 7.101-7.102c0-1.746-.612-3.376-1.771-4.718a9.847 9.847 0 0 1-.34-.596h16.477c-.339 7.334-3.38 13.092-6.328 18.67-4.12 7.792-8.008 15.152-3.223 25.187 1.099 2.306 1.093 4.245-.019 5.93-5.507 8.346-34.62 7.865-39.004 7.746l-6.35-12.7-.636.054c-5.126.437-19.181.801-22.6-2.754-.546-.568-.756-1.178-.663-1.92.763-6.109.786-6.609-.735-8.159-.324-.33-.728-.741-1.223-1.401-.563-.75-.497-1.028-.495-1.039.047-.182.633-.44.948-.577.608-.268 1.877-.825 1.465-2.065-.184-.553-.644-1.091-1.175-1.716-.974-1.145-1.75-2.15-1.357-2.867l.53-.965-1.037-.368c-1.18-.42-4.368-1.894-4.925-3.643-.111-.341-.193-.883.342-1.648Z"/>
</svg>