<svg xmlns="http://www.w3.org/2000/svg" fill="none">
  <path fill="#FDDA88" d="M88.547 48.197a7.088 7.088 0 0 0-6.13 3.53l-36.426 63.108a7.073 7.073 0 0 0 0 7.073l36.427 63.108a7.081 7.081 0 0 0 6.129 3.53h72.868a7.097 7.097 0 0 0 3.529-.949 7.096 7.096 0 0 0 2.586-2.581l36.427-63.151a7.074 7.074 0 0 0 0-7.074L167.53 51.727a7.093 7.093 0 0 0-6.115-3.53H88.547Z"/>
  <path fill="#FFA065" d="M88.74 192.642a7.259 7.259 0 0 0-6.216 3.588l-36.98 64.052a7.26 7.26 0 0 0 0 7.175l36.98 64.038a7.178 7.178 0 0 0 6.216 3.587h73.958a7.174 7.174 0 0 0 6.202-3.587l36.979-64.038a7.268 7.268 0 0 0 0-7.175L168.9 196.23a7.263 7.263 0 0 0-6.202-3.588H88.74Z"/>
  <path fill="#363636" d="M161.376 340.514H88.551a12.925 12.925 0 0 1-11.155-6.434l-36.485-63.109a12.908 12.908 0 0 1 0-12.883l36.442-63.108a12.925 12.925 0 0 1 11.154-6.434h72.869a12.902 12.902 0 0 1 11.14 6.434l36.441 63.108a12.914 12.914 0 0 1 0 12.883l-36.441 63.109a12.9 12.9 0 0 1-11.14 6.434ZM88.551 194.356a7.09 7.09 0 0 0-6.13 3.529l-36.47 63.108a7.076 7.076 0 0 0 0 7.074l36.427 63.108a7.09 7.09 0 0 0 6.13 3.529h72.868a7.086 7.086 0 0 0 6.114-3.529l36.442-63.108a7.147 7.147 0 0 0 0-7.074l-36.442-63.108a7.078 7.078 0 0 0-6.114-3.529H88.551Z"/>
  <path fill="#363636" d="M161.376 194.298H88.551a12.926 12.926 0 0 1-11.155-6.435l-36.485-63.108a12.911 12.911 0 0 1 0-12.883l36.442-63.108A12.926 12.926 0 0 1 88.55 42.33h72.868a12.898 12.898 0 0 1 11.14 6.434l36.442 63.108a12.914 12.914 0 0 1 0 12.883l-36.442 63.108a12.894 12.894 0 0 1-11.183 6.435ZM88.551 48.139a7.088 7.088 0 0 0-6.13 3.53l-36.47 63.108a7.073 7.073 0 0 0 0 7.073l36.427 63.108a7.081 7.081 0 0 0 6.13 3.53h72.868a7.08 7.08 0 0 0 6.114-3.53l36.442-63.108a7.14 7.14 0 0 0 0-7.073L167.49 51.669a7.079 7.079 0 0 0-6.114-3.53H88.551Z"/>
  <path fill="#363636" d="M169.959 199.337a2.906 2.906 0 0 1-2.527-1.452 12.886 12.886 0 0 1 0-12.869 2.907 2.907 0 0 1 5.04 2.905 7.045 7.045 0 0 0 0 7.059 2.906 2.906 0 0 1-1.075 3.98 2.908 2.908 0 0 1-1.438.377ZM206.446 408.343a2.908 2.908 0 0 1-2.513-1.453l-36.441-63.108a7.088 7.088 0 0 0-6.115-3.529H88.552a7.09 7.09 0 0 0-6.13 3.529l-31.038 53.74a2.912 2.912 0 0 1-2.897 1.432 2.913 2.913 0 0 1-2.142-4.337l31.052-53.74a12.925 12.925 0 0 1 11.155-6.434h72.868a12.903 12.903 0 0 1 11.141 6.434l36.441 63.108a2.902 2.902 0 0 1-1.06 3.965 2.9 2.9 0 0 1-1.496.393Z"/>
  <path fill="#363636" d="M51.51 408.443c6.746 0 12.215-5.469 12.215-12.215 0-6.746-5.469-12.215-12.215-12.215-6.746 0-12.215 5.469-12.215 12.215 0 6.746 5.469 12.215 12.215 12.215ZM207.783 420.587c6.746 0 12.215-5.469 12.215-12.215 0-6.746-5.469-12.215-12.215-12.215-6.746 0-12.215 5.469-12.215 12.215 0 6.746 5.469 12.215 12.215 12.215Z"/>
  <path stroke="#363636" stroke-width="3.522" d="M119.169 116.592c0 11.115-8.5 19.956-18.782 19.956s-18.782-8.841-18.782-19.956 8.5-19.956 18.782-19.956 18.782 8.841 18.782 19.956ZM167.299 116.005c0 11.115-8.5 19.956-18.783 19.956-10.282 0-18.782-8.841-18.782-19.956s8.5-19.956 18.782-19.956c10.283 0 18.783 8.841 18.783 19.956Z"/>
  <path fill="#363636" stroke="#363636" stroke-width=".587" d="M116.528 109.17c0-.518.278-.995.729-1.25l5.164-2.921a3.228 3.228 0 0 1 3.375.12l4.202 2.79a1.38 1.38 0 0 1-1.431 2.357l-2.703-1.496a3.786 3.786 0 0 0-3.448-.112l-3.84 1.81a1.435 1.435 0 0 1-2.048-1.298Z"/>
  <path stroke="#363636" stroke-linecap="round" stroke-width="1.174" d="m116.103 146.386 13.992-1.168"/>
  <path fill="#363636" stroke="#363636" stroke-width=".587" d="M152.789 119.821c0 3.591-2.653 6.456-5.87 6.456s-5.869-2.865-5.869-6.456c0-3.592 2.652-6.457 5.869-6.457 3.217 0 5.87 2.865 5.87 6.457Z"/>
  <circle cx="146.593" cy="119.037" r="1.761" fill="#fff" stroke="#363636" stroke-width=".587"/>
  <path fill="#363636" stroke="#363636" stroke-width=".587" d="M106.256 119.821c0 3.591-2.652 6.456-5.869 6.456-3.217 0-5.87-2.865-5.87-6.456 0-3.592 2.653-6.457 5.87-6.457s5.869 2.865 5.869 6.457Z"/>
  <circle cx="100.909" cy="119.037" r="1.761" fill="#fff" stroke="#363636" stroke-width=".587"/>
  <path stroke="#363636" stroke-linecap="round" stroke-width="1.761" d="M81.304 99.137c7.046-6.425 10.302-11.189 19.507-14.24M139.663 82.709c4.544.15 10.052 1.7 13.801 4.512.352.263 2.653 2.305 1.99 1.974"/>
  <path fill="#363636" d="M170.844 197.848a3.64 3.64 0 0 1-2.623-2.615l-1.402-5.406 50.116 12.196 1.616.307c10.978 2.084 15.231 15.543 7.444 23.557l-18.946 23.563a2.666 2.666 0 0 1-4.279-3.175l19.811-29.008c.357-.523.572-1.13.623-1.761l.035-.437a3.642 3.642 0 0 0-1.375-3.153l-1.3-1.025a3.638 3.638 0 0 0-1.352-.668l-48.368-12.375Z"/>
  <path fill="#363636" d="M202.089 250.12c-2.664-5.039-7.6-10.988-4.032-12.875 3.569-1.887 10.188 2.587 12.852 7.625 2.664 5.039 1.931 10.653-1.637 12.54-3.569 1.887-4.519-2.252-7.183-7.29ZM80.017 187.964a3.642 3.642 0 0 1 2.623 2.615l1.401 5.406-50.116-12.196-1.615-.307c-10.979-2.084-15.232-15.543-7.444-23.557l18.945-23.563a2.666 2.666 0 0 1 4.28 3.175l-19.812 29.008a3.643 3.643 0 0 0-.623 1.761l-.035.437a3.643 3.643 0 0 0 1.376 3.154l1.3 1.024c.398.315.86.542 1.351.668l48.369 12.375Z"/>
  <path fill="#363636" d="M48.771 135.692c2.665 5.039 7.6 10.988 4.032 12.875-3.569 1.887-10.187-2.587-12.851-7.625-2.665-5.039-1.932-10.653 1.637-12.54 3.568-1.887 4.518 2.252 7.182 7.29ZM35.927 30.057c-.566.299-1.044.388-1.433.267-.361-.135-.676-.457-.944-.967l-.381-.722c-.956-1.811-1.358-3.534-1.208-5.17.179-1.65.877-3.447 2.094-5.391.817-1.263 1.383-2.25 1.696-2.957.342-.724.493-1.364.452-1.921-.027-.6-.242-1.283-.646-2.047-.686-1.302-1.676-2.047-2.968-2.233-1.308-.215-2.796.118-4.466.999-2.576 1.359-4.49 3.147-5.745 5.364-.165.304-.318.494-.46.569-.17.09-.392.044-.668-.136l-2.481-1.514c-.233-.166-.371-.292-.416-.377-.105-.198-.068-.47.11-.818.73-1.362 1.775-2.673 3.136-3.933 1.346-1.29 3.01-2.457 4.99-3.502 3.03-1.597 5.836-2.174 8.423-1.73 2.614.43 4.586 1.905 5.915 4.424.91 1.726 1.247 3.358 1.008 4.895-.21 1.522-.96 3.256-2.248 5.202-1.08 1.655-1.688 3.007-1.823 4.055-.15 1.02.12 2.18.806 3.482l.314.594c.268.51.343.96.222 1.348-.092.374-.435.718-1.03 1.032l-2.25 1.187Zm3.639 6.383c-.68.359-1.3.487-1.86.385a1.878 1.878 0 0 1-1.224-.983l-.448-.85c-.284-.537-.324-1.058-.12-1.564.217-.548.665-1.002 1.345-1.36l1.825-.963c.708-.374 1.335-.488 1.882-.342.532.117.94.445 1.224.982l.448.85c.269.509.295 1.038.078 1.587-.204.505-.646.937-1.325 1.295l-1.825.963Z"/>
</svg>