<svg xmlns="http://www.w3.org/2000/svg" fill="none" viewBox="0 0 168 132"><path fill="#8894FD" fill-opacity=".6" d="M81.161 0a5.291 5.291 0 0 0-4.529 2.614L49.691 49.28a5.29 5.29 0 0 0 0 5.228l26.941 46.655a5.221 5.221 0 0 0 4.53 2.614h53.883a5.23 5.23 0 0 0 4.518-2.614l26.942-46.655a5.288 5.288 0 0 0 0-5.228L139.563 2.614A5.29 5.29 0 0 0 135.045 0H81.161Z"/><path fill="#000" d="M75.234 65.626c-1.04-2.646-3.104-3.354-5.278-4.1-2.43-.833-4.977-1.706-6.742-4.892-2.403 1.074-3.085 3.064-3.802 5.154-.816 2.38-1.671 4.873-4.7 6.632 1.02 2.765 3.121 3.486 5.334 4.245 2.392.82 4.9 1.68 6.66 4.746 2.49-1.063 3.181-3.08 3.908-5.2.809-2.359 1.656-4.829 4.62-6.585Zm-33.171 48.759c-9.188 4.335-24.204 10.391-34.26 11.469-1.018.108-1.182-1.44-.164-1.548 9.608-1.03 23.56-6.667 32.42-10.707-5.545-3.368-9.876-14.419-11.025-20.456-2.931.498-15.672 1.688-21.313 1.412-1.022 0-1.022-1.554 0-1.554 6.583.17 17.534-.755 21.014-1.652-1.007-7.073 1.19-13.565.116-20.222-3.203-.045-5.558-3.98-4.488-6.845-3.285-.579-5.351-5.528-2.973-8.254-2.777-1.098-3.862-5.23-1.973-7.549-1.968-.887-2.15-3.814-1.462-5.623-4.493-8.995-10.482-23.002-11.553-33-.108-1.018 1.44-1.182 1.548-.165 1.027 9.586 6.688 22.836 10.925 31.518 3.951-5.357 14.188-9.38 20.462-10.508C38.33 23.918 37.7 16.633 37.7 9.774c0-1.022 1.554-1.022 1.554 0 0 6.762.626 13.993 1.616 20.683 6.785-.939 14.118 1.425 19.753.306.195-3.082 4.03-5.333 6.838-4.285.58-3.29 5.53-5.35 8.254-2.972 1.1-2.783 5.242-3.852 7.55-1.973.638-1.034 2.059-1.643 3.243-1.775 8.878-4.42 25.856-10.557 35.714-11.613 1.018-.108 1.182 1.44.164 1.548-9.589 1.027-24.292 6.502-33.18 10.51 5.815 2.61 10.55 14.476 11.762 20.845 4.393-.525 17.179-1.809 21.336-1.604 1.022 0 1.022 1.553 0 1.553-6.872 0-14.266.642-21.062 1.674.286 1.945.426 3.945.365 5.957-.149 5.003-1.227 8.923-.422 14.243 3.184.054 5.549 3.975 4.477 6.846 3.221.567 5.38 5.495 2.973 8.254 2.783 1.1 3.852 5.242 1.973 7.549 1.441.89 2.024 3.118 1.719 4.72 4.309 9.154 10.199 24.075 11.273 34.095.108 1.018-1.44 1.183-1.548.165-1.029-9.597-6.504-23.423-10.522-32.272-3.437 5.598-14.607 9.956-20.892 11.078 1.026 6.836 1.663 14.2 1.662 21.111 0 1.022-1.554 1.022-1.554 0 .001-6.816-.633-14.126-1.644-20.868-6.962.954-12.958-.997-19.719-.528.113 3.294-3.902 5.79-6.843 4.692-.557 3.16-5.473 5.399-8.254 2.972-1.1 2.783-5.243 3.852-7.55 1.973-.888 1.437-3.102 2.011-4.675 1.727Zm66.475-27.23-4.989 3.5c-.836.589-1.732-.685-.895-1.273l6.253-4.39c2.481-1.74.235-6.997-2.354-5.407L100.66 83.6c-.845.576-1.722-.71-.878-1.286l6.981-4.754c3.406-2.319-.365-7.468-2.514-6.105l-6.726 4.268c-.86.552-1.702-.758-.841-1.31l6.837-4.38c2.024-1.295.147-6.06-2.859-5.567-.455.074-3.211 1.72-5.425 3.04-3.21 1.916-6.064 3.642-10.028 3.347-2.609-.195-5.54-1.321-8.966-4.01-2.648 1.49-3.418 3.734-4.152 5.875-.894 2.606-1.742 5.078-5.284 6.324-5.248 6.564-4.845 10.532-.718 17.446 1.03 1.725 2.246 3.763 2.857 5.007 7.447-.637 13.509 1.662 21.282.305 5.796-1.011 17.063-5.285 20.066-10.536 1.124-1.966.277-5.671-1.754-4.109Zm-8.873-23.947c-.861-5.533.235-9.447.389-14.623.07-2.331-.15-4.732-.582-7.079-.906-4.93-5.426-17.595-10.885-19.793-1.058-.426-3.428-.571-3.931.767-.338.898 3.123 5.226 3.745 6.112.589.837-.685 1.733-1.273.896l-4.39-6.253c-1.663-2.37-6.55-.386-5.57 2.034.484 1.191 3.275 4.889 4.176 6.213.577.844-.71 1.722-1.286.877l-4.754-6.98c-2.082-3.059-7.771-.116-6.073 2.56l4.236 6.68c.552.86-.758 1.701-1.31.84l-4.38-6.836c-1.295-2.024-6.06-.148-5.568 2.858.075.455 1.72 3.211 3.041 5.425 4.4 7.37 4.855 11.963-.663 18.994 1.49 2.648 3.734 3.418 5.875 4.152 2.59.888 5.047 1.73 6.301 5.217 2.436 1.976 5.354 3.79 8.56 4.029 3.56.266 6.225-1.403 9.114-3.127 1.832-1.093 4.016-2.397 5.228-2.963Zm-58.064 42.391c-.588-.837.685-1.732 1.274-.896l4.389 6.254c1.663 2.369 6.55.385 5.57-2.035l-4.176-6.213c-.576-.844.71-1.722 1.286-.877l4.754 6.981c2.157 3.167 7.93.075 5.827-2.999-1.363-1.996-2.677-4.193-3.99-6.241-.552-.86.759-1.702 1.31-.841l4.38 6.836c1.296 2.024 6.06.148 5.568-2.858-.074-.455-1.72-3.211-3.04-5.425-4.4-7.37-4.855-11.962.662-18.993-1.49-2.649-3.734-3.419-5.875-4.153-2.66-.912-5.18-1.777-6.4-5.51-6.592-5.316-10.577-4.963-17.551-.8-1.827 1.09-4.004 2.389-5.218 2.957 1.245 7.477-1.349 13.978.192 22.071 1.046 5.495 5.272 16.534 10.43 19.484 1.89 1.08 5.574.217 4.198-1.605-1.218-1.613-2.416-3.465-3.59-5.137ZM26.477 43.343c.836-.588 1.732.685.895 1.274l-5.835 4.095c-3.152 2.212-.68 6.794 1.616 5.863l6.213-4.175c.845-.576 1.722.71.878 1.286l-6.981 4.754c-2.693 1.834-.895 6.156 1.549 6.271.287.014.773-.072 1.28-.392l6.411-4.042c.86-.552 1.702.758.841 1.31l-6.837 4.379c-2.044 1.309-.111 6.054 2.859 5.568.455-.074 3.211-1.72 5.425-3.04 7.37-4.4 11.963-4.855 18.994.662 2.649-1.49 3.418-3.733 4.152-5.874.909-2.648 1.77-5.159 5.46-6.385 5.078-6.495 4.56-10.422.519-17.193-1.149-1.924-2.53-4.238-3.044-5.405-6.005 1.152-12.982-1.255-19.848-.292a37.45 37.45 0 0 0-1.382.22c-5.584.999-17.064 5.22-20.073 10.482-.993 1.666-.546 4.984 1.207 4.525l5.7-3.89Z"/></svg>