<?xml version="1.0" encoding="UTF-8"?>
<svg viewBox="0 0 1440 786"
  xmlns="http://www.w3.org/2000/svg">
  <g fill="#298F88" opacity=".3">
    <g opacity=".2">
      <path d="m1131.3 446.21c-1.96 0.013-3.89 0.537-5.6 1.52-1.7 0.983-3.12 2.391-4.11 4.087l-57.79 100.1c-0.97 1.709-1.48 3.641-1.48 5.607s0.51 3.897 1.48 5.606l57.79 100.08c0.98 1.705 2.4 3.121 4.1 4.105 1.71 0.985 3.64 1.502 5.61 1.502h115.58c1.97-4e-3 3.9-0.523 5.6-1.507s3.11-2.398 4.1-4.1l57.79-100.08c0.97-1.709 1.48-3.64 1.48-5.606s-0.51-3.898-1.48-5.607l-57.79-100.1c-1-1.693-2.41-3.099-4.11-4.082-1.7-0.982-3.62-1.508-5.59-1.525h-115.58z"/>
      <path d="m1332 562.88c-1.97 0.013-3.9 0.536-5.6 1.519s-3.12 2.391-4.12 4.088l-57.79 100.1c-0.97 1.709-1.48 3.641-1.48 5.606 0 1.966 0.51 3.898 1.48 5.607l57.79 100.08c0.99 1.705 2.4 3.121 4.11 4.105 1.7 0.984 3.64 1.502 5.61 1.501h115.58c1.96-3e-3 3.89-0.523 5.59-1.507 1.71-0.984 3.12-2.398 4.1-4.099l57.79-100.08c0.97-1.709 1.48-3.641 1.48-5.607 0-1.965-0.51-3.897-1.48-5.606l-57.79-100.1c-0.99-1.693-2.41-3.1-4.11-4.082-1.69-0.983-3.62-1.508-5.58-1.525h-115.58z"/>
      <path d="m1370.4 329.88c-1.55 0.011-3.08 0.425-4.43 1.203s-2.47 1.893-3.26 3.235l-45.74 79.231c-0.77 1.353-1.17 2.882-1.17 4.437 0 1.556 0.4 3.085 1.17 4.438l45.74 79.213c0.78 1.35 1.9 2.47 3.25 3.249s2.89 1.189 4.44 1.189h91.49c1.55-3e-3 3.08-0.414 4.43-1.193 1.34-0.779 2.46-1.898 3.24-3.245l45.74-79.213c0.77-1.353 1.17-2.882 1.17-4.438 0-1.555-0.4-3.084-1.17-4.437l-45.74-79.231c-0.79-1.34-1.91-2.453-3.25-3.231-1.35-0.777-2.87-1.193-4.42-1.207h-91.49z"/>
      <path d="m1199.1 240c-0.82 5e-3 -1.63 0.224-2.34 0.634-0.71 0.411-1.31 0.999-1.72 1.708l-24.14 41.82c-0.41 0.714-0.62 1.521-0.62 2.342s0.21 1.628 0.62 2.342l24.14 41.811c0.41 0.712 1 1.304 1.71 1.715 0.72 0.411 1.53 0.628 2.35 0.627h48.29c0.82-1e-3 1.62-0.218 2.33-0.629s1.3-1.002 1.71-1.713l24.15-41.811c0.4-0.714 0.62-1.521 0.62-2.342s-0.22-1.628-0.62-2.342l-24.15-41.82c-0.41-0.707-1-1.295-1.71-1.705-0.71-0.411-1.51-0.63-2.33-0.637h-48.29z"/>
      <path d="m1333.9 0c-0.51 0.0033664-1.02 0.14028-1.46 0.39733-0.45 0.25705-0.82 0.62542-1.08 1.069l-15.11 26.18c-0.26 0.4469-0.39 0.9522-0.39 1.4663s0.13 1.0193 0.39 1.4663l15.11 26.174c0.26 0.446 0.63 0.8163 1.08 1.0737 0.44 0.2574 0.95 0.3928 1.46 0.3927h30.23c0.52-9e-4 1.02-0.1368 1.47-0.3942 0.44-0.2573 0.81-0.6271 1.07-1.0722l15.11-26.174c0.25-0.447 0.39-0.9522 0.39-1.4663s-0.14-1.0194-0.39-1.4663l-15.11-26.18c-0.26-0.44272-0.63-0.81053-1.08-1.0675-0.44-0.257-0.95-0.39441-1.46-0.3988h-30.23z"/>
    </g>
    <g opacity=".2">
      <path d="m729.44 446.08c-1.967 0.013-3.896 0.536-5.599 1.519s-3.122 2.391-4.116 4.087l-57.791 100.1c-0.971 1.709-1.482 3.641-1.482 5.606 0 1.966 0.511 3.898 1.482 5.607l57.791 100.08c0.984 1.706 2.4 3.122 4.106 4.106 1.705 0.984 3.64 1.502 5.609 1.501h115.58c1.966-3e-3 3.895-0.523 5.596-1.507 1.702-0.984 3.114-2.398 4.097-4.1l57.791-100.08c0.971-1.709 1.481-3.641 1.481-5.607 0-1.965-0.51-3.897-1.481-5.606l-57.791-100.1c-0.993-1.692-2.408-3.099-4.107-4.081-1.699-0.983-3.623-1.508-5.586-1.525h-115.58z"/>
      <path d="m930.11 562.75c-1.966 0.013-3.895 0.536-5.598 1.519s-3.122 2.392-4.117 4.088l-57.791 100.1c-0.971 1.709-1.481 3.641-1.481 5.606 0 1.966 0.51 3.898 1.481 5.607l57.791 100.08c0.985 1.705 2.401 3.121 4.106 4.105 1.706 0.984 3.64 1.502 5.609 1.501h115.59c1.96-3e-3 3.89-0.523 5.59-1.507s3.12-2.397 4.1-4.099l57.79-100.08c0.97-1.709 1.48-3.641 1.48-5.607 0-1.965-0.51-3.897-1.48-5.606l-57.79-100.1c-0.99-1.693-2.41-3.1-4.11-4.082-1.7-0.983-3.62-1.508-5.58-1.525h-115.59z"/>
      <path d="m951.72 403c-1.231 8e-3 -2.438 0.336-3.504 0.951-1.067 0.616-1.955 1.497-2.578 2.559l-36.178 62.667c-0.608 1.069-0.928 2.279-0.928 3.509 0 1.231 0.32 2.44 0.928 3.51l36.178 62.653c0.617 1.067 1.503 1.953 2.571 2.57 1.068 0.616 2.279 0.94 3.511 0.939h72.358c1.23-2e-3 2.44-0.327 3.5-0.943 1.07-0.616 1.95-1.501 2.57-2.566l36.18-62.653c0.6-1.07 0.92-2.279 0.92-3.51 0-1.23-0.32-2.44-0.92-3.509l-36.18-62.667c-0.62-1.06-1.51-1.94-2.57-2.555-1.07-0.615-2.27-0.944-3.5-0.955h-72.358z"/>
      <path d="m825.59 228.57c-0.463 3e-3 -0.917 0.126-1.318 0.358-0.401 0.231-0.736 0.563-0.97 0.962l-13.612 23.579c-0.229 0.402-0.349 0.857-0.349 1.32s0.12 0.918 0.349 1.321l13.612 23.573c0.232 0.402 0.566 0.735 0.967 0.967 0.402 0.232 0.858 0.354 1.321 0.354h27.225c0.463-1e-3 0.918-0.123 1.318-0.355 0.401-0.232 0.734-0.565 0.965-0.966l13.613-23.573c0.228-0.403 0.349-0.858 0.349-1.321s-0.121-0.918-0.349-1.32l-13.613-23.579c-0.234-0.398-0.567-0.73-0.967-0.961-0.4-0.232-0.853-0.355-1.316-0.359h-27.225z"/>
    </g>
    <g opacity=".2">
      <path d="m327.46 445.95c-1.966 0.013-3.895 0.536-5.598 1.519-1.704 0.983-3.122 2.391-4.117 4.088l-57.791 100.1c-0.971 1.709-1.481 3.641-1.481 5.606 0 1.966 0.51 3.898 1.481 5.607l57.791 100.08c0.985 1.705 2.401 3.121 4.106 4.105 1.706 0.984 3.64 1.502 5.609 1.501h115.58c1.965-3e-3 3.895-0.523 5.596-1.507s3.114-2.398 4.096-4.099l57.791-100.08c0.971-1.709 1.482-3.641 1.482-5.607 0-1.965-0.511-3.897-1.482-5.606l-57.791-100.1c-0.993-1.693-2.408-3.1-4.106-4.082-1.699-0.983-3.624-1.508-5.586-1.525h-115.58z"/>
      <path d="m528.14 562.62c-1.966 0.013-3.896 0.537-5.599 1.52-1.703 0.982-3.121 2.391-4.116 4.087l-57.791 100.1c-0.971 1.709-1.482 3.641-1.482 5.607 0 1.965 0.511 3.897 1.482 5.606l57.791 100.08c0.984 1.705 2.401 3.121 4.106 4.105 1.705 0.985 3.64 1.502 5.609 1.502h115.58c1.965-4e-3 3.895-0.523 5.596-1.507s3.114-2.398 4.096-4.1l57.791-100.08c0.971-1.709 1.482-3.641 1.482-5.606 0-1.966-0.511-3.898-1.482-5.607l-57.791-100.1c-0.993-1.693-2.408-3.099-4.107-4.082-1.698-0.982-3.623-1.508-5.585-1.525h-115.58z"/>
      <path d="m521.14 299.62c-1.319 9e-3 -2.614 0.36-3.757 1.02-1.143 0.659-2.095 1.605-2.763 2.743l-38.786 67.182c-0.652 1.147-0.994 2.444-0.994 3.763s0.342 2.616 0.994 3.763l38.786 67.167c0.661 1.144 1.611 2.095 2.756 2.755 1.144 0.661 2.443 1.008 3.764 1.008h77.572c1.319-2e-3 2.614-0.351 3.756-1.011 1.142-0.661 2.09-1.61 2.749-2.752l38.786-67.167c0.652-1.147 0.995-2.444 0.995-3.763s-0.343-2.616-0.995-3.763l-38.786-67.182c-0.666-1.136-1.616-2.08-2.756-2.739-1.14-0.66-2.432-1.013-3.749-1.024h-77.572z"/>
    </g>
    <g opacity=".2">
      <path d="m-74.526 445.95c-1.9663 0.013-3.8955 0.537-5.5986 1.519-1.703 0.983-3.1215 2.392-4.1164 4.088l-57.791 100.1c-0.971 1.709-1.482 3.641-1.482 5.607 0 1.965 0.511 3.897 1.482 5.606l57.791 100.08c0.9845 1.705 2.4006 3.121 4.1061 4.105 1.7054 0.984 3.6399 1.502 5.6089 1.501h115.58c1.9652-3e-3 3.895-0.523 5.5961-1.507s3.1137-2.397 4.0963-4.099l57.791-100.08c0.971-1.709 1.481-3.641 1.481-5.606 0-1.966-0.51-3.898-1.481-5.607l-57.791-100.1c-0.993-1.693-2.4079-3.099-4.1067-4.082-1.6987-0.983-3.6232-1.508-5.5857-1.525h-115.58z"/>
      <path d="m126.15 562.62c-1.967 0.013-3.896 0.536-5.599 1.519s-3.122 2.391-4.116 4.087l-57.791 100.1c-0.971 1.709-1.4815 3.64-1.4815 5.606s0.5105 3.898 1.4815 5.607l57.791 100.08c0.984 1.706 2.4 3.121 4.106 4.106 1.705 0.984 3.64 1.502 5.609 1.501h115.58c1.966-3e-3 3.895-0.523 5.597-1.507 1.701-0.984 3.113-2.398 4.096-4.1l57.791-100.08c0.971-1.709 1.481-3.641 1.481-5.607s-0.51-3.897-1.481-5.606l-57.791-100.1c-0.993-1.693-2.408-3.099-4.107-4.082-1.699-0.982-3.623-1.508-5.586-1.524h-115.58z"/>
      <path d="m141.52 329.62c-1.444 9e-3 -2.859 0.393-4.109 1.115-1.25 0.721-2.291 1.755-3.022 3l-42.415 73.468c-0.7126 1.255-1.0873 2.672-1.0873 4.115s0.3747 2.861 1.0873 4.115l42.415 73.452c0.723 1.252 1.762 2.291 3.014 3.013 1.252 0.723 2.671 1.103 4.117 1.102h84.83c1.442-2e-3 2.859-0.384 4.107-1.106 1.249-0.722 2.286-1.76 3.007-3.009l42.415-73.452c0.713-1.254 1.087-2.672 1.087-4.115s-0.374-2.86-1.087-4.115l-42.415-73.468c-0.729-1.243-1.768-2.275-3.014-2.996-1.247-0.721-2.66-1.107-4.1-1.119h-84.83z"/>
      <path d="m284.58 160c-0.858 6e-3 -1.701 0.235-2.445 0.664s-1.363 1.044-1.797 1.785l-25.239 43.716c-0.424 0.746-0.647 1.59-0.647 2.448 0 0.859 0.223 1.702 0.647 2.449l25.239 43.706c0.429 0.745 1.048 1.363 1.793 1.793 0.744 0.43 1.589 0.656 2.449 0.655h50.477c0.858-1e-3 1.701-0.228 2.444-0.658s1.359-1.047 1.789-1.79l25.238-43.706c0.424-0.747 0.647-1.59 0.647-2.449 0-0.858-0.223-1.702-0.647-2.448l-25.238-43.716c-0.434-0.739-1.052-1.353-1.794-1.783-0.742-0.429-1.582-0.658-2.439-0.666h-50.477z"/>
      <path d="m125.36 40c-0.437 0.0029-0.866 0.1193-1.245 0.3378-0.379 0.2186-0.694 0.5318-0.916 0.909l-12.851 22.26c-0.216 0.38-0.329 0.8096-0.329 1.2468 0 0.4371 0.113 0.8667 0.329 1.2468l12.851 22.255c0.219 0.3792 0.534 0.6941 0.914 0.9129 0.379 0.2189 0.809 0.3341 1.247 0.3339h25.703c0.437-7e-4 0.866-0.1163 1.244-0.3351 0.379-0.2188 0.693-0.5332 0.911-0.9117l12.852-22.255c0.216-0.3801 0.329-0.8097 0.329-1.2468 0-0.4372-0.113-0.8668-0.329-1.2468l-12.852-22.26c-0.22-0.3764-0.535-0.6892-0.913-0.9077s-0.806-0.3354-1.242-0.3391h-25.703z"/>
    </g>
  </g>
</svg>
