<svg xmlns="http://www.w3.org/2000/svg">
  <g fill="#FFA065" opacity=".2">
    <path d="M114.921 332.942a6.799 6.799 0 0 0-3.359-5.822l-59.986-34.631a6.8 6.8 0 0 0-6.72 0l-59.971 34.631a6.717 6.717 0 0 0-3.36 5.822v69.262a6.719 6.719 0 0 0 3.36 5.808l59.972 34.631a6.8 6.8 0 0 0 6.72 0l59.985-34.631a6.805 6.805 0 0 0 3.359-5.808v-69.262ZM45.01 533.195a6.797 6.797 0 0 0-3.36-5.822l-59.986-34.631a6.8 6.8 0 0 0-6.72 0l-59.971 34.631a6.718 6.718 0 0 0-3.36 5.822v69.262a6.719 6.719 0 0 0 3.36 5.808l59.972 34.631a6.799 6.799 0 0 0 6.72 0l59.985-34.631a6.801 6.801 0 0 0 3.36-5.808v-69.262ZM184.633 496.252a5.38 5.38 0 0 0-2.659-4.608l-47.479-27.411a5.39 5.39 0 0 0-5.319 0l-47.468 27.411a5.32 5.32 0 0 0-2.659 4.608v54.821a5.322 5.322 0 0 0 2.66 4.597l47.467 27.411a5.38 5.38 0 0 0 5.319 0l47.479-27.411a5.385 5.385 0 0 0 2.659-4.597v-54.821ZM358.494 423.591a2.848 2.848 0 0 0-1.404-2.432l-25.061-14.468a2.838 2.838 0 0 0-2.807 0l-25.055 14.468a2.805 2.805 0 0 0-1.403 2.432v28.937a2.813 2.813 0 0 0 1.403 2.426l25.055 14.468a2.845 2.845 0 0 0 2.807 0l25.061-14.468a2.845 2.845 0 0 0 1.404-2.426v-28.937ZM510.176 227.286a2.843 2.843 0 0 0-1.403-2.432l-25.061-14.468a2.831 2.831 0 0 0-2.807 0l-25.055 14.468a2.808 2.808 0 0 0-1.404 2.432v28.936a2.804 2.804 0 0 0 1.404 2.426l25.055 14.468a2.842 2.842 0 0 0 2.807 0l25.061-14.468a2.837 2.837 0 0 0 1.403-2.426v-28.936ZM482.311 474.343a1.782 1.782 0 0 0-.879-1.523l-15.688-9.057a1.782 1.782 0 0 0-1.757 0l-15.685 9.057a1.759 1.759 0 0 0-.879 1.523v18.114a1.763 1.763 0 0 0 .879 1.519l15.685 9.058a1.776 1.776 0 0 0 1.757 0l15.688-9.058a1.77 1.77 0 0 0 .879-1.519v-18.114Z"/>
  </g>
  <g fill="#FFA065" opacity=".2">
    <path d="M1322.65 352.942a6.81 6.81 0 0 1 .91-3.355 6.778 6.778 0 0 1 2.45-2.467l59.99-34.631a6.784 6.784 0 0 1 3.36-.888c1.17 0 2.33.306 3.36.888l59.97 34.631a6.725 6.725 0 0 1 3.36 5.822v69.262a6.806 6.806 0 0 1-.91 3.353 6.708 6.708 0 0 1-2.45 2.455l-59.97 34.631a6.84 6.84 0 0 1-3.36.888c-1.18 0-2.34-.306-3.36-.888l-59.99-34.631a6.855 6.855 0 0 1-2.45-2.461 6.89 6.89 0 0 1-.91-3.347v-69.262ZM1402.56 523.195a6.81 6.81 0 0 1 .91-3.355 6.856 6.856 0 0 1 2.45-2.467l59.99-34.631a6.784 6.784 0 0 1 3.36-.888c1.18 0 2.33.306 3.36.888l59.97 34.631a6.725 6.725 0 0 1 3.36 5.822v69.262c0 1.177-.31 2.334-.9 3.353a6.735 6.735 0 0 1-2.46 2.455l-59.97 34.631a6.81 6.81 0 0 1-6.72 0l-59.99-34.631a6.828 6.828 0 0 1-2.44-2.461 6.794 6.794 0 0 1-.92-3.347v-69.262ZM1252.94 486.252a5.378 5.378 0 0 1 2.66-4.608l47.48-27.411a5.396 5.396 0 0 1 5.32 0l47.46 27.411a5.342 5.342 0 0 1 1.95 1.948c.47.809.71 1.726.71 2.66v54.821c0 .932-.24 1.848-.71 2.655a5.34 5.34 0 0 1-1.95 1.942l-47.46 27.411a5.386 5.386 0 0 1-5.32 0l-47.48-27.411a5.443 5.443 0 0 1-1.94-1.947 5.47 5.47 0 0 1-.72-2.65v-54.821ZM1209.08 353.591c0-.492.13-.975.38-1.402a2.9 2.9 0 0 1 1.02-1.03l25.06-14.468a2.85 2.85 0 0 1 2.81 0l25.05 14.468c.43.246.79.601 1.03 1.028.25.427.38.911.38 1.404v28.936a2.815 2.815 0 0 1-1.41 2.427l-25.05 14.468a2.85 2.85 0 0 1-2.81 0l-25.06-14.468a2.898 2.898 0 0 1-1.02-1.029 2.754 2.754 0 0 1-.38-1.398v-28.936ZM935.261 504.343a1.782 1.782 0 0 1 .879-1.523l15.688-9.057a1.782 1.782 0 0 1 1.758 0l15.684 9.057a1.753 1.753 0 0 1 .879 1.523v18.114a1.752 1.752 0 0 1-.879 1.519l-15.684 9.058a1.782 1.782 0 0 1-1.758 0l-15.688-9.058a1.777 1.777 0 0 1-.879-1.519v-18.114ZM1055.1 351.312c0-.308.09-.61.24-.877s.37-.49.64-.646l15.69-9.057a1.786 1.786 0 0 1 1.76 0l15.68 9.057c.27.155.49.377.64.644.16.267.24.57.24.879v18.115c0 .308-.08.61-.24.877a1.7 1.7 0 0 1-.64.642l-15.68 9.057a1.786 1.786 0 0 1-1.76 0l-15.69-9.057a1.879 1.879 0 0 1-.64-.644 1.794 1.794 0 0 1-.24-.875v-18.115ZM1109.99 477.456c0-.493.13-.976.38-1.402a2.9 2.9 0 0 1 1.02-1.03l25.06-14.469c.43-.243.92-.37 1.41-.37.49 0 .97.127 1.4.37l25.06 14.469c.42.246.78.601 1.02 1.027.25.427.38.912.38 1.405v28.936c0 .492-.13.975-.38 1.401-.24.426-.6.779-1.02 1.025l-25.06 14.468a2.84 2.84 0 0 1-2.81 0l-25.06-14.468a2.895 2.895 0 0 1-1.02-1.028 2.857 2.857 0 0 1-.38-1.398v-28.936ZM909.531 318.335a2.844 2.844 0 0 1 1.404-2.432l25.06-14.468a2.845 2.845 0 0 1 2.808 0l25.054 14.468a2.8 2.8 0 0 1 1.404 2.432v28.936a2.813 2.813 0 0 1-1.404 2.427l-25.054 14.468a2.845 2.845 0 0 1-2.808 0l-25.06-14.468a2.845 2.845 0 0 1-1.404-2.427v-28.936ZM1168.2 141.045a4.41 4.41 0 0 1 .57-2.1c.37-.639.9-1.171 1.54-1.544l37.55-21.68a4.266 4.266 0 0 1 4.21 0l37.54 21.68a4.2 4.2 0 0 1 2.1 3.644v43.361a4.179 4.179 0 0 1-2.1 3.636l-37.54 21.68a4.274 4.274 0 0 1-4.21 0l-37.55-21.68a4.158 4.158 0 0 1-1.53-1.541 4.289 4.289 0 0 1-.58-2.095v-43.361Z"/>
  </g>
  <g fill="#FFA065" opacity=".2">
    <path d="M124.997 62.133a6.803 6.803 0 0 0-3.36-5.822L61.652 21.68a6.801 6.801 0 0 0-6.72 0L-5.038 56.31a6.72 6.72 0 0 0-3.36 5.822v69.263a6.719 6.719 0 0 0 3.36 5.808l59.971 34.631a6.8 6.8 0 0 0 6.72 0l59.985-34.631a6.797 6.797 0 0 0 3.36-5.808V62.132ZM45.085 192.386a6.804 6.804 0 0 0-3.36-5.822l-59.985-34.631a6.8 6.8 0 0 0-6.72 0l-59.971 34.631a6.721 6.721 0 0 0-3.36 5.822v69.262a6.717 6.717 0 0 0 3.36 5.808l59.971 34.631a6.8 6.8 0 0 0 6.72 0l59.985-34.631a6.8 6.8 0 0 0 3.36-5.808v-69.262ZM150.815 225.335a4.258 4.258 0 0 0-2.103-3.645l-37.553-21.68a4.26 4.26 0 0 0-4.206 0l-37.544 21.68a4.209 4.209 0 0 0-2.104 3.645v43.36a4.206 4.206 0 0 0 2.103 3.636l37.545 21.68a4.26 4.26 0 0 0 4.206 0l37.553-21.68a4.267 4.267 0 0 0 2.103-3.636v-43.36ZM405.345 149.752a1.607 1.607 0 0 0-.791-1.371l-14.13-8.157a1.599 1.599 0 0 0-1.582 0l-14.126 8.157a1.582 1.582 0 0 0-.792 1.371v16.315a1.592 1.592 0 0 0 .792 1.368l14.126 8.157a1.602 1.602 0 0 0 1.582 0l14.13-8.157a1.601 1.601 0 0 0 .791-1.368v-16.315ZM375.345 291.912a1.172 1.172 0 0 0-.582-1.009l-10.388-5.997a1.178 1.178 0 0 0-1.164 0l-10.386 5.997a1.168 1.168 0 0 0-.582 1.009v11.995a1.163 1.163 0 0 0 .582 1.006l10.386 5.997a1.175 1.175 0 0 0 1.164 0l10.388-5.997a1.178 1.178 0 0 0 .582-1.006v-11.995ZM715.345 431.912a1.183 1.183 0 0 0-.582-1.009l-10.389-5.997a1.175 1.175 0 0 0-1.164 0l-10.386 5.997a1.168 1.168 0 0 0-.582 1.009v11.995a1.174 1.174 0 0 0 .582 1.006l10.386 5.997a1.178 1.178 0 0 0 1.164 0l10.389-5.997a1.175 1.175 0 0 0 .582-1.006v-11.995ZM529.551 364.66a1.172 1.172 0 0 0-.581-1.009l-10.389-5.997a1.175 1.175 0 0 0-1.164 0l-10.386 5.997a1.17 1.17 0 0 0-.582 1.009v11.995a1.163 1.163 0 0 0 .582 1.006l10.386 5.997a1.178 1.178 0 0 0 1.164 0l10.389-5.997a1.183 1.183 0 0 0 .581-1.006V364.66ZM677.375 156.648a1.186 1.186 0 0 0-.582-1.008l-10.389-5.997a1.175 1.175 0 0 0-1.164 0l-10.386 5.997a1.16 1.16 0 0 0-.582 1.008v11.996a1.157 1.157 0 0 0 .582 1.006l10.386 5.997a1.178 1.178 0 0 0 1.164 0l10.389-5.997a1.186 1.186 0 0 0 .582-1.006v-11.996ZM304.633 196.986a5.384 5.384 0 0 1-2.659 4.608l-47.479 27.41a5.377 5.377 0 0 1-5.318 0l-47.468-27.41a5.311 5.311 0 0 1-2.659-4.608v-54.822a5.32 5.32 0 0 1 2.659-4.597l47.468-27.41a5.377 5.377 0 0 1 5.318 0l47.479 27.41a5.38 5.38 0 0 1 2.659 4.597v54.822ZM241.755 373.798a4.258 4.258 0 0 1-2.103 3.645l-37.553 21.68a4.26 4.26 0 0 1-4.207 0l-37.544-21.68a4.207 4.207 0 0 1-2.103-3.645v-43.36a4.204 4.204 0 0 1 2.103-3.636l37.544-21.68a4.264 4.264 0 0 1 4.207 0l37.553 21.68a4.26 4.26 0 0 1 2.103 3.636v43.36Z"/>
  </g>
  <g fill="#FFA065" opacity=".2">
    <path d="M1322.58 42.133c0-1.179.32-2.335.91-3.355a6.782 6.782 0 0 1 2.45-2.467l59.98-34.631a6.785 6.785 0 0 1 3.36-.888c1.18 0 2.34.306 3.36.888l59.97 34.63a6.722 6.722 0 0 1 3.36 5.822v69.263c0 1.177-.31 2.334-.9 3.353a6.735 6.735 0 0 1-2.46 2.455l-59.97 34.631a6.783 6.783 0 0 1-3.36.887c-1.18 0-2.34-.305-3.36-.887l-59.98-34.631a6.777 6.777 0 0 1-3.36-5.808V42.133ZM1402.49 212.386c.01-1.178.32-2.334.91-3.355a6.778 6.778 0 0 1 2.45-2.467l59.98-34.631a6.812 6.812 0 0 1 3.36-.888c1.18 0 2.34.306 3.36.888l59.97 34.631a6.721 6.721 0 0 1 3.36 5.822v69.262a6.69 6.69 0 0 1-.9 3.353 6.727 6.727 0 0 1-2.46 2.455l-59.97 34.631a6.784 6.784 0 0 1-3.36.888c-1.18 0-2.33-.306-3.36-.888l-59.98-34.631a6.777 6.777 0 0 1-3.36-5.808v-69.262ZM1286.76 225.335c0-.738.2-1.462.57-2.101.37-.639.89-1.171 1.53-1.544l37.55-21.68a4.266 4.266 0 0 1 4.21 0l37.54 21.68c.64.369 1.17.901 1.54 1.54.37.64.57 1.366.57 2.105v43.36c0 .737-.2 1.461-.57 2.099-.37.638-.9 1.168-1.54 1.537l-37.54 21.68a4.266 4.266 0 0 1-4.21 0l-37.55-21.68a4.312 4.312 0 0 1-1.53-1.541 4.174 4.174 0 0 1-.57-2.095v-43.36ZM1032.23 179.752c0-.277.07-.55.21-.79.14-.24.34-.441.58-.581l14.13-8.157c.24-.137.51-.209.79-.209s.55.072.79.209l14.13 8.157c.24.139.44.339.58.58.14.24.21.513.21.791v16.315a1.568 1.568 0 0 1-.79 1.368l-14.13 8.157c-.24.137-.51.209-.79.209s-.55-.072-.79-.209l-14.13-8.157c-.24-.14-.44-.34-.58-.58-.14-.24-.21-.511-.21-.788v-16.315ZM905.261 78.812a1.455 1.455 0 0 1 .715-1.239l12.766-7.37a1.446 1.446 0 0 1 1.43 0l12.762 7.37a1.435 1.435 0 0 1 .715 1.239v14.74a1.43 1.43 0 0 1-.715 1.236l-12.762 7.37a1.457 1.457 0 0 1-1.43 0l-12.766-7.37a1.443 1.443 0 0 1-.715-1.236v-14.74Z"/>
  </g>
</svg>