<svg xmlns="http://www.w3.org/2000/svg" fill="none">
  <path fill="#FDDA88" d="M76.854 25.839a4.55 4.55 0 0 0-2.208.587 4.432 4.432 0 0 0-1.624 1.578L50.228 66.658a4.312 4.312 0 0 0 0 4.33l22.794 38.645a4.375 4.375 0 0 0 1.62 1.586c.672.38 1.436.58 2.212.579h45.588a4.493 4.493 0 0 0 2.208-.582 4.365 4.365 0 0 0 1.615-1.583l22.794-38.645c.383-.66.585-1.406.585-2.165 0-.76-.202-1.505-.585-2.165l-22.794-38.654a4.425 4.425 0 0 0-1.619-1.576 4.554 4.554 0 0 0-2.204-.59H76.854ZM31.088.051a1.365 1.365 0 0 0-.663.176 1.33 1.33 0 0 0-.487.473L23.1 12.297a1.294 1.294 0 0 0 0 1.299l6.838 11.593c.117.198.284.362.486.476.202.114.43.174.664.174h13.676c.233 0 .461-.06.662-.175.202-.114.369-.277.485-.475l6.838-11.593a1.294 1.294 0 0 0 0-1.3L45.911.7a1.33 1.33 0 0 0-.486-.472 1.365 1.365 0 0 0-.66-.177H31.087Z" opacity=".2"/>
  <path fill="#282828" d="M27.378 164.131a.695.695 0 0 1-.285-.061l-21.094-9.375a.703.703 0 0 1-.418-.642v-30.469a.705.705 0 0 1 .989-.643l21.094 9.375a.704.704 0 0 1 .417.643v30.469a.702.702 0 0 1-.703.703Zm-20.39-10.535 19.687 8.75v-28.93l-19.687-8.75v28.93Z"/>
  <path fill="#282828" d="M27.378 164.131a.702.702 0 0 1-.703-.703v-30.469c0-.278.164-.53.418-.643l21.094-9.375a.704.704 0 0 1 .988.643v30.469a.702.702 0 0 1-.418.642l-21.093 9.375a.695.695 0 0 1-.286.061Zm.703-30.715v28.93l19.688-8.75v-28.93l-19.688 8.75ZM6.284 124.287a.703.703 0 0 1-.286-1.346l21.094-9.375a.704.704 0 0 1 .571 1.285L6.57 124.226a.687.687 0 0 1-.285.061Z"/>
  <path fill="#282828" d="M48.471 124.287a.69.69 0 0 1-.285-.061l-21.094-9.375a.703.703 0 1 1 .571-1.284l21.094 9.375a.703.703 0 0 1-.286 1.345ZM93.003 164.131a.695.695 0 0 1-.285-.061l-21.094-9.375a.703.703 0 0 1-.418-.642v-30.469a.705.705 0 0 1 .989-.643l21.094 9.375a.704.704 0 0 1 .417.643v30.469a.702.702 0 0 1-.703.703Zm-20.39-10.535 19.687 8.75v-28.93l-19.688-8.75v28.93Z"/>
  <path fill="#282828" d="M93.003 164.131a.702.702 0 0 1-.703-.703v-30.469c0-.278.164-.53.418-.643l21.093-9.375a.703.703 0 0 1 .989.643v30.469c0 .278-.164.53-.418.642l-21.093 9.375a.695.695 0 0 1-.286.061Zm.703-30.715v28.93l19.688-8.75v-28.93l-19.688 8.75ZM71.91 124.287a.703.703 0 0 1-.287-1.346l21.094-9.375a.704.704 0 0 1 .571 1.285l-21.094 9.375a.687.687 0 0 1-.285.061Z"/>
  <path fill="#282828" d="M114.096 124.287a.69.69 0 0 1-.285-.061l-21.094-9.375a.703.703 0 1 1 .571-1.284l21.094 9.375a.702.702 0 0 1-.286 1.345ZM60.19 105.537a.695.695 0 0 1-.285-.061l-21.093-9.375a.703.703 0 0 1-.418-.642V64.99a.704.704 0 0 1 .988-.642l21.094 9.374a.703.703 0 0 1 .418.643v30.469a.705.705 0 0 1-.703.703ZM39.8 95.002l19.688 8.75v-28.93L39.8 66.072v28.93Z"/>
  <path fill="#282828" d="M60.19 105.537a.704.704 0 0 1-.703-.703V74.365c0-.278.164-.53.418-.642L81 64.348a.703.703 0 0 1 .989.642V95.46c0 .278-.164.53-.418.642l-21.094 9.375a.695.695 0 0 1-.285.061Zm.704-30.715v28.93l19.687-8.75v-28.93l-19.687 8.75ZM39.097 65.694a.703.703 0 0 1-.286-1.346l21.094-9.375a.703.703 0 0 1 .57 1.285l-21.093 9.374a.698.698 0 0 1-.285.061Z"/>
  <path fill="#282828" d="M81.284 65.694a.7.7 0 0 1-.286-.062l-21.093-9.375a.703.703 0 1 1 .57-1.284l21.094 9.375a.703.703 0 0 1-.285 1.346ZM107.066 121.162a.703.703 0 0 1-.703-.703V72.725H81.284a.703.703 0 0 1 0-1.407h25.782c.388 0 .703.315.703.704v48.437a.703.703 0 0 1-.703.703ZM13.316 121.162a.703.703 0 0 1-.704-.703V72.021c0-.388.315-.703.704-.703h25.78a.703.703 0 1 1 0 1.407H14.02v47.734a.703.703 0 0 1-.703.703ZM60.19 164.131a.707.707 0 0 1-.439-.154l-11.718-9.375a.703.703 0 1 1 .878-1.098l11.28 9.023 11.28-9.023a.702.702 0 1 1 .878 1.098l-11.72 9.375a.706.706 0 0 1-.438.154Z"/>
</svg>