<svg width="422" height="210" viewBox="0 0 422 210" fill="none" xmlns="http://www.w3.org/2000/svg">
<g clip-path="url(#clip0_713_2060)">
<path d="M26.6736 71.9319C26.1047 71.9324 25.5459 72.0824 25.0533 72.3668C24.5606 72.6512 24.1512 73.06 23.8662 73.5523L7.10856 102.526C6.82347 103.019 6.67334 103.578 6.67334 104.147C6.67334 104.716 6.82347 105.275 7.10856 105.767L23.8395 134.741C24.1268 135.238 24.5403 135.649 25.0381 135.934C25.5359 136.218 26.1002 136.366 26.6736 136.362H60.1021C60.6717 136.36 61.2311 136.21 61.7247 135.926C62.2183 135.642 62.6291 135.233 62.9162 134.741L79.6405 105.767C79.9256 105.275 80.0757 104.716 80.0757 104.147C80.0757 103.578 79.9256 103.019 79.6405 102.526L62.9162 73.5523C62.6291 73.0604 62.2183 72.652 61.7247 72.3678C61.2311 72.0835 60.6717 71.9333 60.1021 71.9319H26.6736Z" fill="#FFA065"/>
<path style="mix-blend-mode:multiply" d="M40.6369 103.14H8.35528C8.05401 103.143 7.75819 103.221 7.49363 103.365C7.22906 103.509 7.00377 103.716 6.83741 103.967C6.67104 104.218 6.56864 104.506 6.53915 104.806C6.50965 105.106 6.55395 105.408 6.66818 105.687L23.5125 134.888C23.8232 135.434 24.2719 135.889 24.8137 136.208C25.3556 136.526 25.9715 136.696 26.5999 136.702H60.0152C60.2678 136.706 60.5169 136.642 60.7363 136.517C60.9558 136.392 61.1374 136.21 61.2623 135.99C61.3871 135.77 61.4505 135.521 61.4458 135.269C61.4411 135.016 61.3684 134.769 61.2355 134.554L43.9711 105.094C43.6487 104.493 43.1669 103.993 42.5787 103.648C41.9904 103.303 41.3185 103.127 40.6369 103.14Z" fill="url(#paint0_linear_713_2060)"/>
<path d="M84.7415 38.1968C84.1716 38.1968 83.6117 38.3465 83.1179 38.6309C82.624 38.9153 82.2135 39.3243 81.9274 39.8172L65.2031 68.7913C64.9181 69.285 64.7681 69.845 64.7681 70.415C64.7681 70.9851 64.9181 71.5451 65.2031 72.0388L81.9274 101.013C82.2135 101.506 82.624 101.915 83.1179 102.199C83.6117 102.484 84.1716 102.633 84.7415 102.633H118.197C118.765 102.632 119.324 102.482 119.817 102.198C120.309 101.913 120.719 101.505 121.004 101.013L137.728 72.0188C138.013 71.5251 138.163 70.9651 138.163 70.395C138.163 69.825 138.013 69.265 137.728 68.7713L121.004 39.8172C120.719 39.3253 120.309 38.9169 119.817 38.6326C119.324 38.3482 118.765 38.198 118.197 38.1968H84.7415Z" fill="#39B5AC"/>
<path style="mix-blend-mode:multiply" d="M98.7321 69.4044H66.4438C66.1442 69.4112 65.8508 69.4908 65.5889 69.6363C65.3269 69.7818 65.1043 69.9888 64.9402 70.2396C64.7762 70.4903 64.6755 70.7772 64.647 71.0755C64.6186 71.3737 64.6631 71.6745 64.7767 71.9517L81.621 101.153C81.9295 101.696 82.375 102.15 82.9131 102.468C83.4513 102.786 84.0633 102.958 84.6885 102.966H118.084C118.337 102.972 118.587 102.909 118.807 102.784C119.028 102.659 119.21 102.478 119.336 102.258C119.462 102.038 119.526 101.788 119.521 101.535C119.517 101.282 119.444 101.034 119.311 100.819L102.066 71.3516C101.742 70.7526 101.26 70.2541 100.672 69.9107C100.084 69.5673 99.4129 69.3922 98.7321 69.4044Z" fill="url(#paint1_linear_713_2060)"/>
<path d="M84.7748 104.693C84.1971 104.697 83.6304 104.851 83.1301 105.14C82.6297 105.428 82.213 105.842 81.9207 106.34L64.943 135.748C64.6578 136.25 64.5078 136.818 64.5078 137.395C64.5078 137.973 64.6578 138.54 64.943 139.042L81.9207 168.443C82.21 168.944 82.626 169.36 83.127 169.649C83.628 169.938 84.1963 170.09 84.7748 170.09H118.73C119.307 170.089 119.874 169.936 120.374 169.647C120.874 169.358 121.289 168.943 121.578 168.443L138.555 139.042C138.84 138.54 138.99 137.973 138.99 137.395C138.99 136.818 138.84 136.25 138.555 135.748L121.578 106.34C121.286 105.843 120.87 105.43 120.371 105.141C119.872 104.853 119.307 104.698 118.73 104.693H84.7748Z" fill="#FDDA88"/>
<path style="mix-blend-mode:multiply" d="M99.032 136.621H66.7438C66.4434 136.628 66.1491 136.707 65.8864 136.853C65.6237 136.999 65.4005 137.207 65.2363 137.458C65.072 137.71 64.9717 137.998 64.9438 138.297C64.916 138.596 64.9616 138.898 65.0767 139.175L81.921 168.376C82.2308 168.918 82.6768 169.37 83.2147 169.687C83.7527 170.004 84.3641 170.175 84.9884 170.183H118.39C118.644 170.19 118.894 170.127 119.115 170.003C119.336 169.878 119.519 169.696 119.644 169.475C119.769 169.255 119.832 169.005 119.826 168.751C119.821 168.498 119.746 168.25 119.611 168.036L102.366 138.582C102.044 137.98 101.563 137.479 100.974 137.133C100.386 136.787 99.7142 136.61 99.032 136.621Z" fill="url(#paint2_linear_713_2060)"/>
<path d="M60.1021 139.016H26.6735C25.6288 139.017 24.6022 138.742 23.6981 138.219C22.7939 137.695 22.0444 136.942 21.5255 136.035L4.80126 107.087C4.28336 106.189 4.01074 105.17 4.01074 104.133C4.01074 103.096 4.28336 102.078 4.80126 101.179L21.5255 72.2052C22.0475 71.3025 22.7982 70.5535 23.7021 70.0337C24.6059 69.5139 25.6309 69.2416 26.6735 69.2444H60.1021C61.1402 69.2463 62.1597 69.5208 63.0584 70.0403C63.9572 70.5599 64.7037 71.3064 65.2234 72.2052L81.9477 101.179C82.4656 102.078 82.7382 103.096 82.7382 104.133C82.7382 105.17 82.4656 106.189 81.9477 107.087L65.2234 136.035C64.7068 136.938 63.9615 137.689 63.0624 138.212C62.1634 138.735 61.1423 139.012 60.1021 139.016ZM26.6735 71.9118C26.1041 71.9136 25.5452 72.0649 25.0526 72.3504C24.5599 72.6359 24.1508 73.0457 23.8661 73.5388L7.10852 102.513C6.82342 103.005 6.67329 103.564 6.67329 104.133C6.67329 104.702 6.82342 105.261 7.10852 105.754L23.8395 134.701C24.1233 135.202 24.5354 135.619 25.0334 135.909C25.5315 136.198 26.0975 136.35 26.6735 136.348H60.1021C60.6736 136.345 61.2341 136.191 61.727 135.902C62.22 135.613 62.6278 135.198 62.9095 134.701L79.6404 105.727C79.9255 105.235 80.0756 104.676 80.0756 104.107C80.0756 103.538 79.9255 102.979 79.6404 102.486L62.9095 73.5388C62.6248 73.0457 62.2157 72.6359 61.723 72.3504C61.2304 72.0649 60.6715 71.9136 60.1021 71.9118H26.6735Z" fill="#363636"/>
<path d="M118.124 172.584H84.6885C83.6512 172.582 82.6324 172.308 81.7338 171.79C80.8353 171.272 80.0882 170.527 79.5672 169.63L62.8163 140.656C62.2984 139.756 62.0259 138.736 62.0259 137.698C62.0259 136.66 62.2984 135.641 62.8163 134.741L79.5472 105.767C80.0682 104.87 80.8152 104.125 81.7138 103.607C82.6124 103.088 83.6312 102.815 84.6685 102.813H118.124C119.16 102.814 120.178 103.088 121.076 103.607C121.973 104.125 122.719 104.87 123.238 105.767L139.969 134.741C140.487 135.641 140.76 136.66 140.76 137.698C140.76 138.736 140.487 139.756 139.969 140.656L123.238 169.63C122.719 170.527 121.973 171.272 121.076 171.79C120.178 172.309 119.16 172.582 118.124 172.584ZM84.6885 105.48C84.1187 105.48 83.5588 105.63 83.0649 105.914C82.5711 106.199 82.1606 106.608 81.8745 107.101L65.1302 136.075C64.8452 136.568 64.6951 137.128 64.6951 137.698C64.6951 138.268 64.8452 138.828 65.1302 139.322L81.8545 168.296C82.1406 168.789 82.5511 169.198 83.0449 169.482C83.5388 169.767 84.0986 169.917 84.6685 169.917H118.124C118.692 169.915 119.251 169.765 119.744 169.481C120.236 169.197 120.646 168.788 120.931 168.296L137.662 139.322C137.944 138.827 138.092 138.268 138.092 137.698C138.092 137.129 137.944 136.569 137.662 136.075L120.931 107.101C120.646 106.609 120.236 106.2 119.744 105.916C119.251 105.632 118.692 105.481 118.124 105.48H84.6885Z" fill="#363636"/>
<path d="M63.9631 141.309C63.7281 141.31 63.497 141.249 63.2933 141.132C63.0895 141.015 62.9203 140.846 62.8028 140.643C62.5198 140.152 62.1139 139.744 61.6251 139.459C61.1362 139.174 60.5814 139.021 60.0154 139.015C59.6617 139.015 59.3225 138.875 59.0724 138.625C58.8223 138.375 58.6818 138.036 58.6818 137.682C58.6818 137.328 58.8223 136.989 59.0724 136.739C59.3225 136.489 59.6617 136.348 60.0154 136.348C61.0536 136.35 62.073 136.624 62.9718 137.144C63.8705 137.664 64.6171 138.41 65.1367 139.309C65.3133 139.615 65.3612 139.979 65.2699 140.32C65.1786 140.661 64.9557 140.952 64.65 141.129C64.4415 141.25 64.2041 141.313 63.9631 141.309Z" fill="#363636"/>
<path d="M118.124 105.453H84.6885C83.6512 105.451 82.6324 105.178 81.7338 104.659C80.8353 104.141 80.0882 103.396 79.5672 102.499L62.8163 73.5252C62.2984 72.6255 62.0259 71.6057 62.0259 70.5677C62.0259 69.5297 62.2984 68.5099 62.8163 67.6103L79.5472 38.6362C80.0699 37.7363 80.8201 36.9896 81.7225 36.4711C82.6249 35.9526 83.6478 35.6805 84.6885 35.6821H118.144C119.18 35.6838 120.198 35.9576 121.096 36.476C121.993 36.9944 122.739 37.7393 123.258 38.6362L139.989 67.6103C140.507 68.5099 140.78 69.5297 140.78 70.5677C140.78 71.6057 140.507 72.6255 139.989 73.5252L123.258 102.499C122.737 103.399 121.988 104.146 121.087 104.665C120.186 105.183 119.164 105.455 118.124 105.453ZM84.6885 38.3495C84.1187 38.3495 83.5588 38.4992 83.0649 38.7836C82.5711 39.068 82.1606 39.4771 81.8745 39.9699L65.1302 68.944C64.8452 69.4377 64.6951 69.9977 64.6951 70.5677C64.6951 71.1378 64.8452 71.6978 65.1302 72.1915L81.8545 101.166C82.1406 101.658 82.5511 102.067 83.0449 102.352C83.5388 102.636 84.0986 102.786 84.6685 102.786H118.124C118.692 102.785 119.251 102.635 119.744 102.35C120.236 102.066 120.646 101.657 120.931 101.166L137.662 72.1915C137.944 71.6967 138.092 71.1371 138.092 70.5677C138.092 69.9983 137.944 69.4388 137.662 68.944L120.931 39.9699C120.646 39.478 120.236 39.0696 119.744 38.7853C119.251 38.501 118.692 38.3507 118.124 38.3495H84.6885Z" fill="#363636"/>
<path d="M60.0154 71.9121C59.6617 71.9121 59.3225 71.7716 59.0724 71.5214C58.8223 71.2713 58.6818 70.9321 58.6818 70.5784C58.6818 70.2247 58.8223 69.8855 59.0724 69.6353C59.3225 69.3852 59.6617 69.2447 60.0154 69.2447C60.585 69.2433 61.1444 69.0931 61.638 68.8088C62.1316 68.5246 62.5424 68.1162 62.8295 67.6243C63.014 67.334 63.3036 67.1262 63.6377 67.0444C63.9718 66.9626 64.3246 67.013 64.6224 67.1851C64.9202 67.3573 65.14 67.6378 65.2359 67.9682C65.3317 68.2986 65.2962 68.6532 65.1367 68.958C64.6168 69.8559 63.87 70.6014 62.9712 71.1199C62.0723 71.6384 61.0531 71.9115 60.0154 71.9121Z" fill="#363636"/>
<path d="M122.065 107.767C121.83 107.768 121.598 107.707 121.395 107.59C121.191 107.473 121.022 107.304 120.904 107.101C120.386 106.202 120.114 105.184 120.114 104.147C120.114 103.11 120.386 102.091 120.904 101.192C121.081 100.886 121.373 100.662 121.715 100.57C122.057 100.478 122.421 100.525 122.728 100.702C123.035 100.879 123.259 101.171 123.351 101.513C123.443 101.855 123.395 102.219 123.218 102.526C122.933 103.019 122.783 103.578 122.783 104.147C122.783 104.716 122.933 105.275 123.218 105.767C123.306 105.919 123.364 106.087 123.387 106.262C123.409 106.436 123.398 106.613 123.352 106.783C123.306 106.953 123.227 107.112 123.119 107.251C123.012 107.39 122.878 107.507 122.725 107.594C122.523 107.708 122.296 107.768 122.065 107.767Z" fill="#363636"/>
<path d="M142.443 139.022H142.35C141.313 138.945 140.315 138.596 139.456 138.011C138.596 137.426 137.906 136.625 137.455 135.688C137.378 135.53 137.334 135.359 137.323 135.184C137.313 135.009 137.337 134.834 137.394 134.668C137.451 134.503 137.541 134.35 137.657 134.219C137.773 134.088 137.914 133.981 138.072 133.904C138.23 133.828 138.401 133.783 138.576 133.772C138.751 133.762 138.926 133.786 139.092 133.843C139.257 133.901 139.41 133.99 139.541 134.106C139.672 134.223 139.779 134.364 139.856 134.521C140.102 135.032 140.478 135.469 140.946 135.788C141.414 136.108 141.958 136.299 142.523 136.342C142.877 136.354 143.211 136.506 143.452 136.765C143.694 137.024 143.822 137.368 143.81 137.722C143.798 138.076 143.645 138.41 143.386 138.651C143.128 138.893 142.783 139.021 142.43 139.009L142.443 139.022Z" fill="#363636"/>
<path d="M138.649 141.59C138.448 141.588 138.25 141.542 138.068 141.456C137.911 141.38 137.769 141.272 137.653 141.141C137.537 141.009 137.448 140.856 137.391 140.69C137.334 140.524 137.31 140.349 137.321 140.173C137.332 139.998 137.378 139.827 137.455 139.669C137.906 138.733 138.596 137.932 139.455 137.346C140.315 136.761 141.313 136.412 142.35 136.335C142.703 136.31 143.052 136.427 143.32 136.66C143.588 136.892 143.752 137.222 143.777 137.575C143.801 137.929 143.685 138.278 143.452 138.546C143.219 138.813 142.89 138.978 142.536 139.002C141.971 139.046 141.427 139.236 140.959 139.556C140.491 139.875 140.115 140.312 139.869 140.823C139.76 141.054 139.588 141.249 139.371 141.385C139.155 141.521 138.904 141.592 138.649 141.59Z" fill="#363636"/>
<path d="M283.059 139.015H139.429C139.075 139.015 138.736 138.875 138.486 138.625C138.236 138.375 138.095 138.036 138.095 137.682C138.095 137.328 138.236 136.989 138.486 136.739C138.736 136.489 139.075 136.348 139.429 136.348H283.059C283.413 136.348 283.752 136.489 284.002 136.739C284.252 136.989 284.393 137.328 284.393 137.682C284.393 138.036 284.252 138.375 284.002 138.625C283.752 138.875 283.413 139.015 283.059 139.015Z" fill="#363636"/>
<path d="M414.326 139.015H315.294C314.94 139.015 314.601 138.875 314.351 138.625C314.101 138.375 313.96 138.036 313.96 137.682C313.96 137.328 314.101 136.989 314.351 136.739C314.601 136.489 314.94 136.348 315.294 136.348H414.326C414.68 136.348 415.019 136.489 415.269 136.739C415.519 136.989 415.66 137.328 415.66 137.682C415.66 138.036 415.519 138.375 415.269 138.625C415.019 138.875 414.68 139.015 414.326 139.015Z" fill="#363636"/>
<path d="M208.127 122.065C207.419 122.065 206.741 121.784 206.24 121.284C205.74 120.783 205.459 120.105 205.459 119.398V89.8166C205.459 83.8849 203.103 78.1961 198.908 74.0017C194.714 69.8073 189.025 67.4509 183.094 67.4509C177.162 67.4509 171.473 69.8073 167.279 74.0017C163.084 78.1961 160.728 83.8849 160.728 89.8166V119.398C160.728 120.105 160.447 120.783 159.947 121.284C159.446 121.784 158.768 122.065 158.06 122.065C157.353 122.065 156.675 121.784 156.174 121.284C155.674 120.783 155.393 120.105 155.393 119.398V89.8166C155.393 82.47 158.311 75.4243 163.506 70.2295C168.701 65.0346 175.747 62.1162 183.094 62.1162C190.44 62.1162 197.486 65.0346 202.681 70.2295C207.875 75.4243 210.794 82.47 210.794 89.8166V119.398C210.794 120.105 210.513 120.783 210.013 121.284C209.512 121.784 208.834 122.065 208.127 122.065Z" fill="#363636"/>
<path d="M370.034 122.492C364.064 122.492 358.227 120.721 353.263 117.404C348.299 114.087 344.429 109.372 342.145 103.856C339.86 98.3402 339.262 92.2705 340.427 86.4146C341.592 80.5588 344.467 75.1798 348.688 70.958C352.91 66.7362 358.289 63.8611 364.145 62.6963C370.001 61.5315 376.071 62.1293 381.587 64.4141C387.103 66.699 391.818 70.5682 395.135 75.5325C398.452 80.4969 400.222 86.3334 400.222 92.304C400.213 100.308 397.03 107.981 391.371 113.64C385.711 119.3 378.038 122.483 370.034 122.492ZM370.034 67.4509C365.119 67.4509 360.314 68.9085 356.227 71.6394C352.14 74.3703 348.954 78.2518 347.073 82.7931C345.192 87.3344 344.7 92.3315 345.659 97.1525C346.618 101.974 348.985 106.402 352.461 109.878C355.936 113.353 360.365 115.72 365.186 116.679C370.007 117.638 375.004 117.146 379.545 115.265C384.087 113.384 387.968 110.199 390.699 106.112C393.43 102.024 394.887 97.2194 394.887 92.304C394.88 85.7147 392.26 79.3973 387.6 74.738C382.941 70.0787 376.624 67.458 370.034 67.4509Z" fill="#363636"/>
<path d="M294.035 140.209C293.328 140.209 292.649 139.928 292.149 139.428C291.649 138.928 291.368 138.25 291.368 137.542C291.368 136.835 291.649 136.156 292.149 135.656C292.649 135.156 293.328 134.875 294.035 134.875C297.5 134.871 300.823 133.493 303.273 131.043C305.723 128.592 307.102 125.27 307.105 121.805V57.1615C307.112 52.2813 309.054 47.6031 312.506 44.1529C315.957 40.7027 320.636 38.7621 325.516 38.7568C326.224 38.7568 326.902 39.0379 327.403 39.5381C327.903 40.0383 328.184 40.7168 328.184 41.4242C328.184 42.1316 327.903 42.8101 327.403 43.3103C326.902 43.8105 326.224 44.0915 325.516 44.0915C322.05 44.0951 318.727 45.473 316.276 47.9231C313.825 50.3733 312.445 53.6956 312.44 57.1615V89.4832V121.805C312.434 126.684 310.494 131.363 307.043 134.813C303.593 138.263 298.915 140.204 294.035 140.209Z" fill="#363636"/>
<path d="M284.153 94.9707H223.771V92.3033C223.888 84.3738 227.121 76.8091 232.77 71.2433C238.419 65.6775 246.031 62.5576 253.962 62.5576C261.892 62.5576 269.504 65.6775 275.153 71.2433C280.802 76.8091 284.035 84.3738 284.153 92.3033V94.9707ZM229.252 89.636H278.678C278.013 83.5458 275.123 77.9156 270.563 73.8254C266.002 69.7351 260.091 67.473 253.965 67.473C247.839 67.473 241.928 69.7351 237.367 73.8254C232.806 77.9156 229.916 83.5458 229.252 89.636Z" fill="#363636"/>
<path d="M253.965 122.491C245.961 122.482 238.287 119.299 232.626 113.64C226.966 107.981 223.781 100.308 223.771 92.3036C223.771 91.5962 224.052 90.9177 224.552 90.4175C225.052 89.9173 225.73 89.6362 226.438 89.6362C227.145 89.6362 227.824 89.9173 228.324 90.4175C228.824 90.9177 229.105 91.5962 229.105 92.3036C229.105 97.1253 230.507 101.843 233.141 105.882C235.774 109.921 239.525 113.107 243.937 115.052C248.35 116.997 253.232 117.617 257.99 116.836C262.748 116.055 267.177 113.908 270.736 110.655C270.991 110.4 271.294 110.198 271.629 110.064C271.964 109.929 272.322 109.864 272.683 109.872C273.043 109.88 273.399 109.961 273.727 110.11C274.056 110.259 274.35 110.473 274.594 110.74C274.837 111.006 275.024 111.319 275.143 111.659C275.262 112 275.31 112.361 275.286 112.721C275.261 113.081 275.164 113.432 274.999 113.753C274.835 114.074 274.607 114.359 274.33 114.589C268.77 119.68 261.503 122.5 253.965 122.491Z" fill="#363636"/>
<path d="M323.896 86.022H296.789C296.082 86.022 295.404 85.7409 294.903 85.2407C294.403 84.7405 294.122 84.062 294.122 83.3546C294.122 82.6472 294.403 81.9687 294.903 81.4685C295.404 80.9683 296.082 80.6873 296.789 80.6873H323.896C324.604 80.6873 325.282 80.9683 325.782 81.4685C326.283 81.9687 326.564 82.6472 326.564 83.3546C326.564 84.062 326.283 84.7405 325.782 85.2407C325.282 85.7409 324.604 86.022 323.896 86.022Z" fill="#363636"/>
<path d="M342.515 94.9708C341.807 94.9708 341.129 94.6898 340.628 94.1896C340.128 93.6894 339.847 93.0109 339.847 92.3035V42.0106C339.847 41.3032 340.128 40.6247 340.628 40.1245C341.129 39.6243 341.807 39.3433 342.515 39.3433C343.222 39.3433 343.9 39.6243 344.401 40.1245C344.901 40.6247 345.182 41.3032 345.182 42.0106V92.2968C345.183 92.6477 345.114 92.9952 344.981 93.3196C344.847 93.644 344.651 93.9388 344.403 94.1872C344.155 94.4356 343.861 94.6327 343.537 94.7672C343.213 94.9016 342.865 94.9708 342.515 94.9708Z" fill="#363636"/>
<path d="M415.867 121.457C415.159 121.457 414.481 121.176 413.98 120.676C413.48 120.176 413.199 119.497 413.199 118.79V64.7762C413.199 64.0688 413.48 63.3904 413.98 62.8901C414.481 62.3899 415.159 62.1089 415.867 62.1089C416.574 62.1089 417.252 62.3899 417.753 62.8901C418.253 63.3904 418.534 64.0688 418.534 64.7762V118.79C418.534 119.497 418.253 120.176 417.753 120.676C417.252 121.176 416.574 121.457 415.867 121.457Z" fill="#363636"/>
<path d="M415.866 51.7467C418.964 51.7467 421.475 49.2359 421.475 46.1386C421.475 43.0414 418.964 40.5305 415.866 40.5305C412.769 40.5305 410.258 43.0414 410.258 46.1386C410.258 49.2359 412.769 51.7467 415.866 51.7467Z" fill="#363636"/>
<path d="M415.866 143.037C418.964 143.037 421.475 140.526 421.475 137.428C421.475 134.331 418.964 131.82 415.866 131.82C412.769 131.82 410.258 134.331 410.258 137.428C410.258 140.526 412.769 143.037 415.866 143.037Z" fill="#363636"/>
<path d="M164.108 166.042H161.841L158.12 158.08L157.047 155.526V166.042H155.426V153.292H157.66L161.208 160.834L162.488 163.755V153.292H164.108V166.042Z" fill="#363636"/>
<path d="M175.605 166.042H168.343V153.292H175.605V154.753H170.083V158.707H175.378V160.168H170.077V164.569H175.598L175.605 166.042Z" fill="#363636"/>
<path d="M188.662 154.773H184.881V166.042H183.12V154.773H179.339V153.292H188.675L188.662 154.773Z" fill="#363636"/>
<path d="M200.398 154.659L193.883 164.435H200.551V166.042H191.702V164.709L198.257 154.826H191.882V153.246H200.398V154.659Z" fill="#363636"/>
<path d="M213.301 153.293L212.441 166.043H210.18L208.6 161.501L208.16 160.048L207.7 161.621L206.239 166.043H204.052L203.172 153.279H204.812L205.312 161.948L205.459 164.329L206.073 162.328L207.62 157.594H208.82L210.594 162.668L211.194 164.349L211.234 162.595L211.741 153.259L213.301 153.293Z" fill="#363636"/>
<path d="M224.057 166.042H216.822V153.292H224.057V154.753H218.543V158.707H223.844V160.168H218.543V164.569H224.057V166.042Z" fill="#363636"/>
<path d="M237.241 166.042H235.28L233.393 161.975C233.275 161.7 233.127 161.438 232.953 161.195C232.821 161.007 232.659 160.842 232.473 160.708C232.301 160.588 232.109 160.5 231.906 160.448C231.687 160.399 231.464 160.375 231.239 160.374H230.419V166.042H228.679V153.292H232.06C232.706 153.28 233.35 153.361 233.973 153.533C234.459 153.661 234.913 153.888 235.307 154.199C235.642 154.485 235.901 154.849 236.061 155.26C236.22 155.7 236.299 156.165 236.294 156.633C236.298 157.016 236.24 157.397 236.121 157.76C236.005 158.111 235.829 158.438 235.6 158.727C235.357 159.024 235.066 159.279 234.74 159.481C234.374 159.699 233.976 159.859 233.56 159.954C233.923 160.082 234.241 160.314 234.474 160.621C234.773 161.004 235.03 161.417 235.24 161.855L237.241 166.042ZM234.46 156.787C234.479 156.496 234.429 156.206 234.313 155.939C234.197 155.672 234.019 155.437 233.793 155.253C233.269 154.882 232.634 154.701 231.993 154.74H230.352V158.961H231.759C232.133 158.965 232.506 158.918 232.866 158.821C233.172 158.738 233.457 158.595 233.707 158.4C233.934 158.223 234.116 157.994 234.24 157.734C234.383 157.443 234.458 157.124 234.46 156.8V156.787Z" fill="#363636"/>
<path d="M249.324 166.042H247.137L242.362 159.781V166.042H240.622V153.292H242.362V159.221L247.03 153.292H249.09L244.062 159.374L249.324 166.042Z" fill="#363636"/>
<path d="M272.536 154.773H267.115V158.914H272.256V160.374H267.115V166.042H265.334V153.292H272.536V154.773Z" fill="#363636"/>
<path d="M285.72 166.043H283.759L281.852 161.962C281.734 161.686 281.586 161.425 281.412 161.181C281.278 160.995 281.116 160.831 280.932 160.695C280.759 160.576 280.567 160.488 280.365 160.434C280.146 160.386 279.922 160.362 279.698 160.361H278.878V166.043H277.144V153.293H280.558C281.205 153.279 281.849 153.36 282.472 153.533C282.958 153.661 283.412 153.888 283.806 154.2C284.143 154.483 284.403 154.848 284.559 155.26C284.724 155.699 284.806 156.165 284.799 156.633C284.8 157.016 284.742 157.396 284.626 157.76C284.508 158.111 284.33 158.438 284.099 158.727C283.859 159.027 283.568 159.282 283.239 159.481C282.875 159.698 282.479 159.858 282.065 159.954C282.428 160.084 282.745 160.316 282.979 160.621C283.276 161.005 283.533 161.419 283.746 161.855L285.72 166.043ZM282.939 156.787C282.958 156.497 282.907 156.206 282.791 155.939C282.675 155.672 282.497 155.437 282.272 155.253C281.746 154.881 281.108 154.7 280.465 154.74H278.825V158.961H280.232C280.607 158.965 280.982 158.918 281.345 158.821C281.651 158.738 281.936 158.595 282.185 158.401C282.411 158.221 282.593 157.993 282.719 157.734C282.862 157.443 282.937 157.124 282.939 156.8V156.787Z" fill="#363636"/>
<path d="M297.516 161.615C297.524 162.262 297.425 162.906 297.223 163.522C297.041 164.064 296.742 164.559 296.347 164.972C295.951 165.384 295.469 165.704 294.936 165.909C294.321 166.135 293.67 166.246 293.015 166.236C292.335 166.25 291.658 166.143 291.015 165.922C290.507 165.734 290.051 165.43 289.681 165.035C289.324 164.643 289.064 164.172 288.921 163.662C288.754 163.081 288.673 162.479 288.681 161.875V153.292H290.414V161.741C290.405 162.19 290.454 162.639 290.561 163.075C290.639 163.424 290.796 163.751 291.021 164.029C291.245 164.288 291.532 164.485 291.855 164.602C292.26 164.743 292.687 164.809 293.115 164.795C293.495 164.826 293.876 164.77 294.231 164.632C294.586 164.493 294.904 164.275 295.162 163.995C295.639 163.344 295.874 162.547 295.829 161.741V153.292H297.57L297.516 161.615ZM290.935 149.852C291.074 149.851 291.212 149.878 291.341 149.932C291.461 149.988 291.571 150.062 291.668 150.152C291.767 150.245 291.844 150.359 291.895 150.485C291.95 150.616 291.98 150.756 291.981 150.899C291.98 151.039 291.95 151.177 291.895 151.305C291.844 151.429 291.766 151.541 291.668 151.632C291.571 151.722 291.461 151.796 291.341 151.852C291.212 151.905 291.074 151.933 290.935 151.932C290.797 151.935 290.661 151.91 290.533 151.859C290.406 151.807 290.291 151.73 290.194 151.632C290.097 151.537 290.02 151.423 289.97 151.296C289.919 151.17 289.896 151.035 289.901 150.899C289.9 150.757 289.928 150.616 289.981 150.485C290.032 150.361 290.107 150.248 290.201 150.152C290.298 150.062 290.408 149.988 290.528 149.932C290.657 149.878 290.795 149.85 290.935 149.852ZM295.209 149.852C295.351 149.851 295.491 149.878 295.622 149.932C295.745 149.986 295.858 150.06 295.956 150.152C296.046 150.251 296.12 150.364 296.176 150.485C296.229 150.616 296.256 150.757 296.256 150.899C296.256 151.038 296.229 151.176 296.176 151.305C296.12 151.425 296.046 151.535 295.956 151.632C295.858 151.723 295.745 151.798 295.622 151.852C295.491 151.905 295.351 151.933 295.209 151.932C295.073 151.935 294.937 151.909 294.811 151.858C294.685 151.806 294.571 151.729 294.475 151.632C294.329 151.484 294.231 151.296 294.193 151.091C294.155 150.887 294.179 150.676 294.262 150.485C294.313 150.361 294.388 150.248 294.482 150.152C294.578 150.06 294.688 149.986 294.809 149.932C294.936 149.878 295.072 149.851 295.209 149.852Z" fill="#363636"/>
<path d="M309.619 166.042H307.879V160.181H302.544V166.042H300.804V153.292H302.544V158.707H307.879V153.306H309.619V166.042Z" fill="#363636"/>
<path d="M321.036 166.042H313.774V153.292H321.036V154.753H315.514V158.707H320.849V160.168H315.514V164.569H321.036V166.042Z" fill="#363636"/>
<path d="M345.975 162.235C345.987 162.798 345.863 163.356 345.615 163.862C345.378 164.337 345.03 164.748 344.601 165.062C344.122 165.408 343.581 165.659 343.008 165.802C342.331 165.98 341.633 166.066 340.934 166.056H337.6V153.292H341.254C344.099 153.292 345.522 154.326 345.522 156.393C345.539 157.023 345.367 157.643 345.028 158.174C344.633 158.713 344.066 159.103 343.421 159.281C343.762 159.341 344.092 159.451 344.401 159.607C344.708 159.761 344.985 159.966 345.222 160.214C345.461 160.469 345.649 160.768 345.775 161.094C345.916 161.458 345.984 161.845 345.975 162.235ZM343.708 156.633C343.708 156.382 343.67 156.133 343.594 155.893C343.514 155.661 343.371 155.456 343.181 155.3C342.947 155.113 342.677 154.976 342.388 154.9C341.976 154.794 341.552 154.744 341.127 154.753H339.333V158.754H341.074C341.436 158.757 341.797 158.712 342.147 158.621C342.449 158.549 342.732 158.418 342.981 158.234C343.211 158.057 343.396 157.828 343.521 157.567C343.652 157.273 343.715 156.954 343.708 156.633ZM344.128 162.295C344.134 161.989 344.063 161.686 343.921 161.415C343.785 161.144 343.58 160.914 343.328 160.748C343.036 160.554 342.714 160.412 342.374 160.328C341.959 160.227 341.534 160.178 341.107 160.181H339.333V164.575H341.167C341.957 164.648 342.748 164.46 343.421 164.042C343.67 163.828 343.864 163.558 343.987 163.254C344.11 162.95 344.158 162.621 344.128 162.295Z" fill="#363636"/>
<path d="M352.79 154.753H349.85V153.292H357.492V154.753H354.551V164.575H357.492V166.042H349.85V164.575H352.79V154.753Z" fill="#363636"/>
<path d="M369.908 166.042H362.573V153.292H364.34V164.575H369.915L369.908 166.042Z" fill="#363636"/>
<path d="M382.692 159.534C382.693 160.122 382.646 160.708 382.552 161.288C382.463 161.826 382.311 162.352 382.098 162.855C381.895 163.338 381.621 163.787 381.285 164.189C380.95 164.584 380.548 164.918 380.098 165.176C379.573 165.479 379.007 165.704 378.417 165.842C377.704 166.003 376.974 166.079 376.243 166.069H373.509V153.292H376.763C378.76 153.292 380.247 153.804 381.225 154.826C382.203 155.849 382.692 157.418 382.692 159.534ZM380.865 159.661C380.882 158.886 380.797 158.112 380.611 157.36C380.475 156.803 380.213 156.285 379.844 155.846C379.481 155.456 379.021 155.168 378.511 155.013C377.915 154.828 377.294 154.741 376.67 154.753H375.176V164.555H376.51C379.417 164.555 380.869 162.924 380.865 159.661Z" fill="#363636"/>
<path d="M394.475 161.615C394.483 162.263 394.382 162.908 394.174 163.522C393.991 164.063 393.693 164.559 393.301 164.975C392.903 165.386 392.421 165.704 391.887 165.909C391.273 166.135 390.622 166.246 389.967 166.236C389.287 166.25 388.609 166.143 387.966 165.922C387.457 165.745 386.999 165.446 386.631 165.052C386.263 164.659 385.996 164.181 385.852 163.662C385.686 163.081 385.605 162.479 385.612 161.875V153.292H387.353V161.741C387.345 162.19 387.392 162.638 387.493 163.075C387.57 163.426 387.73 163.753 387.96 164.029C388.184 164.288 388.471 164.485 388.793 164.602C389.196 164.743 389.621 164.809 390.047 164.795C390.426 164.827 390.808 164.771 391.163 164.632C391.518 164.494 391.836 164.276 392.094 163.995C392.573 163.345 392.809 162.547 392.761 161.741V153.292H394.501L394.475 161.615Z" fill="#363636"/>
<path d="M406.491 166.042H404.224L400.503 158.08L399.436 155.54V166.042H397.815V153.292H400.049L403.597 160.834L404.877 163.755V153.292H406.498L406.491 166.042Z" fill="#363636"/>
<path d="M418.594 155.48C418.127 155.231 417.635 155.032 417.127 154.887C416.592 154.743 416.04 154.674 415.486 154.68C414.865 154.668 414.248 154.791 413.679 155.04C413.161 155.272 412.705 155.621 412.345 156.06C411.968 156.53 411.685 157.069 411.512 157.647C411.316 158.314 411.219 159.006 411.225 159.701C411.218 160.408 411.296 161.113 411.459 161.802C411.593 162.369 411.843 162.902 412.192 163.369C412.526 163.8 412.964 164.14 413.466 164.356C414.057 164.602 414.693 164.72 415.333 164.702H415.733L416.16 164.649L416.573 164.562C416.695 164.534 416.815 164.498 416.933 164.456V160.375H414.326V158.934H418.654V165.463C418.38 165.583 418.1 165.696 417.807 165.796C417.509 165.892 417.206 165.972 416.9 166.036C416.594 166.101 416.284 166.15 415.973 166.183C415.679 166.217 415.382 166.234 415.086 166.236C414.28 166.247 413.48 166.107 412.725 165.823C412.045 165.561 411.433 165.145 410.938 164.609C410.424 164.029 410.037 163.348 409.805 162.609C409.529 161.706 409.396 160.765 409.411 159.821C409.397 158.865 409.546 157.913 409.851 157.007C410.113 156.225 410.533 155.506 411.085 154.893C411.617 154.313 412.27 153.857 412.999 153.56C413.784 153.251 414.622 153.097 415.466 153.106C416.014 153.105 416.562 153.156 417.1 153.259C417.616 153.358 418.118 153.521 418.594 153.746V155.48Z" fill="#363636"/>
<path d="M138.816 203.726C138.582 203.725 138.352 203.664 138.15 203.547C137.947 203.429 137.779 203.261 137.662 203.059L120.931 174.085C120.646 173.593 120.236 173.184 119.744 172.9C119.251 172.616 118.693 172.465 118.124 172.464H84.6885C84.1187 172.464 83.5588 172.614 83.065 172.898C82.5711 173.183 82.1606 173.592 81.8745 174.085L67.6242 198.758C67.5366 198.91 67.42 199.043 67.2809 199.15C67.1419 199.256 66.9831 199.335 66.8138 199.38C66.6444 199.426 66.4678 199.438 66.2939 199.415C66.12 199.392 65.9523 199.335 65.8004 199.248C65.6484 199.16 65.5152 199.044 65.4084 198.904C65.3015 198.765 65.2231 198.607 65.1776 198.437C65.1321 198.268 65.1204 198.091 65.1431 197.917C65.1659 197.744 65.2227 197.576 65.3103 197.424L79.5672 172.751C80.0882 171.854 80.8353 171.109 81.7339 170.591C82.6324 170.072 83.6512 169.799 84.6885 169.797H118.144C119.18 169.799 120.198 170.072 121.096 170.591C121.993 171.109 122.739 171.854 123.258 172.751L139.989 201.725C140.166 202.031 140.214 202.395 140.123 202.736C140.031 203.077 139.808 203.368 139.503 203.546C139.294 203.666 139.057 203.729 138.816 203.726Z" fill="#363636"/>
<path d="M59.7554 71.7514H26.3002C25.2629 71.7496 24.2441 71.4758 23.3455 70.9575C22.4469 70.4392 21.6999 69.6944 21.1789 68.7974L4.44795 39.8233C4.27109 39.5164 4.22338 39.1519 4.31529 38.8099C4.40721 38.4678 4.63123 38.1763 4.93808 37.9995C5.24492 37.8226 5.60945 37.7749 5.95148 37.8668C6.29351 37.9587 6.58502 38.1828 6.76188 38.4896L23.4862 67.4637C23.7723 67.9565 24.1828 68.3656 24.6766 68.65C25.1705 68.9343 25.7303 69.084 26.3002 69.0841H59.7554C60.3242 69.0829 60.8827 68.9326 61.3753 68.6483C61.8678 68.364 62.2773 67.9556 62.5628 67.4637L79.2938 38.4896C79.5756 37.9948 79.7238 37.4352 79.7238 36.8658C79.7238 36.2965 79.5756 35.7369 79.2938 35.2421L62.5628 6.27468C62.386 5.96783 62.3383 5.6033 62.4302 5.26127C62.5221 4.91924 62.7461 4.62774 63.053 4.45088C63.3598 4.27402 63.7243 4.2263 64.0664 4.31822C64.4084 4.41014 64.6999 4.63416 64.8768 4.94101L81.601 33.9084C82.1189 34.808 82.3914 35.8278 82.3914 36.8658C82.3914 37.9039 82.1189 38.9237 81.601 39.8233L64.8768 68.7974C64.3552 69.6939 63.6081 70.4384 62.7096 70.9566C61.8111 71.4749 60.7927 71.7489 59.7554 71.7514Z" fill="#363636"/>
<path d="M63.8698 11.2162C66.9671 11.2162 69.4779 8.70537 69.4779 5.6081C69.4779 2.51083 66.9671 0 63.8698 0C60.7725 0 58.2617 2.51083 58.2617 5.6081C58.2617 8.70537 60.7725 11.2162 63.8698 11.2162Z" fill="#363636"/>
<path d="M5.6081 44.8178C8.70537 44.8178 11.2162 42.3069 11.2162 39.2097C11.2162 36.1124 8.70537 33.6016 5.6081 33.6016C2.51083 33.6016 0 36.1124 0 39.2097C0 42.3069 2.51083 44.8178 5.6081 44.8178Z" fill="#363636"/>
<path d="M26.8405 209.347C29.9378 209.347 32.4486 206.836 32.4486 203.739C32.4486 200.642 29.9378 198.131 26.8405 198.131C23.7433 198.131 21.2324 200.642 21.2324 203.739C21.2324 206.836 23.7433 209.347 26.8405 209.347Z" fill="#363636"/>
<path d="M139.429 209.347C142.526 209.347 145.037 206.836 145.037 203.739C145.037 200.642 142.526 198.131 139.429 198.131C136.332 198.131 133.821 200.642 133.821 203.739C133.821 206.836 136.332 209.347 139.429 209.347Z" fill="#363636"/>
<path d="M60.5423 205.072H27.0871C26.7334 205.072 26.3942 204.932 26.144 204.682C25.8939 204.432 25.7534 204.092 25.7534 203.739C25.7534 203.385 25.8939 203.046 26.144 202.796C26.3942 202.545 26.7334 202.405 27.0871 202.405H60.5423C61.1112 202.404 61.67 202.254 62.1627 201.97C62.6553 201.686 63.0647 201.277 63.3497 200.785L79.0271 173.631C79.1146 173.479 79.2313 173.346 79.3703 173.239C79.5094 173.132 79.6681 173.054 79.8374 173.008C80.0068 172.963 80.1835 172.951 80.3573 172.974C80.5312 172.996 80.6989 173.053 80.8509 173.141C81.0028 173.228 81.136 173.345 81.2428 173.484C81.3497 173.623 81.4281 173.782 81.4736 173.951C81.5192 174.121 81.5309 174.297 81.5081 174.471C81.4853 174.645 81.4286 174.813 81.341 174.965L65.6636 202.118C65.1426 203.015 64.3956 203.76 63.497 204.278C62.5984 204.797 61.5797 205.07 60.5423 205.072Z" fill="#363636"/>
</g>
<defs>
<linearGradient id="paint0_linear_713_2060" x1="33.9818" y1="136.702" x2="33.9818" y2="103.14" gradientUnits="userSpaceOnUse">
<stop stop-color="#D17A43" stop-opacity="0.3"/>
<stop offset="1" stop-color="#D17A43"/>
</linearGradient>
<linearGradient id="paint1_linear_713_2060" x1="92.0704" y1="102.966" x2="92.0704" y2="69.4044" gradientUnits="userSpaceOnUse">
<stop stop-color="#298F88" stop-opacity="0.3"/>
<stop offset="1" stop-color="#227973"/>
</linearGradient>
<linearGradient id="paint2_linear_713_2060" x1="92.3703" y1="170.183" x2="92.3703" y2="136.621" gradientUnits="userSpaceOnUse">
<stop stop-color="#F1C151" stop-opacity="0.3"/>
<stop offset="1" stop-color="#F1C151"/>
</linearGradient>
<clipPath id="clip0_713_2060">
<rect width="421.468" height="209.347" fill="white"/>
</clipPath>
</defs>
</svg>
