<svg width="177" height="56" viewBox="0 0 177 56" fill="none" xmlns="http://www.w3.org/2000/svg">
<g clip-path="url(#clip0_768_5048)">
<path d="M86.9642 43.6558C86.6664 43.6558 86.3808 43.5375 86.1702 43.3269C85.9596 43.1163 85.8413 42.8306 85.8413 42.5328V30.0793C85.8413 27.5821 84.8492 25.1871 83.0834 23.4213C81.3176 21.6555 78.9226 20.6634 76.4254 20.6634C73.9281 20.6634 71.5331 21.6555 69.7673 23.4213C68.0015 25.1871 67.0094 27.5821 67.0094 30.0793V42.5328C67.0094 42.8306 66.8911 43.1163 66.6805 43.3269C66.4699 43.5375 66.1843 43.6558 65.8865 43.6558C65.5887 43.6558 65.303 43.5375 65.0925 43.3269C64.8819 43.1163 64.7635 42.8306 64.7635 42.5328V30.0793C64.7635 26.9864 65.9922 24.0202 68.1792 21.8332C70.3662 19.6462 73.3325 18.4175 76.4254 18.4175C79.5183 18.4175 82.4845 19.6462 84.6715 21.8332C86.8585 24.0202 88.0872 26.9864 88.0872 30.0793V42.5328C88.0872 42.8306 87.9688 43.1163 87.7583 43.3269C87.5477 43.5375 87.262 43.6558 86.9642 43.6558Z" fill="white"/>
<path d="M155.127 43.8354C152.613 43.8354 150.156 43.0901 148.066 41.6936C145.976 40.2971 144.347 38.3123 143.385 35.99C142.424 33.6677 142.172 31.1124 142.662 28.6471C143.153 26.1818 144.363 23.9173 146.14 22.1399C147.918 20.3625 150.182 19.1521 152.648 18.6617C155.113 18.1714 157.668 18.423 159.99 19.3849C162.313 20.3469 164.298 21.9758 165.694 24.0658C167.091 26.1557 167.836 28.6129 167.836 31.1265C167.832 34.496 166.492 37.7264 164.109 40.109C161.727 42.4916 158.496 43.8317 155.127 43.8354ZM155.127 20.6634C153.058 20.6634 151.035 21.2771 149.314 22.4268C147.593 23.5765 146.252 25.2106 145.46 27.1224C144.668 29.0343 144.461 31.1381 144.865 33.1677C145.269 35.1974 146.265 37.0617 147.728 38.525C149.192 39.9883 151.056 40.9848 153.086 41.3885C155.115 41.7922 157.219 41.585 159.131 40.7931C161.043 40.0012 162.677 38.6601 163.827 36.9395C164.976 35.2188 165.59 33.1959 165.59 31.1265C165.587 28.3524 164.484 25.6928 162.522 23.7313C160.561 21.7697 157.901 20.6664 155.127 20.6634Z" fill="white"/>
<path d="M123.131 51.2945C122.834 51.2945 122.548 51.1762 122.337 50.9656C122.127 50.755 122.009 50.4694 122.009 50.1716C122.009 49.8738 122.127 49.5881 122.337 49.3775C122.548 49.167 122.834 49.0486 123.131 49.0486C124.59 49.0472 125.989 48.467 127.021 47.4354C128.052 46.4038 128.632 45.0051 128.634 43.5462V16.3316C128.637 14.277 129.455 12.3075 130.908 10.855C132.361 9.40243 134.331 8.58547 136.385 8.58324C136.683 8.58324 136.969 8.70155 137.179 8.91214C137.39 9.12274 137.508 9.40836 137.508 9.70619C137.508 10.004 137.39 10.2896 137.179 10.5002C136.969 10.7108 136.683 10.8291 136.385 10.8291C134.926 10.8306 133.527 11.4107 132.495 12.4422C131.463 13.4737 130.882 14.8724 130.88 16.3316V29.9389V43.5462C130.878 45.6005 130.061 47.57 128.608 49.0226C127.155 50.4753 125.186 51.2923 123.131 51.2945Z" fill="white"/>
<path d="M118.971 32.2492H93.5503V31.1263C93.5999 27.788 94.9608 24.6032 97.3391 22.2601C99.7173 19.9169 102.922 18.6034 106.261 18.6034C109.599 18.6034 112.804 19.9169 115.182 22.2601C117.56 24.6032 118.921 27.788 118.971 31.1263V32.2492ZM95.8579 30.0033H116.666C116.386 27.4394 115.17 25.0691 113.25 23.3471C111.329 21.6251 108.841 20.6728 106.262 20.6728C103.683 20.6728 101.195 21.6251 99.2745 23.3471C97.3544 25.0691 96.1377 27.4394 95.8579 30.0033Z" fill="white"/>
<path d="M106.262 43.8353C102.892 43.8316 99.6616 42.4915 97.2785 40.109C94.8955 37.7265 93.5547 34.4961 93.5503 31.1264C93.5503 30.8286 93.6686 30.5429 93.8792 30.3323C94.0898 30.1217 94.3754 30.0034 94.6732 30.0034C94.971 30.0034 95.2567 30.1217 95.4673 30.3323C95.6778 30.5429 95.7962 30.8286 95.7962 31.1264C95.7961 33.1563 96.3863 35.1425 97.495 36.8429C98.6037 38.5433 100.183 39.8846 102.04 40.7035C103.898 41.5223 105.953 41.7832 107.957 41.4545C109.96 41.1258 111.824 40.2217 113.323 38.8523C113.43 38.7447 113.558 38.6601 113.699 38.6034C113.839 38.5468 113.99 38.5193 114.142 38.5226C114.294 38.5259 114.444 38.56 114.582 38.6228C114.72 38.6856 114.844 38.7758 114.947 38.8879C115.049 39 115.128 39.1317 115.178 39.2751C115.228 39.4184 115.248 39.5705 115.238 39.722C115.228 39.8735 115.187 40.0213 115.117 40.1565C115.048 40.2917 114.952 40.4115 114.836 40.5086C112.495 42.6517 109.436 43.8389 106.262 43.8353Z" fill="white"/>
<path d="M135.703 28.4818H124.291C123.993 28.4818 123.708 28.3635 123.497 28.1529C123.286 27.9423 123.168 27.6567 123.168 27.3589C123.168 27.0611 123.286 26.7754 123.497 26.5648C123.708 26.3542 123.993 26.2359 124.291 26.2359H135.703C136.001 26.2359 136.286 26.3542 136.497 26.5648C136.708 26.7754 136.826 27.0611 136.826 27.3589C136.826 27.6567 136.708 27.9423 136.497 28.1529C136.286 28.3635 136.001 28.4818 135.703 28.4818Z" fill="white"/>
<path d="M143.541 32.2493C143.243 32.2493 142.958 32.131 142.747 31.9204C142.537 31.7098 142.418 31.4242 142.418 31.1263V9.95318C142.418 9.65535 142.537 9.36973 142.747 9.15913C142.958 8.94854 143.243 8.83023 143.541 8.83023C143.839 8.83023 144.125 8.94854 144.335 9.15913C144.546 9.36973 144.664 9.65535 144.664 9.95318V31.1235C144.665 31.2712 144.636 31.4176 144.579 31.5541C144.523 31.6907 144.441 31.8148 144.336 31.9194C144.232 32.024 144.108 32.1069 143.972 32.1635C143.835 32.2202 143.689 32.2493 143.541 32.2493Z" fill="white"/>
<path d="M174.422 43.4001C174.124 43.4001 173.839 43.2817 173.628 43.0712C173.418 42.8606 173.299 42.5749 173.299 42.2771V19.5374C173.299 19.2396 173.418 18.954 173.628 18.7434C173.839 18.5328 174.124 18.4145 174.422 18.4145C174.72 18.4145 175.006 18.5328 175.216 18.7434C175.427 18.954 175.545 19.2396 175.545 19.5374V42.2771C175.545 42.5749 175.427 42.8606 175.216 43.0712C175.006 43.2817 174.72 43.4001 174.422 43.4001Z" fill="white"/>
<path d="M174.422 14.052C175.726 14.052 176.783 12.9949 176.783 11.691C176.783 10.387 175.726 9.32999 174.422 9.32999C173.118 9.32999 172.061 10.387 172.061 11.691C172.061 12.9949 173.118 14.052 174.422 14.052Z" fill="white"/>
<path d="M7.44505 19.1031C7.29397 19.1033 7.14558 19.1431 7.01474 19.2186C6.88389 19.2941 6.77518 19.4027 6.69949 19.5335L2.24913 27.2282C2.17341 27.3589 2.13354 27.5074 2.13354 27.6585C2.13354 27.8096 2.17341 27.9581 2.24913 28.0888L6.6924 35.7835C6.7687 35.9153 6.87852 36.0246 7.01072 36.1002C7.14292 36.1757 7.29277 36.215 7.44505 36.2139H16.3227C16.474 36.2135 16.6226 36.1736 16.7537 36.0981C16.8847 36.0226 16.9938 35.9142 17.0701 35.7835L21.5116 28.0888C21.5873 27.9581 21.6272 27.8096 21.6272 27.6585C21.6272 27.5074 21.5873 27.3589 21.5116 27.2282L17.0701 19.5335C16.9938 19.4028 16.8847 19.2944 16.7537 19.2189C16.6226 19.1434 16.474 19.1035 16.3227 19.1031H7.44505Z" fill="#FFA065"/>
<path style="mix-blend-mode:multiply" d="M11.1533 27.391H2.58025C2.50024 27.392 2.42168 27.4125 2.35142 27.4508C2.28116 27.4891 2.22133 27.544 2.17715 27.6107C2.13296 27.6774 2.10577 27.7539 2.09794 27.8335C2.0901 27.9131 2.10187 27.9935 2.1322 28.0675L6.60558 35.8224C6.68809 35.9675 6.80726 36.0884 6.95116 36.1729C7.09506 36.2574 7.25864 36.3027 7.42553 36.3041H16.2997C16.3668 36.3053 16.4329 36.2883 16.4912 36.2551C16.5495 36.2218 16.5977 36.1735 16.6309 36.1151C16.664 36.0568 16.6809 35.9906 16.6796 35.9235C16.6784 35.8565 16.6591 35.7909 16.6238 35.7339L12.0388 27.9099C11.9532 27.7504 11.8252 27.6175 11.669 27.526C11.5128 27.4344 11.3344 27.3877 11.1533 27.391Z" fill="url(#paint0_linear_768_5048)"/>
<path d="M22.8663 10.144C22.715 10.144 22.5663 10.1837 22.4352 10.2593C22.304 10.3348 22.195 10.4434 22.119 10.5743L17.6775 18.269C17.6018 18.4001 17.562 18.5489 17.562 18.7002C17.562 18.8516 17.6018 19.0004 17.6775 19.1315L22.119 26.8262C22.195 26.9571 22.304 27.0657 22.4352 27.1412C22.5663 27.2167 22.715 27.2565 22.8663 27.2565H31.7511C31.9022 27.2562 32.0505 27.2163 32.1813 27.1408C32.3121 27.0653 32.4208 26.9568 32.4967 26.8262L36.9382 19.1262C37.0139 18.995 37.0537 18.8463 37.0537 18.6949C37.0537 18.5435 37.0139 18.3948 36.9382 18.2637L32.4967 10.5743C32.4208 10.4437 32.3121 10.3352 32.1813 10.2597C32.0505 10.1842 31.9022 10.1443 31.7511 10.144H22.8663Z" fill="#39B5AC"/>
<path style="mix-blend-mode:multiply" d="M26.5819 18.4319H18.007C17.9274 18.4337 17.8495 18.4548 17.78 18.4935C17.7104 18.5321 17.6513 18.5871 17.6077 18.6537C17.5641 18.7203 17.5374 18.7964 17.5298 18.8757C17.5223 18.9549 17.5341 19.0347 17.5643 19.1084L22.0376 26.8633C22.1196 27.0077 22.2379 27.1282 22.3808 27.2127C22.5237 27.2972 22.6863 27.3428 22.8523 27.345H31.7211C31.7884 27.3464 31.8547 27.3297 31.9133 27.2966C31.9718 27.2635 32.0203 27.2152 32.0537 27.1568C32.087 27.0984 32.104 27.0321 32.1028 26.9648C32.1017 26.8976 32.0824 26.8319 32.047 26.7747L27.4673 18.949C27.3813 18.7899 27.2532 18.6575 27.0971 18.5663C26.9409 18.4751 26.7627 18.4286 26.5819 18.4319Z" fill="url(#paint1_linear_768_5048)"/>
<path d="M22.8752 27.8037C22.7218 27.8047 22.5713 27.8455 22.4384 27.9222C22.3055 27.9989 22.1949 28.1088 22.1172 28.2411L17.6084 36.0509C17.5327 36.1842 17.4928 36.335 17.4928 36.4883C17.4928 36.6417 17.5327 36.7924 17.6084 36.9257L22.1172 44.7338C22.194 44.8668 22.3045 44.9773 22.4376 45.0541C22.5706 45.1309 22.7216 45.1713 22.8752 45.1712H31.8928C32.0461 45.171 32.1967 45.1304 32.3294 45.0536C32.4621 44.9769 32.5723 44.8666 32.649 44.7338L37.1578 36.9257C37.2335 36.7924 37.2734 36.6417 37.2734 36.4883C37.2734 36.335 37.2335 36.1842 37.1578 36.0509L32.649 28.2411C32.5715 28.109 32.4611 27.9993 32.3286 27.9226C32.196 27.846 32.0459 27.805 31.8928 27.8037H22.8752Z" fill="#FDDA88"/>
<path style="mix-blend-mode:multiply" d="M26.6615 36.2829H18.0866C18.0068 36.2845 17.9287 36.3057 17.8589 36.3444C17.7892 36.3832 17.7299 36.4383 17.6863 36.5052C17.6427 36.572 17.616 36.6484 17.6086 36.7279C17.6012 36.8073 17.6133 36.8874 17.6439 36.9611L22.1173 44.716C22.1996 44.86 22.318 44.98 22.4609 45.0642C22.6037 45.1483 22.7661 45.1938 22.9319 45.196H31.8025C31.8698 45.1977 31.9363 45.1811 31.995 45.148C32.0536 45.1149 32.1021 45.0665 32.1354 45.0079C32.1687 44.9494 32.1854 44.8829 32.1839 44.8156C32.1823 44.7483 32.1625 44.6827 32.1266 44.6257L27.547 36.8035C27.4614 36.6438 27.3335 36.5107 27.1773 36.4188C27.0211 36.327 26.8427 36.2799 26.6615 36.2829Z" fill="url(#paint2_linear_768_5048)"/>
<path d="M16.3228 36.9187H7.44506C7.1676 36.9191 6.89497 36.846 6.65486 36.707C6.41474 36.568 6.21569 36.3679 6.07789 36.1271L1.63639 28.4394C1.49885 28.2008 1.42645 27.9303 1.42645 27.6549C1.42645 27.3795 1.49885 27.109 1.63639 26.8704L6.07789 19.1757C6.2165 18.936 6.41588 18.737 6.65592 18.599C6.89595 18.4609 7.16815 18.3886 7.44506 18.3894H16.3228C16.5985 18.3899 16.8692 18.4628 17.1079 18.6008C17.3466 18.7387 17.5448 18.937 17.6828 19.1757L22.1243 26.8704C22.2619 27.109 22.3343 27.3795 22.3343 27.6549C22.3343 27.9303 22.2619 28.2008 22.1243 28.4394L17.6828 36.1271C17.5456 36.3668 17.3477 36.5663 17.1089 36.7052C16.8702 36.8442 16.599 36.9178 16.3228 36.9187ZM7.44506 19.0978C7.29384 19.0983 7.14541 19.1384 7.01458 19.2143C6.88374 19.2901 6.7751 19.3989 6.69949 19.5299L2.24913 27.2246C2.17342 27.3553 2.13355 27.5038 2.13355 27.6549C2.13355 27.806 2.17342 27.9545 2.24913 28.0852L6.69241 35.7729C6.7678 35.906 6.87723 36.0166 7.00949 36.0935C7.14175 36.1704 7.29208 36.2107 7.44506 36.2103H16.3228C16.4745 36.2094 16.6234 36.1685 16.7543 36.0917C16.8852 36.0149 16.9935 35.9049 17.0683 35.7729L21.5116 28.0782C21.5873 27.9474 21.6272 27.7989 21.6272 27.6478C21.6272 27.4967 21.5873 27.3483 21.5116 27.2175L17.0683 19.5299C16.9927 19.3989 16.8841 19.2901 16.7532 19.2143C16.6224 19.1384 16.474 19.0983 16.3228 19.0978H7.44506Z" fill="white"/>
<path d="M31.7317 45.8335H22.8523C22.5768 45.833 22.3062 45.7603 22.0676 45.6226C21.829 45.485 21.6306 45.2872 21.4922 45.0489L17.0436 37.3542C16.9061 37.1153 16.8337 36.8445 16.8337 36.5688C16.8337 36.2932 16.9061 36.0223 17.0436 35.7834L21.4869 28.0887C21.6253 27.8505 21.8236 27.6527 22.0623 27.515C22.3009 27.3774 22.5715 27.3047 22.847 27.3042H31.7317C32.007 27.3046 32.2773 27.3773 32.5157 27.515C32.7541 27.6527 32.9521 27.8505 33.09 28.0887L37.5333 35.7834C37.6708 36.0223 37.7432 36.2932 37.7432 36.5688C37.7432 36.8445 37.6708 37.1153 37.5333 37.3542L33.09 45.0489C32.9521 45.2872 32.7541 45.485 32.5157 45.6227C32.2773 45.7603 32.007 45.833 31.7317 45.8335ZM22.8523 28.0126C22.7009 28.0126 22.5522 28.0523 22.4211 28.1278C22.2899 28.2034 22.1809 28.312 22.1049 28.4429L17.6581 36.1376C17.5824 36.2687 17.5426 36.4174 17.5426 36.5688C17.5426 36.7202 17.5824 36.8689 17.6581 37L22.0996 44.6948C22.1756 44.8256 22.2846 44.9343 22.4158 45.0098C22.5469 45.0853 22.6956 45.1251 22.847 45.1251H31.7317C31.8828 45.1248 32.0311 45.0849 32.1619 45.0094C32.2927 44.9339 32.4015 44.8254 32.4773 44.6948L36.9206 37C36.9954 36.8687 37.0348 36.72 37.0348 36.5688C37.0348 36.4176 36.9954 36.269 36.9206 36.1376L32.4773 28.4429C32.4015 28.3123 32.2927 28.2038 32.1619 28.1283C32.0311 28.0528 31.8828 28.0129 31.7317 28.0126H22.8523Z" fill="white"/>
<path d="M17.3481 37.5278C17.2857 37.5281 17.2243 37.5118 17.1702 37.4807C17.1161 37.4496 17.0711 37.4048 17.0399 37.3507C16.9648 37.2206 16.857 37.1122 16.7272 37.0364C16.5973 36.9607 16.45 36.9201 16.2997 36.9186C16.2057 36.9186 16.1157 36.8813 16.0492 36.8149C15.9828 36.7485 15.9455 36.6584 15.9455 36.5644C15.9455 36.4705 15.9828 36.3804 16.0492 36.314C16.1157 36.2476 16.2057 36.2103 16.2997 36.2103C16.5754 36.2108 16.8461 36.2836 17.0848 36.4216C17.3235 36.5596 17.5218 36.7579 17.6598 36.9966C17.7066 37.0778 17.7194 37.1744 17.6951 37.265C17.6709 37.3557 17.6117 37.433 17.5305 37.48C17.4751 37.5121 17.4121 37.5287 17.3481 37.5278Z" fill="white"/>
<path d="M31.7317 28.0055H22.8523C22.5768 28.005 22.3062 27.9323 22.0676 27.7946C21.829 27.657 21.6306 27.4592 21.4922 27.221L17.0436 19.5263C16.9061 19.2874 16.8337 19.0165 16.8337 18.7409C16.8337 18.4652 16.9061 18.1944 17.0436 17.9554L21.4869 10.2607C21.6257 10.0217 21.8249 9.82343 22.0646 9.68573C22.3042 9.54803 22.5759 9.47578 22.8523 9.47621H31.7371C32.0123 9.47666 32.2826 9.54936 32.521 9.68703C32.7594 9.8247 32.9574 10.0225 33.0954 10.2607L37.5386 17.9554C37.6762 18.1944 37.7485 18.4652 37.7485 18.7409C37.7485 19.0165 37.6762 19.2874 37.5386 19.5263L33.0954 27.221C32.957 27.46 32.7581 27.6583 32.5187 27.796C32.2793 27.9337 32.0079 28.006 31.7317 28.0055ZM22.8523 10.1846C22.7009 10.1846 22.5522 10.2244 22.4211 10.2999C22.2899 10.3754 22.1809 10.484 22.1049 10.6149L17.6581 18.3096C17.5824 18.4407 17.5426 18.5895 17.5426 18.7409C17.5426 18.8922 17.5824 19.041 17.6581 19.1721L22.0996 26.8668C22.1756 26.9977 22.2846 27.1063 22.4158 27.1818C22.5469 27.2574 22.6956 27.2971 22.847 27.2971H31.7317C31.8828 27.2968 32.0311 27.2569 32.1619 27.1814C32.2927 27.1059 32.4015 26.9974 32.4773 26.8668L36.9206 19.1721C36.9954 19.0407 37.0348 18.8921 37.0348 18.7409C37.0348 18.5896 36.9954 18.441 36.9206 18.3096L32.4773 10.6149C32.4015 10.4843 32.2927 10.3758 32.1619 10.3003C32.0311 10.2248 31.8828 10.1849 31.7317 10.1846H22.8523Z" fill="white"/>
<path d="M16.2997 19.0979C16.2057 19.0979 16.1157 19.0605 16.0492 18.9941C15.9828 18.9277 15.9455 18.8376 15.9455 18.7437C15.9455 18.6497 15.9828 18.5596 16.0492 18.4932C16.1157 18.4268 16.2057 18.3895 16.2997 18.3895C16.451 18.3891 16.5995 18.3492 16.7306 18.2737C16.8617 18.1982 16.9708 18.0898 17.047 17.9591C17.096 17.8821 17.1729 17.8269 17.2617 17.8051C17.3504 17.7834 17.4441 17.7968 17.5232 17.8425C17.6023 17.8882 17.6606 17.9627 17.6861 18.0505C17.7115 18.1382 17.7021 18.2324 17.6598 18.3133C17.5217 18.5518 17.3233 18.7498 17.0846 18.8875C16.8459 19.0252 16.5752 19.0977 16.2997 19.0979Z" fill="white"/>
<path d="M32.7782 28.62C32.7158 28.6203 32.6545 28.604 32.6004 28.5729C32.5462 28.5418 32.5013 28.497 32.4701 28.4429C32.3326 28.2043 32.2602 27.9338 32.2602 27.6584C32.2602 27.383 32.3326 27.1125 32.4701 26.8739C32.5171 26.7924 32.5945 26.7329 32.6853 26.7085C32.7762 26.6841 32.873 26.6967 32.9545 26.7437C33.0359 26.7907 33.0954 26.8681 33.1198 26.9589C33.1443 27.0498 33.1316 27.1466 33.0846 27.2281C33.0089 27.3588 32.969 27.5073 32.969 27.6584C32.969 27.8095 33.0089 27.958 33.0846 28.0887C33.108 28.1292 33.1232 28.1738 33.1293 28.2201C33.1354 28.2665 33.1323 28.3135 33.1201 28.3586C33.1079 28.4037 33.0869 28.446 33.0583 28.4829C33.0298 28.5199 32.9942 28.5508 32.9536 28.574C32.9001 28.6043 32.8397 28.6201 32.7782 28.62Z" fill="white"/>
<path d="M38.1902 36.9204H38.1654C37.8901 36.8999 37.625 36.8073 37.3968 36.6519C37.1687 36.4964 36.9854 36.2837 36.8656 36.0349C36.8452 35.9931 36.8333 35.9476 36.8305 35.9012C36.8277 35.8547 36.8341 35.8081 36.8494 35.7642C36.8646 35.7202 36.8883 35.6796 36.9192 35.6448C36.9501 35.61 36.9875 35.5816 37.0294 35.5612C37.0712 35.5409 37.1167 35.529 37.1632 35.5262C37.2096 35.5234 37.2562 35.5298 37.3002 35.545C37.3442 35.5602 37.3847 35.584 37.4195 35.6148C37.4544 35.6457 37.4827 35.6832 37.5031 35.725C37.5685 35.8606 37.6683 35.9767 37.7926 36.0615C37.9169 36.1464 38.0614 36.197 38.2115 36.2085C38.3054 36.2118 38.3942 36.2523 38.4583 36.321C38.5224 36.3897 38.5566 36.4811 38.5533 36.5751C38.55 36.669 38.5095 36.7578 38.4408 36.8219C38.372 36.886 38.2806 36.9202 38.1867 36.9169L38.1902 36.9204Z" fill="white"/>
<path d="M37.1826 37.6023C37.1292 37.6018 37.0767 37.5897 37.0285 37.5669C36.9866 37.5465 36.9491 37.518 36.9182 37.4831C36.8873 37.4482 36.8636 37.4075 36.8485 37.3634C36.8333 37.3193 36.8271 37.2727 36.83 37.2261C36.8329 37.1796 36.845 37.1341 36.8656 37.0923C36.9854 36.8436 37.1687 36.6308 37.3968 36.4754C37.625 36.3199 37.8901 36.2273 38.1654 36.2068C38.2594 36.2002 38.3521 36.2312 38.4231 36.293C38.4942 36.3548 38.5378 36.4423 38.5444 36.5362C38.551 36.6301 38.52 36.7228 38.4582 36.7939C38.3964 36.865 38.3089 36.9086 38.215 36.9152C38.0649 36.9266 37.9205 36.9773 37.7962 37.0622C37.6718 37.147 37.572 37.263 37.5066 37.3986C37.4778 37.4601 37.4319 37.5119 37.3745 37.548C37.317 37.5841 37.2504 37.603 37.1826 37.6023Z" fill="white"/>
<path d="M47.3929 36.9186H37.8238C37.7299 36.9186 37.6398 36.8813 37.5734 36.8149C37.507 36.7485 37.4696 36.6584 37.4696 36.5644C37.4696 36.4705 37.507 36.3804 37.5734 36.314C37.6398 36.2476 37.7299 36.2103 37.8238 36.2103H47.3929C47.4869 36.2103 47.5769 36.2476 47.6434 36.314C47.7098 36.3804 47.7471 36.4705 47.7471 36.5644C47.7471 36.6584 47.7098 36.7485 47.6434 36.8149C47.5769 36.8813 47.4869 36.9186 47.3929 36.9186Z" fill="white"/>
<path d="M48.4863 37.9865C49.3089 37.9865 49.9757 37.3197 49.9757 36.4971C49.9757 35.6746 49.3089 35.0078 48.4863 35.0078C47.6638 35.0078 46.9969 35.6746 46.9969 36.4971C46.9969 37.3197 47.6638 37.9865 48.4863 37.9865Z" fill="white"/>
<path d="M37.2269 54.1038C37.1648 54.1037 37.1038 54.0873 37.05 54.0562C36.9962 54.0252 36.9516 53.9805 36.9205 53.9267L32.4772 46.232C32.4014 46.1014 32.2927 45.9929 32.1619 45.9174C32.031 45.8419 31.8827 45.802 31.7317 45.8017H22.8522C22.7009 45.8017 22.5522 45.8414 22.421 45.9169C22.2899 45.9925 22.1809 46.1011 22.1049 46.232L18.3204 52.7844C18.2971 52.8248 18.2662 52.8602 18.2292 52.8885C18.1923 52.9169 18.1501 52.9377 18.1052 52.9498C18.0602 52.9619 18.0133 52.965 17.9671 52.959C17.9209 52.9529 17.8764 52.9379 17.836 52.9146C17.7957 52.8914 17.7603 52.8604 17.7319 52.8234C17.7036 52.7865 17.6827 52.7444 17.6706 52.6994C17.6586 52.6544 17.6554 52.6075 17.6615 52.5613C17.6675 52.5151 17.6826 52.4706 17.7059 52.4303L21.4921 45.8778C21.6305 45.6396 21.8289 45.4418 22.0675 45.3041C22.3062 45.1665 22.5767 45.0938 22.8522 45.0933H31.737C32.0123 45.0937 32.2826 45.1664 32.5209 45.3041C32.7593 45.4418 32.9574 45.6396 33.0953 45.8778L37.5386 53.5725C37.5855 53.6538 37.5982 53.7503 37.5739 53.841C37.5497 53.9316 37.4905 54.0089 37.4093 54.056C37.3539 54.0881 37.2909 54.1046 37.2269 54.1038Z" fill="white"/>
<path d="M16.2307 19.0552H7.34588C7.07039 19.0547 6.79984 18.982 6.5612 18.8444C6.32256 18.7067 6.12417 18.5089 5.98581 18.2707L1.54253 10.576C1.49556 10.4945 1.48289 10.3977 1.5073 10.3068C1.53171 10.216 1.5912 10.1386 1.67269 10.0916C1.75418 10.0447 1.85099 10.032 1.94183 10.0564C2.03266 10.0808 2.11008 10.1403 2.15705 10.2218L6.59855 17.9165C6.67453 18.0474 6.78355 18.156 6.9147 18.2315C7.04586 18.3071 7.19454 18.3468 7.34588 18.3468H16.2307C16.3817 18.3465 16.53 18.3066 16.6608 18.2311C16.7917 18.1556 16.9004 18.0471 16.9762 17.9165L21.4195 10.2218C21.4943 10.0904 21.5337 9.94178 21.5337 9.79057C21.5337 9.63935 21.4943 9.49074 21.4195 9.35934L16.9762 1.66641C16.9293 1.58492 16.9166 1.48811 16.941 1.39727C16.9654 1.30644 17.0249 1.22902 17.1064 1.18206C17.1879 1.13509 17.2847 1.12241 17.3755 1.14682C17.4664 1.17124 17.5438 1.23073 17.5907 1.31222L22.0322 9.00516C22.1698 9.24407 22.2421 9.5149 22.2421 9.79057C22.2421 10.0662 22.1698 10.3371 22.0322 10.576L17.5907 18.2707C17.4522 18.5088 17.2538 18.7065 17.0152 18.8441C16.7766 18.9818 16.5061 19.0545 16.2307 19.0552Z" fill="white"/>
<path d="M17.3233 2.97871C18.1459 2.97871 18.8127 2.3119 18.8127 1.48936C18.8127 0.666807 18.1459 0 17.3233 0C16.5008 0 15.834 0.666807 15.834 1.48936C15.834 2.3119 16.5008 2.97871 17.3233 2.97871Z" fill="white"/>
<path d="M1.85068 11.9024C2.67323 11.9024 3.34004 11.2356 3.34004 10.413C3.34004 9.59047 2.67323 8.92366 1.85068 8.92366C1.02814 8.92366 0.361328 9.59047 0.361328 10.413C0.361328 11.2356 1.02814 11.9024 1.85068 11.9024Z" fill="white"/>
<path d="M7.48946 55.5968C8.31201 55.5968 8.97882 54.93 8.97882 54.1074C8.97882 53.2849 8.31201 52.618 7.48946 52.618C6.66691 52.618 6.00011 53.2849 6.00011 54.1074C6.00011 54.93 6.66691 55.5968 7.48946 55.5968Z" fill="white"/>
<path d="M37.3898 55.5967C38.2123 55.5967 38.8791 54.9299 38.8791 54.1074C38.8791 53.2848 38.2123 52.618 37.3898 52.618C36.5672 52.618 35.9004 53.2848 35.9004 54.1074C35.9004 54.9299 36.5672 55.5967 37.3898 55.5967Z" fill="white"/>
<path d="M16.4396 54.4614H7.55486C7.46092 54.4614 7.37083 54.4241 7.30441 54.3577C7.23798 54.2913 7.20067 54.2012 7.20067 54.1073C7.20067 54.0133 7.23798 53.9232 7.30441 53.8568C7.37083 53.7904 7.46092 53.7531 7.55486 53.7531H16.4396C16.5907 53.7529 16.7391 53.7131 16.8699 53.6376C17.0008 53.5621 17.1095 53.4535 17.1852 53.3227L21.3487 46.1115C21.3719 46.0711 21.4029 46.0358 21.4398 46.0074C21.4767 45.979 21.5189 45.9582 21.5639 45.9461C21.6089 45.934 21.6558 45.9309 21.7019 45.9369C21.7481 45.943 21.7927 45.9581 21.833 45.9813C21.8734 46.0046 21.9087 46.0356 21.9371 46.0725C21.9655 46.1094 21.9863 46.1516 21.9984 46.1966C22.0105 46.2415 22.0136 46.2884 22.0076 46.3346C22.0015 46.3808 21.9864 46.4253 21.9632 46.4657L17.7997 53.6769C17.6613 53.9152 17.463 54.1129 17.2243 54.2506C16.9857 54.3883 16.7151 54.461 16.4396 54.4614Z" fill="white"/>
</g>
<defs>
<linearGradient id="paint0_linear_768_5048" x1="9.38595" y1="36.3041" x2="9.38595" y2="27.391" gradientUnits="userSpaceOnUse">
<stop stop-color="#D17A43" stop-opacity="0.3"/>
<stop offset="1" stop-color="#D17A43"/>
</linearGradient>
<linearGradient id="paint1_linear_768_5048" x1="24.8127" y1="27.345" x2="24.8127" y2="18.4319" gradientUnits="userSpaceOnUse">
<stop stop-color="#298F88" stop-opacity="0.3"/>
<stop offset="1" stop-color="#227973"/>
</linearGradient>
<linearGradient id="paint2_linear_768_5048" x1="24.8923" y1="45.196" x2="24.8923" y2="36.2828" gradientUnits="userSpaceOnUse">
<stop stop-color="#F1C151" stop-opacity="0.3"/>
<stop offset="1" stop-color="#F1C151"/>
</linearGradient>
<clipPath id="clip0_768_5048">
<rect width="176.605" height="55.7701" fill="white" transform="translate(0.361328)"/>
</clipPath>
</defs>
</svg>
