<svg width="422" height="210" viewBox="0 0 422 210" fill="none" xmlns="http://www.w3.org/2000/svg">
<g clip-path="url(#clip0_713_2119)">
<path d="M26.6735 71.9316C26.1046 71.9322 25.5459 72.0821 25.0532 72.3665C24.5605 72.6509 24.1512 73.0597 23.8661 73.5521L7.1085 102.526C6.82341 103.019 6.67328 103.578 6.67328 104.147C6.67328 104.716 6.82341 105.275 7.1085 105.767L23.8395 134.741C24.1267 135.237 24.5403 135.649 25.0381 135.933C25.5359 136.218 26.1001 136.366 26.6735 136.361H60.1021C60.6717 136.36 61.231 136.21 61.7246 135.926C62.2183 135.641 62.629 135.233 62.9161 134.741L79.6404 105.767C79.9255 105.275 80.0756 104.716 80.0756 104.147C80.0756 103.578 79.9255 103.019 79.6404 102.526L62.9161 73.5521C62.629 73.0601 62.2183 72.6518 61.7246 72.3675C61.231 72.0833 60.6717 71.933 60.1021 71.9316H26.6735Z" fill="#FFA065"/>
<path style="mix-blend-mode:multiply" d="M40.6373 103.14H8.3557C8.05443 103.143 7.75862 103.221 7.49405 103.365C7.22949 103.509 7.0042 103.716 6.83783 103.967C6.67147 104.218 6.56907 104.506 6.53957 104.806C6.51008 105.106 6.55438 105.408 6.6686 105.687L23.5129 134.888C23.8236 135.434 24.2723 135.889 24.8142 136.208C25.356 136.526 25.972 136.696 26.6004 136.702H60.0156C60.2682 136.706 60.5173 136.642 60.7368 136.517C60.9562 136.392 61.1379 136.21 61.2627 135.99C61.3875 135.77 61.4509 135.521 61.4462 135.269C61.4415 135.016 61.3689 134.769 61.2359 134.554L43.9715 105.094C43.6491 104.493 43.1673 103.993 42.5791 103.648C41.9909 103.303 41.319 103.127 40.6373 103.14Z" fill="url(#paint0_linear_713_2119)"/>
<path d="M84.7415 38.1965C84.1716 38.1966 83.6117 38.3463 83.1179 38.6307C82.624 38.915 82.2135 39.3241 81.9274 39.8169L65.2031 68.791C64.9181 69.2847 64.7681 69.8447 64.7681 70.4148C64.7681 70.9848 64.9181 71.5449 65.2031 72.0385L81.9274 101.013C82.2135 101.505 82.624 101.915 83.1179 102.199C83.6117 102.483 84.1716 102.633 84.7415 102.633H118.197C118.765 102.632 119.324 102.482 119.817 102.197C120.309 101.913 120.719 101.504 121.004 101.013L137.728 72.0185C138.013 71.5248 138.163 70.9648 138.163 70.3948C138.163 69.8247 138.013 69.2647 137.728 68.771L121.004 39.8169C120.719 39.3251 120.309 38.9166 119.817 38.6323C119.324 38.348 118.765 38.1977 118.197 38.1965H84.7415Z" fill="#39B5AC"/>
<path style="mix-blend-mode:multiply" d="M98.7315 69.4044H66.4433C66.1437 69.4112 65.8503 69.4908 65.5883 69.6363C65.3264 69.7818 65.1038 69.9888 64.9397 70.2396C64.7756 70.4903 64.675 70.7772 64.6465 71.0755C64.618 71.3737 64.6625 71.6745 64.7762 71.9517L81.6205 101.153C81.9289 101.696 82.3744 102.15 82.9126 102.468C83.4507 102.786 84.0628 102.958 84.6879 102.966H118.083C118.336 102.972 118.586 102.909 118.807 102.784C119.027 102.659 119.21 102.478 119.335 102.258C119.461 102.038 119.525 101.788 119.521 101.535C119.516 101.282 119.443 101.034 119.31 100.819L102.066 71.3516C101.742 70.7526 101.26 70.2541 100.672 69.9107C100.083 69.5673 99.4124 69.3922 98.7315 69.4044Z" fill="url(#paint1_linear_713_2119)"/>
<path d="M84.7751 104.693C84.1974 104.697 83.6307 104.851 83.1304 105.14C82.63 105.428 82.2133 105.842 81.921 106.34L64.9434 135.748C64.6581 136.25 64.5081 136.818 64.5081 137.395C64.5081 137.973 64.6581 138.54 64.9434 139.042L81.921 168.443C82.2103 168.944 82.6263 169.36 83.1273 169.649C83.6283 169.938 84.1966 170.09 84.7751 170.09H118.73C119.308 170.089 119.875 169.936 120.374 169.647C120.874 169.358 121.289 168.943 121.578 168.443L138.556 139.042C138.841 138.54 138.991 137.973 138.991 137.395C138.991 136.818 138.841 136.25 138.556 135.748L121.578 106.34C121.286 105.843 120.87 105.43 120.371 105.141C119.872 104.853 119.307 104.698 118.73 104.693H84.7751Z" fill="#FDDA88"/>
<path style="mix-blend-mode:multiply" d="M99.0321 136.621H66.7438C66.4434 136.628 66.1491 136.707 65.8864 136.853C65.6237 136.999 65.4006 137.207 65.2363 137.458C65.0721 137.71 64.9717 137.998 64.9439 138.297C64.9161 138.596 64.9617 138.898 65.0767 139.175L81.9211 168.376C82.2309 168.918 82.6768 169.37 83.2148 169.687C83.7528 170.004 84.3642 170.175 84.9885 170.183H118.39C118.644 170.19 118.894 170.127 119.115 170.003C119.336 169.878 119.519 169.696 119.644 169.475C119.769 169.255 119.832 169.005 119.826 168.751C119.821 168.498 119.746 168.25 119.611 168.036L102.366 138.582C102.044 137.98 101.563 137.479 100.975 137.133C100.386 136.787 99.7143 136.61 99.0321 136.621Z" fill="url(#paint2_linear_713_2119)"/>
<path d="M60.1021 139.016H26.6735C25.6288 139.017 24.6022 138.742 23.6981 138.219C22.7939 137.695 22.0444 136.942 21.5255 136.035L4.80126 107.087C4.28336 106.189 4.01074 105.17 4.01074 104.133C4.01074 103.096 4.28336 102.078 4.80126 101.179L21.5255 72.2052C22.0475 71.3025 22.7982 70.5535 23.7021 70.0337C24.6059 69.5139 25.6309 69.2416 26.6735 69.2444H60.1021C61.1402 69.2463 62.1597 69.5208 63.0584 70.0403C63.9572 70.5599 64.7037 71.3064 65.2234 72.2052L81.9477 101.179C82.4656 102.078 82.7382 103.096 82.7382 104.133C82.7382 105.17 82.4656 106.189 81.9477 107.087L65.2234 136.035C64.7068 136.938 63.9615 137.689 63.0624 138.212C62.1634 138.735 61.1423 139.012 60.1021 139.016V139.016ZM26.6735 71.9118C26.1041 71.9136 25.5452 72.0649 25.0526 72.3504C24.5599 72.6359 24.1508 73.0457 23.8661 73.5388L7.10852 102.513C6.82342 103.005 6.67329 103.564 6.67329 104.133C6.67329 104.702 6.82342 105.261 7.10852 105.754L23.8395 134.701C24.1233 135.202 24.5354 135.619 25.0334 135.909C25.5315 136.198 26.0975 136.35 26.6735 136.348H60.1021C60.6736 136.345 61.2341 136.191 61.727 135.902C62.22 135.613 62.6278 135.198 62.9095 134.701L79.6404 105.727C79.9255 105.235 80.0756 104.676 80.0756 104.107C80.0756 103.538 79.9255 102.979 79.6404 102.486L62.9095 73.5388C62.6248 73.0457 62.2157 72.6359 61.723 72.3504C61.2304 72.0649 60.6715 71.9136 60.1021 71.9118H26.6735Z" fill="white"/>
<path d="M118.123 172.584H84.688C83.6506 172.582 82.6319 172.308 81.7333 171.79C80.8347 171.272 80.0877 170.527 79.5667 169.63L62.8157 140.656C62.2979 139.756 62.0253 138.736 62.0253 137.698C62.0253 136.66 62.2979 135.641 62.8157 134.741L79.5467 105.767C80.0677 104.87 80.8147 104.125 81.7133 103.607C82.6119 103.088 83.6306 102.815 84.668 102.813H118.123C119.16 102.814 120.178 103.088 121.075 103.607C121.973 104.125 122.718 104.87 123.238 105.767L139.969 134.741C140.487 135.641 140.759 136.66 140.759 137.698C140.759 138.736 140.487 139.756 139.969 140.656L123.238 169.63C122.718 170.527 121.973 171.272 121.075 171.79C120.178 172.309 119.16 172.582 118.123 172.584V172.584ZM84.688 105.48C84.1181 105.48 83.5582 105.63 83.0644 105.914C82.5705 106.199 82.16 106.608 81.8739 107.101L65.1296 136.075C64.8446 136.568 64.6946 137.128 64.6946 137.698C64.6946 138.268 64.8446 138.828 65.1296 139.322L81.8539 168.296C82.14 168.789 82.5505 169.198 83.0444 169.482C83.5382 169.767 84.0981 169.917 84.668 169.917H118.123C118.692 169.915 119.25 169.765 119.743 169.481C120.236 169.196 120.645 168.788 120.931 168.296L137.662 139.322C137.943 138.827 138.092 138.268 138.092 137.698C138.092 137.129 137.943 136.569 137.662 136.075L120.931 107.101C120.645 106.609 120.236 106.2 119.743 105.916C119.25 105.632 118.692 105.481 118.123 105.48H84.688Z" fill="white"/>
<path d="M63.9629 141.309C63.7279 141.31 63.4968 141.249 63.2931 141.132C63.0893 141.015 62.9201 140.846 62.8026 140.643C62.5197 140.152 62.1137 139.744 61.6249 139.459C61.136 139.174 60.5812 139.021 60.0153 139.015C59.6615 139.015 59.3223 138.875 59.0722 138.625C58.8221 138.375 58.6816 138.036 58.6816 137.682C58.6816 137.328 58.8221 136.989 59.0722 136.739C59.3223 136.489 59.6615 136.348 60.0153 136.348C61.0534 136.35 62.0728 136.624 62.9716 137.144C63.8704 137.664 64.6169 138.41 65.1366 139.309C65.3131 139.615 65.361 139.979 65.2697 140.32C65.1785 140.661 64.9555 140.952 64.6498 141.129C64.4413 141.25 64.2039 141.313 63.9629 141.309V141.309Z" fill="white"/>
<path d="M118.123 105.453H84.688C83.6506 105.451 82.6319 105.178 81.7333 104.659C80.8347 104.141 80.0877 103.396 79.5667 102.499L62.8157 73.5252C62.2979 72.6256 62.0253 71.6057 62.0253 70.5677C62.0253 69.5297 62.2979 68.5099 62.8157 67.6103L79.5467 38.6362C80.0694 37.7363 80.8196 36.9896 81.722 36.4711C82.6243 35.9526 83.6472 35.6805 84.688 35.6821H118.143C119.18 35.6838 120.198 35.9576 121.095 36.476C121.993 36.9944 122.738 37.7393 123.258 38.6362L139.989 67.6103C140.507 68.5099 140.779 69.5297 140.779 70.5677C140.779 71.6057 140.507 72.6256 139.989 73.5252L123.258 102.499C122.737 103.399 121.988 104.146 121.086 104.665C120.185 105.183 119.163 105.455 118.123 105.453V105.453ZM84.688 38.3495C84.1181 38.3495 83.5582 38.4992 83.0644 38.7836C82.5705 39.068 82.16 39.4771 81.8739 39.9699L65.1296 68.944C64.8446 69.4377 64.6946 69.9977 64.6946 70.5677C64.6946 71.1378 64.8446 71.6978 65.1296 72.1915L81.8539 101.166C82.14 101.658 82.5505 102.067 83.0444 102.352C83.5382 102.636 84.0981 102.786 84.668 102.786H118.123C118.692 102.785 119.25 102.635 119.743 102.35C120.236 102.066 120.645 101.657 120.931 101.166L137.662 72.1915C137.943 71.6967 138.092 71.1371 138.092 70.5677C138.092 69.9983 137.943 69.4388 137.662 68.944L120.931 39.9699C120.645 39.478 120.236 39.0696 119.743 38.7853C119.25 38.501 118.692 38.3507 118.123 38.3495H84.688Z" fill="white"/>
<path d="M60.0153 71.9118C59.6615 71.9118 59.3223 71.7713 59.0722 71.5212C58.8221 71.2711 58.6816 70.9319 58.6816 70.5781C58.6816 70.2244 58.8221 69.8852 59.0722 69.6351C59.3223 69.385 59.6615 69.2445 60.0153 69.2445C60.5849 69.2431 61.1442 69.0928 61.6378 68.8086C62.1314 68.5243 62.5422 68.116 62.8293 67.6241C63.0138 67.3338 63.3034 67.126 63.6375 67.0442C63.9716 66.9623 64.3244 67.0127 64.6222 67.1849C64.9201 67.357 65.1398 67.6376 65.2357 67.968C65.3315 68.2983 65.296 68.6529 65.1366 68.9577C64.6166 69.8557 63.8698 70.6012 62.971 71.1197C62.0722 71.6381 61.0529 71.9113 60.0153 71.9118V71.9118Z" fill="white"/>
<path d="M122.064 107.767C121.829 107.768 121.598 107.707 121.395 107.59C121.191 107.473 121.022 107.304 120.904 107.1C120.386 106.202 120.114 105.183 120.114 104.146C120.114 103.109 120.386 102.091 120.904 101.192C121.081 100.885 121.373 100.661 121.715 100.569C122.057 100.478 122.421 100.525 122.728 100.702C123.035 100.879 123.259 101.17 123.351 101.512C123.443 101.855 123.395 102.219 123.218 102.526C122.933 103.018 122.783 103.577 122.783 104.146C122.783 104.715 122.933 105.274 123.218 105.767C123.306 105.919 123.363 106.087 123.386 106.262C123.409 106.436 123.397 106.613 123.352 106.783C123.306 106.953 123.227 107.112 123.119 107.251C123.012 107.39 122.877 107.507 122.725 107.594C122.523 107.708 122.296 107.768 122.064 107.767Z" fill="white"/>
<path d="M142.443 139.022H142.35C141.313 138.945 140.315 138.596 139.456 138.011C138.597 137.426 137.907 136.625 137.456 135.688C137.379 135.53 137.334 135.359 137.324 135.184C137.313 135.009 137.337 134.834 137.395 134.668C137.452 134.503 137.541 134.35 137.657 134.219C137.774 134.088 137.915 133.981 138.072 133.904C138.23 133.828 138.401 133.783 138.576 133.772C138.751 133.762 138.926 133.786 139.092 133.843C139.258 133.901 139.41 133.99 139.541 134.106C139.673 134.223 139.78 134.364 139.856 134.521C140.102 135.032 140.478 135.469 140.946 135.788C141.414 136.108 141.958 136.299 142.523 136.342C142.877 136.354 143.212 136.506 143.453 136.765C143.694 137.024 143.823 137.368 143.81 137.722C143.798 138.076 143.646 138.41 143.387 138.651C143.128 138.893 142.784 139.021 142.43 139.009L142.443 139.022Z" fill="white"/>
<path d="M138.649 141.59C138.448 141.588 138.25 141.542 138.069 141.456C137.911 141.38 137.77 141.272 137.654 141.141C137.537 141.009 137.448 140.856 137.391 140.69C137.334 140.524 137.31 140.349 137.321 140.173C137.332 139.998 137.378 139.827 137.455 139.669C137.907 138.733 138.597 137.932 139.456 137.346C140.315 136.761 141.313 136.412 142.35 136.335C142.704 136.31 143.053 136.427 143.32 136.66C143.588 136.892 143.752 137.222 143.777 137.575C143.802 137.929 143.685 138.278 143.452 138.546C143.22 138.813 142.89 138.978 142.537 139.002C141.971 139.046 141.428 139.236 140.959 139.556C140.491 139.875 140.115 140.312 139.869 140.823C139.761 141.054 139.588 141.249 139.372 141.385C139.155 141.521 138.904 141.592 138.649 141.59V141.59Z" fill="white"/>
<path d="M283.059 139.015H139.429C139.075 139.015 138.736 138.875 138.486 138.625C138.236 138.375 138.095 138.036 138.095 137.682C138.095 137.328 138.236 136.989 138.486 136.739C138.736 136.489 139.075 136.348 139.429 136.348H283.059C283.413 136.348 283.752 136.489 284.002 136.739C284.252 136.989 284.393 137.328 284.393 137.682C284.393 138.036 284.252 138.375 284.002 138.625C283.752 138.875 283.413 139.015 283.059 139.015Z" fill="white"/>
<path d="M414.326 139.015H315.294C314.94 139.015 314.601 138.875 314.351 138.625C314.101 138.375 313.96 138.036 313.96 137.682C313.96 137.328 314.101 136.989 314.351 136.739C314.601 136.489 314.94 136.348 315.294 136.348H414.326C414.68 136.348 415.019 136.489 415.269 136.739C415.519 136.989 415.66 137.328 415.66 137.682C415.66 138.036 415.519 138.375 415.269 138.625C415.019 138.875 414.68 139.015 414.326 139.015Z" fill="white"/>
<path d="M208.127 122.065C207.419 122.065 206.741 121.784 206.24 121.284C205.74 120.783 205.459 120.105 205.459 119.398V89.8166C205.459 83.8849 203.103 78.1961 198.908 74.0017C194.714 69.8073 189.025 67.4509 183.093 67.4509C177.162 67.4509 171.473 69.8073 167.278 74.0017C163.084 78.1961 160.728 83.8849 160.728 89.8166V119.398C160.728 120.105 160.447 120.783 159.946 121.284C159.446 121.784 158.768 122.065 158.06 122.065C157.353 122.065 156.674 121.784 156.174 121.284C155.674 120.783 155.393 120.105 155.393 119.398V89.8166C155.393 82.47 158.311 75.4243 163.506 70.2295C168.701 65.0346 175.747 62.1162 183.093 62.1162C190.44 62.1162 197.486 65.0346 202.681 70.2295C207.875 75.4243 210.794 82.47 210.794 89.8166V119.398C210.794 120.105 210.513 120.783 210.013 121.284C209.512 121.784 208.834 122.065 208.127 122.065Z" fill="white"/>
<path d="M370.034 122.492C364.064 122.492 358.227 120.721 353.263 117.404C348.299 114.087 344.429 109.372 342.145 103.856C339.86 98.3402 339.262 92.2705 340.427 86.4146C341.592 80.5588 344.467 75.1798 348.688 70.958C352.91 66.7362 358.289 63.8611 364.145 62.6963C370.001 61.5315 376.071 62.1293 381.587 64.4141C387.103 66.699 391.818 70.5682 395.135 75.5325C398.452 80.4969 400.222 86.3334 400.222 92.304C400.213 100.308 397.03 107.981 391.371 113.64C385.711 119.3 378.038 122.483 370.034 122.492V122.492ZM370.034 67.4509C365.119 67.4509 360.314 68.9085 356.227 71.6394C352.14 74.3703 348.954 78.2518 347.073 82.7931C345.192 87.3344 344.7 92.3315 345.659 97.1525C346.618 101.974 348.985 106.402 352.461 109.878C355.936 113.353 360.365 115.72 365.186 116.679C370.007 117.638 375.004 117.146 379.545 115.265C384.087 113.384 387.968 110.199 390.699 106.112C393.43 102.024 394.887 97.2194 394.887 92.304C394.88 85.7147 392.26 79.3973 387.6 74.738C382.941 70.0787 376.624 67.458 370.034 67.4509Z" fill="white"/>
<path d="M294.035 140.209C293.328 140.209 292.649 139.928 292.149 139.428C291.649 138.928 291.368 138.25 291.368 137.542C291.368 136.835 291.649 136.156 292.149 135.656C292.649 135.156 293.328 134.875 294.035 134.875C297.5 134.871 300.823 133.493 303.273 131.043C305.723 128.592 307.101 125.27 307.105 121.805V57.1615C307.112 52.2813 309.054 47.6031 312.506 44.1529C315.957 40.7027 320.636 38.7621 325.516 38.7568C326.224 38.7568 326.902 39.0379 327.402 39.5381C327.903 40.0383 328.184 40.7168 328.184 41.4242C328.184 42.1316 327.903 42.8101 327.402 43.3103C326.902 43.8105 326.224 44.0915 325.516 44.0915C322.05 44.0951 318.727 45.473 316.276 47.9231C313.825 50.3733 312.445 53.6956 312.44 57.1615V89.4832V121.805C312.434 126.684 310.494 131.363 307.043 134.813C303.593 138.263 298.915 140.204 294.035 140.209Z" fill="white"/>
<path d="M284.153 94.9707H223.77V92.3033C223.888 84.3738 227.121 76.8091 232.77 71.2433C238.419 65.6775 246.031 62.5576 253.961 62.5576C261.892 62.5576 269.504 65.6775 275.153 71.2433C280.802 76.8091 284.035 84.3738 284.153 92.3033V94.9707ZM229.252 89.636H278.678C278.013 83.5458 275.123 77.9156 270.562 73.8254C266.002 69.7351 260.091 67.473 253.965 67.473C247.839 67.473 241.928 69.7351 237.367 73.8254C232.806 77.9156 229.916 83.5458 229.252 89.636V89.636Z" fill="white"/>
<path d="M253.965 122.491C245.961 122.482 238.287 119.299 232.626 113.64C226.966 107.981 223.781 100.308 223.77 92.3036C223.77 91.5962 224.051 90.9177 224.552 90.4175C225.052 89.9173 225.73 89.6362 226.438 89.6362C227.145 89.6362 227.824 89.9173 228.324 90.4175C228.824 90.9177 229.105 91.5962 229.105 92.3036C229.105 97.1253 230.507 101.843 233.14 105.882C235.774 109.921 239.525 113.107 243.937 115.052C248.349 116.997 253.232 117.617 257.99 116.836C262.748 116.055 267.177 113.908 270.736 110.655C270.99 110.4 271.294 110.198 271.629 110.064C271.964 109.929 272.322 109.864 272.683 109.872C273.043 109.88 273.399 109.961 273.727 110.11C274.056 110.259 274.35 110.473 274.594 110.74C274.837 111.006 275.024 111.319 275.143 111.659C275.261 112 275.31 112.361 275.285 112.721C275.261 113.081 275.163 113.432 274.999 113.753C274.835 114.074 274.607 114.359 274.33 114.589C268.77 119.68 261.503 122.5 253.965 122.491V122.491Z" fill="white"/>
<path d="M323.896 86.0222H296.789C296.081 86.0222 295.403 85.7412 294.903 85.241C294.403 84.7407 294.122 84.0623 294.122 83.3548C294.122 82.6474 294.403 81.969 294.903 81.4687C295.403 80.9685 296.081 80.6875 296.789 80.6875H323.896C324.603 80.6875 325.282 80.9685 325.782 81.4687C326.282 81.969 326.563 82.6474 326.563 83.3548C326.563 84.0623 326.282 84.7407 325.782 85.241C325.282 85.7412 324.603 86.0222 323.896 86.0222V86.0222Z" fill="white"/>
<path d="M342.515 94.9711C341.807 94.9711 341.129 94.6901 340.628 94.1898C340.128 93.6896 339.847 93.0112 339.847 92.3037V42.0109C339.847 41.3034 340.128 40.625 340.628 40.1248C341.129 39.6245 341.807 39.3435 342.515 39.3435C343.222 39.3435 343.9 39.6245 344.401 40.1248C344.901 40.625 345.182 41.3034 345.182 42.0109V92.2971C345.183 92.6479 345.114 92.9955 344.981 93.3199C344.847 93.6443 344.651 93.9391 344.403 94.1875C344.155 94.4359 343.861 94.6329 343.537 94.7674C343.213 94.9019 342.865 94.9711 342.515 94.9711Z" fill="white"/>
<path d="M415.866 121.458C415.159 121.458 414.481 121.177 413.98 120.676C413.48 120.176 413.199 119.498 413.199 118.79V64.7765C413.199 64.0691 413.48 63.3906 413.98 62.8904C414.481 62.3902 415.159 62.1091 415.866 62.1091C416.574 62.1091 417.252 62.3902 417.753 62.8904C418.253 63.3906 418.534 64.0691 418.534 64.7765V118.79C418.534 119.498 418.253 120.176 417.753 120.676C417.252 121.177 416.574 121.458 415.866 121.458Z" fill="white"/>
<path d="M415.866 51.7467C418.964 51.7467 421.474 49.2359 421.474 46.1386C421.474 43.0414 418.964 40.5305 415.866 40.5305C412.769 40.5305 410.258 43.0414 410.258 46.1386C410.258 49.2359 412.769 51.7467 415.866 51.7467Z" fill="white"/>
<path d="M415.866 143.037C418.964 143.037 421.474 140.526 421.474 137.428C421.474 134.331 418.964 131.82 415.866 131.82C412.769 131.82 410.258 134.331 410.258 137.428C410.258 140.526 412.769 143.037 415.866 143.037Z" fill="white"/>
<path d="M164.108 166.042H161.841L158.12 158.08L157.047 155.526V166.042H155.426V153.292H157.66L161.208 160.834L162.488 163.755V153.292H164.108V166.042Z" fill="white"/>
<path d="M175.605 166.042H168.343V153.292H175.605V154.753H170.083V158.707H175.378V160.168H170.077V164.569H175.598L175.605 166.042Z" fill="white"/>
<path d="M188.661 154.773H184.88V166.042H183.12V154.773H179.339V153.292H188.675L188.661 154.773Z" fill="white"/>
<path d="M200.398 154.659L193.883 164.435H200.551V166.042H191.702V164.709L198.257 154.826H191.882V153.246H200.398V154.659Z" fill="white"/>
<path d="M213.301 153.293L212.441 166.043H210.18L208.6 161.501L208.16 160.048L207.7 161.621L206.239 166.043H204.052L203.172 153.279H204.812L205.312 161.948L205.459 164.329L206.073 162.328L207.62 157.594H208.82L210.594 162.668L211.194 164.349L211.234 162.595L211.741 153.259L213.301 153.293Z" fill="white"/>
<path d="M224.057 166.042H216.822V153.292H224.057V154.753H218.543V158.707H223.844V160.168H218.543V164.569H224.057V166.042Z" fill="white"/>
<path d="M237.24 166.042H235.28L233.393 161.974C233.274 161.699 233.127 161.438 232.953 161.194C232.82 161.007 232.658 160.842 232.472 160.707C232.301 160.588 232.109 160.5 231.906 160.447C231.687 160.399 231.463 160.374 231.239 160.374H230.419V166.042H228.678V153.292H232.059C232.705 153.28 233.35 153.361 233.973 153.532C234.459 153.661 234.913 153.888 235.307 154.199C235.641 154.485 235.9 154.849 236.06 155.259C236.22 155.7 236.299 156.165 236.293 156.633C236.298 157.016 236.239 157.396 236.12 157.76C236.005 158.11 235.829 158.438 235.6 158.727C235.357 159.024 235.066 159.278 234.74 159.481C234.373 159.699 233.975 159.859 233.559 159.954C233.923 160.082 234.241 160.314 234.473 160.621C234.772 161.003 235.029 161.417 235.24 161.854L237.24 166.042ZM234.46 156.786C234.479 156.496 234.428 156.206 234.312 155.939C234.196 155.672 234.018 155.437 233.793 155.253C233.269 154.882 232.633 154.7 231.992 154.739H230.352V158.96H231.759C232.133 158.965 232.505 158.918 232.866 158.82C233.171 158.738 233.457 158.595 233.706 158.4C233.933 158.222 234.116 157.994 234.24 157.733C234.382 157.443 234.457 157.124 234.46 156.8V156.786Z" fill="white"/>
<path d="M249.324 166.042H247.137L242.362 159.781V166.042H240.622V153.292H242.362V159.221L247.03 153.292H249.09L244.062 159.374L249.324 166.042Z" fill="white"/>
<path d="M272.536 154.773H267.115V158.914H272.256V160.374H267.115V166.042H265.334V153.292H272.536V154.773Z" fill="white"/>
<path d="M285.72 166.043H283.759L281.852 161.962C281.734 161.686 281.586 161.425 281.412 161.181C281.278 160.995 281.116 160.831 280.932 160.695C280.759 160.576 280.567 160.488 280.365 160.434C280.146 160.386 279.922 160.362 279.698 160.361H278.878V166.043H277.144V153.293H280.558C281.204 153.279 281.849 153.36 282.472 153.533C282.958 153.661 283.412 153.888 283.806 154.2C284.143 154.483 284.403 154.848 284.559 155.26C284.724 155.699 284.806 156.165 284.799 156.633C284.8 157.016 284.742 157.396 284.626 157.76C284.508 158.111 284.33 158.438 284.099 158.727C283.859 159.027 283.568 159.282 283.239 159.481C282.874 159.698 282.479 159.858 282.065 159.954C282.428 160.084 282.745 160.316 282.979 160.621C283.276 161.005 283.533 161.419 283.746 161.855L285.72 166.043ZM282.939 156.787C282.958 156.497 282.907 156.206 282.791 155.939C282.675 155.672 282.497 155.437 282.272 155.253C281.746 154.881 281.108 154.7 280.465 154.74H278.824V158.961H280.232C280.607 158.965 280.982 158.918 281.345 158.821C281.65 158.738 281.936 158.595 282.185 158.401C282.411 158.221 282.593 157.993 282.719 157.734C282.861 157.443 282.937 157.124 282.939 156.8V156.787Z" fill="white"/>
<path d="M297.516 161.615C297.523 162.262 297.424 162.906 297.222 163.522C297.041 164.064 296.742 164.559 296.346 164.972C295.951 165.384 295.469 165.704 294.935 165.909C294.32 166.135 293.669 166.246 293.015 166.236C292.334 166.25 291.657 166.143 291.014 165.922C290.507 165.734 290.05 165.43 289.68 165.035C289.324 164.643 289.064 164.172 288.92 163.662C288.753 163.081 288.673 162.479 288.68 161.875V153.292H290.414V161.741C290.404 162.19 290.454 162.639 290.561 163.075C290.638 163.424 290.796 163.751 291.021 164.029C291.245 164.288 291.532 164.485 291.854 164.602C292.259 164.743 292.686 164.809 293.115 164.795C293.494 164.826 293.876 164.77 294.231 164.632C294.585 164.493 294.904 164.275 295.162 163.995C295.638 163.344 295.874 162.547 295.829 161.741V153.292H297.569L297.516 161.615ZM290.934 149.852C291.074 149.851 291.212 149.878 291.341 149.932C291.46 149.988 291.571 150.062 291.668 150.152C291.766 150.245 291.843 150.359 291.894 150.485C291.95 150.616 291.979 150.756 291.981 150.899C291.979 151.039 291.95 151.177 291.894 151.305C291.843 151.429 291.766 151.541 291.668 151.632C291.571 151.722 291.46 151.796 291.341 151.852C291.212 151.905 291.074 151.933 290.934 151.932C290.797 151.935 290.66 151.91 290.533 151.859C290.406 151.807 290.29 151.73 290.194 151.632C290.096 151.537 290.02 151.423 289.969 151.296C289.919 151.17 289.895 151.035 289.9 150.899C289.9 150.757 289.927 150.616 289.98 150.485C290.032 150.361 290.106 150.248 290.201 150.152C290.297 150.062 290.408 149.988 290.527 149.932C290.656 149.878 290.794 149.85 290.934 149.852V149.852ZM295.208 149.852C295.35 149.851 295.491 149.878 295.622 149.932C295.744 149.986 295.857 150.06 295.955 150.152C296.045 150.251 296.119 150.364 296.175 150.485C296.229 150.616 296.256 150.757 296.255 150.899C296.256 151.038 296.229 151.176 296.175 151.305C296.119 151.425 296.045 151.535 295.955 151.632C295.857 151.723 295.744 151.798 295.622 151.852C295.491 151.905 295.35 151.933 295.208 151.932C295.072 151.935 294.937 151.909 294.811 151.858C294.685 151.806 294.57 151.729 294.475 151.632C294.329 151.484 294.23 151.296 294.192 151.091C294.154 150.887 294.178 150.676 294.262 150.485C294.313 150.361 294.387 150.248 294.482 150.152C294.577 150.06 294.688 149.986 294.808 149.932C294.935 149.878 295.071 149.851 295.208 149.852V149.852Z" fill="white"/>
<path d="M309.619 166.042H307.879V160.181H302.544V166.042H300.804V153.292H302.544V158.707H307.879V153.306H309.619V166.042Z" fill="white"/>
<path d="M321.036 166.042H313.774V153.292H321.036V154.753H315.514V158.707H320.849V160.168H315.514V164.569H321.036V166.042Z" fill="white"/>
<path d="M345.975 162.235C345.987 162.798 345.863 163.356 345.615 163.862C345.377 164.337 345.03 164.749 344.601 165.062C344.122 165.408 343.581 165.659 343.008 165.802C342.331 165.98 341.633 166.066 340.934 166.056H337.6V153.292H341.254C344.099 153.292 345.522 154.326 345.522 156.393C345.539 157.023 345.367 157.643 345.028 158.174C344.633 158.713 344.066 159.103 343.421 159.281C343.762 159.341 344.092 159.451 344.401 159.607C344.708 159.761 344.985 159.966 345.222 160.214C345.461 160.469 345.649 160.768 345.775 161.094C345.916 161.458 345.984 161.845 345.975 162.235V162.235ZM343.708 156.633C343.708 156.382 343.67 156.133 343.594 155.893C343.514 155.661 343.371 155.456 343.181 155.3C342.947 155.113 342.677 154.976 342.387 154.9C341.976 154.794 341.552 154.744 341.127 154.753H339.333V158.754H341.074C341.436 158.757 341.797 158.712 342.147 158.621C342.449 158.549 342.732 158.418 342.981 158.234C343.211 158.057 343.395 157.828 343.521 157.567C343.652 157.273 343.715 156.954 343.708 156.633V156.633ZM344.128 162.295C344.134 161.989 344.063 161.686 343.921 161.415C343.785 161.144 343.58 160.914 343.328 160.748C343.036 160.554 342.714 160.412 342.374 160.328C341.959 160.227 341.534 160.178 341.107 160.181H339.333V164.575H341.167C341.956 164.648 342.748 164.46 343.421 164.042C343.67 163.828 343.864 163.558 343.987 163.254C344.11 162.95 344.158 162.621 344.128 162.295V162.295Z" fill="white"/>
<path d="M352.79 154.753H349.85V153.292H357.492V154.753H354.551V164.575H357.492V166.042H349.85V164.575H352.79V154.753Z" fill="white"/>
<path d="M369.908 166.042H362.573V153.292H364.34V164.575H369.915L369.908 166.042Z" fill="white"/>
<path d="M382.691 159.534C382.693 160.122 382.646 160.708 382.551 161.288C382.463 161.826 382.31 162.352 382.098 162.855C381.895 163.338 381.621 163.787 381.284 164.189C380.949 164.584 380.547 164.918 380.097 165.176C379.573 165.479 379.006 165.704 378.417 165.842C377.703 166.003 376.974 166.079 376.243 166.069H373.509V153.292H376.763C378.759 153.292 380.246 153.804 381.224 154.826C382.202 155.849 382.691 157.418 382.691 159.534ZM380.864 159.661C380.881 158.886 380.796 158.112 380.611 157.36C380.475 156.803 380.212 156.285 379.844 155.846C379.481 155.456 379.02 155.168 378.51 155.013C377.914 154.828 377.293 154.741 376.67 154.753H375.176V164.555H376.51C379.417 164.555 380.868 162.924 380.864 159.661Z" fill="white"/>
<path d="M394.474 161.615C394.483 162.263 394.382 162.908 394.174 163.522C393.99 164.063 393.693 164.559 393.301 164.975C392.903 165.386 392.421 165.704 391.887 165.909C391.272 166.135 390.621 166.246 389.967 166.236C389.287 166.25 388.609 166.143 387.966 165.922C387.457 165.745 386.999 165.446 386.631 165.052C386.263 164.659 385.996 164.181 385.852 163.662C385.686 163.081 385.605 162.479 385.612 161.875V153.292H387.353V161.741C387.344 162.19 387.392 162.638 387.493 163.075C387.57 163.426 387.73 163.753 387.959 164.029C388.184 164.288 388.471 164.485 388.793 164.602C389.195 164.743 389.62 164.809 390.047 164.795C390.426 164.827 390.808 164.771 391.163 164.632C391.518 164.494 391.836 164.276 392.094 163.995C392.573 163.345 392.809 162.547 392.761 161.741V153.292H394.501L394.474 161.615Z" fill="white"/>
<path d="M406.491 166.042H404.224L400.503 158.08L399.436 155.54V166.042H397.815V153.292H400.049L403.597 160.834L404.877 163.755V153.292H406.498L406.491 166.042Z" fill="white"/>
<path d="M418.594 155.48C418.127 155.231 417.635 155.032 417.127 154.887C416.592 154.743 416.04 154.674 415.486 154.68C414.865 154.668 414.248 154.791 413.679 155.04C413.161 155.272 412.705 155.621 412.345 156.06C411.967 156.53 411.684 157.069 411.512 157.647C411.316 158.314 411.219 159.006 411.225 159.701C411.218 160.408 411.296 161.113 411.458 161.802C411.593 162.369 411.843 162.902 412.192 163.369C412.526 163.8 412.964 164.14 413.466 164.356C414.056 164.602 414.693 164.72 415.333 164.702H415.733L416.16 164.649L416.573 164.562C416.695 164.534 416.815 164.498 416.933 164.456V160.375H414.326V158.934H418.654V165.463C418.38 165.583 418.1 165.696 417.807 165.796C417.509 165.892 417.206 165.972 416.9 166.036C416.593 166.101 416.284 166.15 415.973 166.183C415.678 166.217 415.382 166.234 415.086 166.236C414.28 166.247 413.479 166.107 412.725 165.823C412.044 165.561 411.433 165.145 410.938 164.609C410.424 164.029 410.037 163.348 409.805 162.609C409.529 161.706 409.396 160.765 409.411 159.821C409.397 158.865 409.545 157.913 409.851 157.007C410.113 156.225 410.533 155.506 411.085 154.893C411.617 154.313 412.27 153.857 412.999 153.56C413.784 153.251 414.622 153.097 415.466 153.106C416.014 153.105 416.561 153.156 417.1 153.259C417.616 153.358 418.118 153.521 418.594 153.746V155.48Z" fill="white"/>
<path d="M138.816 203.725C138.582 203.725 138.352 203.663 138.15 203.546C137.947 203.429 137.779 203.261 137.662 203.058L120.931 174.084C120.646 173.593 120.236 173.184 119.744 172.9C119.251 172.615 118.692 172.465 118.124 172.464H84.6885C84.1186 172.464 83.5587 172.614 83.0649 172.898C82.571 173.182 82.1605 173.592 81.8744 174.084L67.6241 198.757C67.5365 198.909 67.4199 199.043 67.2809 199.149C67.1418 199.256 66.9831 199.335 66.8137 199.38C66.6444 199.426 66.4677 199.437 66.2938 199.415C66.1199 199.392 65.9523 199.335 65.8003 199.248C65.6484 199.16 65.5152 199.043 65.4083 198.904C65.3015 198.765 65.223 198.606 65.1775 198.437C65.132 198.268 65.1203 198.091 65.1431 197.917C65.1658 197.743 65.2226 197.576 65.3102 197.424L79.5672 172.751C80.0882 171.854 80.8352 171.109 81.7338 170.591C82.6324 170.072 83.6511 169.799 84.6885 169.797H118.144C119.18 169.798 120.198 170.072 121.096 170.59C121.993 171.109 122.739 171.854 123.258 172.751L139.989 201.725C140.166 202.031 140.214 202.394 140.122 202.736C140.031 203.077 139.808 203.368 139.503 203.545C139.294 203.666 139.057 203.728 138.816 203.725Z" fill="white"/>
<path d="M59.7554 71.7514H26.3002C25.2628 71.7496 24.244 71.4758 23.3455 70.9575C22.4469 70.4392 21.6998 69.6944 21.1788 68.7974L4.44789 39.8233C4.27103 39.5164 4.22331 39.1519 4.31523 38.8099C4.40715 38.4678 4.63117 38.1763 4.93801 37.9995C5.24486 37.8226 5.60939 37.7749 5.95142 37.8668C6.29345 37.9587 6.58496 38.1827 6.76181 38.4896L23.4861 67.4637C23.7722 67.9565 24.1827 68.3656 24.6766 68.65C25.1704 68.9343 25.7303 69.084 26.3002 69.0841H59.7554C60.3241 69.0829 60.8826 68.9326 61.3752 68.6483C61.8678 68.364 62.2772 67.9555 62.5628 67.4637L79.2937 38.4896C79.5755 37.9948 79.7237 37.4352 79.7237 36.8658C79.7237 36.2965 79.5755 35.7369 79.2937 35.2421L62.5628 6.27468C62.3859 5.96783 62.3382 5.6033 62.4301 5.26127C62.522 4.91924 62.746 4.62774 63.0529 4.45088C63.3597 4.27402 63.7243 4.2263 64.0663 4.31822C64.4083 4.41014 64.6998 4.63416 64.8767 4.94101L81.601 33.9084C82.1188 34.808 82.3914 35.8278 82.3914 36.8658C82.3914 37.9038 82.1188 38.9237 81.601 39.8233L64.8767 68.7974C64.3552 69.6939 63.608 70.4384 62.7096 70.9566C61.8111 71.4749 60.7926 71.7489 59.7554 71.7514Z" fill="white"/>
<path d="M63.8698 11.2162C66.9671 11.2162 69.4779 8.70537 69.4779 5.6081C69.4779 2.51083 66.9671 0 63.8698 0C60.7725 0 58.2617 2.51083 58.2617 5.6081C58.2617 8.70537 60.7725 11.2162 63.8698 11.2162Z" fill="white"/>
<path d="M5.60798 44.8178C8.70525 44.8178 11.2161 42.3069 11.2161 39.2097C11.2161 36.1124 8.70525 33.6016 5.60798 33.6016C2.51071 33.6016 -0.00012207 36.1124 -0.00012207 39.2097C-0.00012207 42.3069 2.51071 44.8178 5.60798 44.8178Z" fill="white"/>
<path d="M26.84 209.347C29.9372 209.347 32.4481 206.836 32.4481 203.739C32.4481 200.642 29.9372 198.131 26.84 198.131C23.7427 198.131 21.2319 200.642 21.2319 203.739C21.2319 206.836 23.7427 209.347 26.84 209.347Z" fill="white"/>
<path d="M139.429 209.347C142.526 209.347 145.037 206.836 145.037 203.739C145.037 200.642 142.526 198.131 139.429 198.131C136.332 198.131 133.821 200.642 133.821 203.739C133.821 206.836 136.332 209.347 139.429 209.347Z" fill="white"/>
<path d="M60.5423 205.072H27.0871C26.7334 205.072 26.3942 204.932 26.144 204.681C25.8939 204.431 25.7534 204.092 25.7534 203.738C25.7534 203.385 25.8939 203.045 26.144 202.795C26.3942 202.545 26.7334 202.405 27.0871 202.405H60.5423C61.1112 202.404 61.67 202.254 62.1626 201.97C62.6553 201.685 63.0647 201.277 63.3497 200.784L79.0271 173.631C79.1146 173.479 79.2313 173.346 79.3703 173.239C79.5094 173.132 79.6681 173.053 79.8374 173.008C80.0068 172.962 80.1835 172.951 80.3573 172.973C80.5312 172.996 80.6989 173.053 80.8509 173.141C81.0028 173.228 81.136 173.345 81.2428 173.484C81.3497 173.623 81.4281 173.782 81.4736 173.951C81.5192 174.12 81.5309 174.297 81.5081 174.471C81.4853 174.645 81.4286 174.812 81.341 174.964L65.6636 202.118C65.1426 203.015 64.3956 203.76 63.497 204.278C62.5984 204.796 61.5797 205.07 60.5423 205.072V205.072Z" fill="white"/>
</g>
<defs>
<linearGradient id="paint0_linear_713_2119" x1="33.9823" y1="136.702" x2="33.9823" y2="103.14" gradientUnits="userSpaceOnUse">
<stop stop-color="#D17A43" stop-opacity="0.3"/>
<stop offset="1" stop-color="#D17A43"/>
</linearGradient>
<linearGradient id="paint1_linear_713_2119" x1="92.0698" y1="102.966" x2="92.0698" y2="69.4044" gradientUnits="userSpaceOnUse">
<stop stop-color="#298F88" stop-opacity="0.3"/>
<stop offset="1" stop-color="#227973"/>
</linearGradient>
<linearGradient id="paint2_linear_713_2119" x1="92.3704" y1="170.183" x2="92.3704" y2="136.621" gradientUnits="userSpaceOnUse">
<stop stop-color="#F1C151" stop-opacity="0.3"/>
<stop offset="1" stop-color="#F1C151"/>
</linearGradient>
<clipPath id="clip0_713_2119">
<rect width="421.468" height="209.347" fill="white"/>
</clipPath>
</defs>
</svg>
