<svg xmlns="http://www.w3.org/2000/svg" xmlns:xlink="http://www.w3.org/1999/xlink" viewBox="0 0 1280 712.42"><defs><style>.cls-1{isolation:isolate;}.cls-2{fill:#c7682d;}.cls-3,.cls-5,.cls-7{mix-blend-mode:multiply;}.cls-3{fill:url(#Unbenannter_Verlauf_37);}.cls-4{fill:#1f938b;}.cls-5{fill:url(#Unbenannter_Verlauf_37-2);}.cls-6{fill:#f3cb70;}.cls-7{fill:url(#Unbenannter_Verlauf_37-3);}.cls-8{fill:#255a73;}</style><linearGradient id="Unbenannter_Verlauf_37" x1="347.79" y1="390.99" x2="347.79" y2="340.66" gradientUnits="userSpaceOnUse"><stop offset="0" stop-opacity="0.3"/><stop offset="1" stop-opacity="0.6"/></linearGradient><linearGradient id="Unbenannter_Verlauf_37-2" x1="434.9" y1="340.41" x2="434.9" y2="290.08" xlink:href="#Unbenannter_Verlauf_37"/><linearGradient id="Unbenannter_Verlauf_37-3" x1="435.35" y1="441.21" x2="435.35" y2="390.88" xlink:href="#Unbenannter_Verlauf_37"/></defs><g class="cls-1"><g id="Ebene_1" data-name="Ebene 1"><path class="cls-2" d="M336.79,293.86a4.87,4.87,0,0,0-4.21,2.43l-25.09,43.45a4.87,4.87,0,0,0,0,4.87l25.09,43.45a4.87,4.87,0,0,0,4.21,2.43H387a4.9,4.9,0,0,0,4.22-2.43l25.08-43.45a4.87,4.87,0,0,0,0-4.87l-25.08-43.45a4.9,4.9,0,0,0-4.22-2.43Z"/><path class="cls-3" d="M357.77,340.66H309.36a2.78,2.78,0,0,0-2.51,3.83l25.26,43.79a5.39,5.39,0,0,0,4.61,2.71H386.8a2.1,2.1,0,0,0,1.83-3.22L362.77,343.6A5.55,5.55,0,0,0,357.77,340.66Z"/><path class="cls-4" d="M423.91,243.28a4.88,4.88,0,0,0-4.22,2.43l-25.08,43.45a4.85,4.85,0,0,0,0,4.86l25.08,43.45a4.88,4.88,0,0,0,4.22,2.43h50.17a4.88,4.88,0,0,0,4.21-2.43L503.37,294a4.85,4.85,0,0,0,0-4.86l-25.08-43.45a4.88,4.88,0,0,0-4.21-2.43Z"/><path class="cls-5" d="M444.89,290.08H396.47a2.77,2.77,0,0,0-2.5,3.82l25.26,43.79a5.37,5.37,0,0,0,4.6,2.72h50.08a2.11,2.11,0,0,0,1.84-3.22L449.89,293A5.59,5.59,0,0,0,444.89,290.08Z"/><path class="cls-6" d="M424,343a5,5,0,0,0-4.28,2.46l-25.46,44.1a5,5,0,0,0,0,4.94l25.46,44.1A5,5,0,0,0,424,441h50.92a5,5,0,0,0,4.27-2.47l25.46-44.1a5,5,0,0,0,0-4.94l-25.46-44.1a5,5,0,0,0-4.27-2.46Z"/><path class="cls-7" d="M445.34,390.88H396.92a2.77,2.77,0,0,0-2.5,3.82l25.26,43.79a5.37,5.37,0,0,0,4.6,2.72h50.09A2.11,2.11,0,0,0,476.2,438l-25.86-44.17A5.57,5.57,0,0,0,445.34,390.88Z"/><path class="cls-8" d="M387,394.47H336.79a8.9,8.9,0,0,1-7.68-4.43L304,346.59a8.89,8.89,0,0,1,0-8.87l25.08-43.45a8.9,8.9,0,0,1,7.68-4.43H387a8.9,8.9,0,0,1,7.68,4.43l25.08,43.45a8.89,8.89,0,0,1,0,8.87L394.64,390A8.9,8.9,0,0,1,387,394.47ZM336.79,293.84a4.87,4.87,0,0,0-4.21,2.43l-25.09,43.45a4.87,4.87,0,0,0,0,4.87L332.58,388a4.87,4.87,0,0,0,4.21,2.43H387a4.87,4.87,0,0,0,4.21-2.43l25.09-43.45a4.87,4.87,0,0,0,0-4.87l-25.09-43.45a4.87,4.87,0,0,0-4.21-2.43Z"/><path class="cls-8" d="M474,444.81H423.8a8.89,8.89,0,0,1-7.68-4.44L391,396.92a8.87,8.87,0,0,1,0-8.86l25.09-43.45a8.88,8.88,0,0,1,7.68-4.43H474a8.86,8.86,0,0,1,7.67,4.43l25.09,43.45a8.87,8.87,0,0,1,0,8.86l-25.09,43.45A8.87,8.87,0,0,1,474,444.81ZM423.8,344.18a4.88,4.88,0,0,0-4.22,2.43L394.5,390.06a4.85,4.85,0,0,0,0,4.86l25.08,43.45a4.89,4.89,0,0,0,4.22,2.44H474a4.89,4.89,0,0,0,4.21-2.44l25.09-43.45a4.9,4.9,0,0,0,0-4.86l-25.09-43.45a4.88,4.88,0,0,0-4.21-2.43Z"/><path class="cls-8" d="M392.75,397.9a2,2,0,0,1-1.74-1,4.87,4.87,0,0,0-4.21-2.43,2,2,0,1,1,0-4,8.9,8.9,0,0,1,7.68,4.43,2,2,0,0,1-.73,2.73A1.93,1.93,0,0,1,392.75,397.9Z"/><path class="cls-8" d="M474,344.13H423.8a8.88,8.88,0,0,1-7.68-4.43L391,296.25a8.87,8.87,0,0,1,0-8.86l25.09-43.45a8.88,8.88,0,0,1,7.68-4.43H474a8.86,8.86,0,0,1,7.67,4.43l25.09,43.45a8.87,8.87,0,0,1,0,8.86L481.64,339.7A8.86,8.86,0,0,1,474,344.13ZM423.8,243.51a4.88,4.88,0,0,0-4.22,2.43L394.5,289.39a4.85,4.85,0,0,0,0,4.86l25.08,43.45a4.88,4.88,0,0,0,4.22,2.43H474a4.88,4.88,0,0,0,4.21-2.43l25.09-43.45a4.9,4.9,0,0,0,0-4.86l-25.09-43.45a4.88,4.88,0,0,0-4.21-2.43Z"/><path class="cls-8" d="M386.8,293.84a2,2,0,0,1,0-4,4.9,4.9,0,0,0,4.22-2.43,2,2,0,1,1,3.46,2A8.9,8.9,0,0,1,386.8,293.84Z"/><path class="cls-8" d="M479.88,347.61a2,2,0,0,1-1.74-1,8.89,8.89,0,0,1,0-8.87,2,2,0,0,1,3.47,2,4.87,4.87,0,0,0,0,4.87,2,2,0,0,1-.74,2.73A2,2,0,0,1,479.88,347.61Z"/><path class="cls-8" d="M510.44,394.47h-.14a8.89,8.89,0,0,1-7.34-5,2,2,0,1,1,3.6-1.74,4.87,4.87,0,0,0,4,2.73,2,2,0,0,1-.14,4Z"/><path class="cls-8" d="M504.75,398.32a1.94,1.94,0,0,1-.87-.2,2,2,0,0,1-.92-2.67,8.86,8.86,0,0,1,7.34-5,2,2,0,1,1,.28,4,4.89,4.89,0,0,0-4,2.73A2,2,0,0,1,504.75,398.32Z"/><path class="cls-8" d="M721.31,394.47H505.92a2,2,0,0,1,0-4H721.31a2,2,0,0,1,0,4Z"/><path class="cls-8" d="M918.16,394.47H769.65a2,2,0,1,1,0-4H918.16a2,2,0,1,1,0,4Z"/><path class="cls-8" d="M608.94,369.05a4,4,0,0,1-4-4V320.68a33.54,33.54,0,0,0-67.08,0v44.37a4,4,0,1,1-8,0V320.68a41.54,41.54,0,0,1,83.08,0v44.37A4,4,0,0,1,608.94,369.05Z"/><path class="cls-8" d="M851.74,369.69A45.28,45.28,0,1,1,897,324.42,45.32,45.32,0,0,1,851.74,369.69Zm0-82.55A37.28,37.28,0,1,0,889,324.42,37.32,37.32,0,0,0,851.74,287.14Z"/><path class="cls-8" d="M737.77,396.26a4,4,0,0,1,0-8,19.62,19.62,0,0,0,19.6-19.6V271.72A27.65,27.65,0,0,1,785,244.11a4,4,0,0,1,0,8,19.64,19.64,0,0,0-19.61,19.61v96.94A27.63,27.63,0,0,1,737.77,396.26Z"/><path class="cls-8" d="M723,328.42H632.4v-4a45.28,45.28,0,1,1,90.55,0Zm-82.33-8h74.12a37.27,37.27,0,0,0-74.12,0Z"/><path class="cls-8" d="M677.68,369.69a45.33,45.33,0,0,1-45.28-45.27,4,4,0,1,1,8,0,37.27,37.27,0,0,0,62.42,27.51,4,4,0,1,1,5.39,5.91A45.15,45.15,0,0,1,677.68,369.69Z"/><path class="cls-8" d="M782.55,315H741.9a4,4,0,1,1,0-8h40.65a4,4,0,0,1,0,8Z"/><path class="cls-8" d="M810.47,328.42a4,4,0,0,1-4-4V249a4,4,0,0,1,8,0v75.41A4,4,0,0,1,810.47,328.42Z"/><path class="cls-8" d="M920.47,368.13a4,4,0,0,1-4-4v-81a4,4,0,0,1,8,0v81A4,4,0,0,1,920.47,368.13Z"/><circle class="cls-8" cx="920.47" cy="255.19" r="8.41"/><circle class="cls-8" cx="920.47" cy="392.09" r="8.41"/><path class="cls-8" d="M542.93,435h-3.4L534,423.08l-1.61-3.84V435h-2.43V415.87h3.35l5.32,11.31,1.92,4.38V415.87h2.43Z"/><path class="cls-8" d="M560.17,435H549.28V415.87h10.89v2.2h-8.28V424h8v2.2h-8v6.59h8.28Z"/><path class="cls-8" d="M579.75,418.1h-5.67V435h-2.64V418.1h-5.67v-2.23h14Z"/><path class="cls-8" d="M597.35,417.92l-9.77,14.67h10V435H584.31v-1.95l9.83-14.82h-9.56v-2.38h12.77Z"/><path class="cls-8" d="M616.7,415.87,615.41,435H612l-2.37-6.81L609,426l-.69,2.36L606.11,435h-3.27l-1.32-19.15H604l.75,13,.22,3.58.92-3,2.32-7.11H610l2.66,7.62.9,2.52.06-2.64.76-14Z"/><path class="cls-8" d="M632.86,435H622V415.87h10.88v2.2h-8.27V424h7.95v2.2h-7.95v6.59h8.27Z"/><path class="cls-8" d="M652.6,435h-2.94l-2.86-6.13a6.47,6.47,0,0,0-.66-1.16,2.94,2.94,0,0,0-.72-.73,2.63,2.63,0,0,0-.85-.39,4.1,4.1,0,0,0-1-.12h-1.23V435H639.7V415.87h5.13a9.71,9.71,0,0,1,2.87.37,5.32,5.32,0,0,1,2,1,4,4,0,0,1,1.13,1.59,5.9,5.9,0,0,1,.35,2.06,5.2,5.2,0,0,1-.26,1.69,4.51,4.51,0,0,1-.78,1.45,5,5,0,0,1-1.29,1.13,5.61,5.61,0,0,1-1.77.71,3,3,0,0,1,1.37,1,10.14,10.14,0,0,1,1.15,1.85Zm-4.17-13.89a2.77,2.77,0,0,0-1-2.3,4.23,4.23,0,0,0-2.7-.76h-2.46v6.33h2.11a6.08,6.08,0,0,0,1.66-.21,3.92,3.92,0,0,0,1.26-.63,2.79,2.79,0,0,0,.8-1A3.27,3.27,0,0,0,648.43,421.13Z"/><path class="cls-8" d="M670.72,435h-3.28l-7.16-9.39V435h-2.61V415.87h2.61v8.89l7-8.89h3.09l-7.56,9.1Z"/><path class="cls-8" d="M705.53,418.1H697.4v6.21h7.71v2.18H697.4V435h-2.67V415.87h10.8Z"/><path class="cls-8" d="M725.3,435h-2.94l-2.86-6.13a6.47,6.47,0,0,0-.66-1.16,3.12,3.12,0,0,0-.72-.73,2.73,2.73,0,0,0-.85-.39,4.18,4.18,0,0,0-1-.12H715V435h-2.6V415.87h5.12a9.66,9.66,0,0,1,2.87.37,5.32,5.32,0,0,1,2,1,3.88,3.88,0,0,1,1.13,1.59,5.68,5.68,0,0,1,.36,2.06,5.49,5.49,0,0,1-.26,1.69,4.54,4.54,0,0,1-.79,1.45,4.73,4.73,0,0,1-1.29,1.13,5.65,5.65,0,0,1-1.76.71,3,3,0,0,1,1.37,1,10.72,10.72,0,0,1,1.15,1.85Zm-4.17-13.89a2.77,2.77,0,0,0-1-2.3,4.24,4.24,0,0,0-2.71-.76H715v6.33h2.11a6.15,6.15,0,0,0,1.67-.21,3.92,3.92,0,0,0,1.26-.63,2.9,2.9,0,0,0,.8-1A3.27,3.27,0,0,0,721.13,421.13Z"/><path class="cls-8" d="M743,428.35a8.91,8.91,0,0,1-.44,2.87,5.93,5.93,0,0,1-1.32,2.18,5.84,5.84,0,0,1-2.11,1.39,7.83,7.83,0,0,1-2.88.49,8.46,8.46,0,0,1-3-.47,4.93,4.93,0,0,1-3.17-3.38,9.34,9.34,0,0,1-.36-2.68V415.87h2.6v12.67a7.83,7.83,0,0,0,.22,2,3.43,3.43,0,0,0,.69,1.42,3.06,3.06,0,0,0,1.25.87,5.48,5.48,0,0,0,1.89.29,3.76,3.76,0,0,0,3.07-1.2,5.25,5.25,0,0,0,1-3.39V415.87H743Zm-9.87-17.63a1.58,1.58,0,0,1,.61.12,1.51,1.51,0,0,1,.49.33,1.35,1.35,0,0,1,.34.5,1.59,1.59,0,0,1,.13.61,1.55,1.55,0,0,1-.13.61,1.31,1.31,0,0,1-.34.49,1.51,1.51,0,0,1-.49.33,1.59,1.59,0,0,1-.61.13,1.52,1.52,0,0,1-1.55-1.56,1.58,1.58,0,0,1,.12-.61,1.45,1.45,0,0,1,.33-.5,1.51,1.51,0,0,1,.49-.33A1.54,1.54,0,0,1,733.12,410.72Zm6.41,0a1.63,1.63,0,0,1,.62.12,1.45,1.45,0,0,1,.5.33,1.81,1.81,0,0,1,.33.5,1.58,1.58,0,0,1,.12.61,1.54,1.54,0,0,1-.12.61,1.75,1.75,0,0,1-.33.49,1.45,1.45,0,0,1-.5.33,1.64,1.64,0,0,1-.62.13,1.54,1.54,0,0,1-1.55-1.56,1.42,1.42,0,0,1,.13-.61,1.45,1.45,0,0,1,.33-.5,1.41,1.41,0,0,1,.49-.33A1.53,1.53,0,0,1,739.53,410.72Z"/><path class="cls-8" d="M761.14,435h-2.61v-8.79h-8V435h-2.61V415.87h2.61V424h8v-8.1h2.61Z"/><path class="cls-8" d="M778.26,435H767.37V415.87h10.89v2.2H770V424h7.95v2.2H770v6.59h8.28Z"/><path class="cls-8" d="M815.66,429.29a5.31,5.31,0,0,1-.54,2.44,4.84,4.84,0,0,1-1.52,1.79,7.15,7.15,0,0,1-2.39,1.12,12,12,0,0,1-3.11.38h-5V415.87h5.48q6.4,0,6.4,4.66a4.75,4.75,0,0,1-.74,2.67,4.38,4.38,0,0,1-2.41,1.65,5.67,5.67,0,0,1,1.47.5,4.28,4.28,0,0,1,1.23.91,4.06,4.06,0,0,1,.83,1.32A4.42,4.42,0,0,1,815.66,429.29Zm-3.4-8.41a3.57,3.57,0,0,0-.17-1.1,2.06,2.06,0,0,0-.62-.9,3.23,3.23,0,0,0-1.19-.59,6.62,6.62,0,0,0-1.89-.22H805.7v6h2.61a6.18,6.18,0,0,0,1.61-.19,3.45,3.45,0,0,0,1.25-.59,2.75,2.75,0,0,0,.81-1A3.27,3.27,0,0,0,812.26,420.88Zm.63,8.5a2.74,2.74,0,0,0-.31-1.32,2.71,2.71,0,0,0-.89-1,4.36,4.36,0,0,0-1.43-.62,7.35,7.35,0,0,0-1.9-.22H805.7v6.59h2.75a5.53,5.53,0,0,0,3.34-.83A3.08,3.08,0,0,0,812.89,429.38Z"/><path class="cls-8" d="M825.88,418.07h-4.41v-2.2h11.46v2.2h-4.41v14.72h4.41V435H821.47v-2.23h4.41Z"/><path class="cls-8" d="M851.55,435h-11V415.87h2.65v16.92h8.36Z"/><path class="cls-8" d="M870.72,425.23a16,16,0,0,1-.21,2.64,10.09,10.09,0,0,1-.68,2.34,7.65,7.65,0,0,1-1.22,2,6.69,6.69,0,0,1-1.83,1.52,9.25,9.25,0,0,1-2.52,1A13.92,13.92,0,0,1,861,435h-4.1V415.87h4.93q4.49,0,6.69,2.31T870.72,425.23Zm-2.74.19a13.13,13.13,0,0,0-.38-3.44,5.52,5.52,0,0,0-1.15-2.27,4.44,4.44,0,0,0-2-1.25,8.75,8.75,0,0,0-2.76-.39H859.5v14.69h2Q868,432.76,868,425.42Z"/><path class="cls-8" d="M888.39,428.35a8.64,8.64,0,0,1-.45,2.87,6.05,6.05,0,0,1-1.31,2.18,5.88,5.88,0,0,1-2.12,1.39,7.76,7.76,0,0,1-2.88.49,8.46,8.46,0,0,1-3-.47,5.12,5.12,0,0,1-2-1.32,5.25,5.25,0,0,1-1.14-2.06,9.34,9.34,0,0,1-.36-2.68V415.87h2.61v12.67a8.35,8.35,0,0,0,.21,2,3.33,3.33,0,0,0,.7,1.42,3,3,0,0,0,1.25.87,5.42,5.42,0,0,0,1.88.29,3.75,3.75,0,0,0,3.07-1.2,5.19,5.19,0,0,0,1-3.39V415.87h2.61Z"/><path class="cls-8" d="M906.41,435H903l-5.58-11.94-1.61-3.84V435h-2.43V415.87h3.35l5.32,11.31,1.92,4.38V415.87h2.43Z"/><path class="cls-8" d="M924.56,419.15a11.11,11.11,0,0,0-2.2-.88,9.1,9.1,0,0,0-2.46-.32,6.46,6.46,0,0,0-2.71.54,5.72,5.72,0,0,0-2,1.53,7.05,7.05,0,0,0-1.25,2.39,10.54,10.54,0,0,0-.43,3.07,13.14,13.14,0,0,0,.35,3.15A6.44,6.44,0,0,0,915,431a4.91,4.91,0,0,0,1.91,1.48,7,7,0,0,0,2.8.51l.6,0c.21,0,.43,0,.64-.08a6.18,6.18,0,0,0,.62-.12l.54-.16v-6.1h-3.91v-2.15h6.49v9.78a10.81,10.81,0,0,1-1.27.5A13,13,0,0,1,922,435a13.81,13.81,0,0,1-1.39.22,12.23,12.23,0,0,1-1.33.07,9.67,9.67,0,0,1-3.54-.61,7,7,0,0,1-2.68-1.83,8.16,8.16,0,0,1-1.7-3,13.49,13.49,0,0,1-.59-4.17,12.69,12.69,0,0,1,.66-4.23,9,9,0,0,1,1.85-3.16,7.78,7.78,0,0,1,2.87-2,9.83,9.83,0,0,1,3.7-.68,12.06,12.06,0,0,1,2.45.23,9.76,9.76,0,0,1,2.24.72Z"/><path class="cls-8" d="M505,491.51a2,2,0,0,1-1.73-1l-25.09-43.45a4.89,4.89,0,0,0-4.21-2.44H423.8a4.89,4.89,0,0,0-4.22,2.44l-21.37,37a2,2,0,0,1-3.47-2l21.38-37a8.89,8.89,0,0,1,7.68-4.44H474a8.87,8.87,0,0,1,7.67,4.44l25.09,43.45a2,2,0,0,1-.73,2.73A2,2,0,0,1,505,491.51Z"/><path class="cls-8" d="M386.44,293.6H336.27a8.89,8.89,0,0,1-7.68-4.44L303.5,245.72a2,2,0,1,1,3.47-2l25.08,43.44a4.87,4.87,0,0,0,4.22,2.44h50.17a4.87,4.87,0,0,0,4.21-2.44l25.09-43.44a4.92,4.92,0,0,0,0-4.87L390.65,195.4a2,2,0,0,1,3.47-2l25.08,43.45a8.89,8.89,0,0,1,0,8.87l-25.08,43.44A8.9,8.9,0,0,1,386.44,293.6Z"/><circle class="cls-8" cx="392.61" cy="194.4" r="8.41"/><circle class="cls-8" cx="305.24" cy="244.8" r="8.41"/><circle class="cls-8" cx="337.08" cy="491.53" r="8.41"/><circle class="cls-8" cx="505.92" cy="491.53" r="8.41"/><path class="cls-8" d="M387.62,493.53H337.45a2,2,0,0,1,0-4h50.17a4.87,4.87,0,0,0,4.21-2.43l23.51-40.72a2,2,0,0,1,3.47,2L395.3,489.1A8.9,8.9,0,0,1,387.62,493.53Z"/></g></g></svg>