<svg width="541" height="276" viewBox="0 0 541 276" fill="none" xmlns="http://www.w3.org/2000/svg">
<rect width="540.735" height="276" fill="#39B5AC"/>
<g clip-path="url(#clip0_713_2117)">
<path d="M86.6735 104.932C86.1046 104.932 85.5459 105.082 85.0532 105.367C84.5605 105.651 84.1512 106.06 83.8661 106.552L67.1085 135.526C66.8234 136.019 66.6733 136.578 66.6733 137.147C66.6733 137.716 66.8234 138.275 67.1085 138.767L83.8395 167.741C84.1267 168.237 84.5403 168.649 85.0381 168.933C85.5359 169.218 86.1001 169.366 86.6735 169.361H120.102C120.672 169.36 121.231 169.21 121.725 168.926C122.218 168.641 122.629 168.233 122.916 167.741L139.64 138.767C139.926 138.275 140.076 137.716 140.076 137.147C140.076 136.578 139.926 136.019 139.64 135.526L122.916 106.552C122.629 106.06 122.218 105.652 121.725 105.368C121.231 105.083 120.672 104.933 120.102 104.932H86.6735Z" fill="#FFA065"/>
<path style="mix-blend-mode:multiply" d="M100.637 136.14H68.3557C68.0544 136.143 67.7586 136.221 67.4941 136.365C67.2295 136.509 67.0042 136.716 66.8378 136.967C66.6715 137.218 66.5691 137.506 66.5396 137.806C66.5101 138.106 66.5544 138.408 66.6686 138.687L83.5129 167.888C83.8236 168.434 84.2723 168.889 84.8142 169.208C85.356 169.526 85.972 169.696 86.6004 169.702H120.016C120.268 169.706 120.517 169.642 120.737 169.517C120.956 169.392 121.138 169.21 121.263 168.99C121.388 168.77 121.451 168.521 121.446 168.269C121.442 168.016 121.369 167.769 121.236 167.554L103.971 138.094C103.649 137.493 103.167 136.993 102.579 136.648C101.991 136.303 101.319 136.127 100.637 136.14Z" fill="url(#paint0_linear_713_2117)"/>
<path d="M144.741 71.1965C144.172 71.1966 143.612 71.3463 143.118 71.6307C142.624 71.915 142.214 72.3241 141.927 72.8169L125.203 101.791C124.918 102.285 124.768 102.845 124.768 103.415C124.768 103.985 124.918 104.545 125.203 105.039L141.927 134.013C142.214 134.505 142.624 134.915 143.118 135.199C143.612 135.483 144.172 135.633 144.741 135.633H178.197C178.765 135.632 179.324 135.482 179.817 135.197C180.309 134.913 180.719 134.504 181.004 134.013L197.728 105.019C198.013 104.525 198.163 103.965 198.163 103.395C198.163 102.825 198.013 102.265 197.728 101.771L181.004 72.8169C180.719 72.3251 180.309 71.9166 179.817 71.6323C179.324 71.348 178.765 71.1977 178.197 71.1965H144.741Z" fill="#39B5AC"/>
<path style="mix-blend-mode:multiply" d="M158.732 102.404H126.443C126.144 102.411 125.85 102.491 125.588 102.636C125.326 102.782 125.104 102.989 124.94 103.24C124.776 103.49 124.675 103.777 124.646 104.075C124.618 104.374 124.663 104.674 124.776 104.952L141.62 134.153C141.929 134.696 142.374 135.15 142.913 135.468C143.451 135.786 144.063 135.958 144.688 135.966H178.083C178.336 135.972 178.586 135.909 178.807 135.784C179.027 135.659 179.21 135.478 179.335 135.258C179.461 135.038 179.525 134.788 179.521 134.535C179.516 134.282 179.443 134.034 179.31 133.819L162.066 104.352C161.742 103.753 161.26 103.254 160.672 102.911C160.083 102.567 159.412 102.392 158.732 102.404Z" fill="url(#paint1_linear_713_2117)"/>
<path d="M144.775 137.693C144.197 137.697 143.631 137.851 143.13 138.14C142.63 138.428 142.213 138.842 141.921 139.34L124.943 168.748C124.658 169.25 124.508 169.818 124.508 170.395C124.508 170.973 124.658 171.54 124.943 172.042L141.921 201.443C142.21 201.944 142.626 202.36 143.127 202.649C143.628 202.938 144.197 203.09 144.775 203.09H178.73C179.308 203.089 179.875 202.936 180.374 202.647C180.874 202.358 181.289 201.943 181.578 201.443L198.556 172.042C198.841 171.54 198.991 170.973 198.991 170.395C198.991 169.818 198.841 169.25 198.556 168.748L181.578 139.34C181.286 138.843 180.87 138.43 180.371 138.141C179.872 137.853 179.307 137.698 178.73 137.693H144.775Z" fill="#FDDA88"/>
<path style="mix-blend-mode:multiply" d="M159.032 169.621H126.744C126.443 169.628 126.149 169.707 125.886 169.853C125.624 169.999 125.401 170.207 125.236 170.458C125.072 170.71 124.972 170.998 124.944 171.297C124.916 171.596 124.962 171.898 125.077 172.175L141.921 201.376C142.231 201.918 142.677 202.37 143.215 202.687C143.753 203.004 144.364 203.175 144.989 203.183H178.39C178.644 203.19 178.894 203.127 179.115 203.003C179.336 202.878 179.519 202.696 179.644 202.475C179.769 202.255 179.832 202.005 179.826 201.751C179.821 201.498 179.746 201.25 179.611 201.036L162.366 171.582C162.044 170.98 161.563 170.479 160.975 170.133C160.386 169.787 159.714 169.61 159.032 169.621Z" fill="url(#paint2_linear_713_2117)"/>
<path d="M120.102 172.016H86.6735C85.6288 172.017 84.6022 171.742 83.6981 171.219C82.7939 170.695 82.0444 169.942 81.5255 169.035L64.8013 140.087C64.2834 139.189 64.0107 138.17 64.0107 137.133C64.0107 136.096 64.2834 135.078 64.8013 134.179L81.5255 105.205C82.0475 104.303 82.7982 103.554 83.7021 103.034C84.6059 102.514 85.6309 102.242 86.6735 102.244H120.102C121.14 102.246 122.16 102.521 123.058 103.04C123.957 103.56 124.704 104.306 125.223 105.205L141.948 134.179C142.466 135.078 142.738 136.096 142.738 137.133C142.738 138.17 142.466 139.189 141.948 140.087L125.223 169.035C124.707 169.938 123.961 170.689 123.062 171.212C122.163 171.735 121.142 172.012 120.102 172.016V172.016ZM86.6735 104.912C86.1041 104.914 85.5452 105.065 85.0526 105.35C84.5599 105.636 84.1508 106.046 83.8661 106.539L67.1085 135.513C66.8234 136.005 66.6733 136.564 66.6733 137.133C66.6733 137.702 66.8234 138.261 67.1085 138.754L83.8395 167.701C84.1233 168.202 84.5354 168.619 85.0334 168.909C85.5315 169.198 86.0975 169.35 86.6735 169.348H120.102C120.674 169.345 121.234 169.191 121.727 168.902C122.22 168.613 122.628 168.198 122.909 167.701L139.64 138.727C139.926 138.235 140.076 137.676 140.076 137.107C140.076 136.538 139.926 135.979 139.64 135.486L122.909 106.539C122.625 106.046 122.216 105.636 121.723 105.35C121.23 105.065 120.671 104.914 120.102 104.912H86.6735Z" fill="white"/>
<path d="M178.123 205.584H144.688C143.651 205.582 142.632 205.308 141.733 204.79C140.835 204.272 140.088 203.527 139.567 202.63L122.816 173.656C122.298 172.756 122.025 171.736 122.025 170.698C122.025 169.66 122.298 168.641 122.816 167.741L139.547 138.767C140.068 137.87 140.815 137.125 141.713 136.607C142.612 136.088 143.631 135.815 144.668 135.813H178.123C179.16 135.814 180.178 136.088 181.075 136.607C181.973 137.125 182.718 137.87 183.238 138.767L199.969 167.741C200.487 168.641 200.759 169.66 200.759 170.698C200.759 171.736 200.487 172.756 199.969 173.656L183.238 202.63C182.718 203.527 181.973 204.272 181.075 204.79C180.178 205.309 179.16 205.582 178.123 205.584V205.584ZM144.688 138.48C144.118 138.48 143.558 138.63 143.064 138.914C142.571 139.199 142.16 139.608 141.874 140.101L125.13 169.075C124.845 169.568 124.695 170.128 124.695 170.698C124.695 171.268 124.845 171.828 125.13 172.322L141.854 201.296C142.14 201.789 142.551 202.198 143.044 202.482C143.538 202.767 144.098 202.917 144.668 202.917H178.123C178.692 202.915 179.25 202.765 179.743 202.481C180.236 202.196 180.645 201.788 180.931 201.296L197.662 172.322C197.943 171.827 198.092 171.268 198.092 170.698C198.092 170.129 197.943 169.569 197.662 169.075L180.931 140.101C180.645 139.609 180.236 139.2 179.743 138.916C179.25 138.632 178.692 138.481 178.123 138.48H144.688Z" fill="white"/>
<path d="M123.963 174.309C123.728 174.31 123.497 174.249 123.293 174.132C123.089 174.015 122.92 173.846 122.803 173.643C122.52 173.152 122.114 172.744 121.625 172.459C121.136 172.174 120.581 172.021 120.015 172.015C119.662 172.015 119.322 171.875 119.072 171.625C118.822 171.375 118.682 171.036 118.682 170.682C118.682 170.328 118.822 169.989 119.072 169.739C119.322 169.489 119.662 169.348 120.015 169.348C121.053 169.35 122.073 169.624 122.972 170.144C123.87 170.664 124.617 171.41 125.137 172.309C125.313 172.615 125.361 172.979 125.27 173.32C125.178 173.661 124.955 173.952 124.65 174.129C124.441 174.25 124.204 174.313 123.963 174.309V174.309Z" fill="white"/>
<path d="M178.123 138.453H144.688C143.651 138.451 142.632 138.178 141.733 137.659C140.835 137.141 140.088 136.396 139.567 135.499L122.816 106.525C122.298 105.626 122.025 104.606 122.025 103.568C122.025 102.53 122.298 101.51 122.816 100.61L139.547 71.6362C140.069 70.7363 140.82 69.9896 141.722 69.4711C142.624 68.9526 143.647 68.6805 144.688 68.6821H178.143C179.18 68.6838 180.198 68.9576 181.095 69.476C181.993 69.9944 182.738 70.7393 183.258 71.6362L199.989 100.61C200.507 101.51 200.779 102.53 200.779 103.568C200.779 104.606 200.507 105.626 199.989 106.525L183.258 135.499C182.737 136.399 181.988 137.146 181.086 137.665C180.185 138.183 179.163 138.455 178.123 138.453V138.453ZM144.688 71.3495C144.118 71.3495 143.558 71.4992 143.064 71.7836C142.571 72.068 142.16 72.4771 141.874 72.9699L125.13 101.944C124.845 102.438 124.695 102.998 124.695 103.568C124.695 104.138 124.845 104.698 125.13 105.191L141.854 134.166C142.14 134.658 142.551 135.067 143.044 135.352C143.538 135.636 144.098 135.786 144.668 135.786H178.123C178.692 135.785 179.25 135.635 179.743 135.35C180.236 135.066 180.645 134.657 180.931 134.166L197.662 105.191C197.943 104.697 198.092 104.137 198.092 103.568C198.092 102.998 197.943 102.439 197.662 101.944L180.931 72.9699C180.645 72.478 180.236 72.0696 179.743 71.7853C179.25 71.501 178.692 71.3507 178.123 71.3495H144.688Z" fill="white"/>
<path d="M120.015 104.912C119.662 104.912 119.322 104.771 119.072 104.521C118.822 104.271 118.682 103.932 118.682 103.578C118.682 103.224 118.822 102.885 119.072 102.635C119.322 102.385 119.662 102.244 120.015 102.244C120.585 102.243 121.144 102.093 121.638 101.809C122.131 101.524 122.542 101.116 122.829 100.624C123.014 100.334 123.303 100.126 123.638 100.044C123.972 99.9623 124.324 100.013 124.622 100.185C124.92 100.357 125.14 100.638 125.236 100.968C125.332 101.298 125.296 101.653 125.137 101.958C124.617 102.856 123.87 103.601 122.971 104.12C122.072 104.638 121.053 104.911 120.015 104.912V104.912Z" fill="white"/>
<path d="M182.064 140.767C181.829 140.768 181.598 140.707 181.395 140.59C181.191 140.473 181.022 140.304 180.904 140.1C180.386 139.202 180.114 138.183 180.114 137.146C180.114 136.109 180.386 135.091 180.904 134.192C181.081 133.885 181.373 133.661 181.715 133.569C182.057 133.478 182.421 133.525 182.728 133.702C183.035 133.879 183.259 134.17 183.351 134.512C183.443 134.855 183.395 135.219 183.218 135.526C182.933 136.018 182.783 136.577 182.783 137.146C182.783 137.715 182.933 138.274 183.218 138.767C183.306 138.919 183.363 139.087 183.386 139.262C183.409 139.436 183.397 139.613 183.352 139.783C183.306 139.953 183.227 140.112 183.119 140.251C183.012 140.39 182.877 140.507 182.725 140.594C182.523 140.708 182.296 140.768 182.064 140.767Z" fill="white"/>
<path d="M202.443 172.022H202.35C201.313 171.945 200.315 171.596 199.456 171.011C198.597 170.426 197.907 169.625 197.456 168.688C197.379 168.53 197.334 168.359 197.324 168.184C197.313 168.009 197.337 167.834 197.395 167.668C197.452 167.503 197.541 167.35 197.657 167.219C197.774 167.088 197.915 166.981 198.072 166.904C198.23 166.828 198.401 166.783 198.576 166.772C198.751 166.762 198.926 166.786 199.092 166.843C199.258 166.901 199.41 166.99 199.541 167.106C199.673 167.223 199.78 167.364 199.856 167.521C200.102 168.032 200.478 168.469 200.946 168.788C201.414 169.108 201.958 169.299 202.523 169.342C202.877 169.354 203.212 169.506 203.453 169.765C203.694 170.024 203.823 170.368 203.81 170.722C203.798 171.076 203.646 171.41 203.387 171.651C203.128 171.893 202.784 172.021 202.43 172.009L202.443 172.022Z" fill="white"/>
<path d="M198.649 174.59C198.448 174.588 198.25 174.542 198.069 174.456C197.911 174.38 197.77 174.272 197.654 174.141C197.537 174.009 197.448 173.856 197.391 173.69C197.334 173.524 197.31 173.349 197.321 173.173C197.332 172.998 197.378 172.827 197.455 172.669C197.907 171.733 198.597 170.932 199.456 170.346C200.315 169.761 201.313 169.412 202.35 169.335C202.704 169.31 203.053 169.427 203.32 169.66C203.588 169.892 203.752 170.222 203.777 170.575C203.802 170.929 203.685 171.278 203.452 171.546C203.22 171.813 202.89 171.978 202.537 172.002C201.971 172.046 201.428 172.236 200.959 172.556C200.491 172.875 200.115 173.312 199.869 173.823C199.761 174.054 199.588 174.249 199.372 174.385C199.155 174.521 198.904 174.592 198.649 174.59V174.59Z" fill="white"/>
<path d="M343.059 172.015H199.429C199.075 172.015 198.736 171.875 198.486 171.625C198.236 171.375 198.095 171.036 198.095 170.682C198.095 170.328 198.236 169.989 198.486 169.739C198.736 169.489 199.075 169.348 199.429 169.348H343.059C343.413 169.348 343.752 169.489 344.002 169.739C344.252 169.989 344.393 170.328 344.393 170.682C344.393 171.036 344.252 171.375 344.002 171.625C343.752 171.875 343.413 172.015 343.059 172.015Z" fill="white"/>
<path d="M474.326 172.015H375.294C374.94 172.015 374.601 171.875 374.351 171.625C374.101 171.375 373.96 171.036 373.96 170.682C373.96 170.328 374.101 169.989 374.351 169.739C374.601 169.489 374.94 169.348 375.294 169.348H474.326C474.68 169.348 475.019 169.489 475.269 169.739C475.519 169.989 475.66 170.328 475.66 170.682C475.66 171.036 475.519 171.375 475.269 171.625C475.019 171.875 474.68 172.015 474.326 172.015Z" fill="white"/>
<path d="M268.127 155.065C267.419 155.065 266.741 154.784 266.24 154.284C265.74 153.783 265.459 153.105 265.459 152.398V122.817C265.459 116.885 263.103 111.196 258.908 107.002C254.714 102.807 249.025 100.451 243.093 100.451C237.162 100.451 231.473 102.807 227.278 107.002C223.084 111.196 220.728 116.885 220.728 122.817V152.398C220.728 153.105 220.447 153.783 219.946 154.284C219.446 154.784 218.768 155.065 218.06 155.065C217.353 155.065 216.674 154.784 216.174 154.284C215.674 153.783 215.393 153.105 215.393 152.398V122.817C215.393 115.47 218.311 108.424 223.506 103.229C228.701 98.0346 235.747 95.1162 243.093 95.1162C250.44 95.1162 257.486 98.0346 262.681 103.229C267.875 108.424 270.794 115.47 270.794 122.817V152.398C270.794 153.105 270.513 153.783 270.013 154.284C269.512 154.784 268.834 155.065 268.127 155.065Z" fill="white"/>
<path d="M430.034 155.492C424.064 155.492 418.227 153.721 413.263 150.404C408.299 147.087 404.429 142.372 402.145 136.856C399.86 131.34 399.262 125.27 400.427 119.415C401.592 113.559 404.467 108.18 408.688 103.958C412.91 99.7362 418.289 96.8611 424.145 95.6963C430.001 94.5315 436.071 95.1293 441.587 97.4141C447.103 99.699 451.818 103.568 455.135 108.533C458.452 113.497 460.222 119.333 460.222 125.304C460.213 133.308 457.03 140.981 451.371 146.64C445.711 152.3 438.038 155.483 430.034 155.492V155.492ZM430.034 100.451C425.119 100.451 420.314 101.909 416.227 104.639C412.14 107.37 408.954 111.252 407.073 115.793C405.192 120.334 404.7 125.332 405.659 130.153C406.618 134.974 408.985 139.402 412.461 142.878C415.936 146.353 420.365 148.72 425.186 149.679C430.007 150.638 435.004 150.146 439.545 148.265C444.087 146.384 447.968 143.199 450.699 139.112C453.43 135.024 454.887 130.219 454.887 125.304C454.88 118.715 452.26 112.397 447.6 107.738C442.941 103.079 436.624 100.458 430.034 100.451Z" fill="white"/>
<path d="M354.035 173.209C353.328 173.209 352.649 172.928 352.149 172.428C351.649 171.928 351.368 171.25 351.368 170.542C351.368 169.835 351.649 169.156 352.149 168.656C352.649 168.156 353.328 167.875 354.035 167.875C357.5 167.871 360.823 166.493 363.273 164.043C365.723 161.592 367.101 158.27 367.105 154.805V90.1615C367.112 85.2813 369.054 80.6031 372.506 77.1529C375.957 73.7027 380.636 71.7621 385.516 71.7568C386.224 71.7568 386.902 72.0379 387.402 72.5381C387.903 73.0383 388.184 73.7168 388.184 74.4242C388.184 75.1316 387.903 75.8101 387.402 76.3103C386.902 76.8105 386.224 77.0915 385.516 77.0915C382.05 77.0951 378.727 78.473 376.276 80.9231C373.825 83.3733 372.445 86.6956 372.44 90.1615V122.483V154.805C372.434 159.684 370.494 164.363 367.043 167.813C363.593 171.263 358.915 173.204 354.035 173.209Z" fill="white"/>
<path d="M344.153 127.971H283.77V125.303C283.888 117.374 287.121 109.809 292.77 104.243C298.419 98.6775 306.031 95.5576 313.961 95.5576C321.892 95.5576 329.504 98.6775 335.153 104.243C340.802 109.809 344.035 117.374 344.153 125.303V127.971ZM289.252 122.636H338.678C338.013 116.546 335.123 110.916 330.562 106.825C326.002 102.735 320.091 100.473 313.965 100.473C307.839 100.473 301.928 102.735 297.367 106.825C292.806 110.916 289.916 116.546 289.252 122.636V122.636Z" fill="white"/>
<path d="M313.965 155.491C305.961 155.482 298.287 152.299 292.626 146.64C286.966 140.981 283.781 133.308 283.77 125.304C283.77 124.596 284.051 123.918 284.552 123.417C285.052 122.917 285.73 122.636 286.438 122.636C287.145 122.636 287.824 122.917 288.324 123.417C288.824 123.918 289.105 124.596 289.105 125.304C289.105 130.125 290.507 134.843 293.14 138.882C295.774 142.921 299.525 146.107 303.937 148.052C308.349 149.997 313.232 150.617 317.99 149.836C322.748 149.055 327.177 146.908 330.736 143.655C330.99 143.4 331.294 143.198 331.629 143.064C331.964 142.929 332.322 142.864 332.683 142.872C333.043 142.88 333.399 142.961 333.727 143.11C334.056 143.259 334.35 143.473 334.594 143.74C334.837 144.006 335.024 144.319 335.143 144.659C335.261 145 335.31 145.361 335.285 145.721C335.261 146.081 335.163 146.432 334.999 146.753C334.835 147.074 334.607 147.359 334.33 147.589C328.77 152.68 321.503 155.5 313.965 155.491V155.491Z" fill="white"/>
<path d="M383.896 119.022H356.789C356.081 119.022 355.403 118.741 354.903 118.241C354.403 117.741 354.122 117.062 354.122 116.355C354.122 115.647 354.403 114.969 354.903 114.469C355.403 113.969 356.081 113.688 356.789 113.688H383.896C384.603 113.688 385.282 113.969 385.782 114.469C386.282 114.969 386.563 115.647 386.563 116.355C386.563 117.062 386.282 117.741 385.782 118.241C385.282 118.741 384.603 119.022 383.896 119.022V119.022Z" fill="white"/>
<path d="M402.515 127.971C401.807 127.971 401.129 127.69 400.628 127.19C400.128 126.69 399.847 126.011 399.847 125.304V75.0109C399.847 74.3034 400.128 73.625 400.628 73.1248C401.129 72.6245 401.807 72.3435 402.515 72.3435C403.222 72.3435 403.9 72.6245 404.401 73.1248C404.901 73.625 405.182 74.3034 405.182 75.0109V125.297C405.183 125.648 405.114 125.995 404.981 126.32C404.847 126.644 404.651 126.939 404.403 127.187C404.155 127.436 403.861 127.633 403.537 127.767C403.213 127.902 402.865 127.971 402.515 127.971Z" fill="white"/>
<path d="M475.866 154.458C475.159 154.458 474.481 154.177 473.98 153.676C473.48 153.176 473.199 152.498 473.199 151.79V97.7765C473.199 97.0691 473.48 96.3906 473.98 95.8904C474.481 95.3902 475.159 95.1091 475.866 95.1091C476.574 95.1091 477.252 95.3902 477.753 95.8904C478.253 96.3906 478.534 97.0691 478.534 97.7765V151.79C478.534 152.498 478.253 153.176 477.753 153.676C477.252 154.177 476.574 154.458 475.866 154.458Z" fill="white"/>
<path d="M475.866 84.7467C478.964 84.7467 481.474 82.2359 481.474 79.1386C481.474 76.0414 478.964 73.5305 475.866 73.5305C472.769 73.5305 470.258 76.0414 470.258 79.1386C470.258 82.2359 472.769 84.7467 475.866 84.7467Z" fill="white"/>
<path d="M475.866 176.037C478.964 176.037 481.474 173.526 481.474 170.428C481.474 167.331 478.964 164.82 475.866 164.82C472.769 164.82 470.258 167.331 470.258 170.428C470.258 173.526 472.769 176.037 475.866 176.037Z" fill="white"/>
<path d="M224.108 199.042H221.841L218.12 191.08L217.047 188.526V199.042H215.426V186.292H217.66L221.208 193.834L222.488 196.755V186.292H224.108V199.042Z" fill="white"/>
<path d="M235.605 199.042H228.343V186.292H235.605V187.753H230.083V191.707H235.378V193.168H230.077V197.569H235.598L235.605 199.042Z" fill="white"/>
<path d="M248.661 187.773H244.88V199.042H243.12V187.773H239.339V186.292H248.675L248.661 187.773Z" fill="white"/>
<path d="M260.398 187.659L253.883 197.435H260.551V199.042H251.702V197.709L258.257 187.826H251.882V186.246H260.398V187.659Z" fill="white"/>
<path d="M273.301 186.293L272.441 199.043H270.18L268.6 194.501L268.16 193.048L267.7 194.621L266.239 199.043H264.052L263.172 186.279H264.812L265.312 194.948L265.459 197.329L266.073 195.328L267.62 190.594H268.82L270.594 195.668L271.194 197.349L271.234 195.595L271.741 186.259L273.301 186.293Z" fill="white"/>
<path d="M284.057 199.042H276.822V186.292H284.057V187.753H278.543V191.707H283.844V193.168H278.543V197.569H284.057V199.042Z" fill="white"/>
<path d="M297.24 199.042H295.28L293.393 194.974C293.274 194.699 293.127 194.438 292.953 194.194C292.82 194.007 292.658 193.842 292.472 193.707C292.301 193.588 292.109 193.5 291.906 193.447C291.687 193.399 291.463 193.374 291.239 193.374H290.419V199.042H288.678V186.292H292.059C292.705 186.28 293.35 186.361 293.973 186.532C294.459 186.661 294.913 186.888 295.307 187.199C295.641 187.485 295.9 187.849 296.06 188.259C296.22 188.7 296.299 189.165 296.293 189.633C296.298 190.016 296.239 190.396 296.12 190.76C296.005 191.11 295.829 191.438 295.6 191.727C295.357 192.024 295.066 192.278 294.74 192.481C294.373 192.699 293.975 192.859 293.559 192.954C293.923 193.082 294.241 193.314 294.473 193.621C294.772 194.003 295.029 194.417 295.24 194.854L297.24 199.042ZM294.46 189.786C294.479 189.496 294.428 189.206 294.312 188.939C294.196 188.672 294.018 188.437 293.793 188.253C293.269 187.882 292.633 187.7 291.992 187.739H290.352V191.96H291.759C292.133 191.965 292.505 191.918 292.866 191.82C293.171 191.738 293.457 191.595 293.706 191.4C293.933 191.222 294.116 190.994 294.24 190.733C294.382 190.443 294.457 190.124 294.46 189.8V189.786Z" fill="white"/>
<path d="M309.324 199.042H307.137L302.362 192.781V199.042H300.622V186.292H302.362V192.221L307.03 186.292H309.09L304.062 192.374L309.324 199.042Z" fill="white"/>
<path d="M332.536 187.773H327.115V191.914H332.256V193.374H327.115V199.042H325.334V186.292H332.536V187.773Z" fill="white"/>
<path d="M345.72 199.043H343.759L341.852 194.962C341.734 194.686 341.586 194.425 341.412 194.181C341.278 193.995 341.116 193.831 340.932 193.695C340.759 193.576 340.567 193.488 340.365 193.434C340.146 193.386 339.922 193.362 339.698 193.361H338.878V199.043H337.144V186.293H340.558C341.204 186.279 341.849 186.36 342.472 186.533C342.958 186.661 343.412 186.888 343.806 187.2C344.143 187.483 344.403 187.848 344.559 188.26C344.724 188.699 344.806 189.165 344.799 189.633C344.8 190.016 344.742 190.396 344.626 190.76C344.508 191.111 344.33 191.438 344.099 191.727C343.859 192.027 343.568 192.282 343.239 192.481C342.874 192.698 342.479 192.858 342.065 192.954C342.428 193.084 342.745 193.316 342.979 193.621C343.276 194.005 343.533 194.419 343.746 194.855L345.72 199.043ZM342.939 189.787C342.958 189.497 342.907 189.206 342.791 188.939C342.675 188.672 342.497 188.437 342.272 188.253C341.746 187.881 341.108 187.7 340.465 187.74H338.824V191.961H340.232C340.607 191.965 340.982 191.918 341.345 191.821C341.65 191.738 341.936 191.595 342.185 191.401C342.411 191.221 342.593 190.993 342.719 190.734C342.861 190.443 342.937 190.124 342.939 189.8V189.787Z" fill="white"/>
<path d="M357.516 194.615C357.523 195.262 357.424 195.906 357.222 196.522C357.041 197.064 356.742 197.559 356.346 197.972C355.951 198.384 355.469 198.704 354.935 198.909C354.32 199.135 353.669 199.246 353.015 199.236C352.334 199.25 351.657 199.143 351.014 198.922C350.507 198.734 350.05 198.43 349.68 198.035C349.324 197.643 349.064 197.172 348.92 196.662C348.753 196.081 348.673 195.479 348.68 194.875V186.292H350.414V194.741C350.404 195.19 350.454 195.639 350.561 196.075C350.638 196.424 350.796 196.751 351.021 197.029C351.245 197.288 351.532 197.485 351.854 197.602C352.259 197.743 352.686 197.809 353.115 197.795C353.494 197.826 353.876 197.77 354.231 197.632C354.585 197.493 354.904 197.275 355.162 196.995C355.638 196.344 355.874 195.547 355.829 194.741V186.292H357.569L357.516 194.615ZM350.934 182.852C351.074 182.851 351.212 182.878 351.341 182.932C351.46 182.988 351.571 183.062 351.668 183.152C351.766 183.245 351.843 183.359 351.894 183.485C351.95 183.616 351.979 183.756 351.981 183.899C351.979 184.039 351.95 184.177 351.894 184.305C351.843 184.429 351.766 184.541 351.668 184.632C351.571 184.722 351.46 184.796 351.341 184.852C351.212 184.905 351.074 184.933 350.934 184.932C350.797 184.935 350.66 184.91 350.533 184.859C350.406 184.807 350.29 184.73 350.194 184.632C350.096 184.537 350.02 184.423 349.969 184.296C349.919 184.17 349.895 184.035 349.9 183.899C349.9 183.757 349.927 183.616 349.98 183.485C350.032 183.361 350.106 183.248 350.201 183.152C350.297 183.062 350.408 182.988 350.527 182.932C350.656 182.878 350.794 182.85 350.934 182.852V182.852ZM355.208 182.852C355.35 182.851 355.491 182.878 355.622 182.932C355.744 182.986 355.857 183.06 355.955 183.152C356.045 183.251 356.119 183.364 356.175 183.485C356.229 183.616 356.256 183.757 356.255 183.899C356.256 184.038 356.229 184.176 356.175 184.305C356.119 184.425 356.045 184.535 355.955 184.632C355.857 184.723 355.744 184.798 355.622 184.852C355.491 184.905 355.35 184.933 355.208 184.932C355.072 184.935 354.937 184.909 354.811 184.858C354.685 184.806 354.57 184.729 354.475 184.632C354.329 184.484 354.23 184.296 354.192 184.091C354.154 183.887 354.178 183.676 354.262 183.485C354.313 183.361 354.387 183.248 354.482 183.152C354.577 183.06 354.688 182.986 354.808 182.932C354.935 182.878 355.071 182.851 355.208 182.852V182.852Z" fill="white"/>
<path d="M369.619 199.042H367.879V193.181H362.544V199.042H360.804V186.292H362.544V191.707H367.879V186.306H369.619V199.042Z" fill="white"/>
<path d="M381.036 199.042H373.774V186.292H381.036V187.753H375.514V191.707H380.849V193.168H375.514V197.569H381.036V199.042Z" fill="white"/>
<path d="M405.975 195.235C405.987 195.798 405.863 196.356 405.615 196.862C405.377 197.337 405.03 197.749 404.601 198.062C404.122 198.408 403.581 198.659 403.008 198.802C402.331 198.98 401.633 199.066 400.934 199.056H397.6V186.292H401.254C404.099 186.292 405.522 187.326 405.522 189.393C405.539 190.023 405.367 190.643 405.028 191.174C404.633 191.713 404.066 192.103 403.421 192.281C403.762 192.341 404.092 192.451 404.401 192.607C404.708 192.761 404.985 192.966 405.222 193.214C405.461 193.469 405.649 193.768 405.775 194.094C405.916 194.458 405.984 194.845 405.975 195.235V195.235ZM403.708 189.633C403.708 189.382 403.67 189.133 403.594 188.893C403.514 188.661 403.371 188.456 403.181 188.3C402.947 188.113 402.677 187.976 402.387 187.9C401.976 187.794 401.552 187.744 401.127 187.753H399.333V191.754H401.074C401.436 191.757 401.797 191.712 402.147 191.621C402.449 191.549 402.732 191.418 402.981 191.234C403.211 191.057 403.395 190.828 403.521 190.567C403.652 190.273 403.715 189.954 403.708 189.633V189.633ZM404.128 195.295C404.134 194.989 404.063 194.686 403.921 194.415C403.785 194.144 403.58 193.914 403.328 193.748C403.036 193.554 402.714 193.412 402.374 193.328C401.959 193.227 401.534 193.178 401.107 193.181H399.333V197.575H401.167C401.956 197.648 402.748 197.46 403.421 197.042C403.67 196.828 403.864 196.558 403.987 196.254C404.11 195.95 404.158 195.621 404.128 195.295V195.295Z" fill="white"/>
<path d="M412.79 187.753H409.85V186.292H417.492V187.753H414.551V197.575H417.492V199.042H409.85V197.575H412.79V187.753Z" fill="white"/>
<path d="M429.908 199.042H422.573V186.292H424.34V197.575H429.915L429.908 199.042Z" fill="white"/>
<path d="M442.691 192.534C442.693 193.122 442.646 193.708 442.551 194.288C442.463 194.826 442.31 195.352 442.098 195.855C441.895 196.338 441.621 196.787 441.284 197.189C440.949 197.584 440.547 197.918 440.097 198.176C439.573 198.479 439.006 198.704 438.417 198.842C437.703 199.003 436.974 199.079 436.243 199.069H433.509V186.292H436.763C438.759 186.292 440.246 186.804 441.224 187.826C442.202 188.849 442.691 190.418 442.691 192.534ZM440.864 192.661C440.881 191.886 440.796 191.112 440.611 190.36C440.475 189.803 440.212 189.285 439.844 188.846C439.481 188.456 439.02 188.168 438.51 188.013C437.914 187.828 437.293 187.741 436.67 187.753H435.176V197.555H436.51C439.417 197.555 440.868 195.924 440.864 192.661Z" fill="white"/>
<path d="M454.474 194.615C454.483 195.263 454.382 195.908 454.174 196.522C453.99 197.063 453.693 197.559 453.301 197.975C452.903 198.386 452.421 198.704 451.887 198.909C451.272 199.135 450.621 199.246 449.967 199.236C449.287 199.25 448.609 199.143 447.966 198.922C447.457 198.745 446.999 198.446 446.631 198.052C446.263 197.659 445.996 197.181 445.852 196.662C445.686 196.081 445.605 195.479 445.612 194.875V186.292H447.353V194.741C447.344 195.19 447.392 195.638 447.493 196.075C447.57 196.426 447.73 196.753 447.959 197.029C448.184 197.288 448.471 197.485 448.793 197.602C449.195 197.743 449.62 197.809 450.047 197.795C450.426 197.827 450.808 197.771 451.163 197.632C451.518 197.494 451.836 197.276 452.094 196.995C452.573 196.345 452.809 195.547 452.761 194.741V186.292H454.501L454.474 194.615Z" fill="white"/>
<path d="M466.491 199.042H464.224L460.503 191.08L459.436 188.54V199.042H457.815V186.292H460.049L463.597 193.834L464.877 196.755V186.292H466.498L466.491 199.042Z" fill="white"/>
<path d="M478.594 188.48C478.127 188.231 477.635 188.032 477.127 187.887C476.592 187.743 476.04 187.674 475.486 187.68C474.865 187.668 474.248 187.791 473.679 188.04C473.161 188.272 472.705 188.621 472.345 189.06C471.967 189.53 471.684 190.069 471.512 190.647C471.316 191.314 471.219 192.006 471.225 192.701C471.218 193.408 471.296 194.113 471.458 194.802C471.593 195.369 471.843 195.902 472.192 196.369C472.526 196.8 472.964 197.14 473.466 197.356C474.056 197.602 474.693 197.72 475.333 197.702H475.733L476.16 197.649L476.573 197.562C476.695 197.534 476.815 197.498 476.933 197.456V193.375H474.326V191.934H478.654V198.463C478.38 198.583 478.1 198.696 477.807 198.796C477.509 198.892 477.206 198.972 476.9 199.036C476.593 199.101 476.284 199.15 475.973 199.183C475.678 199.217 475.382 199.234 475.086 199.236C474.28 199.247 473.479 199.107 472.725 198.823C472.044 198.561 471.433 198.145 470.938 197.609C470.424 197.029 470.037 196.348 469.805 195.609C469.529 194.706 469.396 193.765 469.411 192.821C469.397 191.865 469.545 190.913 469.851 190.007C470.113 189.225 470.533 188.506 471.085 187.893C471.617 187.313 472.27 186.857 472.999 186.56C473.784 186.251 474.622 186.097 475.466 186.106C476.014 186.105 476.561 186.156 477.1 186.259C477.616 186.358 478.118 186.521 478.594 186.746V188.48Z" fill="white"/>
<path d="M198.816 236.725C198.582 236.725 198.352 236.663 198.15 236.546C197.947 236.429 197.779 236.261 197.662 236.058L180.931 207.084C180.646 206.593 180.236 206.184 179.744 205.9C179.251 205.615 178.692 205.465 178.124 205.464H144.688C144.119 205.464 143.559 205.614 143.065 205.898C142.571 206.182 142.161 206.592 141.874 207.084L127.624 231.757C127.537 231.909 127.42 232.043 127.281 232.149C127.142 232.256 126.983 232.335 126.814 232.38C126.644 232.426 126.468 232.437 126.294 232.415C126.12 232.392 125.952 232.335 125.8 232.248C125.648 232.16 125.515 232.043 125.408 231.904C125.301 231.765 125.223 231.606 125.178 231.437C125.132 231.268 125.12 231.091 125.143 230.917C125.166 230.743 125.223 230.576 125.31 230.424L139.567 205.751C140.088 204.854 140.835 204.109 141.734 203.591C142.632 203.072 143.651 202.799 144.688 202.797H178.144C179.18 202.798 180.198 203.072 181.096 203.59C181.993 204.109 182.739 204.854 183.258 205.751L199.989 234.725C200.166 235.031 200.214 235.394 200.122 235.736C200.031 236.077 199.808 236.368 199.503 236.545C199.294 236.666 199.057 236.728 198.816 236.725Z" fill="white"/>
<path d="M119.755 104.751H86.3002C85.2628 104.75 84.244 104.476 83.3455 103.958C82.4469 103.439 81.6998 102.694 81.1788 101.797L64.4479 72.8233C64.271 72.5164 64.2233 72.1519 64.3152 71.8099C64.4071 71.4678 64.6312 71.1763 64.938 70.9995C65.2449 70.8226 65.6094 70.7749 65.9514 70.8668C66.2935 70.9587 66.585 71.1827 66.7618 71.4896L83.4861 100.464C83.7722 100.957 84.1827 101.366 84.6766 101.65C85.1704 101.934 85.7303 102.084 86.3002 102.084H119.755C120.324 102.083 120.883 101.933 121.375 101.648C121.868 101.364 122.277 100.956 122.563 100.464L139.294 71.4896C139.576 70.9948 139.724 70.4352 139.724 69.8658C139.724 69.2965 139.576 68.7369 139.294 68.2421L122.563 39.2747C122.386 38.9678 122.338 38.6033 122.43 38.2613C122.522 37.9192 122.746 37.6277 123.053 37.4509C123.36 37.274 123.724 37.2263 124.066 37.3182C124.408 37.4101 124.7 37.6342 124.877 37.941L141.601 66.9084C142.119 67.808 142.391 68.8278 142.391 69.8658C142.391 70.9038 142.119 71.9237 141.601 72.8233L124.877 101.797C124.355 102.694 123.608 103.438 122.71 103.957C121.811 104.475 120.793 104.749 119.755 104.751Z" fill="white"/>
<path d="M123.87 44.2162C126.967 44.2162 129.478 41.7054 129.478 38.6081C129.478 35.5108 126.967 33 123.87 33C120.773 33 118.262 35.5108 118.262 38.6081C118.262 41.7054 120.773 44.2162 123.87 44.2162Z" fill="white"/>
<path d="M65.608 77.8178C68.7052 77.8178 71.2161 75.3069 71.2161 72.2097C71.2161 69.1124 68.7052 66.6016 65.608 66.6016C62.5107 66.6016 59.9999 69.1124 59.9999 72.2097C59.9999 75.3069 62.5107 77.8178 65.608 77.8178Z" fill="white"/>
<path d="M86.84 242.347C89.9372 242.347 92.4481 239.836 92.4481 236.739C92.4481 233.642 89.9372 231.131 86.84 231.131C83.7427 231.131 81.2319 233.642 81.2319 236.739C81.2319 239.836 83.7427 242.347 86.84 242.347Z" fill="white"/>
<path d="M199.429 242.347C202.526 242.347 205.037 239.836 205.037 236.739C205.037 233.642 202.526 231.131 199.429 231.131C196.332 231.131 193.821 233.642 193.821 236.739C193.821 239.836 196.332 242.347 199.429 242.347Z" fill="white"/>
<path d="M120.542 238.072H87.0871C86.7334 238.072 86.3942 237.932 86.144 237.681C85.8939 237.431 85.7534 237.092 85.7534 236.738C85.7534 236.385 85.8939 236.045 86.144 235.795C86.3942 235.545 86.7334 235.405 87.0871 235.405H120.542C121.111 235.404 121.67 235.254 122.163 234.97C122.655 234.685 123.065 234.277 123.35 233.784L139.027 206.631C139.115 206.479 139.231 206.346 139.37 206.239C139.509 206.132 139.668 206.053 139.837 206.008C140.007 205.962 140.183 205.951 140.357 205.973C140.531 205.996 140.699 206.053 140.851 206.141C141.003 206.228 141.136 206.345 141.243 206.484C141.35 206.623 141.428 206.782 141.474 206.951C141.519 207.12 141.531 207.297 141.508 207.471C141.485 207.645 141.429 207.812 141.341 207.964L125.664 235.118C125.143 236.015 124.396 236.76 123.497 237.278C122.598 237.796 121.58 238.07 120.542 238.072V238.072Z" fill="white"/>
</g>
<defs>
<linearGradient id="paint0_linear_713_2117" x1="93.9823" y1="169.702" x2="93.9823" y2="136.14" gradientUnits="userSpaceOnUse">
<stop stop-color="#D17A43" stop-opacity="0.3"/>
<stop offset="1" stop-color="#D17A43"/>
</linearGradient>
<linearGradient id="paint1_linear_713_2117" x1="152.07" y1="135.966" x2="152.07" y2="102.404" gradientUnits="userSpaceOnUse">
<stop stop-color="#298F88" stop-opacity="0.3"/>
<stop offset="1" stop-color="#227973"/>
</linearGradient>
<linearGradient id="paint2_linear_713_2117" x1="152.37" y1="203.183" x2="152.37" y2="169.621" gradientUnits="userSpaceOnUse">
<stop stop-color="#F1C151" stop-opacity="0.3"/>
<stop offset="1" stop-color="#F1C151"/>
</linearGradient>
<clipPath id="clip0_713_2117">
<rect width="421.468" height="209.347" fill="white" transform="translate(60 33)"/>
</clipPath>
</defs>
</svg>
