<svg xmlns="http://www.w3.org/2000/svg" fill="none" viewBox="0 0 164 69"><path fill="#FFA065" fill-rule="evenodd" d="M6.5 44c-.3-.7-1.4-.5-2.2-.6-.8-.9-.4-1.7 1-2.5 1.7-.7 3.6-.9 5.4-1.2h.7c1.7-.2 3.4 0 5.1-.2.4 0 .8.1 1.1.3.8.2 1.8 0 2.4.6.7.7-.5.9-1 1.3l-.4.2c-1.7.7-3.6.3-5.5.5.1.4.7.5 1 .6l.4.3c.2.4-.3.5-.5.8 3.7.3 7.4 0 11 .3 9.3.6 18.6-.5 27.8 0 7 .5 13.8.4 20.6.5.8 0 1.5 0 2.2.2.6 0 1.3.2 1.3.7 0 .6-1 .4-1.6.4H63.5c-5.7 0-11.4-.6-17-.6-4.1 0-8.2.2-12.2.3-1.8 0-3.6 0-5.4-.2h-.8c-.7-.2-1.3 0-1.9 0h-.4.4l1.6-.1.5.1v.1-.1h.7c1.7.4 3.4 0 5.2.2l12-.3c5.8 0 11.5.6 17.2.5l1 .1h11c2 .2 4.2 0 6.3.2 1 0 2.5 0 2.4.9-.1.7-1.5.8-2.5.8-2 .1-4 .1-6-.2-3.4-.5-7-.1-10.5-.2-4.4-.2-8.8 0-13.2-.4a37 37 0 0 0-12.2.5c-.4 0-.8.2-1 0-3-1.4-6 0-8.9-.1-.9 0-1.7 0-2.5-.3-2-.4-4-.7-5.7.6-.4.3-1.2.7-1.8.1-.8-.6-1.4-.2-2.2 0-.1 0-.5.1-.3.2l.5-.1c1.1.5 2.4.4 3.6.5.9 0 2.2 0 1.7 1-3.3.6-6.6.4-9.7-.5-.7-.2-1-.1-1.6 0H8.5a4 4 0 0 1-.6 0c-.5-.2-1.3-.3-1.1-.7.2-.8 1.4-.5 2.2-.7-.7 0-1.3 0-2-.2-.6 0-1.4-.2-1.4-.7 0-.6.8-.9 1.7-1L9 46c-1.5-.2-2.4-.8-2.4-2ZM152.5 44.8c-.3.4-.9.8-.9 1.3s-.6 1 .2 1.4c.5.3.5.8.2 1-1 .8 0 1.3.4 1.8l.1.2c.7 1-2 1.4-1.1 2.2 1 .8 1 1.4.7 2.3-.2.8-.4 1.3-2 1.6-1.1.2-1.7 1-1 1.8.3.4.7.7.7 1 0 .3-.2.5-.4.6-2 .6-2.4-.5-3.3-1.1-.2-.2-.3-.4-.8-.4-.3 0-.4.2-.3.4l.2.3-.1.4-.2.1a2 2 0 0 1-.4.2l-1.2.4c-.2 0-.3 0-.4.2l-.4.2h-.3a1 1 0 0 1-.5 0 .8.8 0 0 1-.4-.2l.1-.4.4-.3c1.3-.6.7-1.5 1-2.2 0-.3-.3-.7.1-.9 2.4-.8 2-2.2 1.8-3.5.2-.3.5-.6 1-.8 2.3-1 2.3-1.2.5-2.5v-.4c.3-.1.2-.1.1-.3-.3-.5-.3-1-.3-1.5.1-1.5 0-1.7-1.8-2.9-.5-.2-.6-.5-.6-.9-.4-2.2-2.7-3.6-5.2-5-1.7-.8-3.3-1.8-4.5-3l-.5-.2c-2.2-.6-3-1.5-3-2.9 1.1-.4 1.7.3 2.5.5l1 .4c2.6 1.2 5.4 2.3 8 3.6 1.7.9 3.2 1.8 3.9 3.3.4 1 1.8 1.3 3 1l-.2-.2c.8-.5 1.2-1.6 2.7-.5.6.4.4.6.2 1l-1.1 1.6c-.4.5-.4 1 .8 1 .5 0 1-.2 1.3.3ZM139 2c.6 0 1-.6 1.9-.3 1.2.5 2.4 0 3.3-.6.6-.5 1.5-.7 2.3-1 1.3-.4 2 .4 3.1.4.3 0 .3.3.3.5.3.9.5 1 2 1 1.6 0 1.8 0 2.4 1 .3.5.7.9 1.2 1.2 2 1.4 2 2.2-.6 3.4-.3 0-.5-.2-.8-.3a.6.6 0 0 1-.3-.2l.1-.3 1-.7c-.3-.6-1-.1-1.4 0-.8 0-1.5.5-2.5.2 0-.7.9-.6 1.3-.8-.7 0-1.3.3-1.6.9-.2.4-.8.7-1.6.9-1.7.5-2 .4-1.9-1 .8-.5 0-1-.2-1.2-.5-.5-.7.2-1.2.2-1.3.1-2.4.8-4 .3-1-.3-2 .5-3 .6-1 .2-1.8.8-3 .7-.6-.8.4-1 1-1.3.4 0 0-.2 0-.3-.2-.3.4-.5.3-.8-.8.2-1.5-1-2.5 0-.8.7-2 1-3.5 1.3h-.9c-.5.3.3-.7-.7-.3-1.3.5-2.8.7-4.1 1.3l-.6.2-1.3.5-1.8.3c-.5 0-1 .1-1.4.3l-.9.2H118c-.4-1 1.6-1 2.1-1.5 0-.2.4 0 .5-.2 0 0-.2.1-.4 0-.3.2-.8.4-1 .1-.6-.4.4-.6.4-1 1.6-.7 3.4-.9 5-1.6.4-.2 1-.3 1.4-.6.6-.4 1.4-.5 2.1 0h.2c2-.1 4 0 6-.4l2.4-.7c.6-.2 1-.3 1.6 0 .4.2.7-.1.7-.5ZM116 66.5c-.9 0-1.6.2-2.4.4-1.7.3-2.3.3-2.8-.7-.5-.7-1.2-.7-2-.7-1.7 0-3.3.2-4.7-.4h-.7c-5.4 0-10.7-.4-16.2 0-4.7.2-9.6.3-14.3-.2-2.2-.2-4.3-.2-6.4-.1-5.6 0-11.1 0-16.6-.4-3.7-.3-7.4-.2-11 0-4.8.3-9.6.4-14.4 0l-3.1-.1h-8.2c-1.1 0-2.2-.2-3.3-.4l-2.6-.2c-1.9 0-2.7-.8-2.2-2l.3-.5-.1-.2c-1.7.2-3.4.4-4.1-1 .8-.9 2.2-1 3.6-1.1.4 0 .1.4.4.5 2.4.1 2.7 1.6 3.4 2.5.9 1.1 2 1.3 3.4 1 1-.1 1.9-.4 2.8.3.4.2 1 .2 1.6.2 4.3-.2 8.4 0 12.6.4 2.5.2 5-.2 7.5-.3 5.6-.1 11.3-.3 16.8 0 7 .6 14.1.2 21.2.6 5 .4 10.2.2 15.2 0 3.7-.2 7.4-.1 11 0 2.7 0 5.4.2 8-.2 1-.1 1.9 0 2.6.4.9.4 1.5.2 2.1-.2 3.7-1.3 6.8-.3 9.9 1-.3.8-1.2.7-2 .5-1-.2-1.5 0-2 .6-.3.4-.7.8-1.6.4-.5-.2-1.2-.2-1.7-.1Z" clip-rule="evenodd"/><path fill="#FFA065" fill-rule="evenodd" d="M148.8 41.6c0 .5-.6.6-1.2.4l-2.5-1c-.5-.2-.2-.4 0-.6 0-.2.3-.6 0-.5-1.6.1-1.1-.7-1.3-1.1-.1-.3-.5-.4-.7-.5-3-1.5-5.8-3-9.2-4l-.4-.4c.5-.7-.2-1.1-.6-1.7-.8.5 0 1-.2 1.4-.4 0-.7-.1-.9-.3-.4-.4-.8-.5-1.5-.4l-.3-.1c0-1 .6-1.6 2-2.1 2.3-.8 4.7-1.5 7-2.4 3.7-1.5 7.7-2.8 10.7-5 0-.2.2-.3.3-.4 1-1.3 3.2-1.7 4.7-2.7.4-.2 1.4-.3 1.3-.7-.2-1.1.8-1.7 2.2-2.1 1.1-.5-1-.7-.3-1.1.5-.6 1.5-.6 2.3-.8.7-.2 1.7-.5 2.3 0 .6.3-.1.8-.2 1.2-.2.4-.6.6-1 .8-.5.2-1 .5-1.4.9l-.5.3c-.3 0-.6 0-.6.2v.5c.2 0-.3.2 0 .2h.6c.4-.2.8-.3 1.3-.2.5.6-.6.6-.8 1-.1.4-1.8 0-1 .8-.2.1-.3.2-.5.1l-.7.3c0 .2-.2.3-.5.4-.2 0-.4 0-.6.2a1 1 0 0 1-.4 0l-.2.1h.4c.8 0 1.1.4.4.6-4.7 1.8-8.8 4.3-14.2 5.4-2.7.5-5 1.7-7.3 2.6-1 .3-1 .7-.4 1.2l1.3 1.8c.9 1.2 2.7 1.9 4.4 2.5 2.4.8 4.3 2 6 3.4.2.3.3.5.3.8.1 1 .3 1 1.9 1ZM10.2 17.2c.4-.6 1-1 2-1.5 2.6-1 5.1-2.4 8.3-3h.4c1.4-.6 1.4-.7.3-1.4l-1.4-1 2-.8c1.7 0 3.2.5 4.7 1 .2-.5-.5-.7-.8-1-.4-.2-1-.5-.7-.9.3-.5 1-.3 1.7-.3H28.4c1.7.8 2.7 1.9 3.2 3.2.4.8.2 1.3-1.4 1.2-1-.1-2.2 0-3.2-.5-1-.4-2.3-.6-3.6-1 .5.4 1 .7 1 1.2 0 .3-.3.6 0 .7 2.5 1.3.1 1.5-1 2l-3.1.8c-.5.1-1.2.5-1.6-.2.4-.5 1-.6 1.7-.8.2-.1.6 0 .7-.2l-.4.1-2.3.7-.7.1c.3 0 .6 0 .8.2-.4 1-1.7 1.4-3 1.7h-.7c-.8 0-1.5.2-2.2.3l-1.2.3c-1.7.4-1.8-.1-1.2-.9ZM118.7 66c.9-.8 2-1 3.3-.6.4.2.8 0 1.2-.2.1-.5.5-1 1.3-1.1 1.3-.4 2.5 0 3.5.5s1.9.7 2.9-.2c.9-.7 1.5-2 3.6-1.7.4-1.2 2.3-1.4 3.3-2.2l.5-.1 1 .1h.5l1-.3h.6l.3.3c0 .4-.3.7-.6 1v.4l.2.3v.2c-.2.4-.8.4-1.4.5-1.2.1-2 .6-2.6 1.3-1.4.8-2.8 1.5-3.7 2.6l-.2.3-.3.2c-.4.2-.9.3-1.4.2h-.6c-.8-.1-1-.6-1.4-.9-.3-.3-.9-.6-1.5-.4-.7 0-.6.6-.7.9l.1.6c.3.6-.5.4-1 .5h-1l-.8-.2c-.7-.5-.3-1 .2-1.3.6-.3.7-.6.5-1.2-1.1.5-2.2 1.1-3.6.6-.6-.3-1.2-.2-1.8 0-.4.2-1 .4-1.4 0ZM17.4 40.1a1 1 0 0 0-.8-.3c-1.8-.4-3.5-.2-5.2 0-1.5-.2-3 .2-4.5.2-.2-.1-.4-.3-.6 0-.8 0-1.5 0-1.4-.7 0-.4.6-.6 1.2-.5 1 0 1.2-.7 2-.6h.7c1 .1 2 0 3-.2.9-.2 1.8-.1 2.8-.2.5-.1 1.3 0 1.4-.5.2-.6.7-1.4-.2-1.7-1.8-.6-.7-.8.1-1.2.4-.1.6-.3.6-.6h-.6c-.2 0-.3-.1-.3-.2v-.1l1-.5h.4c1 .7 1.8 1.4 2.1 2.3.2.9 1.7 1 2.4 1.6l.2.3c1.7 2.4 1.4 2.7-2.8 2.8l-1.5.1ZM151 12.2c2-.7 3.8-1.7 6-2.1 1.1-.2 2-.7 3 .2 0 .2.7 0 1.2.1 0 .7-2.2.6-1.4 1.6l-.8.2c-.7 0-1.2.2-1.7.6l.4.3c.5.1 1.2 0 1.2.5 0 .4-.5.5-1 .6-.8.2-1 .7-1.6 1-.6.3-.1.6.1.9-1.6 1.1-3.9.8-5.9 1-.3 0-.3-.4-.3-.5 0-.3.2-.6.5-.8 2-1.2 4-2.4 4.6-4.2-3 1-6 2-9.1 2.8-.7 0-1.3.3-2 0 .3-.8 1.2-1.4 2.4-1.6 1.2.3 2-.2 3-.4h1c0-.2.2-.3.4-.2Z" clip-rule="evenodd"/><path fill="#FFA065" fill-rule="evenodd" d="M27.8 8.5c-.2.2-.3.4-.8.3-.5 0-1-.4-1.7-.2-.1.5.6.6 1 .8.7.4 1 .9.5 1.6-1.6-.7-3.5-.9-5.2-1.4-.7.1-1.4 0-2.2-.1.1-.5.8-.7 1.4-.8.5-.1 1-.3 1.1-.6.4-1 1.2-1 2.3-.5l.6.2c.9-.3.6-.6.6-.8 0-.4.3-.6.8-.5 1 .1 1.8-.8 3-.2.1.1.4-.2.5-.3.6-.6 1.2-.6 2 0a19.4 19.4 0 0 1 2.2 2l1 1c.3 0 .5.2.6.4-.2 1-1 .6-1.7.4l-2-.9-.4-.2-.8-.5a1 1 0 0 1-.3-.2c-.2 0 .3-.3 0-.3h-1.1c-.3.4-1.4.2-1.4.8ZM120.4 6.6c-.4.5-.7 1-1.7 1.1-.4 0-.8.3-.8.6v.2c-.3.3-.8.5-1.3.6h-1.9c-1.2-1-2.5-1.2-4.1-.5l-13 .5c-1.3.1-2.7.6-3.8-.2l1.7-.4c6-.4 11.8-.9 17.7-1.7 2.1-.3 4.3-.5 6.3-1.1v.1c-.3.6-.3 1 1 .8Z" clip-rule="evenodd"/><path fill="#FFA065" fill-rule="evenodd" d="M93.8 9c3.2 0 6.3-.2 9.4-.5 1.5-.1 3-.2 4.5 0a7 7 0 0 0 2.8-.2c.6.2.7.6.7 1-.3.4-.8.5-1.3.6l-1.9.2c-6.7-.4-13.4-.4-20 0-5 .3-10 .6-15 .5-.7 0-1.6.3-1.9-.4.3-.2.6-.4 1.1-.3 7 0 14-.4 21-.9h.6Z" clip-rule="evenodd"/><path fill="#FFA065" fill-rule="evenodd" d="m72.2 9.9-1.1.4h-.3c-.3.2-.7.2-1.1.3-8.3.5-16.5.5-24.7 1-1.7.2-3.4.1-5-.5l-2.2-1.3a12.1 12.1 0 0 0-1.5-.7c-1-.6-2.3-1-2.7-1.9v-.4c1 .2 1.7.7 2.3 1 1.5 1.1 3.7 1.6 5.1 2.8l1 .2c2.5-.1 5 .2 7.4-.5.4-.1 1-.2 1.5-.1 2 .3 3.9 0 5.8 0 1.3.1 2.7.1 4-.1 1.4-.3 2.8 0 4.3 0 2.4 0 4.8-.5 7.2-.2ZM147.2 13c-1.5-.2-1.5 1-2.6 1.1.5.3 1-.2 1.5 0 0 .5-.5.7-1 .9-.5.2-1.1.5-1.7.6-.8.3-2 1-2.5.5-.4-.5-.3-1.6.7-2.2l2.8-1.4a8.5 8.5 0 0 0 4.3-2.2c.2-.2.5-.4 1-.5h.5-.5c-.7 0-1.3-.3-.7-.7 1.2-.7 1.5-1.8 3-2.3 1-.4 2-1.3 3.3-.4L154 7c-.2.3-.6.4-1 .5.4 0 .7-.3 1.2-.2.3 1.2-1.6 1.1-2.5 1.7h-.1c-.2.2-.6 0-.7.2.2-.2.4 0 .6-.1.8-.4 1.7-.6 2.7-.3-.2.6-1.1.7-1.6 1h-.6l.2.2c0 .5-.6.7-1.3 1h-.3c-.6.3-.8.7-1.2 1-.3.2-.5.4-.9.4s-.4.3-.5.5c-.2.1-.4.2-.7.1ZM6.5 44c.1.5.5.7 1 1 .4.1.2.7 1 .7.6 0 1.4-.2 2 .4-1 .2-1.8.2-2.6.2H6.6c-.4.1-.6.4-.6.6 0 .3.4.4.8.4 1.2 0 2.3.3 4 .2-1.3.8-2.6.6-3.8.9.4.4 1.1.3 1.4.7-.3.3-.9.4-1.4.4-1.6.4-2.9-.4-4.4-.4-.6-.1-.4-.3-.2-.5.4-.3.8-.5-.2-.6-1 0-.8-.5-.3-.7 1-.4 1.7-1 3-1.2 1.5-.3 1.5-.3 1.3-1.5 0-.2.2-.4.3-.5ZM6.6 39.8l4-.4c.6 0 .7.2.8.5-1.8.5-4 .5-5.6 1.3-1.1.6-2 1.2-1.5 2.2-1 .2-1.7.1-1.5-.7v-.8l1.7-1s.2 0 .1-.1c-.3 0-.6.3-1 .2l-2.1-.5c-.8-.2-.9-.7-.1-.9 2.2-.5 4.1-1.6 6.7-1.5-.6.4-1 1-2 1-.5-.1-1 0-1 .3s.7.2.9.5l.6-.1ZM4.5 57.4c-.8-.5-1-1.3-2-1.7.2-.4 1-.6 1.2-1 .2-.4 0-1 .6-1.2l.4-.3.3-.2.4-.3.8-.2 1.4-.3c2.1 0 4.3-.8 6.5 0-.1.4-.7.7-1.3.8-1 .2-2.6 0-2.1 1.3 0 .2-.7.3-1.1.3-1.1 0-2.5-.6-3.2.5-.4.7-1 1.4-.8 2.2l-.6.2a3 3 0 0 1-.5-.1ZM10.2 17.2c.1.3-.2.5.2.8.8 0 1.3-.7 2.2-.5.2.1-.3.5.3.3.7-.2 1.2-.6 2-.5h.1c.2 1.2-1.5 1.4-2.4 2-2-.4-1.4.9-2 1.4-1.7.5-1.9 1.7-2.9 2.5-.2-.1-.4-.3-.7-.3-.6 0-1.3.4-1.6-.1-.2-.4.3-.7.7-1 1-.7 1.4-1.7 2.8-2-.1-.6-1.1-.4-1.2-.9 0-.5.6-.6 1-.8l1.5-.9ZM150.4 16.4c.2.3.2.6.9.4.6-.3 1.3-.4 2-.3 1.2.3 2-.5 3-.4.3 0 .4 0 .5-.2 0-.2.3-.3.7-.3 1-.3 2.1-.3 3.1-.6.3 0 .6-.3 1-.3.6 0 1.3-.5 2 0s.5 1-.5 1.7h-.4v.2l-.4.1c-.4-.3-.7-.7.2-1.2-1.8.2-3.3.4-4.7 1-.5.7-1.6.7-2.6.8l-4.9.7c-.8.1-2 .3-2-.5-.2-.8.9-1.1 2.1-1ZM16.6 32.4c-.9-.4-1.5.2-2.2.2-.6 0-1.4.2-1.2-.5.8-.6 2-.8 2.8-1.4-.6.1-1.2.8-2 .2 0-.6-1.5-.3-1.3-1-.2-.8 1.8-1 1.3-2 .4-.3 1-.5 1.4-.3 1.1.6 2.2 1 3.8.7.5-.1.5.3.2.6-.4.4-1 .8-1 1.3-.2.8 0 1.7-1.5 2.2h-.3ZM149.5 59.4l-1-1c-.6-.7-.4-1.4.6-1.7.6-.2.6-.7 1.1-.8 1.3-.3 1.5-.3 1.3-.8-.1-.4.2-.7.4-1 0-.4.1-.6-.5-.8-1.2-.5-1.2-1.2 0-1.8.5-.3.9-.6 1-1 0-.1.1-.2.3 0 .2 0 .3.2.4.3.1.3 0 .6-.2.9-.1.3-.9.4-.8.7.2.4.8 0 1.1.2 1 .2.4.9.8 1.3-.4.5-1.9.7-1.5 1.6.3.7.2 1.2-.8 1.6-1.3.4-1.6 1.1-1.5 2 0 .2-.3.3-.7.3ZM11.2 28.9c-.5-1-1-1.9-2.6-2.4-.7-.2-.8-.6-.5-1 .4-.5.2-1 .3-1.6h.3c.7.3 1.2 1 2.2.4l.9-.2h1.1c.5.5.1.9-.2 1.2-.3.3-.2.4.3.5 1 .7-.2 1.4-.2 2 0 .2-.2.3-.3.4-.4.3-.7.7-1.4.7ZM156.1 22.2h.2l.2-.1c0-.2.2-.2.4-.2l.8-.3c.1.4 1 .3 1.2.8-2 .7-4 1.5-5.8 2.4-2.2 1.2-4.8 2-7.4 3-1 .2-2 .5-3 .5l6.1-2.2 3.7-1.7 4.3-1.7c0-.6-1.1.3-1-.3 0-.1.1-.2.3-.2Z" clip-rule="evenodd"/><path fill="#FFA065" fill-rule="evenodd" d="m6.1 52.7-.8.3c-1-.2-2.3 0-3.4-.3-.6 0-1.2.2-1.9-.1.7-.4 1.7-.1 2.4-.4 1.6-.5 3.4-.4 5.1-.7h1.2c1.2 0 2.4 0 3.6-.3H15c.8 0 1.7.2 1.2 1a3 3 0 0 1-2.2 0c-2.2-.2-4.3.2-6.5.3-.6-.1-.9.3-1.4.2ZM5 57.5l.4-.2c.9-.4 1.7-.2 2.4.2-.5.8-1 1.6-2.7 1.6-1.5 0-2.6.7-3.9 1-.3-1.3-.3-1.4 1.5-1.6a4 4 0 0 0 2.3-1ZM118.7 66c.6.2 1 0 1.4-.2.7-.3 1.4-.2 1.8.3-.3.1-1-.2-.8.4 0 .1.3.3.2.5-.4.4.2 1-.7 1.2-.9.2-1.1-.4-1.6-.6-1-.5-1.9-1-3-1.1.6-.3 1.2-.3 1.8 0 1 .3.7-.3 1-.5ZM151.1 45c-1.8-.6-1.8-.6-1-1.6.5-.7 1-1.4 1.4-2.3-1.3.5-1.2 0-1.3-.5l-1.6.7c.2-.6.8-1 1.6-1.3.3-.1.7-.5 1.3-.2.4.2.8.5.7 1 0 .6-.4 1.1-.8 1.7l-.7 1c-.2.4 0 .7.7.7.7.4-.3.5-.3.8ZM150.8 11c.3-.5 1-.7 1-1.2.7-.2 1.3-.4 2-.8-1-.2-1.8.3-2.6.1.3-.5 1-.7 1.6-1 .5-.2 1.2-.3 1.3-.8.6-.3.8 0 .8.3l-.4.3c1.5.5 1 .9 0 1.2-.8.3-1.5.7-2 1.2-.3.4-.7.8-1.7.6ZM121.9 66c1.4.2 2.4-.4 3.4-.9.2 0 .2-.4.6-.2.2 0 .4.3.4.4 0 .4-.6.8 0 1.2.3.1.1.4-.1.3-1.4 0-1.1.7-1.4 1.1l-.6-.1c-.2-1-1.3-1.3-2.3-1.7ZM150.2 59.1c.1-.4-.6-.7-.4-1.2.2-.2 0-.5.6-.6 1.5-.2 1.8-1 2-1.8.7.3 1.6.2 2.3.4.2.5-.4.6-.8.7-2 .4-3 1.4-3.7 2.5ZM158.7 19.5c-.2-.2-.3-.4 0-.6 0-.1 0-.2.3-.2l.7-.3c.3-.3.6-.6 1.2-.6h.4c-.2.7-1.4.8-2 1.3.7 0 1.2-.2 1.7-.4.4-.2 1 0 1.2.2.4.3 0 .5-.3.7-.6.2-1 .5-1.4 1-.3.5-1.1.8-2.1.7l.3-.1c0-.4.6-.6.7-1l1-.4c.2 0 .2-.2 0-.3-.6 0-1 .3-1.4.2h-.3v-.2ZM2.6 49.1c.2 0 .6-.2.8-.1 1.1.3 2.4.2 3.6.3.6.1.6.4.4.7-.3.3-.7.5-1.3.6l-.9.2h-.6c-.3 0-.6 0-.6-.3-.1-.2-1.9 0-.6-.8.8-.5-.7-.3-.8-.6ZM7.7 23.2c0-1.2.6-2.2 2.6-2.7.2 0 .3 0 .4.2l.1.7-.1.5c0 .4-1.3.4-.8 1-.4.4-.6.9-1.5 1l-.7-.7Z" clip-rule="evenodd"/><path fill="#FFA065" fill-rule="evenodd" d="m4 50.5.6.1c1.1.3 2.1-.1 3.1-.1 1.2-.1 2.4-.5 3.6-.2l.4.4-.1.3c-1 .4-2.1.3-3.2.4h-.6l-1.1.2-3.2.2c-.8 0-1.7 0-2-.6.7-.4 1.8-.3 2.5-.7ZM146.7 60.9c-.8.3-1.8.3-2.8.6.9.4 2 .2 2.9.7-1.3.6-2.6.7-4 .6v-.2l.2-.4-.2-.3v-.6l.2-.2.4-.2 1.9-.4c.4 0 1 0 1.3.2l.1.2Z" clip-rule="evenodd"/><path fill="#FFA065" fill-rule="evenodd" d="M1.5 51.2c.9.4 1.8.2 2.8.2.9 0 1.7-.2 2.6 0h1.3v.2l-.4.1c-1.8.4-3.5.6-5.4.4-.5-.2-1.3-.3-.9-1ZM2 52.7l2.7-.2c.6 0 .6.3.6.5l-.1.4-.3.1c-1.2.5-3 0-4 1-.4 0-.8-.3-.7-.6 0-.3.4-.6 1-.6.4 0 1.2 0 .7-.6ZM152.7 50.4l-.4.1c-.6-.6-1.5-1.3-.7-2.1.4-.4 0-.8-.3-1-.5-.6-.3-1 .3-1.3 0 1 .8 1.5 2 1.9-1.3.8-1.6 1.6-.9 2.4Z" clip-rule="evenodd"/><path fill="#FFA065" fill-rule="evenodd" d="M1 54.4c-.5-.4-.2-.7.6-.8 1 0 2.1-.2 3.3 0-.8.2-.7.7-1.2 1-.8-.6-1.8-.1-2.7-.2ZM14 30.8c.3 0 .8.2 1 0 .5-.3 1.2-.3 1.9-.5-1.1.9-2.4 1.4-3.7 1.8-.2-.4 1.3-.7 0-1 .2-.3.4-.4.8-.3ZM154 53.9c-.7-.2-1.5-.4-.6-1l-.2-.3c.9-.3 1.4-.3 1.8.4.2.7 0 .9-1 .9Z" clip-rule="evenodd"/><path fill="#FFA065" fill-rule="evenodd" d="m14 30.8-.7.3c-.7 0-2 .6-.8-.5l.2-.7c.7.2 1 .2 1.7 0 .4.3-.2.6-.4.9ZM137.4 64.2c0-1 1.2-1.4 2.5-1.6.3 0 .5 0 .6.3v.1l-3.1 1.2ZM14 28.1c.3 0 .8 0 1 .2.3.3-.3.5-.6.6a4 4 0 0 0-1.7 1l-.5-.4V29l.4-.3 1-.6h.4ZM149.5 59.4l.7-.3c.2 1 .3 1.1-1.2 1.5-.7.2-1.5.4-2.3.3.2-1 2.1-.4 2.6-1.1l.2-.4ZM33.6 6.8l.3.3c-.9.1.2.8-.7 1-.5-.8-1.7-1.3-1.5-2.2l.6.1c.4 0 .5.3.9.4l.4.4ZM147.2 13l.7-.2c0-.2 0-.3.2-.4l1-.5.4.1v.2c-.2.1-.2.2.2.2-.5.7-1.6.7-2.4.9l-.2-.1V13ZM160.6 15c-.9.4-1.9.7-3 .6.3-.4.4-1 1.6-.6.4.2 1-.1 1.4 0ZM152.5 55.5c-.7-.6-.5-1 .5-1.3.4 0 .7-.2 1-.3.1.2.1.5-.2.6-.7.2-.9.7-1.3 1ZM153.3 52.6c-.7.2-1.3.4-2.3.2.6-.5 1.2-.9 1.9-1.2 0 .4-.4.8.3 1ZM151.8 44c.3-.6 1.3-.8 1.9-1.4.7.6 0 .8-.2 1.1-.5.3-1 .5-1.7.4Z" clip-rule="evenodd"/><path fill="#FFA065" fill-rule="evenodd" d="M151.8 44c.5-.1 1-.5 1.7-.3-.1.3-.5.6-.6 1h-.4c-.6-.1-1 .1-1.4.3l.3-.8.4-.1ZM3.5 41c.5 0 .7-.9 1.4-.2-.4.6-1.2.8-2 1.1 0-.4.4-.6.6-1ZM12.4 29l-.2.5c-.7 0-1-.2-1-.6a3 3 0 0 1 1.2-.9c.7.4-.1.7 0 1ZM11.7 38c-.9.4-1.9.6-3 .2 1-.2 2-.3 3-.2ZM160.8 17.3l1.5-.6c.1.6-.4.9-1 1.1h-.1c-.3 0-.5-.2-.4-.5ZM142.8 62.8c-.8.2-1.5.6-2.4.2.2-.3.7-.4 1-.5.5-.1 1-.2 1.4.2ZM149.4 12.2l-.2-.3c-.2-.6 0-1 1.3-.8l-.3.8c-.3 0-.5.2-.8.3ZM15.6 33.5l.3.2a3 3 0 0 1-2 .3c.4-.5 1.2-.3 1.8-.5ZM131.7 67.5c.4-.2.8-.4 1.4-.2-.2.7-.8.4-1.4.2Z" clip-rule="evenodd"/><path fill="#FFA065" fill-rule="evenodd" d="M150.2 11.9c-.3-.4-.2-.6.3-.8.3.3.2.5-.3.8ZM152.9 44.6c-.1-.4 0-.7.6-.9.1.4 0 .7-.6 1ZM157.5 15.6l-.7.3c0-.2-.2-.4.3-.5l.4.2ZM152.9 51.7c0-.3 0-.6.2-.8.4.3.3.5-.2.8ZM124.8 68c.4 0 .6 0 .8.2a1 1 0 0 1-.8-.3ZM125.7 68.3c.3-.2.6-.2 1-.1-.4.1-.7.2-1 0ZM33.1 6.3a1 1 0 0 1-.8-.3c.4 0 .6.1.8.3ZM16.7 33c-.2-.2-.3-.4-.1-.6h.1c.5.2.6.4 0 .6ZM133.4 67.1l.2-.3-.2.3ZM131.1 67.4l.6.1h-.6ZM151 12.2l-.4.1c0-.2.1-.2.4-.1ZM4.5 57.4H5h-.5ZM139 2h-.3c0-.2 0-.2.2 0ZM163.1 16.4c0 .2-.2.3-.4.2l.2-.2h.2ZM156.8 16c0 .1-.1.2-.4 0h.4ZM8.8 38.2H8h.7ZM15.8 33.7l.7.1h-.7Z" clip-rule="evenodd"/><path fill="#FFA065" fill-rule="evenodd" d="M16.8 33c.2-.2 0-.4-.1-.6.8-.6 1.2-1.3 1-2.1 1.2-1 2.4-2.1 3.9-3a7 7 0 0 1 3.5-1c2.6 0 5.1-.6 7.7-.9 2-.2 0-1 .7-1.4 0 0-3.8-.4-4-.2-1 .8-1.5.2-2-.3-1-.8-1-1.9-1.7-2.8v-.3c0 .1 0 .2-.2.3l-.3.2c-1 .2-1 1.3-2 1-1.2-.3-1.5-1.2-1.5-2v-.3.2a3 3 0 0 1-2 .3c-.8-.3-1.5-.8-.5-1.2 1.5-.5 2.4-1.4 3.5-2.2.6-.4 1.2-.9 2.2-.7.8.1.7-.2 1-.5.2-.5.7-1 1.4-.2.4.3.7 0 .8-.1.7-1.3 2.6-1 4-1.2.7-.2 1.5-.1 2-.6.7-.5 1.4.2 2.2.1h.6c5.5.2 11 .2 16.5-.3H58a26.5 26.5 0 0 0 1.3-.2h5.1l2-.2h1.4l.6-.1c2.5-.3 5 .2 7.5-.4 5.9-.5 11.8-.6 17.6-1 6.3-.4 12.5-.7 18.6-1.7h1.3c2.1 0 4-1 6.1-.6.4 0 .2.6 1 .2.8-.3 1.4.3 1.7.7.6.8 1.4 1.3 3 1 .7-.1 1.2 0 1.4.6 0 .1 0 .2-.2.3-1.1.5-2.4.7-3.7 1.2 0 0 .4.1.2 0l.1-.1 1.3-.2c.4 0 .7 0 .9.3.2.3-.2.4-.5.5-2.6 1-5.6 1.6-8.5 2h-.8c-1.7-.4-2 1.3-3.3 1a6.5 6.5 0 0 0-3.5-.4h-.6c-5.6 1-11.2 1.3-16.8 1.3-.4-1.2 1.1-1 2-1l10.6-1c-18.6 1.9-37.4 2-55.8 3l3.4-.2c2 0 4.1-.5 5.8.8.4.3 1.1.1 1.7.2a34.5 34.5 0 0 0 1.8 0h.3c.6.2 1.3.3 2 .1H66l.6-.2.5-.2h.6l2.2.2h.5c.4.2.3-.2.5-.2l.5-.1c1.3-.2 2.7.5 4-.1l.5-.2h1.9c.9-.1 1.7-.2 2.5 0 .4.3.7 0 1 0 .6-.3 1.2-.3 1.8-.2 3.2.4 6.4-.5 9.6-.1.6 0 1-.4 1.6-.5l6.9-.6c2.3-.2 4.5-.5 6.9-.4a36.4 36.4 0 0 0 11.2-1.4c1.7.2 3-.8 4.6-.6 1.7.1 3-.5 4.6-.5.5 0 0-.3.2-.5.5-.4 1-.5 1.8-.5.7 0 1 .4.8.8-.2.2-.4 0-.6 0 .2.2.4.1.6 0 .3 0 0-.6.7-.5.5 0 .8.4.7.7-.4.9-.7 1.8-2.3 2.2a90 90 0 0 1-14.8 2.9l-10.4 1c-6.8.7-13.6 1.1-20.5 1.5-2.7.2-5.6.2-8.3.6-.2 0-.2 0-.1.1h.6c2 .3 4-.2 6-.3 2.4-.2 4.8-.1 7.2-.4 3.6-.4 7.4-.4 11-1h3c2.3 0 4.6-.3 6.8-.6 4.6-.7 9.3-1 13.7-2 2.5-.5 4.8-1.2 7.2-1.8.7-.2 2.1-1 2 .5.6-.1 1.3 0 1.7-.3l.8-.6c2.1-.6 2.6-.5 3.6 1 1.2 0 2.4-.2 3.6-.1 1.3 0 1.5.7.8 1-2.6 1.4-4.7 3-7.6 4.2a2 2 0 0 1-.8.2c.6 0 1.3-.3 2-.6 1.3-.5 2.9-.7 4.4-.8.8 0 .8 0 1.4-1.1 1.3.3 2 1 2 1.7-.1.7-1.2 1-1.9 1.6-1.5 1.1-4 1-5.4 2.2-.8.6-2.7.6-3.8 1-4.5 2-9.7 2.2-14.6 3-2.9.4-5.6 1.3-8.8 1 .6.4 1.8.5 1.5 1.2-.2.5-1 .4-1.7.4 3.2.4 6 1.5 9.2 2.1 3.1.6 6.4 1.2 8.8 2.8l.3.1c2.4 0 3.3 1.3 4.7 2.2.7.5 1.5 1 2 1.6 1.2 1.5 3.6 2.3 5.3 3.5 1.2.8 2.4 1.5 2.4 2.8 0 .3 0 1 1 1-1 1.4 1.7 2.7.5 4.2-.1.1-.2.3-.5.4-1 .4.7.3.3.6v.5c1 1.8 1 1.8-1.5 3-.4.3-1.1.5 0 .8.2 0 .5.2.2.2-1.3.3-.6.8-.4 1.2.3.9-1 .9-1.5 1.2-.7-.2-.8-.7-1.1-1.2-.3-.2-.3-.7-.9-.7-3-.3-3.4-1.9-4.3-3.3 0 .6-.3 1.1-1 1.4-1 .5-1.4-.2-1.8-.6-.3-.2-.7-.2-1 0-.4 0-.3.2-.3.4 0 .5-.4 1.2 1.2 1.2.5 0 .5.4.4.7l-.4.3c-2 .8-3.7 2.2-6.5 2v.1h.1l.5.3c0 1.1-2.5 2-4.2 1.4-1.4-.6-3.3-.4-4.3-1.4-.3-.2-.8-.1-1.3 0-3 .3-6 .2-9 .7-.9.2-1.8-.2-2.7-.3-2.8-.6-5.5.3-8.3 0-2.7-.3-5.6 0-8.4 0-6.4.3-12.7 0-19-.2l-10.8-.2c-6.8-.3-13.6 0-20.3-.3-4-.1-8.1.2-12.2 0-.5 0-1 .2-1.5 0a6.6 6.6 0 0 0-3.8-.4c-.8 0-1.6-.1-1.7-.8l.4-.2h.6-.7c-.9.3-1.8.3-2.3-.3-.6-.7.1-1.3 1-1.8.2-.2.6-.3 1.1-.3 4.2-.1 8.5.3 12.7.2 3.8-.2 7.5 0 11.2-.3 1 0 1.7-.2 2.5.5.5.4 2.1.2 3 0 1.1-.5 1.9-.4 2.7.2.5.3 1 .4 1.8.3a90 90 0 0 1 16.6-.3c1.8.2 3.5 0 5 .8.8.4 2 .4 3 0 1.6-.7 3.3-1 5.2-.6 1.6.3 3.3 0 4.9-.1 1.1 0 2.2-.1 3.2.3.3.1.1.4.3.6.1.1 0 .2 0 .2s.1 0 0-.1v-.7c1.4-.5 3-.8 4.1-.2.5.3.6.3 1.2.2h1.7c.2.2.5.3.8.1 3.6-.2 7.2-.6 10.9-.6.6 0 1.2 0 1.5.4.3.2.1.4-.8 1.1 1.5 0 2.7 0 2.5-1.2 0-.5.6-.8 1.2-.6 1.5.3 3-.2 4.4.2 1 .3 1.5 0 2-.7.4-.4 1-.5 1.5-.2s.6.7 1 1c1-1 1.6-1.9-.2-3-1.3-1 1.1-.8 1.7-1.2-2.5.5-5 .3-7.3-.7-.6-.2-1.3-.4-1.7.2-.7 1-2.1 1-3.5.9-3-.3-5.7.3-8.6.3-2.6 0-5.3 0-7.9-.3-1.9-.2-3.8 0-5.7 0l-9.2.4c-1 0-1.8-.4-2.8-.3h-.6c-4.3-.2-8.5-.3-12.8 0-1.4.2-2.7-.2-4.1-.2h-4.5c-.2-.1 0-.3-.2-.3-.1 0 0 .2-.3.2-4.6-.2-9.2-.5-13.8-.1H39c-5 .1-9.9-.3-14.9 0-1 0-2.3.3-2.8-.7-.2-.7.3-1 1.5-1.3 2.9-.5 5.8-.4 8.8-.4 7.6.5 15.2-.1 22.8.2 10.3.4 20.7.3 31 .5 5 .1 10 0 15.5-.2-2.4-.6-4.4-.3-6.3-.2-5 .1-10 0-14.9-.1l-15-.1c-7.2-.2-14.4-.6-21.7-.4h-8.6l-.6-.1h-2c-2.5-.1-5 .2-7.3-.1-.6 0-1.2 0-1.5-.5 0-.3 0-.6-.7-.6-.9 0-1.7-.2-2.6 0-.8 0-1.4 0-1.4-.7l-.6.1h-.3a.6.6 0 0 1-.3-.3v-.2l.5-.1c1.1-.4 2-.3 2.9.4l.7-.4c2.1-1.3 4.1-1.5 6.9-.5.5.2.9.3 1.3 0s.8-.1 1.2 0c.7 0 1.5.2 2-.3.2-.3.6-.2 1-.1 1 0 2 .3 3-.1h.6c1 0 .8.9 1.7.9.8 0 .9-1 2-.5l1-.1c.8-.4 1.6-.4 2.4-.3 3.1.2 6.3-.4 9.3.2 1.6.3 3.2.5 4.7.4h4.3c2.8-.2 5.6.1 8.4 0a22 22 0 0 1 6.9.5c.5.2 1 .1 1.2 0 1.4-.5 3.5.4 4.8-.7-1.5-.4-3-.7-4.7-.5-1.4.2-2.8 0-4-.5l1.4-.3c-.3-.4-.9-.6-1.5-.6h-7.3c-1.1 0-2.2-.2-3.3-.1l-7.7-.1-5.6-.4h-9.7c-3.8.1-7.7.1-11.4.3-2.2.1-4.2-.6-6.4-.3-2.1.2-4.4 0-6.6 0-1 0-2-.5-3.1 0-.4.2-.9-.3-1-.6-.2-.4.4-.4.8-.4.5-.1.5-.3.3-.6-.8.4-1-.6-1.8-.3-.2 0-.3-.5.2-.6.6-.2 1.2-.2 1.9-.2 1.5 0 3 0 4.4-.4 0-.3-.2-.6.6-.6.7 0 .5-.3.5-.5 1.5-.4 3-.2 4.5-.2 4 0 8 0 12.1-.3 2.6-.2 5.4 0 8.1.2.5 0 1 0 1.6-.5-1.7.6-2.8-.1-4-.4-1.2-.1-1-.8-.4-1.3-.6.3-1.1.9-1.9.4-.8-.5-1.3-.4-2 .1-.3.2-.9.3-1.1 0-.5-.7-1.8-.8-2.5-1.4-.5-.5-1.1-.6-2-.7-1.4-.2-3 0-4.4-.7-.7-.5-1.7 0-2.5.2-1.3.5-2.8.8-4.3 1-1.4-.3-2.5-1-2.7-2 0-.4-.4-.8-1-1-.5-.2-.6-.5-.6-.9Z" clip-rule="evenodd"/><path fill="#FFA065" fill-rule="evenodd" d="m21.1 37 1.2-1c1 .7 1.4.2 2-.2.6-.4 1.5-.1 2.2-.5.7-.4 1.5-.4 2.1.2.4.4 1 .7 1.9.4.5-.2 1-.1 1.4.1.7.5 1.6-.4 2.2 0 .4.4.4 1.2 1.1 1.2 1.5 0 1.4.9 2.2 1.3 1-.3 1-1.1 1.7-1.6.8 1.7 1 1.8 3 .5.3.4-.3.7-.4 1v.5c.8.8 2-.3 2 .1.4.9 1 .9 1.8.4.4-.2.7-.3 1.1 0 .6.2.1.5 0 .7-.6.4-1 .8-2 .4-1.3-.5-2.8 0-4.2 0-2.3-.4-4.5 0-6.8 0-2.6.2-5.2.3-7.8.2-2-.1-4 0-6-.2-.7-.4-1.6-.2-2.4-.4.8-.7 2.1-.3 3.2-.6.5 0 1 .2 1.5 0 0-1-.7-1.7-1-2.6ZM31.6 50.9c-1.7 0-3.4.2-5 .1s-3 .5-4.5.5c-.8 0 .1.7-.7.8-1.7 0-3.4.7-5.2.1.9-1.2.7-1.3-1.9-1.7-1 0-2.2-.2-2.2-1.1l-.4-.1c-.1-.1-.2-.2-.1-.3.7-.6 1.4-.6 2.2-.1l.2.2c1.6-.4 2.8.6 4.4.4 1.5-.2 3 0 4.6 0 1.8.2 3.7.3 5.6.2 1.1 0 2.2 0 3.3.2.8.4.7.7-.3.8ZM46.4 45.6a7781.6 7781.6 0 0 1 17.2.5c-.5.3-1.1.3-1.8.3l-15-.6-.4-.2Z" clip-rule="evenodd"/><path fill="#FFA065" fill-rule="evenodd" d="M46.4 45.6c-2.8.5-5.7.4-8.6.5h-2.4c-.5.1-1 .1-1.3-.2.3-.2.7-.3 1.2-.3l9.9-.2 1.2.2ZM75.2 46.2l-.4.3-10-.1-.6-.2.8-.2c3.4 0 6.7-.2 10 .1h.2ZM11.4 39.9c.6-.4 1.1-1 2.3-.6.5.2 1.3 0 2 0 .6-.1.8.1.9.5-1.8.3-3.5.1-5.2 0ZM34 45.9l-3.1.4c-1 .2-1.4-.5-2.3-.6 1.9-.4 3.7-.2 5.4.2ZM7.1 50c.2-.3 0-.5-.1-.7.4-.2 1-.1 1.4-.2l.3-.1h.7l2.4.4c.3.1.3.3.2.4l-.4.2-.8.1H9.6l-.5.1h-.7c-.5 0-1 .2-1.3-.2Z" clip-rule="evenodd"/><path fill="#FFA065" fill-rule="evenodd" d="M11.8 49.4c-.9.1-1.7 0-2.4-.4.7 0 1.5-.3 2.2.2l.2.2ZM17.6 48.4c0 .2.1.5-.1.5-.6 0-1-.3-1.1-.6-.1-.3.2-.5.8-.4-.1.3 0 .4.4.5ZM28 45.6c-.6.3-1.2.5-2 .1.7-.2 1.3-.4 2 0ZM26 45.7c-.4.2-1 .3-1.1 0-.2-.3.4-.1.8-.1l.3.1ZM63.6 46.1ZM9.4 49h-.7.7ZM28.2 45.9Z" clip-rule="evenodd"/><path fill="#FFA065" fill-rule="evenodd" d="m28.6 45.7-.3.2-.3-.3.6.1ZM126.1 60.7c-.8.3-1 0-1-.5 0-.3.2-.5.8-.4 2 .5 3.3-.2 4.6-1 .6-.3 1.1-.7 2-.7.2-.2.5-.4 0-.6-.4-.1-1.3 0-2.2.3.2-.7 1.5-1.3.3-2-.2-.2.7-.6 1.1-.6.6-.1 1.4-.2 1.5.3.1.4.3.9 1 .7.3-.1 1-.6.8-1.1-.1-.3-.3-.5 0-.7.9 0 1.2.6 1.3 1 .2.7 1 1.2 1.6 1.8.4.4.8.8 1.7.5.6-.2 1 0 1.2.4.2.7 1 1.3 1 2l-.4.2-.4.1h-.1l-.1-.1-.4.2c-.2 0-.4.2-.7.1-1-.5-2.2-.4-3.2-.7-.3-.4-.4-.2-.5 0-1.2.4-2.4.7-3.1 1.5-.5.6-1.6.7-2.5.7-2.4.2-3.9 1.3-5.6 2.1-.7.2-1 .7-1.6 1-1-.4-2-.5-3.1-.7-.3 0-.6 0-.8-.2-2-1-4-.4-5.8.1-4.4-1.2-9-.6-13.4-.6-10.3.2-20.5 0-30.8 0-10.1 0-20.2-1-30.4-.4-3.3.2-6.6 0-10-.2-1.7-.1-3.5.3-5 0-4-1-8-.8-12-1.5-.3 0-.5-.2-.7-.3-.1-.3 0-.5-.2-.8l.2-.2c-.2 0-.2 0-.2.2.1.3.3.5 0 .7-2.2 0-2.5-.4-1.5-1.8h.6l-.3-.2c-.3-.5 0-.8.8-1l3.5-1.4c1.5-.4 3-.4 4.3.3l-.3.3c-1 .2-.7.7-.6 1 0 .5.8.4 1.3.4l.8.1c-.2.7.6.8 1.2.7 1.4-.1 2.9-.7 3.9.5h.4c1.7-.3 3.4.1 5 0h4.7c3-.3 6.1 0 9.2 0 2.5 0 5.2-.4 7.8.1 1 .3 2-.2 3.1-.2.3 0 .6-.3.8-.1 2.3 1 4.9.2 7.3.4 2 .2 4.1 0 6 0a391.7 391.7 0 0 0 23 .4c2.4 0 4.9-.3 7.3.2.9.1.9 0 2.5-.6.4-.1 1.1 0 1.5.1.6.4 1.3.4 2 .2h.9c1.1.6 2.2.4 3.4.2a19.5 19.5 0 0 1 6.4-.2c1.4-.2 2.7 0 3.8.6h.4c1.2-.7 1.7.1 2.4.5.4.2 1.1.6 1.6 0 .3-.5.8-.2 1.3-.2 1 0 1.1-.2.6-.9ZM145 53.2c-.6-.3-1.1.2-2 0 1-.5 2-1 2.2-1.9.2-.4 0-.4-.6-.6-.8-.2-.8-.8-.5-1.8 0-.2 1.6-1-.3-.7.1-.6-1.3-1-.8-1.6l.2-.8c-.3-.4-1.1.6-1-.2 0-.6-.3-.9-1.1-1-1-.3-1-1-2-1.3-1-.3-1.7-.9-2.4-1.4-.6-.4-1.5-.8-1.6-1.6 0-.4-.7-.5-1.2-.7-1.2-.5-2.4-1-1.9-2.4-1.4.8-2.4.5-3.2 0-1-.7-1.7-1.4-3.3-1.3-1-1-3.3-.5-4.4-1.4-.2-.2-.7-.3-1-.2-.9.2-1.5 0-2.1-.3-2-.6-4-1.1-6-1.4-.8-.1-2-.2-1.7-1.2h.6c.5.2 1.3.5 1.5 0 .2-.5-.7-.4-1.2-.5l-.7-.2c-.3 0-.6 0-.5-.3.1-.2.3-.5.7-.5h2.2c1.7 0 3.4 0 4.9-.7.6-.3 1.4-.2 2.1-.3 1.7 0 3.1-.7 4.7-.7s3-.7 4.4-.7c1.6 0 2.7-.5 3.9-1 1.3-.6 3-.8 4.4-1.2.4 0 1-.1 1.2-.3 1.3-.8 1.4-.9 3-1.1.6-.1 1.1-.1.6-.7-.3-.4.3-.4.7-.4.7-.2 1.4-.1 2-.8.4-.5.5-.7 0-1.1l-.9-1c-.3.6.8 1.3-.3 1.4-.5 0-1.8.8-2-.5l-.3.3c0 1 0 1.1-1.6.6-.8-.2-1.4-.3-1.8.3-.4.7-1.5.3-2.3.6-.3.1-.5-.3-.5-.5 0-.6.4 0 .6 0 1.2 0 2.3-.6 2.7-1.5 0-.2.2-.3.4-.5.4-.4 1.4.7 1.6-.3.2-.5 1-.6 1.5-1 .6-.3.9-.8 1.9-.9.4 0 .5-.3.4-.5-.2-.4-.6-.2-1-.1-.9.2-2-.3-3 .3-.2.2-1 0-1.4-.2 2.8-1.5 6-2.4 9.3-3.4h.6c.6 1-.8 1.2-1.5 1.6-.3 0 0 .3 0 .2 0-.1 0 0 .2 0 1.3 0 1.5.3.6 1-.6.4-1.4.7-1.3 1.4l.5.2h1.1c.9-.2 1.5-.7 2.4-.7.2-.2.4-.4.8-.4 2.2 0 4.3-.4 6.4-.8.6.3 1.3 0 2 .2-.6.4-1.4.7-1.6 1.3 0 .1-.3.4-.7.3-1.8-.7-1 .4-.9.6.6.7.1 1-.7 1.2-1.7.5-2.7 1.7-4.6 2-.5.2-.8.8-1.1 1.1-.2.8-1.8.8-2.1 1.5 0 0-.6.3-.7.6-.2.6-.8 1-1.8.6-.4 0-.4 0-.6.2-1 .5-1.5 1.4-3.2 1.3-.5.8-1.8.7-2.6 1.2-2 .1-3.8.4-5.2 1.3-1 .6-2.4 0-3.6.4-1.6.8-3.3 1.4-5.7 1.6 1.9 1 3.4 1.7 5.5 1l1.1 1.4c.5.7 1.4 1 2.5 1.2 1.3.2 1.3 1 2 1.6 1.5 1 3.4 1.5 4.4 2.7.2.3.8.1 1 .3l.9.4c-.7 1 1.3 1 1.2 1.8 0 .6.7 1.2.7 1.8 0 .4.3.5.7.6 1.8.5 1.7.5 1.5 1.8l.1.3 1-.2.1.2c-.3.5-2 .7-.5 1.4l-.5.8c.6.2.9-.4 1.7-.1l-2 .8c.3.2.9.2 1 .4.5.4 1.6.8.7 1.4.7 1-.7.9-1.4 1-.7.1-1 .4-1.6.7ZM149.3 59.8c0 .3-.3.5-.8.5l-1.8.5h-1.3c0-.5-.7-.8-.5-1.2.1-.2.3-.2.5-.2l1 .2-1-.2-.3-.1v-.1c-.1-.6.3-1 1.2-.9l1.2 1.2c.4.5 1 .6 1.8.3Z" clip-rule="evenodd"/><path fill="#FFA065" fill-rule="evenodd" d="m145 59.6.5.5c.5.2.3.4 0 .6l-2.1.5-.4.1c-.8.5-1.8.4-2.7.5 0-.6 1.1-.7 1.4-1.3l.2.3c.2 0 .3 0 .4-.2l.1-.4h.2l.2-.1c.6-.1 1.3 0 1.7-.4l.4-.1ZM132.7 33.6l-1-1c-.3-.4.4-.6.9-.8.6-.2.9 0 1 .4.3.4.6.7.7 1.1.3.5-.2.6-.8.6-.2-.2-.4-.3-.8-.3ZM146.3 58.3c-.6.2-1 .5-1.2.9-.4-.2-1 0-1.1-.4-.1-.3.3-.5.8-.6.6-.1 1.1-.3 1.5.1Z" clip-rule="evenodd"/><path fill="#FFA065" fill-rule="evenodd" d="M144.5 59.7c-.3.7-1 .4-1.7.4a4 4 0 0 1 1.7-.4ZM145 59.2l.3.2-.4.2.2-.4ZM142.4 60.2l-.1.4.1-.4ZM142.3 60.6c0 .2-.1.3-.4.2l.2-.1.2-.1ZM155.3 6.4c-1.5-.5-2.3.5-3.4.8l-.4.2c-.5 0-.8.2-1.3.4a5 5 0 0 1-.5 0c-1 .3-2.2.3-3.2.6-.6.2-1.5.4-2-.2-.3-.4.6-.6 1-1l.3-.3c.3-.3.6-.6 1.3-.7h.3c.3.4.1.7.2 1 1.4-.2 2.7-.5 3.3-1.5.2-.4 1.4-.4 2.3-.6-.4.6-1.5.5-1.9 1.2 1.1-.4 2.1-.7 3.2-.8 1.3-.2 1.4 0 .8 1ZM137.3 5.6l-1.7 1c-.3.6-1 .9-2 .7.2-.8 1.5-1.3 1.7-2-.3.3-1 .5-1.7.7l-2.6.7h-.6c-1.2-.6.5-.8.5-1.2 1.8-.2 2.9-1.2 4.4-1.8.5-.1.4-.1 1 .4.5.4 1.2 0 1.7 0 .1.6-1.3.9-.7 1.5Z" clip-rule="evenodd"/><path fill="#FFA065" fill-rule="evenodd" d="m138.7 6 2.7-1c.3 0 .8 0 .9.2.4.7 1.4.4 1.5.2.5-.7 2.3.2 2.5-.9l1.3.3c.6.1.4.3.2.6-.2.6-.1.7-.5.9h-.4c-.5.2-1.1.4-1.6 0-.6-.5.9-.4.8-.8-1.6.7-3.3 1.5-5.3 1.7-.7 0-1.6 0-1.3-.6.3-.7-.7 0-.7-.4V6ZM130.9 5.5c0 .3 0 .5-.5.7-.3.1 0 .3 0 .5-.2 1-2 1-3 1.6-.5.2-1.1.5-1.9.5-1-.3-1-.6-.3-1 .6-.5 1.5-.7 2-1.1l.5-.4c.7-.3 1.5-.6 2.4-.5l.8-.3Z" clip-rule="evenodd"/><path fill="#FFA065" fill-rule="evenodd" d="m130.1 5.8-2.3.9h-1c0 .2-.2.2-.4.3l-.5.2a6 6 0 0 1-1.4.4c-.5 0-1.1.1-1.4-.4l1.6-.5c.2 0 .3 0 .3-.2 1.5-.6 3.1-1 4.8-1.2.9-.2.1.3.3.5ZM133.5 7.1c1 .2 1.4-.3 2.1-.5.7.2 1-.1 1.6-.3.5-.1.9-.4 1.5-.3 0 .4-.4.6-.8.8l-2.6 1c-1.4.2-2.5.8-3.7 1.2a5.6 5.6 0 0 1-1.4.3l-.6-.1c.3-1.2 2.2-1.3 3.2-2h.7Z" clip-rule="evenodd"/><path fill="#FFA065" fill-rule="evenodd" d="m123.1 7.2 1.2.2c-1.4 1-2.6 1.2-3.8.5.2-.2.5-.3.9-.3l1.7-.4ZM118 8.3c.3-.1.7-.3 1.3-.2l-.1.2c-.4.3-.8.5-1.3 0Z" clip-rule="evenodd"/><path fill="#FFA065" fill-rule="evenodd" d="m121.4 7.6-.8.3c0 .2-.2.2-.4.2s-.2-.2-.2-.3c.4-.1.8-.4 1.4-.2Z" clip-rule="evenodd"/><path fill="#FFA065" fill-rule="evenodd" d="m120 7.8.3.3c0 .2 0 .4-.5.5-.3 0-.5-.2-.5-.4V8l.7-.3ZM154 7.3c-.2 0-.5.3-.9.2.1-.3.5-.3.8-.5l.2.3ZM137.3 5.6h.5c0 .2-.3 0-.5 0ZM120.4 6.6h.3-.3ZM125 6.5c0 .2 0 .2-.3.1H125v-.1ZM14.2 57.2c-1 .6-2.2 1-3.4 1.3-1 .2-.7.6-.7 1-.7.3-1 .8-.6 1.3.3.5 1 .5 1.7.3 1.4.6 3.2.7 4.8.7 1.2 0 2.7.6 4 0 .2-.2.5 0 .7.1a6 6 0 0 0 4.4 1c1-.2 1.9-.1 2.8-.1 3 0 5.9 0 8.8.2 4 .3 8-.2 12.1-.1 3.1 0 6.3 0 9.4.3 4.6.4 9.3.2 13.9.2l10.3.2h11.4l13-.2h3.7c1.2.2 2.2.4 3 1-.9.5-1.6.7-2.7 0-.7-.3-1.9-.7-2.7.1-.3.3-.6.3-.9.2-1-.4-2-.4-3-.3-2.4.2-4.9 0-7.3-.2-2-.1-4 0-6 .1l-10.4.2c-1.5 0-3 0-4.4.2-1 .1-2.2 0-3.3-.2a36 36 0 0 0-6.5-.2c-2.5.1-5-.1-7.5-.2-.3 0-.7-.2-1 0-.9.3-1.7.1-2.6 0-1-.2-2-.5-3.2-.1h-1c-2.2-.5-4.5-.3-6.7-.3l-11.2.2c-.7 0-1 .3-1.6.3-1.4-.2-2.7 0-4.2-.3-1.8-.3-4-.1-5.9-.2-1.6 0-3.3-.2-5 0-1.2.3-2.3 0-2.9-1-1.4 1.4-3.2.4-4.7.5-.4 0-.6-.3-.6-.6.3-.7 0-1.2-1.3-1.4-.3 0-.4-.3-.6-.4-.4-.3 1.4-.6 0-.8-.4-.1-.8-.4-1.5-.4-.4 0 0-.3.3-.5 1-.3 1.5-1.2 2.5-1.6a11 11 0 0 1 6.6-.3ZM130.3 32.9c-.8.1-.8.8-1.6 1-.9.2-1-.7-1.7-.7-1.3 0-1.7-.8-2.7-1.2a2 2 0 0 1 1.3-.6c1.7 0 2.9-.8 4.3-1.2 1-.3 1.7-.9 3-.3.3.1.6-.1.8-.3.8-.6 2-.8 3-1 .9-.4 1.7-.1 2.6 0-1.9.4-3.3 1.5-5.4 1.6-.6 0-.6.4-.8.7-.1.2-.3.4-.8.4-.7 0-1.8.9-2 1.5ZM159.4 20.2c.1.4-.1.8-.7 1l-.5-.3c-.2 0-.4-.2-.4-.3 0-.3.4 0 .6-.1.4 0 .7-.2 1-.3ZM160.8 17.3l.4.5-1.5.6c0-.5.4-.8 1-1ZM159 19.7c.4-.1.8-.3 1.3-.2-.4.2-.8.4-1.4.2ZM159 18.7l-.4.2c0-.2.1-.3.4-.2ZM156.9 21.9l-.4.2c0-.2 0-.3.4-.2ZM156.1 22.2l-.4.2c0-.2.1-.3.4-.2ZM158.7 19.5l.2.3c-.3 0-.4-.1-.2-.3ZM25.8 20.3c1.4 1 1.1 2.2 2.2 3.2l.4.5c.7-.8 1.4-1 3.2-.8.7.1 1.1.8 2 .4.2.1.5.3.5.5s-.7.6.3.6c.5 0 .7.2.6.5 0 .2-.4.4-.8.4-1.5-.2-2.8.5-4.4.6-1.5 0-3 .4-4.6.4-1.3-.6-2.4.6-3.5.3s-1.1-1.4-2.4-1.7c-1.7-.4-3.5-.2-5.2.3l-.5-.2c-.8-.2.1-1-1-1.2l-.8.2-.7.2c-2 .1-2.3-.5-1.3-1.8-.5-.6.6-.6.7-1 .8-.8 1-1.7 1.6-2.6 1-.6 2.2-1 3-1.8 1.3-.2 2.2-1 3.3-1.4 0-.1.2-.2.4-.1 1.6 0 2.6-1 4.2-1.1.7 0 1.4-.4 2.1-.6-.1-.5-1-.3-1.3-.7-.1-.1-.6-.2-.4-.4 1.4-1-.3-1.3-.8-1.8 0-.1-.4-.2-.2-.5 1.7.3 3.5.4 4.8 1.3 2.3.8 4.7 1.3 7.2 1.5-.3.4-.4 1-1.5.8-.6-.1-1.5-.3-1.7.4h-.4c-1.4-1-1.6 0-2 .6v.1c-.3.5-1.1.7-1.6.7-.8 0 0-.7-.4-1-1.1.4 0 1-.6 1.5-.8-.2-2.3-.7-2.4-.2-.2.7-1.5.5-1.5 1.3 0 .7-1.5.9-2.3 1.4-.2 0-.9-.1-.7.3 0 .2.4.5 1 .4l1.6-.3.7 1.2.9 1.4c0-1.4 1.4-1.4 2.4-1.8Z" clip-rule="evenodd"/><path fill="#FFA065" fill-rule="evenodd" d="M34.4 13.5c-1.4.5-2.6.3-3.8-.2-1.1-.5-2.7-.3-3.4-1.2l4.3.3c-.7-1.1-.8-2.2-2-3-.6-.3-1.3-.5-1.2-1 0-.2 0-.3.3-.3l.7-.1h.5l.2.2.1.2c.2 0 .3.2.4.4l.2.3c0 .2.2 0 .3 0 .4 0 .8 0 1 .2l.5.4.2.1.2.3c.2.3.6.4 1 .6 1.9 1.6 4.9 1 7.4 1.5 2.1 1 4.6 1 7 .7 1.2-.1 2.4-.3 3.6-.2.8 0 1.8 0 1.9.8-4.4.5-8.8.5-13.2.5-1.3 0-2.7.2-4-.3l-.7.3c-.5.1-1 .2-.9-.4 0-.3-.4 0-.6 0Z" clip-rule="evenodd"/><path fill="#FFA065" fill-rule="evenodd" d="m28.6 8.2-.3.1-.5.2-.7-.5c-.1-.2.1-.4.1-.4.9.6 1.5-.6 2.3-.1h.6c.2 0 .3.1.3.2v.1l.2.2c.6 0 .6.5 1.1.6 1.5 1 3.4 1.6 5 2.6l.1.4c-1.8.7-2.4-.7-3.6-.9-.2-.2-.7-.2-.5-.5V10h-.2c-.4-.1-.5-.3-.5-.5l-1.2-.2-.2-.1V9c0-.4-.8-.4-.8-.7v-.2c-.1 0-.2-.1-.2 0-.3-.2-.6 0-1 0ZM18.8 15.8l-.4.1c-.8-.2-1.6.1-2.4 0 .5-.5 2.5-1 4.8-1.3l.3.1v.2l-2.3.9ZM15 17.3l-2.6 1.1c-.2.1-.4.3-.7.1-.4-.2-.3-.4 0-.6l1-.4c.7-.2 1.4-.7 2.2-.2ZM22.4 14.5l-.1-.1c-.1-.1 0-.2.1-.1h.1l-.1.2Z" clip-rule="evenodd"/><path fill="#FFA065" fill-rule="evenodd" d="m21 14.9-.2-.3c.2 0 .4-.2.6 0l-.4.3ZM124.8 64.2c.4-.5.7-1 1.7-1.2.9-.3 2.6-1 3.3-1.1 1.2-.2 2.5-.2 3.1-1.2.6-.7 2-.9 3.2-1 0-.1.2-.2.4-.1.2.2.5.2 1 .1 1 0 1.7.3 2.2 1-.5.1-1 .5-1.2-.2-.7.5-1.1 1.2-2.4 1.2-.5 0-.6.2-.7.4l-.3 1.3c-1.5-.5-1.4-.5-2.6.3-1 .6-1.7 1.3-2.1 2-1 .2-1-1.5-2-.2l-.5-.1c-.3-.4.2-1.3-1.3-.7-.4-.5-1.2-.4-1.8-.5ZM140.3 61.8c.7-.5 1.7-.5 2.7-.5v.7c0 .1-.2.2-.5.2h-.9l-.5-.1-.6-.1-.2-.2Z" clip-rule="evenodd"/><path fill="#FFA065" fill-rule="evenodd" d="M141.1 62h1c.4.4 0 .6-.5.6l-1.2.4-.5-.4c.4-.1 1.2 0 1.2-.5ZM139.7 60.6l1.1-.4.2.2c-.4.2-.8.4-1.3.3ZM140.5 62h.6-.6ZM6.6 39.8v-.2c.1 0 .1 0 0 .2ZM144.6 14.8l1.5-.7c3.2-1 6.5-1.9 9.6-3h1c-.6.8-1.5 1.3-1.9 2-.1.3-.3.4-.2.7.2.2 0 .5-.3.6-1.4.2-2.2.9-2.9 1.5h-.4c0-.7-1.7-.8-1.7-1.5 0-.1 0-.2-.2-.2h-.4c-.9 0-1.8.1-2.6.5-.4.1-.9.6-1.4 0Z" clip-rule="evenodd"/><path fill="#FFA065" fill-rule="evenodd" d="m148.7 14.1.4-.1c.3 0 .6-.2 1-.1.2.3-1.3.7.3.8 1 .1 1 .7.6 1.2l-.6.5-1.6.7c-.2.1-.3.3-.2.5.1.3.5.3.8.2.4 0 .8-.2 1.3-.1-.7.3-1.4.5-1.9 1-.3.2-.7 0-1-.2l-.4.2h-1c-.7-.5-.8-1 .2-1.5l1.6-1-.3-.1c-.6-.4-1.4.4-1.7 0-.5-.7 1-.6 1.4-1 .4-.3 1-.5 1.1-1ZM33.2 8v-.5c-.8-.9.3-.3.7-.4.7.9 2.3 1.2 3 2 0 .4-.3.5-.8.6-.3 0-.6 0-.9-.2a28 28 0 0 0-.5-.4c-.6-.2-.6-.7-1.3-.9l-.2-.2Z" clip-rule="evenodd"/><path fill="#FFA065" fill-rule="evenodd" d="m35.2 9.5.6.1c.3 0 .4.1.6.3.2.5 1.1 1 0 1.5-1.8-.7-3.5-1.6-4.7-2.8.8.3 1.9.3 2.4 1 0 .1.8.4 1.1 0ZM33.4 8.2c.8.1 1 .5 1.3.9-.8 0-1-.5-1.3-.9ZM31.7 8.6c-.6 0-.8-.3-1.1-.6.7 0 1 .1 1 .6ZM30.3 7.8l-.2-.2c.4 0 .4 0 .2.2ZM30.1 7.6l-.6-.1h.6ZM119.3 8.2c.4.4.7.1 1-.1l.3-.2a8 8 0 0 0 3.7-.5l1.6-.6.4-.1h.1l.2-.1c.4 0 .7 0 .9.3-.3.7-1.4.8-2.1 1.1-.6.3-.2.4.1.6-.1.5-.8.8-1.4.6-1.6-.5-3.3 0-4.9 0-1.4 0-2.6.4-4 .5-.6 0-1.3.4-2 .2 0-.3.2-.6.6-.8l.6-.1h2l1.5-.6 1.4-.2Z" clip-rule="evenodd"/><path fill="#FFA065" fill-rule="evenodd" d="M114.4 9a10.6 10.6 0 0 1-3.3.3c-.4-.3-.6-.6-.6-1l1.6-.4c1.8-.3 1.8-.3 2.4.8l.3.2c0 .1-.1.2-.4.2Z" clip-rule="evenodd"/><path fill="#FFA065" fill-rule="evenodd" d="m114.4 9 .4-.1c.5-.2 1-.2 1.6 0-.6.3-1.2.5-2 .2ZM53.8 13.5c-.6-.5-1.5-.5-2.4-.5l-5 .5c-2.1.2-4 0-5.4-1.2V12c0-.2.1-.3.3-.4h.3c3.5.3 7-.1 10.5-.2 6.9-.2 13.7-.8 20.6-.8 7.8 0 15.6-.8 23.4-.8H108c.6 0 1.1-.2 1.7-.3.7.4 2-.7 2.5.4-1.5.4-3.2.4-4.7.6-3.2.4-6.4.6-9.6.8-4 .4-8.1.5-12.2.7-3.3.2-6.6.4-9.9.3-2.6.2-5.3.2-8 .5H67c-1 0-2 0-3 .3-.5-.2-1-.2-1.6 0h-1l-.3.1a3 3 0 0 0-2.3 0c-.3-.2-.6 0-1 0h-3.5l-.4.2Z" clip-rule="evenodd"/><path fill="#FFA065" fill-rule="evenodd" d="M108 10c-1.4.2-2.8.3-4.1 0-.9 0-1.8.5-2.6 0-.3.7-.7.4-1.3.2-.6-.2-1.4-.4-1.6.3 0 .2-.4.2-.5 0-.5-.6-1.4-.3-2.2-.3-5.2 0-10.4.5-15.6.8h-4.4c-2.1-.2-4.2.3-6.3.1-2.8-.2-5.5.5-8.3.5-5.3-.1-10.6.2-15.8.5-1.5.2-2.7-.5-4.1-.2-.6.1-1.2.8-1.8.3-.6-.5.4-.8.6-1.2l.2-.2c1.7.6 3.4.6 5.2.5l13-.6 11.7-.4h1c3.3 0 6.6.1 9.9-.1 5.2-.4 10.4-.6 15.6-.7.8 0 1.6 0 2.4-.2h1.2c2.3.3 4.6.6 7 .3.6-.1.7 0 .8.4ZM112.2 10c-.3-.3-.6-.4-1.1-.3-.5.1-1 0-1.4-.1l1.4-.2c.2-.2.5-.4 1-.4l2 .2c-.3.2-.5.5-1 .7h-1Z" clip-rule="evenodd"/><path fill="#FFA065" fill-rule="evenodd" d="M36 9.9c0-.1 0-.2-.2-.3l1.2-.5.3.2.2.2h.3c1 .3 1.7.8 2.4 1.3v.1c0 .3-.3.4-.7.5a2 2 0 0 1-.6 0l-1-.2c-1.4 0-1.2-.9-1.8-1.3Z" clip-rule="evenodd"/><path fill="#FFA065" fill-rule="evenodd" d="m37.8 9.5-.4.2-.4-.5c.4 0 .6.1.8.3ZM71 10.3c-.2.1-.6.2-1 0h1ZM144.6 14.8c.7.1 1.2-.2 1.6-.4.8-.3 1.6-.5 2.5-.3-3.3 1-6.8 2-9.9 3.3.9-.6-.1-1-.5-1.4-.6-.5-1 .2-1.6.3-.5-.2-1 .3-1.8 0 1.6-1.4 4.2-2 6-3.1 1.7-1 2.4-2.5 4.1-3.6.7-.5 1.6-.8 2.5-1.1l1.2-.3c.4 0 .8 0 1 .3 0 .2 0 .3-.3.5-.9.5-1.6 1-1.2 2 .2.3-.8.5-1.2.6l-2.3 1.1-3 1.7c-.1.1-.7 0-.4.3l1 .2c-.3.4-1.5.5-1.3 1.3l3.6-1.4Z" clip-rule="evenodd"/><path fill="#FFA065" fill-rule="evenodd" d="M144.7 12.7c.3-.8 1.3-1 2.2-1.4.2 0 2.2-.1.4-.8-.5-.2.8-.5.8-1 0-.2.4-.3.7-.5.3 0 .8-.2.4-.5-.3-.2-.7 0-1 .2l-.4-.2v-.1c.4-.6 1.3-.5 2-.7l.3-.2c.6.1.9-.3 1.4-.2l.4-.2c0 .7-1.4.6-1.6 1.2-.1.5-.4.7-1 1 .1.4.7.3 1 .5-1.4.4-1.6 1.4-2.8 2-.9.3-1.6.9-2.8.9ZM148 12.4v.4c-.2-.2-.7-.2-.5-.4 0-.2.4-.1.6 0Z" clip-rule="evenodd"/><path fill="#FFA065" fill-rule="evenodd" d="m151.2 9.1-.6.1c0-.3.3-.1.6 0ZM151.9 9.8h-.2.2ZM150.3 9.8h.2-.2ZM5 40.8l.5-.2c0 .4-.3.2-.6.2ZM14.2 57.2c-2.2 0-4.4 0-6.6.3l-2.2-.2c0-.3 0-.6-.5-.7-.3-.2-.5-.4-.2-.6.6-.4 1.6-.6 1-1.4-.2-.3.4-.4.8-.4 1.2 0 2.4-.2 3.5.2l.4-.3c-.6-1.2-.6-1.2 1.2-1.2 1 0 1.7-.4 2.4-.7.6-.3 1.3 0 2-.1l.3.1v.1c.6.2 1.2 0 1.9 0 1-.1 2.1-.4 3.2 0 1.1 1 2.6.2 4 .3 2.2 0 4.5-.2 6.6 0h8.7c.5 0 1 .2 1.5 0 .9-.3 1.7-.2 2.6-.1 1 0 2 .4 2.9-.2.2-.2.7 0 1 0 1.5.4 3 .5 4.5.2 1-.2 1.8.5 2.8.3l.2.2c.7.2 1-.6 2-.2.6.3 1.5.2 2.3 0 1.1-.2 1.8.4 3 .4 1.6 0 3.1-.3 4.8-.3h8.5c.4 0 .7.2 1 .3.7-.2 1.4-.5 2 .1.2.3.9.1 1 0h2c1 0 1.8.2 2.7-.2l.8-.2c2.2.5 4.4 0 6.6-.1 1.2 0 2.2.2 3.3.3h5.2c.6 0 1-.1 1.6.3.5.5.3-.4 1-.3 3 .3 5.8-.6 8.8 0a6 6 0 0 0 2-.2c.8-.1.6-.7.7-1 0-.3.4-.4.8-.4s1 0 1.2.2c.8.4 1.5.7 2.5.7.7 0 1.1.5 1.5.8.6-.5 1.2-1 2.3-.5.7.4 1.1-.2 1.8-.3.2 0 .4-.2.7 0 .3.2.1.4-.2.6-.6.3-1.4.2-2.1.4-.3 0-.6 0-.8.3.3.5 1.2.5 1.6.9.5.4 1 .8.3 1.2-.6.5-.7 1-.9 1.6 0 .2-.2.5-.7.5-.4 0-.6-.2-.5-.5 0-.3-.5-.4-.6-.7-.2-.2-.1-.7-.8-.5-.7.1 0 .4 0 .7 0 .6-.1.7-.8.2-.2-.1-.4 0-.5.2-.3.3-.7.4-1.3.2-.8-.4-1.6-.5-2.6-.2-.8.2-1.6-.5-2.6-.2-.4.5.6 1.1 0 1.6s-1.6.1-2.5.2c-.5.1-1.2.5-1.5 0-.1-.5.4-.8 1.2-.9.4 0 .5 0 .4-.3 0-.2-.3-.3-.6-.3-1.6.4-3.2.2-4.8 0l-2 .3c-.6 0-1.3.8-2 0-.2-.2-.8-.1-1 .1-.7.8-1.5.2-2.3 0-1.3 0-2.7-.1-3.3 1-.6-.4-.2-.6 0-.8 0-.1.3-.3 0-.5-.2-.1-.5-.2-1 0-.9.4-2.2-.3-3 .3-1.9-.4-3.7-.1-5.5 0-1.3 0-2.5.1-3.7-.2-1.5-.3-3 .2-4.2.6-.5.2-.7.7-1.4.5-1-.3-2.5 0-3.2-.7-.3-.5-.7-.4-1.2-.4-2.3 0-4.5-.2-6.8-.3-1.5 0-3 .2-4.6 0h-.6c-1.6-.4-2.5.2-3 1-1.1-1-1.1-1-2.9-.6-1.4.2-2.7.4-3.7-.6-.4-.4-1.2-.4-1.6.2-.2.2-.2.4-.6.5-.6 0-.6-.6-1.3-.7l-.7.7c-.3.3-.7.3-1.2.2-.5-.2-.1-.4 0-.6.2-.6-.2-.7-1-.7-.6 0-1.3 0-1.9.3a2 2 0 0 1-1 .1c-2.1-.4-4.3-.1-6.3 0-2.6 0-5.2-.2-7.8.1-1.6-.7-3.3 0-5-.2-1-.1-2.2.1-3.4-.1l-.4.3c-1.4 0-2.8-.5-4.2 0ZM6.1 52.7c.4-.2.8-.4 1.4-.2-.5.1-.8.4-1.4.2ZM5.2 53.4l.2-.4-.2.4ZM12.1 19.1c.2 1.1-.2 2-1.6 2.7l.2-.4c0-.2-.3-.4-.2-.7l-.2-.2.2-.5.2-1c.5.1.9.4 1.4.1ZM163 16.4l-.3.1c0-.1 0-.2.2 0ZM14 25.4c1.7-1.2 3.8-.7 5.7-.5.7 0 1.7.9 1.7 1.4 0 .6.5.4.9.4.5 0 1-.3 1.3-.5 1-.6 1.4-.2 1.6.4a8 8 0 0 0-5 2c-.8.6-1.5 1.2-2.4 1.7-.2-.8.8-1.2 1.4-1.8-.5 0-.7.2-1 .3-1.3.4-1.4.4-2.1-.4-.6-.7-1.2-.7-2.1-.3l-.3.1c-.2.4-.8.4-1 .7l-.3.2c-.4 0-.4-.2-.3-.4.1-.2.4-.4.3-.7.4-.9 1.7-1.6 1.6-2.6Z" clip-rule="evenodd"/><path fill="#FFA065" fill-rule="evenodd" d="M14 25.4c.7.2 1.1.5.5 1-.8.5-1.2 1.2-2.1 1.6-.3-.7.9-1.3.5-2-.1-.5.2-.7.9-.8l.2.2Z" clip-rule="evenodd"/><path fill="#FFA065" fill-rule="evenodd" d="m13.8 25.2-1 .8c-.2.2-.5.5-1 .2-.3-.1-.2-.3 0-.6.2-.4 1.3-.7 1-1.4-.2 0-.3 0-.2-.3 1.2.1.7.9 1.2 1.3ZM9.8 22.7c0 .4-.2.9 0 1.3.2.5.7.6 1.3.5-.5.7-1.2.6-1.8.2-.4-.2-.6-.5-.9-.8.3-.4.6-1 1.4-1.2Z" clip-rule="evenodd"/><path fill="#FFA065" fill-rule="evenodd" d="m12.6 24 .2.2a2 2 0 0 1-1 0c.3 0 .5-.1.8-.3ZM16.2 52.3l-.2-.2c.3-.6-.4-.6-1-.6-1 0-2 .2-2.9-.2v-.1L12 51h-.4v-.3c.7-.7 2 0 2.8-.4 1.6 0 2.6.6 3.5 1.3-.3.5-1.2.3-1.7.6Z" clip-rule="evenodd"/><path fill="#FFA065" fill-rule="evenodd" d="M12 51.3c-.9.7-2 .6-3.3.3l.1-.2c1-.3 2-.2 3-.3l.3.1v.1ZM7.8 51.7l.3-.2c.3-.2.5-.1.6.1-.3.2-.6.2-1 .1ZM7.1 50c.5.2 1-.2 1.6 0 0 .4-.5.5-.9.7-1 .1-2.1.5-3.2 0l.2-.1.2-.1h.6l1.5-.5ZM5.6 50.5H5h.6ZM10.5 20.7c.2.2.3.4.2.7-.2-.2-.4-.4-.2-.7Z" clip-rule="evenodd"/><path fill="#FFA065" fill-rule="evenodd" d="M7.8 50.7c0-.4.5-.5.9-.7h1.6l.4-.1h.6l.4-.1c.8.4.7.6-.3.8-1.2-.3-2.4.2-3.6 0Z" clip-rule="evenodd"/><path fill="#FFA065" fill-rule="evenodd" d="M11.4 50.6c.5-.2.6-.5.3-.8l.1-.4c1 0 1.1 0 1 .5-.2.3 0 .4.3.4l1.2.1c-.7.5-1.8.1-2.7.4l-.2-.2ZM8.7 51.6h-.6l-.2-.3c1.2-.4 2.5-.2 3.7-.5l.3.3c-1 .5-2.2.2-3.2.5ZM7.9 51.3c-.3.1-.6.2-1 0h1ZM141.6 62.6c.3-.2.5-.3.5-.6a47.1 47.1 0 0 1 1.6 0c0 .5-.5.6-1 .7l-1.2-.1ZM143.7 62h-.6.6ZM143 61.3c0-.2 0-.2.4-.1l-.4.1ZM12.7 28.9c0-.4.6-.5 1-.7 0 .4-.5.5-1 .7ZM132.3 48.8c-.3-.3-.8-1.6-.6-1.8.2-.2.3-.4.1-.6-.3-.4-1.3.3-1.2-.2.2-.5-.1-.5-.6-.6-1-.4-2.4-.6-2.8-1.5-.2-.4-.9 0-1.3-.3.2 1.5 2.5 2 3 3.3-1.2.4-1.8-.1-2-.8-.3-.6-.8-1-1.8-1.3-1-.2-1.7-.7-2.5-1.2-1.7-1-4.2-1-6-1.8-1.3-.6-2.8-.8-4.3-1-.6-.2-1.2-.3-1.7-.6-.2-.3-.8-.5-1.2-.5-2 .2-3.5-.7-5.2-1a8.2 8.2 0 0 1-3.4-1c-1.7.2-3.1-.4-4.6-.8-1.8-.5-3.8-.7-5.7-1-2.4-.5-4.8-1.2-7.1-1.8-1.1-.3-2.3-.3-3.3-.8-.4-.5-.8 0-1.2 0-1.7-.2-4.3-1-6.3-1.9-.3-.1-.7-.3-1.4-.2-1.3.3-2.7-.2-3.9-.5-1.3-.3-2.4-.8-3.9-.5l-.8-.2c-1.2-.2-2.4-.2-3.7-.1-1.7.2-3.6.1-5.4 0-2.6 0-5 .3-7.5.3-.3 0-.4.1-.6.3-1 .9-1.7 1-3.3.5l-1.4-.5c-.6-.2-1.2-.4-1.8 0-.6.4-1.5 0-2 .3l-5.4-.2c-1 0-.7.4-.7.8-.6-.1-1-.3-1.2-.5-.7-.6-1.3-.8-2.1-.1-.3.2-.7.1-1 0-.7-.1-1.3.1-2 .3-.1-.8-.5-1.6 1.2-1.9.8-.1.6-1 1.6-1.2 1.6-.3 3-.8 4.5-1.2 1.7-.4 3.4-.6 5.2-.8 1 0 2-.6 3-.3.3-.7.1-1.2-1-1.4l-.7-.2c-.5-.2-1.1-.2-.8-.7.4-.5 1-.1 1.3 0l1.8.6c.4.1.8.2 1.3 0-.8-.6-1.6-1-2.7-1.3-1.3-.4-2-1.4-3.6-1.6 0 0-.1-.1 0-.2 0-.2.1-.3.3-.3.9.2 1.8.3 2.5.6.8.4 1.7.5 2.7.6.3 0 .6.2.8.4-.2-.3-.5-.4-.8-.4 0-.7.4-1.2 1.4-.9 1.2.4 2.4.5 3.6 1 1.4.5 3.2 1 4.9 1.1 2 .1 3.7.8 5.6 1.1l1.9.4c.5-.1.9-.6 1.8 0 .7.5 2.2.8 3.2.4 1.5-.4 2.9-.2 4.2-.2h3.2l6-.3c.2 0 .5-.2.6-.1.8.4 1.4 0 2.1-.1.8-.2 1.6-.4 2.5-.1.7.2 1.7.4 2.3-.3h.8c2.5.5 5-.4 7.5 0 2.2-.8 4.7-.3 7-.9 1-.3 1.6 0 2.4 1 .8-.3-.3-1.2 1-1.2l2-.2c1.7.1.7 1 1 1.6.6 0 1.2.2 1.4-.4.2-.2 0-.4-.1-.6l.5-.6c.2.2.7.5.8.2.4-.6 1.3-.8 1.7-.6 1 .4 1.6-.5 2.5-.3 1 .2 1.9 0 2.8-.2 1.1-.3 2.2-.6 3.4-.3h.4c1.4-.6 2.7-.6 3.6.5.1.2.6 0 1 0l.2-.4c0-.2-.4-.3-.7-.3l-.8-.1c-.2 0-.3-.3-.3-.4 0-.1.2-.2.5-.2 1-.1 2.1.2 3-.5.2-.1.5.3.7.5-.5.2-1.2.3-1.5.8.4.4 1 .2 1.5.1l6.3-1.4c.8-.1 1 0 1 .6l-.4 1c-.3 1-1.2 1.2-2.3.6l-1.2-.5c1 .8.6 1.3-.2 1.6-.7.3-1.5.5-1.2 1.2l-1.4.3c-1.6-.3-3-.2-4 .6-.4.3-1.1.4-1.6.4-1 .1-2.2-.2-2.7.7l-.6.2c-1.3-.3-2 .3-2.9.8-.5.3-.4-.2-.5-.3.3-.4.6-.9-.6-.9-1.1 0-2.1 0-3.1.7a5 5 0 0 1-4.9.6c-.9-.3-1 .6-1.8.5-1.2-.1-1.9.3-2.4 1-.4-.2-.7-.3-.8-.6-.3-.3-1-.7-1.4-.6-2.1.4-4.4-.6-6.3.4-1 .6-2 0-3 0-.3 1-1.1 1.8-3.4 1.9 1.4.5 2.1 1 3.3 1 1.9.3 3.8.5 5.4 1.2.5.2 1.1.3 1.7.3 1 0 2.2-.3 2.3.8h.6c2.5 0 4.8.6 7 1.4.7.3 1.6.6 2.1.5 1.2-.2 2 .2 2.8.5 3.1 1 6.3 1.7 9.6 2.3 1.3.2 2.7.5 3.5 1.1 1 .7 2-.1 2.7.4.7.3 1 1 2.2 1 1 .2 2 .7 3 1 .5.2.7.5.7.7.1.4.4.8 1 .8 1.6.2 1.4 1.3 2.3 1.8.2.1 0 .4-.1.5-.3.2-.6.2-.8 0-.8-.6-2.3-.2-3-.9h-.6c-.2.2-.3.4-.1.6.5.6 1 1.2 1.7 1.7 1.2 1 1.2 1-.5 1.7.6.3 1.6 0 1.8.6v.7c-.3.4-1.6 1-2 .8-1-.4-1.1-.8-.5-1.6-.2-.2-1.8.9-1-.4Z" clip-rule="evenodd"/><path fill="#FFA065" fill-rule="evenodd" d="M145 9.9c.4 1-.8 1-1.6 1.5-.6.2-.6.2 0 .5.5.3 0 .4-.2.6-2.5 1.3-4.9 2.6-7.8 3.5.4.4 1 0 1.3.3-.9 0-.6.8-1.6.8-.7 0-1.1.3-1.8.5-.3 0-.8.1-1-.2 0-.3.4-.4.7-.4.3 0 .6-.2.5-.5-1.3 0-2.4.5-3.5.8-3.2.8-6.3 1.6-9.7 2-2.6.4-5.2.7-7.7 1.2-2.5.4-5.1.5-7.6.8-.5 0-.7-.2-1-.4.7-.7 1.9-.2 2.7-.5-.5-.1-1.3.5-1.8-.1.4-.2 1-.4 1.4-.4 1.5.1 2.8-.2 4.2-.3l4.7-.6 4.5-.6c3.8-.4 7.2-1.4 10.7-2.3 1.3-.3 1.2-1.3 2-2 0 0-.2-.3-.4-.3-.3 0-.2.3-.4.4h-.6c.2-.4 0-.7-.7-.6-.5 0-1.2 0-1.3.5 0 .3.5.6 0 1-.6 0-.2-.9-1.2-.7-.4 0-.8 0-.9.5 0 .3-.6.4-1.2.3-.4-.2-3-.2-3.2 0-.6.8-1.8.3-2.7.5l-.6-.1c-1 .5-2.4.7-3.6 1-1.8.3-3.7.3-5.6.7l-2-.2c-1.2 0-2.2-.1-3.1.4-.2 0-.6.2-.8.1-1.5-.5-2.8 0-4.2.1-1.6.2-3.2.5-4.9.3h-.6c-2.4-.1-4.8.3-7.2.4-.8 0-1.6.2-2.3-.1a.5.5 0 0 1-.2-.4l.4-.3.6-.2c1.6 0 3-.4 4.6-.3.3 0 .5.2.8.3.8-.3 1.7-.2 2.6-.3 4-.2 7.8-.4 11.7-.8.9 0 1.7-.6 2.7-.3 2.4-.7 2.8-.6 4.3.5.5-1.1 1.6-1.6 3.4-1.2h1.2c.9-.4 1.9-.5 2.7-1 .8-.3 1.8.3 2.5-.2a5 5 0 0 1 3-.8c-1.6-.7-2.6.1-3.8.1a12 12 0 0 1 4.6-1.6l5.6-1.6c.6-.1 1.4-.5 1.7 0 .3.5-.3.8-1 1-1.8.5-3.3 1.3-4.7 1.6 2.3-.7 5-1.7 7.6-2.8.7-.3 1.4-.8 2.3-.4.8.3 1.6.7.3 1.3h.4c.7 0 1 .1 1.2.6.1.4.3-.1.5 0l.5-.2h.8c.2 0 .4 0 .5-.2l.3-.2 1-.5a10.5 10.5 0 0 1 1.3-.5h.8ZM31.6 50.9c.5-.2.6-.5.3-.8.6-.2 1.3-.3 2-.1 0 .2 0 .4-.4.5h-.3.4c.3-.1.3-.3.3-.5 2.7 0 5.4-.2 8.2 0h.8c5.4-.3 10.8 0 16.1.2 2.6 0 5.2-.1 7.8.3 1.8-.6 3.8 0 5.7 0 2 0 4.2-.2 6.3 0 2.6.2 5.4 0 8 .1 4 .2 8 0 11.9-.1a7 7 0 0 1 3.2.7c-1 .5-2 .3-3 .3-2.3 0-4.7.3-7 0h-.4c-2.8.5-5.6.2-8.4.2l-14-.2-13-.3c-4.6-.2-9.2-.3-13.7 0-3.6.2-7.2 0-10.8-.3Z" clip-rule="evenodd"/><path fill="#FFA065" fill-rule="evenodd" d="m91.1 17.4-.6-.1c-1.7-.4-3.3 0-5 .3-1.2-.2-2.5-.4-3.6.3-1.9.4-3.8.3-5.7.4-4.9.3-9.8.6-14.7.7-.9 0-1.8-.1-2.4.4l-1.8.1-.8-.1c-.5-.2-.1-1-1-.8-1.4.2-2.8-.4-4.3-.1-1.7.4-3.5.2-5.1-.2 0-.3.5-.3.8-.3 4.6 0 9.1-.3 13.7-.6 3-.3 6-.2 9-.2l5.5-.3a79 79 0 0 1 4.3-.1l4.4-.3 7.5-.3c1.7 0 3.3-.4 5-.5l8.6-.5c-1.2.8-2.8.8-4.3 1-2.6 0-5.2.4-7.8.4-.8 0-1.5.2-1.7.8ZM105.1 40.8c-.5.6-.9.8-1.7.6-.9-.2-1.8-.2-2.7-.5L92.4 39l-6-1.3c-3.6-.7-7.3-1.2-10.8-2.3l-3-.6c-.5 0-1-.1-1.3-.3-.3-.2-.5-.4-.2-.7a53.4 53.4 0 0 1 8 1.2c.5.2 1 .2 1.2.6 0 .3.5.4.9.4 2.2 0 4.3.4 6.4.9 2.2.4 4.3 1 6.5 1.3l11 2.6ZM104.9 20.2l2 .2c-1 .5-2.1.2-2.9.5-.2.2-.3.4-.7.3-.3 0-.7 0-1-.2-1-.2-1.5.7-2.4.5-.9-.1-1.7.1-2.5.1-1.6 0-3.1 1.2-4.8.2-.3-.2-.6 0-.7.1-.4.3-.8.4-1.2.3-1-.2-2-.2-2.8.3h-.2c-2-.3-3.8 0-5.7.1-.7.1-1.4 0-2.2.2a6 6 0 0 1-3.3 0c-.8 0-1.5 0-2.3-.4 2-.4 4-.6 6-.6 1.2 0 2.3 0 3.5-.3 1.7-.2 3.5-.2 5.3-.3l6.1-.3c3.3-.2 6.5-.7 9.8-.7ZM140.7 11.3l-1.4.8c-.3.2-.6.2-.8 0-.3-.1-.3-.3 0-.4.3-.1.7-.2.4-.4-.2-.3-.6-.2-1 0l-1.3.4c.2-.5.7-1 1.4-1.3-1-.9-1-.8-2.3-.3-3 1.2-6 2.4-9.8 3.2 2.4-1.4 5.1-1.8 7.3-2.8l-.3-.3-4.4 1.3c-.8.3-1.6.5-2.5.3l.4-.1c.4-.8 1.5-1 2.5-1.3 1.3-.4 2.5-.8 3-1.8l2-.7c.4-.2.9-.1 1 .2.2.2 0 .6 1 .3.6-.2 1.6-.2.8.6h.4c.8-.4 1.7-.5 2.7-.6.6.1.7-.3 1.2-.4.4 0 1-.2 1.3.2.3.4-.5.7-.9 1-.2.2-1.4.2-.2.8.7.3.1 1-.5 1.3Z" clip-rule="evenodd"/><path fill="#FFA065" fill-rule="evenodd" d="M132 8.8c.4.7-.3 1-1.2 1.4-1.5.5-3 .8-4.4 1.4-.4-.3-.7-.6-1.6-.3-1.5.3-2.3 0-3-1l-.6-.7c-.1-.1-.5-.3-.7-.1-1 1-.8-.4-1.3-.4 1-.6 2.5-.4 3.7-.7.3 0 .6 0 .7.2.7.9 1.3.2 2 0l1.8-.7c.6.2 1 .5 1 1l-.4.2c-.4.2-1 .3-1.3.6.2.2.5.2.8.2.9 0 1.6-.5 2.5-.6a9.5 9.5 0 0 0 .7-.2l.2-.1c.2 0 .5 0 .6-.2h.4ZM104.7 49.5c0 .5 0 .7-1 .5-2-.4-3.8-.9-5.6-1.5l.8-1c.2-.1.6-.3.9-.1 1.4.8 3.2.8 5 1 .6.2 1 .6 1.9.6.8 0 2 0 2.7.7.2.2.7.4 1.2.3 1.6-.3 2 .6 2.9 1-.5.5-.9.2-1.3.1h-1c-1.5.6-2 .5-2.4-.6-1.2-.6-2.6-1-4.1-1ZM59 19.5c-.3-.5 0-.8.7-.8h2.7l19.6-1c1-.1 2-.5 2.8.2-.3.5-1.1.7-1.9.7-.5-.1-1 0-1.6 0h-1l-2.6.1h-1.6l-.4.1c-1.5.2-3 0-4.5.2l-.4.1-.4.2c-.9-.3-1.9-.2-2.8-.2l-.4.1c-.2 0-.3 0-.4.2l-.3.1c-1.1-.2-2.2 0-3.3 0h-2.5l-.7-.1c-.3.1-.6.2-1 0Z" clip-rule="evenodd"/><path fill="#FFA065" fill-rule="evenodd" d="m82.9 18.6 1.9-.7c.3.3.8.3 1.3.3 2-.2 4-.2 6-.5.8-.1 1.7-.2 2.3.4-1.2.6-2.6.3-4 .3H89c-2 .4-4 .4-6 .2ZM67.9 13c.2-.4.7-.5 1.2-.5 1.6 0 3.1 0 4.6-.4a3 3 0 0 1 2 .3c-.7.7-2 .5-2.9.5-1.6.2-3.3 0-5 0ZM27.9 21.1c-.2-.4-.6-.7-.6-1 .1-.4 0-1 1-1 .8 0 1.5.4 1.4 1-.1.4-1 .6-1.2 1.1H28ZM28.8 21.2l2.1-.2c.3 0 .7 0 .8.3 0 .2-.2.3-.5.5-.7.3-1.5 0-2 .5-.5-.4-.3-.8-.4-1.1ZM71.2 19c1.5-.4 3-.6 4.5-.2-.5.5-1 .8-2 .5-.7-.3-1.7 0-2.5-.3ZM54.2 13.4c.8-.5 1.7-.5 2.6 0-.9.4-1.8.3-2.6 0ZM126.6 20.6l1-.8c.3-.2.6-.3.9 0 .2.2.2.5-.1.6-.5.1-1 .3-1.8.2ZM64 13.2c.8-.7 1.8-.8 2.9-.2-1 .2-2 .3-3 .2ZM63.3 19.5c1-.2 2.1-.6 3.2 0-1.1.3-2.2.3-3.2 0ZM67.6 19c.7-.2 1.5-.1 2.3-.2.5 0 .4.3.5.5-1 .3-1.9 0-2.8-.2Z" clip-rule="evenodd"/><path fill="#FFA065" fill-rule="evenodd" d="M60.7 19.5c.8-.4 1.7-.4 2.6 0-.9.4-1.8.5-2.6 0ZM95 30.6c.2 0 .5 0 .7.2.2.2.1.4-.3.5-.3.1-.6 0-.7-.2-.2-.2 0-.3.2-.5ZM33.6 33.3c-.6-.4-1.3-.7-.4-1.4.6.5-.3 1 .4 1.4ZM58.7 13.2c1-.6 1.3-.6 2.2.1h-2.2ZM35.3 24.2h1c.3.2.7.4.4.6-.3.4-.7.1-1 0l-.4-.6ZM104.2 58.1l.8.1c.2.2 0 .4-.2.4-.3.1-.7.2-.8 0-.2-.2 0-.4.2-.5ZM80.3 18.7c.3-.5.7-.2 1 0-.2.3-.2.6-.7.5-.3 0-.2-.3-.3-.5ZM62.3 13.1c.6-.5 1-.3 1.6 0-.5 0-1 .2-1.6 0ZM64 24c0-.1.1-.2.3-.2.3 0 .5 0 .5.2l-.3.2-.6-.1ZM111.8 27.6l.2-.2c.1-.2.3 0 .5 0 .2.2 0 .3-.2.4-.1.1-.3 0-.5-.2ZM106.3 58.3h.3c.1.1 0 .3 0 .4-.1.1-.3.1-.4 0-.2 0 0-.2 0-.4ZM22 19.4c0-.2 0-.4.2-.4h.4c.2.3-.3.3-.5.5H22ZM34.6 32l.3-.3h.5c.3.3-.1.3-.2.3-.2 0-.4.2-.6 0ZM53.7 30.9l.3.1c0 .2 0 .3-.2.4l-.3-.1c0-.2 0-.3.2-.4ZM25.8 20.1l.2-.3.3.1-.3.3c-.1.2-.2.2-.2-.1ZM56.7 13.3c.3-.3.6-.5 1 0-.3.1-.6.2-1 0ZM57.7 13.3c.3-.3.6-.5 1 0h-1ZM66.9 13c.3-.3.6-.5 1 0h-1ZM62 24c.2 0 .3 0 .3.2l-.2.2-.3-.1.2-.2ZM19.7 41.5l-.2.3-.5-.1c-.3-.1-.2-.2 0-.2h.7ZM34.3 58.7v-.1h.3-.3ZM21.7 58.5c.3 0 .6 0 .6.2h-.6v-.2ZM20.2 59h-.4c-.2 0-.2 0 0 0h.4ZM130.6 14.1c-.2 0-.2-.1 0-.2h.1l.3.3h-.4ZM17.6 48.4c-.5 0-.6-.2-.4-.5l.4.5ZM91.3 57.8c.2.2.3.4.1.7-.2-.2-.3-.4 0-.7ZM76.7 18.8c.3-.2.7-.2 1-.1-.3.1-.6.2-1 0ZM37 31.4h-.2v-.3c0-.1 0-.1.1 0v.3ZM30.7 33v-.1h.2l-.2.1ZM35 24.2c-.1 0-.2-.2 0-.2h.2l.2.2H35ZM61.3 13.2c.4-.4.4 0 .6 0h-.6ZM80.1 33.5v.1-.1ZM107.9 22.7v-.1.1ZM107.4 23.3h-.3.3ZM107.4 24h-.2v-.2l.2.1Z" clip-rule="evenodd"/><path fill="#FFA065" fill-rule="evenodd" d="m21.7 58.5.3.3c-.4 0-.4-.1-.3-.3ZM112.6 27.6h.2-.2ZM106.4 27.7v.1-.1ZM98.7 57.9v.1-.1ZM91.4 58.5v.1-.1ZM56 52.8h.1ZM115 27.3h-.3.2ZM35.5 31.9h.3-.3ZM66.8 19.4c0-.2.1-.3.4-.2l-.4.2ZM60 19.4ZM76.1 18.7ZM14 43.1h.2-.1ZM70.4 19.3l.4-.2c0 .2-.1.3-.4.2ZM30.4 37h-.2V37c.2 0 .3 0 .2.2ZM11.3 50ZM10.3 50h-.6.6ZM9.3 50h-.6.6ZM134.8 57.4c0-.2.3-.3.5-.4l.5.1c0 .2 0 .4-.4.4h-.6ZM134.9 56.5h.4l-.2.2h-.4l.2-.2ZM11.1 61c-.1-.1-.3-.3 0-.6.1.2.3.4 0 .7ZM132.7 58.5h-.2v-.2c0-.2 0-.2.1 0v.2ZM126.1 60.7v-.1h.1v.1ZM140.8 60.2V60c.1 0 .1 0 0 0ZM136.5 59.6l-.4.1c0-.2.1-.3.4-.1ZM10.1 59.5h.2-.2ZM11 60.4v-.1h.2l-.1.1ZM126.4 35.4h-.7c-.4-.2-.8-.4-.4-.7.3-.2.6.1.9.2.1.1.3.2.2.5ZM128.3 35.7l.8.1c.2.2-.1.3-.3.3-.3 0-.6 0-.7-.2-.1-.2 0-.2.2-.2ZM145.7 20.7c.4.2.8.3 1 .6-.8.2-1.2 0-1-.6ZM150.3 23.2c-.3 0-.6.2-.9 0V23c.5-.2.7 0 .9.2ZM147 21c.2 0 .3-.1.4 0v.2c-.2.2-.4.1-.6 0l.3-.2ZM145.6 49.8v-.2h.4c.3 0 .3 0 0 .1h-.4ZM129.1 36.4h.2v.2h-.3l.2-.2ZM147.8 22h-.2v-.1h.1Z" clip-rule="evenodd"/><path fill="#FFA065" fill-rule="evenodd" d="M145.6 20.6v-.3l.2.1-.1.3c-.3 0 0 0-.1-.1ZM146.4 18.7c.3 0 .6-.2 1 0-.3 0-.6.2-1 0ZM134 35.5h-.2.1ZM145.3 59.4c.8-.2 1.2 0 1.4.5-.7 0-1-.2-1.4-.5ZM140.8 8.2c-.2.1-.2.4-.7.3-.4 0-.8.3-1.1 0-.2-.3 0-.5.3-.7.2-.2.6-.3.8-.6l.2-.1c2-.6 4-1.3 6.2-1.7 0 .4-.9.4-1 .8.6.4 1.3-.2 1.8 0-.5.3-1 .6-1.2 1 0 .5-1 .5-1.4 1 1.9.1 3.3-.8 5-.5-.4.4-1.3.3-1.8.7-.5.5-1.3.7-2.1 1-1 .3-2.3 0-3-.4-.7-.5.6-.9.8-1.3-1 .1-2 .2-2.8.5ZM151.5 7.3c-.4.2-.8.4-1.4.2.4-.1.8-.4 1.4-.2ZM128.4 8.9c-.3-.4-1-.5-1-1 1-.4 2.3-.5 3-1.2 1.2 0 1.8-.8 3-.9l2.5-1c-.6 1-.8 2-2.4 2.3l-.4.2c-1 .7-2.6 1-3.8 1.7-.4.1-.7 0-1-.2Z" clip-rule="evenodd"/><path fill="#FFA065" fill-rule="evenodd" d="M133.3 5.9c-1 .2-1.6.9-2.9.8 1-.3 1.7-1 3-.8ZM137.6 6.5l1.1-.5h1c.4-.1.8-.2 1 0 0 .4-.2.4-.6.5-.5 0-.4.1.2.6-.2.4-.6.5-1 .7-.6.2-1.2.3-1.7.1-.9-.3 0-.6 0-1v-.4ZM127.5 6.9c-.4 0-.7-.2-.9-.3.5-.2 1-.7 1.3.1l-.4.2ZM126.3 6.7c0 .2-.2.2-.4.1l.4-.1Z" clip-rule="evenodd"/><path fill="#FFA065" fill-rule="evenodd" d="M137.6 6.5c.7.2.7.6 0 1.2 1.1.2 1.8-.3 2.7-.6.4.5-.1.7-.6 1-1 .4.3.2.4.4-1.3.5-2.9.6-4.4 1 0-.5 1-.5 1-.9-.8-.2-1.3.4-2.1.3 0-.4.6-.8-.4-1 .1-.3.4-.4.8-.4l2.6-1ZM128.4 8.9c1.1 0 1.8-.5 2.7-.8l2-.8c-.1.6-1 .7-1.6 1-.6.3-1.5.4-1.7 1-.5.3-1 .7-2 .4a.6.6 0 0 1-.1-.4l.3-.3h.2l.2-.2Z" clip-rule="evenodd"/><path fill="#FFA065" fill-rule="evenodd" d="M127.8 9.4c.8.6 1.4-.1 2-.1l.4-.2.3.1v.1c-1.1.4-2 1-3.4 1-.5-.5-.3-.9.7-1ZM135 7.5l-.8.4-2.3.8-.3.2c0 .1-.2.2-.4.1h-.3v-.1c1.4-.5 2.4-1.4 4-1.3Z" clip-rule="evenodd"/><path fill="#FFA065" fill-rule="evenodd" d="m131 8.9.2.1-.4.2-.2-.1V9l.3-.1Z" clip-rule="evenodd"/><path fill="#FFA065" fill-rule="evenodd" d="m130.6 9 .2.2-.4.2-.2-.3.4-.1ZM38.2 11c.4 0 .7.2.9.3l1.1-.4c.7.6-.7.7-.6 1.1.7.3 1-.5 1.6-.1l-.2.3c-.4.6-1 .5-1.6.3-.7-.3-1.2-.7-1.9 0-.6-.6-1.9 0-2.5-.6-.6-.4-1.4-.7-1.8-1.2 1.3.2 2.1 1 3.5 1 .1-.3.3-.3.6-.2.1 0 0 .2.3.1l.1-.3.3-.2h.2ZM29.8 8.3c.4.2 1.1.3.8.8-.4-.2-1.1-.3-.8-.8ZM32 9.5l.5.5c-.6 0-.7-.2-.5-.5ZM28.6 8.2c.3-.2.7-.2 1-.1-.3.1-.6.2-1 0ZM36.6 13.7v-.2c.2 0 .2 0 0 .2ZM32.5 10c.3 0 .4 0 .2.2l-.2-.2Z" clip-rule="evenodd"/><path fill="#FFA065" fill-rule="evenodd" d="m30.6 9 .2.3c-.3 0-.4 0-.2-.2ZM29.6 8c.4 0 .4.2.2.3l-.2-.2ZM37.3 11.7h-.6c0-.2-.1-.2-.2-.3.3-.6-.6-1-.4-1.5.3 0 .6 0 .6.3 0 .7.8.7 1.5.8 0 .2-.4.3-.5.6l-.4.1ZM135.9 61v-.2h.3v.3l-.3-.1ZM138.5 60.5v-.2.2ZM142 62h-.5.6ZM153.5 13.4l.2.2v.1h-.4l.2-.3ZM151.8 14.6l.5-.1c0 .3-.3.1-.5 0ZM150 13.9c-.2.1-.6.2-.9 0h1ZM151.8 14.6h-.2c0-.1 0-.1.2 0ZM147.8 18.5c0-.1 0-.3.2-.3.4.2-.2.2-.2.3ZM41 12.3l.2-.4-.2.4ZM37.4 9.7c-.1.1-.1 0 0 0ZM140.8 8.2c1.4-.7 1.8-.8 4-1-.2.7-1.5 1-1.8 1.6 1.7.3 3.4.6 4.9-.4l.2.3-3 1.2c-.3 0-.5.2-.8.3l-.3.1-.8.3c-.7 0-1.2.2-1.5.6l-.4.2-.6-.1.1-.6c.6-.6.2-.9-.8-1l2-1.4c-.3-.2-.8.1-1.2-.1ZM77.9 53.2v.1h-.1v-.1ZM12 51.3l-.1-.2c.3 0 .4 0 .2.2ZM128 43.4c0-.1 0-.2.3-.3.2 0 .4 0 .5.2l-.3.2-.6-.1ZM41 22c.8-.1 1.1 0 1.1.5-.6 0-.8-.3-1-.5ZM42.6 22.6c.1.1.2.2 0 .3h-.3l-.2-.4.5.1ZM132 43.4h.5c.1.1 0 .2-.1.3h-.2c-.2-.1-.2-.2-.1-.3ZM133.2 48.3l.2-.1c0 .2-.1.2-.2 0ZM126.6 43.2h.1c0-.1.2 0 .2 0h-.3ZM132.3 48.8h.2v.1h-.2ZM58.4 24.7v.2-.2ZM85.5 17.6c1.2-.8 3.5-1 5-.3-1.7 0-3.3.5-5 .3ZM84.8 17.9c-1-.3-2 .2-2.8-.2 1-.8 1.8-.9 3.5-.1l-.7.3ZM141.4 12.2c-.5.3-1 .6-1.2.4-.3-.3.4-.2.6-.3h.6ZM135.5 12h.4c.1.2 0 .3-.1.4l-.6-.1.2-.2Z" clip-rule="evenodd"/><path fill="#FFA065" fill-rule="evenodd" d="M141.7 11.2c.2-.5.7-.7 1.5-.6l-1.5.6ZM115.7 15.2v.2-.2ZM119.2 15.5v-.1.1ZM141.3 11.4l.4-.2c0 .2 0 .3-.4.2ZM144 10.3c0-.2 0-.2.3-.1l-.3.1ZM140.7 11.3h.6-.6ZM108 16ZM33.3 50.5l.6-.5c.1.1.6.2.4.4-.2.2-.6.2-1 .1ZM33.3 50.5h-.2.2ZM76.5 22.9v-.2h.1v.2ZM127.8 9.4c-.5.2-.7.5-.7 1-.5 0-1-.3-1.4-.5.6-.4 1-1 2.1-.5Z" clip-rule="evenodd"/><path fill="#FFA065" fill-rule="evenodd" d="M127.8 9.4c-.9-.2-1.4.3-2 .5.3-.7 1-1 2.2-1l-.2.5ZM131.2 9h.4c0 .1-.1.2-.4 0ZM108.8 50.5h.2-.2ZM104.7 49.5h-.2.2ZM104.7 48.5v.1-.1ZM144.5 6.5h.2l-.1.1h-.2ZM146 7.1h-.1.2ZM37.7 11.6c0-.3.2-.5.5-.6 0 .3-.2.4-.5.6ZM39 11.3s.1.2 0 .2v-.2ZM37.3 11.7l.4-.1c0 .2 0 .2-.4.1Z" clip-rule="evenodd"/></svg>