<svg xmlns="http://www.w3.org/2000/svg" fill="none">
  <path fill="#363636" d="M77.21 31.924a4.55 4.55 0 0 0-2.208.586 4.432 4.432 0 0 0-1.623 1.579L50.584 72.743a4.312 4.312 0 0 0 0 4.33l22.794 38.645a4.383 4.383 0 0 0 1.62 1.586c.673.38 1.436.58 2.212.579H122.8a4.492 4.492 0 0 0 2.207-.582 4.383 4.383 0 0 0 1.616-1.583l22.794-38.645a4.31 4.31 0 0 0 0-4.33l-22.794-38.654a4.435 4.435 0 0 0-1.62-1.576 4.55 4.55 0 0 0-2.203-.59H77.21Z" opacity=".2"/>
  <path fill="#282828" d="m75.834 45.231 2.604-3.452-7.364-.001V21.455h-20.53v20.322h-7.363l4.712 6.248-38.487 16.59-.358.155-.144.362c-7.21 18.177 6.028 23.9 6.163 23.954l54.545 10.55 45.26-24.62V66.76l-1.54.878-.438-8.994.04-.023-.045-.082-.28-5.758 2.585-1.428-39.36-6.122Zm35.13 12.328-41.812 22.73-52.124-8.639-.306 1.849 52.441 8.693.318.052 41.585-22.606.173 3.574-42.083 23.3-52.113-9.5-.336 1.844 52.77 9.62 41.864-23.178.165 3.381-42.21 24.061-52.908-9.867c-4.66-6.244-2.209-12.82-1.3-14.774l54.691 8.347 41.002-22.654.183 3.767Zm-64.02-13.906h5.475V23.33h16.782v20.322h5.476l-.944 1.25-1.281 1.7-11.643 15.433-9.98-13.232-1.163-1.54-2.723-3.61Zm66.053 26.335V73.9L69.308 97.665 15.706 87.32c-1.108-.499-11.2-5.546-5.2-21.136l38.548-16.615L60.81 65.15l13.744-18.22 34.935 5.435-40.056 22.133-55.371-8.452-.318.563c-.052.093-5.159 9.334 1.38 17.699l.219.28 54.286 10.124 43.369-24.724Z"/>
</svg>