<svg xmlns="http://www.w3.org/2000/svg" fill="none" viewBox="0 0 147 120"><path fill="#FDDA88" d="M32.161 16a5.292 5.292 0 0 0-4.529 2.614L.691 65.28a5.29 5.29 0 0 0 0 5.228l26.941 46.655a5.221 5.221 0 0 0 4.53 2.614h53.883a5.229 5.229 0 0 0 4.518-2.614l26.942-46.655a5.288 5.288 0 0 0 0-5.228L90.563 18.614A5.29 5.29 0 0 0 86.045 16H32.16Z"/><path fill="#000" d="M140.875 3.125h-87.75c-1.654 0-3 1.346-3 3v87.75c0 1.654 1.346 3 3 3h87.75c1.654 0 3-1.346 3-3V6.125c0-1.654-1.346-3-3-3Zm1 3v42.884h-14.861c-.022 0-.041.011-.063.013a.958.958 0 0 0-.23.046 1.016 1.016 0 0 0-.154.058c-.028.014-.06.016-.087.033-.037.023-.059.06-.092.088a.937.937 0 0 0-.125.119.954.954 0 0 0-.117.175.987.987 0 0 0-.069.156 1.06 1.06 0 0 0-.042.209c-.004.036-.021.066-.021.103 0 .027.014.05.016.076a.96.96 0 0 0 .038.189.96.96 0 0 0 .076.2c.011.021.012.044.024.064a7.36 7.36 0 0 1 1.135 3.932c0 4.066-3.309 7.375-7.375 7.375s-7.375-3.309-7.375-7.375c0-1.399.393-2.76 1.137-3.937.011-.017.011-.036.021-.053a.943.943 0 0 0 .082-.217.931.931 0 0 0 .036-.179c.002-.026.016-.049.016-.076 0-.036-.017-.067-.021-.102a1.013 1.013 0 0 0-.044-.219.948.948 0 0 0-.061-.138.972.972 0 0 0-.134-.198.96.96 0 0 0-.098-.093c-.038-.034-.065-.077-.109-.104-.033-.021-.07-.023-.104-.04-.034-.016-.069-.027-.105-.04a.984.984 0 0 0-.287-.058c-.013 0-.023-.007-.037-.007H98V35.755a9.35 9.35 0 0 0 3.462.682c5.169 0 9.375-4.206 9.375-9.375s-4.206-9.375-9.375-9.375a9.35 9.35 0 0 0-3.462.682V5.125h42.875c.552 0 1 .449 1 1Zm-88.75-1H96v14.852c0 .021.011.039.012.06.004.08.022.156.047.235.017.053.033.103.058.152.014.028.016.059.033.086.023.037.06.058.086.09a.916.916 0 0 0 .295.244c.051.027.101.05.157.069a.997.997 0 0 0 .208.042c.036.004.066.021.103.021.027 0 .05-.013.076-.016a.974.974 0 0 0 .189-.038.938.938 0 0 0 .201-.077c.021-.011.044-.012.064-.024a7.357 7.357 0 0 1 3.932-1.135c4.066 0 7.375 3.309 7.375 7.375s-3.309 7.375-7.375 7.375a7.358 7.358 0 0 1-3.937-1.137c-.017-.01-.036-.011-.053-.02a.902.902 0 0 0-.217-.083.954.954 0 0 0-.181-.037c-.026-.002-.048-.015-.075-.015-.035 0-.065.017-.1.02a.992.992 0 0 0-.223.045.94.94 0 0 0-.134.059.844.844 0 0 0-.293.232c-.034.039-.077.065-.105.11-.021.033-.023.071-.04.105s-.027.068-.04.104a.984.984 0 0 0-.058.287c0 .013-.008.024-.008.038V48.99l-13.244.001a9.351 9.351 0 0 0 .682-3.463c0-5.169-4.206-9.375-9.375-9.375s-9.375 4.206-9.375 9.375c0 1.197.245 2.366.682 3.463H52.125V6.125c0-.551.449-1 1-1Zm-1 88.75V50.991h14.852c.021 0 .039-.011.06-.012a.933.933 0 0 0 .237-.048.955.955 0 0 0 .149-.057c.028-.014.06-.016.087-.033.037-.023.059-.06.091-.087a.887.887 0 0 0 .243-.295c.027-.05.05-.101.069-.156a.993.993 0 0 0 .042-.209c.004-.036.021-.066.021-.103 0-.027-.013-.05-.016-.076a.945.945 0 0 0-.038-.189.974.974 0 0 0-.076-.199c-.011-.021-.012-.044-.025-.065a7.36 7.36 0 0 1-1.135-3.933c0-4.066 3.309-7.375 7.375-7.375s7.375 3.308 7.375 7.375a7.353 7.353 0 0 1-1.137 3.937c-.011.017-.011.037-.021.055a.936.936 0 0 0-.082.216.931.931 0 0 0-.036.179c-.002.026-.016.049-.016.077 0 .037.017.067.021.103.007.075.02.146.043.218.017.049.037.093.061.139a.88.88 0 0 0 .232.291c.038.034.064.076.108.104.043.027.09.041.136.061l.019.008c.125.049.253.083.381.083.024 0 .047-.007.071-.009l14.774-.001.001 13.254a9.351 9.351 0 0 0-3.463-.682c-5.169 0-9.375 4.206-9.375 9.375s4.206 9.375 9.375 9.375a9.351 9.351 0 0 0 3.463-.682v13.244H53.125a1 1 0 0 1-1-.999Zm88.75 1H97.991V80.023c0-.021-.011-.039-.012-.061a.934.934 0 0 0-.048-.236.834.834 0 0 0-.057-.149c-.015-.028-.016-.061-.034-.088-.023-.037-.06-.059-.087-.091a.944.944 0 0 0-.292-.242.922.922 0 0 0-.363-.111c-.037-.004-.069-.021-.107-.021-.028 0-.051.014-.079.016a1.153 1.153 0 0 0-.184.037 1.05 1.05 0 0 0-.203.077c-.021.011-.044.012-.064.024a7.36 7.36 0 0 1-3.933 1.135c-4.066 0-7.375-3.309-7.375-7.375s3.308-7.375 7.375-7.375c1.399 0 2.761.394 3.937 1.137.017.011.036.011.053.021a.938.938 0 0 0 .216.083.99.99 0 0 0 .183.037c.026.002.047.015.074.015.035 0 .065-.017.099-.02a.908.908 0 0 0 .359-.106.897.897 0 0 0 .293-.233c.033-.038.076-.064.104-.108.021-.033.023-.07.04-.104.017-.034.028-.07.041-.107a.964.964 0 0 0 .058-.283c0-.014.008-.025.008-.039L97.99 51.01h13.243a9.364 9.364 0 0 0-.681 3.461c0 5.169 4.206 9.375 9.375 9.375s9.375-4.206 9.375-9.375a9.349 9.349 0 0 0-.682-3.461h13.254v42.865a.999.999 0 0 1-.999 1Z"/></svg>