<svg xmlns="http://www.w3.org/2000/svg" fill="none">
  <path fill="#363636" d="m157.249 147.804 3.465-4.665 40.198 29.432a21.809 21.809 0 0 1 8.228 12.131l12.274 47.44a3.091 3.091 0 1 1-5.991 1.528l-12.682-50.476a3.848 3.848 0 0 0-1.414-2.134l-44.078-33.256Z"/>
  <path fill="#363636" d="M210.185 243.064c2.446-5.502 8.819-10.818 13.674-8.66 4.855 2.157 6.353 10.972 3.907 16.474-2.445 5.502-8.363 8.213-13.218 6.056-4.855-2.158-6.808-8.368-4.363-13.87Z"/>
  <path fill="#363636" d="M213.701 231.995c5.903-1.186 12.273 2.748 13.111 6.915.837 4.167-3.269 8.506-9.173 9.693-5.903 1.186-11.367-1.23-12.204-5.397-.838-4.167 2.363-10.025 8.266-11.211ZM76.75 147.804l-3.465-4.665-40.197 29.432a21.804 21.804 0 0 0-8.228 12.131l-12.274 47.44a3.09 3.09 0 1 0 5.991 1.528l12.681-50.476a3.847 3.847 0 0 1 1.415-2.134l44.078-33.256Z"/>
  <path fill="#363636" d="M23.814 243.064c-2.445-5.502-8.819-10.818-13.673-8.66-4.855 2.157-6.353 10.972-3.908 16.474 2.446 5.502 8.364 8.213 13.219 6.056 4.854-2.158 6.808-8.368 4.362-13.87Z"/>
  <path fill="#363636" d="M20.299 231.995c-5.903-1.186-12.274 2.748-13.111 6.915-.837 4.167 3.27 8.506 9.172 9.693 5.903 1.186 11.368-1.23 12.205-5.397.837-4.167-2.363-10.025-8.266-11.211Z"/>
  <path fill="#FDDA88" d="M80.844 5.721a6.912 6.912 0 0 0-5.976 3.442L39.35 70.697a6.896 6.896 0 0 0 0 6.897l35.518 61.534a6.916 6.916 0 0 0 5.976 3.441h71.051a6.912 6.912 0 0 0 5.963-3.441l35.518-61.577a6.9 6.9 0 0 0 0-6.897L157.858 9.163a6.911 6.911 0 0 0-5.963-3.442h-71.05Z"/>
  <path fill="#FFA065" d="M81.032 146.563a7.082 7.082 0 0 0-6.061 3.499l-36.056 62.454a7.08 7.08 0 0 0 0 6.996l36.056 62.441a6.994 6.994 0 0 0 6.061 3.498h72.114a7.003 7.003 0 0 0 6.047-3.498l36.056-62.441a7.077 7.077 0 0 0 0-6.996l-36.056-62.454a7.077 7.077 0 0 0-6.047-3.499H81.033Z"/>
  <path fill="#363636" d="M151.856 290.747H80.848a12.602 12.602 0 0 1-10.877-6.273l-35.575-61.535a12.586 12.586 0 0 1 0-12.561l35.533-61.534a12.608 12.608 0 0 1 10.876-6.274h71.051a12.573 12.573 0 0 1 10.863 6.274l35.532 61.534a12.585 12.585 0 0 1 0 12.561l-35.532 61.535a12.573 12.573 0 0 1-10.863 6.273ZM80.848 148.235a6.91 6.91 0 0 0-5.977 3.441l-35.56 61.534a6.9 6.9 0 0 0 0 6.897l35.518 61.534a6.91 6.91 0 0 0 5.976 3.442h71.051a6.92 6.92 0 0 0 5.963-3.442l35.532-61.534a6.962 6.962 0 0 0 0-6.897l-35.532-61.534a6.915 6.915 0 0 0-5.963-3.441H80.848Z"/>
  <path fill="#363636" d="M151.856 148.178H80.848a12.603 12.603 0 0 1-10.877-6.274L34.396 80.37a12.59 12.59 0 0 1 0-12.562L69.93 6.274A12.605 12.605 0 0 1 80.848 0h71.051a12.575 12.575 0 0 1 10.862 6.274l35.533 61.534a12.587 12.587 0 0 1 0 12.562l-35.533 61.534a12.576 12.576 0 0 1-10.905 6.274ZM80.848 5.665a6.91 6.91 0 0 0-5.977 3.441L39.311 70.64a6.897 6.897 0 0 0 0 6.897l35.518 61.534a6.91 6.91 0 0 0 5.976 3.442h71.051a6.92 6.92 0 0 0 5.963-3.442l35.532-61.534a6.962 6.962 0 0 0 0-6.897L157.819 9.106a6.916 6.916 0 0 0-5.963-3.441H80.848Z"/>
  <path fill="#363636" d="M160.226 153.092a2.832 2.832 0 0 1-2.464-1.417 12.559 12.559 0 0 1 0-12.547 2.831 2.831 0 0 1 3.873-1.041 2.839 2.839 0 0 1 1.041 3.873 6.864 6.864 0 0 0 0 6.883 2.82 2.82 0 0 1 .283 2.158 2.825 2.825 0 0 1-2.733 2.091ZM195.802 356.884a2.834 2.834 0 0 1-2.45-1.417l-35.532-61.534a6.923 6.923 0 0 0-2.522-2.516 6.925 6.925 0 0 0-3.44-.925H80.849a6.91 6.91 0 0 0-5.976 3.441l-30.265 52.4a2.83 2.83 0 0 1-1.72 1.323 2.848 2.848 0 0 1-2.985-1.011 2.838 2.838 0 0 1-.209-3.144l30.279-52.4a12.607 12.607 0 0 1 10.876-6.274H151.9a12.58 12.58 0 0 1 10.862 6.274l35.533 61.534a2.831 2.831 0 0 1-1.034 3.866 2.84 2.84 0 0 1-1.459.383Z"/>
  <path fill="#363636" d="M44.731 356.981c6.578 0 11.91-5.332 11.91-11.91s-5.332-11.91-11.91-11.91-11.91 5.332-11.91 11.91 5.333 11.91 11.91 11.91ZM197.106 368.823c6.578 0 11.91-5.332 11.91-11.91s-5.332-11.911-11.91-11.911-11.91 5.333-11.91 11.911c0 6.578 5.332 11.91 11.91 11.91Z"/>
  <path stroke="#363636" stroke-width="3.434" d="M110.703 72.41c0 10.838-8.288 19.458-18.314 19.458s-18.314-8.62-18.314-19.458 8.288-19.458 18.314-19.458 18.314 8.62 18.314 19.458ZM157.632 71.838c0 10.838-8.288 19.458-18.314 19.458s-18.314-8.62-18.314-19.458 8.288-19.458 18.314-19.458 18.314 8.62 18.314 19.458Z"/>
  <path fill="#363636" stroke="#363636" stroke-width=".572" d="M108.127 65.173c0-.505.272-.97.711-1.218l5.036-2.849a3.148 3.148 0 0 1 3.291.118l4.096 2.72a1.345 1.345 0 0 1-1.395 2.297l-2.635-1.458a3.694 3.694 0 0 0-3.363-.109l-3.744 1.765a1.4 1.4 0 0 1-1.997-1.266Z"/>
  <path stroke="#363636" stroke-linecap="round" stroke-width="1.145" d="m122.708 107.321-4.969-3.427a8.011 8.011 0 0 0-7.155-.98l-5.325 1.831"/>
  <path fill="#363636" stroke="#363636" stroke-width=".572" d="M143.484 75.558c0 3.502-2.587 6.296-5.723 6.296-3.137 0-5.723-2.794-5.723-6.296 0-3.501 2.586-6.295 5.723-6.295 3.136 0 5.723 2.794 5.723 6.295Z"/>
  <circle cx="137.443" cy="76.448" r="1.717" fill="#fff" stroke="#363636" stroke-width=".572"/>
  <path fill="#363636" stroke="#363636" stroke-width=".572" d="M98.112 75.558c0 3.502-2.586 6.296-5.723 6.296s-5.723-2.794-5.723-6.296c0-3.501 2.586-6.295 5.723-6.295s5.723 2.794 5.723 6.295Z"/>
  <circle cx="92.071" cy="76.448" r="1.717" fill="#fff" stroke="#363636" stroke-width=".572"/>
  <path stroke="#363636" stroke-linecap="round" stroke-width="1.717" d="M69.736 56.682c6.871-6.266 14.091-12.201 23.067-15.176M130.686 39.372c4.43.146 9.801 1.657 13.457 4.4.342.256 2.586 2.247 1.94 1.924"/>
</svg>