<svg xmlns="http://www.w3.org/2000/svg" width="442" height="680" fill="none">
  <g fill="#39B5AC" opacity=".2">
    <path d="M-131.825 173.832a16.906 16.906 0 0 0-14.472 8.352l-86.085 149.111a16.899 16.899 0 0 0 0 16.703l86.085 149.077a16.703 16.703 0 0 0 14.472 8.352h172.17a16.703 16.703 0 0 0 14.438-8.352l86.086-149.077a16.913 16.913 0 0 0 0-16.703L54.783 182.184a16.904 16.904 0 0 0-14.438-8.352h-172.17ZM167.099 347.618a16.9 16.9 0 0 0-14.471 8.351L66.542 505.08a16.909 16.909 0 0 0 0 16.704l86.086 149.077a16.7 16.7 0 0 0 14.471 8.351H339.27a16.703 16.703 0 0 0 14.438-8.351l86.085-149.077a16.902 16.902 0 0 0 0-16.704l-86.085-149.111a16.909 16.909 0 0 0-14.438-8.351H167.099ZM167.099.542a16.901 16.901 0 0 0-14.471 8.352L66.542 158.005a16.902 16.902 0 0 0 0 16.703l86.086 149.077a16.7 16.7 0 0 0 14.471 8.352H339.27a16.704 16.704 0 0 0 14.438-8.352l86.085-149.077a16.902 16.902 0 0 0 0-16.703L353.708 8.894A16.903 16.903 0 0 0 339.27.542H167.099Z" opacity=".2"/>
  </g>
</svg>