<svg xmlns="http://www.w3.org/2000/svg" width="386" height="359" fill="none">
  <g filter="url(#a)" opacity=".2">
    <path fill="#39B5AC" d="M104.399 19c-2.947.0193-5.8383.8039-8.3909 2.277s-4.6787 3.5842-6.1699 6.1262L3.22051 177.436C1.76514 179.998 1 182.893 1 185.839c0 2.947.76514 5.842 2.22051 8.404L89.8382 344.242c1.4756 2.556 3.5982 4.678 6.1543 6.153 2.5561 1.475 5.4555 2.251 8.4065 2.25h173.236c2.945-.005 5.838-.784 8.387-2.259 2.55-1.474 4.667-3.593 6.14-6.144l86.617-149.999c1.456-2.562 2.221-5.457 2.221-8.404 0-2.946-.765-5.841-2.221-8.403L292.162 27.4032c-1.488-2.5371-3.609-4.645-6.155-6.1178-2.546-1.4728-5.431-2.2602-8.372-2.2854H104.399Z"/>
  </g>
  <mask id="b" width="380" height="334" x="1" y="19" maskUnits="userSpaceOnUse" style="mask-type:alpha">
    <path fill="#39B5AC" d="M104.399 19c-2.947.0193-5.8383.8039-8.3909 2.277s-4.6787 3.5842-6.1699 6.1262L3.22051 177.436C1.76514 179.998 1 182.893 1 185.839c0 2.947.76514 5.842 2.22051 8.404L89.8382 344.242c1.4756 2.556 3.5982 4.678 6.1543 6.153 2.5561 1.475 5.4555 2.251 8.4065 2.25h173.236c2.945-.005 5.838-.784 8.387-2.259 2.55-1.474 4.667-3.593 6.14-6.144l86.617-149.999c1.456-2.562 2.221-5.457 2.221-8.404 0-2.946-.765-5.841-2.221-8.403L292.162 27.4032c-1.488-2.5371-3.609-4.645-6.155-6.1178-2.546-1.4728-5.431-2.2602-8.372-2.2854H104.399Z"/>
  </mask>
  <g mask="url(#b)">
    <path fill="#B1B1B1" d="M208.61 109.496c0-3.371 2.732-6.103 6.103-6.103h134.27c3.371 0 6.103 2.732 6.103 6.103v28.227H208.61v-28.227Z"/>
    <path fill="#fff" d="M257.795 126.558h-1.705v-8.904h-3.03v-1.444h7.758v1.444h-3.023v8.904Zm6.101-11.013v2.767c0 .288-.009.569-.028.842-.014.274-.031.486-.049.637h.092c.165-.273.368-.497.608-.672.241-.179.51-.314.807-.403.302-.09.623-.135.963-.135.599 0 1.108.102 1.528.304.42.199.741.508.963.928.226.42.34.965.34 1.635v5.11h-1.664v-4.799c0-.609-.125-1.064-.375-1.366-.25-.307-.637-.46-1.16-.46-.505 0-.906.106-1.204.318-.292.208-.502.517-.63.928-.127.405-.191.901-.191 1.486v3.893h-1.663v-11.013h1.663Zm10.674 3.029c.698 0 1.297.144 1.797.432.5.288.885.696 1.154 1.224.269.529.403 1.161.403 1.897v.892h-5.23c.019.759.222 1.345.609 1.755.391.411.939.616 1.642.616.5 0 .948-.047 1.344-.142.401-.099.814-.243 1.239-.431v1.351c-.392.184-.79.319-1.196.404-.406.085-.892.127-1.458.127-.769 0-1.446-.148-2.031-.446-.581-.302-1.036-.75-1.366-1.344-.326-.595-.489-1.333-.489-2.216 0-.877.149-1.623.446-2.236.297-.614.715-1.081 1.253-1.402.538-.321 1.165-.481 1.883-.481Zm0 1.253c-.524 0-.949.17-1.274.509-.321.34-.51.838-.567 1.494h3.567c-.004-.392-.07-.739-.198-1.041-.122-.302-.311-.538-.566-.707-.25-.17-.571-.255-.962-.255Zm14.084-1.253c.878 0 1.538.226 1.982.679.448.453.672 1.18.672 2.18v5.125h-1.663v-4.827c0-.595-.116-1.043-.347-1.345-.231-.302-.583-.453-1.054-.453-.661 0-1.138.212-1.43.637-.288.42-.432 1.031-.432 1.833v4.155h-1.663v-4.827c0-.397-.052-.727-.156-.991-.099-.269-.252-.47-.46-.602-.207-.137-.469-.205-.785-.205-.458 0-.824.104-1.098.311-.268.208-.462.515-.58.92-.118.402-.177.895-.177 1.48v3.914H279.8v-7.835h1.295l.234 1.054h.092c.16-.273.358-.498.594-.672.241-.179.507-.312.8-.397.293-.089.597-.134.913-.134.585 0 1.078.104 1.479.311.401.203.701.515.899.935h.128c.245-.425.587-.739 1.026-.942.439-.203.903-.304 1.394-.304Zm8.097 0c.698 0 1.298.144 1.798.432.5.288.884.696 1.153 1.224.269.529.404 1.161.404 1.897v.892h-5.231c.019.759.222 1.345.609 1.755.392.411.939.616 1.642.616.5 0 .948-.047 1.345-.142.401-.099.814-.243 1.238-.431v1.351c-.391.184-.79.319-1.196.404-.406.085-.892.127-1.458.127-.769 0-1.446-.148-2.031-.446-.58-.302-1.036-.75-1.366-1.344-.326-.595-.488-1.333-.488-2.216 0-.877.148-1.623.446-2.236.297-.614.714-1.081 1.252-1.402.538-.321 1.166-.481 1.883-.481Zm0 1.253c-.524 0-.948.17-1.274.509-.321.34-.51.838-.566 1.494h3.567c-.005-.392-.071-.739-.198-1.041-.123-.302-.312-.538-.567-.707-.25-.17-.57-.255-.962-.255Zm9.314-1.253c.882 0 1.569.229 2.06.687.495.453.743 1.182.743 2.187v5.11h-1.663v-4.799c0-.609-.125-1.064-.375-1.366-.251-.307-.637-.46-1.161-.46-.76 0-1.288.233-1.586.701-.292.467-.438 1.144-.438 2.031v3.893h-1.664v-7.835h1.296l.233 1.061h.092c.17-.273.38-.498.63-.672.255-.179.538-.314.849-.404.316-.089.644-.134.984-.134Z"/>
    <path fill="#39B5AC" d="M46.8755 109.496c0-3.371 2.7325-6.103 6.1032-6.103H187.249c3.37 0 6.103 2.732 6.103 6.103v28.227H46.8755v-28.227Z"/>
    <path fill="#fff" d="M104.657 126.558h-1.684V116.21h5.846v1.43h-4.162v3.227h3.893v1.423h-3.893v4.268Zm7.538-7.835v7.835h-1.663v-7.835h1.663Zm-.821-3.001c.255 0 .474.068.658.205.189.137.283.373.283.708 0 .33-.094.566-.283.707-.184.137-.403.206-.658.206-.264 0-.489-.069-.673-.206-.179-.141-.269-.377-.269-.707 0-.335.09-.571.269-.708.184-.137.409-.205.673-.205Zm4.876 10.836h-1.67v-11.013h1.67v11.013Zm5.294-1.204c.217 0 .432-.018.644-.056.213-.043.406-.092.581-.149v1.26c-.184.08-.422.149-.715.205-.293.057-.597.085-.913.085-.444 0-.842-.073-1.196-.219-.354-.151-.635-.408-.842-.772-.208-.363-.312-.866-.312-1.507v-4.211h-1.069v-.744l1.147-.587.545-1.677h1.048v1.741h2.243v1.267h-2.243v4.19c0 .396.099.691.297.884.198.194.46.29.785.29Zm5.939-6.78c.698 0 1.297.144 1.797.432.5.288.885.696 1.154 1.224.269.529.403 1.161.403 1.897v.892h-5.23c.019.759.222 1.345.609 1.755.391.411.939.616 1.642.616.5 0 .948-.047 1.344-.142.402-.099.814-.243 1.239-.431v1.351c-.392.184-.79.319-1.196.404-.406.085-.892.127-1.458.127-.769 0-1.446-.148-2.031-.446-.581-.302-1.036-.75-1.366-1.344-.326-.595-.489-1.333-.489-2.216 0-.877.149-1.623.446-2.236.297-.614.715-1.081 1.253-1.402.538-.321 1.165-.481 1.883-.481Zm0 1.253c-.524 0-.949.17-1.274.509-.321.34-.51.838-.567 1.494h3.568c-.005-.392-.071-.739-.199-1.041-.122-.302-.311-.538-.566-.707-.25-.17-.571-.255-.962-.255Zm9.201-1.253c.132 0 .276.007.431.021.156.014.29.033.404.057l-.156 1.557c-.099-.028-.222-.05-.368-.064-.142-.014-.269-.021-.382-.021-.297 0-.581.05-.85.149-.268.094-.507.24-.714.438-.208.194-.371.437-.489.729-.118.293-.177.633-.177 1.02v4.098h-1.67v-7.835h1.302l.227 1.38h.078c.155-.279.349-.533.58-.765.231-.231.495-.415.793-.552.302-.141.632-.212.991-.212Z"/>
    <path fill="#F7F7F7" d="M46.8755 137.723h308.211v746.115H46.8755z"/>
    <path fill="#282828" d="m83.9357 187.342-.8523-2.42h-3.3318l-.8523 2.42h-1.5079l3.2423-8.75h1.5854l3.2364 8.75h-1.5198Zm-1.2219-3.648-.8284-2.384c-.0318-.103-.0775-.248-.1371-.435-.0596-.191-.1192-.383-.1788-.578-.0596-.199-.1093-.366-.149-.501-.0398.163-.0894.346-.149.549-.0557.198-.1113.385-.1669.56-.0517.175-.0914.31-.1192.405l-.8344 2.384h2.5628Zm5.1556 3.648h-1.4066v-9.274h1.4066v9.274Zm4.4581-1.013c.1828 0 .3636-.016.5424-.048.1788-.036.3417-.078.4887-.125v1.061c-.1549.067-.3556.125-.6019.172-.2464.048-.5027.072-.7689.072-.3735 0-.7092-.062-1.0073-.185-.298-.127-.5344-.343-.7092-.649-.1748-.306-.2623-.73-.2623-1.27v-3.546h-.8999v-.626l.9655-.495.4589-1.412h.8821v1.466h1.8894v1.067h-1.8894v3.528c0 .334.0835.582.2504.745.1668.163.3874.245.6615.245Zm5.0006-5.71c.5881 0 1.0927.121 1.5139.363.4212.243.745.586.9715 1.031.2265.445.3395.978.3395 1.598v.751h-4.4043c.0159.639.1867 1.132.5125 1.478.3298.346.7907.518 1.3828.518.4212 0 .7986-.039 1.1324-.119.3378-.083.6854-.204 1.043-.363v1.138c-.3298.155-.6655.268-1.0072.34-.3417.071-.751.107-1.2278.107-.6477 0-1.2179-.125-1.7106-.375-.4887-.255-.8721-.632-1.1503-1.133-.2742-.501-.4112-1.122-.4112-1.865 0-.739.1251-1.367.3755-1.884.2503-.516.6019-.91 1.0549-1.18.453-.27.9814-.405 1.5854-.405Zm0 1.055c-.4411 0-.7987.143-1.0728.429-.2702.286-.4292.705-.4768 1.257h3.0039c-.004-.329-.0596-.621-.1669-.876-.1033-.254-.2623-.453-.4768-.596-.2106-.143-.4808-.214-.8106-.214Zm7.7479-1.055c.112 0 .233.006.364.018.131.012.244.027.34.047l-.132 1.312c-.083-.024-.186-.042-.309-.054-.12-.012-.227-.018-.322-.018-.251 0-.489.042-.716.125-.226.08-.427.203-.602.37-.174.163-.311.367-.411.614-.099.246-.149.532-.149.858v3.451h-1.406v-6.598h1.096l.191 1.162h.066c.131-.234.294-.449.488-.644.195-.194.418-.349.668-.464.254-.12.532-.179.834-.179Zm6.36 4.839c0 .433-.106.799-.316 1.097-.211.298-.519.525-.924.68-.401.151-.894.226-1.478.226-.461 0-.858-.034-1.192-.101-.33-.064-.642-.163-.936-.298v-1.21c.314.147.666.274 1.055.381.393.107.765.161 1.115.161.461 0 .792-.071.995-.214.203-.147.304-.342.304-.585 0-.143-.042-.27-.125-.381-.08-.115-.231-.232-.453-.352-.219-.123-.541-.27-.966-.441-.417-.167-.769-.333-1.055-.5-.286-.167-.502-.368-.649-.602-.147-.239-.221-.543-.221-.912 0-.584.231-1.027.692-1.329.464-.306 1.078-.459 1.841-.459.406 0 .787.041 1.145.125.361.079.715.197 1.06.352l-.441 1.055c-.298-.132-.598-.239-.9-.322-.298-.088-.602-.131-.911-.131-.362 0-.638.055-.829.166-.187.112-.28.271-.28.477 0 .155.046.286.137.394.091.107.248.214.471.321.226.108.54.241.942.4.393.151.733.31 1.019.477.29.163.512.363.667.602.155.238.233.546.233.923Zm3.397 4.816c-.894 0-1.579-.161-2.056-.483-.477-.321-.715-.772-.715-1.353 0-.405.127-.749.381-1.031.254-.278.618-.47 1.091-.578-.179-.079-.334-.202-.465-.369-.127-.171-.191-.36-.191-.567 0-.246.07-.456.209-.631.139-.175.347-.344.626-.507-.346-.147-.624-.385-.835-.715-.207-.334-.31-.725-.31-1.174 0-.477.102-.882.304-1.216.203-.338.499-.594.888-.769.39-.179.86-.268 1.413-.268.119 0 .248.008.387.024.143.012.274.027.394.047.123.016.216.034.28.054h2.282v.781l-1.12.208c.107.151.193.324.256.519.064.191.096.399.096.626 0 .683-.237 1.222-.71 1.615-.469.389-1.116.584-1.943.584-.198-.008-.391-.024-.578-.048-.143.088-.252.185-.328.292-.075.104-.113.221-.113.352 0 .107.038.195.113.262.076.064.187.111.334.143.151.032.334.048.548.048h1.139c.723 0 1.275.153 1.657.459.381.306.572.755.572 1.347 0 .751-.31 1.329-.93 1.734-.62.41-1.512.614-2.676.614Zm.054-.983c.488 0 .9-.048 1.233-.143.334-.096.587-.233.757-.412.171-.174.257-.383.257-.625 0-.215-.054-.38-.161-.495-.108-.115-.268-.195-.483-.238-.215-.044-.481-.066-.799-.066h-1.037c-.258 0-.487.04-.685.119-.199.084-.354.203-.465.358-.107.155-.161.342-.161.56 0 .302.133.534.399.697.271.163.652.245 1.145.245Zm.274-5.138c.409 0 .713-.111.912-.334.198-.226.298-.544.298-.953 0-.445-.104-.779-.31-1.002-.203-.222-.505-.333-.906-.333-.393 0-.693.113-.9.339-.203.227-.304.563-.304 1.008 0 .401.101.715.304.941.207.223.509.334.906.334Zm7.903-3.534c.111 0 .232.006.364.018.131.012.244.027.339.047l-.131 1.312c-.083-.024-.187-.042-.31-.054-.119-.012-.226-.018-.322-.018-.25 0-.488.042-.715.125-.226.08-.427.203-.602.37-.175.163-.312.367-.411.614-.099.246-.149.532-.149.858v3.451h-1.407v-6.598h1.097l.191 1.162h.065c.131-.234.294-.449.489-.644.195-.194.417-.349.668-.464.254-.12.532-.179.834-.179Zm7.677.125v6.598h-1.103l-.191-.888h-.077c-.139.226-.316.415-.531.566-.214.147-.453.256-.715.328-.262.075-.538.113-.828.113-.497 0-.922-.083-1.276-.25-.349-.171-.618-.433-.804-.787-.187-.354-.281-.811-.281-1.371v-4.309h1.407v4.047c0 .512.103.896.31 1.15.211.254.536.382.977.382.426 0 .763-.088 1.014-.263.25-.174.427-.433.53-.774.107-.342.161-.761.161-1.258v-3.284h1.407Zm5.394-.125c.782 0 1.41.286 1.883.858.477.572.715 1.423.715 2.551 0 .747-.111 1.377-.334 1.889-.218.509-.526.894-.923 1.157-.394.258-.853.387-1.377.387-.334 0-.624-.044-.87-.131-.247-.088-.457-.201-.632-.34-.175-.143-.322-.298-.441-.465h-.084c.02.159.038.336.054.531.02.19.03.365.03.524v2.688h-1.407v-9.524h1.145l.196.912h.066c.123-.187.272-.36.447-.519.179-.159.393-.284.644-.375.254-.096.55-.143.888-.143Zm-.376 1.144c-.385 0-.695.078-.93.233-.23.151-.399.379-.506.685-.104.306-.159.689-.167 1.15v.197c0 .489.049.904.149 1.246.103.337.272.596.506.774.239.175.561.263.966.263.342 0 .624-.094.846-.28.227-.187.396-.453.507-.799.111-.346.167-.753.167-1.222 0-.711-.127-1.263-.382-1.657-.25-.393-.635-.59-1.156-.59Zm7.981-1.144c.782 0 1.41.286 1.883.858.477.572.715 1.423.715 2.551 0 .747-.111 1.377-.333 1.889-.219.509-.527.894-.924 1.157-.394.258-.853.387-1.377.387-.334 0-.624-.044-.87-.131-.247-.088-.457-.201-.632-.34-.175-.143-.322-.298-.441-.465h-.083c.019.159.037.336.053.531.02.19.03.365.03.524v2.688h-1.407v-9.524h1.145l.196.912h.066c.123-.187.272-.36.447-.519.179-.159.393-.284.644-.375.254-.096.55-.143.888-.143Zm-.376 1.144c-.385 0-.695.078-.93.233-.23.151-.399.379-.506.685-.103.306-.159.689-.167 1.15v.197c0 .489.05.904.149 1.246.103.337.272.596.507.774.238.175.56.263.965.263.342 0 .624-.094.846-.28.227-.187.396-.453.507-.799.111-.346.167-.753.167-1.222 0-.711-.127-1.263-.381-1.657-.251-.393-.636-.59-1.157-.59Zm7.224-1.144c.588 0 1.093.121 1.514.363.421.243.745.586.971 1.031.227.445.34.978.34 1.598v.751h-4.405c.016.639.187 1.132.513 1.478.33.346.791.518 1.383.518.421 0 .798-.039 1.132-.119.338-.083.686-.204 1.043-.363v1.138c-.33.155-.665.268-1.007.34-.342.071-.751.107-1.228.107-.647 0-1.218-.125-1.71-.375-.489-.255-.873-.632-1.151-1.133-.274-.501-.411-1.122-.411-1.865 0-.739.125-1.367.376-1.884.25-.516.602-.91 1.055-1.18.453-.27.981-.405 1.585-.405Zm0 1.055c-.441 0-.799.143-1.073.429-.27.286-.429.705-.477 1.257h3.004c-.004-.329-.059-.621-.167-.876-.103-.254-.262-.453-.476-.596-.211-.143-.481-.214-.811-.214Zm7.843-1.055c.744 0 1.322.192 1.735.578.417.381.626.995.626 1.842v4.303h-1.401v-4.041c0-.513-.105-.896-.316-1.15-.21-.259-.536-.388-.977-.388-.64 0-1.085.197-1.335.59-.247.394-.37.964-.37 1.711v3.278h-1.401v-6.598h1.091l.197.894h.077c.143-.231.32-.419.531-.566.214-.151.453-.265.715-.34.266-.075.542-.113.828-.113Z"/>
    <rect width="246.416" height="32.8046" x="77.7729" y="197.61" fill="#fff" rx="5.72174"/>
    <path fill="#686868" d="m97.7811 219.146-1.0728-2.766h-3.4927l-1.0669 2.766h-1.0251l3.4092-8.749h.9119l3.3854 8.749h-1.049Zm-1.3768-3.665-1.0192-2.748c-.0238-.072-.0636-.189-.1192-.352-.0517-.163-.1053-.332-.1609-.506-.0557-.175-.1014-.316-.1371-.424-.0397.163-.0835.326-.1311.489-.0437.159-.0875.308-.1312.447-.0437.135-.0814.251-.1132.346l-1.0371 2.748h2.849Zm4.4817 3.665h-.995v-9.274h.995v9.274Zm3.088 0h-.996v-9.274h.996v9.274Zm4.607-6.652c.556 0 1.033.124 1.43.37.398.246.702.592.912 1.037.211.441.316.958.316 1.55v.614h-4.512c.012.766.203 1.351.572 1.752.37.401.89.602 1.562.602.413 0 .779-.038 1.097-.113.318-.076.647-.187.989-.334v.87c-.33.147-.658.254-.983.322-.322.067-.704.101-1.145.101-.628 0-1.176-.127-1.645-.381-.465-.259-.826-.636-1.084-1.133-.259-.496-.388-1.104-.388-1.823 0-.704.117-1.312.352-1.824.238-.517.572-.914 1.001-1.192.433-.278.942-.418 1.526-.418Zm-.012.811c-.529 0-.95.173-1.264.519-.314.345-.5.828-.56 1.448h3.457c-.004-.389-.066-.731-.185-1.025-.115-.298-.292-.529-.53-.692-.239-.167-.545-.25-.918-.25Zm13.136 5.841-1.073-2.766h-3.492l-1.067 2.766h-1.025l3.409-8.749h.912l3.385 8.749h-1.049Zm-1.377-3.665-1.019-2.748c-.024-.072-.063-.189-.119-.352-.052-.163-.105-.332-.161-.506-.056-.175-.101-.316-.137-.424-.04.163-.084.326-.131.489-.044.159-.088.308-.131.447-.044.135-.082.251-.114.346l-1.037 2.748h2.849Zm4.482 3.665h-.995v-9.274h.995v9.274Zm4.202-.691c.163 0 .33-.014.501-.042.171-.028.31-.062.417-.101v.768c-.115.052-.276.096-.483.132-.202.035-.401.053-.596.053-.345 0-.659-.059-.941-.179-.283-.123-.509-.329-.68-.619-.167-.291-.25-.692-.25-1.204v-3.875h-.93v-.482l.936-.388.393-1.418h.596v1.514h1.913v.774h-1.913v3.845c0 .409.094.715.28.918.191.202.443.304.757.304Zm4.756-5.961c.557 0 1.034.124 1.431.37s.701.592.912 1.037c.21.441.316.958.316 1.55v.614h-4.512c.012.766.202 1.351.572 1.752.37.401.89.602 1.562.602.413 0 .778-.038 1.096-.113.318-.076.648-.187.99-.334v.87c-.33.147-.658.254-.984.322-.322.067-.703.101-1.144.101-.628 0-1.176-.127-1.645-.381-.465-.259-.827-.636-1.085-1.133-.258-.496-.387-1.104-.387-1.823 0-.704.117-1.312.351-1.824.239-.517.572-.914 1.002-1.192.433-.278.941-.418 1.525-.418Zm-.011.811c-.529 0-.95.173-1.264.519-.314.345-.501.828-.56 1.448h3.457c-.004-.389-.066-.731-.185-1.025-.115-.298-.292-.529-.531-.692-.238-.167-.544-.25-.917-.25Zm7.319-.811c.131 0 .268.008.411.024.143.012.27.03.381.054l-.125.918c-.107-.028-.226-.05-.358-.066-.131-.016-.254-.024-.369-.024-.262 0-.511.054-.745.161-.231.104-.433.255-.608.453-.175.195-.312.431-.411.71-.1.274-.149.58-.149.917v3.505h-.996v-6.532h.823l.107 1.204h.042c.135-.243.298-.463.489-.662.19-.203.411-.364.661-.483.255-.119.537-.179.847-.179Zm6.252 4.864c0 .417-.106.769-.316 1.055-.207.282-.505.495-.894.638-.386.143-.847.214-1.383.214-.457 0-.852-.036-1.186-.107-.334-.072-.626-.173-.876-.304v-.912c.266.131.584.25.953.358.37.107.748.161 1.133.161.564 0 .973-.092 1.228-.275.254-.182.381-.431.381-.745 0-.178-.051-.335-.155-.47-.099-.14-.268-.273-.506-.4-.239-.131-.569-.274-.99-.429-.417-.159-.779-.316-1.085-.471-.302-.159-.536-.351-.703-.578-.163-.226-.244-.52-.244-.882 0-.552.222-.975.667-1.27.449-.298 1.037-.447 1.765-.447.393 0 .76.04 1.102.12.346.075.668.178.966.31l-.334.792c-.27-.115-.558-.212-.864-.292-.306-.079-.618-.119-.936-.119-.457 0-.809.076-1.055.227-.242.151-.364.357-.364.619 0 .203.056.37.167.501.116.131.298.254.549.37.25.115.58.25.989.405.409.151.763.308 1.061.471.298.159.526.353.685.584.163.226.245.518.245.876Zm3.415 4.72c-.858 0-1.52-.161-1.985-.482-.465-.318-.697-.765-.697-1.341 0-.41.129-.759.387-1.049.262-.29.624-.483 1.085-.579-.171-.079-.318-.198-.441-.357-.119-.159-.179-.342-.179-.548 0-.239.066-.447.197-.626.135-.183.34-.358.614-.525-.342-.139-.62-.373-.835-.703-.21-.334-.316-.721-.316-1.162 0-.469.098-.869.292-1.198.195-.334.477-.588.847-.763.369-.175.816-.262 1.341-.262.115 0 .23.006.346.017.119.008.232.022.339.042.108.016.201.036.28.06h2.241v.637l-1.204.149c.12.155.219.342.298.561.08.218.12.461.12.727 0 .652-.221 1.17-.662 1.555-.441.382-1.047.573-1.818.573-.183 0-.369-.016-.56-.048-.195.107-.344.226-.447.358-.099.131-.149.282-.149.453 0 .127.038.228.113.304.08.075.193.131.34.166.147.032.324.048.53.048h1.151c.711 0 1.255.149 1.633.447.381.298.572.733.572 1.305 0 .724-.294 1.278-.882 1.663-.588.386-1.439.578-2.551.578Zm.03-.774c.54 0 .987-.056 1.341-.167.357-.108.624-.265.798-.471.179-.203.269-.445.269-.727 0-.263-.06-.461-.179-.596-.119-.131-.294-.219-.525-.263-.23-.047-.512-.071-.846-.071h-1.132c-.294 0-.551.046-.769.137-.219.091-.388.226-.507.405-.115.179-.173.402-.173.668 0 .353.149.622.447.804.298.187.723.281 1.276.281Zm.256-5.222c.473 0 .828-.119 1.067-.357.238-.239.357-.586.357-1.043 0-.489-.121-.854-.363-1.097-.242-.246-.6-.369-1.073-.369-.453 0-.803.127-1.049.381-.242.25-.363.618-.363 1.103 0 .445.123.786.369 1.025.246.238.598.357 1.055.357Zm7.486-3.588c.131 0 .268.008.411.024.143.012.27.03.382.054l-.126.918c-.107-.028-.226-.05-.357-.066-.131-.016-.254-.024-.37-.024-.262 0-.51.054-.745.161-.23.104-.433.255-.608.453-.174.195-.312.431-.411.71-.099.274-.149.58-.149.917v3.505h-.995v-6.532h.822l.108 1.204h.041c.135-.243.298-.463.489-.662.191-.203.411-.364.662-.483.254-.119.536-.179.846-.179Zm7.42.12v6.532h-.81l-.143-.918h-.054c-.135.227-.31.417-.524.572-.215.155-.457.271-.728.346-.266.079-.55.119-.852.119-.516 0-.95-.083-1.299-.25-.35-.167-.614-.425-.793-.775-.175-.35-.262-.799-.262-1.347v-4.279h1.001v4.208c0 .544.123.951.37 1.221.246.267.622.4 1.126.4.485 0 .87-.092 1.156-.274.29-.183.499-.451.626-.805.127-.358.191-.795.191-1.311v-3.439h.995Zm5.162-.12c.814 0 1.464.281 1.949.841.485.56.727 1.402.727 2.527 0 .743-.111 1.367-.334 1.871-.222.505-.536.887-.942 1.145-.401.258-.876.387-1.424.387-.346 0-.65-.045-.912-.137-.262-.091-.487-.214-.673-.369-.187-.155-.342-.324-.465-.507h-.072c.012.155.026.342.042.56.02.219.03.409.03.572v2.682h-.996v-9.452h.817l.131.965h.048c.127-.198.282-.379.465-.542.182-.167.405-.298.667-.394.266-.099.58-.149.942-.149Zm-.173.835c-.453 0-.819.087-1.097.262-.274.175-.475.437-.602.787-.127.346-.194.781-.202 1.305v.191c0 .552.059 1.019.178 1.401.124.381.324.671.602.87.283.198.66.298 1.133.298.405 0 .743-.11 1.013-.328.27-.219.471-.523.602-.912.135-.393.203-.844.203-1.353 0-.771-.151-1.383-.453-1.836-.298-.457-.757-.685-1.377-.685Zm7.647-.835c.814 0 1.464.281 1.949.841.485.56.727 1.402.727 2.527 0 .743-.111 1.367-.334 1.871-.222.505-.536.887-.942 1.145-.401.258-.876.387-1.424.387-.346 0-.65-.045-.912-.137-.262-.091-.487-.214-.673-.369-.187-.155-.342-.324-.465-.507h-.072c.012.155.026.342.042.56.02.219.03.409.03.572v2.682h-.996v-9.452h.817l.131.965h.048c.127-.198.282-.379.465-.542.182-.167.405-.298.667-.394.266-.099.58-.149.942-.149Zm-.173.835c-.453 0-.819.087-1.097.262-.274.175-.475.437-.602.787-.127.346-.194.781-.202 1.305v.191c0 .552.059 1.019.178 1.401.124.381.324.671.602.87.283.198.66.298 1.133.298.405 0 .743-.11 1.013-.328.27-.219.471-.523.602-.912.135-.393.203-.844.203-1.353 0-.771-.151-1.383-.453-1.836-.298-.457-.757-.685-1.377-.685Zm7.093-.835c.556 0 1.033.124 1.43.37s.701.592.912 1.037c.21.441.316.958.316 1.55v.614h-4.512c.012.766.203 1.351.572 1.752.37.401.89.602 1.562.602.413 0 .778-.038 1.096-.113.318-.076.648-.187.99-.334v.87c-.33.147-.658.254-.984.322-.322.067-.703.101-1.144.101-.628 0-1.176-.127-1.645-.381-.465-.259-.827-.636-1.085-1.133-.258-.496-.387-1.104-.387-1.823 0-.704.117-1.312.351-1.824.239-.517.573-.914 1.002-1.192.433-.278.941-.418 1.526-.418Zm-.012.811c-.529 0-.95.173-1.264.519-.314.345-.501.828-.56 1.448h3.457c-.004-.389-.066-.731-.185-1.025-.115-.298-.292-.529-.531-.692-.238-.167-.544-.25-.917-.25Zm7.444-.811c.775 0 1.361.191 1.758.573.397.377.596.985.596 1.823v4.256h-.977v-4.19c0-.544-.126-.952-.376-1.222-.246-.27-.626-.405-1.138-.405-.723 0-1.232.205-1.526.614-.294.409-.441 1.003-.441 1.782v3.421h-.989v-6.532h.798l.149.941h.054c.139-.23.316-.423.53-.578.215-.159.455-.278.721-.357.267-.084.547-.126.841-.126Z"/>
    <path stroke="#686868" stroke-linecap="round" stroke-linejoin="round" stroke-width="1.5258" d="m307.66 212.105-4.451 4.451-4.45-4.451"/>
    <rect width="246.416" height="32.8046" x="77.7729" y="197.61" stroke="#DADADA" stroke-width=".762898" rx="5.72174"/>
    <path stroke="#DADADA" stroke-linejoin="round" stroke-width=".762898" d="M77.3914 252.158H324.57"/>
    <path fill="#282828" d="M79.9543 286.519h-1.4185v-8.714h4.923v1.204h-3.5045v2.718h3.2781v1.198h-3.2781v3.594Zm10.7878-3.314c0 .548-.0715 1.035-.2145 1.46-.1431.425-.3517.785-.6258 1.079-.2742.29-.604.512-.9894.667-.3854.151-.8205.227-1.3053.227-.453 0-.8682-.076-1.2457-.227-.3774-.155-.7052-.377-.9834-.667-.2742-.294-.4867-.654-.6377-1.079-.151-.425-.2265-.912-.2265-1.46 0-.727.1252-1.343.3755-1.848.2543-.509.6159-.896 1.0847-1.162.4689-.266 1.0272-.399 1.6748-.399.608 0 1.1444.133 1.6093.399.4649.266.8284.653 1.0907 1.162.2622.509.3933 1.125.3933 1.848Zm-4.786 0c0 .48.0577.892.1729 1.233.1192.342.302.604.5483.787.2464.179.5642.268.9536.268.3894 0 .7073-.089.9537-.268.2463-.183.4271-.445.5423-.787.1153-.341.1729-.753.1729-1.233 0-.481-.0576-.888-.1729-1.222-.1152-.338-.296-.594-.5423-.769-.2464-.179-.5662-.268-.9596-.268-.5801 0-1.0033.195-1.2695.584-.2662.389-.3994.948-.3994 1.675Zm9.7389-3.409c.1113 0 .2325.005.3636.017.1311.012.2444.028.3397.048l-.1311 1.311c-.0835-.024-.1868-.041-.3099-.053-.1192-.012-.2265-.018-.3219-.018-.2503 0-.4887.042-.7152.125-.2265.079-.4271.203-.602.369-.1748.163-.3119.368-.4112.614-.0994.247-.149.533-.149.859v3.451h-1.4066v-6.598h1.0966l.1908 1.162h.0655c.1312-.235.2941-.449.4888-.644.1947-.194.4172-.349.6675-.465.2543-.119.5324-.178.8344-.178Zm9.381 0c.739 0 1.296.19 1.669.572.378.381.566.993.566 1.835v4.316h-1.4v-4.065c0-.501-.098-.878-.292-1.133-.195-.254-.491-.381-.888-.381-.557 0-.958.179-1.204.536-.243.354-.364.868-.364 1.544v3.499h-1.401v-4.065c0-.334-.043-.612-.131-.835-.083-.226-.212-.395-.387-.506-.175-.116-.395-.173-.662-.173-.385 0-.693.087-.9235.262-.2265.175-.3894.433-.4887.775-.0994.338-.149.753-.149 1.246v3.296h-1.4007v-6.598h1.0907l.1967.888h.0775c.1351-.231.302-.419.5007-.566.2026-.151.4271-.263.6733-.334.247-.076.503-.113.769-.113.493 0 .908.087 1.246.262.337.171.59.433.757.786h.107c.207-.357.495-.621.864-.792.37-.171.761-.256 1.174-.256Zm6.777 0c.834 0 1.464.184 1.889.554.429.369.644.945.644 1.728v4.441h-.995l-.269-.936h-.047c-.187.238-.38.435-.578.59-.199.155-.429.27-.692.346-.258.079-.574.119-.947.119-.394 0-.745-.072-1.055-.215-.31-.147-.555-.369-.733-.667-.179-.298-.269-.676-.269-1.133 0-.679.253-1.19.757-1.532.509-.341 1.276-.53 2.301-.566l1.144-.041v-.346c0-.457-.107-.783-.322-.978-.21-.194-.508-.292-.894-.292-.329 0-.649.048-.959.143-.31.096-.612.213-.906.352l-.453-.989c.322-.171.687-.31 1.097-.418.413-.107.842-.16 1.287-.16Zm1.144 3.57-.852.029c-.699.024-1.19.143-1.472.358-.282.215-.423.509-.423.882 0 .326.097.564.292.715.194.147.451.221.769.221.484 0 .886-.137 1.204-.411.321-.278.482-.686.482-1.222v-.572Zm5.805 2.139c.183 0 .364-.016.543-.047.179-.036.342-.078.489-.126v1.061c-.155.068-.356.126-.602.173-.247.048-.503.072-.769.072-.374 0-.709-.062-1.007-.185-.299-.127-.535-.344-.71-.65-.175-.306-.262-.729-.262-1.269v-3.546h-.9v-.626l.966-.495.458-1.413h.883v1.467h1.889v1.067h-1.889v3.528c0 .334.083.582.25.745.167.163.387.244.661.244Zm5.001-5.709c.588 0 1.093.121 1.514.363.421.242.745.586.971 1.031.227.445.34.978.34 1.598v.75h-4.404c.016.64.186 1.133.512 1.479.33.345.791.518 1.383.518.421 0 .799-.04 1.132-.119.338-.084.686-.205 1.043-.364v1.139c-.329.155-.665.268-1.007.339-.342.072-.751.108-1.228.108-.647 0-1.218-.125-1.71-.376-.489-.254-.872-.632-1.151-1.132-.274-.501-.411-1.123-.411-1.866 0-.739.125-1.367.376-1.883.25-.517.602-.91 1.055-1.18.453-.27.981-.405 1.585-.405Zm0 1.054c-.441 0-.799.144-1.073.43-.27.286-.429.705-.477 1.257h3.004c-.004-.33-.059-.622-.167-.876-.103-.254-.262-.453-.476-.596-.211-.143-.481-.215-.811-.215Z"/>
    <rect width="56.3096" height="27.2064" x="77.3914" y="298.673" fill="#fff" rx="6.10319"/>
    <path fill="#39B5AC" d="M89.5341 308.696c.9136 0 1.5803.188 2 .562.4197.375.6295.899.6295 1.574 0 .307-.0484.599-.1452.877-.0937.274-.2486.518-.4649.731-.2163.21-.502.376-.8572.499-.3519.122-.7861.184-1.3026.184h-.7555v2.653H87.476v-7.08h2.0581Zm-.0775.964h-.8184v2.494h.6344c.3648 0 .6747-.042.9298-.126.255-.087.4487-.224.5811-.411.1324-.188.1985-.435.1985-.741 0-.41-.1243-.715-.3728-.916-.2454-.2-.6296-.3-1.1526-.3Zm8.7506 3.424c0 .445-.0581.841-.1743 1.186-.1162.346-.2857.638-.5085.877-.2227.236-.4907.416-.8039.542-.3131.123-.6666.184-1.0605.184-.368 0-.7054-.061-1.0121-.184-.3067-.126-.573-.306-.799-.542-.2228-.239-.3955-.531-.5182-.877-.1227-.345-.184-.741-.184-1.186 0-.591.1017-1.091.3051-1.501.2066-.414.5004-.728.8813-.945.381-.216.8346-.324 1.3608-.324.494 0 .9298.108 1.3075.324.3777.217.6731.531.8862.945.2131.413.3196.913.3196 1.501Zm-3.8886 0c0 .391.0468.725.1404 1.002.0969.278.2454.491.4456.64.2001.145.4584.217.7748.217.3164 0 .5746-.072.7748-.217.2002-.149.3471-.362.4407-.64.0936-.277.1404-.611.1404-1.002s-.0468-.722-.1404-.993c-.0936-.274-.2405-.483-.4407-.625-.2002-.145-.4601-.217-.7797-.217-.4713 0-.8151.158-1.0314.474-.2163.316-.3245.77-.3245 1.361Zm6.9974 2.789c-.639 0-1.152-.232-1.5398-.697-.3842-.468-.5762-1.158-.5762-2.068 0-.92.1953-1.616.5859-2.087.3941-.471.9121-.707 1.5541-.707.272 0 .509.037.712.111.204.071.378.168.523.291.149.123.275.26.378.411h.053c-.016-.1-.035-.243-.058-.431-.019-.19-.029-.366-.029-.527v-1.928h1.143v7.535h-.891l-.203-.731h-.049c-.097.155-.219.296-.368.421-.145.123-.32.222-.523.296-.2.074-.437.111-.712.111Zm.32-.925c.487 0 .831-.14 1.031-.421.2-.281.304-.702.31-1.264v-.15c0-.601-.097-1.061-.29-1.38-.194-.323-.548-.484-1.061-.484-.41 0-.723.166-.939.498-.213.33-.32.79-.32 1.38 0 .591.107 1.043.32 1.356.216.31.532.465.949.465Zm6.218.925c-.507 0-.946-.098-1.317-.295-.372-.197-.657-.499-.858-.906-.2-.407-.3-.923-.3-1.549 0-.653.11-1.185.329-1.598.22-.414.523-.719.911-.916.39-.197.838-.295 1.341-.295.32 0 .609.032.867.097.262.061.483.137.664.227l-.339.911c-.197-.081-.399-.149-.606-.204-.206-.055-.405-.082-.595-.082-.314 0-.575.069-.785.208-.207.139-.362.346-.465.62-.1.275-.15.615-.15 1.022 0 .394.052.726.155.998.103.267.257.471.46.61.203.135.454.203.751.203.293 0 .557-.035.789-.106.232-.071.452-.164.659-.276v.987c-.204.117-.422.202-.654.257-.233.058-.518.087-.857.087Zm4.871-5.559c.678 0 1.19.15 1.535.45.349.301.523.769.523 1.405v3.607h-.808l-.218-.76h-.039c-.152.194-.308.354-.47.479-.161.126-.348.22-.561.281-.21.065-.467.097-.77.097-.32 0-.606-.058-.857-.174-.252-.12-.451-.3-.596-.542-.145-.243-.218-.549-.218-.921 0-.552.205-.966.615-1.244.413-.278 1.036-.431 1.869-.46l.93-.034v-.281c0-.371-.087-.636-.261-.794-.172-.158-.414-.237-.727-.237-.268 0-.528.038-.78.116-.251.077-.497.173-.736.286l-.368-.804c.262-.139.559-.252.891-.339.336-.088.685-.131 1.046-.131Zm.93 2.901-.692.024c-.569.019-.967.116-1.196.29-.23.175-.344.414-.344.717 0 .265.079.459.237.581.158.12.366.179.625.179.394 0 .72-.111.978-.334.261-.226.392-.557.392-.992v-.465Zm6.325 1.031c0 .352-.086.649-.257.891s-.421.426-.751.552c-.326.123-.726.184-1.201.184-.374 0-.697-.027-.968-.082-.268-.052-.522-.132-.76-.242v-.983c.255.119.54.222.857.31.319.087.621.13.905.13.375 0 .644-.058.809-.174.165-.119.247-.278.247-.475 0-.116-.034-.219-.102-.309-.064-.094-.187-.189-.368-.286-.177-.1-.439-.22-.784-.359-.339-.135-.625-.271-.857-.406-.233-.136-.409-.299-.528-.489-.12-.194-.179-.441-.179-.741 0-.475.187-.835.561-1.08.378-.249.877-.373 1.497-.373.329 0 .639.034.929.102.294.064.582.159.862.285l-.358.857c-.242-.106-.486-.193-.731-.261-.242-.071-.489-.107-.741-.107-.294 0-.518.046-.673.136-.152.09-.228.22-.228.387 0 .126.037.233.112.32.074.087.201.174.382.262.184.087.439.195.765.324.32.123.596.252.828.387.236.133.417.296.543.489.126.194.189.444.189.751Zm3.225.707c.148 0 .295-.013.44-.039.146-.029.278-.063.398-.101v.862c-.126.055-.289.101-.49.14-.2.039-.408.058-.624.058-.304 0-.576-.05-.819-.15-.242-.103-.434-.279-.576-.528-.142-.248-.213-.592-.213-1.031v-2.882h-.731v-.508l.784-.402.373-1.148h.717v1.192h1.535v.866h-1.535v2.867c0 .271.068.473.203.606.136.132.315.198.538.198Z"/>
    <rect width="56.3096" height="27.2064" x="77.3914" y="298.673" stroke="#39B5AC" stroke-width=".762898" rx="6.10319"/>
    <rect width="45.3096" height="27.2064" x="139.804" y="298.673" fill="#fff" rx="6.10319"/>
    <path fill="#39B5AC" d="m155.138 308.696-2.474 7.08h-1.23l-2.475-7.08h1.191l1.492 4.436c.045.129.093.286.145.47.055.184.105.37.15.557.049.187.086.353.112.499.025-.146.061-.312.106-.499.049-.187.099-.373.15-.557.052-.184.1-.342.145-.475l1.497-4.431h1.191Zm1.952 1.72v5.36h-1.138v-5.36h1.138Zm-.562-2.054c.174 0 .324.047.45.141.129.093.194.255.194.484 0 .226-.065.387-.194.484-.126.094-.276.141-.45.141-.181 0-.334-.047-.46-.141-.123-.097-.184-.258-.184-.484 0-.229.061-.391.184-.484.126-.094.279-.141.46-.141Zm3.995 7.511c-.639 0-1.152-.232-1.54-.697-.384-.468-.576-1.158-.576-2.068 0-.92.195-1.616.586-2.087.394-.471.912-.707 1.554-.707.272 0 .509.037.712.111.204.071.378.168.523.291.149.123.275.26.378.411h.053c-.016-.1-.035-.243-.058-.431-.019-.19-.029-.366-.029-.527v-1.928h1.143v7.535h-.891l-.204-.731h-.048c-.097.155-.22.296-.368.421-.145.123-.32.222-.523.296-.2.074-.437.111-.712.111Zm.32-.925c.487 0 .831-.14 1.031-.421.2-.281.304-.702.31-1.264v-.15c0-.601-.097-1.061-.29-1.38-.194-.323-.548-.484-1.061-.484-.41 0-.723.166-.939.498-.213.33-.32.79-.32 1.38 0 .591.107 1.043.32 1.356.216.31.532.465.949.465Zm6.193-4.634c.478 0 .888.098 1.23.295.343.197.606.476.79.838.184.362.276.794.276 1.298v.61h-3.579c.013.52.152.92.417 1.201.268.281.642.421 1.123.421.342 0 .649-.032.92-.097.275-.067.557-.166.848-.295v.925c-.268.126-.541.218-.819.276-.277.058-.61.087-.997.087-.527 0-.99-.101-1.39-.305-.397-.206-.709-.513-.935-.92-.223-.407-.334-.912-.334-1.516 0-.6.102-1.11.305-1.53.204-.42.489-.739.857-.959.368-.219.798-.329 1.288-.329Zm0 .857c-.358 0-.648.116-.871.349-.22.232-.349.573-.388 1.021h2.441c-.003-.267-.048-.505-.136-.711-.083-.207-.213-.368-.387-.485-.171-.116-.391-.174-.659-.174Zm8.325 1.913c0 .445-.058.841-.174 1.186-.117.346-.286.638-.509.877-.223.236-.491.416-.804.542-.313.123-.666.184-1.06.184-.368 0-.706-.061-1.012-.184-.307-.126-.573-.306-.799-.542-.223-.239-.396-.531-.519-.877-.122-.345-.184-.741-.184-1.186 0-.591.102-1.091.305-1.501.207-.414.501-.728.882-.945.381-.216.834-.324 1.361-.324.494 0 .929.108 1.307.324.378.217.673.531.886.945.213.413.32.913.32 1.501Zm-3.889 0c0 .391.047.725.141 1.002.097.278.245.491.445.64.2.145.459.217.775.217s.575-.072.775-.217c.2-.149.347-.362.441-.64.093-.277.14-.611.14-1.002s-.047-.722-.14-.993c-.094-.274-.241-.483-.441-.625-.2-.145-.46-.217-.78-.217-.471 0-.815.158-1.031.474-.217.316-.325.77-.325 1.361Z"/>
    <rect width="45.3096" height="27.2064" x="139.804" y="298.673" stroke="#39B5AC" stroke-width=".762898" rx="6.10319"/>
    <rect width="75.3096" height="27.2064" x="191.217" y="298.673" fill="#fff" rx="6.10319"/>
    <path fill="#39B5AC" d="M207.587 312.227c0 .545-.069 1.043-.208 1.491-.136.446-.341.83-.615 1.153-.274.319-.618.566-1.032.741-.413.174-.897.261-1.452.261-.565 0-1.056-.087-1.472-.261-.414-.175-.758-.423-1.032-.746-.271-.323-.475-.709-.61-1.157-.136-.449-.203-.946-.203-1.492 0-.73.119-1.366.358-1.908.242-.546.608-.968 1.099-1.269.494-.303 1.117-.455 1.869-.455.736 0 1.348.15 1.836.45.487.301.852.724 1.094 1.269.246.543.368 1.183.368 1.923Zm-5.404 0c0 .545.074 1.018.223 1.419.148.397.376.703.682.92.31.213.707.319 1.192.319.487 0 .884-.106 1.191-.319.307-.217.533-.523.678-.92.145-.401.218-.874.218-1.419 0-.83-.166-1.479-.499-1.947-.329-.471-.855-.707-1.579-.707-.484 0-.883.107-1.196.32-.31.213-.539.518-.687.915-.149.394-.223.867-.223 1.419Zm9.603-1.913c.603 0 1.073.156 1.409.47.339.31.508.808.508 1.496v3.496h-1.138v-3.283c0-.416-.085-.728-.256-.935-.171-.209-.436-.314-.794-.314-.52 0-.882.159-1.085.479-.2.32-.3.783-.3 1.39v2.663h-1.138v-5.36h.886l.16.726h.063c.116-.187.259-.341.431-.46.174-.123.368-.215.581-.276.216-.061.44-.092.673-.092Zm4.654 5.462h-1.143v-7.535h1.143v7.535Zm2.765-5.36v5.36h-1.138v-5.36h1.138Zm-.562-2.054c.174 0 .324.047.45.141.129.093.194.255.194.484 0 .226-.065.387-.194.484-.126.094-.276.141-.45.141-.181 0-.334-.047-.46-.141-.123-.097-.184-.258-.184-.484 0-.229.061-.391.184-.484.126-.094.279-.141.46-.141Zm4.988 1.952c.604 0 1.073.156 1.409.47.339.31.508.808.508 1.496v3.496h-1.138v-3.283c0-.416-.085-.728-.256-.935-.171-.209-.436-.314-.794-.314-.52 0-.882.159-1.085.479-.2.32-.3.783-.3 1.39v2.663h-1.138v-5.36h.886l.16.726h.063c.116-.187.259-.341.431-.46.174-.123.368-.215.581-.276.216-.061.44-.092.673-.092Zm5.646 0c.478 0 .888.098 1.23.295.343.197.606.476.79.838.184.362.276.794.276 1.298v.61h-3.579c.013.52.152.92.416 1.201.268.281.643.421 1.124.421.342 0 .649-.032.92-.097.274-.067.557-.166.847-.295v.925c-.267.126-.54.218-.818.276-.278.058-.61.087-.997.087-.527 0-.99-.101-1.39-.305-.397-.206-.709-.513-.935-.92-.223-.407-.334-.912-.334-1.516 0-.6.102-1.11.305-1.53.203-.42.489-.739.857-.959.368-.219.798-.329 1.288-.329Zm0 .857c-.358 0-.649.116-.871.349-.22.232-.349.573-.388 1.021h2.441c-.003-.267-.049-.505-.136-.711-.084-.207-.213-.368-.387-.485-.171-.116-.391-.174-.659-.174Zm3.114 2.426v-.963h2.499v.963h-2.499Zm9.177 2.179h-1.337l-2.203-3.215-.697.566v2.649h-1.163v-7.08h1.163v3.385c.142-.174.285-.348.431-.523.145-.174.29-.348.435-.523l1.996-2.339h1.312l-2.644 3.1 2.707 3.98Zm5.491-5.36v5.36h-.896l-.154-.721h-.063c-.113.184-.257.337-.431.46-.175.119-.368.208-.582.266-.213.062-.437.092-.673.092-.403 0-.749-.068-1.036-.203-.284-.139-.502-.352-.654-.639-.151-.288-.227-.659-.227-1.114v-3.501h1.143v3.288c0 .416.083.728.251.934.171.207.436.31.795.31.345 0 .619-.071.823-.213.203-.142.347-.352.431-.629.087-.278.131-.619.131-1.022v-2.668h1.142Zm4.349-.102c.09 0 .189.005.295.014.107.01.199.023.276.039l-.106 1.066c-.068-.02-.152-.034-.252-.044-.097-.01-.184-.015-.261-.015-.204 0-.397.034-.582.102-.184.065-.347.165-.489.3-.142.133-.253.299-.334.499-.08.2-.121.433-.121.697v2.804h-1.143v-5.36h.891l.155.944h.054c.106-.191.239-.365.397-.523.158-.158.339-.284.542-.378.207-.097.433-.145.678-.145Zm5.167 3.932c0 .352-.085.649-.257.891-.171.242-.421.426-.75.552-.326.123-.727.184-1.201.184-.375 0-.697-.027-.969-.082-.268-.052-.521-.132-.76-.242v-.983c.255.119.541.222.857.31.32.087.622.13.906.13.374 0 .644-.058.808-.174.165-.119.247-.278.247-.475 0-.116-.033-.219-.101-.309-.065-.094-.187-.189-.368-.286-.178-.1-.439-.22-.785-.359-.339-.135-.624-.271-.857-.406-.232-.136-.408-.299-.528-.489-.119-.194-.179-.441-.179-.741 0-.475.187-.835.562-1.08.378-.249.876-.373 1.496-.373.329 0 .639.034.93.102.294.064.581.159.862.285l-.358.857c-.243-.106-.486-.193-.732-.261-.242-.071-.489-.107-.741-.107-.293 0-.518.046-.673.136-.151.09-.227.22-.227.387 0 .126.037.233.111.32.074.087.202.174.383.262.184.087.439.195.765.324.319.123.595.252.828.387.236.133.416.296.542.489.126.194.189.444.189.751Z"/>
    <rect width="75.3096" height="27.2064" x="191.217" y="298.673" stroke="#39B5AC" stroke-width=".762898" rx="6.10319"/>
    <rect width="80.3096" height="27.2064" x="77.3914" y="335.035" fill="#39B5AC" fill-opacity=".15" rx="6.10319"/>
    <path fill="#39B5AC" d="M89.5341 345.058c.9136 0 1.5803.187 2 .562.4197.374.6295.899.6295 1.573 0 .307-.0484.599-.1452.877-.0937.274-.2486.518-.4649.731-.2163.21-.502.376-.8572.499-.3519.123-.7861.184-1.3026.184h-.7555v2.654H87.476v-7.08h2.0581Zm-.0775.963h-.8184v2.494h.6344c.3648 0 .6747-.042.9298-.125.255-.088.4487-.225.5811-.412.1324-.187.1985-.434.1985-.741 0-.41-.1243-.715-.3728-.915-.2454-.2-.6296-.301-1.1526-.301Zm6.7216.654c.0904 0 .1888.005.2954.015.1065.009.1985.022.276.038l-.1065 1.066c-.0678-.02-.1518-.034-.2519-.044-.0968-.009-.184-.014-.2615-.014-.2033 0-.3971.034-.5811.101-.184.065-.347.165-.4891.301-.142.132-.2534.298-.3341.498-.0807.201-.1211.433-.1211.698v2.804h-1.1428v-5.361h.891l.155.944h.0532c.1066-.19.2389-.365.3971-.523.1582-.158.339-.284.5424-.377.2066-.097.4326-.146.678-.146Zm3.6658 0c.678 0 1.19.15 1.535.451.349.3.523.768.523 1.404v3.608h-.809l-.217-.761h-.039c-.152.194-.309.354-.47.48-.161.126-.349.219-.5617.281-.2099.064-.4665.097-.77.097-.3196 0-.6053-.059-.8571-.175-.2518-.119-.4504-.3-.5957-.542-.1453-.242-.2179-.549-.2179-.92 0-.552.205-.967.615-1.245.4133-.277 1.0363-.431 1.8693-.46l.9301-.034v-.281c0-.371-.088-.636-.262-.794-.171-.158-.413-.237-.7262-.237-.268 0-.5279.039-.7797.116-.2518.078-.4972.173-.7361.286l-.368-.804c.2615-.139.5585-.252.891-.339.3358-.087.6844-.131 1.046-.131Zm.93 2.901-.693.024c-.5679.02-.9666.116-1.1958.291-.2292.174-.3438.413-.3438.716 0 .265.0791.459.2373.582.1581.119.3664.179.6246.179.3939 0 .7197-.112.9787-.334.261-.226.392-.557.392-.993v-.465Zm3.908-.179-1.792-2.62h1.298l1.225 1.884 1.23-1.884h1.293l-1.801 2.62 1.893 2.741h-1.303l-1.312-2.01-1.317 2.01h-1.293l1.879-2.741Zm5.414-2.62v5.361h-1.138v-5.361h1.138Zm-.562-2.053c.174 0 .325.046.45.14.13.094.194.255.194.484 0 .226-.064.388-.194.485-.125.093-.276.14-.45.14-.181 0-.334-.047-.46-.14-.123-.097-.184-.259-.184-.485 0-.229.061-.39.184-.484.126-.094.279-.14.46-.14Zm5.797 5.883c0 .352-.086.649-.257.891-.171.243-.421.427-.751.553-.326.122-.726.184-1.201.184-.374 0-.697-.028-.968-.083-.268-.051-.521-.132-.76-.242v-.983c.255.119.54.223.857.31.319.087.621.131.905.131.375 0 .644-.058.809-.175.165-.119.247-.277.247-.474 0-.116-.034-.22-.102-.31-.064-.094-.187-.189-.368-.286-.177-.1-.439-.219-.784-.358-.339-.136-.625-.271-.857-.407-.233-.136-.409-.299-.528-.489-.12-.194-.179-.441-.179-.741 0-.475.187-.835.561-1.08.378-.248.877-.373 1.497-.373.329 0 .639.034.93.102.293.064.581.16.862.286l-.359.857c-.242-.107-.486-.194-.731-.262-.242-.071-.489-.106-.741-.106-.294 0-.518.045-.673.135-.152.091-.228.22-.228.388 0 .126.037.232.112.319.074.088.201.175.382.262.184.087.439.195.765.324.32.123.596.252.828.388.236.132.417.295.543.489.126.194.189.444.189.75Zm2.368-3.83v5.361h-1.138v-5.361h1.138Zm-.562-2.053c.174 0 .324.046.45.14.13.094.194.255.194.484 0 .226-.064.388-.194.485-.126.093-.276.14-.45.14-.181 0-.334-.047-.46-.14-.123-.097-.184-.259-.184-.485 0-.229.061-.39.184-.484.126-.094.279-.14.46-.14Zm8.252 1.951c.6 0 1.052.155 1.356.465.306.31.46.807.46 1.492v3.506h-1.138v-3.303c0-.407-.079-.713-.237-.92-.159-.207-.399-.31-.722-.31-.452 0-.778.145-.978.436-.197.287-.296.705-.296 1.254v2.843h-1.138v-3.303c0-.271-.035-.497-.106-.678-.068-.184-.173-.321-.315-.412-.142-.093-.321-.14-.538-.14-.313 0-.563.071-.75.213-.184.142-.316.352-.397.63-.081.274-.121.611-.121 1.012v2.678h-1.138v-5.361h.886l.16.721h.063c.109-.187.245-.34.406-.46.165-.122.348-.213.548-.271.2-.061.408-.092.624-.092.401 0 .738.071 1.012.213.275.139.48.352.615.64h.088c.168-.291.402-.506.702-.645.3-.138.618-.208.954-.208Zm6.155 0c.636 0 1.146.233 1.53.698.387.464.581 1.155.581 2.072 0 .607-.09 1.119-.271 1.535-.178.414-.428.727-.751.94-.319.21-.692.315-1.118.315-.271 0-.507-.036-.707-.107-.2-.071-.372-.163-.514-.276-.142-.116-.261-.242-.358-.378h-.068c.016.129.031.273.044.431.016.155.024.297.024.426v2.184h-1.143v-7.738h.93l.16.741h.053c.1-.152.221-.292.363-.421.146-.13.32-.231.523-.306.207-.077.447-.116.722-.116Zm-.305.93c-.313 0-.565.063-.756.189-.187.123-.324.308-.411.557-.084.248-.129.56-.136.934v.16c0 .397.04.735.121 1.012.084.275.221.485.412.63.193.142.455.213.784.213.278 0 .507-.076.688-.228.184-.151.321-.368.412-.649.09-.28.135-.611.135-.992 0-.578-.103-1.027-.31-1.347-.203-.319-.516-.479-.939-.479Zm8.406-.828v5.361h-.895l-.155-.722h-.063c-.113.184-.257.338-.431.46-.175.12-.368.208-.581.267-.213.061-.438.092-.674.092-.403 0-.749-.068-1.036-.204-.284-.139-.502-.352-.654-.639-.151-.287-.227-.659-.227-1.114v-3.501h1.143v3.288c0 .417.084.728.251.935.172.206.436.31.795.31.345 0 .619-.071.823-.213.203-.143.347-.352.431-.63.087-.278.131-.618.131-1.022v-2.668h1.142Zm2.775 5.361h-1.143v-7.535h1.143v7.535Zm5.23-1.531c0 .352-.085.649-.256.891-.171.243-.422.427-.751.553-.326.122-.726.184-1.201.184-.374 0-.697-.028-.968-.083-.268-.051-.522-.132-.761-.242v-.983c.255.119.541.223.857.31.32.087.622.131.906.131.374 0 .644-.058.809-.175.164-.119.247-.277.247-.474 0-.116-.034-.22-.102-.31-.065-.094-.187-.189-.368-.286-.178-.1-.439-.219-.785-.358-.339-.136-.624-.271-.857-.407-.232-.136-.408-.299-.528-.489-.119-.194-.179-.441-.179-.741 0-.475.188-.835.562-1.08.378-.248.877-.373 1.496-.373.33 0 .64.034.93.102.294.064.581.16.862.286l-.358.857c-.242-.107-.486-.194-.731-.262-.243-.071-.49-.106-.741-.106-.294 0-.519.045-.673.135-.152.091-.228.22-.228.388 0 .126.037.232.111.319.075.088.202.175.383.262.184.087.439.195.765.324.32.123.596.252.828.388.236.132.417.295.542.489.126.194.189.444.189.75Z"/>
    <rect width="80.3096" height="27.2064" x="77.3914" y="335.035" stroke="#39B5AC" stroke-width=".762898" rx="6.10319"/>
    <rect width="60.3096" height="27.2064" x="163.804" y="335.035" fill="#fff" rx="6.10319"/>
    <path fill="#39B5AC" d="M175.041 352.138h-1.152v-7.08h4v.978h-2.848v2.208h2.664v.974h-2.664v2.92Zm6.121-5.463c.678 0 1.19.15 1.535.451.349.3.523.768.523 1.404v3.608h-.808l-.218-.761h-.039c-.152.194-.308.354-.47.48-.161.126-.348.219-.561.281-.21.064-.467.097-.77.097-.32 0-.606-.059-.858-.175-.251-.119-.45-.3-.595-.542-.145-.242-.218-.549-.218-.92 0-.552.205-.967.615-1.245.413-.277 1.036-.431 1.869-.46l.93-.034v-.281c0-.371-.087-.636-.262-.794-.171-.158-.413-.237-.726-.237-.268 0-.528.039-.78.116-.251.078-.497.173-.736.286l-.368-.804c.262-.139.559-.252.891-.339.336-.087.685-.131 1.046-.131Zm.93 2.901-.692.024c-.569.02-.967.116-1.196.291-.23.174-.344.413-.344.716 0 .265.079.459.237.582.158.119.366.179.625.179.394 0 .72-.112.978-.334.261-.226.392-.557.392-.993v-.465Zm4.881 2.659c-.506 0-.945-.099-1.317-.296-.371-.197-.657-.499-.857-.905-.2-.407-.3-.924-.3-1.55 0-.652.11-1.185.329-1.598.22-.413.523-.718.911-.915.39-.197.837-.296 1.341-.296.32 0 .609.033.867.097.261.061.482.137.663.228l-.339.91c-.197-.081-.398-.148-.605-.203-.207-.055-.405-.083-.596-.083-.313 0-.574.07-.784.209-.207.138-.362.345-.465.619-.1.275-.15.615-.15 1.022 0 .394.051.727.155.998.103.268.256.471.46.61.203.136.453.203.75.203.294 0 .557-.035.79-.106.232-.071.452-.163.658-.276v.988c-.203.116-.421.201-.653.256-.233.058-.519.088-.858.088Zm3.908-7.632v1.893c0 .197-.006.389-.019.576-.01.188-.021.333-.034.436h.063c.113-.187.252-.34.417-.46.164-.123.348-.215.552-.276.206-.061.426-.092.658-.092.41 0 .759.069 1.046.208.288.136.507.347.659.635.155.287.232.66.232 1.118v3.497h-1.138v-3.284c0-.416-.085-.728-.256-.934-.171-.21-.436-.315-.795-.315-.345 0-.619.073-.823.218-.2.142-.344.353-.431.634-.087.278-.131.617-.131 1.017v2.664h-1.138v-7.535h1.138Zm7.163 6.711c.148 0 .295-.012.44-.038.146-.029.278-.063.397-.102v.862c-.125.055-.288.102-.489.14-.2.039-.408.059-.624.059-.304 0-.577-.05-.819-.151-.242-.103-.434-.279-.576-.527-.142-.249-.213-.593-.213-1.032v-2.881h-.731v-.509l.784-.402.373-1.147h.717v1.191h1.535v.867h-1.535v2.867c0 .271.068.473.203.605.136.132.315.198.538.198Zm4.063-4.639c.477 0 .887.099 1.23.296.342.197.605.476.789.837.184.362.276.795.276 1.298v.61h-3.579c.013.52.152.92.417 1.201.268.281.642.422 1.123.422.343 0 .649-.033.92-.097.275-.068.557-.166.848-.296v.925c-.268.126-.541.218-.819.276-.277.058-.61.088-.997.088-.526 0-.99-.102-1.39-.306-.397-.206-.709-.513-.935-.92-.222-.406-.334-.912-.334-1.515 0-.601.102-1.111.305-1.531.204-.419.489-.739.858-.958.368-.22.797-.33 1.288-.33Zm0 .857c-.359 0-.649.117-.872.349-.22.232-.349.573-.387 1.022h2.44c-.003-.268-.048-.505-.135-.712-.084-.207-.213-.368-.388-.484-.171-.117-.39-.175-.658-.175Zm4.765 1.865-1.792-2.62h1.298l1.225 1.884 1.23-1.884h1.293l-1.801 2.62 1.893 2.741h-1.303l-1.312-2.01-1.317 2.01h-1.293l1.879-2.741Zm6.271 1.917c.148 0 .295-.012.441-.038.145-.029.277-.063.397-.102v.862c-.126.055-.289.102-.489.14-.201.039-.409.059-.625.059-.304 0-.576-.05-.818-.151-.243-.103-.435-.279-.577-.527-.142-.249-.213-.593-.213-1.032v-2.881h-.731v-.509l.784-.402.373-1.147h.717v1.191h1.535v.867h-1.535v2.867c0 .271.068.473.203.605.136.132.315.198.538.198Z"/>
    <rect width="60.3096" height="27.2064" x="163.804" y="335.035" stroke="#39B5AC" stroke-width=".762898" rx="6.10319"/>
    <rect width="64.3096" height="27.2064" x="230.217" y="335.035" fill="#39B5AC" fill-opacity=".15" rx="6.10319"/>
    <path fill="#39B5AC" d="M244.389 350.21c0 .42-.104.782-.31 1.085-.204.304-.497.536-.882.697-.381.162-.836.243-1.365.243-.259 0-.505-.015-.741-.044-.236-.029-.459-.071-.668-.126-.207-.058-.396-.127-.567-.208v-1.095c.287.126.609.241.964.344.355.1.716.15 1.084.15.301 0 .549-.038.746-.116.2-.081.349-.194.446-.339.097-.148.145-.321.145-.518 0-.21-.057-.387-.17-.533-.113-.145-.284-.277-.513-.397-.226-.122-.51-.253-.852-.392-.233-.094-.455-.2-.668-.32-.21-.119-.398-.26-.562-.421-.165-.161-.296-.352-.392-.571-.094-.223-.141-.485-.141-.785 0-.4.095-.742.286-1.027.194-.284.465-.502.813-.653.352-.152.762-.228 1.23-.228.372 0 .72.039 1.046.116.33.078.653.188.969.33l-.368.934c-.291-.119-.573-.214-.848-.285-.271-.071-.548-.107-.832-.107-.246 0-.454.037-.625.111-.171.075-.302.18-.392.315-.088.133-.131.291-.131.475 0 .206.05.381.15.523.103.139.261.266.475.382.216.117.493.246.832.388.391.161.722.331.993.508.275.178.484.391.63.639.145.246.218.554.218.925Zm5.995-.765c0 .446-.058.841-.175 1.187-.116.345-.285.637-.508.876-.223.236-.491.417-.804.543-.313.122-.667.184-1.06.184-.368 0-.706-.062-1.013-.184-.306-.126-.573-.307-.799-.543-.222-.239-.395-.531-.518-.876-.122-.346-.184-.741-.184-1.187 0-.591.102-1.091.305-1.501.207-.413.501-.728.882-.944.381-.217.834-.325 1.36-.325.494 0 .93.108 1.308.325.378.216.673.531.886.944.213.413.32.914.32 1.501Zm-3.889 0c0 .391.047.725.141 1.003.096.277.245.49.445.639.2.145.459.218.775.218s.575-.073.775-.218c.2-.149.347-.362.44-.639.094-.278.141-.612.141-1.003 0-.39-.047-.721-.141-.993-.093-.274-.24-.482-.44-.624-.2-.146-.46-.218-.78-.218-.471 0-.815.158-1.031.474-.217.317-.325.77-.325 1.361Zm7.991-2.77c.603 0 1.073.157 1.409.47.339.31.508.809.508 1.496v3.497h-1.138v-3.284c0-.416-.085-.728-.256-.934-.172-.21-.436-.315-.795-.315-.519 0-.881.16-1.084.479-.201.32-.301.783-.301 1.39v2.664h-1.138v-5.361h.887l.159.726h.063c.117-.187.26-.34.431-.46.175-.122.368-.214.581-.276.217-.061.441-.092.674-.092Zm7.113 3.932c0 .352-.085.649-.256.891-.171.243-.422.427-.751.553-.326.122-.726.184-1.201.184-.374 0-.697-.028-.968-.083-.268-.051-.522-.132-.761-.242v-.983c.255.119.541.223.857.31.32.087.622.131.906.131.374 0 .644-.058.809-.175.164-.119.247-.277.247-.474 0-.116-.034-.22-.102-.31-.065-.094-.187-.189-.368-.286-.178-.1-.439-.219-.785-.358-.339-.136-.624-.271-.857-.407-.232-.136-.408-.299-.528-.489-.119-.194-.179-.441-.179-.741 0-.475.188-.835.562-1.08.378-.248.877-.373 1.496-.373.33 0 .64.034.93.102.294.064.581.16.862.286l-.358.857c-.242-.107-.486-.194-.731-.262-.243-.071-.49-.106-.741-.106-.294 0-.519.045-.673.135-.152.091-.228.22-.228.388 0 .126.037.232.111.319.075.088.202.175.383.262.184.087.439.195.765.324.32.123.596.252.828.388.236.132.417.295.542.489.126.194.189.444.189.75Zm3.225.707c.149 0 .296-.012.441-.038.145-.029.278-.063.397-.102v.862c-.126.055-.289.102-.489.14-.2.039-.408.059-.625.059-.303 0-.576-.05-.818-.151-.242-.103-.434-.279-.576-.527-.142-.249-.213-.593-.213-1.032v-2.881h-.732v-.509l.785-.402.373-1.147h.717v1.191h1.535v.867h-1.535v2.867c0 .271.067.473.203.605s.315.198.537.198Zm3.066-4.537v5.361h-1.138v-5.361h1.138Zm-.562-2.053c.174 0 .325.046.45.14.13.094.194.255.194.484 0 .226-.064.388-.194.485-.125.093-.276.14-.45.14-.181 0-.334-.047-.46-.14-.123-.097-.184-.259-.184-.485 0-.229.061-.39.184-.484.126-.094.279-.14.46-.14Zm3.724 9.796c-.726 0-1.283-.13-1.671-.392-.387-.261-.581-.628-.581-1.099 0-.33.104-.609.31-.838.207-.226.502-.383.886-.47-.145-.064-.271-.164-.377-.3-.104-.139-.155-.292-.155-.46 0-.2.056-.371.169-.513.113-.142.283-.28.509-.412-.281-.119-.507-.313-.678-.581-.168-.271-.252-.589-.252-.954 0-.388.082-.717.247-.988.165-.274.405-.483.721-.625.317-.145.699-.218 1.148-.218.097 0 .202.007.315.02.116.009.223.022.32.038.1.013.175.028.227.044h1.855v.634l-.911.17c.088.123.157.263.209.421.051.155.077.325.077.509 0 .555-.192.992-.576 1.312-.381.316-.907.475-1.579.475-.161-.007-.318-.02-.47-.039-.116.071-.205.15-.266.237-.061.084-.092.179-.092.286 0 .087.031.158.092.213.061.052.152.09.271.116.123.026.271.039.446.039h.925c.587 0 1.036.124 1.346.373.31.248.465.613.465 1.094 0 .61-.252 1.08-.756 1.409-.503.333-1.228.499-2.174.499Zm.044-.799c.397 0 .731-.039 1.002-.116.271-.077.476-.189.615-.334.139-.142.208-.312.208-.509 0-.174-.043-.308-.13-.402-.088-.093-.218-.158-.393-.193-.174-.036-.39-.054-.649-.054h-.842c-.21 0-.396.033-.557.097-.162.068-.287.165-.378.291-.087.126-.131.278-.131.455 0 .245.109.434.325.567.219.132.529.198.93.198Zm.222-4.174c.333 0 .58-.09.741-.271.162-.184.242-.443.242-.775 0-.362-.083-.633-.251-.814-.165-.18-.41-.271-.736-.271-.32 0-.564.092-.732.276-.164.184-.247.457-.247.819 0 .326.083.581.247.765.168.181.414.271.736.271Zm5.841-2.872c.477 0 .887.099 1.23.296.342.197.605.476.789.837.184.362.276.795.276 1.298v.61h-3.579c.013.52.152.92.417 1.201.268.281.642.422 1.123.422.343 0 .649-.033.92-.097.275-.068.557-.166.848-.296v.925c-.268.126-.541.218-.819.276-.277.058-.61.088-.997.088-.526 0-.99-.102-1.39-.306-.397-.206-.709-.513-.935-.92-.222-.406-.334-.912-.334-1.515 0-.601.102-1.111.305-1.531.204-.419.489-.739.858-.958.368-.22.797-.33 1.288-.33Zm0 .857c-.359 0-.649.117-.872.349-.22.232-.349.573-.387 1.022h2.44c-.003-.268-.048-.505-.135-.712-.084-.207-.213-.368-.388-.484-.171-.117-.39-.175-.658-.175Zm7.181 3.075c0 .352-.085.649-.256.891-.172.243-.422.427-.751.553-.326.122-.726.184-1.201.184-.374 0-.697-.028-.969-.083-.267-.051-.521-.132-.76-.242v-.983c.255.119.541.223.857.31.32.087.622.131.906.131.374 0 .644-.058.809-.175.164-.119.247-.277.247-.474 0-.116-.034-.22-.102-.31-.065-.094-.187-.189-.368-.286-.178-.1-.439-.219-.785-.358-.339-.136-.624-.271-.857-.407-.232-.136-.408-.299-.528-.489-.119-.194-.179-.441-.179-.741 0-.475.187-.835.562-1.08.378-.248.876-.373 1.496-.373.33 0 .64.034.93.102.294.064.581.16.862.286l-.358.857c-.242-.107-.486-.194-.732-.262-.242-.071-.489-.106-.74-.106-.294 0-.519.045-.674.135-.151.091-.227.22-.227.388 0 .126.037.232.111.319.074.088.202.175.383.262.184.087.439.195.765.324.32.123.596.252.828.388.236.132.416.295.542.489.126.194.189.444.189.75Z"/>
    <rect width="64.3096" height="27.2064" x="230.217" y="335.035" stroke="#39B5AC" stroke-width=".762898" rx="6.10319"/>
    <rect width="307.448" height="32.8046" x="47.2569" y="54.9483" fill="#fff" rx="5.72174"/>
    <path stroke="#686868" stroke-linecap="round" stroke-linejoin="round" stroke-width="1.5258" d="m71.0022 77.1677-3.6238-3.6238m1.2079-3.0198c0 .5552-.1093 1.105-.3218 1.6179-.2125.5129-.5239.979-.9165 1.3716-.3925.3926-.8586.704-1.3715.9164-.513.2125-1.0627.3218-1.6179.3218-.5552 0-1.105-.1093-1.6179-.3218-.5129-.2124-.979-.5238-1.3716-.9164-.3925-.3926-.704-.8587-.9164-1.3716-.2125-.5129-.3218-1.0627-.3218-1.6179 0-1.1212.4454-2.1966 1.2382-2.9894.7929-.7929 1.8682-1.2383 2.9895-1.2383s2.1966.4454 2.9894 1.2383c.7929.7928 1.2383 1.8682 1.2383 2.9894Z"/>
    <path fill="#686868" d="M86.5522 74.1659c0 .5165-.1292.9576-.3874 1.3231-.2543.3616-.6119.6378-1.0729.8285-.4609.1907-1.0033.2861-1.6271.2861-.3298 0-.6417-.0159-.9357-.0477-.2941-.0318-.5643-.0775-.8106-.1371-.2464-.0596-.4629-.1331-.6497-.2205v-.9715c.298.1232.6616.2384 1.0907.3457.4292.1033.8782.1549 1.347.1549.4371 0 .8066-.0576 1.1086-.1728.302-.1192.5305-.2881.6854-.5066.159-.2225.2384-.4888.2384-.7987 0-.298-.0655-.5463-.1966-.745-.1312-.2026-.3497-.3854-.6557-.5483-.3019-.1669-.7152-.3437-1.2397-.5305-.3695-.1311-.6953-.2741-.9774-.4291-.2821-.1589-.5186-.3378-.7093-.5364-.1907-.1987-.3357-.4292-.4351-.6914-.0953-.2622-.143-.5622-.143-.9 0-.4649.1172-.8622.3516-1.192.2384-.3338.5662-.5881.9835-.7629.4211-.1788.9039-.2682 1.4483-.2682.4649 0 .894.0437 1.2874.1311.3973.0874.7609.2046 1.0907.3517l-.3159.8701c-.3139-.1311-.6477-.2404-1.0013-.3278-.3497-.0874-.7113-.1311-1.0848-.1311-.3735 0-.6894.0556-.9476.1669-.2543.1073-.449.2602-.5841.4589-.1351.1987-.2027.4351-.2027.7093 0 .3059.0636.5602.1908.7629.1311.2026.3377.3834.6198.5423.2861.155.6636.3179 1.1324.4888.5126.1867.9477.3854 1.3053.596.3576.2066.6298.4609.8165.7629.1868.298.2802.6775.2802 1.1384Zm7.027-4.2138v6.5323h-.8106l-.143-.9179h-.0537c-.1351.2265-.3099.4172-.5245.5722-.2145.155-.4569.2702-.7271.3457-.2662.0794-.5503.1192-.8523.1192-.5166 0-.9497-.0835-1.2993-.2503-.3497-.1669-.6139-.4252-.7927-.7749-.1749-.3496-.2623-.7986-.2623-1.347v-4.2793h1.0013v4.2078c0 .5444.1232.9517.3696 1.2218.2463.2663.6218.3994 1.1264.3994.4848 0 .8702-.0914 1.1563-.2742.2901-.1828.4987-.451.6258-.8046.1272-.3576.1907-.7947.1907-1.3112v-3.439h.9954Zm4.7085 6.6515c-.5881 0-1.1066-.1212-1.5556-.3636-.449-.2424-.7987-.6119-1.049-1.1086-.2503-.4967-.3755-1.1225-.3755-1.8774 0-.7907.1311-1.4364.3934-1.9371.2662-.5046.6318-.8781 1.0967-1.1205.4648-.2424.9933-.3635 1.5854-.3635.3258 0 .6397.0337.9417.1013.3059.0636.5562.145.7512.2443l-.2983.8285c-.1986-.0795-.4291-.151-.6913-.2146-.2583-.0635-.5007-.0953-.7272-.0953-.453 0-.8304.0973-1.1324.292-.298.1947-.5225.4808-.6735.8583-.147.3775-.2205.8424-.2205 1.3947 0 .5284.0715.9794.2145 1.3529.147.3735.3636.6596.6497.8583.29.1947.6516.292 1.0847.292.3457 0 .6576-.0357.9358-.1073.2781-.0755.5304-.1629.7569-.2622v.8821c-.2185.1112-.4629.1967-.7331.2563-.2662.0596-.5841.0894-.9536.0894Zm4.2253-9.3932v2.7715c0 .1589-.004.3198-.011.4827-.008.159-.022.306-.042.4411h.065c.135-.2305.306-.4232.513-.5782.211-.1589.449-.2781.715-.3576.266-.0834.548-.1251.846-.1251.525 0 .962.0834 1.312.2503.353.1669.618.4252.792.7748.179.3497.269.8027.269 1.3589v4.2556h-.978v-4.19c0-.5444-.125-.9516-.375-1.2218-.247-.2702-.626-.4053-1.139-.4053-.484 0-.872.0934-1.162.2801-.286.1828-.493.453-.62.8106-.123.3576-.185.7947-.185 1.3112v3.4152h-.989v-9.274h.989Zm9.012 2.6225c.556 0 1.033.1231 1.431.3695.397.2463.701.592.912 1.037.21.4411.315.9576.315 1.5497v.6139h-4.511c.011.7669.202 1.3509.572 1.7523.369.4013.89.6019 1.561.6019.414 0 .779-.0377 1.097-.1132.318-.0755.648-.1868.989-.3338v.8702c-.329.147-.657.2543-.983.3219-.322.0675-.703.1013-1.144.1013-.628 0-1.177-.1272-1.645-.3815-.465-.2582-.827-.6357-1.085-1.1324-.258-.4967-.388-1.1046-.388-1.8238 0-.7033.118-1.3112.352-1.8238.238-.5166.572-.9139 1.001-1.192.433-.2782.942-.4172 1.526-.4172Zm-.012.8105c-.528 0-.949.1729-1.263.5186-.314.3457-.501.8284-.561 1.4483h3.457c-.004-.3894-.065-.7311-.184-1.0252-.116-.298-.292-.5284-.531-.6913-.238-.1669-.544-.2504-.918-.2504Z"/>
    <rect width="307.448" height="32.8046" x="47.2569" y="54.9483" stroke="#DADADA" stroke-width=".762898" rx="5.72174"/>
  </g>
  <g filter="url(#c)">
    <path fill="#227973" d="M292.975 2.6543c-.769.00503-1.524.20978-2.19.59419-.666.3844-1.221.93528-1.61 1.59863L266.572 43.9983c-.379.6684-.579 1.424-.579 2.1928 0 .7688.2 1.5244.579 2.1928l22.603 39.1423c.385.667.939 1.2208 1.606 1.6057.667.3849 1.424.5874 2.194.5872h45.206c.768-.0013 1.523-.2046 2.189-.5894.665-.3849 1.217-.9378 1.602-1.6035l22.603-39.1423c.379-.6684.579-1.424.579-2.1928 0-.7688-.2-1.5244-.579-2.1928L341.972 4.84712c-.389-.66207-.942-1.21211-1.607-1.59644-.664-.38433-1.417-.58982-2.184-.59638h-45.206Z"/>
  </g>
  <path fill="#fff" d="M307.891 67.1865c-.76 0-1.292-.133-1.596-.399-.304-.304-.456-.798-.456-1.482v-1.653c0-.722.152-1.235.456-1.539.304-.304.836-.456 1.596-.456h5.586v-25.251l-4.902 2.964c-.304.19-.57.285-.798.285-.342 0-.627-.19-.855-.57l-1.824-2.85c-.152-.266-.228-.513-.228-.741 0-.38.209-.684.627-.912l9.405-5.643c.266-.19.532-.323.798-.399.266-.076.627-.114 1.083-.114h1.881c1.444 0 2.166.703 2.166 2.109v31.122h5.586c.76 0 1.292.152 1.596.456.304.304.456.817.456 1.539v1.653c0 .684-.152 1.178-.456 1.482-.304.266-.836.399-1.596.399h-18.525Z"/>
  <defs>
    <filter id="a" width="384" height="339.645" x="1" y="19" color-interpolation-filters="sRGB" filterUnits="userSpaceOnUse">
      <feFlood flood-opacity="0" result="BackgroundImageFix"/>
      <feColorMatrix in="SourceAlpha" result="hardAlpha" values="0 0 0 0 0 0 0 0 0 0 0 0 0 0 0 0 0 0 127 0"/>
      <feOffset dx="2" dy="4"/>
      <feGaussianBlur stdDeviation="1"/>
      <feComposite in2="hardAlpha" operator="out"/>
      <feColorMatrix values="0 0 0 0 0 0 0 0 0 0 0 0 0 0 0 0 0 0 0.7 0"/>
      <feBlend in2="BackgroundImageFix" result="effect1_dropShadow_768_1530"/>
      <feBlend in="SourceGraphic" in2="effect1_dropShadow_768_1530" result="shape"/>
    </filter>
    <filter id="c" width="107.161" height="95.0649" x="263.993" y=".654297" color-interpolation-filters="sRGB" filterUnits="userSpaceOnUse">
      <feFlood flood-opacity="0" result="BackgroundImageFix"/>
      <feColorMatrix in="SourceAlpha" result="hardAlpha" values="0 0 0 0 0 0 0 0 0 0 0 0 0 0 0 0 0 0 127 0"/>
      <feOffset dx="2" dy="2"/>
      <feGaussianBlur stdDeviation="2"/>
      <feComposite in2="hardAlpha" operator="out"/>
      <feColorMatrix values="0 0 0 0 0 0 0 0 0 0 0 0 0 0 0 0 0 0 0.25 0"/>
      <feBlend in2="BackgroundImageFix" result="effect1_dropShadow_768_1530"/>
      <feBlend in="SourceGraphic" in2="effect1_dropShadow_768_1530" result="shape"/>
    </filter>
  </defs>
</svg>