<svg xmlns="http://www.w3.org/2000/svg" width="416" height="340" fill="none">
  <g filter="url(#a)" opacity=".2">
    <path fill="#39B5AC" d="M134.399 0c-2.947.0192922-5.838.803917-8.391 2.27702-2.552 1.4731-4.679 3.58414-6.17 6.1262L33.2205 158.436C31.7651 160.998 31 163.893 31 166.839c0 2.947.7651 5.842 2.2205 8.404l86.6175 149.999c1.476 2.556 3.598 4.678 6.155 6.153 2.556 1.475 5.455 2.251 8.406 2.25h173.236c2.945-.005 5.838-.784 8.387-2.259 2.55-1.474 4.667-3.593 6.14-6.144l86.617-149.999c1.456-2.562 2.221-5.457 2.221-8.404 0-2.946-.765-5.841-2.221-8.403L322.162 8.40322c-1.488-2.53713-3.609-4.64498-6.155-6.11779C313.461.812616 310.576.0251636 307.635 0H134.399Z"/>
  </g>
  <mask id="b" width="380" height="334" x="31" y="0" maskUnits="userSpaceOnUse" style="mask-type:alpha">
    <path fill="#39B5AC" d="M134.399 0c-2.947.0192922-5.838.803917-8.391 2.27702-2.552 1.4731-4.679 3.58414-6.17 6.1262L33.2205 158.436C31.7651 160.998 31 163.893 31 166.839c0 2.947.7651 5.842 2.2205 8.404l86.6175 149.999c1.476 2.556 3.598 4.678 6.155 6.153 2.556 1.475 5.455 2.251 8.406 2.25h173.236c2.945-.005 5.838-.784 8.387-2.259 2.55-1.474 4.667-3.593 6.14-6.144l86.617-149.999c1.456-2.562 2.221-5.457 2.221-8.404 0-2.946-.765-5.841-2.221-8.403L322.162 8.40322c-1.488-2.53713-3.609-4.64498-6.155-6.11779C313.461.812616 310.576.0251636 307.635 0H134.399Z"/>
  </mask>
  <g mask="url(#b)">
    <path fill="#F7F7F7" d="M76.8755-21.2773h308.211v746.115H76.8755z"/>
    <path fill="#282828" d="m113.936 28.3418-.853-2.4198h-3.331l-.853 2.4198h-1.508l3.243-8.7495h1.585l3.236 8.7495h-1.519Zm-1.222-3.6476-.829-2.3841c-.031-.1033-.077-.2483-.137-.4351-.059-.1907-.119-.3834-.179-.5781-.059-.1987-.109-.3655-.149-.5006-.039.1629-.089.3456-.149.5483-.055.1987-.111.3854-.166.5602-.052.1749-.092.31-.12.4053l-.834 2.3841h2.563Zm5.155 3.6476h-1.406v-9.274h1.406v9.274Zm4.459-1.0132c.182 0 .363-.0159.542-.0477.179-.0358.342-.0775.489-.1252v1.0609c-.155.0676-.356.1252-.602.1729-.247.0477-.503.0715-.769.0715-.374 0-.709-.0616-1.007-.1848-.298-.1271-.535-.3437-.71-.6496-.175-.306-.262-.7291-.262-1.2695v-3.5463h-.9v-.6258l.966-.4947.459-1.4126h.882v1.4662h1.889v1.0669h-1.889v3.5284c0 .3338.083.5821.25.745.167.1629.387.2444.662.2444Zm5-5.7098c.588 0 1.093.1211 1.514.3635.421.2424.745.5861.971 1.0311.227.4451.34.9775.34 1.5973v.751h-4.404c.016.6397.186 1.1325.512 1.4781.33.3457.791.5186 1.383.5186.421 0 .799-.0398 1.132-.1192.338-.0835.686-.2047 1.043-.3636v1.1384c-.329.155-.665.2682-1.007.3397-.342.0715-.751.1073-1.228.1073-.647 0-1.217-.1252-1.71-.3755-.489-.2543-.872-.6318-1.15-1.1324-.275-.5007-.412-1.1225-.412-1.8655 0-.7391.125-1.3669.376-1.8834.25-.5166.602-.91 1.055-1.1802.453-.2701.981-.4052 1.585-.4052Zm0 1.0549c-.441 0-.799.143-1.073.4291-.27.2861-.429.7053-.477 1.2576h3.004c-.004-.3298-.059-.6218-.167-.8761-.103-.2543-.262-.453-.476-.596-.211-.1431-.481-.2146-.811-.2146Zm7.748-1.0549c.112 0 .233.0059.364.0178.131.012.244.0278.34.0477l-.132 1.3112c-.083-.0238-.186-.0417-.309-.0536-.12-.0119-.227-.0179-.322-.0179-.251 0-.489.0417-.716.1252-.226.0795-.427.2026-.602.3695-.174.1629-.311.3676-.411.6139-.099.2464-.149.5325-.149.8583v3.4509h-1.406v-6.5979h1.096l.191 1.1622h.066c.131-.2344.294-.449.488-.6436.195-.1947.418-.3497.668-.4649.254-.1192.532-.1788.834-.1788Zm6.36 4.8396c0 .4331-.106.7987-.316 1.0967-.211.298-.519.5245-.924.6794-.401.151-.894.2265-1.478.2265-.461 0-.858-.0338-1.192-.1013-.33-.0636-.642-.1629-.936-.298v-1.2099c.314.147.666.2741 1.055.3814.393.1073.765.1609 1.115.1609.461 0 .792-.0715.995-.2145.203-.147.304-.3417.304-.5841 0-.1431-.042-.2702-.125-.3815-.08-.1152-.231-.2324-.453-.3516-.219-.1232-.541-.2702-.966-.4411-.417-.1669-.769-.3337-1.055-.5006-.286-.1669-.502-.3676-.649-.602-.147-.2384-.221-.5424-.221-.9119 0-.5841.231-1.0271.692-1.3291.464-.306 1.078-.4589 1.841-.4589.406 0 .787.0417 1.145.1251.361.0795.715.1967 1.06.3517l-.441 1.0549c-.298-.1311-.598-.2384-.9-.3218-.298-.0875-.602-.1312-.911-.1312-.362 0-.638.0557-.829.1669-.187.1113-.28.2702-.28.4768 0 .155.046.2861.137.3934.091.1073.248.2146.471.3219.226.1072.54.2403.942.3993.393.151.733.3099 1.019.4768.29.1629.512.3636.667.602.155.2384.233.5463.233.9238Zm3.397 4.8158c-.894 0-1.579-.1609-2.056-.4828-.477-.3218-.715-.7728-.715-1.3529 0-.4053.127-.749.381-1.0311.254-.2782.618-.4709 1.091-.5782-.179-.0794-.334-.2026-.465-.3695-.127-.1709-.191-.3596-.191-.5662 0-.2464.07-.457.209-.6318.139-.1748.347-.3437.626-.5066-.346-.147-.624-.3854-.835-.7152-.207-.3338-.31-.7252-.31-1.1742 0-.4768.102-.8821.304-1.2158.203-.3378.499-.5941.888-.7689.39-.1788.86-.2682 1.413-.2682.119 0 .248.0079.387.0238.143.012.274.0278.394.0477.123.0159.216.0338.28.0537h2.282v.7807l-1.12.2086c.107.151.193.3239.256.5186.064.1907.096.3993.096.6258 0 .6834-.237 1.2218-.71 1.6152-.469.3894-1.116.5841-1.943.5841-.198-.008-.391-.0239-.578-.0477-.143.0874-.252.1848-.328.292-.075.1034-.113.2206-.113.3517 0 .1073.038.1947.113.2622.076.0636.187.1113.334.1431.151.0318.334.0477.548.0477h1.139c.723 0 1.275.1529 1.657.4589.381.306.572.755.572 1.347 0 .751-.31 1.3291-.93 1.7344-.62.4093-1.512.6139-2.676.6139Zm.054-.9834c.488 0 .9-.0477 1.233-.1431.334-.0953.587-.2324.757-.4112.171-.1749.257-.3835.257-.6258 0-.2146-.054-.3795-.161-.4947-.108-.1153-.268-.1947-.483-.2384-.215-.0437-.481-.0656-.799-.0656h-1.037c-.258 0-.487.0397-.685.1192-.199.0834-.354.2026-.465.3576-.107.155-.161.3417-.161.5603 0 .3019.133.5344.399.6973.271.1629.652.2444 1.145.2444Zm.274-5.1377c.409 0 .713-.1112.912-.3337.198-.2265.298-.5444.298-.9537 0-.445-.104-.7788-.31-1.0013-.203-.2225-.505-.3337-.906-.3337-.393 0-.693.1132-.9.3397-.203.2265-.304.5622-.304 1.0072 0 .4014.101.7153.304.9418.207.2225.509.3337.906.3337Zm7.903-3.5343c.111 0 .232.0059.364.0178.131.012.244.0278.339.0477l-.131 1.3112c-.083-.0238-.187-.0417-.31-.0536-.119-.0119-.226-.0179-.322-.0179-.25 0-.488.0417-.715.1252-.226.0795-.427.2026-.602.3695-.175.1629-.312.3676-.411.6139-.099.2464-.149.5325-.149.8583v3.4509h-1.407v-6.5979h1.097l.191 1.1622h.065c.131-.2344.294-.449.489-.6436.195-.1947.417-.3497.668-.4649.254-.1192.532-.1788.834-.1788Zm7.677.1251v6.5979h-1.103l-.191-.8881h-.077c-.139.2265-.316.4153-.531.5662-.214.1471-.453.2563-.715.3279-.262.0755-.538.1132-.828.1132-.497 0-.922-.0834-1.276-.2503-.349-.1709-.618-.4331-.804-.7868-.187-.3536-.281-.8105-.281-1.3708v-4.3092h1.407v4.047c0 .5125.103.896.31 1.1503.211.2543.536.3814.977.3814.426 0 .763-.0874 1.014-.2622.25-.1749.427-.4331.53-.7749.107-.3417.161-.7609.161-1.2575v-3.2841h1.407Zm5.394-.1251c.782 0 1.41.286 1.883.8582.477.5722.715 1.4225.715 2.551 0 .747-.111 1.3768-.334 1.8893-.218.5086-.526.894-.923 1.1563-.394.2583-.853.3874-1.377.3874-.334 0-.624-.0437-.87-.1311-.247-.0874-.457-.2007-.632-.3398-.175-.143-.322-.298-.441-.4648h-.084c.02.1589.038.3357.054.5304.02.1907.03.3656.03.5245v2.688h-1.407v-9.5243h1.145l.196.9119h.066c.123-.1867.272-.3596.447-.5185.179-.1589.393-.2841.644-.3755.254-.0954.55-.143.888-.143Zm-.376 1.1443c-.385 0-.695.0775-.93.2324-.23.151-.399.3795-.506.6855-.104.3059-.159.6894-.167 1.1503v.1967c0 .4887.049.9039.149 1.2456.103.3378.272.596.506.7748.239.1749.561.2623.966.2623.342 0 .624-.0934.846-.2801.227-.1868.396-.453.507-.7987.111-.3457.167-.753.167-1.2218 0-.7113-.127-1.2636-.382-1.6569-.25-.3934-.635-.5901-1.156-.5901Zm7.981-1.1443c.782 0 1.41.286 1.883.8582.477.5722.715 1.4225.715 2.551 0 .747-.111 1.3768-.333 1.8893-.219.5086-.527.894-.924 1.1563-.394.2583-.853.3874-1.377.3874-.334 0-.624-.0437-.87-.1311-.247-.0874-.457-.2007-.632-.3398-.175-.143-.322-.298-.441-.4648h-.083c.019.1589.037.3357.053.5304.02.1907.03.3656.03.5245v2.688h-1.407v-9.5243h1.145l.196.9119h.066c.123-.1867.272-.3596.447-.5185.179-.1589.393-.2841.644-.3755.254-.0954.55-.143.888-.143Zm-.376 1.1443c-.385 0-.695.0775-.93.2324-.23.151-.399.3795-.506.6855-.103.3059-.159.6894-.167 1.1503v.1967c0 .4887.05.9039.149 1.2456.103.3378.272.596.507.7748.238.1749.56.2623.965.2623.342 0 .624-.0934.846-.2801.227-.1868.396-.453.507-.7987.111-.3457.167-.753.167-1.2218 0-.7113-.127-1.2636-.381-1.6569-.251-.3934-.636-.5901-1.157-.5901Zm7.224-1.1443c.588 0 1.093.1211 1.514.3635.421.2424.745.5861.971 1.0311.227.4451.34.9775.34 1.5973v.751h-4.405c.016.6397.187 1.1325.513 1.4781.33.3457.791.5186 1.383.5186.421 0 .798-.0398 1.132-.1192.338-.0835.686-.2047 1.043-.3636v1.1384c-.33.155-.665.2682-1.007.3397-.342.0715-.751.1073-1.228.1073-.647 0-1.218-.1252-1.71-.3755-.489-.2543-.873-.6318-1.151-1.1324-.274-.5007-.411-1.1225-.411-1.8655 0-.7391.125-1.3669.376-1.8834.25-.5166.602-.91 1.055-1.1802.453-.2701.981-.4052 1.585-.4052Zm0 1.0549c-.441 0-.799.143-1.073.4291-.27.2861-.429.7053-.477 1.2576h3.004c-.004-.3298-.059-.6218-.167-.8761-.103-.2543-.262-.453-.476-.596-.211-.1431-.481-.2146-.811-.2146Zm7.843-1.0549c.744 0 1.322.1927 1.735.5781.417.3814.626.9953.626 1.8417v4.3032h-1.401v-4.041c0-.5126-.105-.896-.316-1.1503-.21-.2583-.536-.3874-.977-.3874-.64 0-1.085.1967-1.335.5901-.247.3933-.37.9635-.37 1.7105v3.2781h-1.401v-6.5979h1.091l.197.894h.077c.143-.2304.32-.4192.531-.5662.214-.151.453-.2642.715-.3397.266-.0755.542-.1132.828-.1132Z"/>
    <rect width="246.416" height="32.8046" x="107.773" y="38.61" fill="#fff" rx="5.72174"/>
    <path fill="#686868" d="m127.781 60.146-1.073-2.7655h-3.492l-1.067 2.7655h-1.025l3.409-8.7495h.912l3.385 8.7495h-1.049Zm-1.377-3.6655-1.019-2.7476c-.024-.0715-.063-.1888-.119-.3517-.052-.1629-.105-.3317-.161-.5066-.056-.1748-.101-.3159-.137-.4231-.04.1629-.084.3258-.131.4887-.044.1589-.088.3079-.131.447-.044.1351-.082.2503-.114.3457l-1.037 2.7476h2.849Zm4.482 3.6655h-.995v-9.274h.995v9.274Zm3.088 0h-.996v-9.274h.996v9.274Zm4.607-6.6515c.556 0 1.033.1232 1.43.3695.398.2464.702.592.912 1.0371.211.441.316.9576.316 1.5496v.6139h-4.512c.012.7669.203 1.351.572 1.7523.37.4013.89.602 1.562.602.413 0 .779-.0378 1.097-.1133.318-.0755.647-.1867.989-.3338v.8702c-.33.147-.658.2543-.983.3219-.322.0675-.704.1013-1.145.1013-.628 0-1.176-.1272-1.645-.3815-.465-.2582-.826-.6357-1.084-1.1324-.259-.4967-.388-1.1046-.388-1.8238 0-.7033.117-1.3112.352-1.8238.238-.5165.572-.9139 1.001-1.192.433-.2782.942-.4172 1.526-.4172Zm-.012.8106c-.529 0-.95.1728-1.264.5185-.314.3457-.5.8284-.56 1.4483h3.457c-.004-.3894-.066-.7311-.185-1.0251-.115-.298-.292-.5285-.53-.6914-.239-.1669-.545-.2503-.918-.2503Zm13.136 5.8409-1.073-2.7655h-3.492l-1.067 2.7655h-1.025l3.409-8.7495h.912l3.385 8.7495h-1.049Zm-1.377-3.6655-1.019-2.7476c-.024-.0715-.063-.1888-.119-.3517-.052-.1629-.105-.3317-.161-.5066-.056-.1748-.101-.3159-.137-.4231-.04.1629-.084.3258-.131.4887-.044.1589-.088.3079-.131.447-.044.1351-.082.2503-.114.3457l-1.037 2.7476h2.849Zm4.482 3.6655h-.995v-9.274h.995v9.274Zm4.202-.6914c.163 0 .33-.0139.501-.0417.171-.0278.31-.0616.417-.1013v.7688c-.115.0517-.276.0954-.483.1312-.202.0357-.401.0536-.596.0536-.345 0-.659-.0596-.941-.1788-.283-.1232-.509-.3298-.68-.6199-.167-.29-.25-.6913-.25-1.2039v-3.8741h-.93v-.4828l.936-.3874.393-1.4185h.596v1.5139h1.913v.7748h-1.913v3.8443c0 .4093.094.7152.28.9179.191.2026.443.3039.757.3039Zm4.756-5.9601c.557 0 1.034.1232 1.431.3695.397.2464.701.592.912 1.0371.21.441.316.9576.316 1.5496v.6139h-4.512c.012.7669.202 1.351.572 1.7523.37.4013.89.602 1.562.602.413 0 .778-.0378 1.096-.1133.318-.0755.648-.1867.99-.3338v.8702c-.33.147-.658.2543-.984.3219-.322.0675-.703.1013-1.144.1013-.628 0-1.176-.1272-1.645-.3815-.465-.2582-.827-.6357-1.085-1.1324-.258-.4967-.387-1.1046-.387-1.8238 0-.7033.117-1.3112.351-1.8238.239-.5165.572-.9139 1.002-1.192.433-.2782.941-.4172 1.525-.4172Zm-.011.8106c-.529 0-.95.1728-1.264.5185-.314.3457-.501.8284-.56 1.4483h3.457c-.004-.3894-.066-.7311-.185-1.0251-.115-.298-.292-.5285-.531-.6914-.238-.1669-.544-.2503-.917-.2503Zm7.319-.8106c.131 0 .268.0079.411.0238.143.0119.27.0298.381.0537l-.125.9178c-.107-.0278-.226-.0496-.358-.0655-.131-.0159-.254-.0239-.369-.0239-.262 0-.511.0537-.745.1609-.231.1034-.433.2543-.608.453-.175.1947-.312.4311-.411.7093-.1.2741-.149.5801-.149.9178v3.5046h-.996v-6.5323h.823l.107 1.2039h.042c.135-.2424.298-.4629.489-.6615.19-.2027.411-.3636.661-.4828.255-.1192.537-.1788.847-.1788Zm6.252 4.8635c0 .4172-.106.7688-.316 1.0549-.207.2821-.505.4947-.894.6377-.386.1431-.847.2146-1.383.2146-.457 0-.852-.0358-1.186-.1073-.334-.0715-.626-.1728-.876-.304v-.9119c.266.1312.584.2504.953.3577.37.1072.748.1609 1.133.1609.564 0 .973-.0914 1.228-.2742.254-.1828.381-.4311.381-.745 0-.1788-.051-.3358-.155-.4709-.099-.139-.268-.2721-.506-.3993-.239-.1311-.569-.2742-.99-.4291-.417-.159-.779-.3159-1.085-.4709-.302-.1589-.536-.3516-.703-.5781-.163-.2265-.244-.5205-.244-.8821 0-.5523.222-.9755.667-1.2695.449-.298 1.037-.447 1.765-.447.393 0 .76.0397 1.102.1192.346.0755.668.1788.966.3099l-.334.7927c-.27-.1152-.558-.2126-.864-.292-.306-.0795-.618-.1192-.936-.1192-.457 0-.809.0755-1.055.2264-.242.151-.364.3576-.364.6199 0 .2026.056.3695.167.5006.116.1312.298.2543.549.3696.25.1152.58.2503.989.4053.409.151.763.3079 1.061.4708.298.159.526.3537.685.5841.163.2265.245.5185.245.8762Zm3.415 4.7204c-.858 0-1.52-.1609-1.985-.4828-.465-.3179-.697-.7649-.697-1.341 0-.4093.129-.7589.387-1.049.262-.2901.624-.4828 1.085-.5781-.171-.0795-.318-.1987-.441-.3576-.119-.159-.179-.3418-.179-.5484 0-.2384.066-.447.197-.6258.135-.1828.34-.3576.614-.5245-.342-.1391-.62-.3735-.835-.7033-.21-.3338-.316-.7212-.316-1.1622 0-.4689.098-.8682.292-1.198.195-.3338.477-.5881.847-.7629.369-.1748.816-.2622 1.341-.2622.115 0 .23.0059.346.0178.119.008.232.0219.339.0418.108.0159.201.0357.28.0596h2.241v.6377l-1.204.149c.12.155.219.3417.298.5603.08.2185.12.4609.12.7271 0 .6516-.221 1.1702-.662 1.5556-.441.3814-1.047.5722-1.818.5722-.183 0-.369-.0159-.56-.0477-.195.1073-.344.2265-.447.3576-.099.1311-.149.2821-.149.453 0 .1271.038.2284.113.3039.08.0755.193.1311.34.1669.147.0318.324.0477.53.0477h1.151c.711 0 1.255.149 1.633.447.381.298.572.7331.572 1.3053 0 .7231-.294 1.2774-.882 1.6629-.588.3854-1.439.5781-2.551.5781Zm.03-.7748c.54 0 .987-.0557 1.341-.1669.357-.1073.624-.2642.798-.4709.179-.2026.269-.445.269-.7271 0-.2623-.06-.4609-.179-.596-.119-.1311-.294-.2186-.525-.2623-.23-.0476-.512-.0715-.846-.0715h-1.132c-.294 0-.551.0457-.769.1371-.219.0914-.388.2265-.507.4053-.115.1788-.173.4013-.173.6675 0 .3537.149.6219.447.8046.298.1868.723.2802 1.276.2802Zm.256-5.2211c.473 0 .828-.1192 1.067-.3576.238-.2384.357-.5861.357-1.0431 0-.4887-.121-.8542-.363-1.0966-.242-.2464-.6-.3695-1.073-.3695-.453 0-.803.1271-1.049.3814-.242.2503-.363.6179-.363 1.1026 0 .4451.123.7868.369 1.0252.246.2384.598.3576 1.055.3576Zm7.486-3.588c.131 0 .268.0079.411.0238.143.0119.27.0298.382.0537l-.126.9178c-.107-.0278-.226-.0496-.357-.0655-.131-.0159-.254-.0239-.37-.0239-.262 0-.51.0537-.745.1609-.23.1034-.433.2543-.608.453-.174.1947-.312.4311-.411.7093-.099.2741-.149.5801-.149.9178v3.5046h-.995v-6.5323h.822l.108 1.2039h.041c.135-.2424.298-.4629.489-.6615.191-.2027.411-.3636.662-.4828.254-.1192.536-.1788.846-.1788Zm7.42.1192v6.5323h-.81l-.143-.9179h-.054c-.135.2265-.31.4172-.524.5722-.215.155-.457.2702-.728.3457-.266.0795-.55.1192-.852.1192-.516 0-.95-.0834-1.299-.2503-.35-.1669-.614-.4252-.793-.7748-.175-.3497-.262-.7987-.262-1.347v-4.2794h1.001v4.2078c0 .5444.123.9517.37 1.2219.246.2662.622.3993 1.126.3993.485 0 .87-.0914 1.156-.2742.29-.1827.499-.451.626-.8046.127-.3576.191-.7947.191-1.3112v-3.439h.995Zm5.162-.1192c.814 0 1.464.2801 1.949.8404.485.5602.727 1.4026.727 2.5271 0 .743-.111 1.3668-.334 1.8714-.222.5047-.536.8861-.942 1.1444-.401.2583-.876.3874-1.424.3874-.346 0-.65-.0457-.912-.1371-.262-.0914-.487-.2145-.673-.3695-.187-.155-.342-.3238-.465-.5066h-.072c.012.1549.026.3417.042.5602.02.2186.03.4093.03.5722v2.6821h-.996v-9.4528h.817l.131.9655h.048c.127-.1986.282-.3794.465-.5424.182-.1668.405-.298.667-.3933.266-.0994.58-.149.942-.149Zm-.173.8344c-.453 0-.819.0874-1.097.2622-.274.1749-.475.4371-.602.7868-.127.3457-.194.7808-.202 1.3053v.1907c0 .5523.059 1.0192.178 1.4006.124.3815.324.6715.602.8702.283.1987.66.298 1.133.298.405 0 .743-.1093 1.013-.3278.27-.2185.471-.5225.602-.9119.135-.3934.203-.8444.203-1.353 0-.7708-.151-1.3827-.453-1.8357-.298-.4569-.757-.6854-1.377-.6854Zm7.647-.8344c.814 0 1.464.2801 1.949.8404.485.5602.727 1.4026.727 2.5271 0 .743-.111 1.3668-.334 1.8714-.222.5047-.536.8861-.942 1.1444-.401.2583-.876.3874-1.424.3874-.346 0-.65-.0457-.912-.1371-.262-.0914-.487-.2145-.673-.3695-.187-.155-.342-.3238-.465-.5066h-.072c.012.1549.026.3417.042.5602.02.2186.03.4093.03.5722v2.6821h-.996v-9.4528h.817l.131.9655h.048c.127-.1986.282-.3794.465-.5424.182-.1668.405-.298.667-.3933.266-.0994.58-.149.942-.149Zm-.173.8344c-.453 0-.819.0874-1.097.2622-.274.1749-.475.4371-.602.7868-.127.3457-.194.7808-.202 1.3053v.1907c0 .5523.059 1.0192.178 1.4006.124.3815.324.6715.602.8702.283.1987.66.298 1.133.298.405 0 .743-.1093 1.013-.3278.27-.2185.471-.5225.602-.9119.135-.3934.203-.8444.203-1.353 0-.7708-.151-1.3827-.453-1.8357-.298-.4569-.757-.6854-1.377-.6854Zm7.093-.8344c.556 0 1.033.1232 1.43.3695.397.2464.701.592.912 1.0371.21.441.316.9576.316 1.5496v.6139h-4.512c.012.7669.203 1.351.572 1.7523.37.4013.89.602 1.562.602.413 0 .778-.0378 1.096-.1133.318-.0755.648-.1867.99-.3338v.8702c-.33.147-.658.2543-.984.3219-.322.0675-.703.1013-1.144.1013-.628 0-1.176-.1272-1.645-.3815-.465-.2582-.827-.6357-1.085-1.1324-.258-.4967-.387-1.1046-.387-1.8238 0-.7033.117-1.3112.351-1.8238.239-.5165.573-.9139 1.002-1.192.433-.2782.941-.4172 1.526-.4172Zm-.012.8106c-.529 0-.95.1728-1.264.5185-.314.3457-.501.8284-.56 1.4483h3.457c-.004-.3894-.066-.7311-.185-1.0251-.115-.298-.292-.5285-.531-.6914-.238-.1669-.544-.2503-.917-.2503Zm7.444-.8106c.775 0 1.361.1907 1.758.5722.397.3774.596.9854.596 1.8238v4.2555h-.977v-4.19c0-.5443-.126-.9516-.376-1.2218-.246-.2702-.626-.4053-1.138-.4053-.723 0-1.232.2046-1.526.6139-.294.4093-.441 1.0033-.441 1.7821v3.4211h-.989v-6.5323h.798l.149.9417h.054c.139-.2305.316-.4232.53-.5782.215-.1589.455-.2781.721-.3576.267-.0834.547-.1251.841-.1251Z"/>
    <path stroke="#686868" stroke-linecap="round" stroke-linejoin="round" stroke-width="1.5258" d="m337.66 53.1055-4.451 4.4502-4.45-4.4502"/>
    <rect width="246.416" height="32.8046" x="107.773" y="38.61" stroke="#DADADA" stroke-width=".762898" rx="5.72174"/>
    <path stroke="#DADADA" stroke-linejoin="round" stroke-width=".762898" d="M107.391 93.1577H354.57"/>
    <path fill="#282828" d="M109.954 127.519h-1.418v-8.714h4.923v1.204h-3.505v2.718h3.278v1.198h-3.278v3.594Zm10.788-3.314c0 .548-.071 1.035-.214 1.46-.143.425-.352.785-.626 1.079-.274.29-.604.512-.99.667-.385.151-.82.227-1.305.227-.453 0-.868-.076-1.246-.227-.377-.155-.705-.377-.983-.667-.274-.294-.487-.654-.638-1.079-.151-.425-.226-.912-.226-1.46 0-.727.125-1.343.375-1.848.255-.509.616-.896 1.085-1.162.469-.266 1.027-.399 1.675-.399.608 0 1.144.133 1.609.399.465.266.829.653 1.091 1.162.262.509.393 1.125.393 1.848Zm-4.786 0c0 .48.058.892.173 1.233.119.342.302.604.548.787.247.179.565.268.954.268s.707-.089.954-.268c.246-.183.427-.445.542-.787.115-.341.173-.753.173-1.233 0-.481-.058-.888-.173-1.222-.115-.338-.296-.594-.542-.769-.247-.179-.567-.268-.96-.268-.58 0-1.003.195-1.27.584-.266.389-.399.948-.399 1.675Zm9.739-3.409c.111 0 .232.005.364.017.131.012.244.028.339.048l-.131 1.311c-.083-.024-.187-.041-.31-.053-.119-.012-.226-.018-.322-.018-.25 0-.488.042-.715.125-.226.079-.427.203-.602.369-.175.163-.312.368-.411.614-.099.247-.149.533-.149.859v3.451h-1.407v-6.598h1.097l.191 1.162h.065c.131-.235.294-.449.489-.644.195-.194.417-.349.668-.465.254-.119.532-.178.834-.178Zm9.381 0c.739 0 1.296.19 1.669.572.378.381.566.993.566 1.835v4.316h-1.4v-4.065c0-.501-.098-.878-.292-1.133-.195-.254-.491-.381-.888-.381-.557 0-.958.179-1.204.536-.243.354-.364.868-.364 1.544v3.499h-1.401v-4.065c0-.334-.043-.612-.131-.835-.083-.226-.212-.395-.387-.506-.175-.116-.395-.173-.662-.173-.385 0-.693.087-.923.262-.227.175-.39.433-.489.775-.1.338-.149.753-.149 1.246v3.296h-1.401v-6.598h1.091l.197.888h.077c.135-.231.302-.419.501-.566.202-.151.427-.263.673-.334.247-.076.503-.113.769-.113.493 0 .908.087 1.246.262.337.171.59.433.757.786h.107c.207-.357.495-.621.864-.792.37-.171.761-.256 1.174-.256Zm6.777 0c.834 0 1.464.184 1.889.554.429.369.644.945.644 1.728v4.441h-.995l-.269-.936h-.047c-.187.238-.38.435-.578.59-.199.155-.429.27-.692.346-.258.079-.574.119-.947.119-.394 0-.745-.072-1.055-.215-.31-.147-.555-.369-.733-.667-.179-.298-.269-.676-.269-1.133 0-.679.253-1.19.757-1.532.509-.341 1.276-.53 2.301-.566l1.144-.041v-.346c0-.457-.107-.783-.322-.978-.21-.194-.508-.292-.894-.292-.329 0-.649.048-.959.143-.31.096-.612.213-.906.352l-.453-.989c.322-.171.687-.31 1.097-.418.413-.107.842-.16 1.287-.16Zm1.144 3.57-.852.029c-.699.024-1.19.143-1.472.358-.282.215-.423.509-.423.882 0 .326.097.564.292.715.194.147.451.221.769.221.484 0 .886-.137 1.204-.411.321-.278.482-.686.482-1.222v-.572Zm5.805 2.139c.183 0 .364-.016.543-.047.179-.036.342-.078.489-.126v1.061c-.155.068-.356.126-.602.173-.247.048-.503.072-.769.072-.374 0-.709-.062-1.007-.185-.299-.127-.535-.344-.71-.65-.175-.306-.262-.729-.262-1.269v-3.546h-.9v-.626l.966-.495.458-1.413h.883v1.467h1.889v1.067h-1.889v3.528c0 .334.083.582.25.745.167.163.387.244.661.244Zm5.001-5.709c.588 0 1.093.121 1.514.363.421.242.745.586.971 1.031.227.445.34.978.34 1.598v.75h-4.404c.016.64.186 1.133.512 1.479.33.345.791.518 1.383.518.421 0 .799-.04 1.132-.119.338-.084.686-.205 1.043-.364v1.139c-.329.155-.665.268-1.007.339-.342.072-.751.108-1.228.108-.647 0-1.218-.125-1.71-.376-.489-.254-.872-.632-1.151-1.132-.274-.501-.411-1.123-.411-1.866 0-.739.125-1.367.376-1.883.25-.517.602-.91 1.055-1.18.453-.27.981-.405 1.585-.405Zm0 1.054c-.441 0-.799.144-1.073.43-.27.286-.429.705-.477 1.257h3.004c-.004-.33-.059-.622-.167-.876-.103-.254-.262-.453-.476-.596-.211-.143-.481-.215-.811-.215Z"/>
    <rect width="56.3096" height="27.2064" x="107.391" y="139.673" fill="#fff" rx="6.10319"/>
    <path fill="#39B5AC" d="M119.534 149.696c.914 0 1.58.188 2 .562.42.375.63.899.63 1.574 0 .307-.049.599-.146.877-.093.274-.248.518-.465.731-.216.21-.502.376-.857.499-.352.122-.786.184-1.302.184h-.756v2.653h-1.162v-7.08h2.058Zm-.077.964h-.819v2.494h.635c.364 0 .674-.042.929-.126.255-.087.449-.224.581-.411.133-.188.199-.435.199-.741 0-.41-.124-.715-.373-.916-.245-.2-.629-.3-1.152-.3Zm8.75 3.424c0 .445-.058.841-.174 1.186-.116.346-.286.638-.509.877-.222.236-.49.416-.803.542-.314.123-.667.184-1.061.184-.368 0-.705-.061-1.012-.184-.307-.126-.573-.306-.799-.542-.223-.239-.396-.531-.518-.877-.123-.345-.184-.741-.184-1.186 0-.591.101-1.091.305-1.501.206-.414.5-.728.881-.945.381-.216.835-.324 1.361-.324.494 0 .93.108 1.307.324.378.217.674.531.887.945.213.413.319.913.319 1.501Zm-3.888 0c0 .391.046.725.14 1.002.097.278.245.491.446.64.2.145.458.217.774.217.317 0 .575-.072.775-.217.2-.149.347-.362.441-.64.093-.277.14-.611.14-1.002s-.047-.722-.14-.993c-.094-.274-.241-.483-.441-.625-.2-.145-.46-.217-.779-.217-.472 0-.816.158-1.032.474-.216.316-.324.77-.324 1.361Zm6.997 2.789c-.639 0-1.152-.232-1.54-.697-.384-.468-.576-1.158-.576-2.068 0-.92.195-1.616.586-2.087.394-.471.912-.707 1.554-.707.272 0 .509.037.712.111.204.071.378.168.523.291.149.123.275.26.378.411h.053c-.016-.1-.035-.243-.058-.431-.019-.19-.029-.366-.029-.527v-1.928h1.143v7.535h-.891l-.203-.731h-.049c-.097.155-.219.296-.368.421-.145.123-.32.222-.523.296-.2.074-.437.111-.712.111Zm.32-.925c.487 0 .831-.14 1.031-.421.2-.281.304-.702.31-1.264v-.15c0-.601-.097-1.061-.29-1.38-.194-.323-.548-.484-1.061-.484-.41 0-.723.166-.939.498-.213.33-.32.79-.32 1.38 0 .591.107 1.043.32 1.356.216.31.532.465.949.465Zm6.218.925c-.507 0-.946-.098-1.317-.295-.372-.197-.657-.499-.858-.906-.2-.407-.3-.923-.3-1.549 0-.653.11-1.185.329-1.598.22-.414.523-.719.911-.916.39-.197.838-.295 1.341-.295.32 0 .609.032.867.097.262.061.483.137.664.227l-.339.911c-.197-.081-.399-.149-.606-.204-.206-.055-.405-.082-.595-.082-.314 0-.575.069-.785.208-.207.139-.362.346-.465.62-.1.275-.15.615-.15 1.022 0 .394.052.726.155.998.103.267.257.471.46.61.203.135.454.203.751.203.293 0 .557-.035.789-.106.232-.071.452-.164.659-.276v.987c-.204.117-.422.202-.654.257-.233.058-.518.087-.857.087Zm4.871-5.559c.678 0 1.19.15 1.535.45.349.301.523.769.523 1.405v3.607h-.808l-.218-.76h-.039c-.152.194-.308.354-.47.479-.161.126-.348.22-.561.281-.21.065-.467.097-.77.097-.32 0-.606-.058-.857-.174-.252-.12-.451-.3-.596-.542-.145-.243-.218-.549-.218-.921 0-.552.205-.966.615-1.244.413-.278 1.036-.431 1.869-.46l.93-.034v-.281c0-.371-.087-.636-.261-.794-.172-.158-.414-.237-.727-.237-.268 0-.528.038-.78.116-.251.077-.497.173-.736.286l-.368-.804c.262-.139.559-.252.891-.339.336-.088.685-.131 1.046-.131Zm.93 2.901-.692.024c-.569.019-.967.116-1.196.29-.23.175-.344.414-.344.717 0 .265.079.459.237.581.158.12.366.179.625.179.394 0 .72-.111.978-.334.261-.226.392-.557.392-.992v-.465Zm6.325 1.031c0 .352-.086.649-.257.891s-.421.426-.751.552c-.326.123-.726.184-1.201.184-.374 0-.697-.027-.968-.082-.268-.052-.522-.132-.76-.242v-.983c.255.119.54.222.857.31.319.087.621.13.905.13.375 0 .644-.058.809-.174.165-.119.247-.278.247-.475 0-.116-.034-.219-.102-.309-.064-.094-.187-.189-.368-.286-.177-.1-.439-.22-.784-.359-.339-.135-.625-.271-.857-.406-.233-.136-.409-.299-.528-.489-.12-.194-.179-.441-.179-.741 0-.475.187-.835.561-1.08.378-.249.877-.373 1.497-.373.329 0 .639.034.929.102.294.064.582.159.862.285l-.358.857c-.242-.106-.486-.193-.731-.261-.242-.071-.489-.107-.741-.107-.294 0-.518.046-.673.136-.152.09-.228.22-.228.387 0 .126.037.233.112.32.074.087.201.174.382.262.184.087.439.195.765.324.32.123.596.252.828.387.236.133.417.296.543.489.126.194.189.444.189.751Zm3.225.707c.148 0 .295-.013.44-.039.146-.029.278-.063.398-.101v.862c-.126.055-.289.101-.49.14-.2.039-.408.058-.624.058-.304 0-.576-.05-.819-.15-.242-.103-.434-.279-.576-.528-.142-.248-.213-.592-.213-1.031v-2.882h-.731v-.508l.784-.402.373-1.148h.717v1.192h1.535v.866h-1.535v2.867c0 .271.068.473.203.606.136.132.315.198.538.198Z"/>
    <rect width="56.3096" height="27.2064" x="107.391" y="139.673" stroke="#39B5AC" stroke-width=".762898" rx="6.10319"/>
    <rect width="45.3096" height="27.2064" x="169.804" y="139.673" fill="#fff" rx="6.10319"/>
    <path fill="#39B5AC" d="m185.138 149.696-2.474 7.08h-1.23l-2.475-7.08h1.191l1.492 4.436c.045.129.093.286.145.47.055.184.105.37.15.557.049.187.086.353.112.499.025-.146.061-.312.106-.499.048-.187.099-.373.15-.557.052-.184.1-.342.145-.475l1.497-4.431h1.191Zm1.952 1.72v5.36h-1.138v-5.36h1.138Zm-.562-2.054c.174 0 .324.047.45.141.129.093.194.255.194.484 0 .226-.065.387-.194.484-.126.094-.276.141-.45.141-.181 0-.334-.047-.46-.141-.123-.097-.184-.258-.184-.484 0-.229.061-.391.184-.484.126-.094.279-.141.46-.141Zm3.995 7.511c-.639 0-1.152-.232-1.54-.697-.384-.468-.576-1.158-.576-2.068 0-.92.195-1.616.586-2.087.394-.471.912-.707 1.554-.707.271 0 .509.037.712.111.204.071.378.168.523.291.149.123.275.26.378.411h.053c-.016-.1-.035-.243-.058-.431-.019-.19-.029-.366-.029-.527v-1.928h1.143v7.535h-.891l-.204-.731h-.048c-.097.155-.22.296-.368.421-.145.123-.32.222-.523.296-.2.074-.437.111-.712.111Zm.32-.925c.487 0 .831-.14 1.031-.421.2-.281.304-.702.31-1.264v-.15c0-.601-.097-1.061-.29-1.38-.194-.323-.548-.484-1.061-.484-.41 0-.723.166-.939.498-.214.33-.32.79-.32 1.38 0 .591.106 1.043.32 1.356.216.31.532.465.949.465Zm6.193-4.634c.478 0 .888.098 1.23.295.343.197.606.476.79.838.184.362.276.794.276 1.298v.61h-3.579c.013.52.152.92.417 1.201.268.281.642.421 1.123.421.342 0 .649-.032.92-.097.275-.067.557-.166.848-.295v.925c-.268.126-.541.218-.819.276-.277.058-.61.087-.997.087-.527 0-.99-.101-1.39-.305-.397-.206-.709-.513-.935-.92-.223-.407-.334-.912-.334-1.516 0-.6.102-1.11.305-1.53.204-.42.489-.739.857-.959.368-.219.798-.329 1.288-.329Zm0 .857c-.358 0-.649.116-.871.349-.22.232-.349.573-.388 1.021h2.441c-.003-.267-.048-.505-.136-.711-.084-.207-.213-.368-.387-.485-.171-.116-.391-.174-.659-.174Zm8.325 1.913c0 .445-.058.841-.174 1.186-.117.346-.286.638-.509.877-.223.236-.491.416-.804.542-.313.123-.666.184-1.06.184-.368 0-.706-.061-1.012-.184-.307-.126-.573-.306-.799-.542-.223-.239-.396-.531-.519-.877-.122-.345-.184-.741-.184-1.186 0-.591.102-1.091.305-1.501.207-.414.501-.728.882-.945.381-.216.834-.324 1.361-.324.493 0 .929.108 1.307.324.378.217.673.531.886.945.213.413.32.913.32 1.501Zm-3.889 0c0 .391.047.725.141 1.002.097.278.245.491.445.64.2.145.459.217.775.217s.575-.072.775-.217c.2-.149.347-.362.441-.64.093-.277.14-.611.14-1.002s-.047-.722-.14-.993c-.094-.274-.241-.483-.441-.625-.2-.145-.46-.217-.78-.217-.471 0-.815.158-1.031.474-.217.316-.325.77-.325 1.361Z"/>
    <rect width="45.3096" height="27.2064" x="169.804" y="139.673" stroke="#39B5AC" stroke-width=".762898" rx="6.10319"/>
    <rect width="75.3096" height="27.2064" x="221.217" y="139.673" fill="#fff" rx="6.10319"/>
    <path fill="#39B5AC" d="M237.587 153.227c0 .545-.069 1.043-.208 1.491-.136.446-.341.83-.615 1.153-.274.319-.618.566-1.032.741-.413.174-.897.261-1.452.261-.565 0-1.056-.087-1.472-.261-.414-.175-.758-.423-1.032-.746-.271-.323-.475-.709-.61-1.157-.136-.449-.203-.946-.203-1.492 0-.73.119-1.366.358-1.908.242-.546.608-.968 1.099-1.269.494-.303 1.117-.455 1.869-.455.736 0 1.348.15 1.836.45.487.301.852.724 1.094 1.269.246.543.368 1.183.368 1.923Zm-5.404 0c0 .545.074 1.018.223 1.419.148.397.376.703.682.92.31.213.707.319 1.192.319.487 0 .884-.106 1.191-.319.307-.217.533-.523.678-.92.145-.401.218-.874.218-1.419 0-.83-.166-1.479-.499-1.947-.329-.471-.855-.707-1.579-.707-.484 0-.883.107-1.196.32-.31.213-.539.518-.687.915-.149.394-.223.867-.223 1.419Zm9.603-1.913c.603 0 1.073.156 1.409.47.339.31.508.808.508 1.496v3.496h-1.138v-3.283c0-.416-.085-.728-.256-.935-.171-.209-.436-.314-.794-.314-.52 0-.882.159-1.085.479-.2.32-.3.783-.3 1.39v2.663h-1.138v-5.36h.886l.16.726h.063c.116-.187.259-.341.431-.46.174-.123.368-.215.581-.276.216-.061.44-.092.673-.092Zm4.654 5.462h-1.143v-7.535h1.143v7.535Zm2.765-5.36v5.36h-1.138v-5.36h1.138Zm-.562-2.054c.174 0 .324.047.45.141.129.093.194.255.194.484 0 .226-.065.387-.194.484-.126.094-.276.141-.45.141-.181 0-.334-.047-.46-.141-.123-.097-.184-.258-.184-.484 0-.229.061-.391.184-.484.126-.094.279-.141.46-.141Zm4.988 1.952c.604 0 1.073.156 1.409.47.339.31.508.808.508 1.496v3.496h-1.138v-3.283c0-.416-.085-.728-.256-.935-.171-.209-.436-.314-.794-.314-.52 0-.882.159-1.085.479-.2.32-.3.783-.3 1.39v2.663h-1.138v-5.36h.886l.16.726h.063c.116-.187.259-.341.431-.46.174-.123.368-.215.581-.276.216-.061.44-.092.673-.092Zm5.646 0c.478 0 .888.098 1.23.295.343.197.606.476.79.838.184.362.276.794.276 1.298v.61h-3.579c.013.52.152.92.416 1.201.268.281.643.421 1.124.421.342 0 .649-.032.92-.097.274-.067.557-.166.847-.295v.925c-.267.126-.54.218-.818.276-.278.058-.61.087-.997.087-.527 0-.99-.101-1.39-.305-.397-.206-.709-.513-.935-.92-.223-.407-.334-.912-.334-1.516 0-.6.102-1.11.305-1.53.203-.42.489-.739.857-.959.368-.219.798-.329 1.288-.329Zm0 .857c-.358 0-.649.116-.871.349-.22.232-.349.573-.388 1.021h2.441c-.003-.267-.049-.505-.136-.711-.084-.207-.213-.368-.387-.485-.171-.116-.391-.174-.659-.174Zm3.114 2.426v-.963h2.499v.963h-2.499Zm9.177 2.179h-1.337l-2.203-3.215-.697.566v2.649h-1.163v-7.08h1.163v3.385c.142-.174.285-.348.431-.523.145-.174.29-.348.435-.523l1.996-2.339h1.312l-2.644 3.1 2.707 3.98Zm5.491-5.36v5.36h-.896l-.154-.721h-.063c-.113.184-.257.337-.431.46-.175.119-.368.208-.582.266-.213.062-.437.092-.673.092-.403 0-.749-.068-1.036-.203-.284-.139-.502-.352-.654-.639-.151-.288-.227-.659-.227-1.114v-3.501h1.143v3.288c0 .416.083.728.251.934.171.207.436.31.795.31.345 0 .619-.071.823-.213.203-.142.347-.352.431-.629.087-.278.131-.619.131-1.022v-2.668h1.142Zm4.349-.102c.09 0 .189.005.295.014.107.01.199.023.276.039l-.106 1.066c-.068-.02-.152-.034-.252-.044-.097-.01-.184-.015-.261-.015-.204 0-.397.034-.582.102-.184.065-.347.165-.489.3-.142.133-.253.299-.334.499-.08.2-.121.433-.121.697v2.804h-1.143v-5.36h.891l.155.944h.054c.106-.191.239-.365.397-.523.158-.158.339-.284.542-.378.207-.097.433-.145.678-.145Zm5.167 3.932c0 .352-.085.649-.257.891-.171.242-.421.426-.75.552-.326.123-.727.184-1.201.184-.375 0-.697-.027-.969-.082-.268-.052-.521-.132-.76-.242v-.983c.255.119.541.222.857.31.32.087.622.13.906.13.374 0 .644-.058.808-.174.165-.119.247-.278.247-.475 0-.116-.033-.219-.101-.309-.065-.094-.187-.189-.368-.286-.178-.1-.439-.22-.785-.359-.339-.135-.624-.271-.857-.406-.232-.136-.408-.299-.528-.489-.119-.194-.179-.441-.179-.741 0-.475.187-.835.562-1.08.378-.249.876-.373 1.496-.373.329 0 .639.034.93.102.294.064.581.159.862.285l-.358.857c-.243-.106-.486-.193-.732-.261-.242-.071-.489-.107-.741-.107-.293 0-.518.046-.673.136-.151.09-.227.22-.227.387 0 .126.037.233.111.32.074.087.202.174.383.262.184.087.439.195.765.324.319.123.595.252.828.387.236.133.416.296.542.489.126.194.189.444.189.751Z"/>
    <rect width="75.3096" height="27.2064" x="221.217" y="139.673" stroke="#39B5AC" stroke-width=".762898" rx="6.10319"/>
    <rect width="80.3096" height="27.2064" x="107.391" y="176.035" fill="#39B5AC" fill-opacity=".15" rx="6.10319"/>
    <path fill="#39B5AC" d="M119.534 186.058c.914 0 1.58.187 2 .562.42.374.63.899.63 1.573 0 .307-.049.599-.146.877-.093.274-.248.518-.465.731-.216.21-.502.376-.857.499-.352.123-.786.184-1.302.184h-.756v2.654h-1.162v-7.08h2.058Zm-.077.963h-.819v2.494h.635c.364 0 .674-.042.929-.125.255-.088.449-.225.581-.412.133-.187.199-.434.199-.741 0-.41-.124-.715-.373-.915-.245-.2-.629-.301-1.152-.301Zm6.721.654c.091 0 .189.005.296.015.106.009.198.022.276.038l-.107 1.066c-.068-.02-.152-.034-.252-.044-.097-.009-.184-.014-.261-.014-.204 0-.397.034-.581.101-.184.065-.347.165-.489.301-.143.132-.254.298-.335.498-.08.201-.121.433-.121.698v2.804h-1.143v-5.361h.892l.154.944h.054c.106-.19.239-.365.397-.523.158-.158.339-.284.542-.377.207-.097.433-.146.678-.146Zm3.666 0c.678 0 1.19.15 1.535.451.349.3.523.768.523 1.404v3.608h-.809l-.217-.761h-.039c-.152.194-.309.354-.47.48-.161.126-.349.219-.562.281-.21.064-.466.097-.77.097-.319 0-.605-.059-.857-.175-.252-.119-.45-.3-.595-.542-.146-.242-.218-.549-.218-.92 0-.552.205-.967.615-1.245.413-.277 1.036-.431 1.869-.46l.93-.034v-.281c0-.371-.088-.636-.262-.794-.171-.158-.413-.237-.726-.237-.268 0-.528.039-.78.116-.252.078-.497.173-.736.286l-.368-.804c.261-.139.558-.252.891-.339.336-.087.684-.131 1.046-.131Zm.93 2.901-.693.024c-.568.02-.967.116-1.196.291-.229.174-.344.413-.344.716 0 .265.079.459.238.582.158.119.366.179.624.179.394 0 .72-.112.979-.334.261-.226.392-.557.392-.993v-.465Zm3.908-.179-1.792-2.62h1.298l1.225 1.884 1.23-1.884h1.293l-1.801 2.62 1.893 2.741h-1.303l-1.312-2.01-1.317 2.01h-1.293l1.879-2.741Zm5.414-2.62v5.361h-1.138v-5.361h1.138Zm-.562-2.053c.174 0 .325.046.45.14.13.094.194.255.194.484 0 .226-.064.388-.194.485-.125.093-.276.14-.45.14-.181 0-.334-.047-.46-.14-.123-.097-.184-.259-.184-.485 0-.229.061-.39.184-.484.126-.094.279-.14.46-.14Zm5.797 5.883c0 .352-.086.649-.257.891-.171.243-.421.427-.751.553-.326.122-.726.184-1.201.184-.374 0-.697-.028-.968-.083-.268-.051-.521-.132-.76-.242v-.983c.255.119.54.223.857.31.319.087.621.131.905.131.375 0 .644-.058.809-.175.165-.119.247-.277.247-.474 0-.116-.034-.22-.102-.31-.064-.094-.187-.189-.368-.286-.177-.1-.439-.219-.784-.358-.339-.136-.625-.271-.857-.407-.233-.136-.409-.299-.528-.489-.12-.194-.179-.441-.179-.741 0-.475.187-.835.561-1.08.378-.248.877-.373 1.497-.373.329 0 .639.034.93.102.293.064.581.16.862.286l-.359.857c-.242-.107-.486-.194-.731-.262-.242-.071-.489-.106-.741-.106-.294 0-.518.045-.673.135-.152.091-.228.22-.228.388 0 .126.037.232.112.319.074.088.201.175.382.262.184.087.439.195.765.324.32.123.596.252.828.388.236.132.417.295.543.489.126.194.189.444.189.75Zm2.368-3.83v5.361h-1.138v-5.361h1.138Zm-.562-2.053c.174 0 .324.046.45.14.13.094.194.255.194.484 0 .226-.064.388-.194.485-.126.093-.276.14-.45.14-.181 0-.334-.047-.46-.14-.123-.097-.184-.259-.184-.485 0-.229.061-.39.184-.484.126-.094.279-.14.46-.14Zm8.252 1.951c.6 0 1.052.155 1.356.465.306.31.46.807.46 1.492v3.506h-1.138v-3.303c0-.407-.079-.713-.237-.92-.159-.207-.399-.31-.722-.31-.452 0-.778.145-.978.436-.197.287-.296.705-.296 1.254v2.843h-1.138v-3.303c0-.271-.035-.497-.106-.678-.068-.184-.173-.321-.315-.412-.142-.093-.321-.14-.538-.14-.313 0-.563.071-.75.213-.184.142-.316.352-.397.63-.081.274-.121.611-.121 1.012v2.678h-1.138v-5.361h.886l.16.721h.063c.109-.187.245-.34.406-.46.165-.122.348-.213.548-.271.2-.061.408-.092.624-.092.401 0 .738.071 1.012.213.275.139.48.352.615.64h.088c.168-.291.402-.506.702-.645.3-.138.618-.208.954-.208Zm6.155 0c.636 0 1.146.233 1.53.698.387.464.581 1.155.581 2.072 0 .607-.09 1.119-.271 1.535-.178.414-.428.727-.751.94-.319.21-.692.315-1.118.315-.271 0-.507-.036-.707-.107-.2-.071-.372-.163-.514-.276-.142-.116-.261-.242-.358-.378h-.068c.016.129.031.273.044.431.016.155.024.297.024.426v2.184h-1.143v-7.738h.93l.16.741h.053c.1-.152.221-.292.363-.421.146-.13.32-.231.523-.306.207-.077.447-.116.722-.116Zm-.305.93c-.313 0-.565.063-.756.189-.187.123-.324.308-.411.557-.084.248-.129.56-.136.934v.16c0 .397.04.735.121 1.012.084.275.221.485.412.63.193.142.455.213.784.213.278 0 .507-.076.688-.228.184-.151.321-.368.412-.649.09-.28.135-.611.135-.992 0-.578-.103-1.027-.31-1.347-.203-.319-.516-.479-.939-.479Zm8.406-.828v5.361h-.895l-.155-.722h-.063c-.113.184-.257.338-.431.46-.175.12-.368.208-.581.267-.213.061-.438.092-.674.092-.403 0-.749-.068-1.036-.204-.284-.139-.502-.352-.654-.639-.151-.287-.227-.659-.227-1.114v-3.501h1.143v3.288c0 .417.084.728.251.935.172.206.436.31.795.31.345 0 .619-.071.823-.213.203-.143.347-.352.431-.63.087-.278.131-.618.131-1.022v-2.668h1.142Zm2.775 5.361h-1.143v-7.535h1.143v7.535Zm5.23-1.531c0 .352-.085.649-.256.891-.171.243-.422.427-.751.553-.326.122-.726.184-1.201.184-.374 0-.697-.028-.968-.083-.268-.051-.522-.132-.761-.242v-.983c.255.119.541.223.857.31.32.087.622.131.906.131.374 0 .644-.058.809-.175.164-.119.247-.277.247-.474 0-.116-.034-.22-.102-.31-.065-.094-.187-.189-.368-.286-.178-.1-.439-.219-.785-.358-.339-.136-.624-.271-.857-.407-.232-.136-.408-.299-.528-.489-.119-.194-.179-.441-.179-.741 0-.475.188-.835.562-1.08.378-.248.877-.373 1.496-.373.33 0 .64.034.93.102.294.064.581.16.862.286l-.358.857c-.242-.107-.486-.194-.731-.262-.243-.071-.49-.106-.741-.106-.294 0-.519.045-.673.135-.152.091-.228.22-.228.388 0 .126.037.232.111.319.075.088.202.175.383.262.184.087.439.195.765.324.32.123.596.252.828.388.236.132.417.295.542.489.126.194.189.444.189.75Z"/>
    <rect width="80.3096" height="27.2064" x="107.391" y="176.035" stroke="#39B5AC" stroke-width=".762898" rx="6.10319"/>
    <rect width="60.3096" height="27.2064" x="193.804" y="176.035" fill="#fff" rx="6.10319"/>
    <path fill="#39B5AC" d="M205.041 193.138h-1.152v-7.08h4v.978h-2.848v2.208h2.664v.974h-2.664v2.92Zm6.121-5.463c.678 0 1.19.15 1.535.451.349.3.523.768.523 1.404v3.608h-.808l-.218-.761h-.039c-.152.194-.308.354-.47.48-.161.126-.348.219-.561.281-.21.064-.467.097-.77.097-.32 0-.606-.059-.858-.175-.251-.119-.45-.3-.595-.542-.145-.242-.218-.549-.218-.92 0-.552.205-.967.615-1.245.413-.277 1.036-.431 1.869-.46l.93-.034v-.281c0-.371-.087-.636-.262-.794-.171-.158-.413-.237-.726-.237-.268 0-.528.039-.78.116-.251.078-.497.173-.736.286l-.368-.804c.262-.139.559-.252.891-.339.336-.087.685-.131 1.046-.131Zm.93 2.901-.692.024c-.569.02-.967.116-1.197.291-.229.174-.343.413-.343.716 0 .265.079.459.237.582.158.119.366.179.625.179.394 0 .72-.112.978-.334.261-.226.392-.557.392-.993v-.465Zm4.881 2.659c-.506 0-.945-.099-1.317-.296-.371-.197-.657-.499-.857-.905-.2-.407-.3-.924-.3-1.55 0-.652.11-1.185.329-1.598.22-.413.523-.718.911-.915.39-.197.837-.296 1.341-.296.32 0 .609.033.867.097.261.061.482.137.663.228l-.339.91c-.197-.081-.398-.148-.605-.203-.207-.055-.405-.083-.596-.083-.313 0-.574.07-.784.209-.207.138-.362.345-.465.619-.1.275-.15.615-.15 1.022 0 .394.051.727.155.998.103.268.256.471.46.61.203.136.453.203.75.203.294 0 .557-.035.79-.106.232-.071.452-.163.658-.276v.988c-.203.116-.421.201-.653.256-.233.058-.519.088-.858.088Zm3.908-7.632v1.893c0 .197-.006.389-.019.576-.01.188-.021.333-.034.436h.063c.113-.187.252-.34.417-.46.164-.123.348-.215.552-.276.206-.061.426-.092.658-.092.41 0 .759.069 1.046.208.288.136.507.347.659.635.155.287.232.66.232 1.118v3.497h-1.138v-3.284c0-.416-.085-.728-.256-.934-.171-.21-.436-.315-.795-.315-.345 0-.619.073-.823.218-.2.142-.344.353-.431.634-.087.278-.131.617-.131 1.017v2.664h-1.138v-7.535h1.138Zm7.163 6.711c.148 0 .295-.012.44-.038.146-.029.278-.063.397-.102v.862c-.125.055-.288.102-.489.14-.2.039-.408.059-.624.059-.304 0-.577-.05-.819-.151-.242-.103-.434-.279-.576-.527-.142-.249-.213-.593-.213-1.032v-2.881h-.731v-.509l.784-.402.373-1.147h.717v1.191h1.535v.867h-1.535v2.867c0 .271.068.473.203.605.136.132.315.198.538.198Zm4.063-4.639c.477 0 .887.099 1.23.296.342.197.605.476.789.837.184.362.276.795.276 1.298v.61h-3.579c.013.52.152.92.417 1.201.268.281.642.422 1.123.422.342 0 .649-.033.92-.097.275-.068.557-.166.848-.296v.925c-.268.126-.541.218-.819.276-.277.058-.61.088-.997.088-.526 0-.99-.102-1.39-.306-.397-.206-.709-.513-.935-.92-.222-.406-.334-.912-.334-1.515 0-.601.102-1.111.305-1.531.204-.419.489-.739.857-.958.369-.22.798-.33 1.289-.33Zm0 .857c-.359 0-.649.117-.872.349-.22.232-.349.573-.387 1.022h2.44c-.003-.268-.048-.505-.135-.712-.084-.207-.213-.368-.388-.484-.171-.117-.39-.175-.658-.175Zm4.765 1.865-1.792-2.62h1.298l1.225 1.884 1.23-1.884h1.293l-1.801 2.62 1.893 2.741h-1.303l-1.312-2.01-1.317 2.01h-1.293l1.879-2.741Zm6.271 1.917c.148 0 .295-.012.441-.038.145-.029.277-.063.397-.102v.862c-.126.055-.289.102-.489.14-.201.039-.409.059-.625.059-.304 0-.576-.05-.818-.151-.243-.103-.435-.279-.577-.527-.142-.249-.213-.593-.213-1.032v-2.881h-.731v-.509l.784-.402.373-1.147h.717v1.191h1.535v.867h-1.535v2.867c0 .271.068.473.203.605.136.132.315.198.538.198Z"/>
    <rect width="60.3096" height="27.2064" x="193.804" y="176.035" stroke="#39B5AC" stroke-width=".762898" rx="6.10319"/>
    <rect width="64.3096" height="27.2064" x="260.217" y="176.035" fill="#39B5AC" fill-opacity=".15" rx="6.10319"/>
    <path fill="#39B5AC" d="M274.389 191.21c0 .42-.104.782-.31 1.085-.204.304-.498.536-.882.697-.381.162-.836.243-1.365.243-.259 0-.506-.015-.741-.044-.236-.029-.459-.071-.669-.126-.206-.058-.395-.127-.566-.208v-1.095c.287.126.608.241.964.344.355.1.716.15 1.084.15.301 0 .549-.038.746-.116.2-.081.349-.194.446-.339.096-.148.145-.321.145-.518 0-.21-.057-.387-.17-.533-.113-.145-.284-.277-.513-.397-.226-.122-.51-.253-.852-.392-.233-.094-.455-.2-.668-.32-.21-.119-.398-.26-.562-.421-.165-.161-.296-.352-.392-.571-.094-.223-.141-.485-.141-.785 0-.4.095-.742.286-1.027.193-.284.465-.502.813-.653.352-.152.762-.228 1.23-.228.372 0 .72.039 1.046.116.33.078.653.188.969.33l-.368.934c-.291-.119-.573-.214-.848-.285-.271-.071-.548-.107-.833-.107-.245 0-.453.037-.624.111-.171.075-.302.18-.392.315-.088.133-.131.291-.131.475 0 .206.05.381.15.523.103.139.261.266.474.382.217.117.494.246.833.388.391.161.722.331.993.508.275.178.484.391.63.639.145.246.218.554.218.925Zm5.995-.765c0 .446-.058.841-.175 1.187-.116.345-.285.637-.508.876-.223.236-.491.417-.804.543-.313.122-.667.184-1.06.184-.369 0-.706-.062-1.013-.184-.306-.126-.573-.307-.799-.543-.222-.239-.395-.531-.518-.876-.122-.346-.184-.741-.184-1.187 0-.591.102-1.091.305-1.501.207-.413.501-.728.882-.944.381-.217.834-.325 1.36-.325.494 0 .93.108 1.308.325.378.216.673.531.886.944.213.413.32.914.32 1.501Zm-3.889 0c0 .391.047.725.141 1.003.096.277.245.49.445.639.2.145.459.218.775.218s.575-.073.775-.218c.2-.149.347-.362.44-.639.094-.278.141-.612.141-1.003 0-.39-.047-.721-.141-.993-.093-.274-.24-.482-.44-.624-.2-.146-.46-.218-.78-.218-.471 0-.815.158-1.031.474-.217.317-.325.77-.325 1.361Zm7.99-2.77c.604 0 1.074.157 1.41.47.339.31.508.809.508 1.496v3.497h-1.138v-3.284c0-.416-.085-.728-.257-.934-.171-.21-.435-.315-.794-.315-.52 0-.881.16-1.084.479-.201.32-.301.783-.301 1.39v2.664h-1.138v-5.361h.886l.16.726h.063c.116-.187.26-.34.431-.46.175-.122.368-.214.581-.276.217-.061.441-.092.673-.092Zm7.114 3.932c0 .352-.085.649-.256.891-.172.243-.422.427-.751.553-.326.122-.726.184-1.201.184-.374 0-.697-.028-.969-.083-.267-.051-.521-.132-.76-.242v-.983c.255.119.541.223.857.31.32.087.622.131.906.131.374 0 .644-.058.809-.175.164-.119.247-.277.247-.474 0-.116-.034-.22-.102-.31-.065-.094-.187-.189-.368-.286-.178-.1-.439-.219-.785-.358-.339-.136-.624-.271-.857-.407-.232-.136-.408-.299-.528-.489-.119-.194-.179-.441-.179-.741 0-.475.187-.835.562-1.08.378-.248.876-.373 1.496-.373.33 0 .64.034.93.102.294.064.581.16.862.286l-.358.857c-.242-.107-.486-.194-.732-.262-.242-.071-.489-.106-.74-.106-.294 0-.519.045-.674.135-.151.091-.227.22-.227.388 0 .126.037.232.111.319.074.088.202.175.383.262.184.087.439.195.765.324.32.123.596.252.828.388.236.132.416.295.542.489.126.194.189.444.189.75Zm3.225.707c.149 0 .296-.012.441-.038.145-.029.278-.063.397-.102v.862c-.126.055-.289.102-.489.14-.2.039-.408.059-.625.059-.303 0-.576-.05-.818-.151-.242-.103-.434-.279-.576-.527-.142-.249-.213-.593-.213-1.032v-2.881h-.732v-.509l.785-.402.373-1.147h.717v1.191h1.535v.867h-1.535v2.867c0 .271.067.473.203.605.135.132.315.198.537.198Zm3.066-4.537v5.361h-1.138v-5.361h1.138Zm-.562-2.053c.174 0 .325.046.45.14.13.094.194.255.194.484 0 .226-.064.388-.194.485-.125.093-.276.14-.45.14-.181 0-.334-.047-.46-.14-.123-.097-.184-.259-.184-.485 0-.229.061-.39.184-.484.126-.094.279-.14.46-.14Zm3.724 9.796c-.726 0-1.283-.13-1.671-.392-.387-.261-.581-.628-.581-1.099 0-.33.104-.609.31-.838.207-.226.502-.383.886-.47-.145-.064-.271-.164-.377-.3-.104-.139-.155-.292-.155-.46 0-.2.056-.371.169-.513.113-.142.283-.28.509-.412-.281-.119-.507-.313-.678-.581-.168-.271-.252-.589-.252-.954 0-.388.082-.717.247-.988.164-.274.405-.483.721-.625.317-.145.699-.218 1.148-.218.097 0 .202.007.315.02.116.009.223.022.319.038.101.013.176.028.228.044h1.855v.634l-.911.17c.088.123.157.263.209.421.051.155.077.325.077.509 0 .555-.192.992-.576 1.312-.381.316-.907.475-1.579.475-.161-.007-.318-.02-.47-.039-.116.071-.205.15-.266.237-.061.084-.092.179-.092.286 0 .087.031.158.092.213.061.052.152.09.271.116.123.026.271.039.446.039h.925c.587 0 1.036.124 1.346.373.31.248.465.613.465 1.094 0 .61-.252 1.08-.756 1.409-.503.333-1.228.499-2.174.499Zm.044-.799c.397 0 .731-.039 1.002-.116.271-.077.476-.189.615-.334.139-.142.208-.312.208-.509 0-.174-.043-.308-.13-.402-.088-.093-.218-.158-.393-.193-.174-.036-.39-.054-.649-.054h-.842c-.21 0-.396.033-.557.097-.162.068-.287.165-.378.291-.087.126-.131.278-.131.455 0 .245.109.434.325.567.219.132.529.198.93.198Zm.222-4.174c.333 0 .58-.09.741-.271.162-.184.242-.443.242-.775 0-.362-.084-.633-.251-.814-.165-.18-.41-.271-.736-.271-.32 0-.564.092-.732.276-.164.184-.247.457-.247.819 0 .326.083.581.247.765.168.181.414.271.736.271Zm5.841-2.872c.477 0 .887.099 1.23.296.342.197.605.476.789.837.184.362.276.795.276 1.298v.61h-3.579c.013.52.152.92.417 1.201.268.281.642.422 1.123.422.342 0 .649-.033.92-.097.275-.068.557-.166.848-.296v.925c-.268.126-.541.218-.819.276-.277.058-.61.088-.997.088-.526 0-.99-.102-1.39-.306-.397-.206-.709-.513-.935-.92-.222-.406-.334-.912-.334-1.515 0-.601.102-1.111.305-1.531.204-.419.489-.739.857-.958.368-.22.798-.33 1.289-.33Zm0 .857c-.359 0-.649.117-.872.349-.22.232-.349.573-.388 1.022h2.441c-.003-.268-.048-.505-.135-.712-.084-.207-.213-.368-.388-.484-.171-.117-.39-.175-.658-.175Zm7.181 3.075c0 .352-.085.649-.256.891-.172.243-.422.427-.751.553-.326.122-.726.184-1.201.184-.375 0-.697-.028-.969-.083-.268-.051-.521-.132-.76-.242v-.983c.255.119.541.223.857.31.32.087.622.131.906.131.374 0 .644-.058.809-.175.164-.119.247-.277.247-.474 0-.116-.034-.22-.102-.31-.065-.094-.187-.189-.368-.286-.178-.1-.439-.219-.785-.358-.339-.136-.624-.271-.857-.407-.232-.136-.408-.299-.528-.489-.119-.194-.179-.441-.179-.741 0-.475.187-.835.562-1.08.378-.248.876-.373 1.496-.373.33 0 .639.034.93.102.294.064.581.16.862.286l-.358.857c-.242-.107-.486-.194-.732-.262-.242-.071-.489-.106-.741-.106-.293 0-.518.045-.673.135-.151.091-.227.22-.227.388 0 .126.037.232.111.319.074.088.202.175.383.262.184.087.439.195.765.324.319.123.595.252.828.388.236.132.416.295.542.489.126.194.189.444.189.75Z"/>
    <rect width="64.3096" height="27.2064" x="260.217" y="176.035" stroke="#39B5AC" stroke-width=".762898" rx="6.10319"/>
    <path stroke="#DADADA" stroke-linejoin="round" stroke-width=".762898" d="M107.391 224.602H354.57"/>
    <path fill="#282828" d="M113.566 256.591c0 .517-.127.962-.381 1.335-.251.374-.612.66-1.085.859-.469.198-1.029.298-1.681.298-.318 0-.622-.018-.912-.054-.29-.036-.564-.087-.822-.155-.255-.072-.487-.157-.698-.256v-1.347c.354.155.749.296 1.187.423.437.123.882.185 1.335.185.369 0 .675-.048.917-.143.247-.1.43-.239.549-.418.119-.182.179-.395.179-.637 0-.259-.07-.477-.209-.656-.139-.179-.35-.342-.632-.489-.278-.151-.628-.312-1.049-.482-.286-.116-.56-.247-.822-.394-.259-.147-.489-.32-.692-.518-.202-.199-.363-.433-.482-.704-.116-.274-.173-.596-.173-.965 0-.493.117-.914.351-1.264.239-.349.573-.618 1.002-.804.433-.187.937-.281 1.514-.281.456 0 .886.048 1.287.144.405.095.803.23 1.192.405l-.453 1.15c-.358-.147-.705-.264-1.043-.352-.334-.087-.676-.131-1.025-.131-.302 0-.558.046-.769.137-.211.092-.372.221-.483.388-.107.163-.161.357-.161.584 0 .254.062.469.185.644.127.17.322.327.584.47.266.144.608.302 1.025.477.481.199.888.408 1.222.626.338.219.596.481.775.787.179.302.268.681.268 1.138Zm7.379-.941c0 .548-.072 1.035-.215 1.46-.143.425-.351.785-.626 1.079-.274.29-.604.512-.989.667-.385.151-.82.227-1.305.227-.453 0-.868-.076-1.246-.227-.377-.155-.705-.377-.983-.667-.275-.294-.487-.654-.638-1.079-.151-.425-.227-.912-.227-1.46 0-.728.126-1.343.376-1.848.254-.509.616-.896 1.085-1.162.469-.267 1.027-.4 1.674-.4.608 0 1.145.133 1.61.4.465.266.828.653 1.09 1.162.263.508.394 1.124.394 1.848Zm-4.786 0c0 .48.057.892.173 1.233.119.342.302.604.548.787.246.179.564.268.954.268.389 0 .707-.089.953-.268.247-.183.427-.445.543-.787.115-.341.172-.753.172-1.233 0-.481-.057-.889-.172-1.222-.116-.338-.296-.594-.543-.769-.246-.179-.566-.268-.959-.268-.58 0-1.004.194-1.27.584-.266.389-.399.947-.399 1.675Zm9.739-3.41c.111 0 .232.006.363.018.131.012.245.028.34.048l-.131 1.311c-.084-.024-.187-.042-.31-.054-.119-.011-.227-.017-.322-.017-.25 0-.489.041-.715.125-.227.079-.427.202-.602.369-.175.163-.312.368-.411.614-.1.247-.149.533-.149.858v3.451h-1.407v-6.597h1.097l.19 1.162h.066c.131-.235.294-.449.489-.644.194-.195.417-.35.667-.465.255-.119.533-.179.835-.179Zm4.38 5.71c.183 0 .364-.016.543-.048.179-.035.341-.077.488-.125v1.061c-.154.068-.355.125-.602.173-.246.048-.502.072-.768.072-.374 0-.71-.062-1.008-.185-.298-.127-.534-.344-.709-.65-.175-.306-.262-.729-.262-1.269v-3.547h-.9v-.625l.965-.495.459-1.413h.882v1.467h1.89v1.066h-1.89v3.529c0 .334.084.582.251.745.167.163.387.244.661.244Zm3.773-5.584v6.597h-1.4v-6.597h1.4Zm-.691-2.528c.214 0 .399.058.554.173.159.115.238.314.238.596 0 .278-.079.477-.238.596-.155.116-.34.173-.554.173-.223 0-.411-.057-.566-.173-.151-.119-.227-.318-.227-.596 0-.282.076-.481.227-.596.155-.115.343-.173.566-.173Zm5.328 2.402c.588 0 1.093.122 1.514.364.421.242.745.586.972 1.031.226.445.339.977.339 1.597v.751h-4.404c.016.64.186 1.133.512 1.478.33.346.791.519 1.383.519.421 0 .799-.04 1.132-.119.338-.084.686-.205 1.043-.364v1.139c-.329.155-.665.268-1.007.339-.342.072-.751.108-1.228.108-.647 0-1.217-.126-1.71-.376-.489-.254-.872-.632-1.15-1.132-.275-.501-.412-1.123-.412-1.866 0-.739.125-1.367.376-1.883.25-.517.602-.91 1.055-1.18.453-.271.981-.406 1.585-.406Zm0 1.055c-.441 0-.799.143-1.073.429-.27.286-.429.706-.477 1.258h3.004c-.004-.33-.059-.622-.166-.876-.104-.254-.263-.453-.477-.596-.211-.143-.481-.215-.811-.215Zm7.748-1.055c.112 0 .233.006.364.018.131.012.244.028.34.048l-.132 1.311c-.083-.024-.186-.042-.309-.054-.12-.011-.227-.017-.322-.017-.251 0-.489.041-.716.125-.226.079-.427.202-.601.369-.175.163-.312.368-.412.614-.099.247-.149.533-.149.858v3.451h-1.406v-6.597h1.096l.191 1.162h.066c.131-.235.294-.449.488-.644.195-.195.418-.35.668-.465.254-.119.532-.179.834-.179Zm4.554 0c.588 0 1.093.122 1.514.364.421.242.745.586.971 1.031.227.445.34.977.34 1.597v.751h-4.405c.016.64.187 1.133.513 1.478.33.346.791.519 1.383.519.421 0 .798-.04 1.132-.119.338-.084.686-.205 1.043-.364v1.139c-.33.155-.665.268-1.007.339-.342.072-.751.108-1.228.108-.648 0-1.218-.126-1.71-.376-.489-.254-.873-.632-1.151-1.132-.274-.501-.411-1.123-.411-1.866 0-.739.125-1.367.376-1.883.25-.517.601-.91 1.054-1.18.453-.271.982-.406 1.586-.406Zm0 1.055c-.441 0-.799.143-1.073.429-.27.286-.429.706-.477 1.258h3.004c-.004-.33-.059-.622-.167-.876-.103-.254-.262-.453-.477-.596-.21-.143-.48-.215-.81-.215Zm7.843-1.055c.743 0 1.322.193 1.735.578.417.382.626.996.626 1.842v4.303h-1.401v-4.041c0-.512-.105-.896-.316-1.15-.21-.258-.536-.387-.977-.387-.64 0-1.085.196-1.335.59-.247.393-.37.963-.37 1.71v3.278h-1.401v-6.597h1.091l.197.894h.077c.143-.231.32-.42.531-.567.214-.151.453-.264.715-.339.266-.076.542-.114.828-.114Zm10.931 0c.743 0 1.321.193 1.735.578.417.382.626.996.626 1.842v4.303h-1.401v-4.041c0-.512-.105-.896-.316-1.15-.211-.258-.536-.387-.977-.387-.64 0-1.085.196-1.336.59-.246.393-.369.963-.369 1.71v3.278h-1.401v-6.597h1.091l.197.894h.077c.143-.231.32-.42.531-.567.214-.151.453-.264.715-.339.266-.076.542-.114.828-.114Zm6.908 0c.835 0 1.464.185 1.889.555.43.369.644.945.644 1.728v4.44h-.995l-.268-.935h-.048c-.187.238-.38.435-.578.59-.199.155-.429.27-.692.345-.258.08-.574.12-.947.12-.394 0-.745-.072-1.055-.215-.31-.147-.554-.37-.733-.668-.179-.298-.268-.675-.268-1.132 0-.679.252-1.19.756-1.532.509-.341 1.276-.53 2.301-.566l1.144-.042v-.345c0-.457-.107-.783-.321-.978-.211-.194-.509-.292-.894-.292-.33 0-.65.048-.96.143-.31.096-.612.213-.906.352l-.453-.99c.322-.17.687-.309 1.097-.417.413-.107.842-.161 1.287-.161Zm1.144 3.57-.852.03c-.699.024-1.19.143-1.472.358-.282.214-.423.508-.423.882 0 .326.097.564.292.715.195.147.451.221.769.221.485 0 .886-.137 1.204-.412.322-.278.482-.685.482-1.221v-.573Zm6.008 3.273c-.624 0-1.164-.122-1.621-.364-.457-.242-.808-.614-1.055-1.115-.246-.5-.369-1.136-.369-1.907 0-.802.135-1.458.405-1.967.27-.508.644-.884 1.12-1.126.481-.242 1.032-.364 1.651-.364.394 0 .749.04 1.067.12.322.075.594.168.817.28l-.417 1.12c-.243-.099-.491-.183-.745-.25-.255-.068-.499-.101-.734-.101-.385 0-.707.085-.965.256-.254.171-.445.425-.572.763-.123.337-.185.757-.185 1.257 0 .485.064.894.191 1.228.127.33.316.58.566.751.25.167.558.25.924.25.361 0 .685-.043.971-.131.286-.087.557-.2.811-.339v1.215c-.25.143-.519.249-.805.316-.286.072-.637.108-1.055.108Zm4.81-9.394v2.331c0 .242-.008.479-.024.709-.012.231-.026.409-.041.536h.077c.139-.23.31-.419.513-.566.202-.151.429-.264.679-.339.254-.076.525-.114.811-.114.504 0 .933.086 1.287.257.354.166.624.427.811.78.19.354.286.813.286 1.377v4.303h-1.401v-4.041c0-.512-.105-.896-.316-1.15-.21-.258-.536-.387-.977-.387-.425 0-.763.089-1.013.268-.247.175-.424.435-.531.781-.107.341-.161.759-.161 1.251v3.278h-1.401v-9.274h1.401Z"/>
    <rect width="246.416" height="32.8046" x="107.773" y="269.232" fill="#fff" rx="5.72174"/>
    <path fill="#686868" d="M124.67 282.054c.715 0 1.305.089 1.77.268.469.175.819.443 1.049.805.23.361.346.822.346 1.382 0 .461-.084.847-.251 1.157-.166.306-.385.554-.655.745-.27.19-.558.337-.864.441l2.39 3.916h-1.181l-2.133-3.636h-1.812v3.636h-1.013v-8.714h2.354Zm-.06.876h-1.281v3.344h1.383c.711 0 1.233-.145 1.567-.435.338-.291.507-.718.507-1.282 0-.592-.179-1.011-.537-1.257-.353-.247-.9-.37-1.639-.37Zm7.605 1.186c.557 0 1.034.123 1.431.37.397.246.701.592.912 1.037.21.441.316.957.316 1.549v.614h-4.512c.012.767.202 1.351.572 1.752.37.402.89.602 1.562.602.413 0 .778-.037 1.096-.113.318-.075.648-.187.99-.334v.871c-.33.147-.658.254-.984.321-.322.068-.703.102-1.144.102-.628 0-1.176-.127-1.645-.382-.465-.258-.827-.635-1.085-1.132-.258-.497-.387-1.105-.387-1.824 0-.703.117-1.311.351-1.824.239-.516.572-.914 1.002-1.192.433-.278.941-.417 1.525-.417Zm-.011.811c-.529 0-.95.172-1.264.518-.314.346-.501.829-.56 1.448h3.457c-.004-.389-.066-.731-.185-1.025-.115-.298-.292-.528-.531-.691-.238-.167-.544-.25-.917-.25Zm5.346 5.841h-.996v-9.274h.996v9.274Zm4.607-6.652c.556 0 1.033.123 1.43.37.398.246.702.592.912 1.037.211.441.316.957.316 1.549v.614h-4.512c.012.767.203 1.351.573 1.752.369.402.89.602 1.561.602.413 0 .779-.037 1.097-.113.318-.075.647-.187.989-.334v.871c-.33.147-.657.254-.983.321-.322.068-.704.102-1.145.102-.627 0-1.176-.127-1.645-.382-.465-.258-.826-.635-1.084-1.132-.259-.497-.388-1.105-.388-1.824 0-.703.117-1.311.352-1.824.238-.516.572-.914 1.001-1.192.433-.278.942-.417 1.526-.417Zm-.012.811c-.528 0-.95.172-1.264.518-.313.346-.5.829-.56 1.448h3.457c-.004-.389-.065-.731-.185-1.025-.115-.298-.292-.528-.53-.691-.239-.167-.544-.25-.918-.25Zm5.787 5.841-2.479-6.533h1.061l1.436 3.952c.1.27.201.568.304.894.103.326.175.588.215.787h.041c.048-.199.128-.461.239-.787.111-.33.212-.628.304-.894l1.436-3.952h1.061l-2.485 6.533h-1.133Zm7.111-6.64c.779 0 1.357.175 1.734.524.378.35.566.908.566 1.675v4.441h-.721l-.191-.966h-.047c-.183.238-.374.439-.572.602-.199.159-.43.28-.692.364-.258.079-.576.119-.953.119-.398 0-.751-.07-1.061-.209-.306-.139-.549-.349-.727-.632-.175-.282-.263-.639-.263-1.072 0-.652.259-1.153.775-1.502.517-.35 1.303-.541 2.36-.573l1.127-.047v-.4c0-.564-.121-.959-.364-1.186-.242-.226-.584-.339-1.025-.339-.342 0-.667.049-.977.149-.31.099-.604.216-.882.351l-.304-.751c.294-.151.631-.28 1.013-.387.381-.107.783-.161 1.204-.161Zm1.323 3.421-.995.042c-.815.032-1.389.165-1.723.399-.334.235-.501.566-.501.995 0 .374.114.65.34.829.227.179.527.268.9.268.58 0 1.055-.161 1.425-.483.369-.321.554-.804.554-1.448v-.602Zm6.109-3.433c.775 0 1.361.191 1.758.572.398.378.596.986.596 1.824v4.256h-.977v-4.19c0-.545-.125-.952-.376-1.222-.246-.27-.625-.406-1.138-.406-.723 0-1.232.205-1.526.614-.294.41-.441 1.004-.441 1.782v3.422h-.989v-6.533h.798l.149.942h.054c.139-.23.316-.423.531-.578.214-.159.454-.278.721-.358.266-.083.546-.125.84-.125Zm8.589 6.652h-4.763v-.656l3.583-5.102h-3.356v-.775h4.458v.733l-3.534 5.031h3.612v.769Z"/>
    <path stroke="#686868" stroke-linecap="round" stroke-linejoin="round" stroke-width="1.5258" d="m337.66 283.727-4.451 4.45-4.45-4.45"/>
    <rect width="246.416" height="32.8046" x="107.773" y="269.232" stroke="#DADADA" stroke-width=".762898" rx="5.72174"/>
    <path stroke="#DADADA" stroke-linejoin="round" stroke-width=".762898" d="M107.391 323.779H354.57"/>
  </g>
  <g filter="url(#c)">
    <path fill="#D17A43" d="M30.1109 46.7666c-.769.005-1.5236.2098-2.1897.5942-.6661.3844-1.2209.9353-1.61 1.5986L3.70829 88.1106c-.37978.6684-.57944 1.424-.57944 2.1928 0 .7688.19966 1.5244.57944 2.1928L26.3112 131.639c.3851.666.939 1.22 1.606 1.605.667.385 1.4236.588 2.1937.587h45.2059c.7686-.001 1.5233-.204 2.1887-.589.6653-.385 1.2178-.938 1.6021-1.603l22.6034-39.1428c.379-.6684.579-1.424.579-2.1928 0-.7688-.2-1.5244-.579-2.1928L79.1076 48.9594c-.3884-.662-.9418-1.2121-1.6062-1.5964-.6644-.3843-1.4171-.5898-2.1846-.5964H30.1109Z"/>
  </g>
  <path fill="#fff" d="M41.5998 110.469c-1.254 0-1.881-.646-1.881-1.938v-2.223c0-2.432.931-4.826 2.793-7.1823 1.9-2.356 4.731-4.598 8.493-6.726 2.698-1.52 4.674-2.717 5.928-3.591 1.254-.912 2.166-1.862 2.736-2.85.608-1.026.912-2.28.912-3.762 0-1.938-.684-3.401-2.052-4.389-1.368-1.026-3.287-1.539-5.757-1.539-1.786 0-3.477.228-5.073.6841-1.558.4179-2.907.9499-4.047 1.5959-.38.19-.627.285-.741.285-.228 0-.456-.171-.684-.513l-1.596-2.793c-.19-.304-.285-.57-.285-.798 0-.304.171-.57.513-.798 1.33-.95 3.135-1.691 5.415-2.223 2.28-.57 4.769-.855 7.467-.855 4.218 0 7.619.969 10.203 2.907 2.584 1.9 3.876 4.598 3.876 8.094 0 2.926-.912 5.396-2.736 7.41-1.786 2.014-4.617 4.085-8.493 6.213-2.85 1.482-5.111 3.04-6.783 4.6743-1.672 1.634-2.565 3.23-2.679 4.788h18.468c.76 0 1.292.171 1.596.513.304.304.456.817.456 1.539v1.539c0 .684-.152 1.178-.456 1.482-.304.304-.836.456-1.596.456h-23.997Z"/>
  <defs>
    <filter id="a" width="384" height="339.645" x="31" y="0" color-interpolation-filters="sRGB" filterUnits="userSpaceOnUse">
      <feFlood flood-opacity="0" result="BackgroundImageFix"/>
      <feColorMatrix in="SourceAlpha" result="hardAlpha" values="0 0 0 0 0 0 0 0 0 0 0 0 0 0 0 0 0 0 127 0"/>
      <feOffset dx="2" dy="4"/>
      <feGaussianBlur stdDeviation="1"/>
      <feComposite in2="hardAlpha" operator="out"/>
      <feColorMatrix values="0 0 0 0 0 0 0 0 0 0 0 0 0 0 0 0 0 0 0.7 0"/>
      <feBlend in2="BackgroundImageFix" result="effect1_dropShadow_768_1544"/>
      <feBlend in="SourceGraphic" in2="effect1_dropShadow_768_1544" result="shape"/>
    </filter>
    <filter id="c" width="107.161" height="95.0649" x="1.12885" y="46.7666" color-interpolation-filters="sRGB" filterUnits="userSpaceOnUse">
      <feFlood flood-opacity="0" result="BackgroundImageFix"/>
      <feColorMatrix in="SourceAlpha" result="hardAlpha" values="0 0 0 0 0 0 0 0 0 0 0 0 0 0 0 0 0 0 127 0"/>
      <feOffset dx="2" dy="4"/>
      <feGaussianBlur stdDeviation="2"/>
      <feComposite in2="hardAlpha" operator="out"/>
      <feColorMatrix values="0 0 0 0 0 0 0 0 0 0 0 0 0 0 0 0 0 0 0.25 0"/>
      <feBlend in2="BackgroundImageFix" result="effect1_dropShadow_768_1544"/>
      <feBlend in="SourceGraphic" in2="effect1_dropShadow_768_1544" result="shape"/>
    </filter>
  </defs>
</svg>