<svg xmlns="http://www.w3.org/2000/svg" width="404" height="340" fill="none">
  <g clip-path="url(#a)">
    <g filter="url(#b)" opacity=".2">
      <path fill="#39B5AC" d="M103.899 0a17.01 17.01 0 0 0-14.56 8.403L2.72 158.436a17.011 17.011 0 0 0 0 16.807l86.617 149.999a16.804 16.804 0 0 0 14.561 8.403h173.236a16.804 16.804 0 0 0 14.527-8.403l86.617-149.999a17.006 17.006 0 0 0 0-16.807L291.662 8.403A17.01 17.01 0 0 0 277.135 0H103.899Z"/>
    </g>
    <mask id="c" width="381" height="334" x="0" y="0" maskUnits="userSpaceOnUse" style="mask-type:alpha">
      <path fill="#39B5AC" d="M103.899 0a17.01 17.01 0 0 0-14.56 8.403L2.72 158.436a17.011 17.011 0 0 0 0 16.807l86.617 149.999a16.804 16.804 0 0 0 14.561 8.403h173.236a16.804 16.804 0 0 0 14.527-8.403l86.617-149.999a17.006 17.006 0 0 0 0-16.807L291.662 8.403A17.01 17.01 0 0 0 277.135 0H103.899Z"/>
    </mask>
    <g mask="url(#c)">
      <path fill="#39B5AC" d="M198.893 90.209a6.104 6.104 0 0 1 6.104-6.104h134.277a6.103 6.103 0 0 1 6.103 6.103v28.229H198.893V90.209Z"/>
      <path fill="#fff" d="M254.583 107.271h-1.706v-8.904h-3.029v-1.444h7.757v1.444h-3.022v8.904Zm11.374-3.935c0 .651-.085 1.229-.254 1.734-.17.505-.418.932-.744 1.281a3.274 3.274 0 0 1-1.175.793 4.224 4.224 0 0 1-1.55.269c-.538 0-1.031-.09-1.479-.269a3.381 3.381 0 0 1-1.168-.793 3.634 3.634 0 0 1-.757-1.281c-.18-.505-.269-1.083-.269-1.734 0-.864.148-1.595.446-2.195a3.171 3.171 0 0 1 1.288-1.38c.557-.316 1.22-.474 1.989-.474.722 0 1.359.158 1.911.474a3.27 3.27 0 0 1 1.295 1.38c.312.604.467 1.336.467 2.195Zm-5.683 0c0 .571.068 1.059.205 1.465.142.406.359.717.651.934.293.212.67.319 1.133.319.462 0 .84-.107 1.132-.319.293-.217.507-.528.644-.934s.205-.894.205-1.465c0-.571-.068-1.055-.205-1.451-.137-.401-.351-.706-.644-.913-.292-.213-.672-.319-1.139-.319-.689 0-1.192.231-1.508.694-.316.462-.474 1.125-.474 1.989Zm11.615-4.049c.929 0 1.675.34 2.236 1.019.567.68.85 1.69.85 3.03 0 .887-.132 1.635-.397 2.243-.259.604-.625 1.062-1.097 1.373-.467.307-1.012.461-1.635.461-.396 0-.741-.052-1.033-.156a2.55 2.55 0 0 1-.75-.404 2.828 2.828 0 0 1-.524-.552h-.099c.023.189.045.399.063.63.024.227.036.434.036.623v3.192h-1.671v-11.31h1.359l.234 1.083h.078c.146-.222.323-.427.531-.616.212-.189.467-.338.764-.446.302-.113.654-.17 1.055-.17Zm-.446 1.359c-.458 0-.826.092-1.104.276-.274.179-.475.451-.602.814-.123.363-.189.819-.198 1.366v.234c0 .58.059 1.073.177 1.479.122.401.323.708.601.92.284.208.666.311 1.147.311.406 0 .741-.11 1.005-.332.269-.222.47-.538.602-.949.132-.41.198-.894.198-1.451 0-.844-.151-1.5-.453-1.967-.297-.467-.755-.701-1.373-.701Zm7.12-1.21v7.835H276.9v-7.835h1.663Zm-.821-3.002c.255 0 .475.069.659.206.188.137.283.373.283.708 0 .33-.095.566-.283.707a1.074 1.074 0 0 1-.659.206c-.264 0-.488-.069-.672-.206-.179-.141-.269-.377-.269-.707 0-.335.09-.571.269-.708.184-.137.408-.206.672-.206Zm6.363 10.979c-.74 0-1.382-.144-1.925-.432-.542-.288-.96-.729-1.253-1.324-.292-.594-.438-1.349-.438-2.265 0-.953.16-1.732.481-2.336.321-.604.764-1.049 1.331-1.337.57-.288 1.224-.432 1.96-.432.467 0 .89.047 1.267.141.382.09.706.201.97.333l-.496 1.331a7.113 7.113 0 0 0-.884-.297 3.362 3.362 0 0 0-.871-.121c-.458 0-.84.102-1.147.305-.302.203-.528.505-.679.906-.146.401-.22.899-.22 1.493 0 .576.076 1.062.227 1.458.151.392.375.689.672.892.298.198.663.297 1.097.297.43 0 .814-.052 1.154-.155.34-.104.661-.239.963-.404v1.444c-.298.17-.616.295-.956.375-.34.085-.757.128-1.253.128Zm9.315-2.379c0 .515-.125.949-.375 1.303s-.616.623-1.097.807c-.477.179-1.062.269-1.755.269-.548 0-1.02-.041-1.416-.121a4.788 4.788 0 0 1-1.111-.354v-1.437c.372.175.79.326 1.252.453.468.128.909.192 1.324.192.547 0 .941-.085 1.182-.255a.817.817 0 0 0 .361-.694.73.73 0 0 0-.149-.453c-.094-.137-.273-.276-.537-.417-.26-.147-.642-.321-1.147-.524a9.541 9.541 0 0 1-1.253-.595c-.34-.198-.597-.436-.771-.715-.175-.283-.262-.644-.262-1.083 0-.693.273-1.219.821-1.578.552-.363 1.281-.545 2.187-.545.481 0 .934.05 1.359.149.429.094.849.233 1.26.417l-.524 1.253a7.77 7.77 0 0 0-1.069-.382 3.823 3.823 0 0 0-1.083-.156c-.429 0-.757.066-.984.198a.626.626 0 0 0-.332.567c0 .184.054.339.163.467.108.127.294.254.559.382.269.127.641.285 1.118.474.467.179.871.368 1.21.566.345.194.609.432.793.715.184.283.276.649.276 1.097Z"/>
      <path fill="#B1B1B1" d="M37.15 90.209a6.103 6.103 0 0 1 6.104-6.104h134.277a6.104 6.104 0 0 1 6.104 6.103v28.229H37.151V90.209Z"/>
      <path fill="#fff" d="M91.436 107.271h-1.684V96.923h5.846v1.43h-4.162v3.227h3.893v1.423h-3.893v4.268Zm7.538-7.835v7.835h-1.663v-7.835h1.663Zm-.82-3.002c.254 0 .474.069.658.206.188.137.283.373.283.708 0 .33-.095.566-.283.707a1.073 1.073 0 0 1-.659.206c-.264 0-.488-.069-.672-.206-.18-.141-.269-.377-.269-.707 0-.335.09-.571.269-.708.184-.137.408-.206.672-.206Zm4.876 10.837h-1.67V96.258h1.67v11.013Zm5.295-1.203c.217 0 .431-.019.644-.057.212-.042.405-.092.58-.149v1.26a3.443 3.443 0 0 1-.715.206 4.843 4.843 0 0 1-.913.085c-.443 0-.842-.074-1.196-.22a1.747 1.747 0 0 1-.842-.771c-.208-.364-.312-.866-.312-1.508v-4.211h-1.069v-.744l1.147-.587.545-1.678h1.048v1.742h2.243v1.267h-2.243v4.19c0 .396.099.691.297.885.198.193.46.29.786.29Zm5.938-6.781c.698 0 1.298.144 1.798.432a2.9 2.9 0 0 1 1.154 1.224c.269.529.403 1.161.403 1.897v.892h-5.231c.019.76.222 1.345.609 1.755.392.411.939.616 1.642.616.5 0 .949-.047 1.345-.141.401-.1.814-.243 1.239-.432v1.352a5.428 5.428 0 0 1-1.197.403 7.198 7.198 0 0 1-1.458.128c-.769 0-1.446-.149-2.031-.446a3.266 3.266 0 0 1-1.366-1.345c-.326-.595-.488-1.333-.488-2.216 0-.877.148-1.623.445-2.236.298-.614.715-1.081 1.253-1.402.538-.32 1.166-.481 1.883-.481Zm0 1.253c-.524 0-.948.17-1.274.509-.321.34-.51.838-.566 1.494h3.567a2.759 2.759 0 0 0-.198-1.041 1.51 1.51 0 0 0-.566-.707c-.25-.17-.571-.255-.963-.255Zm9.201-1.253a4.807 4.807 0 0 1 .836.078l-.156 1.557a2.116 2.116 0 0 0-.368-.064 3.928 3.928 0 0 0-.382-.021c-.298 0-.581.05-.85.149a2.002 2.002 0 0 0-1.203 1.168 2.708 2.708 0 0 0-.177 1.019v4.098h-1.67v-7.835h1.302l.227 1.38h.077c.156-.279.35-.533.581-.765.231-.23.495-.415.793-.552.302-.141.632-.212.99-.212Zm7.553 5.747c0 .515-.125.949-.375 1.303-.251.354-.616.623-1.098.807-.476.179-1.061.269-1.755.269a7.238 7.238 0 0 1-1.415-.121 4.796 4.796 0 0 1-1.112-.354v-1.437a7.85 7.85 0 0 0 1.253.453c.467.128.908.192 1.324.192.547 0 .941-.085 1.182-.255a.82.82 0 0 0 .361-.694c0-.17-.05-.321-.149-.453-.094-.137-.274-.276-.538-.417a10.123 10.123 0 0 0-1.147-.524 9.523 9.523 0 0 1-1.252-.595 2.179 2.179 0 0 1-.772-.715c-.174-.283-.262-.644-.262-1.083 0-.693.274-1.219.821-1.578.552-.363 1.281-.545 2.187-.545a6.447 6.447 0 0 1 2.619.566l-.523 1.253a7.817 7.817 0 0 0-1.069-.382 3.823 3.823 0 0 0-1.083-.156c-.43 0-.758.066-.984.198a.625.625 0 0 0-.333.567.7.7 0 0 0 .163.467c.109.127.295.254.559.382.269.127.642.285 1.119.474.467.179.87.368 1.21.566.344.194.609.432.793.715.184.283.276.649.276 1.097Z"/>
      <path fill="#F7F7F7" d="M37.15 118.437h308.228v746.152H37.15z"/>
      <rect width="12.207" height="12.207" x="67.668" y="159.955" fill="#39B5AC" rx="3.052"/>
      <rect width="7.668" height="1.501" x="69.938" y="165.304" fill="#fff" rx=".751"/>
      <path fill="#282828" d="M100.828 172.058h-5.86V161.71h5.86v1.43h-4.162v2.81h3.9v1.422h-3.9v3.249h4.162v1.437Zm4.7.142c-.935 0-1.685-.34-2.251-1.02-.562-.684-.842-1.691-.842-3.022 0-1.345.285-2.362.856-3.051.576-.688 1.333-1.033 2.272-1.033.396 0 .743.054 1.041.163.297.104.552.245.764.425.217.179.401.379.552.601h.078a16.063 16.063 0 0 1-.085-.63 7.75 7.75 0 0 1-.043-.771v-2.817h1.671v11.013h-1.302l-.298-1.069h-.071c-.141.227-.32.432-.537.616a2.533 2.533 0 0 1-.765.432 3 3 0 0 1-1.04.163Zm.467-1.352c.712 0 1.215-.206 1.507-.616.293-.411.444-1.026.453-1.847v-.22c0-.877-.141-1.55-.424-2.017-.283-.472-.8-.708-1.55-.708-.6 0-1.057.243-1.373.729-.312.481-.468 1.154-.468 2.017 0 .864.156 1.525.468 1.982.316.453.778.68 1.387.68Zm12.761-6.625v7.835h-1.309l-.226-1.055h-.092a2.276 2.276 0 0 1-.63.673 2.803 2.803 0 0 1-.85.389c-.311.09-.639.135-.984.135-.589 0-1.094-.099-1.514-.298a2.102 2.102 0 0 1-.956-.934c-.222-.42-.333-.963-.333-1.628v-5.117h1.671v4.806c0 .608.123 1.064.368 1.366.25.302.637.453 1.161.453.505 0 .906-.104 1.203-.312.297-.207.507-.514.63-.92.127-.406.191-.903.191-1.493v-3.9h1.67Zm5.543 7.977c-.741 0-1.383-.144-1.926-.432-.542-.288-.96-.729-1.252-1.324-.293-.594-.439-1.349-.439-2.265 0-.953.16-1.731.481-2.335.321-.604.764-1.05 1.331-1.338.571-.288 1.224-.432 1.96-.432.467 0 .89.047 1.267.142.382.089.706.2.97.332l-.496 1.331a7.113 7.113 0 0 0-.884-.297 3.356 3.356 0 0 0-.871-.121c-.458 0-.84.102-1.147.305-.301.203-.528.505-.679.906-.146.401-.219.899-.219 1.493 0 .576.075 1.062.226 1.458.151.392.375.689.672.892.298.198.663.297 1.098.297.429 0 .814-.052 1.153-.155.34-.104.661-.239.963-.404v1.444c-.297.17-.616.295-.956.375-.339.085-.757.128-1.252.128Zm7.12-8.126c.991 0 1.739.22 2.244.658.509.439.764 1.123.764 2.053v5.273h-1.182l-.318-1.111h-.057a4.056 4.056 0 0 1-.687.701 2.39 2.39 0 0 1-.821.41c-.306.094-.681.142-1.125.142-.467 0-.885-.085-1.253-.255a1.99 1.99 0 0 1-.87-.793c-.213-.354-.319-.802-.319-1.345 0-.807.3-1.413.899-1.819.604-.406 1.515-.63 2.732-.672l1.359-.05v-.41c0-.543-.127-.93-.382-1.161-.25-.231-.604-.347-1.062-.347a3.86 3.86 0 0 0-1.139.17 7.902 7.902 0 0 0-1.076.418l-.538-1.175a6.053 6.053 0 0 1 1.302-.496 6.084 6.084 0 0 1 1.529-.191Zm1.359 4.24-1.012.035c-.831.029-1.413.17-1.748.425-.335.255-.503.604-.503 1.047 0 .387.116.671.347.85.231.174.535.262.913.262.576 0 1.052-.163 1.43-.489.382-.33.573-.814.573-1.451v-.679Zm6.894 2.541c.217 0 .432-.019.644-.057.212-.042.406-.092.581-.148v1.259a3.461 3.461 0 0 1-.715.206 4.851 4.851 0 0 1-.913.085c-.444 0-.843-.073-1.197-.22a1.755 1.755 0 0 1-.842-.771c-.207-.364-.311-.866-.311-1.508v-4.211h-1.069v-.743l1.147-.588.545-1.677h1.047v1.741h2.244v1.267h-2.244v4.19c0 .396.099.691.297.885.199.193.46.29.786.29Zm4.48-6.632v7.835h-1.663v-7.835h1.663Zm-.821-3.001c.255 0 .475.068.659.205.188.137.283.373.283.708 0 .33-.095.566-.283.708a1.08 1.08 0 0 1-.659.205 1.1 1.1 0 0 1-.672-.205c-.179-.142-.269-.378-.269-.708 0-.335.09-.571.269-.708.184-.137.408-.205.672-.205Zm10.143 6.901c0 .651-.085 1.229-.255 1.734a3.452 3.452 0 0 1-.743 1.281 3.274 3.274 0 0 1-1.175.793 4.224 4.224 0 0 1-1.55.269c-.538 0-1.031-.09-1.479-.269a3.381 3.381 0 0 1-1.168-.793 3.62 3.62 0 0 1-.757-1.281c-.18-.505-.269-1.083-.269-1.734 0-.864.148-1.595.446-2.194a3.176 3.176 0 0 1 1.288-1.381c.557-.316 1.22-.474 1.989-.474.722 0 1.359.158 1.911.474.552.316.984.777 1.295 1.381.311.604.467 1.335.467 2.194Zm-5.683 0c0 .571.068 1.059.205 1.465.141.406.358.717.651.934.293.213.67.319 1.132.319.463 0 .84-.106 1.133-.319.293-.217.507-.528.644-.934s.205-.894.205-1.465c0-.571-.068-1.055-.205-1.451-.137-.401-.351-.706-.644-.913-.293-.213-.672-.319-1.14-.319-.689 0-1.191.231-1.507.694-.316.462-.474 1.125-.474 1.989Zm11.678-4.049c.883 0 1.569.229 2.06.687.495.453.743 1.182.743 2.187v5.11h-1.663v-4.799c0-.609-.125-1.064-.375-1.366-.25-.307-.637-.46-1.161-.46-.76 0-1.288.234-1.586.701-.292.467-.438 1.144-.438 2.031v3.893h-1.664v-7.835h1.296l.233 1.061h.092c.17-.273.38-.497.63-.672.255-.179.538-.314.849-.403.317-.09.645-.135.984-.135Zm8.204 0c.991 0 1.739.22 2.243.658.51.439.765 1.123.765 2.053v5.273h-1.182l-.319-1.111h-.056a4.056 4.056 0 0 1-.687.701c-.236.184-.509.32-.821.41-.307.094-.682.142-1.125.142-.467 0-.885-.085-1.253-.255a1.998 1.998 0 0 1-.871-.793c-.212-.354-.318-.802-.318-1.345 0-.807.299-1.413.899-1.819.604-.406 1.514-.63 2.732-.672l1.359-.05v-.41c0-.543-.128-.93-.382-1.161-.251-.231-.604-.347-1.062-.347-.392 0-.772.057-1.14.17a7.953 7.953 0 0 0-1.076.418l-.537-1.175a6.053 6.053 0 0 1 1.302-.496c.491-.127 1-.191 1.529-.191Zm1.359 4.24-1.012.035c-.831.029-1.414.17-1.749.425-.335.255-.502.604-.502 1.047 0 .387.115.671.347.85.231.174.535.262.913.262.575 0 1.052-.163 1.429-.489.383-.33.574-.814.574-1.451v-.679Zm5.648 3.744h-1.67v-11.013h1.67v11.013Zm9.216-7.984c.99 0 1.738.22 2.243.658.51.439.765 1.123.765 2.053v5.273h-1.182l-.319-1.111h-.056a4.056 4.056 0 0 1-.687.701c-.236.184-.51.32-.821.41-.307.094-.682.142-1.125.142-.468 0-.885-.085-1.253-.255a1.993 1.993 0 0 1-.871-.793c-.212-.354-.318-.802-.318-1.345 0-.807.299-1.413.899-1.819.604-.406 1.514-.63 2.732-.672l1.359-.05v-.41c0-.543-.128-.93-.383-1.161-.25-.231-.604-.347-1.061-.347-.392 0-.772.057-1.14.17a7.902 7.902 0 0 0-1.076.418l-.538-1.175a6.082 6.082 0 0 1 1.303-.496c.49-.127 1-.191 1.529-.191Zm1.359 4.24-1.013.035c-.83.029-1.413.17-1.748.425-.335.255-.502.604-.502 1.047 0 .387.115.671.346.85.232.174.536.262.913.262.576 0 1.053-.163 1.43-.489.382-.33.574-.814.574-1.451v-.679Zm7.948-4.24a4.858 4.858 0 0 1 .835.078l-.155 1.557a2.216 2.216 0 0 0-.368-.064 3.93 3.93 0 0 0-.383-.021c-.297 0-.58.05-.849.149a2.002 2.002 0 0 0-1.203 1.168 2.708 2.708 0 0 0-.177 1.019v4.098h-1.671v-7.835h1.303l.226 1.38h.078a3.47 3.47 0 0 1 .581-.764 2.71 2.71 0 0 1 .792-.553c.302-.141.633-.212.991-.212Zm5.408 0c.698 0 1.297.144 1.798.432.5.288.884.696 1.153 1.224.269.529.404 1.161.404 1.897v.892h-5.231c.019.76.222 1.345.609 1.755.391.411.939.616 1.642.616.5 0 .948-.047 1.345-.141a7.413 7.413 0 0 0 1.238-.432v1.352c-.391.184-.79.318-1.196.403a7.212 7.212 0 0 1-1.458.128c-.769 0-1.446-.149-2.031-.446a3.26 3.26 0 0 1-1.366-1.345c-.326-.595-.489-1.333-.489-2.215 0-.878.149-1.624.446-2.237.297-.614.715-1.081 1.253-1.402.538-.32 1.166-.481 1.883-.481Zm0 1.253c-.524 0-.949.17-1.274.51-.321.339-.51.837-.566 1.493h3.567a2.753 2.753 0 0 0-.198-1.04 1.512 1.512 0 0 0-.567-.708c-.25-.17-.571-.255-.962-.255Zm8.302-1.253c.991 0 1.739.22 2.244.658.51.439.764 1.123.764 2.053v5.273h-1.182l-.318-1.111h-.057c-.221.283-.45.517-.686.701-.236.184-.51.32-.821.41-.307.094-.682.142-1.126.142a2.96 2.96 0 0 1-1.253-.255 1.99 1.99 0 0 1-.87-.793c-.212-.354-.319-.802-.319-1.345 0-.807.3-1.413.899-1.819.604-.406 1.515-.63 2.732-.672l1.359-.05v-.41c0-.543-.127-.93-.382-1.161-.25-.231-.604-.347-1.062-.347a3.86 3.86 0 0 0-1.139.17 7.902 7.902 0 0 0-1.076.418l-.538-1.175a6.053 6.053 0 0 1 1.302-.496 6.084 6.084 0 0 1 1.529-.191Zm1.359 4.24-1.012.035c-.83.029-1.413.17-1.748.425-.335.255-.503.604-.503 1.047 0 .387.116.671.347.85.231.174.536.262.913.262.576 0 1.052-.163 1.43-.489.382-.33.573-.814.573-1.451v-.679Zm9.244 1.507c0 .515-.125.949-.375 1.303s-.616.623-1.097.807c-.477.179-1.062.269-1.755.269-.548 0-1.02-.04-1.416-.121a4.788 4.788 0 0 1-1.111-.354v-1.436c.373.174.79.325 1.253.453a5.05 5.05 0 0 0 1.323.191c.548 0 .942-.085 1.182-.255a.817.817 0 0 0 .361-.694.735.735 0 0 0-.148-.453c-.095-.137-.274-.276-.538-.417-.26-.147-.642-.321-1.147-.524a9.475 9.475 0 0 1-1.253-.595c-.34-.198-.597-.436-.771-.715-.175-.283-.262-.644-.262-1.083 0-.693.273-1.219.821-1.578.552-.363 1.281-.545 2.187-.545a6.462 6.462 0 0 1 2.619.566l-.524 1.253a7.77 7.77 0 0 0-1.069-.382 3.823 3.823 0 0 0-1.083-.156c-.429 0-.757.066-.984.198a.627.627 0 0 0-.332.567c0 .184.054.339.163.467.108.127.295.255.559.382.269.127.641.285 1.118.474.467.18.871.368 1.21.566.345.194.609.432.793.715.184.283.276.649.276 1.097Z"/>
      <path stroke="#282828" stroke-linecap="round" stroke-linejoin="round" stroke-width="1.526" d="m235.838 168.156 4.895-4.895 4.896 4.895"/>
      <rect width="12.207" height="12.207" x="85.216" y="201.317" fill="#39B5AC" rx="3.052"/>
      <path fill="#fff" d="M90.213 209.772a.355.355 0 0 0 .496 0l3.943-3.942a.357.357 0 0 0 0-.497l-.483-.482a.338.338 0 0 0-.483 0l-3.218 3.218-1.516-1.502a.34.34 0 0 0-.482 0l-.483.483a.356.356 0 0 0 0 .496l2.226 2.226Z"/>
      <path fill="#282828" d="M107.776 212.42v-8.714h1.014v7.797h3.844v.917h-4.858Zm10.21 0-.196-.929h-.048c-.326.409-.652.687-.977.834-.322.143-.726.215-1.21.215-.648 0-1.157-.167-1.526-.501-.366-.334-.549-.809-.549-1.425 0-1.319 1.055-2.01 3.165-2.074l1.109-.036v-.405c0-.513-.111-.89-.334-1.132-.218-.247-.57-.37-1.055-.37-.544 0-1.16.167-1.848.501l-.303-.757a4.66 4.66 0 0 1 1.055-.412c.385-.099.77-.149 1.156-.149.779 0 1.355.173 1.728.519.378.346.567.9.567 1.663v4.458h-.734Zm-2.235-.697c.616 0 1.099-.169 1.449-.507.353-.337.53-.81.53-1.418v-.59l-.989.041c-.787.028-1.355.151-1.705.37-.346.215-.519.55-.519 1.007 0 .358.108.63.322.817.219.187.523.28.912.28Zm9.483.697v-4.226c0-.532-.121-.929-.363-1.192-.243-.262-.622-.393-1.139-.393-.683 0-1.184.185-1.502.554-.318.37-.477.98-.477 1.83v3.427h-.989v-6.532h.805l.161.894h.047c.203-.322.487-.57.853-.745a2.74 2.74 0 0 1 1.222-.268c.786 0 1.378.19 1.776.572.397.377.596.983.596 1.818v4.261h-.99Zm8.375-6.532v.626l-1.21.143c.111.139.21.322.298.548.087.223.131.475.131.757 0 .64-.219 1.15-.656 1.532-.437.381-1.037.572-1.8.572a2.98 2.98 0 0 1-.548-.048c-.421.223-.632.503-.632.841 0 .179.074.312.221.399.147.084.399.125.757.125h1.156c.707 0 1.25.149 1.627.447.382.298.572.731.572 1.3 0 .723-.29 1.273-.87 1.651-.58.381-1.426.572-2.539.572-.854 0-1.514-.159-1.979-.477-.461-.318-.691-.767-.691-1.347 0-.397.127-.741.381-1.031.254-.29.612-.487 1.073-.59a1.058 1.058 0 0 1-.423-.352.945.945 0 0 1-.167-.554c0-.239.064-.447.191-.626s.328-.352.602-.519a1.78 1.78 0 0 1-.829-.709 2.104 2.104 0 0 1-.316-1.144c0-.716.215-1.266.644-1.651.429-.39 1.037-.584 1.824-.584.342 0 .65.039.924.119h2.259Zm-5.21 7.629c0 .354.149.622.447.805.298.183.726.274 1.282.274.83 0 1.444-.125 1.842-.376.401-.246.602-.582.602-1.007 0-.354-.11-.6-.328-.739-.219-.135-.63-.203-1.234-.203h-1.186c-.449 0-.799.108-1.049.322-.25.215-.376.523-.376.924Zm.537-5.537c0 .457.129.803.387 1.037.259.234.618.352 1.079.352.966 0 1.448-.469 1.448-1.407 0-.981-.488-1.472-1.466-1.472-.465 0-.822.125-1.073.375-.25.251-.375.622-.375 1.115Zm6.944-2.092v4.238c0 .532.121.929.363 1.192.243.262.622.393 1.139.393.683 0 1.182-.187 1.496-.56.318-.374.477-.984.477-1.83v-3.433h.989v6.532h-.816l-.144-.876h-.053a1.97 1.97 0 0 1-.847.739 2.807 2.807 0 0 1-1.227.257c-.795 0-1.391-.189-1.789-.567-.393-.377-.59-.981-.59-1.812v-4.273h1.002Zm10.585 6.532-.196-.929h-.048c-.326.409-.652.687-.977.834-.322.143-.726.215-1.21.215-.648 0-1.157-.167-1.526-.501-.366-.334-.549-.809-.549-1.425 0-1.319 1.055-2.01 3.165-2.074l1.109-.036v-.405c0-.513-.111-.89-.334-1.132-.218-.247-.57-.37-1.055-.37-.544 0-1.16.167-1.847.501l-.304-.757a4.66 4.66 0 0 1 1.055-.412c.385-.099.77-.149 1.156-.149.779 0 1.355.173 1.728.519.378.346.567.9.567 1.663v4.458h-.734Zm-2.235-.697c.616 0 1.099-.169 1.449-.507.353-.337.53-.81.53-1.418v-.59l-.989.041c-.787.028-1.355.151-1.705.37-.346.215-.518.55-.518 1.007 0 .358.107.63.321.817.219.187.523.28.912.28Zm10.36-5.835v.626l-1.21.143c.111.139.21.322.298.548.087.223.131.475.131.757 0 .64-.219 1.15-.656 1.532-.437.381-1.037.572-1.8.572-.195 0-.377-.016-.548-.048-.422.223-.632.503-.632.841 0 .179.073.312.22.399.147.084.4.125.757.125h1.157c.707 0 1.249.149 1.627.447.381.298.572.731.572 1.3 0 .723-.29 1.273-.87 1.651-.58.381-1.427.572-2.539.572-.855 0-1.514-.159-1.979-.477-.461-.318-.692-.767-.692-1.347 0-.397.128-.741.382-1.031.254-.29.612-.487 1.073-.59a1.058 1.058 0 0 1-.423-.352.938.938 0 0 1-.167-.554c0-.239.063-.447.19-.626.128-.179.328-.352.602-.519a1.783 1.783 0 0 1-.828-.709 2.095 2.095 0 0 1-.316-1.144c0-.716.215-1.266.644-1.651.429-.39 1.037-.584 1.824-.584.341 0 .649.039.924.119h2.259Zm-5.21 7.629c0 .354.149.622.447.805.298.183.725.274 1.282.274.83 0 1.444-.125 1.841-.376.402-.246.602-.582.602-1.007 0-.354-.109-.6-.327-.739-.219-.135-.63-.203-1.234-.203h-1.186c-.449 0-.799.108-1.049.322-.251.215-.376.523-.376.924Zm.537-5.537c0 .457.129.803.387 1.037.258.234.618.352 1.079.352.965 0 1.448-.469 1.448-1.407 0-.981-.489-1.472-1.466-1.472-.465 0-.823.125-1.073.375-.25.251-.375.622-.375 1.115Zm8.773 4.56c-.965 0-1.728-.294-2.288-.883-.557-.588-.835-1.404-.835-2.449 0-1.053.258-1.89.775-2.51.52-.62 1.218-.929 2.092-.929.819 0 1.466.27 1.943.81.477.537.715 1.246.715 2.128v.626h-4.5c.02.767.213 1.349.578 1.746.37.398.889.596 1.556.596.703 0 1.399-.147 2.086-.441v.882a5.002 5.002 0 0 1-.995.322c-.31.068-.686.102-1.127.102Zm-.268-5.943c-.524 0-.944.171-1.258.513-.309.341-.492.814-.548 1.418h3.415c0-.624-.139-1.1-.417-1.43-.278-.334-.675-.501-1.192-.501Zm10.294 5.943c-.966 0-1.729-.294-2.289-.883-.556-.588-.834-1.404-.834-2.449 0-1.053.258-1.89.774-2.51.521-.62 1.218-.929 2.093-.929.818 0 1.466.27 1.943.81.476.537.715 1.246.715 2.128v.626h-4.5c.02.767.212 1.349.578 1.746.369.398.888.596 1.556.596.703 0 1.398-.147 2.086-.441v.882a5.03 5.03 0 0 1-.996.322c-.31.068-.685.102-1.126.102Zm-.268-5.943c-.525 0-.944.171-1.258.513-.31.341-.493.814-.548 1.418h3.415c0-.624-.139-1.1-.417-1.43-.278-.334-.676-.501-1.192-.501Zm8.809 4.947h-.054c-.456.664-1.14.996-2.05.996-.854 0-1.52-.292-1.997-.877-.473-.584-.709-1.414-.709-2.491 0-1.077.238-1.913.715-2.509.477-.596 1.141-.894 1.991-.894.886 0 1.566.321 2.039.965h.077l-.042-.471-.024-.459v-2.658h.99v9.274h-.805l-.131-.876Zm-1.979.167c.676 0 1.165-.183 1.467-.548.306-.37.458-.964.458-1.782v-.209c0-.926-.154-1.586-.464-1.979-.306-.397-.797-.596-1.473-.596-.58 0-1.025.227-1.335.68-.306.449-.459 1.084-.459 1.907 0 .834.153 1.464.459 1.889.306.426.755.638 1.347.638Zm5.949-5.823v4.238c0 .532.121.929.363 1.192.243.262.622.393 1.139.393.683 0 1.182-.187 1.496-.56.318-.374.477-.984.477-1.83v-3.433h.989v6.532h-.816l-.143-.876h-.054a1.973 1.973 0 0 1-.846.739 2.815 2.815 0 0 1-1.228.257c-.795 0-1.391-.189-1.788-.567-.394-.377-.591-.981-.591-1.812v-4.273h1.002Zm9.179 6.652c-.946 0-1.679-.29-2.2-.871-.516-.584-.774-1.408-.774-2.473 0-1.093.262-1.937.786-2.533.529-.596 1.28-.894 2.253-.894.314 0 .628.033.942.101.314.067.56.147.739.238l-.304.841a4.411 4.411 0 0 0-.715-.215 3.125 3.125 0 0 0-.685-.089c-1.328 0-1.991.846-1.991 2.539 0 .803.161 1.418.483 1.848.325.429.806.643 1.442.643a4.41 4.41 0 0 0 1.675-.351v.876c-.437.226-.988.34-1.651.34Zm7.224-.12-.197-.929h-.047c-.326.409-.652.687-.978.834-.322.143-.725.215-1.21.215-.648 0-1.156-.167-1.526-.501-.365-.334-.548-.809-.548-1.425 0-1.319 1.055-2.01 3.165-2.074l1.108-.036v-.405c0-.513-.111-.89-.333-1.132-.219-.247-.571-.37-1.055-.37-.545 0-1.161.167-1.848.501l-.304-.757a4.698 4.698 0 0 1 2.211-.561c.779 0 1.355.173 1.729.519.377.346.566.9.566 1.663v4.458h-.733Zm-2.235-.697c.616 0 1.098-.169 1.448-.507.354-.337.531-.81.531-1.418v-.59l-.99.041c-.787.028-1.355.151-1.704.37-.346.215-.519.55-.519 1.007 0 .358.107.63.322.817.218.187.522.28.912.28Zm7.123 0c.174 0 .343-.012.506-.036a3.69 3.69 0 0 0 .388-.083v.757a1.804 1.804 0 0 1-.477.125 3.304 3.304 0 0 1-.561.054c-1.263 0-1.895-.666-1.895-1.997v-3.886h-.936v-.477l.936-.411.417-1.395h.572v1.514h1.896v.769h-1.896v3.844c0 .394.094.696.281.906.186.211.443.316.769.316Zm3.194.697h-.989v-6.532h.989v6.532Zm-1.073-8.302c0-.227.056-.392.167-.495a.581.581 0 0 1 .418-.161c.158 0 .296.054.411.161.115.107.173.272.173.495 0 .222-.058.389-.173.5a.585.585 0 0 1-.411.161.581.581 0 0 1-.418-.161c-.111-.111-.167-.278-.167-.5Zm8.81 5.03c0 1.065-.268 1.898-.805 2.498-.536.596-1.277.894-2.223.894-.584 0-1.103-.137-1.556-.412a2.714 2.714 0 0 1-1.049-1.18c-.246-.512-.369-1.112-.369-1.8 0-1.065.266-1.893.798-2.485.533-.596 1.272-.894 2.218-.894.914 0 1.639.304 2.175.912.541.607.811 1.43.811 2.467Zm-4.977 0c0 .835.167 1.47.501 1.907.333.438.824.656 1.472.656s1.138-.216 1.472-.65c.338-.437.507-1.074.507-1.913 0-.83-.169-1.46-.507-1.889-.334-.433-.828-.65-1.484-.65-.648 0-1.136.213-1.466.638-.33.425-.495 1.059-.495 1.901Zm11.188 3.272v-4.226c0-.532-.121-.929-.364-1.192-.242-.262-.622-.393-1.138-.393-.684 0-1.184.185-1.502.554-.318.37-.477.98-.477 1.83v3.427h-.99v-6.532h.805l.161.894h.048c.202-.322.486-.57.852-.745a2.743 2.743 0 0 1 1.222-.268c.787 0 1.379.19 1.776.572.397.377.596.983.596 1.818v4.261h-.989Zm9.507-8.714-3.249 8.714h-.989l3.248-8.714h.99Zm12.672 8.714v-4.249c0-.521-.112-.91-.334-1.169-.223-.262-.568-.393-1.037-.393-.616 0-1.071.177-1.365.53-.294.354-.441.898-.441 1.634v3.647h-.99v-4.249c0-.521-.111-.91-.334-1.169-.222-.262-.57-.393-1.043-.393-.62 0-1.075.187-1.365.56-.286.37-.429.978-.429 1.824v3.427h-.989v-6.532h.804l.161.894h.048a1.95 1.95 0 0 1 .787-.745 2.428 2.428 0 0 1 1.144-.268c1.021 0 1.689.369 2.003 1.108h.048c.194-.342.476-.612.846-.81.37-.199.791-.298 1.264-.298.739 0 1.291.19 1.657.572.369.377.554.983.554 1.818v4.261h-.989Zm3.963-6.532v4.238c0 .532.121.929.364 1.192.242.262.622.393 1.138.393.684 0 1.182-.187 1.496-.56.318-.374.477-.984.477-1.83v-3.433h.99v6.532h-.817l-.143-.876h-.054a1.961 1.961 0 0 1-.846.739 2.815 2.815 0 0 1-1.228.257c-.795 0-1.391-.189-1.788-.567-.393-.377-.59-.981-.59-1.812v-4.273h1.001Zm7.558 6.532h-.989v-9.274h.989v9.274Zm4.208-.697c.175 0 .344-.012.507-.036.163-.028.292-.055.387-.083v.757a1.782 1.782 0 0 1-.477.125 3.283 3.283 0 0 1-.56.054c-1.263 0-1.895-.666-1.895-1.997v-3.886h-.936v-.477l.936-.411.417-1.395h.572v1.514h1.896v.769h-1.896v3.844c0 .394.094.696.28.906.187.211.443.316.769.316Zm3.195.697h-.989v-6.532h.989v6.532Zm-1.073-8.302c0-.227.056-.392.167-.495a.577.577 0 0 1 .417-.161c.159 0 .296.054.411.161.116.107.173.272.173.495 0 .222-.057.389-.173.5a.583.583 0 0 1-.411.161.577.577 0 0 1-.417-.161c-.111-.111-.167-.278-.167-.5Zm4.16 8.302h-.989v-9.274h.989v9.274Zm3.088 0h-.989v-6.532h.989v6.532Zm-1.073-8.302c0-.227.056-.392.167-.495a.577.577 0 0 1 .417-.161c.159 0 .296.054.411.161.116.107.173.272.173.495 0 .222-.057.389-.173.5a.583.583 0 0 1-.411.161.577.577 0 0 1-.417-.161c-.111-.111-.167-.278-.167-.5Zm7.641 8.302v-4.226c0-.532-.121-.929-.363-1.192-.243-.262-.622-.393-1.139-.393-.683 0-1.184.185-1.502.554-.318.37-.477.98-.477 1.83v3.427h-.989v-6.532h.805l.161.894h.047c.203-.322.487-.57.853-.745a2.74 2.74 0 0 1 1.222-.268c.786 0 1.378.19 1.776.572.397.377.596.983.596 1.818v4.261h-.99Zm8.375-6.532v.626l-1.21.143c.111.139.21.322.298.548.087.223.131.475.131.757 0 .64-.219 1.15-.656 1.532-.437.381-1.037.572-1.8.572a2.98 2.98 0 0 1-.548-.048c-.421.223-.632.503-.632.841 0 .179.074.312.221.399.147.084.399.125.757.125h1.156c.707 0 1.25.149 1.627.447.382.298.572.731.572 1.3 0 .723-.29 1.273-.87 1.651-.58.381-1.426.572-2.539.572-.854 0-1.514-.159-1.979-.477-.461-.318-.691-.767-.691-1.347 0-.397.127-.741.381-1.031.254-.29.612-.487 1.073-.59a1.058 1.058 0 0 1-.423-.352.945.945 0 0 1-.167-.554c0-.239.064-.447.191-.626s.328-.352.602-.519a1.78 1.78 0 0 1-.829-.709 2.104 2.104 0 0 1-.316-1.144c0-.716.215-1.266.644-1.651.429-.39 1.037-.584 1.824-.584.342 0 .65.039.924.119h2.259Zm-5.21 7.629c0 .354.149.622.447.805.298.183.726.274 1.282.274.83 0 1.444-.125 1.842-.376.401-.246.602-.582.602-1.007 0-.354-.11-.6-.328-.739-.219-.135-.63-.203-1.234-.203h-1.186c-.449 0-.799.108-1.049.322-.25.215-.376.523-.376.924Zm.537-5.537c0 .457.129.803.387 1.037.259.234.618.352 1.079.352.966 0 1.448-.469 1.448-1.407 0-.981-.488-1.472-1.466-1.472-.465 0-.822.125-1.073.375-.25.251-.375.622-.375 1.115Zm6.944-2.092v4.238c0 .532.121.929.363 1.192.243.262.622.393 1.139.393.683 0 1.182-.187 1.496-.56.318-.374.477-.984.477-1.83v-3.433h.989v6.532h-.816l-.144-.876h-.053a1.97 1.97 0 0 1-.847.739 2.807 2.807 0 0 1-1.227.257c-.795 0-1.391-.189-1.789-.567-.393-.377-.59-.981-.59-1.812v-4.273h1.002Zm10.585 6.532-.196-.929h-.048c-.326.409-.652.687-.977.834-.322.143-.726.215-1.21.215-.648 0-1.157-.167-1.526-.501-.366-.334-.549-.809-.549-1.425 0-1.319 1.055-2.01 3.165-2.074l1.109-.036v-.405c0-.513-.111-.89-.334-1.132-.218-.247-.57-.37-1.055-.37-.544 0-1.16.167-1.847.501l-.304-.757a4.66 4.66 0 0 1 1.055-.412c.385-.099.77-.149 1.156-.149.779 0 1.355.173 1.728.519.378.346.567.9.567 1.663v4.458h-.734Zm-2.235-.697c.616 0 1.099-.169 1.449-.507.353-.337.53-.81.53-1.418v-.59l-.989.041c-.787.028-1.355.151-1.705.37-.346.215-.518.55-.518 1.007 0 .358.107.63.321.817.219.187.523.28.912.28Zm6.002.697h-.989v-9.274h.989v9.274Zm3.088 0h-.989v-6.532h.989v6.532Zm-1.073-8.302c0-.227.056-.392.167-.495a.577.577 0 0 1 .417-.161c.159 0 .296.054.412.161.115.107.172.272.172.495 0 .222-.057.389-.172.5a.587.587 0 0 1-.412.161.577.577 0 0 1-.417-.161c-.111-.111-.167-.278-.167-.5Zm7.385 6.52c0 .608-.226 1.077-.679 1.407-.453.33-1.089.495-1.908.495-.866 0-1.541-.137-2.026-.412v-.918c.314.159.649.285 1.007.376.362.091.709.137 1.043.137.517 0 .914-.081 1.192-.244.278-.167.417-.42.417-.757 0-.255-.111-.471-.333-.65-.219-.183-.648-.397-1.288-.644-.608-.226-1.041-.423-1.299-.59a1.836 1.836 0 0 1-.572-.578 1.513 1.513 0 0 1-.185-.769c0-.532.216-.952.65-1.258.433-.309 1.027-.464 1.782-.464.703 0 1.39.143 2.062.429l-.352.804c-.655-.27-1.249-.405-1.782-.405-.469 0-.822.074-1.061.221-.238.147-.357.349-.357.608 0 .174.043.323.131.447.091.123.236.24.435.351.199.112.58.272 1.144.483.775.282 1.298.566 1.568.852.274.286.411.646.411 1.079Zm9.942 1.782v-4.249c0-.521-.111-.91-.334-1.169-.222-.262-.568-.393-1.037-.393-.616 0-1.071.177-1.365.53-.294.354-.441.898-.441 1.634v3.647h-.989v-4.249c0-.521-.111-.91-.334-1.169-.223-.262-.57-.393-1.043-.393-.62 0-1.075.187-1.365.56-.286.37-.429.978-.429 1.824v3.427h-.99v-6.532h.805l.161.894h.048c.186-.318.449-.566.786-.745a2.432 2.432 0 0 1 1.145-.268c1.021 0 1.689.369 2.003 1.108h.047c.195-.342.477-.612.847-.81.369-.199.79-.298 1.263-.298.739 0 1.292.19 1.657.572.37.377.555.983.555 1.818v4.261h-.99Z"/>
      <rect width="12.207" height="12.207" x="85.216" y="233.05" fill="#39B5AC" rx="3.052"/>
      <path fill="#fff" d="M90.213 241.505a.356.356 0 0 0 .496 0l3.943-3.943a.356.356 0 0 0 0-.496l-.483-.483a.34.34 0 0 0-.483 0l-3.218 3.219-1.516-1.502a.34.34 0 0 0-.482 0l-.483.483a.356.356 0 0 0 0 .496l2.226 2.226Z"/>
      <path fill="#282828" d="m111.633 244.153-2.957-7.724h-.047c.055.612.083 1.339.083 2.181v5.543h-.936v-8.714h1.526l2.76 7.188h.047l2.784-7.188h1.514v8.714h-1.013v-5.614c0-.644.027-1.344.083-2.098h-.048l-2.98 7.712h-.816Zm12.66-3.272c0 1.065-.269 1.897-.805 2.497-.537.597-1.278.895-2.223.895a2.948 2.948 0 0 1-1.556-.412 2.708 2.708 0 0 1-1.049-1.18c-.246-.513-.37-1.113-.37-1.8 0-1.065.267-1.893.799-2.485.533-.597 1.272-.895 2.217-.895.914 0 1.64.304 2.176.912.54.608.811 1.431.811 2.468Zm-4.977 0c0 .834.167 1.47.5 1.907.334.437.825.656 1.473.656.647 0 1.138-.217 1.472-.65.338-.437.506-1.075.506-1.913 0-.83-.168-1.46-.506-1.889-.334-.434-.829-.65-1.484-.65-.648 0-1.137.212-1.467.638-.329.425-.494 1.059-.494 1.901Zm8.148 3.272-2.48-6.532h1.061l1.407 3.874c.318.906.504 1.494.56 1.764h.048c.043-.21.18-.645.411-1.305.234-.664.757-2.108 1.567-4.333h1.061l-2.479 6.532h-1.156Zm7.444.12c-.965 0-1.728-.295-2.289-.883-.556-.588-.834-1.404-.834-2.449 0-1.053.258-1.89.775-2.51.52-.62 1.218-.93 2.092-.93.818 0 1.466.271 1.943.811.477.537.715 1.246.715 2.128v.626h-4.5c.02.767.213 1.349.578 1.746.37.398.888.596 1.556.596.703 0 1.399-.147 2.086-.441v.882c-.35.151-.681.259-.995.322-.31.068-.686.102-1.127.102Zm-.268-5.943c-.525 0-.944.171-1.258.513-.31.341-.492.814-.548 1.418h3.415c0-.624-.139-1.101-.417-1.43-.278-.334-.675-.501-1.192-.501Zm12.69 5.823v-4.249c0-.521-.112-.91-.334-1.169-.223-.262-.568-.393-1.037-.393-.616 0-1.071.177-1.365.53-.294.354-.441.898-.441 1.634v3.647h-.99v-4.249c0-.521-.111-.91-.333-1.169-.223-.262-.571-.393-1.043-.393-.62 0-1.075.187-1.365.56-.287.37-.43.978-.43 1.824v3.427h-.989v-6.532h.805l.161.894h.047c.187-.318.449-.567.787-.745a2.428 2.428 0 0 1 1.144-.269c1.022 0 1.689.37 2.003 1.109h.048c.195-.342.477-.612.846-.811.37-.198.791-.298 1.264-.298.739 0 1.291.191 1.657.573.369.377.554.983.554 1.818v4.261h-.989Zm5.793.12c-.965 0-1.728-.295-2.289-.883-.556-.588-.834-1.404-.834-2.449 0-1.053.258-1.89.775-2.51.52-.62 1.218-.93 2.092-.93.819 0 1.466.271 1.943.811.477.537.715 1.246.715 2.128v.626h-4.5c.02.767.213 1.349.578 1.746.37.398.888.596 1.556.596.703 0 1.399-.147 2.086-.441v.882a5.002 5.002 0 0 1-.995.322c-.31.068-.686.102-1.127.102Zm-.268-5.943c-.524 0-.944.171-1.258.513-.31.341-.492.814-.548 1.418h3.415c0-.624-.139-1.101-.417-1.43-.278-.334-.675-.501-1.192-.501Zm8.833 5.823v-4.226c0-.532-.121-.929-.363-1.192-.243-.262-.622-.393-1.139-.393-.683 0-1.184.185-1.502.554-.318.37-.476.98-.476 1.83v3.427h-.99v-6.532h.805l.161.894h.047c.203-.322.487-.57.853-.745a2.74 2.74 0 0 1 1.222-.269c.786 0 1.378.191 1.776.573.397.377.596.983.596 1.818v4.261h-.99Zm5.138-.697c.175 0 .344-.012.507-.036.163-.028.292-.055.387-.083v.757a1.784 1.784 0 0 1-.476.125 3.304 3.304 0 0 1-.561.054c-1.263 0-1.895-.666-1.895-1.997v-3.886h-.936v-.477l.936-.412.417-1.394h.572v1.514h1.896v.769h-1.896v3.844c0 .393.094.695.28.906.187.211.443.316.769.316Zm5.514-8.017-3.249 8.714h-.989l3.248-8.714h.99Zm4.494 0h2.462c1.156 0 1.992.173 2.509.519.516.345.775.892.775 1.639 0 .516-.145.944-.435 1.281-.286.334-.706.551-1.258.65v.06c1.323.226 1.985.922 1.985 2.086 0 .779-.264 1.387-.793 1.824-.524.437-1.26.655-2.205.655h-3.04v-8.714Zm1.013 3.731h1.669c.715 0 1.23-.111 1.544-.333.314-.227.471-.606.471-1.139 0-.489-.175-.84-.525-1.055-.349-.218-.906-.328-1.669-.328h-1.49v2.855Zm0 .859v3.26h1.818c.703 0 1.232-.135 1.586-.405.357-.274.536-.702.536-1.282 0-.54-.183-.938-.548-1.192-.362-.254-.914-.381-1.657-.381h-1.735Zm12.392.852c0 1.065-.268 1.897-.805 2.497-.536.597-1.277.895-2.223.895a2.948 2.948 0 0 1-1.556-.412 2.714 2.714 0 0 1-1.049-1.18c-.246-.513-.369-1.113-.369-1.8 0-1.065.266-1.893.798-2.485.533-.597 1.272-.895 2.218-.895.914 0 1.639.304 2.175.912.541.608.811 1.431.811 2.468Zm-4.977 0c0 .834.167 1.47.501 1.907.333.437.824.656 1.472.656s1.138-.217 1.472-.65c.338-.437.507-1.075.507-1.913 0-.83-.169-1.46-.507-1.889-.334-.434-.828-.65-1.484-.65-.648 0-1.136.212-1.466.638-.33.425-.495 1.059-.495 1.901Zm11.164 2.396h-.054c-.457.664-1.14.996-2.05.996-.854 0-1.52-.293-1.997-.877-.473-.584-.709-1.414-.709-2.491 0-1.077.238-1.913.715-2.509.477-.597 1.141-.895 1.991-.895.886 0 1.565.322 2.038.966h.078l-.042-.471-.024-.459v-2.658h.99v9.274h-.805l-.131-.876Zm-1.979.167c.676 0 1.164-.183 1.466-.548.306-.37.459-.964.459-1.783v-.208c0-.926-.155-1.586-.465-1.979-.306-.397-.796-.596-1.472-.596-.58 0-1.025.226-1.335.679-.306.449-.459 1.085-.459 1.908 0 .834.153 1.464.459 1.889.306.425.755.638 1.347.638Zm3.982-5.823h1.061l1.43 3.725c.314.85.509 1.464.584 1.842h.048c.052-.203.159-.549.322-1.037.167-.493.707-2.003 1.621-4.53h1.061l-2.807 7.438c-.279.735-.604 1.256-.978 1.562-.369.31-.824.465-1.365.465-.302 0-.6-.034-.894-.101v-.793c.219.047.463.071.733.071.68 0 1.164-.381 1.455-1.144l.363-.93-2.634-6.568Zm9.799 3.189a9.29 9.29 0 0 1 .459-2.957 7.383 7.383 0 0 1 1.335-2.414h.965a8.458 8.458 0 0 0-1.293 2.527 9.466 9.466 0 0 0-.429 2.832c0 .953.147 1.885.441 2.795a8.7 8.7 0 0 0 1.269 2.492h-.953a7.018 7.018 0 0 1-1.335-2.367 8.992 8.992 0 0 1-.459-2.908Zm8.386 1.561c0 .608-.227 1.077-.68 1.407-.453.33-1.088.495-1.907.495-.866 0-1.542-.138-2.026-.412v-.918a4.92 4.92 0 0 0 1.007.376c.361.091.709.137 1.043.137.516 0 .914-.082 1.192-.244.278-.167.417-.42.417-.757 0-.255-.111-.471-.334-.65-.218-.183-.647-.397-1.287-.644-.608-.226-1.041-.423-1.299-.59a1.84 1.84 0 0 1-.573-.578 1.523 1.523 0 0 1-.184-.769c0-.532.216-.952.649-1.258.433-.31 1.028-.465 1.783-.465.703 0 1.39.144 2.062.43l-.352.804c-.655-.27-1.25-.405-1.782-.405-.469 0-.823.073-1.061.221-.238.147-.358.349-.358.607 0 .175.044.324.132.448.091.123.236.24.435.351.198.111.58.272 1.144.483.775.282 1.297.566 1.568.852.274.286.411.646.411 1.079Zm4.375 1.902c-.966 0-1.729-.295-2.289-.883-.556-.588-.834-1.404-.834-2.449 0-1.053.258-1.89.774-2.51.521-.62 1.218-.93 2.093-.93.818 0 1.466.271 1.943.811.477.537.715 1.246.715 2.128v.626h-4.5c.02.767.212 1.349.578 1.746.37.398.888.596 1.556.596.703 0 1.398-.147 2.086-.441v.882a5.03 5.03 0 0 1-.996.322c-.31.068-.685.102-1.126.102Zm-.268-5.943c-.525 0-.944.171-1.258.513-.31.341-.493.814-.548 1.418h3.415c0-.624-.139-1.101-.417-1.43-.278-.334-.676-.501-1.192-.501Zm5.936 2.48-2.271-3.189h1.127l1.722 2.503 1.717-2.503h1.115l-2.271 3.189 2.39 3.343h-1.121l-1.83-2.646-1.847 2.646h-1.121l2.39-3.343Zm5.758-3.189v4.238c0 .532.121.929.364 1.192.242.262.622.393 1.138.393.684 0 1.182-.187 1.496-.56.318-.374.477-.984.477-1.83v-3.433h.989v6.532h-.816l-.143-.876h-.054a1.973 1.973 0 0 1-.846.739 2.815 2.815 0 0 1-1.228.257c-.795 0-1.391-.189-1.788-.567-.394-.377-.59-.981-.59-1.812v-4.273h1.001Zm10.586 6.532-.197-.93h-.048c-.325.41-.651.688-.977.835-.322.143-.725.215-1.21.215-.648 0-1.156-.167-1.526-.501-.365-.334-.548-.809-.548-1.425 0-1.319 1.055-2.01 3.165-2.074l1.108-.036v-.405c0-.513-.111-.89-.333-1.132-.219-.247-.571-.37-1.055-.37-.545 0-1.161.167-1.848.501l-.304-.757a4.68 4.68 0 0 1 2.211-.561c.779 0 1.355.173 1.729.519.377.346.566.9.566 1.663v4.458h-.733Zm-2.235-.697c.616 0 1.098-.169 1.448-.507.354-.337.531-.81.531-1.418v-.59l-.99.041c-.787.028-1.355.151-1.705.37-.345.214-.518.55-.518 1.007 0 .358.107.63.322.817.218.187.522.28.912.28Zm6.002.697h-.99v-9.274h.99v9.274Zm3.087 0h-.989v-6.532h.989v6.532Zm-1.073-8.303c0-.226.056-.391.167-.494a.577.577 0 0 1 .418-.161c.159 0 .296.053.411.161.115.107.173.272.173.494 0 .223-.058.39-.173.501a.583.583 0 0 1-.411.161.581.581 0 0 1-.418-.161c-.111-.111-.167-.278-.167-.501Zm5.281 7.606c.175 0 .344-.012.507-.036.163-.028.292-.055.387-.083v.757a1.784 1.784 0 0 1-.476.125 3.304 3.304 0 0 1-.561.054c-1.263 0-1.895-.666-1.895-1.997v-3.886h-.936v-.477l.936-.412.417-1.394h.572v1.514h1.896v.769h-1.896v3.844c0 .393.094.695.28.906.187.211.444.316.769.316Zm1.169-5.835h1.061l1.43 3.725c.314.85.509 1.464.584 1.842h.048c.052-.203.159-.549.322-1.037.167-.493.707-2.003 1.621-4.53h1.061l-2.807 7.438c-.279.735-.604 1.256-.978 1.562-.369.31-.824.465-1.365.465-.302 0-.6-.034-.894-.101v-.793c.219.047.463.071.733.071.68 0 1.165-.381 1.455-1.144l.363-.93-2.634-6.568Zm9.262 3.189a8.925 8.925 0 0 1-.465 2.92 6.956 6.956 0 0 1-1.329 2.355h-.954a8.592 8.592 0 0 0 1.27-2.486 9.095 9.095 0 0 0 .441-2.801c0-.97-.145-1.914-.435-2.832a8.33 8.33 0 0 0-1.288-2.527h.966a7.314 7.314 0 0 1 1.335 2.426c.306.918.459 1.899.459 2.945Zm4.846-5.371-3.248 8.714h-.99l3.249-8.714h.989Zm11.11 8.714h-1.013v-4.1h-4.59v4.1h-1.013v-8.714h1.013v3.708h4.59v-3.708h1.013v8.714Zm5.007.12c-.966 0-1.728-.295-2.289-.883-.556-.588-.834-1.404-.834-2.449 0-1.053.258-1.89.775-2.51.52-.62 1.218-.93 2.092-.93.818 0 1.466.271 1.943.811.477.537.715 1.246.715 2.128v.626h-4.5c.02.767.213 1.349.578 1.746.37.398.888.596 1.556.596.703 0 1.399-.147 2.086-.441v.882c-.35.151-.682.259-.995.322-.31.068-.686.102-1.127.102Zm-.268-5.943c-.525 0-.944.171-1.258.513-.31.341-.493.814-.548 1.418h3.415c0-.624-.139-1.101-.417-1.43-.278-.334-.676-.501-1.192-.501Zm8.38 5.823-.196-.93h-.048c-.326.41-.652.688-.978.835-.322.143-.725.215-1.21.215-.647 0-1.156-.167-1.526-.501-.365-.334-.548-.809-.548-1.425 0-1.319 1.055-2.01 3.165-2.074l1.109-.036v-.405c0-.513-.112-.89-.334-1.132-.219-.247-.57-.37-1.055-.37-.544 0-1.16.167-1.848.501l-.304-.757a4.698 4.698 0 0 1 2.212-.561c.778 0 1.355.173 1.728.519.378.346.566.9.566 1.663v4.458h-.733Zm-2.235-.697c.616 0 1.099-.169 1.448-.507.354-.337.531-.81.531-1.418v-.59l-.99.041c-.786.028-1.355.151-1.704.37-.346.214-.519.55-.519 1.007 0 .358.108.63.322.817.219.187.523.28.912.28Zm6.002.697h-.989v-9.274h.989v9.274Zm4.208-.697c.175 0 .344-.012.507-.036.163-.028.292-.055.387-.083v.757a1.784 1.784 0 0 1-.476.125 3.304 3.304 0 0 1-.561.054c-1.263 0-1.895-.666-1.895-1.997v-3.886h-.936v-.477l.936-.412.417-1.394h.572v1.514h1.896v.769h-1.896v3.844c0 .393.094.695.28.906.187.211.443.316.769.316Zm6.676.697v-4.226c0-.532-.121-.929-.364-1.192-.242-.262-.621-.393-1.138-.393-.687 0-1.19.187-1.508.56-.314.374-.471.986-.471 1.836v3.415h-.989v-9.274h.989v2.807c0 .338-.016.618-.048.841h.06c.195-.314.471-.561.829-.739a2.69 2.69 0 0 1 1.233-.275c.799 0 1.397.191 1.794.573.402.377.602.979.602 1.806v4.261h-.989Z"/>
      <rect width="12.207" height="12.207" x="85.216" y="264.783" fill="#fff" rx="3.052"/>
      <rect width="12.207" height="12.207" x="85.216" y="264.783" stroke="#DADADA" stroke-width=".763" rx="3.052"/>
      <path fill="#282828" d="M111.507 267.953c-.957 0-1.714.32-2.27.96-.553.635-.829 1.508-.829 2.616 0 1.141.266 2.023.799 2.647.536.619 1.299.929 2.289.929.607 0 1.301-.109 2.08-.327v.888c-.604.226-1.349.339-2.235.339-1.284 0-2.275-.389-2.975-1.168-.695-.779-1.043-1.885-1.043-3.32 0-.898.167-1.685.501-2.36a3.64 3.64 0 0 1 1.454-1.562c.636-.365 1.383-.548 2.241-.548.914 0 1.713.167 2.396.501l-.429.87a4.615 4.615 0 0 0-1.979-.465Zm6.801 1.281c.29 0 .551.024.781.072l-.137.918a3.35 3.35 0 0 0-.715-.09c-.529 0-.982.215-1.359.644-.374.429-.56.964-.56 1.603v3.505h-.99v-6.532h.817l.113 1.21h.048c.242-.426.534-.753.876-.984.342-.23.717-.346 1.126-.346Zm4.763 6.771c-.966 0-1.729-.294-2.289-.882-.556-.588-.835-1.404-.835-2.449 0-1.053.259-1.89.775-2.51.521-.62 1.218-.93 2.092-.93.819 0 1.467.271 1.944.811.476.536.715 1.246.715 2.128v.626h-4.5c.019.767.212 1.349.578 1.746.369.397.888.596 1.555.596.704 0 1.399-.147 2.087-.441v.882a5.03 5.03 0 0 1-.996.322c-.31.068-.685.101-1.126.101Zm-.269-5.942c-.524 0-.943.171-1.257.512-.31.342-.493.815-.549 1.419h3.416c0-.624-.139-1.101-.417-1.43-.279-.334-.676-.501-1.193-.501Zm8.381 5.823-.197-.93h-.048c-.325.41-.651.688-.977.835-.322.143-.725.214-1.21.214-.648 0-1.156-.166-1.526-.5-.365-.334-.548-.809-.548-1.425 0-1.319 1.055-2.01 3.165-2.074l1.108-.036v-.405c0-.513-.111-.89-.333-1.133-.219-.246-.571-.369-1.055-.369-.545 0-1.161.167-1.848.501l-.304-.757a4.68 4.68 0 0 1 2.211-.561c.779 0 1.355.173 1.729.519.377.346.566.9.566 1.663v4.458h-.733Zm-2.235-.697c.616 0 1.098-.169 1.448-.507.354-.338.531-.81.531-1.418v-.59l-.99.041c-.787.028-1.355.151-1.705.37-.345.214-.518.55-.518 1.007 0 .358.107.63.322.817.218.186.522.28.912.28Zm7.122 0c.175 0 .344-.012.507-.036.163-.028.292-.056.388-.083v.757a1.804 1.804 0 0 1-.477.125 3.295 3.295 0 0 1-.561.053c-1.263 0-1.895-.665-1.895-1.996v-3.887h-.936v-.476l.936-.412.417-1.394h.572v1.514h1.896v.768h-1.896v3.845c0 .393.094.695.281.906.186.211.443.316.768.316Zm3.195.697h-.989v-6.532h.989v6.532Zm-1.073-8.303c0-.226.056-.391.167-.494a.576.576 0 0 1 .417-.161c.159 0 .297.053.412.161.115.107.173.272.173.494 0 .223-.058.39-.173.501a.586.586 0 0 1-.412.161.58.58 0 0 1-.417-.161c-.111-.111-.167-.278-.167-.501Zm4.602 8.303-2.48-6.532h1.061l1.407 3.874c.318.906.505 1.494.56 1.764h.048c.044-.21.181-.646.411-1.305.235-.664.757-2.108 1.568-4.333h1.061l-2.48 6.532h-1.156Zm7.444.119c-.965 0-1.728-.294-2.288-.882-.557-.588-.835-1.404-.835-2.449 0-1.053.258-1.89.775-2.51.521-.62 1.218-.93 2.092-.93.819 0 1.466.271 1.943.811.477.536.715 1.246.715 2.128v.626h-4.5c.02.767.213 1.349.578 1.746.37.397.889.596 1.556.596.704 0 1.399-.147 2.086-.441v.882a5.002 5.002 0 0 1-.995.322c-.31.068-.686.101-1.127.101Zm-.268-5.942c-.524 0-.944.171-1.257.512-.31.342-.493.815-.549 1.419h3.416c0-.624-.14-1.101-.418-1.43-.278-.334-.675-.501-1.192-.501Zm11.981 4.947h-.054c-.457.664-1.14.995-2.05.995-.855 0-1.52-.292-1.997-.876-.473-.584-.709-1.414-.709-2.491 0-1.077.238-1.914.715-2.51.477-.596 1.14-.894 1.991-.894.886 0 1.565.322 2.038.966h.078l-.042-.471-.024-.459v-2.658h.989v9.274h-.804l-.131-.876Zm-1.979.167c.675 0 1.164-.183 1.466-.548.306-.37.459-.964.459-1.783v-.208c0-.926-.155-1.586-.465-1.979-.306-.397-.797-.596-1.472-.596-.58 0-1.025.226-1.335.679-.306.449-.459 1.085-.459 1.908 0 .834.153 1.464.459 1.889.306.425.755.638 1.347.638Zm7.778.828c-.965 0-1.728-.294-2.289-.882-.556-.588-.834-1.404-.834-2.449 0-1.053.258-1.89.775-2.51.52-.62 1.218-.93 2.092-.93.818 0 1.466.271 1.943.811.477.536.715 1.246.715 2.128v.626h-4.5c.02.767.213 1.349.578 1.746.37.397.888.596 1.556.596.703 0 1.399-.147 2.086-.441v.882c-.35.151-.681.259-.995.322-.31.068-.686.101-1.127.101Zm-.268-5.942c-.525 0-.944.171-1.258.512-.31.342-.492.815-.548 1.419h3.415c0-.624-.139-1.101-.417-1.43-.278-.334-.675-.501-1.192-.501Zm8.577 4.041c0 .608-.226 1.077-.679 1.407-.453.33-1.089.494-1.908.494-.866 0-1.542-.137-2.026-.411v-.918c.314.159.649.284 1.007.376.362.091.709.137 1.043.137.517 0 .914-.082 1.192-.245.278-.166.417-.419.417-.756 0-.255-.111-.471-.333-.65-.219-.183-.648-.398-1.288-.644-.608-.226-1.041-.423-1.299-.59a1.836 1.836 0 0 1-.572-.578 1.513 1.513 0 0 1-.185-.769c0-.533.216-.952.649-1.258.434-.31 1.028-.465 1.783-.465.703 0 1.39.143 2.062.43l-.352.804c-.655-.27-1.249-.405-1.782-.405-.469 0-.822.073-1.061.22-.238.147-.357.35-.357.608 0 .175.043.324.131.447.091.124.236.241.435.352.198.111.58.272 1.144.483.775.282 1.298.566 1.568.852.274.286.411.646.411 1.079Zm2.605 1.782h-.99v-6.532h.99v6.532Zm-1.073-8.303c0-.226.056-.391.167-.494a.573.573 0 0 1 .417-.161c.159 0 .296.053.411.161.116.107.173.272.173.494 0 .223-.057.39-.173.501a.583.583 0 0 1-.411.161.577.577 0 0 1-.417-.161c-.111-.111-.167-.278-.167-.501Zm8.517 1.771v.625l-1.21.143c.112.14.211.322.298.549.088.222.132.475.132.757 0 .64-.219 1.15-.656 1.532-.437.381-1.037.572-1.8.572-.195 0-.378-.016-.549-.048-.421.223-.631.503-.631.841 0 .178.073.312.22.399.147.083.4.125.757.125h1.157c.707 0 1.249.149 1.627.447.381.298.572.731.572 1.3 0 .723-.29 1.273-.87 1.651-.58.381-1.427.572-2.539.572-.855 0-1.514-.159-1.979-.477-.461-.318-.692-.767-.692-1.347 0-.397.127-.741.382-1.031.254-.29.612-.487 1.073-.59a1.067 1.067 0 0 1-.424-.352.944.944 0 0 1-.166-.554c0-.239.063-.447.19-.626s.328-.352.602-.519a1.778 1.778 0 0 1-.828-.709 2.095 2.095 0 0 1-.316-1.144c0-.716.214-1.266.644-1.652.429-.389 1.037-.584 1.823-.584.342 0 .65.04.924.12h2.259Zm-5.209 7.629c0 .354.149.622.447.805.298.182.725.274 1.281.274.831 0 1.445-.125 1.842-.376.402-.246.602-.582.602-1.007 0-.354-.109-.6-.328-.739-.218-.135-.629-.203-1.233-.203h-1.187c-.449 0-.798.108-1.049.322-.25.215-.375.523-.375.924Zm.536-5.537c0 .457.13.802.388 1.037.258.234.618.351 1.079.351.965 0 1.448-.468 1.448-1.406 0-.982-.489-1.472-1.466-1.472-.465 0-.823.125-1.073.375s-.376.622-.376 1.115Zm10.485 4.44v-4.226c0-.532-.121-.93-.364-1.192-.242-.262-.622-.393-1.138-.393-.684 0-1.184.185-1.502.554-.318.37-.477.98-.477 1.83v3.427h-.99v-6.532h.805l.161.894h.048c.202-.322.487-.571.852-.745a2.743 2.743 0 0 1 1.222-.269c.787 0 1.379.191 1.776.573.398.377.596.983.596 1.818v4.261h-.989Zm6.336-8.714-3.249 8.714h-.989l3.248-8.714h.99Zm8.362 8.714-.196-.93h-.048c-.326.41-.652.688-.978.835-.321.143-.725.214-1.21.214-.647 0-1.156-.166-1.525-.5-.366-.334-.549-.809-.549-1.425 0-1.319 1.055-2.01 3.165-2.074l1.109-.036v-.405c0-.513-.111-.89-.334-1.133-.219-.246-.57-.369-1.055-.369-.544 0-1.16.167-1.848.501l-.304-.757a4.698 4.698 0 0 1 2.212-.561c.778 0 1.355.173 1.728.519.378.346.566.9.566 1.663v4.458h-.733Zm-2.235-.697c.616 0 1.099-.169 1.448-.507.354-.338.531-.81.531-1.418v-.59l-.989.041c-.787.028-1.355.151-1.705.37-.346.214-.519.55-.519 1.007 0 .358.108.63.322.817.219.186.523.28.912.28Zm7.773.816c-.966 0-1.729-.294-2.289-.882-.557-.588-.835-1.404-.835-2.449 0-1.053.259-1.89.775-2.51.521-.62 1.218-.93 2.092-.93.819 0 1.466.271 1.943.811.477.536.716 1.246.716 2.128v.626h-4.501c.02.767.213 1.349.579 1.746.369.397.888.596 1.555.596.704 0 1.399-.147 2.086-.441v.882a5.002 5.002 0 0 1-.995.322c-.31.068-.685.101-1.126.101Zm-.269-5.942c-.524 0-.943.171-1.257.512-.31.342-.493.815-.549 1.419h3.416c0-.624-.139-1.101-.418-1.43-.278-.334-.675-.501-1.192-.501Zm8.577 4.041c0 .608-.226 1.077-.679 1.407-.453.33-1.089.494-1.907.494-.867 0-1.542-.137-2.027-.411v-.918c.314.159.65.284 1.007.376.362.091.71.137 1.043.137.517 0 .914-.082 1.192-.245.279-.166.418-.419.418-.756 0-.255-.112-.471-.334-.65-.219-.183-.648-.398-1.288-.644-.608-.226-1.041-.423-1.299-.59a1.846 1.846 0 0 1-.572-.578 1.523 1.523 0 0 1-.185-.769c0-.533.217-.952.65-1.258.433-.31 1.027-.465 1.782-.465.703 0 1.391.143 2.062.43l-.351.804c-.656-.27-1.25-.405-1.783-.405-.468 0-.822.073-1.061.22-.238.147-.357.35-.357.608 0 .175.044.324.131.447.091.124.236.241.435.352.199.111.58.272 1.144.483.775.282 1.298.566 1.568.852.274.286.411.646.411 1.079Zm3.726 1.085c.174 0 .343-.012.506-.036.163-.028.292-.056.388-.083v.757a1.804 1.804 0 0 1-.477.125 3.293 3.293 0 0 1-.56.053c-1.264 0-1.896-.665-1.896-1.996v-3.887h-.936v-.476l.936-.412.417-1.394h.573v1.514h1.895v.768h-1.895v3.845c0 .393.093.695.28.906.187.211.443.316.769.316Zm6.675.697v-4.226c0-.532-.121-.93-.363-1.192-.243-.262-.622-.393-1.139-.393-.687 0-1.19.187-1.508.56-.314.374-.471.986-.471 1.836v3.415h-.989v-9.274h.989v2.807c0 .338-.015.618-.047.841h.059c.195-.314.471-.561.829-.74a2.706 2.706 0 0 1 1.234-.274c.798 0 1.396.191 1.794.572.401.378.602.98.602 1.807v4.261h-.99Zm5.788.119c-.966 0-1.729-.294-2.289-.882-.556-.588-.834-1.404-.834-2.449 0-1.053.258-1.89.775-2.51.52-.62 1.217-.93 2.092-.93.818 0 1.466.271 1.943.811.477.536.715 1.246.715 2.128v.626h-4.5c.02.767.212 1.349.578 1.746.37.397.888.596 1.556.596.703 0 1.398-.147 2.086-.441v.882a5.03 5.03 0 0 1-.996.322 5.335 5.335 0 0 1-1.126.101Zm-.268-5.942c-.525 0-.944.171-1.258.512-.31.342-.493.815-.548 1.419h3.415c0-.624-.139-1.101-.417-1.43-.278-.334-.676-.501-1.192-.501Zm6.473 5.126c.175 0 .343-.012.506-.036.163-.028.292-.056.388-.083v.757a1.782 1.782 0 0 1-.477.125 3.284 3.284 0 0 1-.56.053c-1.264 0-1.896-.665-1.896-1.996v-3.887h-.936v-.476l.936-.412.418-1.394h.572v1.514h1.895v.768h-1.895v3.845c0 .393.093.695.28.906.187.211.443.316.769.316Zm3.195.697h-.99v-6.532h.99v6.532Zm-1.073-8.303c0-.226.055-.391.167-.494a.573.573 0 0 1 .417-.161c.159 0 .296.053.411.161.115.107.173.272.173.494 0 .223-.058.39-.173.501a.583.583 0 0 1-.411.161.577.577 0 0 1-.417-.161c-.112-.111-.167-.278-.167-.501Zm5.781 8.422c-.945 0-1.679-.29-2.199-.87-.517-.584-.775-1.408-.775-2.473 0-1.093.262-1.938.787-2.534.528-.596 1.279-.894 2.253-.894.314 0 .628.034.942.102.314.067.56.147.739.238l-.304.841a4.424 4.424 0 0 0-.716-.215 3.059 3.059 0 0 0-.685-.089c-1.327 0-1.991.846-1.991 2.539 0 .802.161 1.418.483 1.847.326.43.807.644 1.442.644.545 0 1.103-.117 1.675-.351v.876c-.437.226-.987.339-1.651.339Zm7.421-1.901c0 .608-.226 1.077-.679 1.407-.453.33-1.089.494-1.908.494-.866 0-1.542-.137-2.026-.411v-.918c.314.159.649.284 1.007.376.362.091.709.137 1.043.137.517 0 .914-.082 1.192-.245.278-.166.417-.419.417-.756 0-.255-.111-.471-.333-.65-.219-.183-.648-.398-1.288-.644-.608-.226-1.041-.423-1.299-.59a1.836 1.836 0 0 1-.572-.578 1.513 1.513 0 0 1-.185-.769c0-.533.216-.952.649-1.258.434-.31 1.028-.465 1.783-.465.703 0 1.39.143 2.062.43l-.352.804c-.655-.27-1.249-.405-1.782-.405-.469 0-.822.073-1.061.22-.238.147-.357.35-.357.608 0 .175.043.324.131.447.091.124.236.241.435.352.198.111.58.272 1.144.483.775.282 1.298.566 1.568.852.274.286.411.646.411 1.079Zm4.923-6.932-3.248 8.714h-.989l3.248-8.714h.989Zm8.363 8.714-.197-.93h-.047c-.326.41-.652.688-.978.835-.322.143-.725.214-1.21.214-.648 0-1.156-.166-1.526-.5-.365-.334-.548-.809-.548-1.425 0-1.319 1.055-2.01 3.165-2.074l1.108-.036v-.405c0-.513-.111-.89-.333-1.133-.219-.246-.571-.369-1.055-.369-.545 0-1.161.167-1.848.501l-.304-.757a4.68 4.68 0 0 1 2.211-.561c.779 0 1.355.173 1.729.519.377.346.566.9.566 1.663v4.458h-.733Zm-2.235-.697c.616 0 1.098-.169 1.448-.507.354-.338.531-.81.531-1.418v-.59l-.99.041c-.787.028-1.355.151-1.705.37-.345.214-.518.55-.518 1.007 0 .358.107.63.322.817.218.186.522.28.912.28Zm7.993-5.955c.29 0 .55.024.781.072l-.138.918c-.27-.06-.508-.09-.715-.09-.528 0-.981.215-1.359.644-.373.429-.56.964-.56 1.603v3.505h-.99v-6.532h.817l.113 1.21h.048c.242-.426.534-.753.876-.984.342-.23.717-.346 1.127-.346Zm4.112 5.955c.175 0 .344-.012.507-.036.163-.028.292-.056.387-.083v.757a1.784 1.784 0 0 1-.476.125 3.295 3.295 0 0 1-.561.053c-1.263 0-1.895-.665-1.895-1.996v-3.887h-.936v-.476l.936-.412.417-1.394h.572v1.514h1.896v.768h-1.896v3.845c0 .393.094.695.28.906.187.211.444.316.769.316Z"/>
      <rect width="12.207" height="12.207" x="85.216" y="305.516" fill="#fff" rx="3.052"/>
      <rect width="12.207" height="12.207" x="85.216" y="305.516" stroke="#DADADA" stroke-width=".763" rx="3.052"/>
      <path fill="#282828" d="m111.633 307.619-2.957-7.725h-.047c.055.612.083 1.34.083 2.182v5.543h-.936v-8.714h1.526l2.76 7.188h.047l2.784-7.188h1.514v8.714h-1.013v-5.615c0-.643.027-1.343.083-2.098h-.048l-2.98 7.713h-.816Zm9.781.119c-.966 0-1.729-.294-2.289-.882-.556-.588-.835-1.404-.835-2.45 0-1.053.259-1.889.775-2.509.521-.62 1.218-.93 2.092-.93.819 0 1.467.27 1.944.811.476.536.715 1.246.715 2.128v.626h-4.5c.019.767.212 1.349.578 1.746.369.397.888.596 1.555.596.704 0 1.399-.147 2.087-.441v.882c-.35.151-.682.258-.996.322-.31.068-.685.101-1.126.101Zm-.269-5.942c-.524 0-.943.171-1.257.512-.31.342-.493.815-.549 1.419h3.416c0-.624-.139-1.101-.417-1.431-.279-.333-.676-.5-1.193-.5Zm8.81 4.947h-.054c-.457.664-1.14.995-2.05.995-.854 0-1.52-.292-1.997-.876-.473-.584-.709-1.414-.709-2.491 0-1.077.238-1.914.715-2.51.477-.596 1.141-.894 1.991-.894.886 0 1.566.322 2.038.966h.078l-.042-.471-.024-.459v-2.658h.99v9.274h-.805l-.131-.876Zm-1.979.167c.676 0 1.164-.183 1.466-.549.306-.369.459-.963.459-1.782v-.208c0-.926-.155-1.586-.465-1.979-.306-.398-.796-.596-1.472-.596-.58 0-1.025.226-1.335.679-.306.449-.459 1.085-.459 1.908 0 .834.153 1.464.459 1.889.306.425.755.638 1.347.638Zm6.008.709h-.989v-6.533h.989v6.533Zm-1.073-8.303c0-.226.056-.391.167-.494a.577.577 0 0 1 .418-.161.58.58 0 0 1 .411.161c.115.107.173.272.173.494 0 .223-.058.39-.173.501a.585.585 0 0 1-.411.161.581.581 0 0 1-.418-.161c-.111-.111-.167-.278-.167-.501Zm7.189 8.303-.197-.93h-.048c-.326.41-.651.688-.977.835-.322.143-.725.214-1.21.214-.648 0-1.156-.167-1.526-.5-.366-.334-.548-.809-.548-1.425 0-1.319 1.055-2.011 3.165-2.074l1.108-.036v-.405c0-.513-.111-.89-.334-1.133-.218-.246-.57-.369-1.055-.369-.544 0-1.16.167-1.847.5l-.304-.757a4.725 4.725 0 0 1 2.211-.56c.779 0 1.355.173 1.729.519.377.345.566.9.566 1.663v4.458h-.733Zm-2.235-.697c.615 0 1.098-.169 1.448-.507.354-.338.53-.81.53-1.418v-.591l-.989.042c-.787.028-1.355.151-1.705.37-.345.214-.518.55-.518 1.007 0 .358.107.63.322.817.218.186.522.28.912.28Zm7.623-2.647c0-1.053.153-2.038.459-2.956a7.39 7.39 0 0 1 1.335-2.414h.966a8.437 8.437 0 0 0-1.294 2.527 9.465 9.465 0 0 0-.429 2.831c0 .954.147 1.886.441 2.796.294.91.717 1.74 1.27 2.491h-.954a7.02 7.02 0 0 1-1.335-2.366 8.999 8.999 0 0 1-.459-2.909Zm8.619 2.468h-.054c-.457.664-1.14.995-2.05.995-.855 0-1.52-.292-1.997-.876-.473-.584-.709-1.414-.709-2.491 0-1.077.238-1.914.715-2.51.477-.596 1.14-.894 1.991-.894.886 0 1.565.322 2.038.966h.078l-.042-.471-.024-.459v-2.658h.99v9.274h-.805l-.131-.876Zm-1.979.167c.675 0 1.164-.183 1.466-.549.306-.369.459-.963.459-1.782v-.208c0-.926-.155-1.586-.465-1.979-.306-.398-.797-.596-1.472-.596-.58 0-1.025.226-1.335.679-.306.449-.459 1.085-.459 1.908 0 .834.153 1.464.459 1.889.306.425.755.638 1.347.638Zm6.008.709h-.989v-6.533h.989v6.533Zm-1.073-8.303c0-.226.056-.391.167-.494a.573.573 0 0 1 .417-.161c.159 0 .296.053.412.161.115.107.172.272.172.494 0 .223-.057.39-.172.501a.587.587 0 0 1-.412.161.577.577 0 0 1-.417-.161c-.111-.111-.167-.278-.167-.501Zm8.518 1.77v.626l-1.21.143c.111.139.21.322.298.549.087.222.131.475.131.757 0 .639-.219 1.15-.656 1.532-.437.381-1.037.572-1.8.572-.195 0-.377-.016-.548-.048-.421.223-.632.503-.632.841 0 .178.073.311.22.399.147.083.4.125.757.125h1.157c.707 0 1.249.149 1.627.447.381.298.572.731.572 1.299 0 .724-.29 1.274-.87 1.651-.58.382-1.427.573-2.539.573-.855 0-1.514-.159-1.979-.477-.461-.318-.692-.767-.692-1.347 0-.398.128-.741.382-1.031.254-.29.612-.487 1.073-.59a1.058 1.058 0 0 1-.423-.352.938.938 0 0 1-.167-.554c0-.239.063-.447.19-.626.128-.179.328-.352.602-.519a1.783 1.783 0 0 1-.828-.709 2.096 2.096 0 0 1-.316-1.145c0-.715.215-1.265.644-1.651.429-.389 1.037-.584 1.824-.584.341 0 .649.04.924.119h2.259Zm-5.21 7.63c0 .354.149.622.447.805.298.182.725.274 1.282.274.83 0 1.444-.125 1.841-.376.402-.246.602-.582.602-1.007 0-.354-.109-.6-.327-.739-.219-.135-.63-.203-1.234-.203h-1.186c-.449 0-.799.107-1.049.322-.251.215-.376.523-.376.924Zm.537-5.537c0 .457.129.802.387 1.037.258.234.618.351 1.079.351.965 0 1.448-.468 1.448-1.406 0-.982-.488-1.473-1.466-1.473-.465 0-.823.126-1.073.376s-.375.622-.375 1.115Zm7.003 4.44h-.989v-6.533h.989v6.533Zm-1.073-8.303c0-.226.056-.391.167-.494a.573.573 0 0 1 .417-.161c.159 0 .296.053.412.161.115.107.172.272.172.494 0 .223-.057.39-.172.501a.587.587 0 0 1-.412.161.577.577 0 0 1-.417-.161c-.111-.111-.167-.278-.167-.501Zm5.281 7.606c.175 0 .344-.012.507-.036.163-.028.292-.056.387-.083v.757a1.782 1.782 0 0 1-.477.125 3.379 3.379 0 0 1-.56.053c-1.263 0-1.895-.665-1.895-1.996v-3.887h-.936v-.476l.936-.412.417-1.394h.572v1.513h1.896v.769h-1.896v3.845c0 .393.094.695.28.906.187.21.443.316.769.316Zm6.223.697-.197-.93h-.047c-.326.41-.652.688-.978.835-.322.143-.725.214-1.21.214-.648 0-1.156-.167-1.526-.5-.365-.334-.548-.809-.548-1.425 0-1.319 1.055-2.011 3.165-2.074l1.108-.036v-.405c0-.513-.111-.89-.333-1.133-.219-.246-.571-.369-1.055-.369-.545 0-1.161.167-1.848.5l-.304-.757a4.725 4.725 0 0 1 2.211-.56c.779 0 1.355.173 1.729.519.377.345.566.9.566 1.663v4.458h-.733Zm-2.235-.697c.616 0 1.098-.169 1.448-.507.354-.338.531-.81.531-1.418v-.591l-.99.042c-.787.028-1.355.151-1.705.37-.345.214-.518.55-.518 1.007 0 .358.107.63.322.817.218.186.522.28.912.28Zm6.002.697h-.99v-9.274h.99v9.274Zm13.596 0v-4.25c0-.52-.112-.91-.334-1.168-.223-.262-.568-.393-1.037-.393-.616 0-1.071.177-1.365.53-.294.354-.441.898-.441 1.633v3.648h-.99v-4.25c0-.52-.111-.91-.333-1.168-.223-.262-.571-.393-1.044-.393-.619 0-1.074.186-1.364.56-.287.37-.43.978-.43 1.824v3.427h-.989v-6.533h.805l.161.895h.047c.187-.318.449-.567.787-.745a2.428 2.428 0 0 1 1.144-.269c1.022 0 1.689.37 2.003 1.109h.048c.195-.342.477-.612.846-.811.37-.198.791-.298 1.264-.298.739 0 1.291.191 1.657.572.369.378.554.984.554 1.818v4.262h-.989Zm5.793.119c-.965 0-1.728-.294-2.289-.882-.556-.588-.834-1.404-.834-2.45 0-1.053.258-1.889.775-2.509.52-.62 1.218-.93 2.092-.93.818 0 1.466.27 1.943.811.477.536.715 1.246.715 2.128v.626h-4.5c.02.767.213 1.349.578 1.746.37.397.888.596 1.556.596.703 0 1.399-.147 2.086-.441v.882a5.09 5.09 0 0 1-.995.322c-.31.068-.686.101-1.127.101Zm-.268-5.942c-.525 0-.944.171-1.258.512-.31.342-.492.815-.548 1.419h3.415c0-.624-.139-1.101-.417-1.431-.278-.333-.675-.5-1.192-.5Zm8.81 4.947h-.054c-.457.664-1.141.995-2.05.995-.855 0-1.52-.292-1.997-.876-.473-.584-.71-1.414-.71-2.491 0-1.077.239-1.914.716-2.51.477-.596 1.14-.894 1.991-.894.886 0 1.565.322 2.038.966h.077l-.041-.471-.024-.459v-2.658h.989v9.274h-.804l-.131-.876Zm-1.979.167c.675 0 1.164-.183 1.466-.549.306-.369.459-.963.459-1.782v-.208c0-.926-.155-1.586-.465-1.979-.306-.398-.797-.596-1.472-.596-.58 0-1.025.226-1.335.679-.306.449-.459 1.085-.459 1.908 0 .834.153 1.464.459 1.889.306.425.755.638 1.347.638Zm6.008.709h-.99v-6.533h.99v6.533Zm-1.073-8.303c0-.226.056-.391.167-.494a.573.573 0 0 1 .417-.161c.159 0 .296.053.411.161.116.107.173.272.173.494 0 .223-.057.39-.173.501a.583.583 0 0 1-.411.161.577.577 0 0 1-.417-.161c-.111-.111-.167-.278-.167-.501Zm7.188 8.303-.196-.93h-.048c-.326.41-.652.688-.978.835-.322.143-.725.214-1.21.214-.647 0-1.156-.167-1.526-.5-.365-.334-.548-.809-.548-1.425 0-1.319 1.055-2.011 3.165-2.074l1.109-.036v-.405c0-.513-.111-.89-.334-1.133-.219-.246-.57-.369-1.055-.369-.544 0-1.16.167-1.848.5l-.304-.757a4.744 4.744 0 0 1 2.212-.56c.778 0 1.355.173 1.728.519.378.345.566.9.566 1.663v4.458h-.733Zm-2.235-.697c.616 0 1.099-.169 1.448-.507.354-.338.531-.81.531-1.418v-.591l-.99.042c-.786.028-1.355.151-1.704.37-.346.214-.519.55-.519 1.007 0 .358.108.63.322.817.219.186.523.28.912.28Zm6.05-.721.089.137c-.103.397-.252.858-.447 1.382-.194.529-.397 1.02-.608 1.473h-.745c.108-.414.225-.924.352-1.532a22.05 22.05 0 0 0 .274-1.46h1.085Zm8.166-5.222c.858 0 1.524.294 1.996.882.477.584.716 1.413.716 2.486 0 1.073-.241 1.907-.721 2.503-.477.592-1.141.888-1.991.888-.425 0-.815-.077-1.169-.232a2.227 2.227 0 0 1-.882-.727h-.071l-.209.84h-.709v-9.274h.989v2.253c0 .504-.016.957-.047 1.359h.047c.461-.652 1.145-.978 2.051-.978Zm-.143.829c-.676 0-1.163.194-1.461.584-.298.385-.447 1.037-.447 1.955 0 .918.153 1.575.459 1.973.306.393.797.59 1.473.59.607 0 1.06-.221 1.358-.662.299-.445.448-1.083.448-1.913 0-.85-.149-1.484-.448-1.901-.298-.418-.758-.626-1.382-.626Zm10.228 2.539c0 1.065-.268 1.897-.805 2.497-.536.596-1.277.894-2.223.894-.584 0-1.103-.137-1.556-.411a2.714 2.714 0 0 1-1.049-1.18c-.246-.513-.369-1.113-.369-1.8 0-1.065.266-1.894.798-2.486.533-.596 1.272-.894 2.218-.894.914 0 1.639.304 2.175.912.541.608.811 1.431.811 2.468Zm-4.977 0c0 .834.167 1.47.501 1.907.333.437.824.656 1.472.656.647 0 1.138-.217 1.472-.65.338-.437.507-1.075.507-1.913 0-.831-.169-1.46-.507-1.89-.334-.433-.829-.649-1.484-.649-.648 0-1.137.212-1.466.637-.33.426-.495 1.059-.495 1.902Zm12.356 0c0 1.065-.268 1.897-.805 2.497-.536.596-1.277.894-2.223.894-.584 0-1.103-.137-1.556-.411a2.714 2.714 0 0 1-1.049-1.18c-.246-.513-.369-1.113-.369-1.8 0-1.065.266-1.894.798-2.486.533-.596 1.272-.894 2.218-.894.914 0 1.639.304 2.175.912.541.608.811 1.431.811 2.468Zm-4.977 0c0 .834.167 1.47.501 1.907.333.437.824.656 1.472.656.647 0 1.138-.217 1.472-.65.338-.437.507-1.075.507-1.913 0-.831-.169-1.46-.507-1.89-.334-.433-.829-.649-1.484-.649-.648 0-1.137.212-1.466.637-.33.426-.495 1.059-.495 1.902Zm7.695-.072c.171-.242.431-.56.781-.953l2.11-2.236h1.174l-2.647 2.784 2.832 3.749h-1.198l-2.307-3.087-.745.643v2.444h-.978v-9.274h.978v4.917c0 .219-.016.556-.048 1.013h.048Zm9.65 1.562c0 .608-.227 1.077-.68 1.407-.453.329-1.089.494-1.907.494-.866 0-1.542-.137-2.027-.411v-.918c.314.159.65.284 1.008.376.361.091.709.137 1.043.137.516 0 .914-.082 1.192-.245.278-.167.417-.419.417-.757 0-.254-.111-.47-.334-.649-.218-.183-.647-.398-1.287-.644-.608-.226-1.041-.423-1.3-.59a1.846 1.846 0 0 1-.572-.578 1.523 1.523 0 0 1-.185-.769c0-.533.217-.952.65-1.258.433-.31 1.027-.465 1.782-.465.704 0 1.391.143 2.063.429l-.352.805c-.656-.27-1.25-.405-1.782-.405-.469 0-.823.073-1.061.22-.239.147-.358.35-.358.608 0 .175.044.324.131.447.092.124.237.241.435.352.199.111.581.272 1.145.483.775.282 1.297.566 1.567.852.275.286.412.646.412 1.079Zm4.923-6.932-3.248 8.714h-.99l3.249-8.714h.989Zm4.155 2.062c.29 0 .55.024.78.072l-.137.918c-.27-.06-.508-.09-.715-.09-.529 0-.982.215-1.359.644-.374.429-.56.964-.56 1.603v3.505h-.99v-6.533h.817l.113 1.21h.048c.242-.425.534-.753.876-.983.342-.23.717-.346 1.127-.346Zm4.762 6.771c-.966 0-1.729-.294-2.289-.882-.556-.588-.834-1.404-.834-2.45 0-1.053.258-1.889.774-2.509.521-.62 1.218-.93 2.093-.93.818 0 1.466.27 1.943.811.477.536.715 1.246.715 2.128v.626h-4.5c.02.767.212 1.349.578 1.746.37.397.888.596 1.556.596.703 0 1.398-.147 2.086-.441v.882c-.35.151-.682.258-.996.322-.31.068-.685.101-1.126.101Zm-.268-5.942c-.525 0-.944.171-1.258.512-.31.342-.493.815-.548 1.419h3.415c0-.624-.139-1.101-.417-1.431-.278-.333-.676-.5-1.192-.5Zm8.38 5.823-.197-.93h-.047c-.326.41-.652.688-.978.835-.322.143-.725.214-1.21.214-.647 0-1.156-.167-1.526-.5-.365-.334-.548-.809-.548-1.425 0-1.319 1.055-2.011 3.165-2.074l1.109-.036v-.405c0-.513-.112-.89-.334-1.133-.219-.246-.57-.369-1.055-.369-.545 0-1.16.167-1.848.5l-.304-.757a4.744 4.744 0 0 1 2.211-.56c.779 0 1.355.173 1.729.519.377.345.566.9.566 1.663v4.458h-.733Zm-2.235-.697c.616 0 1.099-.169 1.448-.507.354-.338.531-.81.531-1.418v-.591l-.99.042c-.786.028-1.355.151-1.704.37-.346.214-.519.55-.519 1.007 0 .358.107.63.322.817.219.186.522.28.912.28Zm9.459-.179h-.054c-.456.664-1.14.995-2.05.995-.854 0-1.52-.292-1.997-.876-.473-.584-.709-1.414-.709-2.491 0-1.077.238-1.914.715-2.51.477-.596 1.141-.894 1.991-.894.886 0 1.566.322 2.039.966h.077l-.042-.471-.024-.459v-2.658h.99v9.274h-.805l-.131-.876Zm-1.979.167c.676 0 1.165-.183 1.467-.549.305-.369.458-.963.458-1.782v-.208c0-.926-.155-1.586-.464-1.979-.306-.398-.797-.596-1.473-.596-.58 0-1.025.226-1.335.679-.306.449-.459 1.085-.459 1.908 0 .834.153 1.464.459 1.889.306.425.755.638 1.347.638Zm6.008.709h-.989v-6.533h.989v6.533Zm-1.072-8.303c0-.226.055-.391.166-.494a.577.577 0 0 1 .418-.161c.159 0 .296.053.411.161.115.107.173.272.173.494 0 .223-.058.39-.173.501a.583.583 0 0 1-.411.161.581.581 0 0 1-.418-.161c-.111-.111-.166-.278-.166-.501Zm7.641 8.303v-4.226c0-.532-.121-.93-.364-1.192-.242-.262-.622-.393-1.138-.393-.684 0-1.184.184-1.502.554-.318.37-.477.98-.477 1.83v3.427h-.99v-6.533h.805l.161.895h.048c.202-.322.487-.571.852-.745a2.743 2.743 0 0 1 1.222-.269c.787 0 1.379.191 1.776.572.398.378.596.984.596 1.818v4.262h-.989Zm8.374-6.533v.626l-1.21.143c.112.139.211.322.298.549.088.222.131.475.131.757 0 .639-.218 1.15-.655 1.532-.437.381-1.037.572-1.8.572-.195 0-.378-.016-.549-.048-.421.223-.631.503-.631.841 0 .178.073.311.22.399.147.083.399.125.757.125h1.156c.708 0 1.25.149 1.628.447.381.298.572.731.572 1.299 0 .724-.29 1.274-.87 1.651-.581.382-1.427.573-2.54.573-.854 0-1.514-.159-1.978-.477-.461-.318-.692-.767-.692-1.347 0-.398.127-.741.382-1.031.254-.29.612-.487 1.072-.59a1.071 1.071 0 0 1-.423-.352.945.945 0 0 1-.167-.554c0-.239.064-.447.191-.626s.328-.352.602-.519a1.773 1.773 0 0 1-.828-.709 2.096 2.096 0 0 1-.316-1.145c0-.715.214-1.265.643-1.651.43-.389 1.038-.584 1.824-.584.342 0 .65.04.924.119h2.259Zm-5.209 7.63c0 .354.149.622.447.805.298.182.725.274 1.281.274.831 0 1.445-.125 1.842-.376.401-.246.602-.582.602-1.007 0-.354-.109-.6-.328-.739-.218-.135-.63-.203-1.234-.203h-1.186c-.449 0-.798.107-1.049.322-.25.215-.375.523-.375.924Zm.536-5.537c0 .457.129.802.388 1.037.258.234.618.351 1.079.351.965 0 1.448-.468 1.448-1.406 0-.982-.489-1.473-1.466-1.473-.465 0-.823.126-1.073.376-.251.25-.376.622-.376 1.115Zm7.051 3.022.09.137c-.103.397-.252.858-.447 1.382-.195.529-.398 1.02-.608 1.473h-.745c.107-.414.224-.924.351-1.532a21.52 21.52 0 0 0 .275-1.46h1.084Zm-196.569 19.418v-4.25c0-.52-.111-.91-.334-1.168-.222-.262-.568-.393-1.037-.393-.616 0-1.071.177-1.365.53-.294.354-.441.898-.441 1.633v3.648h-.989v-4.25c0-.52-.112-.91-.334-1.168-.223-.262-.57-.393-1.043-.393-.62 0-1.075.186-1.365.56-.286.37-.429.978-.429 1.824v3.427h-.99v-6.533h.805l.161.895h.047c.187-.318.449-.567.787-.745a2.43 2.43 0 0 1 1.145-.269c1.021 0 1.688.37 2.002 1.109h.048c.195-.342.477-.612.846-.811.37-.198.791-.298 1.264-.298.739 0 1.291.191 1.657.572.37.378.554.984.554 1.818v4.262h-.989Zm5.793.119c-.965 0-1.728-.294-2.288-.882-.557-.588-.835-1.404-.835-2.45 0-1.053.258-1.889.775-2.509.521-.62 1.218-.93 2.092-.93.819 0 1.466.27 1.943.811.477.536.716 1.246.716 2.128v.626h-4.501c.02.767.213 1.349.579 1.746.369.397.888.596 1.555.596.704 0 1.399-.147 2.086-.441v.882a5.068 5.068 0 0 1-.995.322c-.31.068-.685.101-1.127.101Zm-.268-5.942c-.524 0-.943.171-1.257.512-.31.342-.493.815-.549 1.419h3.416c0-.624-.139-1.101-.418-1.431-.278-.333-.675-.5-1.192-.5Zm8.81 4.947h-.054c-.457.664-1.14.995-2.05.995-.855 0-1.52-.292-1.997-.876-.473-.584-.709-1.414-.709-2.491 0-1.077.238-1.914.715-2.51.477-.596 1.14-.894 1.991-.894.886 0 1.565.322 2.038.966h.078l-.042-.471-.024-.459v-2.658h.99v9.274h-.805l-.131-.876Zm-1.979.167c.675 0 1.164-.183 1.466-.549.306-.369.459-.963.459-1.782v-.208c0-.926-.155-1.586-.465-1.979-.306-.398-.796-.596-1.472-.596-.58 0-1.025.226-1.335.679-.306.449-.459 1.085-.459 1.908 0 .834.153 1.464.459 1.889.306.425.755.638 1.347.638Zm6.008.709h-.989v-6.533h.989v6.533Zm-1.073-8.303c0-.226.056-.391.167-.494a.573.573 0 0 1 .417-.161c.159 0 .296.053.412.161.115.107.172.272.172.494 0 .223-.057.39-.172.501a.587.587 0 0 1-.412.161.577.577 0 0 1-.417-.161c-.111-.111-.167-.278-.167-.501Zm7.188 8.303-.196-.93h-.048c-.326.41-.652.688-.977.835-.322.143-.726.214-1.21.214-.648 0-1.157-.167-1.526-.5-.366-.334-.549-.809-.549-1.425 0-1.319 1.055-2.011 3.165-2.074l1.109-.036v-.405c0-.513-.111-.89-.334-1.133-.218-.246-.57-.369-1.055-.369-.544 0-1.16.167-1.847.5l-.304-.757a4.706 4.706 0 0 1 2.211-.56c.779 0 1.355.173 1.728.519.378.345.567.9.567 1.663v4.458h-.734Zm-2.235-.697c.616 0 1.099-.169 1.449-.507.353-.338.53-.81.53-1.418v-.591l-.989.042c-.787.028-1.355.151-1.705.37-.346.214-.518.55-.518 1.007 0 .358.107.63.321.817.219.186.523.28.912.28Zm11.224.816c-.425 0-.815-.077-1.168-.232a2.223 2.223 0 0 1-.883-.727h-.071c.048.381.071.743.071 1.085v2.688h-.989v-9.466h.805l.137.895h.047c.255-.358.551-.616.889-.775a2.696 2.696 0 0 1 1.162-.239c.866 0 1.534.296 2.003.888.472.592.709 1.423.709 2.492 0 1.073-.241 1.907-.721 2.503-.477.592-1.141.888-1.991.888Zm-.143-5.93c-.668 0-1.151.184-1.449.554-.298.37-.451.958-.459 1.764v.221c0 .918.153 1.575.459 1.973.306.393.797.59 1.473.59.564 0 1.005-.229 1.323-.686.322-.457.483-1.086.483-1.889 0-.815-.161-1.439-.483-1.872-.318-.437-.767-.655-1.347-.655Zm7.349 5.93c-.966 0-1.729-.294-2.289-.882-.556-.588-.834-1.404-.834-2.45 0-1.053.258-1.889.775-2.509.52-.62 1.218-.93 2.092-.93.818 0 1.466.27 1.943.811.477.536.715 1.246.715 2.128v.626h-4.5c.02.767.213 1.349.578 1.746.37.397.888.596 1.556.596.703 0 1.398-.147 2.086-.441v.882a5.11 5.11 0 0 1-.995.322c-.31.068-.686.101-1.127.101Zm-.268-5.942c-.525 0-.944.171-1.258.512-.31.342-.493.815-.548 1.419h3.415c0-.624-.139-1.101-.417-1.431-.278-.333-.676-.5-1.192-.5Zm8.809 4.947h-.053c-.457.664-1.141.995-2.051.995-.854 0-1.52-.292-1.996-.876-.473-.584-.71-1.414-.71-2.491 0-1.077.239-1.914.715-2.51.477-.596 1.141-.894 1.991-.894.886 0 1.566.322 2.039.966h.077l-.041-.471-.024-.459v-2.658h.989v9.274h-.805l-.131-.876Zm-1.979.167c.676 0 1.165-.183 1.467-.549.306-.369.459-.963.459-1.782v-.208c0-.926-.155-1.586-.465-1.979-.306-.398-.797-.596-1.472-.596-.581 0-1.026.226-1.336.679-.306.449-.459 1.085-.459 1.908 0 .834.153 1.464.459 1.889.306.425.755.638 1.347.638Zm9.036.709-.196-.93h-.048c-.326.41-.652.688-.977.835-.322.143-.726.214-1.21.214-.648 0-1.157-.167-1.526-.5-.366-.334-.549-.809-.549-1.425 0-1.319 1.055-2.011 3.165-2.074l1.109-.036v-.405c0-.513-.111-.89-.334-1.133-.218-.246-.57-.369-1.055-.369-.544 0-1.16.167-1.847.5l-.304-.757a4.706 4.706 0 0 1 2.211-.56c.779 0 1.355.173 1.728.519.378.345.567.9.567 1.663v4.458h-.734Zm-2.235-.697c.616 0 1.099-.169 1.449-.507.353-.338.53-.81.53-1.418v-.591l-.989.042c-.787.028-1.355.151-1.705.37-.346.214-.518.55-.518 1.007 0 .358.107.63.321.817.219.186.523.28.912.28Zm10.36-5.836v.626l-1.21.143c.111.139.21.322.298.549.087.222.131.475.131.757 0 .639-.219 1.15-.656 1.532-.437.381-1.037.572-1.8.572-.195 0-.377-.016-.548-.048-.422.223-.632.503-.632.841 0 .178.073.311.22.399.147.083.4.125.757.125h1.157c.707 0 1.249.149 1.627.447.381.298.572.731.572 1.299 0 .724-.29 1.274-.87 1.651-.58.382-1.427.573-2.539.573-.855 0-1.514-.159-1.979-.477-.461-.318-.692-.767-.692-1.347 0-.398.128-.741.382-1.031.254-.29.612-.487 1.073-.59a1.058 1.058 0 0 1-.423-.352.938.938 0 0 1-.167-.554c0-.239.063-.447.19-.626.128-.179.328-.352.602-.519a1.783 1.783 0 0 1-.828-.709 2.096 2.096 0 0 1-.316-1.145c0-.715.215-1.265.644-1.651.429-.389 1.037-.584 1.824-.584.341 0 .649.04.924.119h2.259Zm-5.21 7.63c0 .354.149.622.447.805.298.182.725.274 1.282.274.83 0 1.444-.125 1.841-.376.402-.246.602-.582.602-1.007 0-.354-.109-.6-.327-.739-.219-.135-.63-.203-1.234-.203h-1.186c-.449 0-.799.107-1.049.322-.251.215-.376.523-.376.924Zm.537-5.537c0 .457.129.802.387 1.037.258.234.618.351 1.079.351.965 0 1.448-.468 1.448-1.406 0-.982-.489-1.473-1.466-1.473-.465 0-.823.126-1.073.376s-.375.622-.375 1.115Zm11.652 1.168c0 1.065-.268 1.897-.804 2.497-.537.596-1.278.894-2.224.894-.584 0-1.102-.137-1.555-.411a2.708 2.708 0 0 1-1.049-1.18c-.247-.513-.37-1.113-.37-1.8 0-1.065.266-1.894.799-2.486.532-.596 1.271-.894 2.217-.894.914 0 1.639.304 2.176.912.54.608.81 1.431.81 2.468Zm-4.977 0c0 .834.167 1.47.501 1.907.334.437.824.656 1.472.656s1.139-.217 1.472-.65c.338-.437.507-1.075.507-1.913 0-.831-.169-1.46-.507-1.89-.333-.433-.828-.649-1.484-.649-.647 0-1.136.212-1.466.637-.33.426-.495 1.059-.495 1.902Zm12.064-3.261v.626l-1.21.143c.112.139.211.322.298.549.088.222.131.475.131.757 0 .639-.218 1.15-.655 1.532-.437.381-1.037.572-1.8.572-.195 0-.378-.016-.549-.048-.421.223-.631.503-.631.841 0 .178.073.311.22.399.147.083.399.125.757.125h1.156c.708 0 1.25.149 1.628.447.381.298.572.731.572 1.299 0 .724-.29 1.274-.87 1.651-.581.382-1.427.573-2.54.573-.854 0-1.514-.159-1.978-.477-.461-.318-.692-.767-.692-1.347 0-.398.127-.741.382-1.031.254-.29.612-.487 1.072-.59a1.071 1.071 0 0 1-.423-.352.945.945 0 0 1-.167-.554c0-.239.064-.447.191-.626s.328-.352.602-.519a1.773 1.773 0 0 1-.828-.709 2.096 2.096 0 0 1-.316-1.145c0-.715.214-1.265.643-1.651.43-.389 1.038-.584 1.824-.584.342 0 .65.04.924.119h2.259Zm-5.209 7.63c0 .354.149.622.447.805.298.182.725.274 1.281.274.831 0 1.445-.125 1.842-.376.401-.246.602-.582.602-1.007 0-.354-.109-.6-.328-.739-.218-.135-.63-.203-1.234-.203h-1.186c-.449 0-.798.107-1.049.322-.25.215-.375.523-.375.924Zm.536-5.537c0 .457.129.802.388 1.037.258.234.618.351 1.079.351.965 0 1.448-.468 1.448-1.406 0-.982-.489-1.473-1.466-1.473-.465 0-.823.126-1.073.376-.251.25-.376.622-.376 1.115Zm4.977-2.093h1.061l1.431 3.726c.314.85.508 1.464.584 1.842h.047c.052-.203.159-.549.322-1.038.167-.492.708-2.002 1.622-4.53h1.061l-2.808 7.439c-.278.735-.604 1.256-.977 1.562-.37.31-.825.465-1.365.465-.302 0-.6-.034-.894-.102v-.792c.218.047.463.071.733.071.679 0 1.164-.381 1.454-1.144l.364-.93-2.635-6.569Zm9.263 3.189a8.93 8.93 0 0 1-.465 2.921 6.942 6.942 0 0 1-1.329 2.354h-.954a8.599 8.599 0 0 0 1.27-2.485 9.096 9.096 0 0 0 .441-2.802c0-.969-.145-1.913-.435-2.831a8.376 8.376 0 0 0-1.288-2.527h.966a7.305 7.305 0 0 1 1.335 2.426 9.25 9.25 0 0 1 .459 2.944Z"/>
      <rect width="307.464" height="32.806" x="37.532" y="35.658" fill="#fff" rx="5.722"/>
      <path stroke="#686868" stroke-linecap="round" stroke-linejoin="round" stroke-width="1.526" d="m61.279 57.879-3.624-3.624m1.208-3.02a4.227 4.227 0 1 1-8.454 0 4.227 4.227 0 0 1 8.454 0Z"/>
      <path fill="#686868" d="M76.835 54.876c0 .767-.278 1.365-.834 1.794-.556.43-1.311.644-2.265.644-1.033 0-1.828-.133-2.384-.4v-.977c.358.151.747.27 1.168.358.421.087.839.13 1.252.13.675 0 1.184-.126 1.526-.38.341-.259.512-.617.512-1.073 0-.302-.061-.549-.184-.74-.12-.194-.322-.373-.608-.536-.282-.163-.714-.348-1.294-.554-.81-.29-1.39-.634-1.74-1.031-.346-.398-.519-.916-.519-1.556 0-.672.252-1.206.757-1.603.505-.398 1.172-.596 2.003-.596.866 0 1.663.158 2.39.476l-.316.883c-.72-.303-1.419-.454-2.098-.454-.536 0-.956.116-1.258.346-.302.23-.453.55-.453.96 0 .302.056.55.167.745.112.19.298.367.56.53.267.16.672.336 1.216.53.914.327 1.542.676 1.884 1.05.346.373.519.858.519 1.454Zm4.393 2.438c-.965 0-1.728-.294-2.288-.882-.557-.588-.835-1.405-.835-2.45 0-1.053.258-1.89.775-2.51.52-.62 1.218-.929 2.092-.929.819 0 1.466.27 1.943.81.477.537.715 1.246.715 2.128v.626h-4.5c.02.767.213 1.35.579 1.747.369.397.888.596 1.555.596.704 0 1.399-.147 2.086-.441v.882a5.06 5.06 0 0 1-.995.322 5.37 5.37 0 0 1-1.127.101Zm-.268-5.943c-.524 0-.944.171-1.257.513-.31.342-.493.815-.549 1.419h3.416c0-.624-.14-1.101-.418-1.43-.278-.335-.675-.502-1.192-.502Zm8.38 5.824-.196-.93h-.048c-.326.41-.651.687-.977.834-.322.144-.725.215-1.21.215-.648 0-1.157-.167-1.526-.5-.366-.334-.548-.81-.548-1.425 0-1.32 1.055-2.01 3.165-2.074l1.108-.036v-.406c0-.512-.111-.89-.334-1.132-.218-.246-.57-.37-1.055-.37-.544 0-1.16.167-1.847.501l-.304-.757a4.657 4.657 0 0 1 1.055-.411c.385-.1.77-.15 1.156-.15.779 0 1.355.174 1.728.52.378.345.567.9.567 1.662v4.459h-.733Zm-2.235-.697c.616 0 1.1-.17 1.449-.507.353-.338.53-.81.53-1.419v-.59l-.99.042c-.786.028-1.354.15-1.704.37-.346.214-.518.55-.518 1.007 0 .357.107.63.321.816.219.187.523.28.912.28Zm7.993-5.955c.29 0 .55.024.781.072l-.137.917c-.27-.06-.509-.089-.715-.089-.529 0-.982.215-1.36.644-.373.429-.56.963-.56 1.603v3.505h-.989v-6.533h.817l.113 1.21h.048c.242-.425.534-.753.876-.983.342-.23.717-.346 1.126-.346Zm4.614 6.771c-.946 0-1.68-.29-2.2-.87-.516-.584-.775-1.409-.775-2.474 0-1.093.263-1.937.787-2.533.529-.596 1.28-.894 2.253-.894.314 0 .628.034.942.101a3.1 3.1 0 0 1 .739.239l-.304.84a4.432 4.432 0 0 0-.715-.214 3.092 3.092 0 0 0-.686-.09c-1.327 0-1.99.847-1.99 2.54 0 .802.16 1.418.483 1.847.325.43.806.644 1.442.644.544 0 1.103-.117 1.675-.352v.876c-.437.227-.988.34-1.651.34Zm7.677-.12V52.97c0-.533-.121-.93-.364-1.192-.242-.263-.622-.394-1.138-.394-.688 0-1.19.187-1.508.56-.314.374-.471.986-.471 1.837v3.415h-.99V47.92h.99v2.808c0 .337-.016.618-.048.84h.06c.195-.314.471-.56.828-.739a2.699 2.699 0 0 1 1.234-.274c.799 0 1.397.19 1.794.572.402.378.602.98.602 1.806v4.262h-.989Z"/>
      <rect width="307.464" height="32.806" x="37.532" y="35.658" stroke="#DADADA" stroke-width=".763" rx="5.722"/>
    </g>
    <g filter="url(#d)">
      <path fill="#F1C151" d="M325.136 182.647a4.436 4.436 0 0 0-3.799 2.193l-22.603 39.151a4.439 4.439 0 0 0 0 4.386l22.603 39.142a4.386 4.386 0 0 0 3.799 2.193h45.206a4.38 4.38 0 0 0 3.791-2.193l22.603-39.142a4.435 4.435 0 0 0 0-4.386l-22.603-39.151a4.436 4.436 0 0 0-3.791-2.193h-45.206Z"/>
    </g>
    <path fill="#fff" d="M348.703 248.293c-6.156 0-10.697-.988-13.623-2.964-.342-.228-.513-.494-.513-.798 0-.228.095-.494.285-.798l1.653-2.793c.228-.38.437-.57.627-.57.152 0 .418.095.798.285 1.254.684 2.698 1.235 4.332 1.653 1.672.418 3.477.627 5.415.627 3.116 0 5.396-.589 6.84-1.767 1.482-1.216 2.223-2.888 2.223-5.016 0-3.952-2.413-5.928-7.239-5.928h-4.788c-.76 0-1.311-.152-1.653-.456-.304-.342-.456-.874-.456-1.596v-1.482c0-.684.152-1.178.456-1.482.342-.304.893-.456 1.653-.456h4.674c2.052 0 3.591-.532 4.617-1.596 1.026-1.102 1.539-2.489 1.539-4.161 0-3.838-2.698-5.757-8.094-5.757-3.344 0-6.289.703-8.835 2.109-.38.19-.646.285-.798.285-.19 0-.399-.171-.627-.513l-1.596-2.679c-.19-.304-.285-.57-.285-.798 0-.304.171-.57.513-.798 1.33-.95 3.097-1.691 5.301-2.223 2.204-.532 4.655-.798 7.353-.798 2.926 0 5.453.456 7.581 1.368 2.166.912 3.819 2.204 4.959 3.876 1.178 1.634 1.767 3.553 1.767 5.757a9.777 9.777 0 0 1-1.311 4.959c-.836 1.52-2.052 2.698-3.648 3.534 2.052.76 3.572 1.938 4.56 3.534 1.026 1.558 1.539 3.401 1.539 5.529 0 3.572-1.33 6.46-3.99 8.664-2.622 2.166-6.365 3.249-11.229 3.249Z"/>
  </g>
  <defs>
    <filter id="b" width="384" height="339.645" x=".5" y="0" color-interpolation-filters="sRGB" filterUnits="userSpaceOnUse">
      <feFlood flood-opacity="0" result="BackgroundImageFix"/>
      <feColorMatrix in="SourceAlpha" result="hardAlpha" values="0 0 0 0 0 0 0 0 0 0 0 0 0 0 0 0 0 0 127 0"/>
      <feOffset dx="2" dy="4"/>
      <feGaussianBlur stdDeviation="1"/>
      <feComposite in2="hardAlpha" operator="out"/>
      <feColorMatrix values="0 0 0 0 0 0 0 0 0 0 0 0 0 0 0 0 0 0 0.7 0"/>
      <feBlend in2="BackgroundImageFix" result="effect1_dropShadow_768_1552"/>
      <feBlend in="SourceGraphic" in2="effect1_dropShadow_768_1552" result="shape"/>
    </filter>
    <filter id="d" width="107.161" height="95.065" x="296.154" y="180.647" color-interpolation-filters="sRGB" filterUnits="userSpaceOnUse">
      <feFlood flood-opacity="0" result="BackgroundImageFix"/>
      <feColorMatrix in="SourceAlpha" result="hardAlpha" values="0 0 0 0 0 0 0 0 0 0 0 0 0 0 0 0 0 0 127 0"/>
      <feOffset dx="2" dy="2"/>
      <feGaussianBlur stdDeviation="2"/>
      <feComposite in2="hardAlpha" operator="out"/>
      <feColorMatrix values="0 0 0 0 0 0 0 0 0 0 0 0 0 0 0 0 0 0 0.25 0"/>
      <feBlend in2="BackgroundImageFix" result="effect1_dropShadow_768_1552"/>
      <feBlend in="SourceGraphic" in2="effect1_dropShadow_768_1552" result="shape"/>
    </filter>
    <clipPath id="a">
      <path fill="#fff" d="M.5 0h403v340H.5z"/>
    </clipPath>
  </defs>
</svg>