<svg xmlns="http://www.w3.org/2000/svg" width="404" height="340" fill="none">
  <g clip-path="url(#a)">
    <g filter="url(#b)" opacity=".2">
      <path fill="#39B5AC" d="M103.899 0c-2.947.0192922-5.8383.803917-8.3909 2.27702-2.5526 1.4731-4.6787 3.58414-6.1699 6.1262L2.72051 158.436C1.26514 160.998.5 163.893.5 166.839c0 2.947.76514 5.842 2.22051 8.404L89.3382 325.242c1.4756 2.556 3.5982 4.678 6.1543 6.153 2.5561 1.475 5.4555 2.251 8.4065 2.25h173.236c2.945-.005 5.838-.784 8.387-2.259 2.55-1.474 4.667-3.593 6.14-6.144l86.617-149.999c1.456-2.562 2.221-5.457 2.221-8.404 0-2.946-.765-5.841-2.221-8.403L291.662 8.40322c-1.488-2.53713-3.609-4.64498-6.155-6.11779C282.961.812616 280.076.0251636 277.135 0H103.899Z"/>
    </g>
    <mask id="c" width="381" height="334" x="0" y="0" maskUnits="userSpaceOnUse" style="mask-type:alpha">
      <path fill="#39B5AC" d="M103.899 0c-2.947.0192922-5.8383.803917-8.3909 2.27702-2.5526 1.4731-4.6787 3.58414-6.1699 6.1262L2.72051 158.436C1.26514 160.998.5 163.893.5 166.839c0 2.947.76514 5.842 2.22051 8.404L89.3382 325.242c1.4756 2.556 3.5982 4.678 6.1543 6.153 2.5561 1.475 5.4555 2.251 8.4065 2.25h173.236c2.945-.005 5.838-.784 8.387-2.259 2.55-1.474 4.667-3.593 6.14-6.144l86.617-149.999c1.456-2.562 2.221-5.457 2.221-8.404 0-2.946-.765-5.841-2.221-8.403L291.662 8.40322c-1.488-2.53713-3.609-4.64498-6.155-6.11779C282.961.812616 280.076.0251636 277.135 0H103.899Z"/>
    </mask>
    <g mask="url(#c)">
      <path fill="#39B5AC" d="M198.893 90.2085c0-3.3709 2.733-6.1035 6.104-6.1035h134.277c3.371 0 6.103 2.7326 6.103 6.1035v28.2285H198.893V90.2085Z"/>
      <path fill="#fff" d="M248.083 107.271h-1.706v-8.9042h-3.029v-1.4439h7.757v1.4439h-3.022v8.9042Zm6.101-11.0134v2.7675c0 .2878-.009.5686-.028.8423-.014.2736-.031.4856-.05.6366h.092c.166-.273.368-.497.609-.672.241-.1793.51-.3138.807-.4035.302-.0896.623-.1344.963-.1344.599 0 1.109.1014 1.528.3043.42.1982.741.5076.963.9276.227.42.34.965.34 1.635v5.11h-1.664v-4.799c0-.609-.125-1.064-.375-1.366-.25-.307-.637-.46-1.16-.46-.505 0-.906.106-1.204.318-.292.208-.502.517-.63.928-.127.406-.191.901-.191 1.486v3.893h-1.663V96.2576h1.663Zm10.674 3.0294c.698 0 1.298.1439 1.798.4317.5.2883.884.6963 1.153 1.2243.269.529.404 1.161.404 1.897v.892h-5.231c.019.76.222 1.345.609 1.755.392.411.939.616 1.642.616.5 0 .948-.047 1.345-.141.401-.1.814-.243 1.239-.432v1.352c-.392.184-.791.318-1.197.403-.405.085-.891.128-1.458.128-.769 0-1.446-.149-2.031-.446-.581-.302-1.036-.751-1.366-1.345-.326-.595-.489-1.333-.489-2.216 0-.877.149-1.623.446-2.236.298-.614.715-1.081 1.253-1.4017.538-.3209 1.166-.4813 1.883-.4813Zm0 1.253c-.524 0-.949.17-1.274.509-.321.34-.51.838-.566 1.494h3.567c-.005-.392-.071-.739-.198-1.041-.123-.302-.312-.538-.566-.707-.251-.17-.571-.255-.963-.255Zm14.085-1.253c.878 0 1.538.2265 1.982.6795.448.4525.672 1.1795.672 2.1805v5.124h-1.663v-4.827c0-.595-.116-1.043-.347-1.345-.231-.302-.582-.453-1.054-.453-.661 0-1.138.212-1.43.637-.288.42-.432 1.031-.432 1.833v4.155h-1.663v-4.827c0-.397-.052-.727-.156-.991-.099-.269-.252-.47-.46-.602-.208-.137-.47-.205-.786-.205-.457 0-.823.104-1.097.311-.269.208-.462.515-.58.921-.118.401-.177.894-.177 1.479v3.914h-1.663v-7.8354h1.295l.233 1.0544h.092c.161-.273.359-.4976.595-.6722.241-.1793.507-.3114.8-.3963.292-.0897.597-.1345.913-.1345.585 0 1.078.1038 1.479.3114.401.2029.701.5146.899.9346h.127c.246-.425.588-.7388 1.027-.9417.439-.2029.903-.3043 1.394-.3043Zm8.097 0c.699 0 1.298.1439 1.798.4317.5.2883.885.6963 1.154 1.2243.269.529.403 1.161.403 1.897v.892h-5.23c.019.76.222 1.345.608 1.755.392.411.939.616 1.643.616.5 0 .948-.047 1.344-.141.401-.1.814-.243 1.239-.432v1.352c-.392.184-.79.318-1.196.403-.406.085-.892.128-1.458.128-.769 0-1.446-.149-2.032-.446-.58-.302-1.035-.751-1.366-1.345-.325-.595-.488-1.333-.488-2.216 0-.877.149-1.623.446-2.236.297-.614.715-1.081 1.253-1.4017.538-.3209 1.165-.4813 1.882-.4813Zm0 1.253c-.523 0-.948.17-1.274.509-.32.34-.509.838-.566 1.494h3.567c-.004-.392-.07-.739-.198-1.041-.122-.302-.311-.538-.566-.707-.25-.17-.571-.255-.963-.255Zm9.315-1.253c.883 0 1.569.2288 2.06.6865.495.4535.743 1.1825.743 2.1875v5.11h-1.663v-4.799c0-.609-.125-1.064-.375-1.366-.251-.307-.637-.46-1.161-.46-.76 0-1.288.234-1.586.701-.292.467-.439 1.144-.439 2.031v3.893h-1.663v-7.8354h1.295l.234 1.0614h.092c.17-.273.38-.4975.63-.6721.255-.1793.538-.3138.849-.4034.316-.0897.644-.1345.984-.1345Z"/>
      <path fill="#B1B1B1" d="M37.1509 90.2085c0-3.3709 2.7326-6.1035 6.1035-6.1035H177.531c3.371 0 6.104 2.7326 6.104 6.1035v28.2285H37.1509V90.2085Z"/>
      <path fill="#fff" d="M94.9364 107.271h-1.6846V96.9229h5.8465v1.4298h-4.1619v3.2273h3.8929v1.423h-3.8929v4.268Zm7.5376-7.8354v7.8354h-1.663v-7.8354h1.663Zm-.821-3.0011c.255 0 .475.0685.659.2053.188.1368.283.3728.283.7078 0 .3303-.095.5662-.283.7078-.184.1368-.404.2053-.659.2053-.264 0-.488-.0685-.672-.2053-.179-.1416-.269-.3775-.269-.7078 0-.335.09-.571.269-.7078.184-.1368.408-.2053.672-.2053Zm4.877 10.8365h-1.67V96.2576h1.67v11.0134Zm5.295-1.203c.217 0 .431-.019.644-.057.212-.042.405-.092.58-.149v1.26c-.184.081-.422.149-.715.206-.292.056-.597.085-.913.085-.443 0-.842-.074-1.196-.22-.354-.151-.635-.408-.842-.771-.208-.364-.312-.866-.312-1.508v-4.211h-1.069v-.7436l1.147-.5875.545-1.6775h1.048v1.7412h2.243v1.2674h-2.243v4.19c0 .396.099.691.297.885.198.193.46.29.786.29Zm5.938-6.781c.698 0 1.298.1439 1.798.4317.5.2883.885.6963 1.154 1.2243.269.529.403 1.161.403 1.897v.892h-5.231c.019.76.222 1.345.609 1.755.392.411.939.616 1.642.616.5 0 .949-.047 1.345-.141.401-.1.814-.243 1.239-.432v1.352c-.392.184-.791.318-1.197.403-.405.085-.891.128-1.458.128-.769 0-1.446-.149-2.031-.446-.58-.302-1.036-.751-1.366-1.345-.326-.595-.488-1.333-.488-2.216 0-.877.148-1.623.445-2.236.298-.614.715-1.081 1.253-1.4017.538-.3209 1.166-.4813 1.883-.4813Zm0 1.253c-.524 0-.948.17-1.274.509-.321.34-.51.838-.566 1.494h3.567c-.005-.392-.071-.739-.198-1.041-.123-.302-.312-.538-.566-.707-.25-.17-.571-.255-.963-.255Zm9.201-1.253c.133 0 .276.0071.432.0212.156.0142.29.033.404.0566l-.156 1.5572c-.099-.028-.222-.05-.368-.064-.142-.014-.269-.021-.382-.021-.298 0-.581.05-.85.149-.269.094-.507.24-.715.439-.207.193-.37.436-.488.729-.118.292-.177.632-.177 1.019v4.098h-1.67v-7.8354h1.302l.227 1.3804h.077c.156-.279.35-.533.581-.765.231-.2308.495-.4148.793-.5517.302-.1415.632-.2123.99-.2123Z"/>
      <path fill="#F7F7F7" d="M37.1509 118.437h308.227v746.152H37.1509z"/>
      <rect width="12.207" height="12.207" x="85.2159" y="157.955" fill="#39B5AC" rx="3.05175"/>
      <path fill="#fff" d="M90.213 166.41c.1341.134.3621.134.4962 0l3.9428-3.943c.1342-.134.1342-.362 0-.496l-.4827-.483c-.1342-.134-.3487-.134-.4828 0l-3.2187 3.219-1.5154-1.502c-.1341-.134-.3487-.134-.4828 0l-.4828.483c-.1341.134-.1341.362 0 .496l2.2262 2.226Z"/>
      <path fill="#282828" d="M107.77 160.344h2.468c1.089 0 1.907.163 2.456.489.548.326.822.88.822 1.663 0 .337-.065.641-.197.912-.127.266-.313.486-.56.661-.246.175-.55.296-.912.364v.059c.382.06.719.169 1.013.328.295.159.525.382.692.668.167.286.25.649.25 1.091 0 .536-.125.989-.375 1.359-.247.369-.596.649-1.049.84-.453.187-.99.28-1.61.28h-2.998v-8.714Zm1.014 3.737h1.668c.759 0 1.284-.125 1.574-.375.294-.251.441-.616.441-1.097 0-.497-.175-.854-.524-1.073-.346-.219-.898-.328-1.657-.328h-1.502v2.873Zm0 .852v3.261h1.811c.775 0 1.324-.151 1.646-.453.321-.306.482-.717.482-1.234 0-.33-.073-.612-.22-.846-.143-.235-.378-.414-.703-.537-.322-.127-.753-.191-1.294-.191h-1.722Zm9.173-2.515c.778 0 1.357.175 1.734.525.378.349.566.908.566 1.675v4.44h-.721l-.191-.965h-.047c-.183.238-.374.439-.572.602-.199.158-.43.28-.692.363-.258.08-.576.119-.954.119-.397 0-.751-.069-1.061-.208-.305-.139-.548-.35-.727-.632-.175-.282-.262-.64-.262-1.073 0-.652.258-1.152.775-1.502.516-.35 1.303-.54 2.36-.572l1.127-.048v-.399c0-.565-.121-.96-.364-1.186-.242-.227-.584-.34-1.025-.34-.342 0-.668.05-.978.149-.309.099-.604.216-.882.352l-.304-.751c.294-.151.632-.281 1.014-.388.381-.107.782-.161 1.204-.161Zm1.323 3.421-.996.042c-.814.032-1.388.165-1.722.4-.334.234-.501.566-.501.995 0 .373.113.65.34.828.226.179.526.269.9.269.58 0 1.055-.161 1.425-.483.369-.322.554-.805.554-1.449v-.602Zm8.41-3.314v6.533h-.811l-.143-.918h-.053c-.135.227-.31.417-.525.572-.214.155-.457.271-.727.346-.266.08-.55.119-.852.119-.517 0-.95-.083-1.3-.25-.349-.167-.614-.425-.792-.775-.175-.35-.263-.799-.263-1.347v-4.28h1.002v4.209c0 .544.123.951.369 1.221.247.267.622.4 1.127.4.485 0 .87-.092 1.156-.274.29-.183.499-.451.626-.805.127-.358.191-.795.191-1.311v-3.44h.995Zm4.607-.119c.557 0 1.034.123 1.431.37.397.246.701.592.912 1.037.211.441.316.958.316 1.55v.614h-4.512c.012.766.202 1.351.572 1.752.37.401.89.602 1.562.602.413 0 .778-.038 1.096-.113.318-.076.648-.187.99-.334v.87c-.33.147-.658.254-.984.322-.322.068-.703.101-1.144.101-.628 0-1.176-.127-1.645-.381-.465-.258-.827-.636-1.085-1.133-.258-.496-.387-1.104-.387-1.824 0-.703.117-1.311.351-1.823.239-.517.572-.914 1.002-1.193.433-.278.941-.417 1.525-.417Zm-.011.811c-.529 0-.95.173-1.264.518-.314.346-.501.829-.56 1.449h3.457c-.004-.39-.066-.731-.185-1.025-.115-.298-.292-.529-.531-.692-.238-.167-.544-.25-.917-.25Zm7.444-.811c.775 0 1.361.191 1.758.572.398.378.597.986.597 1.824v4.256h-.978v-4.19c0-.544-.125-.952-.375-1.222-.247-.27-.626-.405-1.139-.405-.723 0-1.232.204-1.526.614-.294.409-.441 1.003-.441 1.782v3.421h-.989v-6.533h.798l.149.942h.054c.139-.23.316-.423.531-.578.214-.159.454-.278.721-.358.266-.083.546-.125.84-.125Zm12.958.119v6.533h-.81l-.144-.918h-.053c-.135.227-.31.417-.525.572-.214.155-.457.271-.727.346-.266.08-.55.119-.852.119-.517 0-.95-.083-1.3-.25-.349-.167-.614-.425-.792-.775-.175-.35-.263-.799-.263-1.347v-4.28h1.002v4.209c0 .544.123.951.369 1.221.247.267.622.4 1.127.4.485 0 .87-.092 1.156-.274.29-.183.499-.451.626-.805.127-.358.191-.795.191-1.311v-3.44h.995Zm5.186-.119c.775 0 1.361.191 1.758.572.397.378.596.986.596 1.824v4.256h-.977v-4.19c0-.544-.126-.952-.376-1.222-.246-.27-.626-.405-1.138-.405-.724 0-1.232.204-1.526.614-.294.409-.441 1.003-.441 1.782v3.421h-.99v-6.533h.799l.149.942h.054c.139-.23.316-.423.53-.578.215-.159.455-.278.721-.358.267-.083.547-.125.841-.125Zm6.717 6.771c-.826 0-1.482-.282-1.967-.846-.481-.564-.721-1.403-.721-2.515 0-1.125.246-1.973.739-2.545.493-.577 1.148-.865 1.967-.865.346 0 .648.046.906.137.258.092.481.215.668.37.186.151.343.324.47.518h.072c-.016-.123-.032-.292-.048-.506-.016-.215-.024-.39-.024-.525v-2.616h.99v9.274h-.799l-.149-.93h-.042c-.123.195-.28.372-.47.531-.187.159-.412.286-.674.381-.258.092-.564.137-.918.137Zm.155-.822c.699 0 1.194-.199 1.484-.596.29-.398.435-.988.435-1.771v-.178c0-.831-.139-1.469-.417-1.914-.274-.445-.775-.667-1.502-.667-.608 0-1.063.234-1.365.703-.302.465-.453 1.101-.453 1.907 0 .803.149 1.423.447 1.86.302.437.759.656 1.371.656Zm14.597.703h-1.198l-3.141-4.238-.93.835v3.403h-1.013v-8.714h1.013v4.345c.227-.258.459-.514.698-.769.238-.258.474-.518.709-.781l2.545-2.795h1.186l-3.469 3.779 3.6 4.935Zm6.676-3.278c0 .536-.07 1.015-.209 1.436-.139.422-.339.777-.602 1.067-.262.29-.58.513-.953.668-.37.151-.789.226-1.258.226-.437 0-.838-.075-1.204-.226-.362-.155-.676-.378-.942-.668-.262-.29-.467-.645-.614-1.067-.143-.421-.214-.9-.214-1.436 0-.715.121-1.323.363-1.824.243-.505.588-.888 1.037-1.15.453-.267.992-.4 1.616-.4.596 0 1.116.133 1.561.4.449.266.797.651 1.043 1.156.251.501.376 1.107.376 1.818Zm-4.971 0c0 .524.069.979.209 1.365.139.385.353.683.643.894.29.21.664.316 1.121.316.453 0 .824-.106 1.114-.316.295-.211.511-.509.65-.894.139-.386.209-.841.209-1.365 0-.521-.07-.97-.209-1.347-.139-.382-.354-.676-.644-.882-.29-.207-.665-.31-1.126-.31-.68 0-1.178.224-1.496.673-.314.449-.471 1.071-.471 1.866Zm9.775-3.374c.775 0 1.361.191 1.758.572.398.378.596.986.596 1.824v4.256h-.977v-4.19c0-.544-.125-.952-.376-1.222-.246-.27-.625-.405-1.138-.405-.723 0-1.232.204-1.526.614-.294.409-.441 1.003-.441 1.782v3.421h-.989v-6.533h.798l.149.942h.054c.139-.23.316-.423.53-.578.215-.159.455-.278.722-.358.266-.083.546-.125.84-.125Zm8.619 4.864c0 .417-.105.769-.316 1.055-.207.282-.505.495-.894.638-.386.143-.846.214-1.383.214-.457 0-.852-.035-1.186-.107-.334-.071-.626-.173-.876-.304v-.912c.266.131.584.25.953.358.37.107.747.161 1.133.161.564 0 .973-.092 1.228-.275.254-.182.381-.431.381-.745 0-.178-.051-.335-.155-.47-.099-.14-.268-.273-.506-.4-.239-.131-.569-.274-.99-.429-.417-.159-.779-.316-1.085-.471-.302-.159-.536-.351-.703-.578-.163-.226-.244-.521-.244-.882 0-.552.222-.976.667-1.27.449-.298 1.037-.447 1.765-.447.393 0 .761.04 1.102.119.346.076.668.179.966.31l-.334.793c-.27-.115-.558-.212-.864-.292-.306-.079-.618-.119-.936-.119-.457 0-.809.075-1.055.226-.242.151-.364.358-.364.62 0 .203.056.37.167.501.116.131.298.254.549.369.25.116.58.251.989.406.409.151.763.308 1.061.471.298.159.527.353.685.584.163.226.245.518.245.876Zm3.701 1.097c.163 0 .33-.014.501-.042.171-.028.31-.062.417-.101v.769c-.115.051-.276.095-.483.131-.202.035-.401.053-.596.053-.345 0-.659-.059-.941-.178-.282-.124-.509-.33-.68-.62-.167-.29-.25-.692-.25-1.204V163.3h-.93v-.482l.936-.388.393-1.418h.596v1.513h1.914v.775h-1.914v3.845c0 .409.094.715.28.918.191.202.443.304.757.304Zm5.21-5.961c.131 0 .268.008.411.024.143.012.27.03.381.054l-.125.918c-.107-.028-.226-.05-.357-.066-.131-.016-.255-.024-.37-.024-.262 0-.51.054-.745.161-.23.103-.433.254-.608.453-.175.195-.312.431-.411.709-.099.275-.149.581-.149.918v3.505h-.996v-6.533h.823l.107 1.204h.042c.135-.242.298-.462.489-.661.19-.203.411-.364.661-.483.255-.119.537-.179.847-.179Zm7.42.119v6.533h-.81l-.143-.918h-.054c-.135.227-.31.417-.524.572-.215.155-.457.271-.728.346-.266.08-.55.119-.852.119-.516 0-.95-.083-1.299-.25-.35-.167-.614-.425-.793-.775-.175-.35-.262-.799-.262-1.347v-4.28h1.001v4.209c0 .544.123.951.37 1.221.246.267.622.4 1.126.4.485 0 .87-.092 1.157-.274.29-.183.498-.451.625-.805.128-.358.191-.795.191-1.311v-3.44h.995Zm3.082 0v6.533h-.989v-6.533h.989Zm-.483-2.443c.163 0 .302.053.417.161.12.103.179.266.179.488 0 .219-.059.382-.179.489-.115.107-.254.161-.417.161-.171 0-.314-.054-.429-.161-.111-.107-.167-.27-.167-.489 0-.222.056-.385.167-.488.115-.108.258-.161.429-.161Zm5.096 2.324c.557 0 1.034.123 1.431.37.397.246.701.592.912 1.037.21.441.316.958.316 1.55v.614h-4.512c.012.766.202 1.351.572 1.752.369.401.89.602 1.562.602.413 0 .778-.038 1.096-.113.318-.076.648-.187.99-.334v.87c-.33.147-.658.254-.984.322-.322.068-.703.101-1.144.101-.628 0-1.176-.127-1.645-.381-.465-.258-.827-.636-1.085-1.133-.258-.496-.387-1.104-.387-1.824 0-.703.117-1.311.351-1.823.239-.517.572-.914 1.002-1.193.433-.278.941-.417 1.525-.417Zm-.011.811c-.529 0-.95.173-1.264.518-.314.346-.501.829-.56 1.449h3.457c-.004-.39-.066-.731-.185-1.025-.115-.298-.292-.529-.531-.692-.238-.167-.544-.25-.917-.25Zm7.319-.811c.131 0 .268.008.411.024.143.012.27.03.382.054l-.125.918c-.108-.028-.227-.05-.358-.066-.131-.016-.254-.024-.37-.024-.262 0-.51.054-.745.161-.23.103-.433.254-.608.453-.175.195-.312.431-.411.709-.099.275-.149.581-.149.918v3.505h-.995v-6.533h.822l.107 1.204h.042c.135-.242.298-.462.489-.661.191-.203.411-.364.662-.483.254-.119.536-.179.846-.179Zm4.542 0c.556 0 1.033.123 1.43.37.398.246.702.592.912 1.037.211.441.316.958.316 1.55v.614h-4.512c.012.766.203 1.351.572 1.752.37.401.89.602 1.562.602.413 0 .779-.038 1.097-.113.318-.076.647-.187.989-.334v.87c-.33.147-.658.254-.983.322-.322.068-.704.101-1.145.101-.628 0-1.176-.127-1.645-.381-.465-.258-.826-.636-1.085-1.133-.258-.496-.387-1.104-.387-1.824 0-.703.117-1.311.352-1.823.238-.517.572-.914 1.001-1.193.433-.278.942-.417 1.526-.417Zm-.012.811c-.529 0-.95.173-1.264.518-.314.346-.5.829-.56 1.449h3.457c-.004-.39-.066-.731-.185-1.025-.115-.298-.292-.529-.53-.692-.239-.167-.545-.25-.918-.25Zm7.444-.811c.775 0 1.361.191 1.759.572.397.378.596.986.596 1.824v4.256h-.978v-4.19c0-.544-.125-.952-.375-1.222-.247-.27-.626-.405-1.139-.405-.723 0-1.231.204-1.525.614-.295.409-.442 1.003-.442 1.782v3.421h-.989v-6.533h.799l.149.942h.053c.139-.23.316-.423.531-.578.214-.159.455-.278.721-.358.266-.083.546-.125.84-.125Z"/>
      <rect width="12.207" height="12.207" x="85.2159" y="189.688" fill="#39B5AC" rx="3.05175"/>
      <path fill="#fff" d="M90.213 198.143c.1341.134.3621.134.4962 0l3.9428-3.943c.1342-.134.1342-.362 0-.496l-.4827-.483c-.1342-.134-.3487-.134-.4828 0l-3.2187 3.219-1.5154-1.502c-.1341-.134-.3487-.134-.4828 0l-.4828.483c-.1341.134-.1341.362 0 .496l2.2262 2.226Z"/>
      <path fill="#282828" d="M107.77 192.077h2.468c1.089 0 1.907.163 2.456.489.548.325.822.88.822 1.663 0 .337-.065.641-.197.912-.127.266-.313.486-.56.661-.246.175-.55.296-.912.364v.059c.382.06.719.169 1.013.328.295.159.525.382.692.668.167.286.25.649.25 1.09 0 .537-.125.99-.375 1.359-.247.37-.596.65-1.049.841-.453.187-.99.28-1.61.28h-2.998v-8.714Zm1.014 3.737h1.668c.759 0 1.284-.125 1.574-.375.294-.251.441-.616.441-1.097 0-.497-.175-.855-.524-1.073-.346-.219-.898-.328-1.657-.328h-1.502v2.873Zm0 .852v3.261h1.811c.775 0 1.324-.151 1.646-.453.321-.306.482-.717.482-1.234 0-.33-.073-.612-.22-.846-.143-.235-.378-.414-.703-.537-.322-.127-.753-.191-1.294-.191h-1.722Zm9.244-2.527c.556 0 1.033.123 1.431.37.397.246.701.592.912 1.037.21.441.316.957.316 1.55v.613h-4.513c.012.767.203 1.351.573 1.753.369.401.89.602 1.561.602.414 0 .779-.038 1.097-.113.318-.076.648-.187.989-.334v.87c-.329.147-.657.254-.983.322-.322.067-.703.101-1.144.101-.628 0-1.177-.127-1.645-.381-.465-.259-.827-.636-1.085-1.133-.259-.496-.388-1.104-.388-1.824 0-.703.117-1.311.352-1.824.238-.516.572-.913 1.001-1.192.433-.278.942-.417 1.526-.417Zm-.012.811c-.528 0-.949.173-1.263.518-.314.346-.501.829-.561 1.449h3.457c-.004-.39-.065-.731-.184-1.025-.116-.298-.292-.529-.531-.692-.238-.167-.544-.25-.918-.25Zm9.984 2.563c0 .536-.07 1.015-.209 1.436-.139.421-.339.777-.602 1.067-.262.29-.58.513-.953.668-.37.151-.789.226-1.258.226-.437 0-.838-.075-1.204-.226-.362-.155-.675-.378-.942-.668-.262-.29-.467-.646-.614-1.067-.143-.421-.214-.9-.214-1.436 0-.715.121-1.323.363-1.824.243-.505.588-.888 1.037-1.15.453-.267.992-.4 1.616-.4.596 0 1.116.133 1.561.4.449.266.797.651 1.043 1.156.251.501.376 1.106.376 1.818Zm-4.971 0c0 .524.07.979.209 1.365.139.385.353.683.643.894.29.21.664.316 1.121.316.453 0 .824-.106 1.114-.316.295-.211.511-.509.65-.894.139-.386.209-.841.209-1.365 0-.521-.07-.97-.209-1.347-.139-.382-.353-.676-.644-.882-.29-.207-.665-.31-1.126-.31-.68 0-1.178.224-1.496.673-.314.449-.471 1.071-.471 1.866Zm7.671-5.996v2.318c0 .266-.008.525-.024.775-.012.25-.022.445-.03.584h.054c.179-.294.437-.542.775-.745.338-.203.769-.304 1.293-.304.819 0 1.471.284 1.955.852.489.565.734 1.405.734 2.522 0 .735-.112 1.355-.334 1.859-.223.505-.537.887-.942 1.145-.405.258-.884.387-1.436.387-.517 0-.942-.095-1.276-.286-.33-.195-.584-.431-.763-.709h-.077l-.203.876h-.715v-9.274h.989Zm1.907 3.457c-.472 0-.848.093-1.126.28-.278.183-.479.461-.602.834-.119.37-.179.839-.179 1.407v.054c0 .822.137 1.452.411 1.889.275.433.773.65 1.496.65.608 0 1.063-.223 1.365-.668.306-.445.459-1.081.459-1.907 0-.843-.151-1.476-.453-1.902-.298-.425-.755-.637-1.371-.637Zm7.022-.823c.779 0 1.357.175 1.734.525.378.349.567.908.567 1.674v4.441h-.722l-.19-.966h-.048c-.183.239-.374.44-.572.602-.199.159-.429.281-.692.364-.258.079-.576.119-.953.119-.398 0-.751-.069-1.061-.208-.306-.139-.549-.35-.727-.632-.175-.282-.263-.64-.263-1.073 0-.652.259-1.152.775-1.502.517-.35 1.303-.541 2.36-.572l1.127-.048v-.399c0-.565-.121-.96-.364-1.186-.242-.227-.584-.34-1.025-.34-.342 0-.667.049-.977.149-.31.099-.604.216-.882.351l-.304-.751c.294-.151.631-.28 1.013-.387.381-.107.783-.161 1.204-.161Zm1.323 3.421-.995.042c-.815.032-1.389.165-1.723.399-.334.235-.501.567-.501.996 0 .373.114.65.34.828.227.179.527.269.9.269.58 0 1.055-.161 1.425-.483.369-.322.554-.805.554-1.449v-.602Zm5.633 3.338c-.588 0-1.107-.121-1.556-.363-.449-.243-.799-.612-1.049-1.109-.25-.497-.376-1.123-.376-1.878 0-.79.132-1.436.394-1.937.266-.504.632-.878 1.097-1.12.464-.243.993-.364 1.585-.364.326 0 .64.034.942.101.306.064.556.146.751.245l-.298.828c-.199-.079-.429-.151-.692-.214-.258-.064-.5-.096-.727-.096-.453 0-.83.098-1.132.292-.298.195-.523.481-.674.859-.147.377-.22.842-.22 1.395 0 .528.071.979.214 1.353.147.373.364.659.65.858.29.195.652.292 1.085.292.345 0 .657-.036.935-.107.279-.076.531-.163.757-.263v.883c-.218.111-.462.196-.733.256-.266.059-.584.089-.953.089Zm4.226-9.393v2.771c0 .159-.004.32-.012.483-.008.159-.022.306-.042.441h.066c.135-.23.306-.423.512-.578.211-.159.449-.278.715-.358.267-.083.549-.125.847-.125.524 0 .961.084 1.311.25.354.167.618.426.793.775.179.35.268.803.268 1.359v4.256h-.977v-4.19c0-.545-.126-.952-.376-1.222-.246-.27-.626-.405-1.138-.405-.485 0-.873.093-1.163.28-.286.183-.492.453-.62.81-.123.358-.184.795-.184 1.312v3.415h-.99v-9.274h.99Zm8.606 8.583c.163 0 .33-.014.501-.042.171-.028.31-.062.417-.101v.768c-.115.052-.276.096-.482.132-.203.035-.402.053-.596.053-.346 0-.66-.059-.942-.179-.282-.123-.509-.329-.68-.619-.167-.291-.25-.692-.25-1.204v-3.875h-.93v-.483l.936-.387.393-1.419h.596v1.514h1.914v.775h-1.914v3.845c0 .409.094.715.281.918.19.202.443.304.756.304Zm7.636-5.842v6.533h-.811l-.143-.918h-.053c-.136.227-.31.417-.525.572-.215.155-.457.271-.727.346-.266.079-.551.119-.853.119-.516 0-.949-.083-1.299-.25-.35-.167-.614-.425-.793-.775-.174-.35-.262-.799-.262-1.347v-4.28h1.001v4.208c0 .545.124.952.37 1.222.246.267.622.4 1.127.4.484 0 .87-.092 1.156-.274.29-.183.499-.452.626-.805.127-.358.19-.795.19-1.311v-3.44h.996Zm5.185-.119c.775 0 1.361.191 1.759.572.397.378.596.986.596 1.824v4.256h-.978v-4.19c0-.545-.125-.952-.375-1.222-.247-.27-.626-.405-1.139-.405-.723 0-1.232.204-1.526.614-.294.409-.441 1.003-.441 1.782v3.421h-.989v-6.533h.799l.149.942h.053c.139-.23.316-.423.531-.578.214-.159.455-.278.721-.358.266-.083.546-.125.84-.125Zm6.217 9.585c-.858 0-1.52-.161-1.985-.483-.465-.318-.697-.765-.697-1.341 0-.41.129-.759.387-1.049.263-.29.624-.483 1.085-.579-.171-.079-.318-.198-.441-.357-.119-.159-.179-.342-.179-.549 0-.238.066-.447.197-.625.135-.183.34-.358.614-.525-.342-.139-.62-.373-.835-.703-.21-.334-.315-.721-.315-1.163 0-.468.097-.868.292-1.198.194-.333.476-.588.846-.763.37-.174.817-.262 1.341-.262.115 0 .231.006.346.018.119.008.232.022.34.042.107.016.2.036.28.059h2.241v.638l-1.204.149c.119.155.218.342.298.561.079.218.119.46.119.727 0 .651-.22 1.17-.662 1.555-.441.382-1.047.573-1.818.573-.182 0-.369-.016-.56-.048-.194.107-.344.226-.447.358-.099.131-.149.282-.149.452 0 .128.038.229.113.304.08.076.193.132.34.167.147.032.324.048.531.048h1.15c.711 0 1.256.149 1.633.447.382.298.572.733.572 1.305 0 .724-.294 1.278-.882 1.663-.588.386-1.438.579-2.551.579Zm.03-.775c.54 0 .987-.056 1.341-.167.358-.107.624-.264.799-.471.179-.203.268-.445.268-.727 0-.263-.06-.461-.179-.596-.119-.131-.294-.219-.524-.263-.231-.047-.513-.071-.847-.071h-1.132c-.294 0-.551.046-.769.137-.219.091-.388.227-.507.405-.115.179-.173.402-.173.668 0 .354.149.622.447.805.298.186.724.28 1.276.28Zm.256-5.222c.473 0 .829-.119 1.067-.357.239-.239.358-.586.358-1.043 0-.489-.121-.855-.364-1.097-.242-.246-.6-.37-1.073-.37-.453 0-.802.128-1.049.382-.242.25-.363.618-.363 1.103 0 .445.123.786.369 1.025.247.238.598.357 1.055.357Zm13.083-3.469v6.533h-.81l-.143-.918h-.054c-.135.227-.31.417-.524.572-.215.155-.457.271-.728.346-.266.079-.55.119-.852.119-.516 0-.95-.083-1.299-.25-.35-.167-.614-.425-.793-.775-.175-.35-.262-.799-.262-1.347v-4.28h1.001v4.208c0 .545.123.952.37 1.222.246.267.621.4 1.126.4.485 0 .87-.092 1.156-.274.291-.183.499-.452.626-.805.127-.358.191-.795.191-1.311v-3.44h.995Zm5.186-.119c.775 0 1.361.191 1.758.572.398.378.596.986.596 1.824v4.256h-.977v-4.19c0-.545-.125-.952-.376-1.222-.246-.27-.625-.405-1.138-.405-.723 0-1.232.204-1.526.614-.294.409-.441 1.003-.441 1.782v3.421h-.989v-6.533h.798l.149.942h.054c.139-.23.316-.423.53-.578.215-.159.455-.278.722-.358.266-.083.546-.125.84-.125Zm6.717 6.771c-.826 0-1.482-.282-1.967-.846-.48-.564-.721-1.403-.721-2.515 0-1.125.247-1.973.739-2.546.493-.576 1.149-.864 1.967-.864.346 0 .648.046.906.137.259.092.481.215.668.37.187.151.344.324.471.518h.071c-.016-.123-.032-.292-.047-.506-.016-.215-.024-.39-.024-.525v-2.616h.989v9.274h-.799l-.149-.93h-.041c-.123.195-.28.372-.471.531-.187.159-.411.286-.674.381-.258.092-.564.137-.918.137Zm.155-.822c.7 0 1.194-.199 1.485-.596.29-.398.435-.988.435-1.771v-.178c0-.831-.139-1.469-.418-1.914-.274-.445-.774-.667-1.502-.667-.608 0-1.063.234-1.365.703-.302.465-.453 1.101-.453 1.907 0 .803.149 1.423.448 1.86.302.437.758.656 1.37.656Zm15.235-3.738c0 .982-.179 1.803-.536 2.462-.358.656-.876 1.151-1.556 1.484-.675.33-1.496.495-2.461.495h-2.367v-8.714h2.629c.886 0 1.649.163 2.289.489.639.321 1.132.8 1.478 1.436.349.632.524 1.415.524 2.348Zm-1.067.036c0-.783-.131-1.428-.393-1.937-.258-.509-.64-.886-1.144-1.132-.501-.251-1.115-.376-1.842-.376h-1.46v6.98h1.233c1.2 0 2.1-.296 2.7-.888.604-.592.906-1.475.906-2.647Zm8.488 1.127c0 .536-.069 1.015-.209 1.436-.139.421-.339.777-.602 1.067-.262.29-.58.513-.953.668-.37.151-.789.226-1.258.226-.437 0-.838-.075-1.204-.226-.361-.155-.675-.378-.942-.668-.262-.29-.467-.646-.614-1.067-.143-.421-.214-.9-.214-1.436 0-.715.121-1.323.363-1.824.243-.505.589-.888 1.038-1.15.453-.267.991-.4 1.615-.4.596 0 1.116.133 1.561.4.449.266.797.651 1.044 1.156.25.501.375 1.106.375 1.818Zm-4.971 0c0 .524.07.979.209 1.365.139.385.353.683.643.894.29.21.664.316 1.121.316.453 0 .824-.106 1.115-.316.294-.211.51-.509.649-.894.139-.386.209-.841.209-1.365 0-.521-.07-.97-.209-1.347-.139-.382-.353-.676-.643-.882-.291-.207-.666-.31-1.127-.31-.679 0-1.178.224-1.496.673-.314.449-.471 1.071-.471 1.866Zm7.665-5.996v4.816c0 .159-.006.353-.018.584-.012.226-.022.427-.03.602h.042c.084-.104.205-.257.364-.459.163-.203.3-.366.411-.489l2.17-2.313h1.162l-2.629 2.79 2.82 3.743h-1.192l-2.307-3.093-.793.727v2.366h-.983v-9.274h.983Zm10.824 2.741v6.533h-.81l-.143-.918h-.054c-.135.227-.31.417-.524.572-.215.155-.457.271-.728.346-.266.079-.55.119-.852.119-.517 0-.95-.083-1.299-.25-.35-.167-.614-.425-.793-.775-.175-.35-.262-.799-.262-1.347v-4.28h1.001v4.208c0 .545.123.952.37 1.222.246.267.621.4 1.126.4.485 0 .87-.092 1.156-.274.29-.183.499-.452.626-.805.127-.358.191-.795.191-1.311v-3.44h.995Zm9.185-.119c.72 0 1.262.189 1.628.566.365.374.548.976.548 1.806v4.28h-.978v-4.232c0-.528-.115-.924-.345-1.186-.227-.266-.565-.399-1.014-.399-.631 0-1.09.182-1.376.548-.286.366-.43.904-.43 1.615v3.654h-.983v-4.232c0-.354-.052-.648-.155-.882-.099-.234-.25-.409-.453-.525-.199-.119-.451-.178-.757-.178-.433 0-.781.089-1.043.268-.262.179-.453.445-.572.799-.115.349-.173.78-.173 1.293v3.457h-.99v-6.533h.799l.149.924h.054c.131-.226.296-.417.495-.572.198-.155.421-.272.667-.352.246-.079.509-.119.787-.119.497 0 .912.094 1.246.28.337.183.582.463.733.841h.053c.215-.378.509-.658.883-.841.373-.186.782-.28 1.227-.28Zm6.724 0c.556 0 1.033.123 1.43.37.398.246.702.592.912 1.037.211.441.316.957.316 1.55v.613h-4.512c.012.767.203 1.351.572 1.753.37.401.89.602 1.562.602.413 0 .779-.038 1.097-.113.318-.076.647-.187.989-.334v.87c-.33.147-.658.254-.983.322-.322.067-.704.101-1.145.101-.628 0-1.176-.127-1.645-.381-.465-.259-.826-.636-1.085-1.133-.258-.496-.387-1.104-.387-1.824 0-.703.117-1.311.352-1.824.238-.516.572-.913 1.001-1.192.433-.278.942-.417 1.526-.417Zm-.012.811c-.529 0-.95.173-1.264.518-.314.346-.5.829-.56 1.449h3.457c-.004-.39-.066-.731-.185-1.025-.115-.298-.292-.529-.53-.692-.239-.167-.545-.25-.918-.25Zm7.444-.811c.775 0 1.361.191 1.759.572.397.378.596.986.596 1.824v4.256h-.978v-4.19c0-.545-.125-.952-.375-1.222-.247-.27-.626-.405-1.139-.405-.723 0-1.231.204-1.526.614-.294.409-.441 1.003-.441 1.782v3.421h-.989v-6.533h.799l.149.942h.053c.139-.23.316-.423.531-.578.214-.159.455-.278.721-.358.266-.083.546-.125.84-.125Zm6.503 5.961c.163 0 .33-.014.501-.042.171-.028.31-.062.417-.101v.768c-.115.052-.276.096-.483.132-.202.035-.401.053-.596.053-.345 0-.659-.059-.941-.179-.283-.123-.509-.329-.68-.619-.167-.291-.25-.692-.25-1.204v-3.875h-.93v-.483l.936-.387.393-1.419h.596v1.514h1.913v.775h-1.913v3.845c0 .409.094.715.28.918.191.202.443.304.757.304Zm4.685-5.949c.779 0 1.357.175 1.735.525.377.349.566.908.566 1.674v4.441h-.721l-.191-.966h-.048c-.182.239-.373.44-.572.602-.199.159-.429.281-.691.364-.259.079-.576.119-.954.119-.397 0-.751-.069-1.061-.208-.306-.139-.548-.35-.727-.632-.175-.282-.262-.64-.262-1.073 0-.652.258-1.152.774-1.502.517-.35 1.304-.541 2.361-.572l1.126-.048v-.399c0-.565-.121-.96-.363-1.186-.243-.227-.584-.34-1.025-.34-.342 0-.668.049-.978.149-.31.099-.604.216-.882.351l-.304-.751c.294-.151.632-.28 1.013-.387.382-.107.783-.161 1.204-.161Zm1.323 3.421-.995.042c-.815.032-1.389.165-1.723.399-.333.235-.5.567-.5.996 0 .373.113.65.34.828.226.179.526.269.9.269.58 0 1.055-.161 1.424-.483.37-.322.554-.805.554-1.449v-.602Zm5.126 2.528c.163 0 .33-.014.501-.042.171-.028.31-.062.417-.101v.768c-.115.052-.276.096-.482.132-.203.035-.402.053-.597.053-.345 0-.659-.059-.941-.179-.282-.123-.509-.329-.68-.619-.167-.291-.25-.692-.25-1.204v-3.875h-.93v-.483l.936-.387.393-1.419h.596v1.514h1.914v.775h-1.914v3.845c0 .409.094.715.28.918.191.202.443.304.757.304Zm3.231-5.842v6.533h-.989v-6.533h.989Zm-.483-2.443c.163 0 .302.053.417.161.12.103.179.266.179.488 0 .219-.059.382-.179.489-.115.107-.254.161-.417.161-.171 0-.314-.054-.429-.161-.111-.107-.167-.27-.167-.489 0-.222.056-.385.167-.488.115-.108.258-.161.429-.161Zm8.214 5.698c0 .536-.07 1.015-.209 1.436-.139.421-.34.777-.602 1.067-.262.29-.58.513-.954.668-.369.151-.788.226-1.257.226-.437 0-.839-.075-1.204-.226-.362-.155-.676-.378-.942-.668-.262-.29-.467-.646-.614-1.067-.143-.421-.215-.9-.215-1.436 0-.715.122-1.323.364-1.824.242-.505.588-.888 1.037-1.15.453-.267.992-.4 1.615-.4.596 0 1.117.133 1.562.4.449.266.797.651 1.043 1.156.25.501.376 1.106.376 1.818Zm-4.971 0c0 .524.069.979.208 1.365.139.385.354.683.644.894.29.21.664.316 1.121.316.453 0 .824-.106 1.114-.316.294-.211.511-.509.65-.894.139-.386.208-.841.208-1.365 0-.521-.069-.97-.208-1.347-.139-.382-.354-.676-.644-.882-.29-.207-.665-.31-1.126-.31-.68 0-1.179.224-1.496.673-.314.449-.471 1.071-.471 1.866Zm9.775-3.374c.775 0 1.361.191 1.758.572.397.378.596.986.596 1.824v4.256h-.977v-4.19c0-.545-.126-.952-.376-1.222-.246-.27-.626-.405-1.138-.405-.724 0-1.232.204-1.526.614-.294.409-.441 1.003-.441 1.782v3.421h-.99v-6.533h.799l.149.942h.054c.139-.23.316-.423.53-.578.215-.159.455-.278.721-.358.267-.083.547-.125.841-.125Z"/>
      <rect width="12.207" height="12.207" x="85.2159" y="221.42" fill="#fff" rx="3.05175"/>
      <rect width="12.207" height="12.207" x="85.2159" y="221.42" stroke="#DADADA" stroke-width=".762937" rx="3.05175"/>
      <path fill="#282828" d="M107.77 223.81h2.468c1.089 0 1.907.163 2.456.489.548.325.822.88.822 1.662 0 .338-.065.642-.197.912-.127.267-.313.487-.56.662-.246.175-.55.296-.912.364v.059c.382.06.719.169 1.013.328.295.159.525.382.692.668.167.286.25.649.25 1.09 0 .537-.125.99-.375 1.359-.247.37-.596.65-1.049.841-.453.187-.99.28-1.61.28h-2.998v-8.714Zm1.014 3.737h1.668c.759 0 1.284-.125 1.574-.376.294-.25.441-.615.441-1.096 0-.497-.175-.855-.524-1.073-.346-.219-.898-.328-1.657-.328h-1.502v2.873Zm0 .852v3.261h1.811c.775 0 1.324-.151 1.646-.453.321-.306.482-.718.482-1.234 0-.33-.073-.612-.22-.847-.143-.234-.378-.413-.703-.536-.322-.127-.753-.191-1.294-.191h-1.722Zm9.244-2.527c.556 0 1.033.123 1.431.37.397.246.701.592.912 1.037.21.441.316.957.316 1.549v.614h-4.513c.012.767.203 1.351.573 1.753.369.401.89.602 1.561.602.414 0 .779-.038 1.097-.113.318-.076.648-.187.989-.334v.87c-.329.147-.657.254-.983.322-.322.067-.703.101-1.144.101-.628 0-1.177-.127-1.645-.381-.465-.259-.827-.636-1.085-1.133-.259-.497-.388-1.104-.388-1.824 0-.703.117-1.311.352-1.824.238-.516.572-.914 1.001-1.192.433-.278.942-.417 1.526-.417Zm-.012.811c-.528 0-.949.173-1.263.518-.314.346-.501.829-.561 1.449h3.457c-.004-.39-.065-.732-.184-1.026-.116-.298-.292-.528-.531-.691-.238-.167-.544-.25-.918-.25Zm9.668 5.829-1.162-3.803c-.052-.163-.102-.322-.149-.477-.044-.159-.086-.31-.125-.453-.036-.147-.07-.282-.102-.405-.028-.127-.051-.236-.071-.328h-.042c-.016.092-.038.201-.066.328-.027.123-.061.258-.101.405-.036.147-.075.302-.119.465-.044.159-.093.32-.149.483l-1.216 3.785h-1.115l-1.8-6.533h1.026l.941 3.606c.064.239.123.475.179.71.06.23.109.449.149.655.044.203.076.38.095.531h.048c.024-.099.05-.219.078-.358.031-.139.065-.286.101-.441.04-.159.081-.316.125-.471.044-.159.088-.308.131-.447l1.204-3.785h1.067l1.162 3.779c.06.191.118.39.173.596.06.207.114.408.161.602.048.191.082.362.102.513h.047c.016-.135.046-.302.09-.501.043-.198.093-.417.149-.655.059-.239.121-.481.184-.728l.954-3.606h1.007l-1.806 6.533h-1.15Zm6.664-6.64c.556 0 1.033.123 1.43.37.398.246.702.592.912 1.037.211.441.316.957.316 1.549v.614h-4.512c.012.767.203 1.351.572 1.753.37.401.89.602 1.562.602.413 0 .779-.038 1.097-.113.318-.076.647-.187.989-.334v.87c-.33.147-.657.254-.983.322-.322.067-.704.101-1.145.101-.628 0-1.176-.127-1.645-.381-.465-.259-.826-.636-1.085-1.133-.258-.497-.387-1.104-.387-1.824 0-.703.117-1.311.352-1.824.238-.516.572-.914 1.001-1.192.433-.278.942-.417 1.526-.417Zm-.012.811c-.529 0-.95.173-1.264.518-.314.346-.5.829-.56 1.449h3.457c-.004-.39-.065-.732-.185-1.026-.115-.298-.292-.528-.53-.691-.239-.167-.545-.25-.918-.25Zm6.175 8.773c-.858 0-1.52-.16-1.985-.482-.465-.318-.697-.765-.697-1.341 0-.41.129-.759.387-1.049.262-.291.624-.483 1.085-.579-.171-.079-.318-.198-.441-.357-.119-.159-.179-.342-.179-.549 0-.238.066-.447.197-.625.135-.183.34-.358.614-.525-.342-.139-.62-.374-.835-.703-.21-.334-.316-.722-.316-1.163 0-.468.098-.868.292-1.198.195-.333.477-.588.847-.763.369-.174.816-.262 1.341-.262.115 0 .23.006.346.018.119.008.232.022.339.042.108.016.201.036.281.059h2.241v.638l-1.204.149c.119.155.218.342.298.56.079.219.119.461.119.728 0 .651-.221 1.17-.662 1.555-.441.382-1.047.572-1.818.572-.182 0-.369-.015-.56-.047-.195.107-.344.226-.447.357-.099.132-.149.283-.149.453 0 .128.038.229.113.304.08.076.193.132.34.167.147.032.324.048.53.048h1.151c.711 0 1.255.149 1.633.447.381.298.572.733.572 1.305 0 .724-.294 1.278-.882 1.663-.588.386-1.438.578-2.551.578Zm.03-.774c.54 0 .987-.056 1.341-.167.357-.108.624-.265.799-.471.178-.203.268-.445.268-.727 0-.263-.06-.461-.179-.596-.119-.132-.294-.219-.525-.263-.23-.047-.512-.071-.846-.071h-1.132c-.294 0-.551.046-.769.137-.219.091-.388.226-.507.405-.115.179-.173.402-.173.668 0 .353.149.622.447.804.298.187.723.281 1.276.281Zm.256-5.222c.473 0 .829-.119 1.067-.357.238-.239.358-.586.358-1.043 0-.489-.122-.855-.364-1.097-.242-.247-.6-.37-1.073-.37-.453 0-.803.127-1.049.382-.242.25-.363.618-.363 1.102 0 .445.123.787.369 1.026.246.238.598.357 1.055.357Zm9.912-3.469v6.533h-.81l-.143-.918h-.054c-.135.227-.31.417-.525.572-.214.155-.457.27-.727.346-.266.079-.55.119-.852.119-.517 0-.95-.083-1.299-.25-.35-.167-.614-.425-.793-.775-.175-.35-.262-.799-.262-1.347v-4.28h1.001v4.208c0 .545.123.952.369 1.222.247.266.622.4 1.127.4.485 0 .87-.092 1.156-.275.29-.182.499-.451.626-.804.127-.358.191-.795.191-1.312v-3.439h.995Zm5.186-.119c.775 0 1.361.191 1.758.572.398.378.596.986.596 1.824v4.256h-.977v-4.19c0-.545-.125-.952-.376-1.222-.246-.27-.626-.405-1.138-.405-.723 0-1.232.204-1.526.613-.294.41-.441 1.004-.441 1.783v3.421h-.99v-6.533h.799l.149.942h.054c.139-.23.316-.423.53-.578.215-.159.455-.278.721-.358.267-.083.547-.125.841-.125Zm6.217 9.584c-.859 0-1.52-.16-1.985-.482-.465-.318-.698-.765-.698-1.341 0-.41.13-.759.388-1.049.262-.291.624-.483 1.085-.579-.171-.079-.318-.198-.441-.357-.12-.159-.179-.342-.179-.549 0-.238.065-.447.196-.625.136-.183.34-.358.614-.525-.341-.139-.62-.374-.834-.703-.211-.334-.316-.722-.316-1.163 0-.468.097-.868.292-1.198.195-.333.477-.588.846-.763.37-.174.817-.262 1.342-.262.115 0 .23.006.345.018.119.008.233.022.34.042.107.016.201.036.28.059h2.241v.638l-1.204.149c.119.155.219.342.298.56.08.219.12.461.12.728 0 .651-.221 1.17-.662 1.555-.441.382-1.047.572-1.818.572-.183 0-.37-.015-.56-.047-.195.107-.344.226-.447.357-.1.132-.149.283-.149.453 0 .128.037.229.113.304.079.076.193.132.34.167.147.032.323.048.53.048h1.15c.712 0 1.256.149 1.634.447.381.298.572.733.572 1.305 0 .724-.294 1.278-.882 1.663-.588.386-1.439.578-2.551.578Zm.029-.774c.541 0 .988-.056 1.342-.167.357-.108.623-.265.798-.471.179-.203.268-.445.268-.727 0-.263-.059-.461-.178-.596-.12-.132-.294-.219-.525-.263-.23-.047-.512-.071-.846-.071h-1.133c-.294 0-.55.046-.769.137-.218.091-.387.226-.506.405-.116.179-.173.402-.173.668 0 .353.149.622.447.804.298.187.723.281 1.275.281Zm.257-5.222c.473 0 .828-.119 1.067-.357.238-.239.357-.586.357-1.043 0-.489-.121-.855-.363-1.097-.243-.247-.6-.37-1.073-.37-.453 0-.803.127-1.049.382-.243.25-.364.618-.364 1.102 0 .445.123.787.37 1.026.246.238.598.357 1.055.357Z"/>
      <rect width="12.207" height="12.207" x="85.2159" y="253.153" fill="#fff" rx="3.05175"/>
      <rect width="12.207" height="12.207" x="85.2159" y="253.153" stroke="#DADADA" stroke-width=".762937" rx="3.05175"/>
      <path fill="#282828" d="M107.77 255.543h2.468c1.089 0 1.907.163 2.456.488.548.326.822.881.822 1.663 0 .338-.065.642-.197.912-.127.267-.313.487-.56.662-.246.175-.55.296-.912.364v.059c.382.06.719.169 1.013.328.295.159.525.381.692.668.167.286.25.649.25 1.09 0 .537-.125.99-.375 1.359-.247.37-.596.65-1.049.841-.453.186-.99.28-1.61.28h-2.998v-8.714Zm1.014 3.737h1.668c.759 0 1.284-.125 1.574-.376.294-.25.441-.616.441-1.096 0-.497-.175-.855-.524-1.073-.346-.219-.898-.328-1.657-.328h-1.502v2.873Zm0 .852v3.261h1.811c.775 0 1.324-.151 1.646-.453.321-.306.482-.718.482-1.234 0-.33-.073-.612-.22-.847-.143-.234-.378-.413-.703-.536-.322-.127-.753-.191-1.294-.191h-1.722Zm7.718-2.408v6.533h-.989v-6.533h.989Zm-.483-2.444c.163 0 .302.054.418.161.119.104.179.267.179.489 0 .219-.06.382-.179.489-.116.107-.255.161-.418.161-.17 0-.313-.054-.429-.161-.111-.107-.167-.27-.167-.489 0-.222.056-.385.167-.489.116-.107.259-.161.429-.161Zm3.577 8.977h-.996v-9.275h.996v9.275Zm4.416.119c-.826 0-1.482-.282-1.966-.846-.481-.565-.722-1.403-.722-2.516 0-1.124.247-1.973.739-2.545.493-.576 1.149-.864 1.967-.864.346 0 .648.046.906.137.259.091.481.215.668.37.187.151.344.323.471.518h.071c-.016-.123-.031-.292-.047-.506-.016-.215-.024-.39-.024-.525v-2.617h.989v9.275h-.798l-.15-.93h-.041c-.123.195-.28.372-.471.53-.187.159-.411.287-.674.382-.258.091-.564.137-.918.137Zm.155-.822c.7 0 1.195-.199 1.485-.597.29-.397.435-.987.435-1.77v-.179c0-.83-.139-1.468-.418-1.913-.274-.445-.774-.667-1.502-.667-.608 0-1.063.234-1.365.703-.302.465-.453 1.101-.453 1.907 0 .803.15 1.423.448 1.86.302.437.758.656 1.37.656Zm10.389-5.83v6.533h-.81l-.143-.918h-.054c-.135.226-.31.417-.524.572-.215.155-.457.27-.728.346-.266.079-.55.119-.852.119-.516 0-.95-.083-1.299-.25-.35-.167-.614-.425-.793-.775-.175-.35-.262-.799-.262-1.347v-4.28h1.001v4.208c0 .545.123.952.37 1.222.246.266.622.4 1.126.4.485 0 .87-.092 1.157-.275.29-.182.498-.451.625-.804.128-.358.191-.795.191-1.312v-3.439h.995Zm5.186-.119c.775 0 1.361.191 1.758.572.398.378.596.986.596 1.824v4.256h-.977v-4.19c0-.545-.125-.952-.376-1.222-.246-.27-.625-.406-1.138-.406-.723 0-1.232.205-1.526.614-.294.41-.441 1.004-.441 1.783v3.421h-.989v-6.533h.798l.149.942h.054c.139-.231.316-.423.53-.578.215-.159.455-.278.722-.358.266-.083.546-.125.84-.125Zm6.217 9.584c-.858 0-1.52-.161-1.985-.482-.465-.318-.697-.765-.697-1.342 0-.409.129-.758.387-1.049.262-.29.624-.482 1.085-.578-.171-.079-.318-.198-.441-.357-.119-.159-.179-.342-.179-.549 0-.238.066-.447.197-.626.135-.182.339-.357.614-.524-.342-.139-.62-.374-.835-.703-.21-.334-.316-.722-.316-1.163 0-.469.098-.868.292-1.198.195-.334.477-.588.847-.763.369-.175.816-.262 1.341-.262.115 0 .23.006.345.018.12.008.233.022.34.042.107.016.201.035.28.059h2.241v.638l-1.204.149c.12.155.219.342.298.56.08.219.12.461.12.728 0 .651-.221 1.17-.662 1.555-.441.382-1.047.572-1.818.572-.183 0-.369-.016-.56-.047-.195.107-.344.226-.447.357-.1.131-.149.282-.149.453 0 .127.038.229.113.304.08.076.193.131.34.167.147.032.324.048.53.048h1.151c.711 0 1.255.149 1.633.447.381.298.572.733.572 1.305 0 .723-.294 1.278-.882 1.663-.588.386-1.439.578-2.551.578Zm.03-.774c.54 0 .987-.056 1.341-.167.357-.108.624-.265.798-.471.179-.203.269-.445.269-.727 0-.263-.06-.461-.179-.596-.119-.132-.294-.219-.525-.263-.23-.047-.512-.071-.846-.071h-1.133c-.294 0-.55.045-.768.137-.219.091-.388.226-.507.405-.115.179-.173.401-.173.668 0 .353.149.622.447.804.298.187.723.281 1.276.281Zm.256-5.222c.473 0 .828-.119 1.067-.357.238-.239.357-.587.357-1.044 0-.488-.121-.854-.363-1.096-.243-.247-.6-.37-1.073-.37-.453 0-.803.127-1.049.382-.242.25-.364.618-.364 1.102 0 .445.124.787.37 1.026.246.238.598.357 1.055.357Zm10.598-2.694h-1.628v5.758h-.989v-5.758h-1.156v-.477l1.156-.328v-.435c0-.548.081-.993.244-1.335.163-.346.4-.6.71-.763.31-.163.687-.244 1.132-.244.25 0 .479.022.686.065.21.044.395.094.554.149l-.256.781c-.136-.043-.289-.083-.459-.119-.167-.04-.338-.06-.513-.06-.377 0-.658.124-.84.37-.179.242-.269.624-.269 1.144v.477h1.628v.775Zm6.598-.775v6.533h-.811l-.143-.918h-.054c-.135.226-.309.417-.524.572-.215.155-.457.27-.727.346-.266.079-.551.119-.853.119-.516 0-.949-.083-1.299-.25-.35-.167-.614-.425-.793-.775-.175-.35-.262-.799-.262-1.347v-4.28h1.001v4.208c0 .545.124.952.37 1.222.246.266.622.4 1.126.4.485 0 .871-.092 1.157-.275.29-.182.499-.451.626-.804.127-.358.19-.795.19-1.312v-3.439h.996Zm-4.381-1.776c0-.199.052-.344.155-.435.103-.092.23-.137.381-.137.155 0 .284.045.388.137.107.091.161.236.161.435 0 .195-.054.342-.161.441-.104.095-.233.143-.388.143-.151 0-.278-.048-.381-.143-.103-.099-.155-.246-.155-.441Zm2.289 0c0-.199.051-.344.155-.435.103-.092.228-.137.375-.137.151 0 .28.045.388.137.107.091.161.236.161.435 0 .195-.054.342-.161.441-.108.095-.237.143-.388.143-.147 0-.272-.048-.375-.143-.104-.099-.155-.246-.155-.441Zm7.152 1.657c.131 0 .268.008.411.024.144.012.271.03.382.053l-.125.918c-.108-.027-.227-.049-.358-.065-.131-.016-.254-.024-.369-.024-.263 0-.511.054-.745.161-.231.103-.434.254-.608.453-.175.195-.312.431-.412.709-.099.274-.149.58-.149.918v3.505h-.995v-6.533h.822l.108 1.204h.041c.136-.242.298-.463.489-.661.191-.203.411-.364.662-.483.254-.119.536-.179.846-.179Zm8.291 0c.775 0 1.361.191 1.759.572.397.378.596.986.596 1.824v4.256h-.978v-4.19c0-.545-.125-.952-.375-1.222-.247-.27-.626-.406-1.139-.406-.723 0-1.232.205-1.526.614-.294.41-.441 1.004-.441 1.783v3.421h-.989v-6.533h.798l.149.942h.054c.139-.231.316-.423.531-.578.214-.159.455-.278.721-.358.266-.083.546-.125.84-.125Zm6.837.012c.779 0 1.357.175 1.734.524.378.35.567.908.567 1.675v4.441h-.722l-.19-.966h-.048c-.183.239-.374.439-.572.602-.199.159-.429.28-.692.364-.258.079-.576.119-.953.119-.398 0-.751-.069-1.061-.209-.306-.139-.549-.349-.727-.631-.175-.283-.263-.64-.263-1.073 0-.652.259-1.153.775-1.502.517-.35 1.303-.541 2.36-.572l1.127-.048v-.4c0-.564-.121-.959-.364-1.186-.242-.226-.584-.339-1.025-.339-.342 0-.667.049-.977.149-.31.099-.604.216-.882.351l-.304-.751c.294-.151.631-.28 1.013-.387.381-.107.783-.161 1.204-.161Zm1.323 3.421-.995.042c-.815.032-1.389.165-1.723.399-.334.235-.501.567-.501.996 0 .373.114.649.34.828.227.179.527.268.9.268.58 0 1.055-.161 1.425-.482.369-.322.554-.805.554-1.449v-.602Zm5.633 3.338c-.588 0-1.107-.121-1.556-.364-.449-.242-.799-.611-1.049-1.108-.25-.497-.376-1.123-.376-1.878 0-.79.132-1.436.394-1.937.266-.505.632-.878 1.097-1.12.464-.243.993-.364 1.585-.364.326 0 .64.034.942.101.306.064.556.145.751.245l-.298.828c-.199-.079-.429-.151-.692-.214-.258-.064-.5-.096-.727-.096-.453 0-.83.098-1.132.292-.298.195-.523.481-.674.859-.147.377-.22.842-.22 1.394 0 .529.071.98.214 1.353.147.374.364.66.65.859.29.194.652.292 1.085.292.345 0 .657-.036.935-.108.279-.075.531-.162.757-.262v.882c-.218.112-.462.197-.733.257-.266.059-.584.089-.953.089Zm4.226-9.394v2.772c0 .159-.004.32-.012.483-.008.159-.022.306-.042.441h.066c.135-.231.306-.423.512-.578.211-.159.449-.278.715-.358.267-.083.549-.125.847-.125.524 0 .961.083 1.311.25.354.167.618.425.793.775.179.35.268.803.268 1.359v4.256h-.977v-4.19c0-.545-.126-.952-.376-1.222-.246-.27-.626-.406-1.138-.406-.485 0-.873.094-1.163.281-.286.182-.492.453-.62.81-.123.358-.184.795-.184 1.312v3.415h-.99v-9.275h.99Zm7.486 0v2.772c0 .159-.004.32-.012.483-.008.159-.022.306-.042.441h.066c.135-.231.306-.423.512-.578.211-.159.449-.278.716-.358.266-.083.548-.125.846-.125.525 0 .962.083 1.311.25.354.167.618.425.793.775.179.35.268.803.268 1.359v4.256h-.977v-4.19c0-.545-.125-.952-.376-1.222-.246-.27-.626-.406-1.138-.406-.485 0-.872.094-1.162.281-.287.182-.493.453-.62.81-.123.358-.185.795-.185 1.312v3.415h-.99v-9.275h.99Zm8.941 2.635c.778 0 1.357.175 1.734.524.378.35.566.908.566 1.675v4.441h-.721l-.191-.966h-.047c-.183.239-.374.439-.573.602-.198.159-.429.28-.691.364-.258.079-.576.119-.954.119-.397 0-.751-.069-1.061-.209-.306-.139-.548-.349-.727-.631-.175-.283-.262-.64-.262-1.073 0-.652.258-1.153.775-1.502.516-.35 1.303-.541 2.36-.572l1.127-.048v-.4c0-.564-.121-.959-.364-1.186-.242-.226-.584-.339-1.025-.339-.342 0-.668.049-.978.149-.309.099-.604.216-.882.351l-.304-.751c.294-.151.632-.28 1.014-.387.381-.107.782-.161 1.204-.161Zm1.323 3.421-.996.042c-.814.032-1.388.165-1.722.399-.334.235-.501.567-.501.996 0 .373.113.649.34.828.226.179.526.268.9.268.58 0 1.055-.161 1.424-.482.37-.322.555-.805.555-1.449v-.602Zm4.011 3.219h-.995v-9.275h.995v9.275Zm4.202-.692c.163 0 .33-.013.501-.041.171-.028.31-.062.417-.102v.769c-.115.052-.276.096-.483.131-.202.036-.401.054-.596.054-.345 0-.659-.06-.941-.179-.283-.123-.509-.33-.68-.62-.167-.29-.25-.691-.25-1.204v-3.874h-.93v-.483l.936-.387.393-1.419h.596v1.514h1.913v.775h-1.913v3.845c0 .409.094.715.28.917.191.203.443.304.757.304Zm3.231-5.841v6.533h-.99v-6.533h.99Zm-.483-2.444c.163 0 .302.054.417.161.12.104.179.267.179.489 0 .219-.059.382-.179.489-.115.107-.254.161-.417.161-.171 0-.314-.054-.429-.161-.111-.107-.167-.27-.167-.489 0-.222.056-.385.167-.489.115-.107.258-.161.429-.161Zm4.405 11.909c-.858 0-1.52-.161-1.985-.482-.465-.318-.697-.765-.697-1.342 0-.409.129-.758.387-1.049.262-.29.624-.482 1.085-.578-.171-.079-.318-.198-.441-.357-.119-.159-.179-.342-.179-.549 0-.238.066-.447.197-.626.135-.182.339-.357.614-.524-.342-.139-.62-.374-.835-.703-.21-.334-.316-.722-.316-1.163 0-.469.098-.868.292-1.198.195-.334.477-.588.847-.763.369-.175.816-.262 1.341-.262.115 0 .23.006.345.018.12.008.233.022.34.042.108.016.201.035.28.059h2.242v.638l-1.205.149c.12.155.219.342.299.56.079.219.119.461.119.728 0 .651-.221 1.17-.662 1.555-.441.382-1.047.572-1.818.572-.183 0-.369-.016-.56-.047-.195.107-.344.226-.447.357-.099.131-.149.282-.149.453 0 .127.038.229.113.304.08.076.193.131.34.167.147.032.324.048.53.048h1.151c.711 0 1.255.149 1.633.447.381.298.572.733.572 1.305 0 .723-.294 1.278-.882 1.663-.588.386-1.439.578-2.551.578Zm.03-.774c.54 0 .987-.056 1.341-.167.357-.108.624-.265.798-.471.179-.203.269-.445.269-.727 0-.263-.06-.461-.179-.596-.119-.132-.294-.219-.525-.263-.23-.047-.512-.071-.846-.071h-1.133c-.294 0-.55.045-.768.137-.219.091-.388.226-.507.405-.115.179-.173.401-.173.668 0 .353.149.622.447.804.298.187.723.281 1.276.281Zm.256-5.222c.473 0 .828-.119 1.067-.357.238-.239.357-.587.357-1.044 0-.488-.121-.854-.363-1.096-.242-.247-.6-.37-1.073-.37-.453 0-.803.127-1.049.382-.242.25-.364.618-.364 1.102 0 .445.124.787.37 1.026.246.238.598.357 1.055.357Zm7.033-3.588c.557 0 1.033.123 1.431.37.397.246.701.592.912 1.037.21.441.316.957.316 1.549v.614h-4.512c.011.767.202 1.351.572 1.753.369.401.89.602 1.561.602.414 0 .779-.038 1.097-.114.318-.075.648-.186.99-.333v.87c-.33.147-.658.254-.984.322-.322.067-.703.101-1.144.101-.628 0-1.177-.127-1.645-.381-.465-.259-.827-.636-1.085-1.133s-.388-1.105-.388-1.824c0-.703.118-1.311.352-1.824.238-.516.572-.914 1.001-1.192.434-.278.942-.417 1.526-.417Zm-.012.811c-.528 0-.949.172-1.263.518-.314.346-.501.829-.561 1.449h3.458c-.004-.39-.066-.732-.185-1.026-.116-.298-.292-.528-.531-.691-.238-.167-.544-.25-.918-.25Zm12.523 5.841h-4.852v-8.714h4.852v.894h-3.838v2.819h3.618v.882h-3.618v3.225h3.838v.894Zm4.876-6.652c.775 0 1.361.191 1.758.572.398.378.596.986.596 1.824v4.256h-.977v-4.19c0-.545-.125-.952-.376-1.222-.246-.27-.626-.406-1.138-.406-.723 0-1.232.205-1.526.614-.294.41-.441 1.004-.441 1.783v3.421h-.99v-6.533h.799l.149.942h.054c.139-.231.316-.423.53-.578.215-.159.455-.278.721-.358.267-.083.547-.125.841-.125Zm6.503 5.96c.163 0 .33-.013.5-.041.171-.028.31-.062.418-.102v.769c-.116.052-.277.096-.483.131-.203.036-.401.054-.596.054-.346 0-.66-.06-.942-.179-.282-.123-.509-.33-.679-.62-.167-.29-.251-.691-.251-1.204v-3.874h-.93v-.483l.936-.387.394-1.419h.596v1.514h1.913v.775h-1.913v3.845c0 .409.093.715.28.917.19.203.443.304.757.304Zm7.558.68-1.163-3.803c-.051-.163-.101-.322-.149-.477-.043-.159-.085-.31-.125-.453-.036-.147-.069-.282-.101-.405-.028-.127-.052-.236-.072-.328h-.041c-.016.092-.038.201-.066.328-.028.123-.062.258-.101.405-.036.147-.076.302-.12.465-.043.159-.093.32-.149.483l-1.216 3.785h-1.114l-1.8-6.533h1.025l.942 3.606c.063.239.123.475.179.71.059.23.109.449.149.655.043.203.075.38.095.531h.048c.023-.1.049-.219.077-.358.032-.139.066-.286.101-.441.04-.159.082-.316.126-.471.043-.159.087-.308.131-.447l1.204-3.785h1.067l1.162 3.779c.06.191.117.39.173.596.059.207.113.408.161.602.047.191.081.362.101.513h.048c.016-.135.045-.302.089-.501s.094-.417.149-.655c.06-.239.121-.481.185-.728l.954-3.606h1.007l-1.806 6.533h-1.15Zm5.137-6.521v6.533h-.989v-6.533h.989Zm-.482-2.444c.163 0 .302.054.417.161.119.104.179.267.179.489 0 .219-.06.382-.179.489-.115.107-.254.161-.417.161-.171 0-.314-.054-.429-.161-.112-.107-.167-.27-.167-.489 0-.222.055-.385.167-.489.115-.107.258-.161.429-.161Zm5.197 9.096c-.588 0-1.106-.121-1.555-.364-.45-.242-.799-.611-1.05-1.108-.25-.497-.375-1.123-.375-1.878 0-.79.131-1.436.393-1.937.267-.505.632-.878 1.097-1.12.465-.243.993-.364 1.586-.364.325 0 .639.034.941.101.306.064.557.145.751.245l-.298.828c-.198-.079-.429-.151-.691-.214-.258-.064-.501-.096-.727-.096-.453 0-.831.098-1.133.292-.298.195-.522.481-.673.859-.147.377-.221.842-.221 1.394 0 .529.072.98.215 1.353.147.374.363.66.649.859.291.194.652.292 1.085.292.346 0 .658-.036.936-.108.278-.075.53-.162.757-.262v.882c-.219.112-.463.197-.733.257-.266.059-.584.089-.954.089Zm4.22-9.394v4.816c0 .159-.006.354-.018.585-.012.226-.022.427-.03.602h.042c.084-.104.205-.257.364-.459.163-.203.3-.366.411-.489l2.17-2.313h1.162l-2.629 2.79 2.82 3.743h-1.192l-2.307-3.094-.793.728v2.366h-.983v-9.275h.983Zm6.426 9.275h-.996v-9.275h.996v9.275Zm7.486-6.533v6.533h-.811l-.143-.918h-.053c-.136.226-.31.417-.525.572-.215.155-.457.27-.727.346-.266.079-.55.119-.852.119-.517 0-.95-.083-1.3-.25-.35-.167-.614-.425-.793-.775-.174-.35-.262-.799-.262-1.347v-4.28h1.001v4.208c0 .545.124.952.37 1.222.246.266.622.4 1.127.4.484 0 .87-.092 1.156-.275.29-.182.499-.451.626-.804.127-.358.19-.795.19-1.312v-3.439h.996Zm5.185-.119c.775 0 1.361.191 1.759.572.397.378.596.986.596 1.824v4.256h-.978v-4.19c0-.545-.125-.952-.375-1.222-.247-.27-.626-.406-1.139-.406-.723 0-1.231.205-1.526.614-.294.41-.441 1.004-.441 1.783v3.421h-.989v-6.533h.799l.149.942h.053c.139-.231.316-.423.531-.578.214-.159.455-.278.721-.358.266-.083.546-.125.84-.125Zm6.217 9.584c-.858 0-1.52-.161-1.985-.482-.465-.318-.697-.765-.697-1.342 0-.409.129-.758.387-1.049.263-.29.624-.482 1.085-.578-.171-.079-.318-.198-.441-.357-.119-.159-.179-.342-.179-.549 0-.238.066-.447.197-.626.135-.182.34-.357.614-.524-.342-.139-.62-.374-.835-.703-.21-.334-.315-.722-.315-1.163 0-.469.097-.868.292-1.198.194-.334.476-.588.846-.763.37-.175.817-.262 1.341-.262.115 0 .231.006.346.018.119.008.232.022.34.042.107.016.2.035.28.059h2.241v.638l-1.204.149c.119.155.218.342.298.56.079.219.119.461.119.728 0 .651-.22 1.17-.662 1.555-.441.382-1.047.572-1.817.572-.183 0-.37-.016-.561-.047-.194.107-.343.226-.447.357-.099.131-.149.282-.149.453 0 .127.038.229.113.304.08.076.193.131.34.167.147.032.324.048.531.048h1.15c.711 0 1.256.149 1.633.447.382.298.572.733.572 1.305 0 .723-.294 1.278-.882 1.663-.588.386-1.438.578-2.551.578Zm.03-.774c.54 0 .987-.056 1.341-.167.358-.108.624-.265.799-.471.179-.203.268-.445.268-.727 0-.263-.06-.461-.179-.596-.119-.132-.294-.219-.524-.263-.231-.047-.513-.071-.847-.071h-1.132c-.294 0-.551.045-.769.137-.219.091-.388.226-.507.405-.115.179-.173.401-.173.668 0 .353.149.622.447.804.298.187.724.281 1.276.281Zm.256-5.222c.473 0 .829-.119 1.067-.357.239-.239.358-.587.358-1.044 0-.488-.121-.854-.364-1.096-.242-.247-.6-.37-1.073-.37-.453 0-.802.127-1.049.382-.242.25-.363.618-.363 1.102 0 .445.123.787.369 1.026.247.238.598.357 1.055.357Z"/>
      <rect width="12.207" height="12.207" x="85.2159" y="284.886" fill="#fff" rx="3.05175"/>
      <rect width="12.207" height="12.207" x="85.2159" y="284.886" stroke="#DADADA" stroke-width=".762937" rx="3.05175"/>
      <path fill="#282828" d="M107.77 287.276h2.468c1.089 0 1.907.162 2.456.488.548.326.822.88.822 1.663 0 .338-.065.642-.197.912-.127.266-.313.487-.56.662-.246.175-.55.296-.912.363v.06c.382.06.719.169 1.013.328.295.159.525.381.692.667.167.287.25.65.25 1.091 0 .537-.125.99-.375 1.359-.247.37-.596.65-1.049.841-.453.186-.99.28-1.61.28h-2.998v-8.714Zm1.014 3.737h1.668c.759 0 1.284-.125 1.574-.376.294-.25.441-.616.441-1.096 0-.497-.175-.855-.524-1.073-.346-.219-.898-.328-1.657-.328h-1.502v2.873Zm0 .852v3.26h1.811c.775 0 1.324-.151 1.646-.453.321-.305.482-.717.482-1.233 0-.33-.073-.612-.22-.847-.143-.234-.378-.413-.703-.536-.322-.127-.753-.191-1.294-.191h-1.722Zm7.718-2.408v6.533h-.989v-6.533h.989Zm-.483-2.444c.163 0 .302.054.418.161.119.104.179.266.179.489 0 .219-.06.381-.179.489-.116.107-.255.161-.418.161-.17 0-.313-.054-.429-.161-.111-.108-.167-.27-.167-.489 0-.223.056-.385.167-.489.116-.107.259-.161.429-.161Zm3.577 8.977h-.996v-9.275h.996v9.275Zm4.416.119c-.826 0-1.482-.282-1.966-.846-.481-.565-.722-1.403-.722-2.516 0-1.124.247-1.973.739-2.545.493-.576 1.149-.864 1.967-.864.346 0 .648.046.906.137.259.091.481.215.668.37.187.151.344.323.471.518h.071c-.016-.123-.031-.292-.047-.507-.016-.214-.024-.389-.024-.524v-2.617h.989v9.275h-.798l-.15-.93h-.041c-.123.195-.28.371-.471.53-.187.159-.411.286-.674.382-.258.091-.564.137-.918.137Zm.155-.823c.7 0 1.195-.198 1.485-.596.29-.397.435-.987.435-1.77v-.179c0-.83-.139-1.468-.418-1.913-.274-.445-.774-.668-1.502-.668-.608 0-1.063.235-1.365.704-.302.465-.453 1.1-.453 1.907 0 .803.15 1.423.448 1.86.302.437.758.655 1.37.655Zm10.389-5.829v6.533h-.81l-.143-.918h-.054c-.135.226-.31.417-.524.572-.215.155-.457.27-.728.346-.266.079-.55.119-.852.119-.516 0-.95-.083-1.299-.25-.35-.167-.614-.426-.793-.775-.175-.35-.262-.799-.262-1.347v-4.28h1.001v4.208c0 .545.123.952.37 1.222.246.266.622.399 1.126.399.485 0 .87-.091 1.157-.274.29-.183.498-.451.625-.804.128-.358.191-.795.191-1.312v-3.439h.995Zm5.186-.119c.775 0 1.361.191 1.758.572.398.378.596.986.596 1.824v4.256h-.977v-4.19c0-.545-.125-.952-.376-1.222-.246-.271-.625-.406-1.138-.406-.723 0-1.232.205-1.526.614-.294.41-.441 1.004-.441 1.782v3.422h-.989v-6.533h.798l.149.942h.054c.139-.231.316-.423.53-.578.215-.159.455-.278.722-.358.266-.083.546-.125.84-.125Zm6.217 9.584c-.858 0-1.52-.161-1.985-.483-.465-.317-.697-.764-.697-1.341 0-.409.129-.759.387-1.049.262-.29.624-.482 1.085-.578-.171-.079-.318-.198-.441-.357-.119-.159-.179-.342-.179-.549 0-.238.066-.447.197-.626.135-.182.339-.357.614-.524-.342-.139-.62-.374-.835-.703-.21-.334-.316-.722-.316-1.163 0-.469.098-.868.292-1.198.195-.334.477-.588.847-.763.369-.175.816-.262 1.341-.262.115 0 .23.006.345.018.12.008.233.022.34.042.107.015.201.035.28.059h2.241v.638l-1.204.149c.12.155.219.342.298.56.08.219.12.461.12.727 0 .652-.221 1.171-.662 1.556-.441.382-1.047.572-1.818.572-.183 0-.369-.016-.56-.047-.195.107-.344.226-.447.357-.1.131-.149.282-.149.453 0 .127.038.229.113.304.08.076.193.131.34.167.147.032.324.048.53.048h1.151c.711 0 1.255.149 1.633.447.381.298.572.733.572 1.305 0 .723-.294 1.278-.882 1.663-.588.386-1.439.578-2.551.578Zm.03-.775c.54 0 .987-.055 1.341-.166.357-.108.624-.265.798-.471.179-.203.269-.445.269-.728 0-.262-.06-.46-.179-.596-.119-.131-.294-.218-.525-.262-.23-.048-.512-.071-.846-.071h-1.133c-.294 0-.55.045-.768.137-.219.091-.388.226-.507.405-.115.179-.173.401-.173.668 0 .353.149.621.447.804.298.187.723.28 1.276.28Zm.256-5.221c.473 0 .828-.119 1.067-.358.238-.238.357-.586.357-1.043 0-.488-.121-.854-.363-1.096-.243-.247-.6-.37-1.073-.37-.453 0-.803.127-1.049.382-.242.25-.364.617-.364 1.102 0 .445.124.787.37 1.025.246.239.598.358 1.055.358Zm8.744 1.276c0 .417-.105.769-.316 1.055-.207.282-.505.494-.894.637-.386.143-.846.215-1.383.215-.457 0-.852-.036-1.186-.107-.334-.072-.626-.173-.876-.304v-.912c.266.131.584.25.953.357.37.108.747.161 1.133.161.564 0 .973-.091 1.228-.274.254-.183.381-.431.381-.745 0-.179-.051-.336-.155-.471-.099-.139-.268-.272-.506-.399-.239-.131-.569-.274-.99-.429-.417-.159-.779-.316-1.085-.471-.302-.159-.536-.352-.703-.578-.163-.227-.244-.521-.244-.883 0-.552.222-.975.667-1.269.449-.298 1.037-.447 1.765-.447.393 0 .761.04 1.102.119.346.076.668.179.966.31l-.334.793c-.27-.115-.558-.213-.864-.292-.306-.08-.618-.119-.936-.119-.457 0-.809.075-1.055.226-.242.151-.364.358-.364.62 0 .203.056.369.167.501.116.131.298.254.549.369.25.115.58.25.989.405.409.151.763.308 1.061.471.298.159.527.354.686.584.162.227.244.519.244.877Zm1.037-1.049v-.883h2.956v.883h-2.956Zm13.053-3.696v6.533h-.81l-.143-.918h-.054c-.135.226-.31.417-.524.572-.215.155-.457.27-.728.346-.266.079-.55.119-.852.119-.517 0-.95-.083-1.299-.25-.35-.167-.614-.426-.793-.775-.175-.35-.262-.799-.262-1.347v-4.28h1.001v4.208c0 .545.123.952.37 1.222.246.266.621.399 1.126.399.485 0 .87-.091 1.156-.274.29-.183.499-.451.626-.804.127-.358.191-.795.191-1.312v-3.439h.995Zm5.186-.119c.775 0 1.361.191 1.758.572.398.378.596.986.596 1.824v4.256h-.977v-4.19c0-.545-.125-.952-.376-1.222-.246-.271-.626-.406-1.138-.406-.723 0-1.232.205-1.526.614-.294.41-.441 1.004-.441 1.782v3.422h-.99v-6.533h.799l.149.942h.054c.139-.231.316-.423.53-.578.215-.159.455-.278.722-.358.266-.083.546-.125.84-.125Zm6.717 6.771c-.826 0-1.482-.282-1.967-.846-.48-.565-.721-1.403-.721-2.516 0-1.124.247-1.973.739-2.545.493-.576 1.149-.864 1.967-.864.346 0 .648.046.906.137.259.091.481.215.668.37.187.151.344.323.471.518h.071c-.016-.123-.032-.292-.047-.507-.016-.214-.024-.389-.024-.524v-2.617h.989v9.275h-.799l-.149-.93h-.041c-.123.195-.28.371-.471.53-.187.159-.411.286-.674.382-.258.091-.564.137-.918.137Zm.155-.823c.7 0 1.194-.198 1.485-.596.29-.397.435-.987.435-1.77v-.179c0-.83-.139-1.468-.418-1.913-.274-.445-.774-.668-1.502-.668-.608 0-1.063.235-1.365.704-.302.465-.453 1.1-.453 1.907 0 .803.149 1.423.447 1.86.302.437.759.655 1.371.655Zm8.315.704v-8.714h1.013v7.808h3.869v.906h-4.882Zm8.744-6.652c.556 0 1.033.123 1.431.369.397.247.701.593.912 1.038.21.441.316.957.316 1.549v.614h-4.513c.012.767.203 1.351.573 1.753.369.401.89.602 1.561.602.414 0 .779-.038 1.097-.114.318-.075.648-.186.989-.333v.87c-.329.147-.657.254-.983.322-.322.067-.703.101-1.144.101-.628 0-1.177-.127-1.646-.382-.464-.258-.826-.635-1.084-1.132-.259-.497-.388-1.105-.388-1.824 0-.703.117-1.311.352-1.824.238-.516.572-.914 1.001-1.192.433-.278.942-.417 1.526-.417Zm-.012.811c-.528 0-.949.172-1.263.518-.314.346-.501.829-.561 1.448h3.457c-.004-.389-.065-.731-.184-1.025-.116-.298-.292-.528-.531-.691-.238-.167-.544-.25-.918-.25Zm7.32-.811c.131 0 .268.008.411.024.143.012.27.03.381.053l-.125.918c-.107-.028-.226-.049-.357-.065-.132-.016-.255-.024-.37-.024-.262 0-.511.054-.745.161-.23.103-.433.254-.608.453-.175.195-.312.431-.411.709-.1.274-.149.58-.149.918v3.505h-.996v-6.533h.823l.107 1.204h.042c.135-.242.298-.463.489-.662.19-.202.411-.363.661-.482.255-.12.537-.179.847-.179Zm5.12 0c.775 0 1.361.191 1.758.572.397.378.596.986.596 1.824v4.256h-.977v-4.19c0-.545-.126-.952-.376-1.222-.246-.271-.626-.406-1.138-.406-.724 0-1.232.205-1.526.614-.294.41-.441 1.004-.441 1.782v3.422h-.99v-6.533h.799l.149.942h.054c.139-.231.315-.423.53-.578.215-.159.455-.278.721-.358.266-.083.547-.125.841-.125Zm6.503 5.96c.162 0 .329-.014.5-.041.171-.028.31-.062.417-.102v.769c-.115.052-.276.096-.482.131-.203.036-.402.054-.596.054-.346 0-.66-.06-.942-.179-.282-.123-.509-.33-.68-.62-.167-.29-.25-.691-.25-1.204v-3.874h-.93v-.483l.936-.387.393-1.419h.596v1.514h1.914v.775h-1.914v3.844c0 .41.094.716.281.918.19.203.443.304.757.304Zm3.23-8.583v2.772c0 .159-.004.32-.012.483-.008.159-.022.306-.042.441h.066c.135-.231.306-.423.513-.578.21-.159.449-.279.715-.358.266-.083.548-.125.846-.125.525 0 .962.083 1.312.25.353.167.617.425.792.775.179.35.268.803.268 1.359v4.256h-.977v-4.19c0-.545-.125-.952-.376-1.222-.246-.271-.625-.406-1.138-.406-.485 0-.872.094-1.162.28-.286.183-.493.453-.62.811-.123.358-.185.795-.185 1.311v3.416h-.989v-9.275h.989Zm9.012 2.623c.557 0 1.033.123 1.431.369.397.247.701.593.912 1.038.21.441.316.957.316 1.549v.614h-4.512c.011.767.202 1.351.572 1.753.369.401.89.602 1.561.602.414 0 .779-.038 1.097-.114.318-.075.648-.186.99-.333v.87c-.33.147-.658.254-.984.322-.322.067-.703.101-1.144.101-.628 0-1.177-.127-1.645-.382-.465-.258-.827-.635-1.085-1.132-.258-.497-.388-1.105-.388-1.824 0-.703.118-1.311.352-1.824.238-.516.572-.914 1.001-1.192.434-.278.942-.417 1.526-.417Zm-.012.811c-.528 0-.949.172-1.263.518-.314.346-.501.829-.561 1.448h3.458c-.004-.389-.066-.731-.185-1.025-.116-.298-.292-.528-.531-.691-.238-.167-.544-.25-.918-.25Zm9.984 2.563c0 .536-.069 1.015-.209 1.436-.139.421-.339.777-.602 1.067-.262.29-.58.512-.953.667-.37.151-.789.227-1.258.227-.437 0-.838-.076-1.204-.227-.361-.155-.675-.377-.942-.667-.262-.29-.467-.646-.614-1.067-.143-.421-.214-.9-.214-1.436 0-.716.121-1.324.363-1.824.243-.505.589-.889 1.038-1.151.453-.266.991-.399 1.615-.399.596 0 1.116.133 1.562.399.449.266.796.652 1.043 1.157.25.5.375 1.106.375 1.818Zm-4.971 0c0 .524.07.979.209 1.364.139.386.353.684.643.895.291.21.664.315 1.121.315.453 0 .825-.105 1.115-.315.294-.211.51-.509.649-.895.139-.385.209-.84.209-1.364 0-.521-.07-.97-.209-1.348-.139-.381-.353-.675-.643-.882-.291-.206-.666-.31-1.127-.31-.679 0-1.178.225-1.496.674-.314.449-.471 1.071-.471 1.866Zm9.65-3.374c.131 0 .268.008.411.024.143.012.271.03.382.053l-.125.918c-.108-.028-.227-.049-.358-.065-.131-.016-.254-.024-.37-.024-.262 0-.51.054-.745.161-.23.103-.433.254-.608.453-.174.195-.312.431-.411.709-.099.274-.149.58-.149.918v3.505h-.995v-6.533h.822l.108 1.204h.041c.135-.242.298-.463.489-.662.191-.202.411-.363.662-.482.254-.12.536-.179.846-.179Zm3.016.119v6.533h-.989v-6.533h.989Zm-.483-2.444c.163 0 .302.054.417.161.12.104.179.266.179.489 0 .219-.059.381-.179.489-.115.107-.254.161-.417.161-.171 0-.314-.054-.429-.161-.111-.108-.167-.27-.167-.489 0-.223.056-.385.167-.489.115-.107.258-.161.429-.161Zm5.096 2.325c.557 0 1.034.123 1.431.369.397.247.701.593.912 1.038.21.441.316.957.316 1.549v.614h-4.512c.012.767.202 1.351.572 1.753.369.401.89.602 1.562.602.413 0 .778-.038 1.096-.114.318-.075.648-.186.99-.333v.87c-.33.147-.658.254-.984.322-.322.067-.703.101-1.144.101-.628 0-1.176-.127-1.645-.382-.465-.258-.827-.635-1.085-1.132-.258-.497-.387-1.105-.387-1.824 0-.703.117-1.311.351-1.824.239-.516.572-.914 1.002-1.192.433-.278.941-.417 1.525-.417Zm-.012.811c-.528 0-.949.172-1.263.518-.314.346-.501.829-.56 1.448h3.457c-.004-.389-.066-.731-.185-1.025-.115-.298-.292-.528-.531-.691-.238-.167-.544-.25-.918-.25Zm7.445-.811c.775 0 1.361.191 1.758.572.398.378.596.986.596 1.824v4.256h-.977v-4.19c0-.545-.125-.952-.376-1.222-.246-.271-.625-.406-1.138-.406-.723 0-1.232.205-1.526.614-.294.41-.441 1.004-.441 1.782v3.422h-.989v-6.533h.798l.149.942h.054c.139-.231.316-.423.53-.578.215-.159.455-.278.722-.358.266-.083.546-.125.84-.125Z"/>
      <rect width="12.207" height="12.207" x="85.2159" y="316.619" fill="#39B5AC" rx="3.05175"/>
      <path fill="#fff" d="M90.213 325.075c.1341.134.3621.134.4962 0l3.9428-3.943c.1342-.134.1342-.362 0-.496l-.4827-.483c-.1342-.134-.3487-.134-.4828 0l-3.2187 3.218-1.5154-1.502c-.1341-.134-.3487-.134-.4828 0l-.4828.483c-.1341.134-.1341.362 0 .496l2.2262 2.227Z"/>
      <path fill="#282828" d="M107.77 319.008h2.468c1.089 0 1.907.163 2.456.489.548.326.822.88.822 1.663 0 .338-.065.642-.197.912-.127.266-.313.487-.56.662-.246.175-.55.296-.912.363v.06c.382.06.719.169 1.013.328.295.159.525.381.692.667.167.286.25.65.25 1.091 0 .537-.125.99-.375 1.359-.247.37-.596.65-1.049.841-.453.186-.99.28-1.61.28h-2.998v-8.715Zm1.014 3.738h1.668c.759 0 1.284-.125 1.574-.376.294-.25.441-.616.441-1.097 0-.496-.175-.854-.524-1.072-.346-.219-.898-.328-1.657-.328h-1.502v2.873Zm0 .852v3.26h1.811c.775 0 1.324-.151 1.646-.453.321-.306.482-.717.482-1.233 0-.33-.073-.612-.22-.847-.143-.234-.378-.413-.703-.536-.322-.127-.753-.191-1.294-.191h-1.722Zm12.123-2.408v6.533h-.811l-.143-.918h-.053c-.135.226-.31.417-.525.572-.214.155-.457.27-.727.346-.266.079-.55.119-.852.119-.517 0-.95-.084-1.3-.25-.349-.167-.614-.426-.792-.775-.175-.35-.263-.799-.263-1.347v-4.28h1.002v4.208c0 .544.123.952.369 1.222.247.266.622.399 1.127.399.485 0 .87-.091 1.156-.274.29-.183.499-.451.626-.805.127-.357.191-.794.191-1.311v-3.439h.995Zm-4.381-1.776c0-.199.052-.344.155-.435.103-.092.231-.137.382-.137.155 0 .284.045.387.137.107.091.161.236.161.435 0 .195-.054.342-.161.441-.103.095-.232.143-.387.143-.151 0-.279-.048-.382-.143-.103-.099-.155-.246-.155-.441Zm2.289 0c0-.199.052-.344.155-.435.103-.092.228-.137.375-.137.151 0 .281.045.388.137.107.091.161.236.161.435 0 .195-.054.342-.161.441-.107.095-.237.143-.388.143-.147 0-.272-.048-.375-.143-.103-.099-.155-.246-.155-.441Zm6.801 8.428c-.588 0-1.107-.121-1.556-.364-.449-.242-.799-.612-1.049-1.108-.25-.497-.375-1.123-.375-1.878 0-.791.131-1.436.393-1.937.266-.505.632-.878 1.097-1.121.465-.242.993-.363 1.585-.363.326 0 .64.034.942.101.306.064.556.145.751.245l-.298.828c-.199-.079-.429-.151-.691-.215-.259-.063-.501-.095-.728-.095-.453 0-.83.097-1.132.292-.298.195-.523.481-.674.858-.147.378-.22.843-.22 1.395 0 .529.071.98.214 1.353.147.374.364.66.65.858.29.195.652.293 1.085.293.346 0 .657-.036.936-.108.278-.075.53-.163.757-.262v.882c-.219.111-.463.197-.734.256-.266.06-.584.09-.953.09Zm4.226-9.394v2.772c0 .159-.004.32-.012.483-.008.159-.022.306-.042.441h.066c.135-.231.306-.424.512-.578.211-.159.449-.279.716-.358.266-.084.548-.125.846-.125.524 0 .962.083 1.311.25.354.167.618.425.793.775.179.35.268.803.268 1.359v4.256h-.977v-4.191c0-.544-.126-.951-.376-1.221-.246-.271-.626-.406-1.138-.406-.485 0-.872.094-1.163.28-.286.183-.492.453-.619.811-.124.358-.185.795-.185 1.311v3.416h-.99v-9.275h.99Zm9.012 2.623c.556 0 1.033.123 1.43.369.398.247.702.592.912 1.037.211.442.316.958.316 1.55v.614H137c.012.767.203 1.351.572 1.752.37.402.891.602 1.562.602.413 0 .779-.037 1.097-.113.318-.075.648-.187.989-.334v.871c-.33.147-.657.254-.983.322-.322.067-.704.101-1.145.101-.627 0-1.176-.127-1.645-.382-.465-.258-.826-.635-1.085-1.132-.258-.497-.387-1.105-.387-1.824 0-.703.117-1.311.352-1.824.238-.516.572-.914 1.001-1.192.433-.278.942-.417 1.526-.417Zm-.012.81c-.528 0-.95.173-1.264.519-.313.346-.5.828-.56 1.448h3.457c-.004-.389-.065-.731-.185-1.025-.115-.298-.292-.528-.53-.691-.238-.167-.544-.251-.918-.251Zm7.319-.81c.132 0 .269.008.412.024.143.012.27.029.381.053l-.125.918c-.107-.028-.226-.049-.358-.065-.131-.016-.254-.024-.369-.024-.262 0-.511.053-.745.161-.231.103-.433.254-.608.453-.175.194-.312.431-.411.709-.1.274-.149.58-.149.918v3.505h-.996v-6.533h.823l.107 1.204h.042c.135-.242.298-.463.488-.662.191-.202.412-.363.662-.482.254-.12.537-.179.846-.179Zm3.16 5.233.077.137c-.072.29-.163.6-.274.93-.107.33-.227.66-.358.989-.127.334-.256.646-.387.936h-.739c.083-.318.165-.653.244-1.007.08-.35.151-.695.215-1.037.067-.346.121-.662.161-.948h1.061Zm11.432-7.296-3.13 8.715h-1.019l-3.129-8.715h1.061l2.038 5.74c.084.231.157.451.221.662.067.211.127.413.179.608.051.195.097.383.137.566.04-.183.085-.371.137-.566.052-.199.111-.403.179-.614.067-.215.143-.439.226-.673l2.027-5.723h1.073Zm6.681 5.436c0 .537-.069 1.016-.208 1.437-.139.421-.34.777-.602 1.067-.263.29-.58.512-.954.667-.37.151-.789.227-1.258.227-.437 0-.838-.076-1.204-.227-.361-.155-.675-.377-.941-.667-.263-.29-.467-.646-.614-1.067-.143-.421-.215-.9-.215-1.437 0-.715.121-1.323.364-1.823.242-.505.588-.889 1.037-1.151.453-.266.991-.399 1.615-.399.596 0 1.117.133 1.562.399.449.266.796.652 1.043 1.156.25.501.375 1.107.375 1.818Zm-4.971 0c0 .525.07.98.209 1.365.139.386.354.684.644.894.29.211.663.316 1.12.316.453 0 .825-.105 1.115-.316.294-.21.51-.508.649-.894.14-.385.209-.84.209-1.365 0-.52-.069-.969-.209-1.347-.139-.381-.353-.675-.643-.882-.29-.206-.666-.31-1.127-.31-.679 0-1.178.225-1.496.674-.314.449-.471 1.071-.471 1.865Zm9.65-3.373c.131 0 .268.008.412.024.143.012.27.029.381.053l-.125.918c-.107-.028-.227-.049-.358-.065-.131-.016-.254-.024-.369-.024-.263 0-.511.053-.745.161-.231.103-.434.254-.608.453-.175.194-.312.431-.412.709-.099.274-.149.58-.149.918v3.505h-.995v-6.533h.822l.108 1.204h.041c.136-.242.299-.463.489-.662.191-.202.412-.363.662-.482.254-.12.536-.179.846-.179Zm3.022 6.652h-.995v-9.275h.995v9.275Zm4.608-6.652c.556 0 1.033.123 1.43.369.397.247.701.592.912 1.037.211.442.316.958.316 1.55v.614h-4.512c.012.767.203 1.351.572 1.752.37.402.89.602 1.562.602.413 0 .779-.037 1.096-.113.318-.075.648-.187.99-.334v.871c-.33.147-.658.254-.984.322-.321.067-.703.101-1.144.101-.628 0-1.176-.127-1.645-.382-.465-.258-.827-.635-1.085-1.132-.258-.497-.387-1.105-.387-1.824 0-.703.117-1.311.351-1.824.239-.516.573-.914 1.002-1.192.433-.278.941-.417 1.526-.417Zm-.012.81c-.529 0-.95.173-1.264.519-.314.346-.501.828-.56 1.448h3.457c-.004-.389-.066-.731-.185-1.025-.115-.298-.292-.528-.53-.691-.239-.167-.545-.251-.918-.251Zm8.577 4.054c0 .417-.106.768-.316 1.055-.207.282-.505.494-.894.637-.386.143-.847.215-1.383.215-.457 0-.852-.036-1.186-.107-.334-.072-.626-.173-.876-.304v-.912c.266.131.584.25.953.357.37.108.747.161 1.133.161.564 0 .973-.091 1.228-.274.254-.183.381-.431.381-.745 0-.179-.052-.336-.155-.471-.099-.139-.268-.272-.506-.399-.239-.131-.569-.274-.99-.429-.417-.159-.779-.316-1.085-.471-.302-.159-.536-.352-.703-.578-.163-.227-.244-.521-.244-.883 0-.552.222-.975.667-1.269.449-.298 1.037-.447 1.764-.447.394 0 .761.04 1.103.119.346.076.668.179.966.31l-.334.793c-.27-.116-.558-.213-.864-.292-.306-.08-.618-.12-.936-.12-.457 0-.809.076-1.055.227-.243.151-.364.358-.364.62 0 .202.056.369.167.5.115.132.298.255.549.37.25.115.58.25.989.405.409.151.763.308 1.061.471.298.159.526.354.685.584.163.227.245.519.245.877Zm4.107-4.864c.556 0 1.033.123 1.43.369.397.247.701.592.912 1.037.211.442.316.958.316 1.55v.614h-4.512c.012.767.202 1.351.572 1.752.37.402.89.602 1.562.602.413 0 .778-.037 1.096-.113.318-.075.648-.187.99-.334v.871c-.33.147-.658.254-.984.322-.322.067-.703.101-1.144.101-.628 0-1.176-.127-1.645-.382-.465-.258-.827-.635-1.085-1.132-.258-.497-.387-1.105-.387-1.824 0-.703.117-1.311.351-1.824.239-.516.572-.914 1.002-1.192.433-.278.941-.417 1.526-.417Zm-.012.81c-.529 0-.95.173-1.264.519-.314.346-.501.828-.56 1.448h3.457c-.004-.389-.066-.731-.185-1.025-.115-.298-.292-.528-.53-.691-.239-.167-.545-.251-.918-.251Zm7.444-.81c.775 0 1.361.191 1.759.572.397.377.596.985.596 1.824v4.256h-.978v-4.191c0-.544-.125-.951-.375-1.221-.247-.271-.626-.406-1.139-.406-.723 0-1.232.205-1.526.614-.294.409-.441 1.004-.441 1.782v3.422h-.989v-6.533h.798l.149.942h.054c.139-.231.316-.423.531-.578.214-.159.455-.279.721-.358.266-.083.546-.125.84-.125Zm5.526 5.233.077.137c-.072.29-.163.6-.274.93-.107.33-.227.66-.358.989-.127.334-.256.646-.387.936h-.739c.083-.318.165-.653.244-1.007.08-.35.151-.695.215-1.037.067-.346.121-.662.161-.948h1.061Zm5.346 1.419v-8.715h1.013v7.809h3.869v.906h-4.882Zm7.218-6.533v6.533h-.989v-6.533h.989Zm-.483-2.444c.163 0 .302.054.418.161.119.103.178.266.178.489 0 .218-.059.381-.178.489-.116.107-.255.161-.418.161-.171 0-.314-.054-.429-.161-.111-.108-.167-.271-.167-.489 0-.223.056-.386.167-.489.115-.107.258-.161.429-.161Zm4.691 8.285c.163 0 .33-.014.501-.041.171-.028.31-.062.417-.102v.769c-.115.052-.276.095-.483.131-.202.036-.401.054-.596.054-.345 0-.659-.06-.941-.179-.283-.123-.509-.33-.68-.62-.167-.29-.25-.691-.25-1.204v-3.874h-.93v-.483l.936-.387.393-1.419h.596v1.514h1.913v.775h-1.913v3.844c0 .41.093.716.28.918.191.203.443.304.757.304Zm4.757-5.96c.556 0 1.033.123 1.43.369.398.247.701.592.912 1.037.211.442.316.958.316 1.55v.614h-4.512c.012.767.203 1.351.572 1.752.37.402.89.602 1.562.602.413 0 .779-.037 1.097-.113.317-.075.647-.187.989-.334v.871c-.33.147-.658.254-.984.322-.321.067-.703.101-1.144.101-.628 0-1.176-.127-1.645-.382-.465-.258-.827-.635-1.085-1.132-.258-.497-.387-1.105-.387-1.824 0-.703.117-1.311.351-1.824.239-.516.573-.914 1.002-1.192.433-.278.942-.417 1.526-.417Zm-.012.81c-.529 0-.95.173-1.264.519-.314.346-.501.828-.56 1.448h3.457c-.004-.389-.066-.731-.185-1.025-.115-.298-.292-.528-.53-.691-.239-.167-.545-.251-.918-.251Zm7.319-.81c.131 0 .268.008.411.024.143.012.271.029.382.053l-.125.918c-.108-.028-.227-.049-.358-.065-.131-.016-.254-.024-.369-.024-.263 0-.511.053-.746.161-.23.103-.433.254-.607.453-.175.194-.312.431-.412.709-.099.274-.149.58-.149.918v3.505h-.995v-6.533h.822l.108 1.204h.041c.136-.242.298-.463.489-.662.191-.202.411-.363.662-.482.254-.12.536-.179.846-.179Zm4.47.012c.779 0 1.357.175 1.735.524.377.35.566.908.566 1.675v4.441h-.721l-.191-.966h-.047c-.183.238-.374.439-.573.602-.198.159-.429.28-.691.364-.258.079-.576.119-.954.119-.397 0-.751-.07-1.061-.209-.306-.139-.548-.349-.727-.632-.175-.282-.262-.639-.262-1.072 0-.652.258-1.153.775-1.502.516-.35 1.303-.541 2.36-.573l1.127-.047v-.4c0-.564-.122-.959-.364-1.186-.242-.226-.584-.34-1.025-.34-.342 0-.668.05-.978.149-.31.1-.604.217-.882.352l-.304-.751c.294-.151.632-.28 1.013-.387.382-.108.783-.161 1.204-.161Zm1.324 3.421-.996.042c-.814.032-1.388.165-1.722.399-.334.235-.501.566-.501.995 0 .374.113.65.34.829.226.179.526.268.9.268.58 0 1.055-.161 1.424-.483.37-.321.555-.804.555-1.448v-.602Zm5.632 3.338c-.588 0-1.106-.121-1.555-.364-.449-.242-.799-.612-1.049-1.108-.251-.497-.376-1.123-.376-1.878 0-.791.131-1.436.393-1.937.267-.505.632-.878 1.097-1.121.465-.242.994-.363 1.586-.363.326 0 .639.034.941.101.306.064.557.145.751.245l-.298.828c-.198-.079-.429-.151-.691-.215-.258-.063-.501-.095-.727-.095-.453 0-.831.097-1.133.292-.298.195-.522.481-.673.858-.147.378-.221.843-.221 1.395 0 .529.072.98.215 1.353.147.374.363.66.65.858.29.195.651.293 1.084.293.346 0 .658-.036.936-.108.278-.075.531-.163.757-.262v.882c-.218.111-.463.197-.733.256-.266.06-.584.09-.954.09Zm2.206-6.652h1.061l1.442 3.791c.084.222.161.437.233.644.071.202.135.397.19.584.056.186.1.367.131.542h.042c.056-.199.135-.459.239-.781.103-.326.214-.657.333-.995l1.365-3.785h1.067l-2.843 7.492c-.151.402-.328.751-.53 1.049-.199.298-.442.527-.728.686-.286.163-.631.244-1.037.244-.186 0-.351-.012-.494-.036-.143-.019-.267-.043-.37-.071v-.793c.087.02.193.038.316.054.127.016.258.024.393.024.247 0 .459-.048.638-.143.183-.092.34-.227.471-.406.131-.179.244-.391.34-.638l.357-.917-2.616-6.545Z"/>
      <rect width="307.464" height="32.8063" x="37.5323" y="35.6583" fill="#fff" rx="5.72203"/>
      <path stroke="#686868" stroke-linecap="round" stroke-linejoin="round" stroke-width="1.52587" d="m61.2788 57.8787-3.624-3.624m1.208-3.0199c0 .5552-.1094 1.105-.3218 1.6179-.2125.513-.5239.9791-.9165 1.3717-.3926.3926-.8587.704-1.3717.9165-.5129.2125-1.0627.3218-1.6179.3218-.5553 0-1.105-.1093-1.618-.3218-.513-.2125-.979-.5239-1.3716-.9165-.3926-.3926-.7041-.8587-.9165-1.3717-.2125-.5129-.3219-1.0627-.3219-1.6179 0-1.1213.4455-2.1967 1.2384-2.9896.7928-.7929 1.8682-1.2384 2.9896-1.2384 1.1213 0 2.1967.4455 2.9896 1.2384.7929.7929 1.2383 1.8683 1.2383 2.9896Z"/>
      <path fill="#686868" d="M76.8296 54.8762c0 .5166-.1292.9577-.3875 1.3232-.2543.3616-.6119.6378-1.0728.8285-.461.1908-1.0034.2861-1.6272.2861-.3298 0-.6418-.0159-.9358-.0477-.2941-.0317-.5643-.0774-.8106-.137-.2464-.0596-.463-.1332-.6497-.2206v-.9715c.298.1232.6616.2384 1.0907.3457.4292.1033.8782.1549 1.3471.1549.4371 0 .8066-.0576 1.1086-.1728.302-.1192.5305-.2881.6855-.5066.1589-.2226.2384-.4888.2384-.7987 0-.2981-.0656-.5464-.1967-.7451-.1311-.2027-.3497-.3854-.6556-.5484-.302-.1669-.7153-.3437-1.2398-.5304-.3696-.1312-.6954-.2742-.9775-.4292-.2822-.1589-.5186-.3377-.7093-.5364-.1908-.1987-.3358-.4292-.4351-.6914-.0954-.2623-.1431-.5623-.1431-.9001 0-.4649.1172-.8622.3517-1.1921.2384-.3337.5662-.5881.9835-.7629.4212-.1788.904-.2682 1.4483-.2682.465 0 .8941.0437 1.2875.1311.3974.0874.761.2047 1.0908.3517l-.3159.8702c-.314-.1311-.6477-.2404-1.0014-.3278-.3497-.0874-.7113-.1311-1.0848-.1311-.3735 0-.6894.0556-.9477.1668-.2543.1073-.449.2603-.5841.459-.1351.1987-.2027.4351-.2027.7093 0 .306.0636.5603.1907.7629.1312.2027.3378.3835.6199.5424.2861.155.6636.3179 1.1325.4888.5126.1867.9477.3854 1.3054.596.3576.2067.6298.461.8165.763.1868.298.2802.6775.2802 1.1384Zm7.0273-4.214v6.5326h-.8106l-.143-.9179h-.0537c-.1351.2265-.3099.4172-.5245.5722-.2146.155-.457.2702-.7272.3457-.2662.0795-.5503.1192-.8523.1192-.5166 0-.9497-.0834-1.2994-.2503-.3497-.1669-.6139-.4252-.7927-.7749-.1749-.3496-.2623-.7987-.2623-1.347v-4.2796h1.0014v4.2081c0 .5443.1232.9516.3695 1.2218.2464.2663.6219.3994 1.1265.3994.4848 0 .8703-.0914 1.1564-.2742.29-.1828.4987-.451.6258-.8046.1272-.3577.1907-.7948.1907-1.3113v-3.4392h.9954Zm4.7088 6.6518c-.5881 0-1.1067-.1212-1.5557-.3636-.449-.2423-.7987-.6119-1.049-1.1086-.2504-.4967-.3755-1.1225-.3755-1.8775 0-.7908.1311-1.4365.3934-1.9372.2662-.5046.6318-.8782 1.0967-1.1205.4649-.2424.9934-.3636 1.5855-.3636.3258 0 .6397.0337.9417.1013.306.0636.5563.145.751.2444l-.298.8285c-.1987-.0795-.4291-.151-.6914-.2146-.2583-.0636-.5007-.0954-.7272-.0954-.453 0-.8305.0974-1.1325.2921-.298.1947-.5225.4808-.6735.8583-.147.3775-.2205.8424-.2205 1.3947 0 .5285.0715.9795.2145 1.3531.1471.3735.3636.6596.6497.8583.2901.1947.6517.292 1.0848.292.3457 0 .6577-.0357.9358-.1073.2782-.0755.5305-.1629.757-.2622v.8821c-.2185.1113-.4629.1967-.7331.2563-.2663.0596-.5842.0894-.9537.0894Zm4.2259-9.3936v2.7716c0 .1589-.0039.3199-.0119.4828-.0079.1589-.0218.3059-.0417.441h.0656c.1351-.2304.3059-.4231.5126-.5781.2106-.159.449-.2782.7152-.3576.2663-.0835.5484-.1252.8464-.1252.5245 0 .9616.0834 1.3113.2503.3537.1669.6179.4252.7927.7749.1789.3497.2683.8027.2683 1.359v4.2557h-.9776v-4.1902c0-.5444-.1251-.9517-.3755-1.2219-.2463-.2702-.6258-.4053-1.1384-.4053-.4848 0-.8722.0934-1.1623.2802-.2861.1828-.4927.453-.6199.8106-.1232.3576-.1848.7947-.1848 1.3113v3.4153h-.9894v-9.2744h.9894Zm9.0124 2.6226c.556 0 1.033.1232 1.43.3695.398.2464.702.5921.912 1.0371.211.4411.316.9577.316 1.5497v.614h-4.5119c.012.7669.2029 1.351.5719 1.7523.37.4014.89.602 1.562.602.413 0 .779-.0377 1.097-.1132.318-.0755.647-.1868.989-.3338v.8702c-.33.1471-.657.2544-.983.3219-.322.0676-.704.1013-1.145.1013-.628 0-1.176-.1271-1.645-.3814-.4647-.2583-.8263-.6358-1.0846-1.1325-.2583-.4967-.3875-1.1047-.3875-1.8239 0-.7033.1173-1.3113.3517-1.8239.2384-.5166.5722-.9139 1.0014-1.1921.433-.2782.942-.4172 1.526-.4172Zm-.012.8106c-.529 0-.95.1728-1.264.5185-.314.3458-.5.8285-.56 1.4484h3.457c-.004-.3894-.065-.7311-.185-1.0252-.115-.298-.292-.5285-.53-.6914-.239-.1669-.545-.2503-.918-.2503Z"/>
      <rect width="307.464" height="32.8063" x="37.5323" y="35.6583" stroke="#DADADA" stroke-width=".762937" rx="5.72203"/>
    </g>
    <g filter="url(#d)">
      <path fill="#F1C151" d="M325.136 182.647c-.769.005-1.523.21-2.189.595-.666.384-1.221.935-1.61 1.598l-22.603 39.151c-.38.669-.58 1.424-.58 2.193 0 .769.2 1.525.58 2.193l22.603 39.142c.385.667.939 1.221 1.606 1.606.667.385 1.423.588 2.193.587h45.206c.769-.001 1.524-.204 2.189-.589s1.218-.938 1.602-1.604l22.603-39.142c.38-.668.579-1.424.579-2.193 0-.769-.199-1.524-.579-2.193l-22.603-39.151c-.388-.662-.942-1.212-1.606-1.596-.665-.384-1.417-.59-2.185-.597h-45.206Z"/>
    </g>
    <path fill="#fff" d="M348.703 248.293c-6.156 0-10.697-.988-13.623-2.964-.342-.228-.513-.494-.513-.798 0-.228.095-.494.285-.798l1.653-2.793c.228-.38.437-.57.627-.57.152 0 .418.095.798.285 1.254.684 2.698 1.235 4.332 1.653 1.672.418 3.477.627 5.415.627 3.116 0 5.396-.589 6.84-1.767 1.482-1.216 2.223-2.888 2.223-5.016 0-3.952-2.413-5.928-7.239-5.928h-4.788c-.76 0-1.311-.152-1.653-.456-.304-.342-.456-.874-.456-1.596v-1.482c0-.684.152-1.178.456-1.482.342-.304.893-.456 1.653-.456h4.674c2.052 0 3.591-.532 4.617-1.596 1.026-1.102 1.539-2.489 1.539-4.161 0-3.838-2.698-5.757-8.094-5.757-3.344 0-6.289.703-8.835 2.109-.38.19-.646.285-.798.285-.19 0-.399-.171-.627-.513l-1.596-2.679c-.19-.304-.285-.57-.285-.798 0-.304.171-.57.513-.798 1.33-.95 3.097-1.691 5.301-2.223 2.204-.532 4.655-.798 7.353-.798 2.926 0 5.453.456 7.581 1.368 2.166.912 3.819 2.204 4.959 3.876 1.178 1.634 1.767 3.553 1.767 5.757 0 1.786-.437 3.439-1.311 4.959-.836 1.52-2.052 2.698-3.648 3.534 2.052.76 3.572 1.938 4.56 3.534 1.026 1.558 1.539 3.401 1.539 5.529 0 3.572-1.33 6.46-3.99 8.664-2.622 2.166-6.365 3.249-11.229 3.249Z"/>
  </g>
  <defs>
    <filter id="b" width="384" height="339.645" x=".5" y="0" color-interpolation-filters="sRGB" filterUnits="userSpaceOnUse">
      <feFlood flood-opacity="0" result="BackgroundImageFix"/>
      <feColorMatrix in="SourceAlpha" result="hardAlpha" values="0 0 0 0 0 0 0 0 0 0 0 0 0 0 0 0 0 0 127 0"/>
      <feOffset dx="2" dy="4"/>
      <feGaussianBlur stdDeviation="1"/>
      <feComposite in2="hardAlpha" operator="out"/>
      <feColorMatrix values="0 0 0 0 0 0 0 0 0 0 0 0 0 0 0 0 0 0 0.7 0"/>
      <feBlend in2="BackgroundImageFix" result="effect1_dropShadow_768_1552"/>
      <feBlend in="SourceGraphic" in2="effect1_dropShadow_768_1552" result="shape"/>
    </filter>
    <filter id="d" width="107.161" height="95.0649" x="296.154" y="180.647" color-interpolation-filters="sRGB" filterUnits="userSpaceOnUse">
      <feFlood flood-opacity="0" result="BackgroundImageFix"/>
      <feColorMatrix in="SourceAlpha" result="hardAlpha" values="0 0 0 0 0 0 0 0 0 0 0 0 0 0 0 0 0 0 127 0"/>
      <feOffset dx="2" dy="2"/>
      <feGaussianBlur stdDeviation="2"/>
      <feComposite in2="hardAlpha" operator="out"/>
      <feColorMatrix values="0 0 0 0 0 0 0 0 0 0 0 0 0 0 0 0 0 0 0.25 0"/>
      <feBlend in2="BackgroundImageFix" result="effect1_dropShadow_768_1552"/>
      <feBlend in="SourceGraphic" in2="effect1_dropShadow_768_1552" result="shape"/>
    </filter>
    <clipPath id="a">
      <path fill="#fff" d="M.5 0h403v340H.5z"/>
    </clipPath>
  </defs>
</svg>