<svg xmlns="http://www.w3.org/2000/svg" width="386" height="359" fill="none">
  <g filter="url(#a)" opacity=".2">
    <path fill="#39B5AC" d="M104.399 19a17.01 17.01 0 0 0-14.56 8.403L3.22 177.436a17.011 17.011 0 0 0 0 16.807l86.617 149.999a16.804 16.804 0 0 0 14.561 8.403h173.236a16.804 16.804 0 0 0 14.527-8.403l86.617-149.999a17.006 17.006 0 0 0 0-16.807L292.162 27.403A17.01 17.01 0 0 0 277.635 19H104.399Z"/>
  </g>
  <mask id="b" width="380" height="334" x="1" y="19" maskUnits="userSpaceOnUse" style="mask-type:alpha">
    <path fill="#39B5AC" d="M104.399 19a17.01 17.01 0 0 0-14.56 8.403L3.22 177.436a17.011 17.011 0 0 0 0 16.807l86.617 149.999a16.804 16.804 0 0 0 14.561 8.403h173.236a16.804 16.804 0 0 0 14.527-8.403l86.617-149.999a17.006 17.006 0 0 0 0-16.807L292.162 27.403A17.01 17.01 0 0 0 277.635 19H104.399Z"/>
  </mask>
  <g mask="url(#b)">
    <path fill="#B1B1B1" d="M208.61 109.496a6.102 6.102 0 0 1 6.103-6.103h134.27a6.102 6.102 0 0 1 6.103 6.103v28.227H208.61v-28.227Z"/>
    <path fill="#fff" d="M264.295 126.558h-1.705v-8.904h-3.03v-1.444h7.758v1.444h-3.023v8.904Zm11.374-3.936c0 .652-.085 1.23-.255 1.734a3.464 3.464 0 0 1-.743 1.282 3.272 3.272 0 0 1-1.175.792c-.457.18-.974.269-1.55.269a3.932 3.932 0 0 1-1.479-.269 3.388 3.388 0 0 1-1.168-.792 3.648 3.648 0 0 1-.757-1.282c-.179-.504-.269-1.082-.269-1.734 0-.863.149-1.594.446-2.194a3.173 3.173 0 0 1 1.288-1.38c.557-.316 1.22-.474 1.989-.474.722 0 1.359.158 1.911.474.552.316.984.776 1.295 1.38.312.604.467 1.336.467 2.194Zm-5.683 0c0 .571.068 1.06.205 1.466.142.405.359.717.651.934.293.212.67.318 1.133.318.462 0 .84-.106 1.132-.318.293-.217.507-.529.644-.934.137-.406.205-.895.205-1.466 0-.57-.068-1.054-.205-1.45-.137-.402-.351-.706-.644-.914-.292-.212-.672-.318-1.139-.318-.689 0-1.192.231-1.508.694-.316.462-.474 1.125-.474 1.988Zm11.614-4.048c.93 0 1.675.34 2.237 1.019.566.68.849 1.689.849 3.029 0 .888-.132 1.635-.396 2.244-.26.604-.625 1.062-1.097 1.373-.467.307-1.012.46-1.635.46-.396 0-.741-.052-1.033-.156a2.567 2.567 0 0 1-.751-.403 2.88 2.88 0 0 1-.523-.552h-.1c.024.189.045.399.064.63.024.226.036.434.036.623v3.192h-1.671v-11.31h1.359l.234 1.083h.078a3.26 3.26 0 0 1 .53-.616c.213-.189.468-.338.765-.446.302-.113.653-.17 1.054-.17Zm-.446 1.359c-.457 0-.825.092-1.104.276-.273.179-.474.451-.601.814-.123.363-.189.819-.198 1.366v.233c0 .581.059 1.074.176 1.48.123.401.324.707.602.92.283.207.665.311 1.147.311.405 0 .74-.111 1.005-.332.269-.222.469-.538.601-.949.132-.41.198-.894.198-1.451 0-.844-.151-1.5-.452-1.967-.298-.468-.755-.701-1.374-.701Zm7.121-1.21v7.835h-1.664v-7.835h1.664Zm-.821-3.001c.254 0 .474.068.658.205.189.137.283.373.283.708 0 .33-.094.566-.283.707a1.073 1.073 0 0 1-.658.206c-.265 0-.489-.069-.673-.206-.179-.141-.269-.377-.269-.707 0-.335.09-.571.269-.708.184-.137.408-.205.673-.205Zm6.362 10.977c-.74 0-1.382-.144-1.925-.432-.542-.287-.96-.729-1.252-1.323-.293-.595-.439-1.35-.439-2.265 0-.953.16-1.732.481-2.336.321-.604.764-1.049 1.331-1.337.571-.288 1.224-.432 1.96-.432.467 0 .89.047 1.267.142.382.089.705.2.97.332l-.496 1.331a7.226 7.226 0 0 0-.884-.297 3.362 3.362 0 0 0-.871-.121c-.458 0-.84.102-1.147.305-.302.202-.528.504-.679.906-.146.401-.219.898-.219 1.493 0 .576.075 1.062.226 1.458.151.392.375.689.672.892.298.198.663.297 1.097.297.43 0 .814-.052 1.154-.156.34-.104.661-.238.963-.403v1.444c-.298.17-.616.295-.956.375-.34.085-.757.127-1.253.127Zm9.315-2.378c0 .514-.125.948-.376 1.302-.25.354-.615.623-1.097.807-.476.18-1.061.269-1.755.269-.547 0-1.019-.04-1.415-.12a4.91 4.91 0 0 1-1.112-.354v-1.437a7.85 7.85 0 0 0 1.253.453c.467.128.909.191 1.324.191.547 0 .941-.085 1.182-.255a.816.816 0 0 0 .361-.693c0-.17-.05-.321-.149-.453-.094-.137-.274-.276-.538-.418a10.204 10.204 0 0 0-1.146-.523 9.671 9.671 0 0 1-1.253-.595 2.179 2.179 0 0 1-.772-.715c-.174-.283-.262-.644-.262-1.083 0-.693.274-1.219.821-1.578.553-.363 1.282-.545 2.187-.545.482 0 .935.05 1.359.149.43.094.85.233 1.26.417l-.524 1.253a7.757 7.757 0 0 0-1.068-.382 3.823 3.823 0 0 0-1.083-.156c-.43 0-.757.066-.984.198a.625.625 0 0 0-.333.566c0 .184.055.34.163.468.109.127.295.254.559.382.269.127.642.285 1.119.474.467.179.87.368 1.21.566.344.194.609.432.793.715.184.283.276.649.276 1.097Z"/>
    <path fill="#39B5AC" d="M46.876 109.496a6.103 6.103 0 0 1 6.103-6.103h134.27a6.103 6.103 0 0 1 6.103 6.103v28.227H46.876v-28.227Z"/>
    <path fill="#fff" d="M101.157 126.558h-1.684V116.21h5.846v1.43h-4.162v3.227h3.893v1.423h-3.893v4.268Zm7.538-7.835v7.835h-1.663v-7.835h1.663Zm-.821-3.001c.255 0 .474.068.658.205.189.137.283.373.283.708 0 .33-.094.566-.283.707a1.07 1.07 0 0 1-.658.206c-.264 0-.489-.069-.673-.206-.179-.141-.269-.377-.269-.707 0-.335.09-.571.269-.708.184-.137.409-.205.673-.205Zm4.876 10.836h-1.67v-11.013h1.67v11.013Zm5.294-1.204c.217 0 .432-.018.644-.056.213-.043.406-.092.581-.149v1.26c-.184.08-.422.149-.715.205a4.77 4.77 0 0 1-.913.085c-.444 0-.842-.073-1.196-.219a1.744 1.744 0 0 1-.842-.772c-.208-.363-.312-.866-.312-1.507v-4.211h-1.069v-.744l1.147-.587.545-1.677h1.048v1.741h2.243v1.267h-2.243v4.19c0 .396.099.691.297.884.198.194.46.29.785.29Zm5.939-6.78c.698 0 1.297.144 1.797.432.5.288.885.696 1.154 1.224.269.529.403 1.161.403 1.897v.892h-5.23c.019.759.222 1.345.609 1.755.391.411.939.616 1.642.616.5 0 .948-.047 1.344-.142a7.506 7.506 0 0 0 1.239-.431v1.351c-.392.184-.79.319-1.196.404a7.218 7.218 0 0 1-1.458.127c-.769 0-1.446-.148-2.031-.446a3.258 3.258 0 0 1-1.366-1.344c-.326-.595-.489-1.333-.489-2.216 0-.877.149-1.623.446-2.236.297-.614.715-1.081 1.253-1.402.538-.321 1.165-.481 1.883-.481Zm0 1.253c-.524 0-.949.17-1.274.509-.321.34-.51.838-.567 1.494h3.568a2.74 2.74 0 0 0-.199-1.041 1.497 1.497 0 0 0-.566-.707c-.25-.17-.571-.255-.962-.255Zm9.201-1.253a4.82 4.82 0 0 1 .835.078l-.156 1.557a2.116 2.116 0 0 0-.368-.064 3.928 3.928 0 0 0-.382-.021c-.297 0-.581.05-.85.149a2.009 2.009 0 0 0-1.203 1.167 2.717 2.717 0 0 0-.177 1.02v4.098h-1.67v-7.835h1.302l.227 1.38h.078a3.47 3.47 0 0 1 .58-.765c.231-.231.495-.415.793-.552.302-.141.632-.212.991-.212Zm7.551 5.747c0 .514-.125.948-.375 1.302-.25.354-.615.623-1.097.807-.476.18-1.061.269-1.755.269-.547 0-1.019-.04-1.416-.12a4.901 4.901 0 0 1-1.111-.354v-1.437a7.85 7.85 0 0 0 1.253.453 5.01 5.01 0 0 0 1.324.191c.547 0 .941-.085 1.182-.255a.815.815 0 0 0 .36-.693.735.735 0 0 0-.148-.453c-.095-.137-.274-.276-.538-.418-.26-.146-.642-.321-1.147-.523a9.652 9.652 0 0 1-1.252-.595 2.179 2.179 0 0 1-.772-.715c-.174-.283-.262-.644-.262-1.083 0-.693.274-1.219.821-1.578.552-.363 1.281-.545 2.187-.545.482 0 .935.05 1.359.149.43.094.85.233 1.26.417l-.524 1.253a7.804 7.804 0 0 0-1.068-.382 3.823 3.823 0 0 0-1.083-.156c-.43 0-.758.066-.984.198a.625.625 0 0 0-.333.566c0 .184.054.34.163.468.109.127.295.254.559.382.269.127.642.285 1.118.474.468.179.871.368 1.211.566.344.194.608.432.792.715.184.283.276.649.276 1.097Z"/>
    <path fill="#F7F7F7" d="M46.876 137.723h308.21v746.115H46.877z"/>
    <path fill="#282828" d="m88.84 178.628-2.276 8.714h-1.561l-1.455-5.221a16.594 16.594 0 0 1-.119-.453 53.676 53.676 0 0 1-.131-.537c-.04-.182-.076-.349-.107-.5a10.932 10.932 0 0 1-.06-.358 4.316 4.316 0 0 1-.054.352c-.027.151-.061.318-.1.5a13.08 13.08 0 0 1-.12.537c-.044.175-.084.33-.12.465l-1.43 5.215h-1.555l-2.271-8.714h1.436l1.258 5.108c.04.163.08.34.119.53.044.187.084.376.12.567a16.823 16.823 0 0 1 .184 1.049c.02-.151.046-.318.078-.501.031-.187.065-.376.1-.566.04-.195.08-.382.12-.561.044-.178.087-.339.131-.482l1.419-5.144h1.394l1.449 5.162a20.212 20.212 0 0 1 .358 1.609c.031.179.057.34.077.483a21.787 21.787 0 0 1 .423-2.146l1.251-5.108h1.443Zm6.932 5.4a4.57 4.57 0 0 1-.214 1.46 2.925 2.925 0 0 1-.626 1.079c-.274.29-.604.513-.99.668-.385.151-.82.226-1.304.226-.454 0-.869-.075-1.246-.226a2.843 2.843 0 0 1-.984-.668 3.062 3.062 0 0 1-.637-1.079 4.35 4.35 0 0 1-.227-1.46c0-.727.125-1.343.376-1.848a2.676 2.676 0 0 1 1.084-1.162c.47-.266 1.027-.399 1.675-.399.608 0 1.144.133 1.61.399a2.76 2.76 0 0 1 1.09 1.162c.262.509.393 1.125.393 1.848Zm-4.785 0c0 .481.057.892.172 1.234.12.341.302.604.549.786.246.179.564.269.953.269.39 0 .708-.09.954-.269.246-.182.427-.445.542-.786.115-.342.173-.753.173-1.234s-.058-.888-.173-1.222c-.115-.338-.296-.594-.542-.769-.246-.179-.566-.268-.96-.268-.58 0-1.003.195-1.27.584-.265.39-.398.948-.398 1.675Zm9.738-3.409a4.003 4.003 0 0 1 .704.065l-.131 1.312a1.773 1.773 0 0 0-.31-.054 3.265 3.265 0 0 0-.322-.018 2.06 2.06 0 0 0-.715.125 1.683 1.683 0 0 0-1.013.984c-.1.246-.15.532-.15.858v3.451h-1.406v-6.598h1.096l.191 1.162h.066c.13-.234.294-.449.488-.644.195-.194.418-.349.668-.464.254-.12.532-.179.834-.179Zm3.326-2.551v4.482c0 .202-.008.425-.024.667-.016.239-.031.463-.047.674h.029c.104-.139.227-.302.37-.489.147-.187.286-.35.417-.489l2.015-2.169h1.609l-2.64 2.837 2.813 3.761h-1.645l-2.11-2.897-.787.674v2.223h-1.4v-9.274h1.4Zm14.31 9.274-.852-2.42h-3.332l-.852 2.42h-1.508l3.243-8.75h1.585l3.236 8.75h-1.52Zm-1.221-3.648-.829-2.384c-.032-.103-.077-.248-.137-.435l-.179-.578-.149-.501c-.039.163-.089.346-.149.549-.055.198-.111.385-.167.56l-.119.405-.834 2.384h2.563Zm7.092-3.075a4.02 4.02 0 0 1 .703.065l-.131 1.312a1.74 1.74 0 0 0-.31-.054 3.23 3.23 0 0 0-.321-.018c-.251 0-.489.042-.716.125a1.688 1.688 0 0 0-1.013.984 2.287 2.287 0 0 0-.149.858v3.451h-1.406v-6.598h1.096l.191 1.162h.065a3 3 0 0 1 .489-.644c.195-.194.417-.349.668-.464.254-.12.532-.179.834-.179Zm4.554 0c.588 0 1.092.121 1.514.363.421.243.745.586.971 1.031.227.445.34.978.34 1.598v.751h-4.405c.016.639.187 1.132.513 1.478.33.346.791.518 1.383.518.421 0 .798-.039 1.132-.119a6.242 6.242 0 0 0 1.043-.363v1.138a4.58 4.58 0 0 1-1.007.34 6.121 6.121 0 0 1-1.228.107c-.648 0-1.218-.125-1.711-.375a2.753 2.753 0 0 1-1.15-1.133c-.274-.501-.411-1.122-.411-1.865 0-.739.125-1.367.375-1.884.251-.516.602-.91 1.055-1.18.453-.27.982-.405 1.586-.405Zm0 1.055c-.441 0-.799.143-1.073.429-.27.286-.429.705-.477 1.257h3.004a2.321 2.321 0 0 0-.167-.876 1.268 1.268 0 0 0-.477-.596c-.21-.143-.48-.214-.81-.214Zm6.991-1.055c.834 0 1.464.185 1.889.554.429.37.644.946.644 1.728v4.441h-.995l-.269-.936h-.047c-.187.238-.38.435-.578.59-.199.155-.429.27-.692.346a3.27 3.27 0 0 1-.947.119c-.394 0-.745-.072-1.055-.215a1.67 1.67 0 0 1-.733-.667c-.179-.298-.269-.676-.269-1.133 0-.679.253-1.19.757-1.531.509-.342 1.276-.531 2.301-.566l1.144-.042v-.346c0-.457-.107-.783-.322-.977-.21-.195-.508-.292-.894-.292-.329 0-.649.047-.959.143-.31.095-.612.212-.906.351l-.453-.989a5.05 5.05 0 0 1 1.097-.417 5.066 5.066 0 0 1 1.287-.161Zm1.144 3.57-.852.03c-.699.024-1.19.143-1.472.357-.282.215-.423.509-.423.882 0 .326.097.565.292.716.194.147.451.22.769.22.484 0 .886-.137 1.204-.411.321-.278.482-.686.482-1.222v-.572Z"/>
    <rect width="246.416" height="32.805" x="77.773" y="197.61" fill="#fff" rx="5.722"/>
    <path fill="#686868" d="m97.799 219.146-1.085-2.771h-3.492l-1.073 2.771h-1.025l3.445-8.749h.852l3.427 8.749h-1.049Zm-1.4-3.683-1.014-2.7a14.49 14.49 0 0 1-.405-1.258c-.088.382-.213.801-.376 1.258l-1.025 2.7h2.82Zm4.487 3.683h-.99v-9.274h.99v9.274Zm3.088 0h-.99v-9.274h.99v9.274Zm9.286 0-.197-.93h-.048c-.326.409-.651.688-.977.835-.322.143-.725.214-1.21.214-.648 0-1.156-.167-1.526-.5-.366-.334-.548-.809-.548-1.425 0-1.319 1.055-2.01 3.165-2.074l1.108-.036v-.405c0-.513-.111-.89-.334-1.133-.218-.246-.57-.369-1.055-.369-.544 0-1.16.167-1.847.501l-.304-.757a4.68 4.68 0 0 1 2.211-.561c.779 0 1.355.173 1.728.519.378.346.567.9.567 1.663v4.458h-.733Zm-2.235-.697c.615 0 1.098-.169 1.448-.507.353-.338.53-.811.53-1.418v-.591l-.989.042c-.787.028-1.355.151-1.705.37-.345.214-.518.55-.518 1.007 0 .358.107.63.322.817.218.186.522.28.912.28Zm7.992-5.955c.29 0 .55.024.781.072l-.137.918a3.35 3.35 0 0 0-.715-.09c-.529 0-.982.215-1.359.644-.374.429-.561.964-.561 1.603v3.505h-.989v-6.532h.817l.113 1.21h.047c.243-.426.535-.753.877-.984.341-.23.717-.346 1.126-.346Zm4.762 6.771c-.965 0-1.728-.294-2.288-.882-.557-.588-.835-1.405-.835-2.45 0-1.052.258-1.889.775-2.509.52-.62 1.218-.93 2.092-.93.818 0 1.466.271 1.943.811.477.536.715 1.246.715 2.128v.626h-4.5c.02.767.213 1.349.578 1.746.37.397.888.596 1.556.596.703 0 1.399-.147 2.086-.441v.882a5.09 5.09 0 0 1-.995.322 5.42 5.42 0 0 1-1.127.101Zm-.268-5.942c-.524 0-.944.171-1.258.513-.31.341-.492.814-.548 1.418h3.415c0-.624-.139-1.101-.417-1.43-.278-.334-.675-.501-1.192-.501Zm8.38 5.823-.197-.93h-.047c-.326.409-.652.688-.978.835-.322.143-.725.214-1.21.214-.647 0-1.156-.167-1.526-.5-.365-.334-.548-.809-.548-1.425 0-1.319 1.055-2.01 3.165-2.074l1.109-.036v-.405c0-.513-.112-.89-.334-1.133-.219-.246-.57-.369-1.055-.369-.545 0-1.16.167-1.848.501l-.304-.757a4.698 4.698 0 0 1 2.211-.561c.779 0 1.355.173 1.729.519.377.346.566.9.566 1.663v4.458h-.733Zm-2.235-.697c.616 0 1.099-.169 1.448-.507.354-.338.531-.811.531-1.418v-.591l-.99.042c-.786.028-1.355.151-1.704.37-.346.214-.519.55-.519 1.007 0 .358.107.63.322.817.219.186.523.28.912.28Zm9.226-1.085c0 .608-.226 1.077-.679 1.407-.453.329-1.089.494-1.907.494-.867 0-1.542-.137-2.027-.411v-.918c.314.159.65.284 1.007.376.362.091.71.137 1.043.137.517 0 .914-.082 1.192-.245.279-.167.418-.419.418-.757 0-.254-.112-.47-.334-.649-.219-.183-.648-.398-1.288-.644-.607-.226-1.041-.423-1.299-.59a1.846 1.846 0 0 1-.572-.578 1.523 1.523 0 0 1-.185-.769c0-.532.217-.952.65-1.258.433-.31 1.027-.465 1.782-.465.703 0 1.391.144 2.062.43l-.352.804c-.655-.27-1.249-.405-1.782-.405-.468 0-.822.073-1.06.22-.239.147-.358.35-.358.608 0 .175.044.324.131.447.091.124.236.241.435.352.199.111.58.272 1.144.483.775.282 1.298.566 1.568.852.274.286.411.646.411 1.079Z"/>
    <path stroke="#686868" stroke-linecap="round" stroke-linejoin="round" stroke-width="1.526" d="m307.66 212.104-4.451 4.451-4.45-4.451"/>
    <rect width="246.416" height="32.805" x="77.773" y="197.61" stroke="#DADADA" stroke-width=".763" rx="5.722"/>
    <path stroke="#DADADA" stroke-linejoin="round" stroke-width=".763" d="M77.391 252.157H324.57"/>
    <path fill="#282828" d="M79.954 286.519h-1.418v-8.714h4.923v1.204h-3.505v2.718h3.278v1.198h-3.278v3.594Zm10.788-3.314c0 .548-.071 1.035-.214 1.46a2.928 2.928 0 0 1-.626 1.079c-.274.29-.604.512-.99.667-.385.151-.82.227-1.305.227-.453 0-.868-.076-1.246-.227a2.843 2.843 0 0 1-.983-.667 3.062 3.062 0 0 1-.638-1.079 4.35 4.35 0 0 1-.226-1.46c0-.727.125-1.343.375-1.848a2.67 2.67 0 0 1 1.085-1.162c.469-.266 1.027-.399 1.675-.399.608 0 1.144.133 1.61.399.464.266.828.653 1.09 1.162.262.509.393 1.125.393 1.848Zm-4.786 0c0 .48.058.892.173 1.233.12.342.302.604.548.787.247.179.564.268.954.268s.707-.089.954-.268c.246-.183.427-.445.542-.787.115-.341.173-.753.173-1.233 0-.481-.058-.888-.173-1.222-.115-.338-.296-.594-.542-.769-.247-.179-.567-.268-.96-.268-.58 0-1.003.195-1.27.584-.266.389-.399.948-.399 1.675Zm9.739-3.409a3.987 3.987 0 0 1 .703.065l-.13 1.311a1.77 1.77 0 0 0-.31-.053 3.244 3.244 0 0 0-.323-.018c-.25 0-.488.042-.715.125a1.69 1.69 0 0 0-1.013.983c-.1.247-.149.533-.149.859v3.451h-1.407v-6.598h1.097l.19 1.162h.066c.132-.235.294-.449.49-.644.194-.194.416-.349.667-.465.254-.119.532-.178.834-.178Zm9.381 0c.739 0 1.296.19 1.669.572.378.381.566.993.566 1.835v4.316h-1.4v-4.065c0-.501-.098-.878-.292-1.133-.195-.254-.491-.381-.888-.381-.557 0-.958.179-1.204.536-.243.354-.364.868-.364 1.544v3.499h-1.401v-4.065c0-.334-.043-.612-.131-.835a.972.972 0 0 0-.387-.506c-.175-.116-.395-.173-.662-.173-.385 0-.693.087-.923.262-.227.175-.39.433-.49.775-.099.338-.148.753-.148 1.246v3.296h-1.4v-6.598h1.09l.197.888h.077c.135-.231.302-.419.5-.566.203-.151.428-.263.674-.334.247-.076.503-.113.769-.113.493 0 .908.087 1.246.262.337.171.59.433.757.786h.107c.207-.357.495-.621.864-.792.37-.171.761-.256 1.174-.256Zm6.777 0c.834 0 1.464.184 1.889.554.429.369.644.945.644 1.728v4.441h-.995l-.269-.936h-.047c-.187.238-.38.435-.578.59-.199.155-.429.27-.692.346a3.27 3.27 0 0 1-.947.119c-.394 0-.745-.072-1.055-.215a1.67 1.67 0 0 1-.733-.667c-.179-.298-.269-.676-.269-1.133 0-.679.253-1.19.757-1.532.509-.341 1.276-.53 2.301-.566l1.144-.041v-.346c0-.457-.107-.783-.322-.978-.21-.194-.508-.292-.894-.292-.329 0-.649.048-.959.143-.31.096-.612.213-.906.352l-.453-.989c.322-.171.687-.31 1.097-.418a5.11 5.11 0 0 1 1.287-.16Zm1.144 3.57-.852.029c-.699.024-1.19.143-1.472.358-.282.215-.423.509-.423.882 0 .326.097.564.292.715.194.147.451.221.769.221.484 0 .886-.137 1.204-.411.321-.278.482-.686.482-1.222v-.572Zm5.805 2.139c.183 0 .364-.016.543-.047.179-.036.342-.078.489-.126v1.061a2.867 2.867 0 0 1-.602.173 4.02 4.02 0 0 1-.769.072c-.374 0-.709-.062-1.007-.185a1.471 1.471 0 0 1-.71-.65c-.175-.306-.262-.729-.262-1.269v-3.546h-.9v-.626l.966-.495.458-1.413h.883v1.467h1.889v1.067h-1.889v3.528c0 .334.083.582.25.745.167.163.387.244.661.244Zm6.807-.87c0 .433-.105.799-.316 1.097-.211.298-.518.524-.924.679-.401.151-.894.227-1.478.227-.461 0-.858-.034-1.192-.102a4.011 4.011 0 0 1-.936-.298v-1.209a6.65 6.65 0 0 0 1.055.381 4.26 4.26 0 0 0 1.115.161c.461 0 .793-.072.995-.215a.686.686 0 0 0 .304-.584.62.62 0 0 0-.125-.381c-.079-.115-.23-.233-.453-.352a8.67 8.67 0 0 0-.965-.441 7.993 7.993 0 0 1-1.055-.501 1.818 1.818 0 0 1-.65-.602c-.147-.238-.221-.542-.221-.911 0-.585.231-1.028.692-1.33.465-.306 1.079-.458 1.841-.458a5.43 5.43 0 0 1 2.206.476l-.441 1.055a6.687 6.687 0 0 0-.9-.322 3.239 3.239 0 0 0-.912-.131c-.362 0-.638.056-.829.167a.527.527 0 0 0-.28.477c0 .155.046.286.137.393.092.108.249.215.471.322.227.107.54.241.942.4.393.151.733.309 1.019.476.29.163.513.364.668.602.154.239.232.547.232.924Z"/>
    <rect width="91.31" height="27.206" x="77.391" y="298.673" fill="#fff" rx="6.103"/>
    <path fill="#39B5AC" d="M93.762 312.227c0 .545-.07 1.043-.209 1.491-.135.446-.34.83-.614 1.153a2.754 2.754 0 0 1-1.032.741c-.413.174-.897.261-1.453.261-.565 0-1.055-.087-1.472-.261a2.72 2.72 0 0 1-1.031-.746 3.23 3.23 0 0 1-.61-1.157 5.146 5.146 0 0 1-.204-1.492c0-.73.12-1.366.358-1.908a2.762 2.762 0 0 1 1.1-1.269c.494-.303 1.117-.455 1.869-.455.736 0 1.348.15 1.835.45.488.301.852.724 1.095 1.269.245.543.368 1.183.368 1.923Zm-5.405 0c0 .545.075 1.018.223 1.419.149.397.376.703.683.92.31.213.707.319 1.191.319.488 0 .885-.106 1.192-.319.306-.217.532-.523.677-.92.146-.401.218-.874.218-1.419 0-.83-.166-1.479-.498-1.947-.33-.471-.856-.707-1.58-.707-.483 0-.882.107-1.195.32-.31.213-.54.518-.688.915-.148.394-.223.867-.223 1.419Zm9.603-1.913c.604 0 1.074.156 1.41.47.338.31.508.808.508 1.496v3.496H98.74v-3.283c0-.416-.086-.728-.257-.935-.17-.209-.436-.314-.794-.314-.52 0-.881.159-1.085.479-.2.32-.3.783-.3 1.39v2.663h-1.138v-5.36h.886l.16.726h.063c.116-.187.26-.341.431-.46.174-.123.368-.215.581-.276.216-.061.44-.092.673-.092Zm4.654 5.462h-1.143v-7.535h1.143v7.535Zm2.765-5.36v5.36h-1.138v-5.36h1.138Zm-.562-2.054c.175 0 .325.047.451.141.129.093.193.255.193.484 0 .226-.064.387-.193.484a.732.732 0 0 1-.451.141.749.749 0 0 1-.46-.141c-.122-.097-.184-.258-.184-.484 0-.229.062-.391.184-.484a.749.749 0 0 1 .46-.141Zm4.988 1.952c.604 0 1.074.156 1.409.47.339.31.509.808.509 1.496v3.496h-1.138v-3.283c0-.416-.086-.728-.257-.935-.171-.209-.436-.314-.794-.314-.52 0-.881.159-1.085.479-.2.32-.3.783-.3 1.39v2.663h-1.138v-5.36h.886l.16.726h.063c.116-.187.26-.341.431-.46a1.91 1.91 0 0 1 .581-.276c.216-.061.441-.092.673-.092Zm5.647 0c.478 0 .888.098 1.23.295.342.197.605.476.789.838.184.362.276.794.276 1.298v.61h-3.579c.013.52.152.92.417 1.201.268.281.642.421 1.123.421.343 0 .649-.032.921-.097.274-.067.556-.166.847-.295v.925a3.703 3.703 0 0 1-.818.276 4.957 4.957 0 0 1-.998.087c-.526 0-.989-.101-1.39-.305a2.226 2.226 0 0 1-.934-.92c-.223-.407-.335-.912-.335-1.516 0-.6.102-1.11.306-1.53.203-.42.489-.739.857-.959.368-.219.797-.329 1.288-.329Zm0 .857c-.359 0-.649.116-.872.349-.219.232-.349.573-.387 1.021h2.44a1.873 1.873 0 0 0-.135-.711 1.034 1.034 0 0 0-.388-.485c-.171-.116-.39-.174-.658-.174Zm9.288-1.588c-.339 0-.643.061-.91.184-.265.122-.49.3-.674.532-.184.23-.324.509-.421.838a3.87 3.87 0 0 0-.145 1.104c0 .549.077 1.022.232 1.419.155.394.391.697.707.911.317.209.717.314 1.201.314.3 0 .593-.029.877-.087a7.79 7.79 0 0 0 .881-.237v.988a4.53 4.53 0 0 1-.872.247 5.985 5.985 0 0 1-1.017.077c-.723 0-1.323-.15-1.801-.45-.475-.3-.83-.723-1.065-1.269-.233-.546-.349-1.185-.349-1.918 0-.536.074-1.026.223-1.472.148-.445.365-.829.649-1.152a2.805 2.805 0 0 1 1.051-.751c.419-.177.899-.266 1.438-.266.355 0 .704.04 1.046.121.345.077.665.189.959.334l-.407.959a6.028 6.028 0 0 0-.77-.3 2.77 2.77 0 0 0-.833-.126Zm7.898 3.501c0 .445-.058.841-.174 1.186a2.369 2.369 0 0 1-.509.877c-.222.236-.49.416-.803.542a2.887 2.887 0 0 1-1.061.184c-.368 0-.705-.061-1.012-.184a2.302 2.302 0 0 1-.799-.542 2.47 2.47 0 0 1-.518-.877 3.525 3.525 0 0 1-.184-1.186c0-.591.101-1.091.305-1.501.206-.414.5-.728.881-.945.381-.216.835-.324 1.361-.324.494 0 .93.108 1.307.324.378.217.674.531.887.945.213.413.319.913.319 1.501Zm-3.888 0c0 .391.046.725.14 1.002.097.278.245.491.446.64.2.145.458.217.774.217.317 0 .575-.072.775-.217.2-.149.347-.362.441-.64.093-.277.14-.611.14-1.002s-.047-.722-.14-.993a1.227 1.227 0 0 0-.441-.625c-.2-.145-.46-.217-.779-.217-.472 0-.816.158-1.032.474-.216.316-.324.77-.324 1.361Zm9.869-2.668v5.36h-.896l-.155-.721h-.063a1.552 1.552 0 0 1-.431.46 1.911 1.911 0 0 1-.581.266 2.4 2.4 0 0 1-.673.092c-.404 0-.749-.068-1.036-.203a1.434 1.434 0 0 1-.654-.639c-.152-.288-.228-.659-.228-1.114v-3.501h1.143v3.288c0 .416.084.728.252.934.171.207.436.31.794.31.345 0 .62-.071.823-.213.204-.142.347-.352.431-.629a3.46 3.46 0 0 0 .131-1.022v-2.668h1.143Zm4.349-.102c.09 0 .188.005.295.014.106.01.198.023.276.039l-.107 1.066a1.384 1.384 0 0 0-.251-.044 2.574 2.574 0 0 0-.262-.015c-.203 0-.397.034-.581.102a1.37 1.37 0 0 0-.823.799 1.85 1.85 0 0 0-.121.697v2.804h-1.143v-5.36h.891l.155.944h.053c.107-.191.239-.365.397-.523.158-.158.339-.284.543-.378.206-.097.432-.145.678-.145Zm5.167 3.932c0 .352-.086.649-.257.891s-.421.426-.751.552c-.326.123-.726.184-1.201.184-.374 0-.697-.027-.968-.082a3.306 3.306 0 0 1-.76-.242v-.983c.255.119.54.222.857.31.319.087.621.13.905.13.375 0 .644-.058.809-.174a.558.558 0 0 0 .247-.475.499.499 0 0 0-.102-.309c-.064-.094-.187-.189-.368-.286-.177-.1-.439-.22-.784-.359a6.514 6.514 0 0 1-.857-.406 1.493 1.493 0 0 1-.528-.489c-.12-.194-.179-.441-.179-.741 0-.475.187-.835.561-1.08.378-.249.877-.373 1.497-.373.329 0 .639.034.929.102.294.064.582.159.862.285l-.358.857a5.464 5.464 0 0 0-.731-.261 2.62 2.62 0 0 0-.741-.107c-.294 0-.518.046-.673.136a.427.427 0 0 0-.228.387c0 .126.037.233.112.32.074.087.201.174.382.262.184.087.439.195.765.324.32.123.596.252.828.387.236.133.417.296.543.489.126.194.189.444.189.751Zm3.365-3.932c.478 0 .888.098 1.23.295.342.197.606.476.79.838.184.362.276.794.276 1.298v.61h-3.579c.013.52.152.92.416 1.201.268.281.643.421 1.124.421.342 0 .649-.032.92-.097.274-.067.557-.166.847-.295v.925c-.268.126-.54.218-.818.276a4.95 4.95 0 0 1-.998.087c-.526 0-.989-.101-1.389-.305a2.228 2.228 0 0 1-.935-.92c-.223-.407-.334-.912-.334-1.516 0-.6.102-1.11.305-1.53.203-.42.489-.739.857-.959.368-.219.797-.329 1.288-.329Zm0 .857c-.358 0-.649.116-.871.349-.22.232-.349.573-.388 1.021h2.441a1.873 1.873 0 0 0-.136-.711 1.038 1.038 0 0 0-.387-.485c-.171-.116-.391-.174-.659-.174Zm7.182 3.075c0 .352-.086.649-.257.891s-.421.426-.75.552c-.327.123-.727.184-1.201.184-.375 0-.698-.027-.969-.082a3.322 3.322 0 0 1-.76-.242v-.983c.255.119.541.222.857.31.32.087.621.13.905.13.375 0 .645-.058.809-.174a.558.558 0 0 0 .247-.475.499.499 0 0 0-.102-.309c-.064-.094-.187-.189-.368-.286-.177-.1-.439-.22-.784-.359a6.514 6.514 0 0 1-.857-.406 1.493 1.493 0 0 1-.528-.489c-.12-.194-.179-.441-.179-.741 0-.475.187-.835.562-1.08.377-.249.876-.373 1.496-.373a4.398 4.398 0 0 1 1.792.387l-.359.857a5.464 5.464 0 0 0-.731-.261 2.62 2.62 0 0 0-.741-.107c-.294 0-.518.046-.673.136a.427.427 0 0 0-.228.387c0 .126.038.233.112.32.074.087.202.174.382.262.184.087.439.195.765.324.32.123.596.252.829.387.235.133.416.296.542.489.126.194.189.444.189.751Z"/>
    <rect width="91.31" height="27.206" x="77.391" y="298.673" stroke="#39B5AC" stroke-width=".763" rx="6.103"/>
    <rect width="61.31" height="27.206" x="174.804" y="298.673" fill="#fff" rx="6.103"/>
    <path fill="#39B5AC" d="M186.947 308.696c.913 0 1.58.188 2 .562.42.375.629.899.629 1.574 0 .307-.048.599-.145.877a1.87 1.87 0 0 1-.465.731c-.216.21-.502.376-.857.499-.352.122-.786.184-1.303.184h-.755v2.653h-1.162v-7.08h2.058Zm-.078.964h-.818v2.494h.634c.365 0 .675-.042.93-.126.255-.087.449-.224.581-.411.133-.188.199-.435.199-.741 0-.41-.125-.715-.373-.916-.245-.2-.63-.3-1.153-.3Zm8.751 3.424c0 .445-.058.841-.174 1.186a2.383 2.383 0 0 1-.509.877 2.24 2.24 0 0 1-.804.542 2.878 2.878 0 0 1-1.06.184c-.368 0-.706-.061-1.012-.184a2.302 2.302 0 0 1-.799-.542 2.487 2.487 0 0 1-.519-.877 3.55 3.55 0 0 1-.184-1.186c0-.591.102-1.091.305-1.501.207-.414.501-.728.882-.945.381-.216.834-.324 1.361-.324.494 0 .929.108 1.307.324.378.217.673.531.886.945.213.413.32.913.32 1.501Zm-3.889 0c0 .391.047.725.141 1.002.097.278.245.491.445.64.2.145.459.217.775.217s.575-.072.775-.217c.2-.149.347-.362.441-.64.093-.277.14-.611.14-1.002s-.047-.722-.14-.993a1.227 1.227 0 0 0-.441-.625c-.2-.145-.46-.217-.78-.217-.471 0-.815.158-1.031.474-.217.316-.325.77-.325 1.361Zm6.998 2.789c-.639 0-1.153-.232-1.54-.697-.384-.468-.576-1.158-.576-2.068 0-.92.195-1.616.586-2.087.394-.471.912-.707 1.554-.707.271 0 .509.037.712.111.203.071.378.168.523.291.148.123.274.26.378.411h.053c-.016-.1-.036-.243-.058-.431a5.047 5.047 0 0 1-.029-.527v-1.928h1.143v7.535h-.891l-.204-.731h-.048a1.714 1.714 0 0 1-.891.717c-.2.074-.438.111-.712.111Zm.32-.925c.487 0 .831-.14 1.031-.421.2-.281.303-.702.31-1.264v-.15c0-.601-.097-1.061-.291-1.38-.193-.323-.547-.484-1.06-.484-.41 0-.723.166-.94.498-.213.33-.319.79-.319 1.38 0 .591.106 1.043.319 1.356.217.31.533.465.95.465Zm6.217.925c-.506 0-.945-.098-1.317-.295a1.98 1.98 0 0 1-.857-.906c-.2-.407-.3-.923-.3-1.549 0-.653.11-1.185.329-1.598.22-.414.523-.719.911-.916.39-.197.837-.295 1.341-.295.32 0 .609.032.867.097.261.061.482.137.663.227l-.339.911a4.887 4.887 0 0 0-.605-.204 2.314 2.314 0 0 0-.596-.082c-.313 0-.574.069-.784.208a1.248 1.248 0 0 0-.465.62c-.1.275-.15.615-.15 1.022 0 .394.051.726.155.998.103.267.256.471.46.61.203.135.453.203.75.203.294 0 .557-.035.79-.106.232-.071.452-.164.658-.276v.987a2.416 2.416 0 0 1-.653.257 3.61 3.61 0 0 1-.858.087Zm4.872-5.559c.678 0 1.19.15 1.535.45.349.301.523.769.523 1.405v3.607h-.808l-.218-.76h-.039a2.711 2.711 0 0 1-.47.479c-.161.126-.349.22-.562.281a2.625 2.625 0 0 1-.77.097c-.319 0-.605-.058-.857-.174-.252-.12-.45-.3-.595-.542-.146-.243-.218-.549-.218-.921 0-.552.205-.966.615-1.244.413-.278 1.036-.431 1.869-.46l.93-.034v-.281c0-.371-.087-.636-.262-.794-.171-.158-.413-.237-.726-.237-.268 0-.528.038-.78.116a5.439 5.439 0 0 0-.736.286l-.368-.804a4.13 4.13 0 0 1 .891-.339 4.113 4.113 0 0 1 1.046-.131Zm.93 2.901-.693.024c-.568.019-.967.116-1.196.29a.854.854 0 0 0-.344.717c0 .265.08.459.238.581.158.12.366.179.624.179.394 0 .72-.111.979-.334.261-.226.392-.557.392-.992v-.465Zm6.324 1.031c0 .352-.085.649-.256.891-.171.242-.422.426-.751.552-.326.123-.726.184-1.201.184-.374 0-.697-.027-.968-.082a3.33 3.33 0 0 1-.761-.242v-.983c.255.119.541.222.857.31.32.087.622.13.906.13.375 0 .644-.058.809-.174a.56.56 0 0 0 .145-.784c-.065-.094-.187-.189-.368-.286a7.07 7.07 0 0 0-.785-.359 6.576 6.576 0 0 1-.857-.406 1.51 1.51 0 0 1-.528-.489c-.119-.194-.179-.441-.179-.741 0-.475.188-.835.562-1.08.378-.249.877-.373 1.496-.373a4.377 4.377 0 0 1 1.792.387l-.358.857a5.464 5.464 0 0 0-.731-.261 2.63 2.63 0 0 0-.741-.107c-.294 0-.518.046-.673.136a.427.427 0 0 0-.228.387c0 .126.037.233.111.32.075.087.202.174.383.262.184.087.439.195.765.324.32.123.596.252.828.387.236.133.417.296.542.489.126.194.189.444.189.751Zm3.226.707c.148 0 .295-.013.44-.039.145-.029.278-.063.397-.101v.862a2.396 2.396 0 0 1-.489.14c-.2.039-.408.058-.625.058-.303 0-.576-.05-.818-.15a1.194 1.194 0 0 1-.576-.528c-.142-.248-.213-.592-.213-1.031v-2.882h-.731v-.508l.784-.402.373-1.148h.717v1.192h1.535v.866h-1.535v2.867c0 .271.067.473.203.606a.74.74 0 0 0 .538.198Zm5.53-.707c0 .352-.086.649-.257.891s-.421.426-.75.552c-.327.123-.727.184-1.201.184-.375 0-.698-.027-.969-.082a3.322 3.322 0 0 1-.76-.242v-.983c.255.119.541.222.857.31.32.087.621.13.905.13.375 0 .645-.058.809-.174a.558.558 0 0 0 .247-.475.499.499 0 0 0-.102-.309c-.064-.094-.187-.189-.368-.286-.177-.1-.439-.22-.784-.359a6.514 6.514 0 0 1-.857-.406 1.493 1.493 0 0 1-.528-.489c-.12-.194-.179-.441-.179-.741 0-.475.187-.835.561-1.08.378-.249.877-.373 1.497-.373a4.398 4.398 0 0 1 1.792.387l-.359.857a5.464 5.464 0 0 0-.731-.261 2.62 2.62 0 0 0-.741-.107c-.294 0-.518.046-.673.136a.427.427 0 0 0-.228.387c0 .126.038.233.112.32.074.087.202.174.382.262.184.087.439.195.765.324.32.123.596.252.829.387.235.133.416.296.542.489.126.194.189.444.189.751Z"/>
    <rect width="61.31" height="27.206" x="174.804" y="298.673" stroke="#39B5AC" stroke-width=".763" rx="6.103"/>
    <rect width="77.31" height="27.206" x="77.391" y="335.035" fill="#39B5AC" fill-opacity=".15" rx="6.103"/>
    <path fill="#39B5AC" d="M89.534 345.058c.914 0 1.58.187 2 .562.42.374.63.899.63 1.573 0 .307-.049.599-.146.877a1.862 1.862 0 0 1-.465.731c-.216.21-.501.376-.857.499-.352.123-.786.184-1.302.184h-.756v2.654h-1.162v-7.08h2.058Zm-.077.963h-.819v2.494h.635c.364 0 .674-.042.93-.125.254-.088.448-.225.58-.412.133-.187.199-.434.199-.741 0-.41-.124-.715-.373-.915-.245-.2-.63-.301-1.152-.301Zm8.678.756v5.361h-.896l-.155-.722h-.063a1.537 1.537 0 0 1-.431.46c-.175.12-.368.208-.581.267a2.435 2.435 0 0 1-.673.092c-.404 0-.75-.068-1.037-.204a1.441 1.441 0 0 1-.654-.639c-.151-.287-.227-.659-.227-1.114v-3.501h1.143v3.288c0 .417.084.728.251.935.172.206.436.31.795.31.345 0 .62-.071.823-.213.203-.143.347-.352.431-.63.087-.278.13-.618.13-1.022v-2.668h1.144Zm2.77-2.174v1.816c0 .209-.007.416-.02.619-.009.201-.019.357-.029.47h.049c.145-.232.347-.428.605-.586.261-.161.596-.242 1.002-.242.636 0 1.148.234 1.535.702.388.465.582 1.154.582 2.068 0 .607-.089 1.117-.267 1.53-.177.414-.428.727-.75.94-.32.21-.696.315-1.129.315-.407 0-.736-.075-.988-.223a1.962 1.962 0 0 1-.586-.528h-.082l-.208.654h-.853v-7.535h1.139Zm1.307 3.002c-.323 0-.579.065-.77.194a1.086 1.086 0 0 0-.407.581c-.084.255-.127.579-.13.973v.102c0 .597.093 1.054.28 1.37.191.317.536.475 1.037.475.397 0 .702-.16.915-.479.213-.323.32-.785.32-1.385 0-.607-.107-1.064-.32-1.371-.21-.307-.518-.46-.925-.46Zm4.877 4.533h-1.143v-7.535h1.143v7.535Zm2.765-5.361v5.361h-1.138v-5.361h1.138Zm-.562-2.053a.73.73 0 0 1 .45.14c.129.094.194.255.194.484 0 .226-.065.388-.194.485a.737.737 0 0 1-.45.14.753.753 0 0 1-.46-.14c-.123-.097-.184-.259-.184-.485 0-.229.061-.39.184-.484a.746.746 0 0 1 .46-.14Zm4.353 7.511c-.506 0-.945-.099-1.317-.296a1.983 1.983 0 0 1-.857-.905c-.2-.407-.3-.924-.3-1.55 0-.652.11-1.185.329-1.598.22-.413.523-.718.911-.915.39-.197.837-.296 1.341-.296.32 0 .609.033.867.097.261.061.482.137.663.228l-.339.91a4.883 4.883 0 0 0-.605-.203 2.317 2.317 0 0 0-.596-.083c-.313 0-.574.07-.784.209a1.24 1.24 0 0 0-.465.619c-.1.275-.15.615-.15 1.022 0 .394.051.727.155.998.103.268.256.471.46.61.203.136.453.203.75.203.294 0 .557-.035.79-.106.232-.071.452-.163.658-.276v.988a2.446 2.446 0 0 1-.653.256 3.605 3.605 0 0 1-.858.088Zm4.872-5.56c.678 0 1.19.15 1.535.451.349.3.523.768.523 1.404v3.608h-.808l-.218-.761h-.039a2.754 2.754 0 0 1-.47.48 1.65 1.65 0 0 1-.562.281 2.66 2.66 0 0 1-.77.097c-.319 0-.605-.059-.857-.175-.252-.119-.45-.3-.595-.542-.146-.242-.218-.549-.218-.92 0-.552.205-.967.615-1.245.413-.277 1.036-.431 1.869-.46l.93-.034v-.281c0-.371-.087-.636-.262-.794-.171-.158-.413-.237-.726-.237-.268 0-.528.039-.78.116a5.574 5.574 0 0 0-.736.286l-.368-.804a4.13 4.13 0 0 1 .891-.339 4.158 4.158 0 0 1 1.046-.131Zm.93 2.901-.693.024c-.568.02-.966.116-1.196.291a.85.85 0 0 0-.344.716c0 .265.08.459.238.582.158.119.366.179.624.179.394 0 .72-.112.979-.334.261-.226.392-.557.392-.993v-.465Zm4.717 1.738a2.49 2.49 0 0 0 .837-.14v.862a2.316 2.316 0 0 1-.489.14c-.2.039-.408.059-.624.059-.304 0-.577-.05-.819-.151a1.197 1.197 0 0 1-.576-.527c-.142-.249-.213-.593-.213-1.032v-2.881h-.731v-.509l.784-.402.373-1.147h.717v1.191h1.535v.867h-1.535v2.867c0 .271.068.473.203.605a.74.74 0 0 0 .538.198Zm3.065-4.537v5.361h-1.138v-5.361h1.138Zm-.562-2.053c.175 0 .325.046.451.14.129.094.193.255.193.484 0 .226-.064.388-.193.485a.738.738 0 0 1-.451.14.753.753 0 0 1-.46-.14c-.122-.097-.184-.259-.184-.485 0-.229.062-.39.184-.484a.746.746 0 0 1 .46-.14Zm6.94 4.721c0 .446-.058.841-.175 1.187a2.37 2.37 0 0 1-.508.876 2.243 2.243 0 0 1-.804.543 2.902 2.902 0 0 1-1.06.184c-.369 0-.706-.062-1.013-.184a2.314 2.314 0 0 1-.799-.543 2.505 2.505 0 0 1-.518-.876 3.556 3.556 0 0 1-.184-1.187c0-.591.102-1.091.305-1.501.207-.413.501-.728.882-.944.381-.217.834-.325 1.36-.325.494 0 .93.108 1.308.325.378.216.673.531.886.944.213.413.32.914.32 1.501Zm-3.889 0c0 .391.047.725.141 1.003.096.277.245.49.445.639.2.145.459.218.775.218s.575-.073.775-.218c.2-.149.347-.362.44-.639.094-.278.141-.612.141-1.003 0-.39-.047-.721-.141-.993a1.217 1.217 0 0 0-.44-.624c-.2-.146-.46-.218-.78-.218-.471 0-.815.158-1.031.474-.217.317-.325.77-.325 1.361Zm7.99-2.77c.604 0 1.074.157 1.41.47.339.31.508.809.508 1.496v3.497h-1.138v-3.284c0-.416-.085-.728-.257-.934-.171-.21-.435-.315-.794-.315-.52 0-.881.16-1.084.479-.201.32-.301.783-.301 1.39v2.664h-1.138v-5.361h.886l.16.726h.063c.116-.187.26-.34.431-.46a1.97 1.97 0 0 1 .581-.276c.217-.061.441-.092.673-.092Zm7.114 3.932c0 .352-.085.649-.256.891-.172.243-.422.427-.751.553-.326.122-.726.184-1.201.184a4.95 4.95 0 0 1-.969-.083 3.289 3.289 0 0 1-.76-.242v-.983c.255.119.541.223.857.31.32.087.622.131.906.131.374 0 .644-.058.809-.175a.559.559 0 0 0 .145-.784c-.065-.094-.187-.189-.368-.286a7.1 7.1 0 0 0-.785-.358 6.569 6.569 0 0 1-.857-.407 1.51 1.51 0 0 1-.528-.489c-.119-.194-.179-.441-.179-.741 0-.475.187-.835.562-1.08.378-.248.876-.373 1.496-.373a4.38 4.38 0 0 1 1.792.388l-.358.857a5.3 5.3 0 0 0-.732-.262 2.617 2.617 0 0 0-.74-.106c-.294 0-.519.045-.674.135a.43.43 0 0 0-.227.388c0 .126.037.232.111.319.074.088.202.175.383.262.184.087.439.195.765.324.32.123.596.252.828.388.236.132.416.295.542.489.126.194.189.444.189.75Z"/>
    <rect width="77.31" height="27.206" x="77.391" y="335.035" stroke="#39B5AC" stroke-width=".763" rx="6.103"/>
    <rect width="50.31" height="27.206" x="160.804" y="335.035" fill="#fff" rx="6.103"/>
    <path fill="#39B5AC" d="M174.898 352.138h-4.009v-7.08h4.009v.978h-2.847v1.923h2.668v.973h-2.668v2.223h2.847v.983Zm2.64 0-2.039-5.361h1.206l1.104 3.148a7.298 7.298 0 0 1 .315 1.234h.038c.023-.164.066-.361.131-.59.065-.233.131-.447.199-.644l1.104-3.148h1.201l-2.039 5.361h-1.22Zm6.208-5.463c.478 0 .888.099 1.23.296.342.197.605.476.789.837.184.362.276.795.276 1.298v.61h-3.578c.012.52.151.92.416 1.201.268.281.642.422 1.124.422.342 0 .648-.033.92-.097.274-.068.557-.166.847-.296v.925a3.703 3.703 0 0 1-.818.276 4.95 4.95 0 0 1-.998.088c-.526 0-.989-.102-1.39-.306a2.226 2.226 0 0 1-.934-.92c-.223-.406-.335-.912-.335-1.515 0-.601.102-1.111.306-1.531.203-.419.489-.739.857-.958.368-.22.797-.33 1.288-.33Zm0 .857c-.359 0-.649.117-.872.349-.219.232-.348.573-.387 1.022h2.44a1.878 1.878 0 0 0-.135-.712 1.026 1.026 0 0 0-.388-.484c-.171-.117-.39-.175-.658-.175Zm6.373-.857c.603 0 1.073.157 1.409.47.339.31.508.809.508 1.496v3.497h-1.138v-3.284c0-.416-.085-.728-.256-.934-.171-.21-.436-.315-.794-.315-.52 0-.882.16-1.085.479-.2.32-.3.783-.3 1.39v2.664h-1.138v-5.361h.886l.16.726h.063c.116-.187.259-.34.43-.46.175-.122.369-.214.582-.276.216-.061.44-.092.673-.092Zm5.506 4.639c.148 0 .295-.012.44-.038.146-.029.278-.063.398-.102v.862a2.327 2.327 0 0 1-.49.14c-.2.039-.408.059-.624.059-.304 0-.577-.05-.819-.151a1.197 1.197 0 0 1-.576-.527c-.142-.249-.213-.593-.213-1.032v-2.881h-.731v-.509l.784-.402.373-1.147h.717v1.191h1.535v.867h-1.535v2.867c0 .271.068.473.203.605a.74.74 0 0 0 .538.198Zm5.53-.707c0 .352-.085.649-.257.891-.171.243-.421.427-.75.553-.326.122-.727.184-1.201.184-.375 0-.698-.028-.969-.083a3.273 3.273 0 0 1-.76-.242v-.983c.255.119.541.223.857.31.32.087.622.131.906.131.374 0 .644-.058.808-.175a.556.556 0 0 0 .247-.474.5.5 0 0 0-.101-.31c-.065-.094-.188-.189-.368-.286a7.1 7.1 0 0 0-.785-.358 6.507 6.507 0 0 1-.857-.407 1.51 1.51 0 0 1-.528-.489c-.119-.194-.179-.441-.179-.741 0-.475.187-.835.562-1.08.377-.248.876-.373 1.496-.373a4.38 4.38 0 0 1 1.792.388l-.358.857a5.347 5.347 0 0 0-.732-.262 2.618 2.618 0 0 0-.741-.106c-.293 0-.518.045-.673.135a.43.43 0 0 0-.227.388c0 .126.037.232.111.319.074.088.202.175.383.262.184.087.439.195.765.324.319.123.595.252.828.388.235.132.416.295.542.489.126.194.189.444.189.75Z"/>
    <rect width="50.31" height="27.206" x="160.804" y="335.035" stroke="#39B5AC" stroke-width=".763" rx="6.103"/>
    <rect width="50.31" height="27.206" x="217.217" y="335.035" fill="#39B5AC" fill-opacity=".15" rx="6.103"/>
    <path fill="#39B5AC" d="m232.551 345.058-2.475 7.08h-1.23l-2.474-7.08h1.191l1.492 4.436c.045.129.093.285.145.469.055.184.105.37.15.557.048.188.085.354.111.499a9.04 9.04 0 0 1 .107-.499c.048-.187.098-.373.15-.557.052-.184.1-.342.145-.474l1.497-4.431h1.191Zm1.951 1.719v5.361h-1.138v-5.361h1.138Zm-.561-2.053a.73.73 0 0 1 .45.14c.129.094.194.255.194.484 0 .226-.065.388-.194.485a.737.737 0 0 1-.45.14.753.753 0 0 1-.46-.14c-.123-.097-.184-.259-.184-.485 0-.229.061-.39.184-.484a.746.746 0 0 1 .46-.14Zm3.995 7.511c-.639 0-1.153-.233-1.54-.698-.384-.468-.576-1.157-.576-2.068 0-.92.195-1.615.586-2.087.393-.471.912-.707 1.554-.707.271 0 .509.037.712.112.203.071.378.167.523.29.148.123.274.26.378.412h.053c-.016-.1-.036-.244-.058-.431a5.08 5.08 0 0 1-.029-.528v-1.927h1.143v7.535h-.891l-.204-.732h-.048a1.733 1.733 0 0 1-.891.717c-.2.074-.438.112-.712.112Zm.319-.925c.488 0 .832-.141 1.032-.422.2-.281.303-.702.31-1.264v-.15c0-.6-.097-1.06-.291-1.38-.193-.323-.547-.484-1.06-.484-.41 0-.723.166-.94.499-.213.329-.319.789-.319 1.38 0 .591.106 1.043.319 1.356.217.31.533.465.949.465Zm6.194-4.635c.478 0 .888.099 1.23.296.342.197.606.476.79.837.184.362.276.795.276 1.298v.61h-3.579c.013.52.152.92.416 1.201.268.281.643.422 1.124.422.342 0 .649-.033.92-.097.274-.068.557-.166.847-.296v.925c-.268.126-.54.218-.818.276-.278.058-.61.088-.998.088-.526 0-.989-.102-1.389-.306a2.223 2.223 0 0 1-.935-.92c-.223-.406-.334-.912-.334-1.515 0-.601.102-1.111.305-1.531.203-.419.489-.739.857-.958.368-.22.797-.33 1.288-.33Zm0 .857c-.358 0-.649.117-.871.349-.22.232-.349.573-.388 1.022h2.441a1.878 1.878 0 0 0-.136-.712 1.03 1.03 0 0 0-.387-.484c-.171-.117-.391-.175-.659-.175Zm8.325 1.913c0 .446-.058.841-.175 1.187a2.37 2.37 0 0 1-.508.876 2.243 2.243 0 0 1-.804.543 2.904 2.904 0 0 1-1.061.184c-.368 0-.705-.062-1.012-.184a2.314 2.314 0 0 1-.799-.543 2.505 2.505 0 0 1-.518-.876 3.531 3.531 0 0 1-.184-1.187c0-.591.102-1.091.305-1.501.207-.413.501-.728.882-.944.381-.217.834-.325 1.36-.325.494 0 .93.108 1.308.325.378.216.673.531.886.944.213.413.32.914.32 1.501Zm-3.889 0c0 .391.047.725.14 1.003.097.277.246.49.446.639.2.145.458.218.775.218.316 0 .574-.073.775-.218.2-.149.347-.362.44-.639.094-.278.141-.612.141-1.003 0-.39-.047-.721-.141-.993a1.217 1.217 0 0 0-.44-.624c-.201-.146-.46-.218-.78-.218-.471 0-.815.158-1.032.474-.216.317-.324.77-.324 1.361Zm8.799 1.162c0 .352-.085.649-.257.891-.171.243-.421.427-.75.553-.326.122-.727.184-1.201.184-.375 0-.698-.028-.969-.083a3.273 3.273 0 0 1-.76-.242v-.983c.255.119.541.223.857.31.32.087.622.131.906.131.374 0 .644-.058.808-.175a.556.556 0 0 0 .247-.474.5.5 0 0 0-.101-.31c-.065-.094-.188-.189-.368-.286a7.1 7.1 0 0 0-.785-.358 6.507 6.507 0 0 1-.857-.407 1.51 1.51 0 0 1-.528-.489c-.119-.194-.179-.441-.179-.741 0-.475.187-.835.562-1.08.377-.248.876-.373 1.496-.373a4.38 4.38 0 0 1 1.792.388l-.358.857a5.347 5.347 0 0 0-.732-.262 2.618 2.618 0 0 0-.741-.106c-.293 0-.518.045-.673.135a.43.43 0 0 0-.227.388c0 .126.037.232.111.319.074.088.202.175.383.262.184.087.439.195.765.324.319.123.595.252.828.388.236.132.416.295.542.489.126.194.189.444.189.75Z"/>
    <rect width="50.31" height="27.206" x="217.217" y="335.035" stroke="#39B5AC" stroke-width=".763" rx="6.103"/>
    <rect width="307.448" height="32.805" x="47.257" y="54.948" fill="#fff" rx="5.722"/>
    <path stroke="#686868" stroke-linecap="round" stroke-linejoin="round" stroke-width="1.526" d="m71.002 77.168-3.624-3.624m1.208-3.02a4.227 4.227 0 1 1-8.454 0 4.227 4.227 0 0 1 8.454 0Z"/>
    <path fill="#686868" d="M86.558 74.166c0 .767-.278 1.365-.834 1.794-.557.429-1.312.644-2.265.644-1.033 0-1.828-.133-2.384-.4v-.977c.357.15.747.27 1.168.357.421.088.838.132 1.252.132.675 0 1.184-.128 1.525-.382.342-.258.513-.616.513-1.073 0-.302-.062-.548-.185-.739-.119-.195-.322-.373-.608-.536-.282-.163-.713-.348-1.293-.555-.81-.29-1.39-.633-1.74-1.03-.346-.398-.519-.916-.519-1.556 0-.672.252-1.206.757-1.603.505-.398 1.172-.597 2.003-.597.866 0 1.663.16 2.39.477l-.316.882c-.72-.302-1.419-.453-2.098-.453-.537 0-.956.116-1.258.346-.302.23-.453.55-.453.96 0 .302.056.55.167.745.111.19.298.367.56.53.267.16.672.336 1.216.53.914.326 1.542.676 1.884 1.05.345.373.518.858.518 1.454Zm4.393 2.438c-.966 0-1.729-.294-2.289-.882-.556-.589-.834-1.405-.834-2.45 0-1.053.258-1.89.775-2.51.52-.62 1.217-.93 2.092-.93.818 0 1.466.271 1.943.811.476.537.715 1.246.715 2.128v.626h-4.5c.02.767.212 1.349.578 1.746.37.398.888.596 1.556.596.703 0 1.398-.147 2.086-.44v.881a5.06 5.06 0 0 1-.996.322c-.31.068-.685.102-1.126.102Zm-.268-5.943c-.525 0-.944.171-1.258.513-.31.342-.493.814-.548 1.418h3.415c0-.623-.14-1.1-.417-1.43-.279-.334-.676-.5-1.192-.5Zm8.38 5.823-.197-.93h-.048c-.326.41-.651.688-.977.835-.322.143-.725.215-1.21.215-.648 0-1.156-.167-1.526-.501-.366-.334-.548-.809-.548-1.424 0-1.32 1.055-2.011 3.165-2.075l1.108-.035v-.406c0-.512-.111-.89-.334-1.132-.218-.247-.57-.37-1.055-.37-.544 0-1.16.167-1.847.501l-.304-.757a4.662 4.662 0 0 1 1.055-.411c.385-.1.77-.15 1.156-.15.779 0 1.355.174 1.728.52.378.345.567.9.567 1.662v4.458h-.734Zm-2.236-.697c.616 0 1.1-.169 1.449-.507.353-.337.53-.81.53-1.418v-.59l-.99.042c-.786.027-1.354.15-1.704.37-.345.214-.518.55-.518 1.006 0 .358.107.63.322.817.218.187.522.28.912.28Zm7.993-5.954c.29 0 .55.024.781.071l-.137.918c-.27-.06-.509-.09-.716-.09-.528 0-.981.215-1.358.644-.374.43-.561.964-.561 1.604v3.504h-.989v-6.532h.816l.114 1.21h.047c.243-.425.535-.753.877-.984a1.97 1.97 0 0 1 1.126-.345Zm4.613 6.77c-.946 0-1.679-.29-2.199-.87-.517-.584-.775-1.408-.775-2.473 0-1.093.262-1.937.787-2.533.528-.596 1.279-.894 2.253-.894.314 0 .628.034.941.101.314.068.561.147.739.239l-.303.84a4.434 4.434 0 0 0-.716-.215 3.085 3.085 0 0 0-.685-.089c-1.327 0-1.991.846-1.991 2.539 0 .803.161 1.418.483 1.848.326.429.807.643 1.442.643a4.4 4.4 0 0 0 1.675-.351v.876c-.437.226-.987.34-1.651.34Zm7.677-.119V72.26c0-.533-.121-.93-.364-1.192-.242-.263-.622-.394-1.138-.394-.688 0-1.19.187-1.508.56-.314.374-.471.986-.471 1.836v3.415h-.989V67.21h.989v2.808c0 .337-.016.617-.048.84h.06c.195-.314.471-.56.828-.74a2.7 2.7 0 0 1 1.234-.273c.799 0 1.397.19 1.794.572.402.377.602.98.602 1.806v4.261h-.989Z"/>
    <rect width="307.448" height="32.805" x="47.257" y="54.948" stroke="#DADADA" stroke-width=".763" rx="5.722"/>
  </g>
  <g filter="url(#c)">
    <path fill="#227973" d="M292.975 2.654a4.44 4.44 0 0 0-3.8 2.193l-22.603 39.151a4.447 4.447 0 0 0 0 4.386l22.603 39.142a4.385 4.385 0 0 0 3.8 2.193h45.206a4.391 4.391 0 0 0 3.791-2.193l22.603-39.142a4.447 4.447 0 0 0 0-4.386l-22.603-39.15a4.442 4.442 0 0 0-3.791-2.194h-45.206Z"/>
  </g>
  <path fill="#fff" d="M307.891 67.186c-.76 0-1.292-.133-1.596-.399-.304-.303-.456-.797-.456-1.482v-1.653c0-.721.152-1.235.456-1.538.304-.304.836-.456 1.596-.456h5.586V36.406l-4.902 2.965c-.304.19-.57.285-.798.285-.342 0-.627-.19-.855-.57l-1.824-2.85c-.152-.267-.228-.514-.228-.741 0-.38.209-.684.627-.912l9.405-5.643c.266-.19.532-.324.798-.4.266-.075.627-.113 1.083-.113h1.881c1.444 0 2.166.703 2.166 2.108v31.122h5.586c.76 0 1.292.153 1.596.457.304.303.456.817.456 1.539v1.652c0 .684-.152 1.178-.456 1.482-.304.266-.836.4-1.596.4h-18.525Z"/>
  <defs>
    <filter id="a" width="384" height="339.645" x="1" y="19" color-interpolation-filters="sRGB" filterUnits="userSpaceOnUse">
      <feFlood flood-opacity="0" result="BackgroundImageFix"/>
      <feColorMatrix in="SourceAlpha" result="hardAlpha" values="0 0 0 0 0 0 0 0 0 0 0 0 0 0 0 0 0 0 127 0"/>
      <feOffset dx="2" dy="4"/>
      <feGaussianBlur stdDeviation="1"/>
      <feComposite in2="hardAlpha" operator="out"/>
      <feColorMatrix values="0 0 0 0 0 0 0 0 0 0 0 0 0 0 0 0 0 0 0.7 0"/>
      <feBlend in2="BackgroundImageFix" result="effect1_dropShadow_768_1530"/>
      <feBlend in="SourceGraphic" in2="effect1_dropShadow_768_1530" result="shape"/>
    </filter>
    <filter id="c" width="107.161" height="95.065" x="263.993" y=".654" color-interpolation-filters="sRGB" filterUnits="userSpaceOnUse">
      <feFlood flood-opacity="0" result="BackgroundImageFix"/>
      <feColorMatrix in="SourceAlpha" result="hardAlpha" values="0 0 0 0 0 0 0 0 0 0 0 0 0 0 0 0 0 0 127 0"/>
      <feOffset dx="2" dy="2"/>
      <feGaussianBlur stdDeviation="2"/>
      <feComposite in2="hardAlpha" operator="out"/>
      <feColorMatrix values="0 0 0 0 0 0 0 0 0 0 0 0 0 0 0 0 0 0 0.25 0"/>
      <feBlend in2="BackgroundImageFix" result="effect1_dropShadow_768_1530"/>
      <feBlend in="SourceGraphic" in2="effect1_dropShadow_768_1530" result="shape"/>
    </filter>
  </defs>
</svg>