<svg xmlns="http://www.w3.org/2000/svg" fill="none">
  <path fill="#363636" d="M252.325 345.444c3.761.193 6.381 3.812 5.391 7.445a5.903 5.903 0 0 1-5.883 4.346l-87.474-2.81a43.221 43.221 0 0 1-26.523-10.198l-76.07-64.329a4.888 4.888 0 0 1-1.203-5.943c1.392-2.745 4.942-3.536 7.367-1.643l85.416 66.668a7.638 7.638 0 0 0 4.303 1.605l94.676 4.859Z"/>
  <path fill="#363636" d="M69.035 250.725c2.342 11.705-1.888 27.605-12.216 29.671-10.327 2.066-22.841-10.485-25.183-22.189-2.341-11.705 4.133-22.868 14.46-24.934 10.328-2.066 20.598 5.748 22.94 17.452Z"/>
  <path fill="#363636" d="M76.016 272.666c-8.196 8.678-23.01 9.604-29.136 3.818-6.126-5.785-4.447-17.51 3.749-26.187 8.196-8.678 19.805-11.023 25.93-5.238 6.126 5.786 7.653 18.93-.543 27.607Z"/>
  <path fill="#FDDA88" d="M203.37 72.651a13.698 13.698 0 0 0-10.279 9.014L147.975 215.09a13.673 13.673 0 0 0 2.682 13.407l92.971 105.804a13.704 13.704 0 0 0 12.955 4.366l138.115-27.629a13.693 13.693 0 0 0 10.252-9.008l45.099-133.509a13.672 13.672 0 0 0-2.682-13.407l-92.954-105.72a13.703 13.703 0 0 0-12.928-4.372L203.37 72.651Z"/>
  <path fill="#39B5AC" d="M258.425 347.146a14.035 14.035 0 0 0-10.423 9.156l-45.804 135.426a14.035 14.035 0 0 0 2.721 13.599l94.369 107.356a13.866 13.866 0 0 0 13.143 4.443l140.18-28.041a13.872 13.872 0 0 0 10.394-9.151l45.81-135.398a14.036 14.036 0 0 0-2.72-13.599l-94.376-107.384a14.04 14.04 0 0 0-13.115-4.449l-140.179 28.042Z"/>
  <path fill="#363636" d="m452.164 599.88-138.032 27.612c-4.284.849-8.716.56-12.854-.837a24.994 24.994 0 0 1-10.728-7.129l-93.081-105.782a24.953 24.953 0 0 1-4.885-24.418l45.143-133.432a24.99 24.99 0 0 1 18.703-16.425l138.115-27.628a24.928 24.928 0 0 1 23.555 7.971l92.998 105.799a24.953 24.953 0 0 1 4.885 24.418L470.84 583.461a24.934 24.934 0 0 1-18.676 16.419ZM258.716 350.464a13.693 13.693 0 0 0-10.279 9.014l-45.199 133.443a13.667 13.667 0 0 0 2.682 13.407l92.971 105.803a13.706 13.706 0 0 0 12.956 4.366l138.114-27.628a13.713 13.713 0 0 0 6.328-3.137 13.714 13.714 0 0 0 3.924-5.871l45.144-133.432a13.813 13.813 0 0 0-2.682-13.407l-92.999-105.798a13.701 13.701 0 0 0-12.928-4.371l-138.032 27.611Z"/>
  <path fill="#363636" d="m396.726 322.743-138.032 27.612a24.995 24.995 0 0 1-23.583-7.967L142.03 236.607a24.96 24.96 0 0 1-4.885-24.419l45.144-133.432a24.99 24.99 0 0 1 18.786-16.441l138.114-27.628a24.933 24.933 0 0 1 23.555 7.971l92.999 105.798a24.96 24.96 0 0 1 4.884 24.419l-45.143 133.432a24.928 24.928 0 0 1-18.758 16.436ZM203.277 73.327a13.703 13.703 0 0 0-10.279 9.013L147.8 215.783a13.682 13.682 0 0 0-.456 7.063 13.681 13.681 0 0 0 3.137 6.344l92.972 105.804a13.698 13.698 0 0 0 12.955 4.365l138.115-27.628a13.7 13.7 0 0 0 10.252-9.008l45.143-133.432a13.812 13.812 0 0 0-2.682-13.407L354.238 50.086a13.703 13.703 0 0 0-12.928-4.371L203.277 73.327Z"/>
  <path fill="#363636" d="M414.906 329.041a5.612 5.612 0 0 1-5.341-1.794 24.904 24.904 0 0 1-4.879-24.392 5.622 5.622 0 0 1 10.654 3.595 13.619 13.619 0 0 0 2.677 13.38 5.625 5.625 0 0 1 1.39 4.085 5.615 5.615 0 0 1-1.919 3.865 5.598 5.598 0 0 1-2.582 1.261Z"/>
  <path fill="#363636" d="M418.026 327.214a7.041 7.041 0 0 1-5.962-3.961l-4.707-9.716 99.615 4.115 3.177-.031c21.6-.213 34.763 23.684 23.041 41.827l-26.975 51.844c-1.588 3.054-5.667 3.722-8.147 1.334a5.154 5.154 0 0 1-1.168-5.728l26.553-62.494a7.04 7.04 0 0 0 .512-3.573l-.099-.842a7.039 7.039 0 0 0-3.803-5.456l-2.852-1.449a7.036 7.036 0 0 0-2.816-.754l-96.369-5.116Z"/>
  <path fill="#363636" d="M497.067 414.441c-6.96-8.539-18.571-17.943-12.523-22.873 6.049-4.93 20.29 1.04 27.25 9.58 6.961 8.54 7.7 19.459 1.651 24.388-6.048 4.93-9.418-2.555-16.378-11.095Z"/>
  <path stroke="#363636" stroke-width="7.237" d="M287.994 187.594c4.481 22.398-9.084 43.64-29.804 47.785-20.72 4.145-41.413-10.245-45.893-32.643-4.481-22.398 9.084-43.641 29.804-47.786 20.72-4.144 41.413 10.245 45.893 32.644ZM384.744 167.01c4.48 22.398-9.085 43.641-29.805 47.786-20.72 4.145-41.413-10.245-45.893-32.643-4.481-22.399 9.084-43.641 29.804-47.786 20.721-4.145 41.413 10.245 45.894 32.643Z"/>
  <path fill="#363636" stroke="#363636" stroke-width="1.206" d="M279.679 173.702a2.95 2.95 0 0 1 .964-2.812l9.23-7.969a6.637 6.637 0 0 1 6.85-1.118l9.592 3.929a2.834 2.834 0 0 1 1.705 2.067c.424 2.118-1.581 3.913-3.639 3.258l-6.049-1.924a7.786 7.786 0 0 0-6.995 1.164l-7.008 5.196c-1.738 1.289-4.226.33-4.65-1.791Z"/>
  <path stroke="#363636" stroke-linecap="round" stroke-width="2.412" d="m289.519 253.713 11.685 5.027a16.884 16.884 0 0 0 15.192-.931l10.248-5.987"/>
  <path stroke="#363636" stroke-linecap="round" stroke-width="3.619" d="M201.428 153.384c13.853-10.728 28.281-20.655 45.348-23.868M315.618 120.183c8.223-4.433 19.607-7.378 29.175-6.262.896.104 7.094 1.35 5.574 1.447"/>
  <path fill="#363636" stroke="#363636" stroke-width="1.206" d="M262.144 194.039c.333.39.451.762.452 1.082 0 .325-.121.646-.354.931-.472.577-1.388.972-2.444.783l-8.686-1.547a4.218 4.218 0 0 0-3.023.605l-7.422 4.769c-.903.581-1.9.569-2.557.218a1.466 1.466 0 0 1-.685-.724c-.123-.295-.156-.684 0-1.173.421-1.312 1.111-2.587 2.058-3.761 2.121-2.631 5.353-4.531 8.992-5.259 3.639-.728 7.353-.217 10.323 1.395 1.326.72 2.453 1.631 3.346 2.681ZM357.002 176.294c.332.39.451.762.451 1.082 0 .324-.12.646-.354.931-.472.577-1.387.972-2.444.783l-8.686-1.547a4.218 4.218 0 0 0-3.023.605l-7.422 4.769c-.903.58-1.9.569-2.557.218a1.466 1.466 0 0 1-.685-.724c-.123-.295-.156-.685 0-1.173.421-1.312 1.111-2.587 2.058-3.761 2.122-2.631 5.353-4.532 8.992-5.259 3.639-.728 7.353-.218 10.323 1.395 1.326.72 2.453 1.631 3.347 2.681Z"/>
</svg>