<svg xmlns="http://www.w3.org/2000/svg" fill="none">
  <path fill="#39B5AC" d="M27.69.267a4.55 4.55 0 0 0-2.208.587 4.431 4.431 0 0 0-1.623 1.578L1.065 41.086a4.311 4.311 0 0 0 0 4.33l22.794 38.645a4.377 4.377 0 0 0 1.62 1.586c.672.38 1.435.58 2.212.58h45.588a4.495 4.495 0 0 0 2.207-.583 4.377 4.377 0 0 0 1.616-1.583l22.794-38.645a4.31 4.31 0 0 0 0-4.33L77.102 2.432a4.431 4.431 0 0 0-1.62-1.576 4.55 4.55 0 0 0-2.203-.59H27.69ZM134.379 52.215a.908.908 0 0 0-.767.433l-4.559 7.731a.867.867 0 0 0 0 .866l4.559 7.73a.882.882 0 0 0 .767.432h9.117a.879.879 0 0 0 .765-.433l4.559-7.729a.869.869 0 0 0 0-.866l-4.559-7.73a.892.892 0 0 0-.765-.434h-9.117Z" opacity=".2"/>
  <g fill="#282828" clip-path="url(#a)">
    <path d="M84.318 111.859c-8.906 0-16.163-7.256-16.163-16.162 0-8.907 7.257-16.163 16.163-16.163s16.162 7.256 16.162 16.162c0 8.926-7.256 16.163-16.162 16.163Zm0-30.45c-7.894 0-14.306 6.412-14.306 14.306 0 7.894 6.412 14.306 14.306 14.306 7.894 0 14.306-6.412 14.306-14.306 0-7.894-6.412-14.306-14.306-14.306ZM93.262 50.865c-6.432 0-11.663-5.231-11.663-11.662 0-6.431 5.231-11.663 11.663-11.663 6.43 0 11.662 5.232 11.662 11.663.019 6.431-5.212 11.662-11.662 11.662Zm0-21.506c-5.42 0-9.825 4.406-9.825 9.825s4.406 9.825 9.825 9.825c5.418 0 9.825-4.406 9.825-9.825 0-5.4-4.407-9.825-9.825-9.825ZM125.343 117.165c-6.431 0-11.663-5.25-11.663-11.681 0-.956.113-1.875.319-2.719 1.238-5.269 5.906-8.944 11.344-8.944 6.431 0 11.662 5.232 11.662 11.663s-5.231 11.681-11.662 11.681Zm0-21.506c-4.575 0-8.513 3.094-9.544 7.537-.187.713-.262 1.482-.262 2.288 0 5.419 4.406 9.844 9.825 9.844 5.418 0 9.825-4.407 9.825-9.844-.038-5.419-4.444-9.825-9.844-9.825ZM32.549 111.859c-6.431 0-11.662-5.231-11.662-11.663 0-6.43 5.23-11.662 11.662-11.662 6.431 0 11.663 5.231 11.663 11.662 0 6.432-5.232 11.663-11.663 11.663Zm0-21.487c-5.419 0-9.825 4.406-9.825 9.824 0 5.419 4.406 9.825 9.825 9.825s9.825-4.406 9.825-9.825c0-5.418-4.406-9.825-9.825-9.825ZM50.774 67.759c-4.631 0-8.419-3.769-8.419-8.419a8.418 8.418 0 0 1 8.419-8.419 8.418 8.418 0 0 1 8.419 8.42 8.418 8.418 0 0 1-8.419 8.418Zm0-14.981a6.57 6.57 0 0 0-6.563 6.562 6.57 6.57 0 0 0 6.563 6.563 6.57 6.57 0 0 0 6.563-6.563 6.558 6.558 0 0 0-6.563-6.562ZM101.08 137.265c-3.918 0-7.087-3.187-7.087-7.106s3.187-7.106 7.087-7.106c3.919 0 7.107 3.187 7.107 7.106-.019 3.919-3.188 7.106-7.107 7.106Zm0-12.337c-2.887 0-5.25 2.362-5.25 5.25 0 2.887 2.363 5.25 5.25 5.25 2.888 0 5.25-2.363 5.25-5.25a5.253 5.253 0 0 0-5.25-5.25ZM57.449 147.521a8.417 8.417 0 0 1-8.419-8.418c0-4.632 3.769-8.419 8.419-8.419a8.418 8.418 0 0 1 8.419 8.419 8.418 8.418 0 0 1-8.419 8.418Zm0-14.981a6.57 6.57 0 0 0-6.563 6.563 6.57 6.57 0 0 0 6.563 6.562 6.57 6.57 0 0 0 6.563-6.562c.018-3.619-2.925-6.563-6.563-6.563Z"/>
    <path d="M86.699 81.596c-.056 0-.094 0-.15-.018a.916.916 0 0 1-.769-1.05l4.894-30.863a.926.926 0 0 1 1.05-.769.916.916 0 0 1 .769 1.05L87.599 80.81a.91.91 0 0 1-.9.787ZM43.237 100.197a.92.92 0 0 1-.075-1.838l25.893-2.25c.488-.056.957.338.994.844a.924.924 0 0 1-.844.994l-25.893 2.25h-.075ZM114.88 103.909c-.075 0-.15 0-.206-.019l-15.769-3.75a.935.935 0 0 1-.694-1.106.91.91 0 0 1 1.106-.675l15.769 3.75a.92.92 0 0 1 .694 1.106.908.908 0 0 1-.9.694ZM61.387 133.665a.906.906 0 0 1-.488-.131.935.935 0 0 1-.3-1.275l14.907-24.075a.935.935 0 0 1 1.275-.3.935.935 0 0 1 .3 1.275l-14.907 24.075a.95.95 0 0 1-.787.431ZM73.987 85.44a.872.872 0 0 1-.675-.3L55.18 65.453a.94.94 0 0 1 .057-1.313.94.94 0 0 1 1.312.056L74.68 83.884a.94.94 0 0 1-.056 1.312.94.94 0 0 1-.637.244ZM96.374 87.334a.952.952 0 0 1-.731-.356.908.908 0 0 1 .169-1.294l13.95-10.763a.907.907 0 0 1 1.293.17.908.908 0 0 1-.168 1.293l-13.95 10.763a1.06 1.06 0 0 1-.563.187ZM98.38 125.546a.898.898 0 0 1-.825-.525l-7.406-15.206a.921.921 0 0 1 .431-1.237.921.921 0 0 1 1.238.431l7.406 15.206a.922.922 0 0 1-.431 1.238 1.101 1.101 0 0 1-.413.093Z"/>
    <path d="M114.58 78.653a6.321 6.321 0 0 1-6.318-6.32 6.321 6.321 0 0 1 6.318-6.318 6.321 6.321 0 0 1 6.319 6.319 6.322 6.322 0 0 1-6.319 6.319Zm0-10.782a4.473 4.473 0 0 0-4.462 4.463 4.473 4.473 0 0 0 4.462 4.462 4.473 4.473 0 0 0 4.463-4.462 4.462 4.462 0 0 0-4.463-4.463Z"/>
  </g>
  <defs>
    <clipPath id="a">
      <path fill="#fff" d="M18.936 27.521h120v120h-120z"/>
    </clipPath>
  </defs>
</svg>